M48
; DRILL file {KiCad (5.1.4)-1} date 4/3/2021 4:46:10 PM
; FORMAT={-:-/ absolute / inch / decimal}
; #@! TF.CreationDate,2021-04-03T16:46:10-04:00
; #@! TF.GenerationSoftware,Kicad,Pcbnew,(5.1.4)-1
; #@! TF.FileFunction,Plated,1,2,PTH
FMAT,2
INCH
T1C0.0157
T2C0.0236
T3C0.0354
T4C0.0394
T5C0.0409
T6C0.0579
T7C0.0591
%
G90
G05
T1
X-0.4751Y-3.122
X-0.423Y-3.153
X-0.2776Y-1.2454
X-0.14Y-1.2825
X0.685Y-2.41
X0.7926Y-0.434
X0.816Y-1.2346
X1.05Y-1.37
X1.4635Y-0.3515
X1.5435Y-0.433
X1.6901Y-1.1015
X1.7169Y-1.8515
X1.9559Y-2.6015
X2.4213Y-0.4324
X2.5101Y-3.4106
X2.6772Y-2.6188
X3.093Y-0.493
X3.8267Y-0.649
X4.395Y-1.74
X4.5605Y-0.8053
X4.7039Y-2.986
X5.055Y-3.705
X5.1322Y-1.8877
X5.29Y-2.465
X5.3074Y-0.9624
X5.315Y-2.505
X5.345Y-2.54
X5.3694Y-1.6557
X5.4139Y-2.3298
X5.415Y-3.085
X5.4511Y-4.0152
X5.452Y-2.0052
X5.4559Y-1.5943
X5.4601Y-1.3901
X5.4682Y-3.2523
X5.52Y-1.175
X5.5312Y-2.5112
X5.5406Y-1.8087
X5.5427Y-1.848
X5.5475Y-1.0308
X5.5695Y-1.7815
X5.5698Y-1.882
X5.5698Y-2.688
X5.5915Y-1.0355
X5.6086Y-1.912
X5.615Y-2.005
X5.6199Y-2.5304
X5.635Y-1.04
X5.635Y-3.459
X5.645Y-1.7425
X5.6552Y-2.832
X5.6758Y-2.2118
X5.6934Y-3.1068
X5.7088Y-2.7267
X5.7417Y0.0555
X5.759Y-2.1006
X5.7652Y-2.3146
X5.7884Y-2.7267
X5.7944Y-0.0056
X5.7944Y-0.227
X5.7944Y-0.4317
X5.7944Y-1.0627
X5.7944Y-0.6351
X5.7944Y-0.863
X5.795Y0.26
X5.825Y0.22
X5.835Y-3.1225
X5.864Y-1.929
X5.8705Y-2.7267
X5.8845Y-2.8215
X5.926Y-1.9256
X5.95Y0.43
X5.9504Y-0.1094
X5.9505Y0.1689
X5.9505Y0.0554
X5.955Y-2.7267
X6.0113Y-2.0834
X6.015Y-2.831
X6.03Y-1.872
X6.0482Y-2.3796
X6.08Y0.22
X6.0851Y-0.0818
X6.105Y0.26
X6.14Y-0.015
X6.262Y-2.239
X6.3151Y-0.8999
X6.5417Y-2.4118
X7.033Y-2.13
X7.2357Y-2.3169
X7.467Y-1.454
X7.9693Y-2.161
X8.5073Y-2.6939
X8.5974Y-0.4636
X8.7033Y-2.0045
X8.7076Y-3.4785
X9.4025Y-0.353
X9.427Y-1.131
X9.8609Y-1.0597
X10.0269Y-2.6015
X10.0674Y-0.2672
X10.1355Y-0.4193
X10.2191Y-1.8515
X10.41Y-1.3825
X10.6755Y-1.153
X10.6767Y-0.4433
X10.7616Y-1.9398
X10.9775Y-0.6325
X11.203Y-0.278
X11.315Y-1.038
X11.6115Y-1.1493
T3
X-0.661Y-3.3709
X-0.561Y-3.3709
X-0.661Y-3.1937
X-0.561Y-3.1937
X-0.661Y-3.0165
X-0.561Y-3.0165
T4
X-0.0984Y0.2756
X-0.0984Y-0.2953
X0.0Y-0.2953
X0.0984Y0.2756
X0.0984Y-0.2953
T5
X9.2536Y-0.9925
X9.3536Y-0.9925
X4.0334Y-3.6056
X4.1312Y-3.6264
X7.233Y-0.5959
X7.3308Y-0.5751
X4.0787Y-2.0814
X4.1765Y-2.1022
X6.2883Y-1.5632
X6.3861Y-1.5424
X1.8449Y-1.7843
X1.9449Y-1.7843
X6.6277Y-2.2581
X6.7255Y-2.2373
X3.5557Y-2.7368
X3.6535Y-2.7576
X8.0949Y-1.9462
X8.1927Y-1.9254
X1.6063Y-0.2843
X1.7063Y-0.2843
X4.2894Y-2.8928
X4.3872Y-2.9136
X11.6748Y-1.0343
X11.7748Y-1.0343
X8.4892Y-1.0954
X8.587Y-1.0746
X8.6175Y-2.6017
X8.7153Y-2.5809
X0.6259Y-1.7843
X0.7259Y-1.7843
X2.6115Y-1.7695
X2.7093Y-1.7903
X11.6981Y-0.2843
X11.7981Y-0.2843
X7.9666Y-0.4399
X8.0644Y-0.4191
X9.3832Y-2.5343
X9.4832Y-2.5343
X1.8173Y-1.0343
X1.9173Y-1.0343
X11.3231Y-0.2841
X11.4231Y-0.2841
X8.8069Y-3.3887
X8.9047Y-3.3679
X2.5839Y-0.9967
X2.6817Y-1.0174
X3.8404Y-0.4971
X3.9382Y-0.5179
X-0.2138Y-0.95
X-0.1138Y-0.95
X6.4993Y-0.7518
X6.5971Y-0.731
X3.1068Y-0.3411
X3.2046Y-0.3619
X5.3074Y-0.809
X5.4052Y-0.8298
X-0.05Y-0.2
X0.05Y-0.2
X4.7848Y-1.4645
X4.8826Y-1.4853
X7.7555Y-1.2513
X7.8534Y-1.2305
X7.0219Y-1.4073
X7.1197Y-1.3865
X0.5559Y-3.2843
X0.6559Y-3.2843
X2.6327Y-3.3679
X2.7306Y-3.3887
X10.1319Y-2.5343
X10.2319Y-2.5343
X7.1503Y-2.9136
X7.2481Y-2.8928
X3.3451Y-1.9254
X3.4429Y-1.9462
X11.8621Y-3.2861
X11.9621Y-3.2861
X7.8839Y-2.7576
X7.9817Y-2.7368
X10.343Y-1.7843
X10.443Y-1.7843
X12.1945Y-2.5343
X12.2945Y-2.5343
X11.5382Y-2.5343
X11.6382Y-2.5343
X9.593Y-1.7843
X9.693Y-1.7843
X5.225Y-3.8585
X5.3228Y-3.8793
X9.987Y-1.0343
X10.087Y-1.0343
X0.837Y-2.5343
X0.937Y-2.5343
X2.3402Y-0.2
X2.4402Y-0.2
X5.023Y-3.0487
X5.1208Y-3.0695
X3.3175Y-1.1526
X3.4154Y-1.1734
X6.4167Y-3.0695
X6.5145Y-3.0487
X2.0555Y-2.5343
X2.1555Y-2.5343
X4.8123Y-2.2373
X4.9102Y-2.2581
X-0.374Y-1.7
X-0.274Y-1.7
X11.1632Y-2.5343
X11.2632Y-2.5343
X4.574Y-0.653
X4.6718Y-0.6738
X7.2159Y-3.6667
X7.3137Y-3.6459
X7.3613Y-2.1022
X7.4591Y-2.0814
X0.8563Y-0.2843
X0.9563Y-0.2843
X5.1355Y-3.8388
X5.2333Y-3.8596
X2.8221Y-2.5809
X2.9199Y-2.6017
X11.5615Y-1.7843
X11.6615Y-1.7843
X8.8285Y-1.7903
X8.9264Y-1.7695
X0.8799Y-1.0343
X0.9799Y-1.0343
X3.9395Y-3.5849
X4.0373Y-3.6057
X4.0512Y-1.3085
X4.149Y-1.3293
X10.9481Y-0.2843
X11.0481Y-0.2843
X8.7002Y-0.284
X8.798Y-0.2632
X10.1981Y-0.2843
X10.2981Y-0.2843
X0.8135Y-1.7843
X0.9135Y-1.7843
X10.737Y-1.0343
X10.837Y-1.0343
X9.4646Y-0.2
X9.5646Y-0.2
T6
X1.7449Y-1.4843
X1.9949Y-1.3843
X6.4675Y-1.9855
X6.6912Y-1.8357
X3.5203Y-2.4226
X3.7856Y-2.3768
X7.9347Y-1.6736
X8.1585Y-1.5238
X1.5063Y0.0157
X1.7563Y0.1157
X4.2539Y-2.5786
X4.5192Y-2.5327
X11.5748Y-0.7343
X11.8248Y-0.6343
X8.329Y-0.8227
X8.5527Y-0.6729
X8.4573Y-2.329
X8.6811Y-2.1792
X0.5259Y-1.4843
X0.7759Y-1.3843
X2.576Y-1.4553
X2.8414Y-1.4094
X11.5981Y0.0157
X11.8481Y0.1157
X7.8064Y-0.1673
X8.0301Y-0.0175
X9.2832Y-2.2343
X9.5332Y-2.1343
X1.7173Y-0.7343
X1.9673Y-0.6343
X11.2231Y0.0159
X11.4731Y0.1159
X8.6467Y-3.116
X8.8704Y-2.9663
X2.5485Y-0.6824
X2.8138Y-0.6366
X3.8049Y-0.1828
X4.0703Y-0.137
X-0.3138Y-0.65
X-0.0638Y-0.55
X6.3391Y-0.4792
X6.5629Y-0.3294
X3.0713Y-0.0269
X3.3366Y0.0189
X5.272Y-0.4947
X5.5373Y-0.4489
X-0.15Y0.1
X0.1Y0.2
X4.7493Y-1.1503
X5.0147Y-1.1044
X7.5954Y-0.9787
X7.8191Y-0.8289
X6.8617Y-1.1346
X7.0855Y-0.9848
X0.4559Y-2.9843
X0.7059Y-2.8843
X2.5973Y-3.0537
X2.8626Y-3.0078
X10.0319Y-2.2343
X10.2819Y-2.1343
X6.9901Y-2.6409
X7.2138Y-2.4911
X3.3097Y-1.6112
X3.575Y-1.5654
X11.7621Y-2.9861
X12.0121Y-2.8861
X7.7237Y-2.485
X7.9475Y-2.3352
X10.243Y-1.4843
X10.493Y-1.3843
X12.0945Y-2.2343
X12.3445Y-2.1343
X11.4382Y-2.2343
X11.6882Y-2.1343
X9.493Y-1.4843
X9.743Y-1.3843
X5.1896Y-3.5443
X5.4549Y-3.4985
X9.887Y-0.7343
X10.137Y-0.6343
X0.737Y-2.2343
X0.987Y-2.1343
X2.2402Y0.1
X2.4902Y0.2
X4.9875Y-2.7345
X5.2529Y-2.6887
X3.2821Y-0.8384
X3.5474Y-0.7925
X6.2565Y-2.7969
X6.4802Y-2.6471
X1.9555Y-2.2343
X2.2055Y-2.1343
X4.7769Y-1.9231
X5.0422Y-1.8772
X-0.474Y-1.4
X-0.224Y-1.3
X11.0632Y-2.2343
X11.3132Y-2.1343
X4.5386Y-0.3388
X4.8039Y-0.293
X7.0557Y-3.394
X7.2795Y-3.2442
X7.2011Y-1.8295
X7.4249Y-1.6797
X0.7563Y0.0157
X1.0063Y0.1157
X5.1Y-3.5246
X5.3653Y-3.4787
X2.7867Y-2.2667
X3.052Y-2.2208
X11.4615Y-1.4843
X11.7115Y-1.3843
X8.6684Y-1.5176
X8.8921Y-1.3678
X0.7799Y-0.7343
X1.0299Y-0.6343
X3.9041Y-3.2706
X4.1694Y-3.2248
X4.0157Y-0.9943
X4.2811Y-0.9485
X10.8481Y0.0157
X11.0981Y0.1157
X8.54Y-0.0113
X8.7638Y0.1385
X10.0981Y0.0157
X10.3481Y0.1157
X0.7135Y-1.4843
X0.9635Y-1.3843
X10.637Y-0.7343
X10.887Y-0.6343
X9.3646Y0.1
X9.6146Y0.2
X9.1536Y-0.6925
X9.4036Y-0.5925
X3.998Y-3.2914
X4.2633Y-3.2455
X7.0728Y-0.3232
X7.2965Y-0.1734
X4.0433Y-1.7671
X4.3086Y-1.7213
X6.1281Y-1.2906
X6.3519Y-1.1408
T2
G00X5.7803Y0.5165
M15
G01X5.7803Y0.4929
M16
G05
G00X5.7803Y0.3618
M15
G01X5.7803Y0.3184
M16
G05
G00X6.1205Y0.5165
M15
G01X6.1205Y0.4929
M16
G05
G00X6.1205Y0.3618
M15
G01X6.1205Y0.3184
M16
G05
T7
G00X-0.2205Y-0.0256
M15
G01X-0.2205Y0.0256
M16
G05
G00X0.2205Y-0.0256
M15
G01X0.2205Y0.0256
M16
G05
T0
M30
