G04 #@! TF.GenerationSoftware,KiCad,Pcbnew,(5.1.4)-1*
G04 #@! TF.CreationDate,2021-01-20T09:16:13-05:00*
G04 #@! TF.ProjectId,f103,66313033-2e6b-4696-9361-645f70636258,rev?*
G04 #@! TF.SameCoordinates,Original*
G04 #@! TF.FileFunction,Soldermask,Top*
G04 #@! TF.FilePolarity,Negative*
%FSLAX46Y46*%
G04 Gerber Fmt 4.6, Leading zero omitted, Abs format (unit mm)*
G04 Created by KiCad (PCBNEW (5.1.4)-1) date 2021-01-20 09:16:13*
%MOMM*%
%LPD*%
G04 APERTURE LIST*
%ADD10R,2.100000X2.100000*%
%ADD11C,2.100000*%
%ADD12O,2.100000X3.300000*%
%ADD13O,1.800000X1.800000*%
%ADD14R,1.800000X1.800000*%
%ADD15R,1.900000X1.900000*%
%ADD16C,1.900000*%
%ADD17C,4.087800*%
%ADD18C,1.850000*%
%ADD19C,3.148000*%
%ADD20O,1.800000X2.800000*%
%ADD21C,5.100000*%
G04 APERTURE END LIST*
D10*
X15002251Y-53478916D03*
D11*
X17502251Y-53478916D03*
X20002251Y-53478916D03*
D12*
X11902251Y-45978916D03*
X23102251Y-45978916D03*
D11*
X15002251Y-38978916D03*
X20002251Y-38978916D03*
D13*
X172051182Y-40339546D03*
X169511182Y-40339546D03*
X166971182Y-40339546D03*
D14*
X164431182Y-40339546D03*
D15*
X712252Y-131598910D03*
D16*
X3252252Y-131598910D03*
D15*
X712252Y-127098920D03*
D16*
X3252252Y-127098920D03*
D15*
X712249Y-122598920D03*
D16*
X3252249Y-122598920D03*
D17*
X150241252Y-138779921D03*
D18*
X145272262Y-137723730D03*
X155210242Y-139836112D03*
D17*
X119864250Y-132329917D03*
D18*
X114895260Y-131273726D03*
X124833240Y-133386108D03*
D19*
X106734861Y-136680228D03*
X130089113Y-141644328D03*
D17*
X109903435Y-121773259D03*
X133257687Y-126737358D03*
X34671251Y-86218917D03*
D18*
X29591251Y-86218917D03*
X39751251Y-86218917D03*
D17*
X328512253Y-105268919D03*
D18*
X323432253Y-105268919D03*
X333592253Y-105268919D03*
D17*
X302318249Y-105268919D03*
D18*
X297238249Y-105268919D03*
X307398249Y-105268919D03*
D17*
X315903249Y-48118917D03*
D18*
X310823249Y-48118917D03*
X320983249Y-48118917D03*
D17*
X296853252Y-48118916D03*
D18*
X291773252Y-48118916D03*
X301933252Y-48118916D03*
D17*
X320069250Y-124366919D03*
D18*
X314989250Y-124366919D03*
X325149250Y-124366919D03*
D17*
X315313253Y-67168913D03*
D18*
X310233253Y-67168913D03*
X320393253Y-67168913D03*
D17*
X311843247Y-105268913D03*
D18*
X306763247Y-105268913D03*
X316923247Y-105268913D03*
D19*
X299905247Y-98283913D03*
X323781247Y-98283913D03*
D17*
X299905247Y-113523913D03*
X323781247Y-113523913D03*
X312433249Y-86218916D03*
D18*
X307353249Y-86218916D03*
X317513249Y-86218916D03*
D19*
X300495249Y-93203916D03*
X324371249Y-93203916D03*
D17*
X300495249Y-77963916D03*
X324371249Y-77963916D03*
X291493252Y-67168923D03*
D18*
X286413252Y-67168923D03*
X296573252Y-67168923D03*
D17*
X306378251Y-48116095D03*
D18*
X301298251Y-48116095D03*
X311458251Y-48116095D03*
D19*
X294440251Y-41131095D03*
X318316251Y-41131095D03*
D17*
X294440251Y-56371095D03*
X318316251Y-56371095D03*
X276123251Y-105268922D03*
D18*
X271043251Y-105268922D03*
X281203251Y-105268922D03*
D17*
X281483251Y-86218917D03*
D18*
X276403251Y-86218917D03*
X286563251Y-86218917D03*
D17*
X272443255Y-67168920D03*
D18*
X267363255Y-67168920D03*
X277523255Y-67168920D03*
D17*
X277803253Y-48118919D03*
D18*
X272723253Y-48118919D03*
X282883253Y-48118919D03*
D17*
X257105252Y-105268915D03*
D18*
X252025252Y-105268915D03*
X262185252Y-105268915D03*
D17*
X262433249Y-86218912D03*
D18*
X257353249Y-86218912D03*
X267513249Y-86218912D03*
D17*
X253813252Y-66108923D03*
D18*
X248733252Y-66108923D03*
X258893252Y-66108923D03*
D17*
X259173247Y-45978914D03*
D18*
X254093247Y-45978914D03*
X264253247Y-45978914D03*
D17*
X241383252Y-126818916D03*
D18*
X236414262Y-127875107D03*
X246352242Y-125762725D03*
D17*
X236573249Y-106828919D03*
D18*
X231604259Y-107885110D03*
X241542239Y-105772728D03*
D17*
X241933251Y-86218918D03*
D18*
X236964261Y-87275109D03*
X246902241Y-85162727D03*
D17*
X233313248Y-68568919D03*
D18*
X228344258Y-69625110D03*
X238282238Y-67512728D03*
D17*
X238673252Y-47958920D03*
D18*
X233704262Y-49015111D03*
X243642242Y-46902729D03*
D17*
X217939254Y-110789923D03*
D18*
X212970264Y-111846114D03*
X222908244Y-109733732D03*
D17*
X223299253Y-90179914D03*
D18*
X218330263Y-91236105D03*
X228268243Y-89123723D03*
D17*
X214679252Y-72529913D03*
D18*
X209710262Y-73586104D03*
X219648242Y-71473722D03*
D17*
X220039250Y-51919921D03*
D18*
X215070260Y-52976112D03*
X225008240Y-50863730D03*
D17*
X200972250Y-133879923D03*
D18*
X196003260Y-134936114D03*
X205941240Y-132823732D03*
D19*
X190747387Y-143194334D03*
X214101639Y-138230234D03*
D17*
X187578813Y-128287364D03*
X210933065Y-123323265D03*
X199305250Y-114750923D03*
D18*
X194336260Y-115807114D03*
X204274240Y-113694732D03*
D17*
X204665248Y-94140915D03*
D18*
X199696258Y-95197106D03*
X209634238Y-93084724D03*
D17*
X196045248Y-76490920D03*
D18*
X191076258Y-77547111D03*
X201014238Y-75434729D03*
D17*
X201405249Y-55880915D03*
D18*
X196436259Y-56937106D03*
X206374239Y-54824724D03*
D17*
X180671250Y-118711916D03*
D18*
X175702260Y-119768107D03*
X185640240Y-117655725D03*
D17*
X186031255Y-98101911D03*
D18*
X181062265Y-99158102D03*
X191000245Y-97045720D03*
D17*
X177411253Y-80451917D03*
D18*
X172442263Y-81508108D03*
X182380243Y-79395726D03*
D17*
X182771249Y-59841912D03*
D18*
X177802259Y-60898103D03*
X187740239Y-58785721D03*
D17*
X154609248Y-61821918D03*
D18*
X149640258Y-60765727D03*
X159578238Y-62878109D03*
D17*
X152516249Y-139280918D03*
D18*
X147547259Y-138224727D03*
X157485239Y-140337109D03*
D17*
X147384251Y-118711916D03*
D18*
X142415261Y-117655725D03*
X152353241Y-119768107D03*
D17*
X142034254Y-98101913D03*
D18*
X137065264Y-97045722D03*
X147003244Y-99158104D03*
D17*
X141334253Y-78471922D03*
D18*
X136365263Y-77415731D03*
X146303243Y-79528113D03*
D17*
X135980255Y-57860916D03*
D18*
X131011265Y-56804725D03*
X140949245Y-58917107D03*
D17*
X122249248Y-132855919D03*
D18*
X117280258Y-131799728D03*
X127218238Y-133912110D03*
D19*
X109119859Y-137206230D03*
X132474111Y-142170330D03*
D17*
X112288433Y-122299261D03*
X135642685Y-127263360D03*
X128750248Y-114750914D03*
D18*
X123781258Y-113694723D03*
X133719238Y-115807105D03*
D17*
X123400248Y-94140917D03*
D18*
X118431258Y-93084726D03*
X128369238Y-95197108D03*
D17*
X122700248Y-74510919D03*
D18*
X117731258Y-73454728D03*
X127669238Y-75567110D03*
D17*
X117346250Y-53899917D03*
D18*
X112377260Y-52843726D03*
X122315240Y-54956108D03*
D17*
X110116253Y-110789922D03*
D18*
X105147263Y-109733731D03*
X115085243Y-111846113D03*
D17*
X104766252Y-90179914D03*
D18*
X99797262Y-89123723D03*
X109735242Y-91236105D03*
D17*
X104066255Y-70549919D03*
D18*
X99097265Y-69493728D03*
X109035245Y-71606110D03*
D17*
X98712256Y-49938919D03*
D18*
X93743266Y-48882728D03*
X103681246Y-50995110D03*
D17*
X86672251Y-126818921D03*
D18*
X81703261Y-125762730D03*
X91641241Y-127875112D03*
D17*
X91482255Y-106828918D03*
D18*
X86513265Y-105772727D03*
X96451245Y-107885109D03*
D17*
X86132254Y-86218916D03*
D18*
X81163264Y-85162725D03*
X91101244Y-87275107D03*
D17*
X85432254Y-66588917D03*
D18*
X80463264Y-65532726D03*
X90401244Y-67645108D03*
D17*
X78212250Y-45978916D03*
D18*
X73132250Y-45978916D03*
X83292250Y-45978916D03*
D17*
X70982247Y-105268919D03*
D18*
X65902247Y-105268919D03*
X76062247Y-105268919D03*
D17*
X65632252Y-86218919D03*
D18*
X60552252Y-86218919D03*
X70712252Y-86218919D03*
D17*
X64932255Y-67168917D03*
D18*
X59852255Y-67168917D03*
X70012255Y-67168917D03*
D17*
X59572258Y-48118915D03*
D18*
X54492258Y-48118915D03*
X64652258Y-48118915D03*
D17*
X32892256Y-124318917D03*
D18*
X27812256Y-124318917D03*
X37972256Y-124318917D03*
D17*
X40032247Y-105268918D03*
D18*
X34952247Y-105268918D03*
X45112247Y-105268918D03*
D19*
X28094247Y-98283918D03*
X51970247Y-98283918D03*
D17*
X28094247Y-113523918D03*
X51970247Y-113523918D03*
X39434256Y-86218912D03*
D18*
X34354256Y-86218912D03*
X44514256Y-86218912D03*
D17*
X41122252Y-67168919D03*
D18*
X36042252Y-67168919D03*
X46202252Y-67168919D03*
D17*
X40522253Y-48118914D03*
D18*
X35442253Y-48118914D03*
X45602253Y-48118914D03*
D17*
X9272254Y-84078921D03*
D18*
X4192254Y-84078921D03*
X14352254Y-84078921D03*
D17*
X13342246Y-65028918D03*
D18*
X8262246Y-65028918D03*
X18422246Y-65028918D03*
D17*
X17502251Y-45978916D03*
D18*
X12422251Y-45978916D03*
X22582251Y-45978916D03*
D20*
X164992251Y-37060360D03*
X172292251Y-37060360D03*
X172292251Y-32560360D03*
X164992251Y-32560360D03*
D21*
X208455248Y-41056916D03*
X127510253Y-42736911D03*
M02*
