M48
; DRILL file {KiCad (5.1.4)-1} date 3/7/2021 7:39:06 PM
; FORMAT={-:-/ absolute / inch / decimal}
; #@! TF.CreationDate,2021-03-07T19:39:06-05:00
; #@! TF.GenerationSoftware,Kicad,Pcbnew,(5.1.4)-1
; #@! TF.FileFunction,NonPlated,1,2,NPTH
FMAT,2
INCH
T1C0.0256
T2C0.0689
T3C0.1200
T4C0.1570
T5C0.1969
%
G90
G05
T1
X5.8366Y0.361
X6.0642Y0.361
T2
X7.173Y-1.9377
X7.5643Y-1.8546
X9.1036Y-0.7925
X9.5036Y-0.7925
X2.1902Y-0.0
X2.5902Y-0.0
X6.311Y-0.5874
X6.7023Y-0.5042
X6.2283Y-2.9051
X6.6196Y-2.8219
X4.4689Y-0.4262
X4.8601Y-0.5094
X9.443Y-1.5843
X9.843Y-1.5843
X11.3882Y-2.3343
X11.7882Y-2.3343
X4.1842Y-2.666
X4.5755Y-2.7491
X10.0481Y-0.0843
X10.4481Y-0.0843
X3.4506Y-2.51
X3.8419Y-2.5932
X5.0303Y-3.612
X5.4216Y-3.6952
X12.0445Y-2.3343
X12.4445Y-2.3343
X3.0016Y-0.1143
X3.3929Y-0.1975
X11.5248Y-0.8343
X11.9248Y-0.8343
X10.193Y-1.5843
X10.593Y-1.5843
X0.4059Y-3.0843
X0.8059Y-3.0843
X8.4292Y-2.4373
X8.8205Y-2.3541
X11.5481Y-0.0843
X11.9481Y-0.0843
X2.717Y-2.3541
X3.1082Y-2.4373
X8.5119Y-0.1195
X8.9031Y-0.0364
X6.962Y-2.7491
X7.3532Y-2.666
X2.4788Y-0.7698
X2.87Y-0.853
X7.5672Y-1.0869
X7.9585Y-1.0037
X10.7981Y-0.0843
X11.1981Y-0.0843
X0.687Y-2.3343
X1.087Y-2.3343
X6.4394Y-2.0937
X6.8306Y-2.0105
X0.6635Y-1.5843
X1.0635Y-1.5843
X5.1199Y-3.6317
X5.5111Y-3.7149
X11.7121Y-3.0861
X12.1121Y-3.0861
X7.0446Y-0.4314
X7.4359Y-0.3483
X6.8336Y-1.2428
X7.2249Y-1.1597
X3.946Y-1.0817
X4.3373Y-1.1649
X11.0132Y-2.3343
X11.4132Y-2.3343
X4.9178Y-2.8219
X5.3091Y-2.9051
X3.9736Y-1.8546
X4.3648Y-1.9377
X11.1731Y-0.0841
X11.5731Y-0.0841
X2.5276Y-3.1411
X2.9189Y-3.2243
X10.587Y-0.8343
X10.987Y-0.8343
X7.0276Y-3.5023
X7.4189Y-3.4191
X0.7299Y-0.8343
X1.1299Y-0.8343
X8.6402Y-1.6258
X9.0315Y-1.5427
X-0.2Y0.0
X0.2Y0.0
X11.4115Y-1.5843
X11.8115Y-1.5843
X1.6673Y-0.8343
X2.0673Y-0.8343
X-0.524Y-1.5
X-0.124Y-1.5
X8.6186Y-3.2243
X9.0098Y-3.1411
X-0.3638Y-0.75
X0.0362Y-0.75
X1.6949Y-1.5843
X2.0949Y-1.5843
X7.7783Y-0.2755
X8.1695Y-0.1923
X3.9283Y-3.3788
X4.3195Y-3.4619
X1.9055Y-2.3343
X2.3055Y-2.3343
X6.1Y-1.3988
X6.4913Y-1.3156
X4.6796Y-1.2377
X5.0709Y-1.3208
X4.7072Y-2.0105
X5.0985Y-2.0937
X9.2332Y-2.3343
X9.6332Y-2.3343
X3.7352Y-0.2703
X4.1265Y-0.3534
X5.2023Y-0.5822
X5.5935Y-0.6653
X3.24Y-1.6986
X3.6312Y-1.7818
X3.8344Y-3.3581
X4.2256Y-3.4412
X7.9066Y-1.7818
X8.2979Y-1.6986
X3.2124Y-0.9258
X3.6037Y-1.0089
X9.837Y-0.8343
X10.237Y-0.8343
X9.3146Y-0.0
X9.7146Y-0.0
X0.7063Y-0.0843
X1.1063Y-0.0843
X8.3009Y-0.931
X8.6921Y-0.8478
X9.9819Y-2.3343
X10.3819Y-2.3343
X2.5063Y-1.5427
X2.8976Y-1.6258
X7.6956Y-2.5932
X8.0868Y-2.51
X0.4759Y-1.5843
X0.8759Y-1.5843
X1.4563Y-0.0843
X1.8563Y-0.0843
T3
X10.9031Y0.1909
X11.8431Y0.1909
X6.8207Y-3.8274
X7.7401Y-3.6319
X11.1415Y-1.8593
X12.0815Y-1.8593
X3.607Y-3.5916
X4.5265Y-3.7871
X3.5131Y-3.5709
X4.4326Y-3.7664
X11.1182Y-2.0593
X12.0582Y-2.0593
X0.417Y-2.0593
X1.357Y-2.0593
T4
X7.7629Y-1.0453
X10.9981Y-0.0843
X0.417Y-2.6593
X0.887Y-2.3343
X1.357Y-2.6593
X6.635Y-2.0521
X0.8635Y-1.5843
X5.3155Y-3.6733
X11.9121Y-3.0861
X7.2403Y-0.3898
X7.0293Y-1.2013
X4.1417Y-1.1233
X11.2132Y-2.3343
X5.1135Y-2.8635
X4.1692Y-1.8961
X10.9031Y-0.4091
X11.3731Y-0.0841
X11.8431Y-0.4091
X2.7232Y-3.1827
X10.787Y-0.8343
X6.6959Y-3.2405
X7.2232Y-3.4607
X7.6154Y-3.0451
X0.9299Y-0.8343
X8.8359Y-1.5843
X0.0Y0.0
X11.1415Y-1.2593
X11.6115Y-1.5843
X12.0815Y-1.2593
X1.8673Y-0.8343
X-0.324Y-1.5
X8.8142Y-3.1827
X-0.1638Y-0.75
X1.8949Y-1.5843
X7.9739Y-0.2339
X3.7317Y-3.0047
X4.1239Y-3.4204
X4.6512Y-3.2002
X2.1055Y-2.3343
X6.2956Y-1.3572
X4.8753Y-1.2793
X4.9028Y-2.0521
X9.4332Y-2.3343
X3.9309Y-0.3119
X5.3979Y-0.6237
X3.4356Y-1.7402
X3.6378Y-2.984
X4.03Y-3.3996
X4.5573Y-3.1795
X8.1022Y-1.7402
X3.408Y-0.9674
X10.037Y-0.8343
X9.5146Y-0.0
X0.9063Y-0.0843
X8.4965Y-0.8894
X10.1819Y-2.3343
X2.702Y-1.5843
X7.8912Y-2.5516
X0.6759Y-1.5843
X1.6563Y-0.0843
X7.3686Y-1.8961
X9.3036Y-0.7925
X2.3902Y-0.0
X6.5067Y-0.5458
X6.424Y-2.8635
X4.6645Y-0.4678
X9.643Y-1.5843
X11.1182Y-2.6593
X11.5882Y-2.3343
X12.0582Y-2.6593
X4.3798Y-2.7076
X10.2481Y-0.0843
X3.6462Y-2.5516
X5.2259Y-3.6536
X12.2445Y-2.3343
X3.1972Y-0.1559
X11.7248Y-0.8343
X10.393Y-1.5843
X0.6059Y-3.0843
X8.6248Y-2.3957
X11.7481Y-0.0843
X2.9126Y-2.3957
X8.7075Y-0.078
X7.1576Y-2.7076
X2.6744Y-0.8114
T5
X7.5178Y0.1938
X4.331Y0.1276
T0
M30
