G04 #@! TF.GenerationSoftware,KiCad,Pcbnew,(5.1.4)-1*
G04 #@! TF.CreationDate,2021-03-07T19:39:02-05:00*
G04 #@! TF.ProjectId,f103,66313033-2e6b-4696-9361-645f70636258,rev?*
G04 #@! TF.SameCoordinates,Original*
G04 #@! TF.FileFunction,Profile,NP*
%FSLAX46Y46*%
G04 Gerber Fmt 4.6, Leading zero omitted, Abs format (unit mm)*
G04 Created by KiCad (PCBNEW (5.1.4)-1) date 2021-03-07 19:39:02*
%MOMM*%
%LPD*%
G04 APERTURE LIST*
%ADD10C,0.150000*%
G04 APERTURE END LIST*
D10*
X-17229999Y-76402059D02*
X-17230002Y-76837945D01*
X-17230002Y-80902057D02*
X-17230004Y-81337954D01*
X-17230002Y-85402062D02*
X-17230001Y-85837949D01*
X-16230001Y8999994D02*
X-16372182Y8989959D01*
X-16372182Y8989959D02*
X-16497075Y8963927D01*
X-16497075Y8963927D02*
X-16614329Y8923471D01*
X-16614329Y8923471D02*
X-16717903Y8873093D01*
X-16717903Y8873093D02*
X-16809803Y8814843D01*
X-16809803Y8814843D02*
X-16893587Y8748105D01*
X-16893587Y8748105D02*
X-16969711Y8672926D01*
X-16969711Y8672926D02*
X-17040681Y8585597D01*
X-17040681Y8585597D02*
X-17100129Y8493159D01*
X-17100129Y8493159D02*
X-17149924Y8392739D01*
X-17149924Y8392739D02*
X-17189710Y8281893D01*
X-17189710Y8281893D02*
X-17217383Y8159253D01*
X-17217383Y8159253D02*
X-17229799Y8020166D01*
X-17229799Y8020166D02*
X-17230001Y7999990D01*
X156215201Y15171892D02*
X146064801Y15171899D01*
X-17230002Y-76837945D02*
X-17230002Y-80902057D01*
X156215199Y8999998D02*
X156215192Y15171893D01*
X320008751Y7999999D02*
X319998713Y8142180D01*
X319998713Y8142180D02*
X319972680Y8267073D01*
X319972680Y8267073D02*
X319932223Y8384327D01*
X319932223Y8384327D02*
X319881845Y8487901D01*
X319881845Y8487901D02*
X319823594Y8579800D01*
X319823594Y8579800D02*
X319756856Y8663583D01*
X319756856Y8663583D02*
X319681677Y8739706D01*
X319681677Y8739706D02*
X319594349Y8810675D01*
X319594349Y8810675D02*
X319501912Y8870122D01*
X319501912Y8870122D02*
X319401492Y8919916D01*
X319401492Y8919916D02*
X319290648Y8959702D01*
X319290648Y8959702D02*
X319168008Y8987373D01*
X319168008Y8987373D02*
X319028923Y8999789D01*
X319028923Y8999789D02*
X319008748Y8999991D01*
X320008751Y7999999D02*
X320008742Y-86340003D01*
X-17230002Y-86340008D02*
X-17219966Y-86482188D01*
X-17219966Y-86482188D02*
X-17193934Y-86607080D01*
X-17193934Y-86607080D02*
X-17153478Y-86724333D01*
X-17153478Y-86724333D02*
X-17103100Y-86827907D01*
X-17103100Y-86827907D02*
X-17044849Y-86919806D01*
X-17044849Y-86919806D02*
X-16978111Y-87003590D01*
X-16978111Y-87003590D02*
X-16902932Y-87079714D01*
X-16902932Y-87079714D02*
X-16815603Y-87150684D01*
X-16815603Y-87150684D02*
X-16723165Y-87210131D01*
X-16723165Y-87210131D02*
X-16622745Y-87259926D01*
X-16622745Y-87259926D02*
X-16511900Y-87299712D01*
X-16511900Y-87299712D02*
X-16389260Y-87327384D01*
X-16389260Y-87327384D02*
X-16250173Y-87339799D01*
X-16250173Y-87339799D02*
X-16229997Y-87340001D01*
X319008750Y-87339995D02*
X319150933Y-87329960D01*
X319150933Y-87329960D02*
X319275826Y-87303929D01*
X319275826Y-87303929D02*
X319393080Y-87263473D01*
X319393080Y-87263473D02*
X319496654Y-87213095D01*
X319496654Y-87213095D02*
X319588553Y-87154845D01*
X319588553Y-87154845D02*
X319672337Y-87088107D01*
X319672337Y-87088107D02*
X319748461Y-87012928D01*
X319748461Y-87012928D02*
X319819430Y-86925600D01*
X319819430Y-86925600D02*
X319878876Y-86833163D01*
X319878876Y-86833163D02*
X319928670Y-86732744D01*
X319928670Y-86732744D02*
X319968455Y-86621900D01*
X319968455Y-86621900D02*
X319996126Y-86499263D01*
X319996126Y-86499263D02*
X320008540Y-86360178D01*
X320008540Y-86360178D02*
X320008742Y-86340003D01*
X245817516Y-87339998D02*
X319008750Y-87339995D01*
X-17230004Y-81337954D02*
X-17230002Y-85402062D01*
X56462483Y-87340009D02*
X151139996Y-107464332D01*
X156215199Y8999998D02*
X319008748Y8999991D01*
X-16229997Y-87340001D02*
X56462483Y-87340009D01*
X146064801Y15171899D02*
X146064797Y8999997D01*
X151139996Y-107464332D02*
X245817516Y-87339998D01*
X-17230001Y-85837949D02*
X-17230002Y-86340008D01*
X-17230001Y7999990D02*
X-17229999Y-76402059D01*
X-16230001Y8999994D02*
X146064796Y8999997D01*
M02*
