M48
; DRILL file {KiCad (5.1.4)-1} date 1/20/2021 1:31:23 PM
; FORMAT={-:-/ absolute / inch / decimal}
; #@! TF.CreationDate,2021-01-20T13:31:23-05:00
; #@! TF.GenerationSoftware,Kicad,Pcbnew,(5.1.4)-1
; #@! TF.FileFunction,Plated,1,2,PTH
FMAT,2
INCH
T1C0.0157
T2C0.0276
T3C0.0300
T4C0.0354
T5C0.0394
T6C0.0409
T7C0.0579
T8C0.0591
%
G90
G05
T1
X0.214Y-4.9322
X0.241Y-4.9632
X1.3Y-4.3382
X2.1735Y-2.1617
X2.209Y-3.0622
X2.3792Y-2.9117
X2.4059Y-3.6617
X2.6449Y-4.4117
X3.1992Y-5.2208
X3.3662Y-4.429
X5.275Y-3.5512
X5.393Y-4.7962
X5.954Y-4.1402
X5.984Y-4.2582
X6.0686Y-5.8102
X6.07Y-3.5982
X6.0943Y-4.3185
X6.1246Y-4.3485
X6.1316Y-3.6009
X6.1556Y-3.6369
X6.1558Y-4.3853
X6.1572Y-5.0625
X6.184Y-3.591
X6.2395Y-4.9362
X6.2809Y-3.8023
X6.309Y-2.917
X6.31Y-4.2132
X6.327Y-3.6482
X6.35Y-2.9
X6.356Y-3.6142
X6.375Y-3.5752
X6.3869Y-2.811
X6.391Y-3.5352
X6.419Y-3.4532
X6.422Y-3.4082
X6.5225Y-4.2482
X6.5295Y-4.7732
X6.553Y-3.445
X6.562Y-4.8767
X6.687Y-3.7782
X6.7393Y-3.533
X6.8511Y-2.7427
X7.647Y-3.5772
X8.067Y-3.2822
X8.385Y-3.4402
X9.1963Y-4.5041
X9.3967Y-5.2887
X9.676Y-2.9412
X10.5499Y-2.8699
X10.7159Y-4.4117
X10.7565Y-2.0774
X10.9082Y-3.6617
X11.4507Y-3.75
X11.455Y-3.1782
X11.942Y-2.8472
T3
X0.447Y-3.03
X0.818Y-3.481
X1.4939Y-2.2453
X1.518Y-3.03
X2.2479Y-2.2453
X3.1259Y-2.2453
X3.7968Y-2.3067
X4.5333Y-2.4632
X5.263Y-2.6183
X5.9489Y-2.7641
X6.1721Y-3.9118
X6.195Y-4.4682
X6.2152Y-4.2509
X6.2163Y-3.8091
X6.2771Y-4.4688
X6.2948Y-4.2705
X6.349Y-2.8492
X6.4155Y-4.1239
X6.4635Y-3.9529
X6.506Y-1.826
X6.551Y-3.662
X6.598Y-4.9387
X6.5985Y-4.6772
X6.624Y-1.6442
X6.624Y-1.8272
X6.64Y-1.3382
X6.668Y-3.6852
X6.6775Y-4.2557
X6.7406Y-4.1896
X6.75Y-1.6982
X6.7658Y-2.019
X6.8219Y-4.1462
X6.8525Y-4.0007
X6.8868Y-2.6274
X6.915Y-1.7532
X7.2764Y-4.18
X7.9664Y-4.083
X8.7Y-3.9271
X9.3047Y-2.2667
X9.4326Y-3.7714
X10.1023Y-2.1607
X10.8373Y-2.2367
X11.3773Y-2.9637
X11.3813Y-2.2367
X12.3123Y-2.9637
T4
X0.028Y-5.0039
X0.128Y-5.0039
X0.028Y-4.8267
X0.128Y-4.8267
X0.028Y-5.1811
X0.128Y-5.1811
T5
X0.5906Y-1.5346
X0.5906Y-2.1055
X0.6891Y-2.1055
X0.7875Y-1.5346
X0.7875Y-2.1055
X6.4737Y-1.5882
X6.5737Y-1.5882
X6.6737Y-1.5882
X6.7737Y-1.5882
T6
X7.711Y-3.2175
X7.8088Y-3.1967
X2.5339Y-3.5944
X2.6339Y-3.5944
X12.0121Y-2.0943
X12.1121Y-2.0943
X5.4739Y-3.2747
X5.5717Y-3.2955
X9.5176Y-3.6005
X9.6154Y-3.5797
X1.315Y-3.5944
X1.415Y-3.5944
X9.496Y-5.1989
X9.5938Y-5.1781
X11.6371Y-2.0944
X11.7371Y-2.0944
X9.9426Y-2.8027
X10.0426Y-2.8027
X11.4261Y-2.8444
X11.5261Y-2.8444
X2.2954Y-2.0944
X2.3954Y-2.0944
X7.905Y-5.4769
X8.0028Y-5.4561
X4.6286Y-5.3951
X4.7264Y-5.4159
X1.5261Y-4.3444
X1.6261Y-4.3444
X4.7225Y-5.4158
X4.8203Y-5.4366
X10.6761Y-2.8444
X10.7761Y-2.8444
X2.5064Y-2.8444
X2.6064Y-2.8444
X4.7402Y-3.1187
X4.838Y-3.1395
X3.273Y-2.8068
X3.3708Y-2.8276
X5.2631Y-2.4632
X5.3609Y-2.484
X0.6391Y-2.0102
X0.7391Y-2.0102
X5.712Y-4.8589
X5.8099Y-4.8797
X7.8393Y-4.7238
X7.9372Y-4.703
X3.5112Y-4.3911
X3.609Y-4.4119
X7.3167Y-4.0683
X7.4146Y-4.0475
X10.282Y-3.5944
X10.382Y-3.5944
X10.821Y-4.3444
X10.921Y-4.3444
X3.7958Y-2.1513
X3.8936Y-2.1721
X8.784Y-3.7564
X8.8818Y-3.7356
X11.8523Y-4.3444
X11.9523Y-4.3444
X7.922Y-2.4061
X8.0198Y-2.3853
X12.3639Y-2.8444
X12.4639Y-2.8444
X9.3066Y-4.4119
X9.4044Y-4.3911
X12.2273Y-4.3444
X12.3273Y-4.3444
X3.0292Y-2.0102
X3.1292Y-2.0102
X10.1537Y-2.0102
X10.2537Y-2.0102
X12.5512Y-5.0963
X12.6512Y-5.0963
X1.5454Y-2.0944
X1.6454Y-2.0944
X5.9965Y-2.6192
X6.0943Y-2.64
X10.8871Y-2.0944
X10.9871Y-2.0944
X1.5025Y-3.5944
X1.6025Y-3.5944
X4.0066Y-2.9628
X4.1044Y-2.9836
X1.245Y-5.0944
X1.345Y-5.0944
X4.9784Y-4.703
X5.0762Y-4.7238
X9.3893Y-2.0942
X9.4871Y-2.0734
X1.569Y-2.8444
X1.669Y-2.8444
X4.2448Y-4.547
X4.3426Y-4.5678
X8.0504Y-3.9124
X8.1482Y-3.8916
X2.7446Y-4.3444
X2.8446Y-4.3444
X5.5014Y-4.0475
X5.5992Y-4.0683
X8.6556Y-2.2501
X8.7535Y-2.2293
X12.8836Y-4.3444
X12.9836Y-4.3444
X6.9774Y-3.3734
X7.0752Y-3.3526
X9.1782Y-2.9056
X9.2761Y-2.8848
X12.2505Y-3.5944
X12.3505Y-3.5944
X7.1057Y-4.8797
X7.2035Y-4.8589
X12.3871Y-2.0944
X12.4871Y-2.0944
X8.573Y-4.5678
X8.6708Y-4.547
X5.8245Y-5.649
X5.9223Y-5.6698
X3.3218Y-5.1781
X3.4196Y-5.1989
X7.1884Y-2.562
X7.2862Y-2.5412
X11.032Y-3.5944
X11.132Y-3.5944
X0.315Y-3.5102
X0.415Y-3.5102
X4.7678Y-3.8916
X4.8656Y-3.9124
X10.0723Y-4.3444
X10.1723Y-4.3444
X0.4753Y-2.7602
X0.5753Y-2.7602
X5.9141Y-5.6687
X6.0119Y-5.6895
X3.3005Y-3.5797
X3.3984Y-3.6005
X4.5294Y-2.3073
X4.6273Y-2.3281
X8.4446Y-3.0615
X8.5424Y-3.0407
X4.0342Y-3.7356
X4.132Y-3.7564
T7
X3.2864Y-4.8639
X3.5517Y-4.818
X7.0282Y-2.2894
X7.252Y-2.1396
X10.932Y-3.2944
X11.182Y-3.1944
X0.215Y-3.2102
X0.465Y-3.1102
X4.7323Y-3.5773
X4.9977Y-3.5315
X9.9723Y-4.0444
X10.2223Y-3.9444
X0.3753Y-2.4602
X0.6253Y-2.3602
X5.8786Y-5.3545
X6.144Y-5.3087
X3.2651Y-3.2654
X3.5304Y-3.2196
X4.494Y-1.993
X4.7593Y-1.9472
X8.2844Y-2.7889
X8.5082Y-2.6391
X3.9987Y-3.4214
X4.2641Y-3.3756
X7.5508Y-2.9448
X7.7745Y-2.795
X2.4339Y-3.2944
X2.6839Y-3.1944
X11.9121Y-1.7943
X12.1621Y-1.6943
X5.4384Y-2.9604
X5.7037Y-2.9146
X9.3574Y-3.3278
X9.5812Y-3.178
X1.215Y-3.2944
X1.465Y-3.1944
X9.3358Y-4.9262
X9.5595Y-4.7764
X11.5371Y-1.7944
X11.7871Y-1.6944
X9.8426Y-2.5027
X10.0926Y-2.4027
X11.3261Y-2.5444
X11.5761Y-2.4444
X2.1954Y-1.7944
X2.4454Y-1.6944
X7.7448Y-5.2042
X7.9685Y-5.0544
X4.5931Y-5.0808
X4.8585Y-5.035
X1.4261Y-4.0444
X1.6761Y-3.9444
X4.687Y-5.1015
X4.9524Y-5.0557
X10.5761Y-2.5444
X10.8261Y-2.4444
X2.4064Y-2.5444
X2.6564Y-2.4444
X4.7048Y-2.8045
X4.9701Y-2.7587
X3.2375Y-2.4926
X3.5029Y-2.4468
X5.2276Y-2.149
X5.493Y-2.1032
X0.5391Y-1.7102
X0.7891Y-1.6102
X5.6766Y-4.5447
X5.9419Y-4.4989
X7.6792Y-4.4511
X7.9029Y-4.3013
X3.4757Y-4.0769
X3.7411Y-4.031
X7.1566Y-3.7957
X7.3803Y-3.6459
X10.182Y-3.2944
X10.432Y-3.1944
X10.721Y-4.0444
X10.971Y-3.9444
X3.7604Y-1.8371
X4.0257Y-1.7913
X8.6238Y-3.4838
X8.8475Y-3.334
X11.7523Y-4.0444
X12.0023Y-3.9444
X7.7618Y-2.1334
X7.9856Y-1.9836
X12.2639Y-2.5444
X12.5139Y-2.4444
X9.1464Y-4.1392
X9.3701Y-3.9894
X12.1273Y-4.0444
X12.3773Y-3.9444
X2.9292Y-1.7102
X3.1792Y-1.6102
X10.0537Y-1.7102
X10.3037Y-1.6102
X12.4512Y-4.7963
X12.7012Y-4.6963
X1.4454Y-1.7944
X1.6954Y-1.6944
X5.961Y-2.3049
X6.2264Y-2.2591
X10.7871Y-1.7944
X11.0371Y-1.6944
X1.4025Y-3.2944
X1.6525Y-3.1944
X3.9712Y-2.6486
X4.2365Y-2.6027
X1.145Y-4.7944
X1.395Y-4.6944
X4.943Y-4.3888
X5.2083Y-4.3429
X9.2291Y-1.8215
X9.4528Y-1.6717
X1.469Y-2.5444
X1.719Y-2.4444
X4.2094Y-4.2328
X4.4747Y-4.187
X7.8902Y-3.6397
X8.1139Y-3.4899
X2.6446Y-4.0444
X2.8946Y-3.9444
X5.466Y-3.7333
X5.7313Y-3.6874
X8.4954Y-1.9775
X8.7192Y-1.8277
X12.7836Y-4.0444
X13.0336Y-3.9444
X6.8172Y-3.1008
X7.0409Y-2.951
X9.018Y-2.6329
X9.2418Y-2.4831
X12.1505Y-3.2944
X12.4005Y-3.1944
X6.9455Y-4.6071
X7.1693Y-4.4573
X12.2871Y-1.7944
X12.5371Y-1.6944
X8.4128Y-4.2952
X8.6365Y-4.1454
X5.7891Y-5.3348
X6.0544Y-5.2889
T2
G00X6.4958Y-1.2583
M15
G01X6.4958Y-1.3055
M16
G05
G00X6.4958Y-1.4354
M15
G01X6.4958Y-1.4827
M16
G05
G00X6.7832Y-1.2583
M15
G01X6.7832Y-1.3055
M16
G05
G00X6.7832Y-1.4354
M15
G01X6.7832Y-1.4827
M16
G05
T8
G00X0.4686Y-1.8358
M15
G01X0.4686Y-1.7846
M16
G05
G00X0.9095Y-1.8358
M15
G01X0.9095Y-1.7846
M16
G05
T0
M30
