M48
; DRILL file {KiCad (5.1.4)-1} date 1/20/2021 1:31:23 PM
; FORMAT={-:-/ absolute / inch / decimal}
; #@! TF.CreationDate,2021-01-20T13:31:23-05:00
; #@! TF.GenerationSoftware,Kicad,Pcbnew,(5.1.4)-1
; #@! TF.FileFunction,NonPlated,1,2,NPTH
FMAT,2
INCH
T1C0.0689
T2C0.1200
T3C0.1570
T4C0.1969
%
G90
G05
T1
X12.4012Y-4.8963
X12.8012Y-4.8963
X1.3954Y-1.8944
X1.7954Y-1.8944
X5.8913Y-2.3924
X6.2826Y-2.4755
X10.7371Y-1.8944
X11.1371Y-1.8944
X1.3525Y-3.3944
X1.7525Y-3.3944
X3.9015Y-2.736
X4.2927Y-2.8191
X1.095Y-4.8944
X1.495Y-4.8944
X4.8733Y-4.4762
X5.2645Y-4.5593
X9.201Y-1.9297
X9.5922Y-1.8466
X1.419Y-2.6444
X1.819Y-2.6444
X4.1397Y-4.3202
X4.5309Y-4.4034
X7.8621Y-3.7479
X8.2533Y-3.6648
X2.5946Y-4.1444
X2.9946Y-4.1444
X5.3963Y-3.8207
X5.7875Y-3.9039
X8.4673Y-2.0857
X8.8586Y-2.0025
X12.7336Y-4.1444
X13.1336Y-4.1444
X6.7891Y-3.209
X7.1803Y-3.1258
X8.9899Y-2.7411
X9.3812Y-2.658
X12.1005Y-3.3944
X12.5005Y-3.3944
X6.9174Y-4.7153
X7.3087Y-4.6321
X12.2371Y-1.8944
X12.6371Y-1.8944
X8.3847Y-4.4034
X8.7759Y-4.3202
X5.7194Y-5.4222
X6.1106Y-5.5054
X3.2167Y-4.9513
X3.6079Y-5.0345
X7.0001Y-2.3976
X7.3913Y-2.3144
X10.882Y-3.3944
X11.282Y-3.3944
X0.165Y-3.3102
X0.565Y-3.3102
X4.6626Y-3.6648
X5.0539Y-3.7479
X9.9223Y-4.1444
X10.3223Y-4.1444
X0.3253Y-2.5602
X0.7253Y-2.5602
X5.8089Y-5.4419
X6.2002Y-5.5251
X3.1954Y-3.3529
X3.5867Y-3.436
X4.4243Y-2.0805
X4.8156Y-2.1636
X8.2563Y-2.8971
X8.6476Y-2.8139
X3.929Y-3.5088
X4.3203Y-3.592
X7.5227Y-3.053
X7.9139Y-2.9699
X2.3839Y-3.3944
X2.7839Y-3.3944
X11.8621Y-1.8943
X12.2621Y-1.8943
X5.3687Y-3.0479
X5.76Y-3.131
X9.3293Y-3.436
X9.7206Y-3.3529
X1.165Y-3.3944
X1.565Y-3.3944
X9.3076Y-5.0345
X9.6989Y-4.9513
X11.4871Y-1.8944
X11.8871Y-1.8944
X9.7926Y-2.6027
X10.1926Y-2.6027
X11.2761Y-2.6444
X11.6761Y-2.6444
X2.1454Y-1.8944
X2.5454Y-1.8944
X7.7167Y-5.3124
X8.1079Y-5.2293
X4.5234Y-5.1683
X4.9147Y-5.2514
X1.3761Y-4.1444
X1.7761Y-4.1444
X4.6173Y-5.189
X5.0086Y-5.2721
X10.5261Y-2.6444
X10.9261Y-2.6444
X2.3564Y-2.6444
X2.7564Y-2.6444
X4.6351Y-2.8919
X5.0263Y-2.9751
X3.1678Y-2.58
X3.5591Y-2.6632
X5.1579Y-2.2364
X5.5492Y-2.3196
X0.4891Y-1.8102
X0.8891Y-1.8102
X5.6069Y-4.6321
X5.9982Y-4.7153
X7.651Y-4.5593
X8.0423Y-4.4762
X3.406Y-4.1643
X3.7973Y-4.2474
X7.1284Y-3.9039
X7.5197Y-3.8207
X10.132Y-3.3944
X10.532Y-3.3944
X10.671Y-4.1444
X11.071Y-4.1444
X3.6907Y-1.9245
X4.0819Y-2.0077
X8.5957Y-3.592
X8.9869Y-3.5088
X11.7023Y-4.1444
X12.1023Y-4.1444
X7.7337Y-2.2416
X8.125Y-2.1585
X12.2139Y-2.6444
X12.6139Y-2.6444
X9.1183Y-4.2474
X9.5095Y-4.1643
X12.0773Y-4.1444
X12.4773Y-4.1444
X2.8792Y-1.8102
X3.2792Y-1.8102
X10.0037Y-1.8102
X10.4037Y-1.8102
T2
X11.8305Y-3.6694
X12.7705Y-3.6694
X11.5921Y-1.6193
X12.5321Y-1.6193
X7.5097Y-5.6376
X8.4292Y-5.4421
X4.2022Y-5.3811
X5.1216Y-5.5765
X1.1061Y-3.8694
X2.0461Y-3.8694
X4.2961Y-5.4018
X5.2155Y-5.5973
X11.8073Y-3.8694
X12.7473Y-3.8694
T3
X9.3966Y-1.8881
X1.619Y-2.6444
X4.3353Y-4.3618
X8.0577Y-3.7063
X2.7946Y-4.1444
X5.5919Y-3.8623
X8.663Y-2.0441
X12.9336Y-4.1444
X6.9847Y-3.1674
X9.1856Y-2.6996
X11.8305Y-3.0694
X12.3005Y-3.3944
X12.7705Y-3.0694
X7.113Y-4.6737
X12.4371Y-1.8944
X8.5803Y-4.3618
X5.915Y-5.4638
X3.4123Y-4.9929
X7.1957Y-2.356
X11.082Y-3.3944
X0.365Y-3.3102
X4.8583Y-3.7063
X10.1223Y-4.1444
X0.5253Y-2.5602
X6.0046Y-5.4835
X3.391Y-3.3944
X4.6199Y-2.122
X8.4519Y-2.8555
X4.1247Y-3.5504
X7.7183Y-3.0115
X2.5839Y-3.3944
X11.5921Y-2.2193
X12.0621Y-1.8943
X12.5321Y-2.2193
X5.5643Y-3.0894
X9.5249Y-3.3944
X1.365Y-3.3944
X9.5033Y-4.9929
X11.6871Y-1.8944
X9.9926Y-2.6027
X11.4761Y-2.6444
X2.3454Y-1.8944
X7.385Y-5.0507
X7.9123Y-5.2709
X8.3045Y-4.8552
X4.3269Y-4.7942
X4.7191Y-5.2098
X5.2464Y-4.9897
X1.1061Y-4.4694
X1.5761Y-4.1444
X2.0461Y-4.4694
X4.4208Y-4.8149
X4.813Y-5.2305
X5.3403Y-5.0104
X10.7261Y-2.6444
X2.5564Y-2.6444
X4.8307Y-2.9335
X3.3635Y-2.6216
X5.3536Y-2.278
X0.6891Y-1.8102
X5.8025Y-4.6737
X7.8467Y-4.5178
X3.6017Y-4.2059
X7.3241Y-3.8623
X10.332Y-3.3944
X10.871Y-4.1444
X3.8863Y-1.9661
X8.7913Y-3.5504
X11.9023Y-4.1444
X7.9293Y-2.2
X12.4139Y-2.6444
X9.3139Y-4.2059
X11.8073Y-4.4694
X12.2773Y-4.1444
X12.7473Y-4.4694
X3.0792Y-1.8102
X10.2037Y-1.8102
X12.6012Y-4.8963
X1.5954Y-1.8944
X6.087Y-2.4339
X10.9371Y-1.8944
X1.5525Y-3.3944
X4.0971Y-2.7776
X1.295Y-4.8944
X5.0689Y-4.5178
T4
X8.2069Y-1.6164
X5.0201Y-1.6826
T0
M30
