0
SECTION
2
HEADER
9
$INSUNITS
70
4
9
$ACADVER
1
AC1014
9
$HANDSEED
5
FFFF
0
ENDSEC
0
SECTION
2
TABLES
0
TABLE
2
VPORT
5
8
100
AcDbSymbolTable
0
ENDTAB
0
TABLE
2
LTYPE
5
5
100
AcDbSymbolTable
70
2
0
LTYPE
5
14
100
AcDbSymbolTableRecord
100
AcDbLinetypeTableRecord
2
BYBLOCK
70
0
0
LTYPE
5
15
100
AcDbSymbolTableRecord
100
AcDbLinetypeTableRecord
2
BYLAYER
70
0
0
ENDTAB
0
TABLE
2
LAYER
5
2
100
AcDbSymbolTable
70
3
0
LAYER
5
50
100
AcDbSymbolTableRecord
100
AcDbLayerTableRecord
2
0
70
0
6
CONTINUOUS
0
LAYER
5
51
100
AcDbSymbolTableRecord
100
AcDbLayerTableRecord
2
CUTOUTS
70
0
62
1
6
CONTINUOUS
0
LAYER
5
52
100
AcDbSymbolTableRecord
100
AcDbLayerTableRecord
2
PERIMETER
70
0
62
5
6
CONTINUOUS
0
ENDTAB
0
TABLE
2
STYLE
5
3
100
AcDbSymbolTable
70
1
0
STYLE
5
11
100
AcDbSymbolTableRecord
100
AcDbTextStyleTableRecord
2
STANDARD
70
0
0
ENDTAB
0
TABLE
2
VIEW
5
6
100
AcDbSymbolTable
0
ENDTAB
0
TABLE
2
UCS
5
7
100
AcDbSymbolTable
0
ENDTAB
0
TABLE
2
APPID
5
9
100
AcDbSymbolTable
70
1
0
APPID
5
12
100
AcDbSymbolTableRecord
100
AcDbRegAppTableRecord
2
ACAD
70
0
0
ENDTAB
0
TABLE
2
DIMSTYLE
5
A
100
AcDbSymbolTable
0
ENDTAB
0
TABLE
2
BLOCK_RECORD
5
1
100
AcDbSymbolTable
70
2
0
BLOCK_RECORD
5
1F
100
AcDbSymbolTableRecord
100
AcDbBlockTableRecord
2
*MODEL_SPACE
0
BLOCK_RECORD
5
1B
100
AcDbSymbolTableRecord
100
AcDbBlockTableRecord
2
*PAPER_SPACE
0
ENDTAB
0
ENDSEC
0
SECTION
2
BLOCKS
0
BLOCK
5
20
100
AcDbEntity
100
AcDbBlockBegin
2
*MODEL_SPACE
0
ENDBLK
5
21
100
AcDbEntity
100
AcDbBlockEnd
0
BLOCK
5
1C
100
AcDbEntity
100
AcDbBlockBegin
2
*PAPER_SPACE
0
ENDBLK
5
1D
100
AcDbEntity
100
AcDbBlockEnd
0
ENDSEC
0
SECTION
2
ENTITIES
0
CIRCLE
5
100
100
AcDbEntity
8
CUTOUTS
100
AcDbCircle
10
48.402254890025809
20
62.624584649202141
30
0
40
1.6000000000000014
210
0
220
0
230
1
0
CIRCLE
5
101
100
AcDbEntity
8
CUTOUTS
100
AcDbCircle
10
169.36937499999999
20
62.624584649202141
30
0
40
1.6000000000000369
210
0
220
0
230
1
0
CIRCLE
5
102
100
AcDbEntity
8
CUTOUTS
100
AcDbCircle
10
-48.90100489002883
20
-57.14931791094692
30
0
40
1.6000000000000014
210
0
220
0
230
1
0
CIRCLE
5
103
100
AcDbEntity
8
CUTOUTS
100
AcDbCircle
10
169.36937499999999
20
-47.215415350797869
30
0
40
1.6000000000000369
210
0
220
0
230
1
0
CIRCLE
5
104
100
AcDbEntity
8
CUTOUTS
100
AcDbCircle
10
48.402254890025809
20
-57.14931791094692
30
0
40
1.6000000000000014
210
0
220
0
230
1
0
CIRCLE
5
105
100
AcDbEntity
8
CUTOUTS
100
AcDbCircle
10
-169.36937500000002
20
-47.215415350797883
30
0
40
1.6000000000000014
210
0
220
0
230
1
0
CIRCLE
5
106
100
AcDbEntity
8
CUTOUTS
100
AcDbCircle
10
-169.36937500000002
20
62.624584649202141
30
0
40
1.6000000000000014
210
0
220
0
230
1
0
CIRCLE
5
107
100
AcDbEntity
8
CUTOUTS
100
AcDbCircle
10
-48.90100489002883
20
62.624584649202156
30
0
40
1.6000000000000014
210
0
220
0
230
1
0
LINE
5
108
100
AcDbEntity
8
PERIMETER
100
AcDbLine
10
-179.36937500000002
20
65.424584649202188
30
0
11
-179.36937500000005
21
-50.015415350797888
31
0
0
ARC
5
109
100
AcDbEntity
8
PERIMETER
100
AcDbCircle
10
-176.16937500000006
20
-50.015415350797895
30
0
40
3.2000000000000028
210
0
220
0
230
1
100
AcDbArc
50
180
51
270
0
LINE
5
10A
100
AcDbEntity
8
PERIMETER
100
AcDbLine
10
-176.16937500000006
20
-53.215415350797898
30
0
11
-97.275968049271114
21
-53.215415350797883
31
0
0
ARC
5
10B
100
AcDbEntity
8
PERIMETER
100
AcDbCircle
10
-97.275968049271086
20
-62.815415350798247
30
0
40
9.6000000000003602
210
0
220
-0
230
1
100
AcDbArc
50
78.000000000000412
51
90.000000000000099
0
LINE
5
10C
100
AcDbEntity
8
PERIMETER
100
AcDbLine
10
-95.28001581742059
20
-53.425198383753354
30
0
11
-24.759477120696616
21
-68.414801616246748
31
0
0
ARC
5
10D
100
AcDbEntity
8
PERIMETER
100
AcDbCircle
10
-22.76352488884605
20
-59.024584649201337
30
0
40
9.6000000000008683
210
0
220
0
230
1
100
AcDbArc
50
258.00000000000063
51
269.9999999999996
0
LINE
5
10E
100
AcDbEntity
8
PERIMETER
100
AcDbLine
10
-22.763524888846121
20
-68.624584649202205
30
0
11
22.264774888837451
21
-68.624584649202205
31
0
0
ARC
5
10F
100
AcDbEntity
8
PERIMETER
100
AcDbCircle
10
22.26477488883738
20
-59.024584649201131
30
0
40
9.6000000000010743
210
-0
220
0
230
1
100
AcDbArc
50
270.0000000000004
51
281.99999999999903
0
LINE
5
110
100
AcDbEntity
8
PERIMETER
100
AcDbLine
10
24.260727120687946
20
-68.414801616246748
30
0
11
94.781265817412105
21
-53.425198383753319
31
0
0
ARC
5
111
100
AcDbEntity
8
PERIMETER
100
AcDbCircle
10
96.777218049262615
20
-62.815415350798069
30
0
40
9.6000000000002039
210
0
220
-0
230
1
100
AcDbArc
50
90
51
101.99999999999987
0
LINE
5
112
100
AcDbEntity
8
PERIMETER
100
AcDbLine
10
96.777218049262615
20
-53.215415350797869
30
0
11
176.169375
21
-53.215415350797841
31
0
0
ARC
5
113
100
AcDbEntity
8
PERIMETER
100
AcDbCircle
10
176.16937500000006
20
-50.015415350797866
30
0
40
3.1999999999999762
210
0
220
0
230
1
100
AcDbArc
50
-90.000000000001009
51
0
0
LINE
5
114
100
AcDbEntity
8
PERIMETER
100
AcDbLine
10
179.36937500000005
20
-50.015415350797838
30
0
11
179.36937499999999
21
65.424584649202131
31
0
0
ARC
5
115
100
AcDbEntity
8
PERIMETER
100
AcDbCircle
10
176.16937500000006
20
65.424584649202131
30
0
40
3.1999999999999318
210
0
220
-0
230
1
100
AcDbArc
50
0
51
90.000000000001009
0
LINE
5
116
100
AcDbEntity
8
PERIMETER
100
AcDbLine
10
176.169375
20
68.624584649202063
30
0
11
8.8506249999993969
21
68.62458464920212
31
0
0
ARC
5
117
100
AcDbEntity
8
PERIMETER
100
AcDbCircle
10
8.8506249999993969
20
67.024584649202112
30
0
40
1.6000000000000014
210
0
220
-0
230
1
100
AcDbArc
50
90
51
180
0
LINE
5
118
100
AcDbEntity
8
PERIMETER
100
AcDbLine
10
7.2506249999993955
20
67.024584649202112
30
0
11
7.2506249999993955
21
62.624584649202141
31
0
0
ARC
5
119
100
AcDbEntity
8
PERIMETER
100
AcDbCircle
10
6.2506249999993102
20
62.624584649202191
30
0
40
1.0000000000000675
210
-0
220
0
230
1
100
AcDbArc
50
270.00000000000409
51
360
0
LINE
5
11A
100
AcDbEntity
8
PERIMETER
100
AcDbLine
10
6.2506249999993813
20
61.624584649202127
30
0
11
-6.7493750000005903
21
61.624584649202127
31
0
0
ARC
5
11B
100
AcDbEntity
8
PERIMETER
100
AcDbCircle
10
-6.7493750000005193
20
62.624584649202191
30
0
40
1.0000000000000853
210
0
220
0
230
1
100
AcDbArc
50
180
51
269.99999999999591
0
LINE
5
11C
100
AcDbEntity
8
PERIMETER
100
AcDbLine
10
-7.7493750000006045
20
62.624584649202141
30
0
11
-7.749375000000569
21
67.024584649202112
31
0
0
ARC
5
11D
100
AcDbEntity
8
PERIMETER
100
AcDbCircle
10
-9.3493750000005349
20
67.024584649202168
30
0
40
1.5999999999999659
210
-0
220
0
230
1
100
AcDbArc
50
0
51
89.999999999998735
0
LINE
5
11E
100
AcDbEntity
8
PERIMETER
100
AcDbLine
10
-9.3493750000004994
20
68.624584649202134
30
0
11
-176.16937500000003
21
68.624584649202191
31
0
0
ARC
5
11F
100
AcDbEntity
8
PERIMETER
100
AcDbCircle
10
-176.16937500000006
20
65.424584649202203
30
0
40
3.1999999999999851
210
0
220
-0
230
1
100
AcDbArc
50
90
51
180
0
ENDSEC
0
SECTION
2
OBJECTS
0
DICTIONARY
5
C
100
AcDbDictionary
3
ACAD_GROUP
350
D
3
ACAD_MLINESTYLE
350
17
0
DICTIONARY
5
D
100
AcDbDictionary
0
DICTIONARY
5
1A
330
C
100
AcDbDictionary
0
DICTIONARY
5
17
100
AcDbDictionary
0
ENDSEC
0
EOF
