0
SECTION
2
HEADER
9
$INSUNITS
70
4
9
$ACADVER
1
AC1014
9
$HANDSEED
5
FFFF
0
ENDSEC
0
SECTION
2
TABLES
0
TABLE
2
VPORT
5
8
100
AcDbSymbolTable
0
ENDTAB
0
TABLE
2
LTYPE
5
5
100
AcDbSymbolTable
70
2
0
LTYPE
5
14
100
AcDbSymbolTableRecord
100
AcDbLinetypeTableRecord
2
BYBLOCK
70
0
0
LTYPE
5
15
100
AcDbSymbolTableRecord
100
AcDbLinetypeTableRecord
2
BYLAYER
70
0
0
ENDTAB
0
TABLE
2
LAYER
5
2
100
AcDbSymbolTable
70
3
0
LAYER
5
50
100
AcDbSymbolTableRecord
100
AcDbLayerTableRecord
2
0
70
0
6
CONTINUOUS
0
LAYER
5
51
100
AcDbSymbolTableRecord
100
AcDbLayerTableRecord
2
CUTOUTS
70
0
62
1
6
CONTINUOUS
0
LAYER
5
52
100
AcDbSymbolTableRecord
100
AcDbLayerTableRecord
2
PERIMETER
70
0
62
5
6
CONTINUOUS
0
ENDTAB
0
TABLE
2
STYLE
5
3
100
AcDbSymbolTable
70
1
0
STYLE
5
11
100
AcDbSymbolTableRecord
100
AcDbTextStyleTableRecord
2
STANDARD
70
0
0
ENDTAB
0
TABLE
2
VIEW
5
6
100
AcDbSymbolTable
0
ENDTAB
0
TABLE
2
UCS
5
7
100
AcDbSymbolTable
0
ENDTAB
0
TABLE
2
APPID
5
9
100
AcDbSymbolTable
70
1
0
APPID
5
12
100
AcDbSymbolTableRecord
100
AcDbRegAppTableRecord
2
ACAD
70
0
0
ENDTAB
0
TABLE
2
DIMSTYLE
5
A
100
AcDbSymbolTable
0
ENDTAB
0
TABLE
2
BLOCK_RECORD
5
1
100
AcDbSymbolTable
70
2
0
BLOCK_RECORD
5
1F
100
AcDbSymbolTableRecord
100
AcDbBlockTableRecord
2
*MODEL_SPACE
0
BLOCK_RECORD
5
1B
100
AcDbSymbolTableRecord
100
AcDbBlockTableRecord
2
*PAPER_SPACE
0
ENDTAB
0
ENDSEC
0
SECTION
2
BLOCKS
0
BLOCK
5
20
100
AcDbEntity
100
AcDbBlockBegin
2
*MODEL_SPACE
0
ENDBLK
5
21
100
AcDbEntity
100
AcDbBlockEnd
0
BLOCK
5
1C
100
AcDbEntity
100
AcDbBlockBegin
2
*PAPER_SPACE
0
ENDBLK
5
1D
100
AcDbEntity
100
AcDbBlockEnd
0
ENDSEC
0
SECTION
2
ENTITIES
0
CIRCLE
5
100
100
AcDbEntity
8
CUTOUTS
100
AcDbCircle
10
-166.89931793422483
20
-38.745415350798083
30
0
40
1.9999999999999929
210
0
220
0
230
1
0
CIRCLE
5
101
100
AcDbEntity
8
CUTOUTS
100
AcDbCircle
10
-166.89931793422483
20
-29.745415350797767
30
0
40
1.9999999999999929
210
0
220
0
230
1
0
CIRCLE
5
102
100
AcDbEntity
8
CUTOUTS
100
AcDbCircle
10
-166.89931793422483
20
-34.2454153507976
30
0
40
1.9999999999999929
210
0
220
0
230
1
0
SPLINE
5
103
100
AcDbEntity
8
CUTOUTS
100
AcDbSpline
70
0
71
3
72
8
73
4
74
0
42
0.000000001
43
0.0000000001
44
0.0000000001
40
-1
40
-1
40
-1
40
-1
40
0
40
0
40
0
40
0
10
-142.85937499999989
20
56.904584649202079
30
0
10
-142.03094787525376
20
56.904584649202079
30
0
10
-141.35937500000014
20
56.233011773948355
30
0
10
-141.35937500000014
20
55.404584649202306
30
0
0
LINE
5
104
100
AcDbEntity
8
CUTOUTS
100
AcDbLine
10
-141.35937500000014
20
55.404584649202306
30
0
11
-141.35937500000014
21
38.344584649202204
31
0
0
SPLINE
5
105
100
AcDbEntity
8
CUTOUTS
100
AcDbSpline
70
0
71
3
72
8
73
4
74
0
42
0.000000001
43
0.0000000001
44
0.0000000001
40
-1
40
-1
40
-1
40
-1
40
0
40
0
40
0
40
0
10
-141.35937500000014
20
38.344584649202204
30
0
10
-141.35937500000014
20
37.516157524456119
30
0
10
-142.03094787525376
20
36.844584649202218
30
0
10
-142.85937499999989
20
36.844584649202218
30
0
0
LINE
5
106
100
AcDbEntity
8
CUTOUTS
100
AcDbLine
10
-142.85937499999989
20
36.844584649202218
30
0
11
-145.51937500000017
21
36.844584649202218
31
0
0
LINE
5
107
100
AcDbEntity
8
CUTOUTS
100
AcDbLine
10
-145.51937500000017
20
36.844584649202218
30
0
11
-145.51937500000017
21
19.29458464920198
31
0
0
SPLINE
5
108
100
AcDbEntity
8
CUTOUTS
100
AcDbSpline
70
0
71
3
72
8
73
4
74
0
42
0.000000001
43
0.0000000001
44
0.0000000001
40
-1
40
-1
40
-1
40
-1
40
0
40
0
40
0
40
0
10
-145.51937500000017
20
19.29458464920198
30
0
10
-145.51937500000017
20
18.46615752445593
30
0
10
-146.19094787525412
20
17.794584649202314
30
0
10
-147.01937500000022
20
17.794584649202314
30
0
0
LINE
5
109
100
AcDbEntity
8
CUTOUTS
100
AcDbLine
10
-147.01937500000022
20
17.794584649202314
30
0
11
-149.58937500000022
21
17.794584649202314
31
0
0
LINE
5
10A
100
AcDbEntity
8
CUTOUTS
100
AcDbLine
10
-149.58937500000022
20
17.794584649202314
30
0
11
-149.58937500000022
21
0.24458464920210865
31
0
0
SPLINE
5
10B
100
AcDbEntity
8
CUTOUTS
100
AcDbSpline
70
0
71
3
72
8
73
4
74
0
42
0.000000001
43
0.0000000001
44
0.0000000001
40
-1
40
-1
40
-1
40
-1
40
0
40
0
40
0
40
0
10
-149.58937500000022
20
0.24458464920210865
30
0
10
-149.58937500000022
20
-0.58384247554401192
30
0
10
-150.26094787525383
20
-1.2554153507979127
30
0
10
-151.08937500000027
20
-1.2554153507979127
30
0
0
LINE
5
10C
100
AcDbEntity
8
CUTOUTS
100
AcDbLine
10
-151.08937500000027
20
-1.2554153507979127
30
0
11
-168.14937500000011
21
-1.2554153507979127
31
0
0
SPLINE
5
10D
100
AcDbEntity
8
CUTOUTS
100
AcDbSpline
70
0
71
3
72
8
73
4
74
0
42
0.000000001
43
0.0000000001
44
0.0000000001
40
-1
40
-1
40
-1
40
-1
40
0
40
0
40
0
40
0
10
-168.14937500000011
20
-1.2554153507979127
30
0
10
-168.97780212474655
20
-1.2554153507979127
30
0
10
-169.64937500000016
20
-0.58384247554401192
30
0
10
-169.64937500000016
20
0.24458464920210865
30
0
0
LINE
5
10E
100
AcDbEntity
8
CUTOUTS
100
AcDbLine
10
-169.64937500000016
20
0.24458464920210865
30
0
11
-169.64937500000016
21
17.304584649202283
31
0
0
SPLINE
5
10F
100
AcDbEntity
8
CUTOUTS
100
AcDbSpline
70
0
71
3
72
8
73
4
74
0
42
0.000000001
43
0.0000000001
44
0.0000000001
40
-1
40
-1
40
-1
40
-1
40
0
40
0
40
0
40
0
10
-169.64937500000016
20
17.304584649202283
30
0
10
-169.64937500000016
20
18.133011773948404
30
0
10
-168.97780212474655
20
18.80458464920234
30
0
10
-168.14937500000011
20
18.80458464920234
30
0
0
LINE
5
110
100
AcDbEntity
8
CUTOUTS
100
AcDbLine
10
-168.14937500000011
20
18.80458464920234
30
0
11
-165.57937500000008
21
18.80458464920202
31
0
0
LINE
5
111
100
AcDbEntity
8
CUTOUTS
100
AcDbLine
10
-165.57937500000011
20
18.80458464920202
30
0
11
-165.57937500000011
21
36.354584649202081
31
0
0
SPLINE
5
112
100
AcDbEntity
8
CUTOUTS
100
AcDbSpline
70
0
71
3
72
8
73
4
74
0
42
0.000000001
43
0.0000000001
44
0.0000000001
40
-1
40
-1
40
-1
40
-1
40
0
40
0
40
0
40
0
10
-165.57937500000011
20
36.354584649202081
30
0
10
-165.57937500000011
20
37.183011773948166
30
0
10
-164.9078021247465
20
37.854584649202209
30
0
10
-164.07937500000006
20
37.854584649202209
30
0
0
LINE
5
113
100
AcDbEntity
8
CUTOUTS
100
AcDbLine
10
-164.07937500000006
20
37.854584649202209
30
0
11
-161.41937500000009
21
37.854584649202209
31
0
0
LINE
5
114
100
AcDbEntity
8
CUTOUTS
100
AcDbLine
10
-161.41937500000009
20
37.854584649202209
30
0
11
-161.41937500000009
21
55.404584649202306
31
0
0
SPLINE
5
115
100
AcDbEntity
8
CUTOUTS
100
AcDbSpline
70
0
71
3
72
8
73
4
74
0
42
0.000000001
43
0.0000000001
44
0.0000000001
40
-1
40
-1
40
-1
40
-1
40
0
40
0
40
0
40
0
10
-161.41937500000009
20
55.404584649202306
30
0
10
-161.41937500000009
20
56.233011773948355
30
0
10
-160.74780212474616
20
56.904584649202079
30
0
10
-159.91937500000003
20
56.904584649202079
30
0
0
LINE
5
116
100
AcDbEntity
8
CUTOUTS
100
AcDbLine
10
-159.91937500000003
20
56.904584649202079
30
0
11
-142.85937499999989
21
56.904584649202079
31
0
0
SPLINE
5
117
100
AcDbEntity
8
CUTOUTS
100
AcDbSpline
70
0
71
3
72
8
73
4
74
0
42
0.000000001
43
0.0000000001
44
0.0000000001
40
-1
40
-1
40
-1
40
-1
40
0
40
0
40
0
40
0
10
137.87622499999998
20
-41.543415350797879
30
0
10
137.04779787525382
20
-41.543415350797879
30
0
10
136.37622499999958
20
-40.871842475544298
30
0
10
136.37622499999958
20
-40.043415350797893
30
0
0
LINE
5
118
100
AcDbEntity
8
CUTOUTS
100
AcDbLine
10
136.37622499999958
20
-40.043415350797893
30
0
11
136.37622500000015
21
-22.445415350798015
31
0
0
LINE
5
119
100
AcDbEntity
8
CUTOUTS
100
AcDbLine
10
136.37622500000015
20
-22.445415350798015
30
0
11
85.162390807615054
21
-22.445415350798015
31
0
0
LINE
5
11A
100
AcDbEntity
8
CUTOUTS
100
AcDbLine
10
85.162390807615054
20
-22.445415350798015
30
0
11
88.730914737528479
21
-39.234000477862601
31
0
0
SPLINE
5
11B
100
AcDbEntity
8
CUTOUTS
100
AcDbSpline
70
0
71
3
72
8
73
4
74
0
42
0.000000001
43
0.0000000001
44
0.0000000001
40
-1
40
-1
40
-1
40
-1
40
0
40
0
40
0
40
0
10
88.730914737528479
20
-39.234000477862601
30
0
10
88.903154421753527
20
-40.044324482315908
30
0
10
88.385884877107827
20
-40.840849730964706
30
0
10
87.57556087265425
20
-41.013089415190123
30
0
0
LINE
5
11C
100
AcDbEntity
8
CUTOUTS
100
AcDbLine
10
87.57556087265425
20
-41.013089415190137
30
0
11
61.576392400575202
21
-46.539383271894849
31
0
0
SPLINE
5
11D
100
AcDbEntity
8
CUTOUTS
100
AcDbSpline
70
0
71
3
72
8
73
4
74
0
42
0.000000001
43
0.0000000001
44
0.0000000001
40
-1
40
-1
40
-1
40
-1
40
0
40
0
40
0
40
0
10
61.576392400575202
20
-46.539383271894835
30
0
10
60.767599998263613
20
-46.711297404034909
30
0
10
59.972218597613853
20
-46.196281140188134
30
0
10
59.798142565775194
20
-45.387951285484405
30
0
0
LINE
5
11E
100
AcDbEntity
8
CUTOUTS
100
AcDbLine
10
59.798142565775194
20
-45.387951285484405
30
0
11
9.4849912673001313
21
-56.082341732271821
31
0
0
SPLINE
5
11F
100
AcDbEntity
8
CUTOUTS
100
AcDbSpline
70
0
71
3
72
8
73
4
74
0
42
0.000000001
43
0.0000000001
44
0.0000000001
40
-1
40
-1
40
-1
40
-1
40
0
40
0
40
0
40
0
10
9.4849912673001313
20
-56.082341732271821
30
0
10
8.6746672628471089
20
-56.254581416497203
30
0
10
7.8781420141980263
20
-55.737311871851219
30
0
10
7.705902329972929
20
-54.926987867397877
30
0
0
LINE
5
120
100
AcDbEntity
8
CUTOUTS
100
AcDbLine
10
7.7059023299729645
20
-54.926987867397877
30
0
11
0.1967066409835283
21
-19.598999731012341
31
0
0
SPLINE
5
121
100
AcDbEntity
8
CUTOUTS
100
AcDbSpline
70
0
71
3
72
8
73
4
74
0
42
0.000000001
43
0.0000000001
44
0.0000000001
40
-1
40
-1
40
-1
40
-1
40
0
40
0
40
0
40
0
10
0.1967066409835283
20
-19.598999731012341
30
0
10
0.024466956757827063
20
-18.788675726559106
30
0
10
0.54173650140413088
20
-17.992150477910307
30
0
10
1.3520605058571533
20
-17.81991079368489
30
0
0
LINE
5
122
100
AcDbEntity
8
CUTOUTS
100
AcDbLine
10
1.3520605058571533
20
-17.819910793684901
30
0
11
9.2045620381351156
21
-16.150810067475312
31
0
0
LINE
5
123
100
AcDbEntity
8
CUTOUTS
100
AcDbLine
10
9.2045620381351156
20
-16.150810067475312
30
0
11
5.4551225540528492
21
1.488915823004282
31
0
0
LINE
5
124
100
AcDbEntity
8
CUTOUTS
100
AcDbLine
10
5.4551225540528492
20
1.488915823004282
30
0
11
2.2623802246425129
21
0.81027749116659997
31
0
0
SPLINE
5
125
100
AcDbEntity
8
CUTOUTS
100
AcDbSpline
70
0
71
3
72
8
73
4
74
0
42
0.000000001
43
0.0000000001
44
0.0000000001
40
-1
40
-1
40
-1
40
-1
40
0
40
0
40
0
40
0
10
2.2623802246425129
20
0.81027749116659997
30
0
10
1.4520562201895615
20
0.63803780694121848
30
0
10
0.65553097154051443
20
1.1553073515875223
30
0
10
0.48329128731545268
20
1.9656313560405447
30
0
0
LINE
5
126
100
AcDbEntity
8
CUTOUTS
100
AcDbLine
10
0.4832912873154882
20
1.9656313560405447
30
0
11
-3.0636821580355544
21
18.652829424559513
31
0
0
SPLINE
5
127
100
AcDbEntity
8
CUTOUTS
100
AcDbSpline
70
0
71
3
72
8
73
4
74
0
42
0.000000001
43
0.0000000001
44
0.0000000001
40
-1
40
-1
40
-1
40
-1
40
0
40
0
40
0
40
0
10
-3.0636821580355544
20
18.652829424559513
30
0
10
-3.2359218422609715
20
19.463153429012394
30
0
10
-2.7186522976149519
20
20.259678677661228
30
0
10
-1.9083282931616807
20
20.431918361886574
30
0
0
LINE
5
128
100
AcDbEntity
8
CUTOUTS
100
AcDbLine
10
-1.9083282931616807
20
20.431918361886574
30
0
11
5.9366391950430497
21
22.099417677592498
31
0
0
LINE
5
129
100
AcDbEntity
8
CUTOUTS
100
AcDbLine
10
5.9366391950430497
20
22.099417677592498
30
0
11
2.286317841964447
21
39.272829424559276
31
0
0
SPLINE
5
12A
100
AcDbEntity
8
CUTOUTS
100
AcDbSpline
70
0
71
3
72
8
73
4
74
0
42
0.000000001
43
0.0000000001
44
0.0000000001
40
-1
40
-1
40
-1
40
-1
40
0
40
0
40
0
40
0
10
2.286317841964447
20
39.272829424559276
30
0
10
2.1140781577387457
20
40.083153429012548
30
0
10
2.631347702385014
20
40.879678677661346
30
0
10
3.441671706838747
20
41.051918361886798
30
0
0
LINE
5
12B
100
AcDbEntity
8
CUTOUTS
100
AcDbLine
10
3.441671706838747
20
41.051918361886798
30
0
11
77.380693313790772
21
56.768142567906168
31
0
0
SPLINE
5
12C
100
AcDbEntity
8
CUTOUTS
100
AcDbSpline
70
0
71
3
72
8
73
4
74
0
42
0.000000001
43
0.0000000001
44
0.0000000001
40
-1
40
-1
40
-1
40
-1
40
0
40
0
40
0
40
0
10
77.380693313790772
20
56.768142567906168
30
0
10
77.463595363113626
20
56.785763942465685
30
0
10
77.547841749197843
20
56.796327347239696
30
0
10
77.632527974789525
20
56.799719369997483
30
0
0
LINE
5
12D
100
AcDbEntity
8
CUTOUTS
100
AcDbLine
10
77.632527974789483
20
56.799719369997497
30
0
11
80.22062059175795
21
56.903382852394301
31
0
0
SPLINE
5
12E
100
AcDbEntity
8
CUTOUTS
100
AcDbSpline
70
0
71
3
72
8
73
4
74
0
42
0.000000001
43
0.0000000001
44
0.0000000001
40
-1
40
-1
40
-1
40
-1
40
0
40
0
40
0
40
0
10
80.22062059175795
20
56.903382852394301
30
0
10
80.240621526895694
20
56.904183970010529
30
0
10
80.260636494292214
20
56.904584649202079
30
0
10
80.280653466986109
20
56.904584649202079
30
0
0
LINE
5
12F
100
AcDbEntity
8
CUTOUTS
100
AcDbLine
10
80.280653466986109
20
56.904584649202079
30
0
11
98.810624999999959
21
56.904584649202079
31
0
0
SPLINE
5
130
100
AcDbEntity
8
CUTOUTS
100
AcDbSpline
70
0
71
3
72
8
73
4
74
0
42
0.000000001
43
0.0000000001
44
0.0000000001
40
-1
40
-1
40
-1
40
-1
40
0
40
0
40
0
40
0
10
98.810624999999959
20
56.904584649202079
30
0
10
99.639052124746073
20
56.904584649202079
30
0
10
100.31062499999965
20
56.233011773948355
30
0
10
100.31062499999965
20
55.404584649201986
30
0
0
LINE
5
131
100
AcDbEntity
8
CUTOUTS
100
AcDbLine
10
100.31062499999965
20
55.404584649201986
30
0
11
100.31062499999965
21
54.764584649202163
31
0
0
LINE
5
132
100
AcDbEntity
8
CUTOUTS
100
AcDbLine
10
100.31062499999965
20
54.764584649202163
30
0
11
155.54062499999972
21
54.764584649202163
31
0
0
SPLINE
5
133
100
AcDbEntity
8
CUTOUTS
100
AcDbSpline
70
0
71
3
72
8
73
4
74
0
42
0.000000001
43
0.0000000001
44
0.0000000001
40
-1
40
-1
40
-1
40
-1
40
0
40
0
40
0
40
0
10
155.54062499999972
20
54.764584649202163
30
0
10
156.36905212474588
20
54.764584649202163
30
0
10
157.04062500000015
20
54.093011773948334
30
0
10
157.04062500000015
20
53.264584649202035
30
0
0
LINE
5
134
100
AcDbEntity
8
CUTOUTS
100
AcDbLine
10
157.04062500000015
20
53.264584649202035
30
0
11
157.04062500000015
21
35.71458464920233
31
0
0
LINE
5
135
100
AcDbEntity
8
CUTOUTS
100
AcDbLine
10
157.04062500000015
20
35.71458464920233
30
0
11
159.71062499999988
21
35.71458464920233
31
0
0
SPLINE
5
136
100
AcDbEntity
8
CUTOUTS
100
AcDbSpline
70
0
71
3
72
8
73
4
74
0
42
0.000000001
43
0.0000000001
44
0.0000000001
40
-1
40
-1
40
-1
40
-1
40
0
40
0
40
0
40
0
10
159.71062499999988
20
35.71458464920233
30
0
10
160.53905212474589
20
35.71458464920233
30
0
10
161.21062500000022
20
35.043011773948358
30
0
10
161.21062500000022
20
34.214584649202308
30
0
0
LINE
5
137
100
AcDbEntity
8
CUTOUTS
100
AcDbLine
10
161.21062500000022
20
34.214584649202308
30
0
11
161.21062500000022
21
16.664584649202069
31
0
0
LINE
5
138
100
AcDbEntity
8
CUTOUTS
100
AcDbLine
10
161.21062500000022
20
16.664584649202069
30
0
11
163.97062499999961
21
16.664584649202069
31
0
0
SPLINE
5
139
100
AcDbEntity
8
CUTOUTS
100
AcDbSpline
70
0
71
3
72
8
73
4
74
0
42
0.000000001
43
0.0000000001
44
0.0000000001
40
-1
40
-1
40
-1
40
-1
40
0
40
0
40
0
40
0
10
163.97062499999961
20
16.664584649202069
30
0
10
164.7990521247462
20
16.664584649202069
30
0
10
165.47062499999996
20
15.993011773948167
30
0
10
165.47062499999996
20
15.164584649202082
30
0
0
LINE
5
13A
100
AcDbEntity
8
CUTOUTS
100
AcDbLine
10
165.47062499999996
20
15.164584649202082
30
0
11
165.47062499999996
21
-2.385415350797695
31
0
0
LINE
5
13B
100
AcDbEntity
8
CUTOUTS
100
AcDbLine
10
165.47062499999996
20
-2.385415350797695
30
0
11
168.14937500000008
21
-2.385415350797695
31
0
0
SPLINE
5
13C
100
AcDbEntity
8
CUTOUTS
100
AcDbSpline
70
0
71
3
72
8
73
4
74
0
42
0.000000001
43
0.0000000001
44
0.0000000001
40
-1
40
-1
40
-1
40
-1
40
0
40
0
40
0
40
0
10
168.14937500000008
20
-2.385415350797695
30
0
10
168.97780212474615
20
-2.385415350797695
30
0
10
169.64937499999976
20
-3.0569882260517023
30
0
10
169.64937499999976
20
-3.8854153507978229
30
0
0
LINE
5
13D
100
AcDbEntity
8
CUTOUTS
100
AcDbLine
10
169.64937499999976
20
-3.8854153507978229
30
0
11
169.64937499999976
21
-20.945415350798029
31
0
0
SPLINE
5
13E
100
AcDbEntity
8
CUTOUTS
100
AcDbSpline
70
0
71
3
72
8
73
4
74
0
42
0.000000001
43
0.0000000001
44
0.0000000001
40
-1
40
-1
40
-1
40
-1
40
0
40
0
40
0
40
0
10
169.64937499999976
20
-20.945415350798029
30
0
10
169.64937499999976
20
-21.773842475544114
30
0
10
168.97780212474615
20
-22.445415350798015
30
0
10
168.14937500000008
20
-22.445415350798015
30
0
0
LINE
5
13F
100
AcDbEntity
8
CUTOUTS
100
AcDbLine
10
168.14937500000008
20
-22.445415350798015
30
0
11
165.97622499999994
21
-22.445415350798015
31
0
0
LINE
5
140
100
AcDbEntity
8
CUTOUTS
100
AcDbLine
10
165.97622499999994
20
-22.445415350798015
30
0
11
165.97622499999994
21
-40.043415350797893
31
0
0
SPLINE
5
141
100
AcDbEntity
8
CUTOUTS
100
AcDbSpline
70
0
71
3
72
8
73
4
74
0
42
0.000000001
43
0.0000000001
44
0.0000000001
40
-1
40
-1
40
-1
40
-1
40
0
40
0
40
0
40
0
10
165.97622499999994
20
-40.043415350797893
30
0
10
165.97622499999994
20
-40.871842475543907
30
0
10
165.30465212474638
20
-41.543415350797879
30
0
10
164.47622500000023
20
-41.543415350797879
30
0
0
LINE
5
142
100
AcDbEntity
8
CUTOUTS
100
AcDbLine
10
164.47622500000023
20
-41.543415350797879
30
0
11
137.87622499999998
21
-41.543415350797879
31
0
0
LINE
5
143
100
AcDbEntity
8
CUTOUTS
100
AcDbLine
10
-172.08292126519126
20
-47.215415350797883
30
0
11
-170.72614813259563
21
-44.865415350797882
31
0
0
LINE
5
144
100
AcDbEntity
8
CUTOUTS
100
AcDbLine
10
-170.72614813259563
20
-44.865415350797882
30
0
11
-168.01260186740438
21
-44.865415350797889
31
0
0
LINE
5
145
100
AcDbEntity
8
CUTOUTS
100
AcDbLine
10
-168.01260186740438
20
-44.865415350797889
30
0
11
-166.65582873480878
21
-47.215415350797898
31
0
0
LINE
5
146
100
AcDbEntity
8
CUTOUTS
100
AcDbLine
10
-166.65582873480878
20
-47.215415350797898
30
0
11
-168.01260186740444
21
-49.565415350797892
31
0
0
LINE
5
147
100
AcDbEntity
8
CUTOUTS
100
AcDbLine
10
-168.01260186740444
20
-49.565415350797892
30
0
11
-170.72614813259565
21
-49.565415350797892
31
0
0
LINE
5
148
100
AcDbEntity
8
CUTOUTS
100
AcDbLine
10
-170.72614813259565
20
-49.565415350797892
30
0
11
-172.08292126519126
21
-47.215415350797883
31
0
0
LINE
5
149
100
AcDbEntity
8
CUTOUTS
100
AcDbLine
10
-170.72614813259565
20
60.274584649202147
30
0
11
-172.08292126519126
21
62.624584649202141
31
0
0
LINE
5
14A
100
AcDbEntity
8
CUTOUTS
100
AcDbLine
10
-172.08292126519126
20
62.624584649202141
30
0
11
-170.72614813259563
21
64.974584649202129
31
0
0
LINE
5
14B
100
AcDbEntity
8
CUTOUTS
100
AcDbLine
10
-170.72614813259565
20
64.974584649202129
30
0
11
-168.01260186740444
21
64.974584649202129
31
0
0
LINE
5
14C
100
AcDbEntity
8
CUTOUTS
100
AcDbLine
10
-168.01260186740444
20
64.974584649202129
30
0
11
-166.65582873480878
21
62.624584649202141
31
0
0
LINE
5
14D
100
AcDbEntity
8
CUTOUTS
100
AcDbLine
10
-166.65582873480878
20
62.624584649202141
30
0
11
-168.01260186740444
21
60.274584649202147
31
0
0
LINE
5
14E
100
AcDbEntity
8
CUTOUTS
100
AcDbLine
10
-168.01260186740444
20
60.274584649202147
30
0
11
-170.72614813259565
21
60.274584649202147
31
0
0
LINE
5
14F
100
AcDbEntity
8
CUTOUTS
100
AcDbLine
10
47.04548175743021
20
64.974584649202129
30
0
11
49.759028022621443
21
64.974584649202114
31
0
0
LINE
5
150
100
AcDbEntity
8
CUTOUTS
100
AcDbLine
10
49.759028022621443
20
64.974584649202114
30
0
11
51.115801155217042
21
62.62458464920212
31
0
0
LINE
5
151
100
AcDbEntity
8
CUTOUTS
100
AcDbLine
10
51.115801155217042
20
62.62458464920212
30
0
11
49.759028022621408
21
60.274584649202147
31
0
0
LINE
5
152
100
AcDbEntity
8
CUTOUTS
100
AcDbLine
10
49.759028022621408
20
60.274584649202147
30
0
11
47.045481757430174
21
60.274584649202161
31
0
0
LINE
5
153
100
AcDbEntity
8
CUTOUTS
100
AcDbLine
10
47.045481757430174
20
60.274584649202161
30
0
11
45.688708624834575
21
62.624584649202156
31
0
0
LINE
5
154
100
AcDbEntity
8
CUTOUTS
100
AcDbLine
10
45.688708624834575
20
62.624584649202156
30
0
11
47.04548175743021
21
64.974584649202129
31
0
0
LINE
5
155
100
AcDbEntity
8
CUTOUTS
100
AcDbLine
10
49.240786800992602
20
-54.568582053168441
30
0
11
51.056503658802797
21
-56.585139918838834
31
0
0
LINE
5
156
100
AcDbEntity
8
CUTOUTS
100
AcDbLine
10
51.056503658802797
20
-56.585139918838834
30
0
11
50.217971747836003
21
-59.165875776617327
31
0
0
LINE
5
157
100
AcDbEntity
8
CUTOUTS
100
AcDbLine
10
50.217971747836003
20
-59.165875776617327
30
0
11
47.563722979059015
21
-59.730053768725412
31
0
0
LINE
5
158
100
AcDbEntity
8
CUTOUTS
100
AcDbLine
10
47.563722979059015
20
-59.730053768725412
30
0
11
45.748006121248821
21
-57.713495903055012
31
0
0
LINE
5
159
100
AcDbEntity
8
CUTOUTS
100
AcDbLine
10
45.748006121248821
20
-57.713495903055012
30
0
11
46.586538032215614
21
-55.132760045276534
31
0
0
LINE
5
15A
100
AcDbEntity
8
CUTOUTS
100
AcDbLine
10
46.586538032215614
20
-55.132760045276534
30
0
11
49.240786800992602
21
-54.568582053168441
31
0
0
SPLINE
5
15B
100
AcDbEntity
8
CUTOUTS
100
AcDbSpline
70
0
71
3
72
8
73
4
74
0
42
0.000000001
43
0.0000000001
44
0.0000000001
40
-1
40
-1
40
-1
40
-1
40
0
40
0
40
0
40
0
10
-3.8504217068386737
20
39.071918361886688
30
0
10
-3.0400977023852604
20
38.899678677661306
30
0
10
-2.5228281577392764
20
38.103153429012544
30
0
10
-2.6950678419646579
20
37.292829424559343
30
0
0
LINE
5
15C
100
AcDbEntity
8
CUTOUTS
100
AcDbLine
10
-2.6950678419646579
20
37.292829424559322
30
0
11
-6.2420412873153808
21
20.60563135604059
31
0
0
SPLINE
5
15D
100
AcDbEntity
8
CUTOUTS
100
AcDbSpline
70
0
71
3
72
8
73
4
74
0
42
0.000000001
43
0.0000000001
44
0.0000000001
40
-1
40
-1
40
-1
40
-1
40
0
40
0
40
0
40
0
10
-6.2420412873153808
20
20.60563135604059
30
0
10
-6.4142809715407623
20
19.795307351587283
30
0
10
-7.2108062201895606
20
19.278037806941263
30
0
10
-8.0211302246428673
20
19.450277491166716
30
0
0
LINE
5
15E
100
AcDbEntity
8
CUTOUTS
100
AcDbLine
10
-8.0211302246428673
20
19.450277491166716
30
0
11
-15.871734425467672
21
21.118974927125961
31
0
0
LINE
5
15F
100
AcDbEntity
8
CUTOUTS
100
AcDbLine
10
-15.871734425467672
20
21.118974927125961
30
0
11
-19.623027684486551
21
3.4705277112626742
31
0
0
LINE
5
160
100
AcDbEntity
8
CUTOUTS
100
AcDbLine
10
-19.623027684486551
20
3.4705277112626742
30
0
11
-16.430421706838665
21
2.791918361886756
31
0
0
SPLINE
5
161
100
AcDbEntity
8
CUTOUTS
100
AcDbSpline
70
0
71
3
72
8
73
4
74
0
42
0.000000001
43
0.0000000001
44
0.0000000001
40
-1
40
-1
40
-1
40
-1
40
0
40
0
40
0
40
0
10
-16.430421706838665
20
2.791918361886756
30
0
10
-15.620097702385394
20
2.61967867766141
30
0
10
-15.102828157739374
20
1.8231534290126827
30
0
10
-15.275067841964471
20
1.0128294245593761
30
0
0
LINE
5
162
100
AcDbEntity
8
CUTOUTS
100
AcDbLine
10
-15.275067841964471
20
1.012829424559385
30
0
11
-18.923355511828035
21
-16.151014595119236
31
0
0
LINE
5
163
100
AcDbEntity
8
CUTOUTS
100
AcDbLine
10
-18.923355511828035
20
-16.151014595119236
30
0
11
-11.080421706838663
21
-17.818081638113313
31
0
0
SPLINE
5
164
100
AcDbEntity
8
CUTOUTS
100
AcDbSpline
70
0
71
3
72
8
73
4
74
0
42
0.000000001
43
0.0000000001
44
0.0000000001
40
-1
40
-1
40
-1
40
-1
40
0
40
0
40
0
40
0
10
-11.080421706838663
20
-17.818081638113313
30
0
10
-10.270097702385392
20
-17.99032132233873
30
0
10
-9.7528281577392661
20
-18.786846570987422
30
0
10
-9.9250678419647897
20
-19.597170575440799
30
0
0
LINE
5
165
100
AcDbEntity
8
CUTOUTS
100
AcDbLine
10
-9.9250678419647897
20
-19.597170575440792
30
0
11
-13.574298505913873
21
-36.765451033489114
31
0
0
LINE
5
166
100
AcDbEntity
8
CUTOUTS
100
AcDbLine
10
-13.574298505913873
20
-36.765451033489114
30
0
11
-5.94042170683867
21
-38.388081638112979
31
0
0
SPLINE
5
167
100
AcDbEntity
8
CUTOUTS
100
AcDbSpline
70
0
71
3
72
8
73
4
74
0
42
0.000000001
43
0.0000000001
44
0.0000000001
40
-1
40
-1
40
-1
40
-1
40
0
40
0
40
0
40
0
10
-5.94042170683867
20
-38.388081638112979
30
0
10
-5.1300977023853989
20
-38.560321322338396
30
0
10
-4.6128281577393437
20
-39.356846570987088
30
0
10
-4.7850678419644765
20
-40.167170575440394
30
0
0
LINE
5
168
100
AcDbEntity
8
CUTOUTS
100
AcDbLine
10
-4.7850678419644765
20
-40.167170575440387
30
0
11
-8.3320412873153771
21
-56.854368643959141
31
0
0
SPLINE
5
169
100
AcDbEntity
8
CUTOUTS
100
AcDbSpline
70
0
71
3
72
8
73
4
74
0
42
0.000000001
43
0.0000000001
44
0.0000000001
40
-1
40
-1
40
-1
40
-1
40
0
40
0
40
0
40
0
10
-8.3320412873153771
20
-56.854368643959397
30
0
10
-8.5042809715407586
20
-57.664692648412704
30
0
10
-9.3008062201895569
20
-58.181962193058723
30
0
10
-10.111130224642864
20
-58.009722508833626
30
0
0
LINE
5
16A
100
AcDbEntity
8
CUTOUTS
100
AcDbLine
10
-10.111130224642864
20
-58.009722508833626
30
0
11
-69.52537972329425
21
-45.380833921195752
31
0
0
LINE
5
16B
100
AcDbEntity
8
CUTOUTS
100
AcDbLine
10
-69.52537972329425
20
-45.380833921195752
30
0
11
-69.526058707822571
21
-45.384028292251955
31
0
0
SPLINE
5
16C
100
AcDbEntity
8
CUTOUTS
100
AcDbSpline
70
0
71
3
72
8
73
4
74
0
42
0.000000001
43
0.0000000001
44
0.0000000001
40
-1
40
-1
40
-1
40
-1
40
0
40
0
40
0
40
0
10
-69.526058707822571
20
-45.384028292251955
30
0
10
-69.698298392047661
20
-46.194352296705297
30
0
10
-70.494823640696751
20
-46.711621841351423
30
0
10
-71.305147645150058
20
-46.5393821571259
30
0
0
LINE
5
16D
100
AcDbEntity
8
CUTOUTS
100
AcDbLine
10
-71.305147645150072
20
-46.5393821571259
30
0
11
-97.304310872654511
21
-41.013089415190123
31
0
0
SPLINE
5
16E
100
AcDbEntity
8
CUTOUTS
100
AcDbSpline
70
0
71
3
72
8
73
4
74
0
42
0.000000001
43
0.0000000001
44
0.0000000001
40
-1
40
-1
40
-1
40
-1
40
0
40
0
40
0
40
0
10
-97.304310872654511
20
-41.013089415190123
30
0
10
-98.114634877107832
20
-40.840849730964706
30
0
10
-98.631904421753859
20
-40.044324482315908
30
0
10
-98.459664737528442
20
-39.234000477862601
30
0
0
LINE
5
16F
100
AcDbEntity
8
CUTOUTS
100
AcDbLine
10
-98.459664737528442
20
-39.234000477862608
30
0
11
-94.891140807615358
21
-22.445415350798015
31
0
0
LINE
5
170
100
AcDbEntity
8
CUTOUTS
100
AcDbLine
10
-94.891140807615358
20
-22.445415350798015
30
0
11
-121.1993750000002
21
-22.445415350798015
31
0
0
LINE
5
171
100
AcDbEntity
8
CUTOUTS
100
AcDbLine
10
-121.1993750000002
20
-22.445415350798015
30
0
11
-121.1993750000002
21
-39.995415350797828
31
0
0
SPLINE
5
172
100
AcDbEntity
8
CUTOUTS
100
AcDbSpline
70
0
71
3
72
8
73
4
74
0
42
0.000000001
43
0.0000000001
44
0.0000000001
40
-1
40
-1
40
-1
40
-1
40
0
40
0
40
0
40
0
10
-121.19937499999989
20
-39.995415350797828
30
0
10
-121.19937499999989
20
-40.823842475543913
30
0
10
-121.87094787525383
20
-41.495415350797884
30
0
10
-122.69937499999995
20
-41.495415350797884
30
0
0
LINE
5
173
100
AcDbEntity
8
CUTOUTS
100
AcDbLine
10
-122.69937499999995
20
-41.495415350797884
30
0
11
-149.29937500000025
21
-41.495415350797884
31
0
0
SPLINE
5
174
100
AcDbEntity
8
CUTOUTS
100
AcDbSpline
70
0
71
3
72
8
73
4
74
0
42
0.000000001
43
0.0000000001
44
0.0000000001
40
-1
40
-1
40
-1
40
-1
40
0
40
0
40
0
40
0
10
-149.29937500000025
20
-41.495415350797884
30
0
10
-150.12780212474635
20
-41.495415350797884
30
0
10
-150.79937500000031
20
-40.823842475543913
30
0
10
-150.79937500000031
20
-39.995415350797828
30
0
0
LINE
5
175
100
AcDbEntity
8
CUTOUTS
100
AcDbLine
10
-150.79937500000031
20
-39.995415350797828
30
0
11
-150.79937500000031
21
-3.8854153507978229
31
0
0
SPLINE
5
176
100
AcDbEntity
8
CUTOUTS
100
AcDbSpline
70
0
71
3
72
8
73
4
74
0
42
0.000000001
43
0.0000000001
44
0.0000000001
40
-1
40
-1
40
-1
40
-1
40
0
40
0
40
0
40
0
10
-150.79937500000031
20
-3.8854153507978229
30
0
10
-150.79937500000031
20
-3.0569882260517023
30
0
10
-150.12780212474635
20
-2.385415350797695
30
0
10
-149.29937500000025
20
-2.385415350797695
30
0
0
LINE
5
177
100
AcDbEntity
8
CUTOUTS
100
AcDbLine
10
-149.29937500000025
20
-2.385415350797695
30
0
11
-146.62937500000024
21
-2.385415350797695
31
0
0
LINE
5
178
100
AcDbEntity
8
CUTOUTS
100
AcDbLine
10
-146.62937500000024
20
-2.385415350797695
30
0
11
-146.62937500000024
21
15.164584649202082
31
0
0
SPLINE
5
179
100
AcDbEntity
8
CUTOUTS
100
AcDbSpline
70
0
71
3
72
8
73
4
74
0
42
0.000000001
43
0.0000000001
44
0.0000000001
40
-1
40
-1
40
-1
40
-1
40
0
40
0
40
0
40
0
10
-146.62937500000024
20
15.164584649202082
30
0
10
-146.62937500000024
20
15.993011773948522
30
0
10
-145.95780212474631
20
16.664584649202069
30
0
10
-145.12937500000018
20
16.664584649202069
30
0
0
LINE
5
17A
100
AcDbEntity
8
CUTOUTS
100
AcDbLine
10
-145.12937500000018
20
16.664584649202069
30
0
11
-142.55937500000019
21
16.664584649202069
31
0
0
LINE
5
17B
100
AcDbEntity
8
CUTOUTS
100
AcDbLine
10
-142.55937500000019
20
16.664584649202069
30
0
11
-142.55937500000019
21
34.214584649202308
31
0
0
SPLINE
5
17C
100
AcDbEntity
8
CUTOUTS
100
AcDbSpline
70
0
71
3
72
8
73
4
74
0
42
0.000000001
43
0.0000000001
44
0.0000000001
40
-1
40
-1
40
-1
40
-1
40
0
40
0
40
0
40
0
10
-142.55937500000019
20
34.214584649202308
30
0
10
-142.55937500000019
20
35.043011773948358
30
0
10
-141.88780212474626
20
35.714584649201974
30
0
10
-141.05937500000013
20
35.714584649201974
30
0
0
LINE
5
17D
100
AcDbEntity
8
CUTOUTS
100
AcDbLine
10
-141.05937500000013
20
35.714584649201974
30
0
11
-138.39937500000016
21
35.714584649201974
31
0
0
LINE
5
17E
100
AcDbEntity
8
CUTOUTS
100
AcDbLine
10
-138.39937500000016
20
35.714584649201974
30
0
11
-138.39937500000016
21
53.264584649202035
31
0
0
SPLINE
5
17F
100
AcDbEntity
8
CUTOUTS
100
AcDbSpline
70
0
71
3
72
8
73
4
74
0
42
0.000000001
43
0.0000000001
44
0.0000000001
40
-1
40
-1
40
-1
40
-1
40
0
40
0
40
0
40
0
10
-138.39937500000016
20
53.264584649202035
30
0
10
-138.39937500000016
20
54.093011773948334
30
0
10
-137.72780212474623
20
54.764584649202163
30
0
10
-136.89937500000013
20
54.764584649202163
30
0
0
LINE
5
180
100
AcDbEntity
8
CUTOUTS
100
AcDbLine
10
-136.89937500000013
20
54.764584649202163
30
0
11
-100.70937500000016
21
54.764584649202163
31
0
0
LINE
5
181
100
AcDbEntity
8
CUTOUTS
100
AcDbLine
10
-100.70937500000016
20
54.764584649202163
30
0
11
-100.70937500000016
21
55.404584649202306
31
0
0
SPLINE
5
182
100
AcDbEntity
8
CUTOUTS
100
AcDbSpline
70
0
71
3
72
8
73
4
74
0
42
0.000000001
43
0.0000000001
44
0.0000000001
40
-1
40
-1
40
-1
40
-1
40
0
40
0
40
0
40
0
10
-100.70937500000016
20
55.404584649202306
30
0
10
-100.70937500000016
20
56.233011773948355
30
0
10
-100.03780212474622
20
56.904584649202363
30
0
10
-99.209375000000094
20
56.904584649202363
30
0
0
LINE
5
183
100
AcDbEntity
8
CUTOUTS
100
AcDbLine
10
-99.209375000000094
20
56.904584649202363
30
0
11
-82.149375000000262
21
56.904584649202079
31
0
0
SPLINE
5
184
100
AcDbEntity
8
CUTOUTS
100
AcDbSpline
70
0
71
3
72
8
73
4
74
0
42
0.000000001
43
0.0000000001
44
0.0000000001
40
-1
40
-1
40
-1
40
-1
40
0
40
0
40
0
40
0
10
-82.149375000000262
20
56.904584649202079
30
0
10
-81.320947875253836
20
56.904584649202079
30
0
10
-80.649375000000219
20
56.233011773948355
30
0
10
-80.649375000000219
20
55.404584649202306
30
0
0
LINE
5
185
100
AcDbEntity
8
CUTOUTS
100
AcDbLine
10
-80.649375000000219
20
55.404584649202306
30
0
11
-80.649375000000219
21
55.3960398137379
31
0
0
LINE
5
186
100
AcDbEntity
8
CUTOUTS
100
AcDbLine
10
-80.649375000000219
20
55.3960398137379
30
0
11
-3.8504217068386737
21
39.071918361886688
31
0
0
LINE
5
187
100
AcDbEntity
8
CUTOUTS
100
AcDbLine
10
-51.614551155220063
20
62.624584649202177
30
0
11
-50.257778022624429
21
64.974584649202157
31
0
0
LINE
5
188
100
AcDbEntity
8
CUTOUTS
100
AcDbLine
10
-50.257778022624429
20
64.974584649202157
30
0
11
-47.544231757433195
21
64.974584649202129
31
0
0
LINE
5
189
100
AcDbEntity
8
CUTOUTS
100
AcDbLine
10
-47.544231757433195
20
64.974584649202129
30
0
11
-46.187458624837596
21
62.624584649202141
31
0
0
LINE
5
18A
100
AcDbEntity
8
CUTOUTS
100
AcDbLine
10
-46.187458624837596
20
62.624584649202141
30
0
11
-47.544231757433231
21
60.274584649202161
31
0
0
LINE
5
18B
100
AcDbEntity
8
CUTOUTS
100
AcDbLine
10
-47.544231757433231
20
60.274584649202161
30
0
11
-50.257778022624464
21
60.274584649202183
31
0
0
LINE
5
18C
100
AcDbEntity
8
CUTOUTS
100
AcDbLine
10
-50.257778022624464
20
60.274584649202183
30
0
11
-51.614551155220063
21
62.624584649202177
31
0
0
LINE
5
18D
100
AcDbEntity
8
CUTOUTS
100
AcDbLine
10
-51.555253658805817
20
-56.585139918838834
30
0
11
-49.739536800995623
21
-54.568582053168441
31
0
0
LINE
5
18E
100
AcDbEntity
8
CUTOUTS
100
AcDbLine
10
-49.739536800995623
20
-54.568582053168441
30
0
11
-47.085288032218635
21
-55.132760045276534
31
0
0
LINE
5
18F
100
AcDbEntity
8
CUTOUTS
100
AcDbLine
10
-47.085288032218635
20
-55.132760045276534
30
0
11
-46.246756121251842
21
-57.713495903055012
31
0
0
LINE
5
190
100
AcDbEntity
8
CUTOUTS
100
AcDbLine
10
-46.246756121251842
20
-57.713495903055012
30
0
11
-48.062472979062036
21
-59.730053768725412
31
0
0
LINE
5
191
100
AcDbEntity
8
CUTOUTS
100
AcDbLine
10
-48.062472979062036
20
-59.730053768725412
30
0
11
-50.716721747839024
21
-59.165875776617312
31
0
0
LINE
5
192
100
AcDbEntity
8
CUTOUTS
100
AcDbLine
10
-50.716721747839024
20
-59.165875776617312
30
0
11
-51.555253658805817
21
-56.585139918838834
31
0
0
LINE
5
193
100
AcDbEntity
8
CUTOUTS
100
AcDbLine
10
170.72614813259563
20
64.974584649202171
30
0
11
172.08292126519126
21
62.624584649202156
31
0
0
LINE
5
194
100
AcDbEntity
8
CUTOUTS
100
AcDbLine
10
172.08292126519126
20
62.624584649202156
30
0
11
170.72614813259563
21
60.274584649202147
31
0
0
LINE
5
195
100
AcDbEntity
8
CUTOUTS
100
AcDbLine
10
170.72614813259563
20
60.274584649202147
30
0
11
168.01260186740436
21
60.274584649202112
31
0
0
LINE
5
196
100
AcDbEntity
8
CUTOUTS
100
AcDbLine
10
168.01260186740436
20
60.274584649202112
30
0
11
166.65582873480872
21
62.624584649202141
31
0
0
LINE
5
197
100
AcDbEntity
8
CUTOUTS
100
AcDbLine
10
166.65582873480872
20
62.624584649202141
30
0
11
168.01260186740436
21
64.974584649202171
31
0
0
LINE
5
198
100
AcDbEntity
8
CUTOUTS
100
AcDbLine
10
168.01260186740436
20
64.974584649202171
30
0
11
170.72614813259563
21
64.974584649202171
31
0
0
LINE
5
199
100
AcDbEntity
8
CUTOUTS
100
AcDbLine
10
168.01260186740436
20
-49.565415350797899
30
0
11
166.65582873480872
21
-47.215415350797876
31
0
0
LINE
5
19A
100
AcDbEntity
8
CUTOUTS
100
AcDbLine
10
166.65582873480872
20
-47.215415350797876
30
0
11
168.01260186740436
21
-44.865415350797846
31
0
0
LINE
5
19B
100
AcDbEntity
8
CUTOUTS
100
AcDbLine
10
168.01260186740436
20
-44.865415350797846
30
0
11
170.72614813259563
21
-44.865415350797846
31
0
0
LINE
5
19C
100
AcDbEntity
8
CUTOUTS
100
AcDbLine
10
170.72614813259563
20
-44.865415350797846
30
0
11
172.08292126519126
21
-47.215415350797869
31
0
0
LINE
5
19D
100
AcDbEntity
8
CUTOUTS
100
AcDbLine
10
172.08292126519126
20
-47.215415350797869
30
0
11
170.72614813259563
21
-49.565415350797878
31
0
0
LINE
5
19E
100
AcDbEntity
8
CUTOUTS
100
AcDbLine
10
170.72614813259563
20
-49.565415350797878
30
0
11
168.01260186740436
21
-49.565415350797899
31
0
0
ARC
5
19F
100
AcDbEntity
8
PERIMETER
100
AcDbCircle
10
-176.16937500000006
20
-50.015415350797895
30
0
40
3.2000000000000028
210
0
220
0
230
1
100
AcDbArc
50
180
51
270
0
LINE
5
1A0
100
AcDbEntity
8
PERIMETER
100
AcDbLine
10
-179.36937500000002
20
65.424584649202188
30
0
11
-179.36937500000005
21
-50.015415350797888
31
0
0
ARC
5
1A1
100
AcDbEntity
8
PERIMETER
100
AcDbCircle
10
-176.16937500000006
20
65.424584649202203
30
0
40
3.1999999999999851
210
0
220
-0
230
1
100
AcDbArc
50
90
51
180
0
LINE
5
1A2
100
AcDbEntity
8
PERIMETER
100
AcDbLine
10
176.169375
20
68.624584649202063
30
0
11
-176.16937500000006
21
68.624584649202191
31
0
0
ARC
5
1A3
100
AcDbEntity
8
PERIMETER
100
AcDbCircle
10
176.16937500000006
20
65.424584649202131
30
0
40
3.1999999999999318
210
0
220
-0
230
1
100
AcDbArc
50
0
51
90.000000000001009
0
LINE
5
1A4
100
AcDbEntity
8
PERIMETER
100
AcDbLine
10
179.36937500000005
20
-50.015415350797838
30
0
11
179.36937499999999
21
65.424584649202131
31
0
0
ARC
5
1A5
100
AcDbEntity
8
PERIMETER
100
AcDbCircle
10
176.16937500000006
20
-50.015415350797866
30
0
40
3.1999999999999762
210
-0
220
0
230
1
100
AcDbArc
50
-90
51
0
0
LINE
5
1A6
100
AcDbEntity
8
PERIMETER
100
AcDbLine
10
96.777218049262615
20
-53.215415350797869
30
0
11
176.16937500000006
21
-53.215415350797841
31
0
0
ARC
5
1A7
100
AcDbEntity
8
PERIMETER
100
AcDbCircle
10
96.777218049262615
20
-62.815415350798069
30
0
40
9.6000000000002039
210
0
220
-0
230
1
100
AcDbArc
50
90
51
101.99999999999987
0
LINE
5
1A8
100
AcDbEntity
8
PERIMETER
100
AcDbLine
10
24.260727120687946
20
-68.414801616246748
30
0
11
94.781265817412105
21
-53.425198383753326
31
0
0
ARC
5
1A9
100
AcDbEntity
8
PERIMETER
100
AcDbCircle
10
22.26477488883738
20
-59.024584649201131
30
0
40
9.6000000000010743
210
-0
220
0
230
1
100
AcDbArc
50
270.0000000000004
51
281.99999999999903
0
LINE
5
1AA
100
AcDbEntity
8
PERIMETER
100
AcDbLine
10
-22.763524888846121
20
-68.624584649202205
30
0
11
22.264774888837451
21
-68.624584649202205
31
0
0
ARC
5
1AB
100
AcDbEntity
8
PERIMETER
100
AcDbCircle
10
-22.76352488884605
20
-59.024584649201337
30
0
40
9.6000000000008683
210
0
220
0
230
1
100
AcDbArc
50
258.00000000000063
51
269.9999999999996
0
LINE
5
1AC
100
AcDbEntity
8
PERIMETER
100
AcDbLine
10
-95.28001581742059
20
-53.425198383753354
30
0
11
-24.759477120696616
21
-68.414801616246748
31
0
0
ARC
5
1AD
100
AcDbEntity
8
PERIMETER
100
AcDbCircle
10
-97.275968049271086
20
-62.815415350798247
30
0
40
9.6000000000003602
210
0
220
-0
230
1
100
AcDbArc
50
78.000000000000412
51
90.000000000000099
0
LINE
5
1AE
100
AcDbEntity
8
PERIMETER
100
AcDbLine
10
-176.16937500000006
20
-53.21541535079789
30
0
11
-97.275968049271114
21
-53.21541535079789
31
0
0
ENDSEC
0
SECTION
2
OBJECTS
0
DICTIONARY
5
C
100
AcDbDictionary
3
ACAD_GROUP
350
D
3
ACAD_MLINESTYLE
350
17
0
DICTIONARY
5
D
100
AcDbDictionary
0
DICTIONARY
5
1A
330
C
100
AcDbDictionary
0
DICTIONARY
5
17
100
AcDbDictionary
0
ENDSEC
0
EOF
