0
SECTION
2
HEADER
9
$INSUNITS
70
4
9
$ACADVER
1
AC1014
9
$HANDSEED
5
FFFF
0
ENDSEC
0
SECTION
2
TABLES
0
TABLE
2
VPORT
5
8
100
AcDbSymbolTable
0
ENDTAB
0
TABLE
2
LTYPE
5
5
100
AcDbSymbolTable
70
2
0
LTYPE
5
14
100
AcDbSymbolTableRecord
100
AcDbLinetypeTableRecord
2
BYBLOCK
70
0
0
LTYPE
5
15
100
AcDbSymbolTableRecord
100
AcDbLinetypeTableRecord
2
BYLAYER
70
0
0
ENDTAB
0
TABLE
2
LAYER
5
2
100
AcDbSymbolTable
70
3
0
LAYER
5
50
100
AcDbSymbolTableRecord
100
AcDbLayerTableRecord
2
0
70
0
6
CONTINUOUS
0
LAYER
5
51
100
AcDbSymbolTableRecord
100
AcDbLayerTableRecord
2
CUTOUTS
70
0
62
1
6
CONTINUOUS
0
LAYER
5
52
100
AcDbSymbolTableRecord
100
AcDbLayerTableRecord
2
PERIMETER
70
0
62
5
6
CONTINUOUS
0
ENDTAB
0
TABLE
2
STYLE
5
3
100
AcDbSymbolTable
70
1
0
STYLE
5
11
100
AcDbSymbolTableRecord
100
AcDbTextStyleTableRecord
2
STANDARD
70
0
0
ENDTAB
0
TABLE
2
VIEW
5
6
100
AcDbSymbolTable
0
ENDTAB
0
TABLE
2
UCS
5
7
100
AcDbSymbolTable
0
ENDTAB
0
TABLE
2
APPID
5
9
100
AcDbSymbolTable
70
1
0
APPID
5
12
100
AcDbSymbolTableRecord
100
AcDbRegAppTableRecord
2
ACAD
70
0
0
ENDTAB
0
TABLE
2
DIMSTYLE
5
A
100
AcDbSymbolTable
0
ENDTAB
0
TABLE
2
BLOCK_RECORD
5
1
100
AcDbSymbolTable
70
2
0
BLOCK_RECORD
5
1F
100
AcDbSymbolTableRecord
100
AcDbBlockTableRecord
2
*MODEL_SPACE
0
BLOCK_RECORD
5
1B
100
AcDbSymbolTableRecord
100
AcDbBlockTableRecord
2
*PAPER_SPACE
0
ENDTAB
0
ENDSEC
0
SECTION
2
BLOCKS
0
BLOCK
5
20
100
AcDbEntity
100
AcDbBlockBegin
2
*MODEL_SPACE
0
ENDBLK
5
21
100
AcDbEntity
100
AcDbBlockEnd
0
BLOCK
5
1C
100
AcDbEntity
100
AcDbBlockBegin
2
*PAPER_SPACE
0
ENDBLK
5
1D
100
AcDbEntity
100
AcDbBlockEnd
0
ENDSEC
0
SECTION
2
ENTITIES
0
CIRCLE
5
100
100
AcDbEntity
8
CUTOUTS
100
AcDbCircle
10
-166.89931793422483
20
-29.745415350797771
30
0
40
1.9999999999999929
210
0
220
0
230
1
0
CIRCLE
5
101
100
AcDbEntity
8
CUTOUTS
100
AcDbCircle
10
-166.89931793422483
20
-34.2454153507976
30
0
40
1.9999999999999929
210
0
220
0
230
1
0
CIRCLE
5
102
100
AcDbEntity
8
CUTOUTS
100
AcDbCircle
10
-166.89931793422483
20
-38.745415350798083
30
0
40
1.9999999999999929
210
0
220
0
230
1
0
LINE
5
103
100
AcDbEntity
8
CUTOUTS
100
AcDbLine
10
-17.094735849384719
20
-33.952071831075926
30
0
11
-28.832507058190195
21
-31.457131541262925
31
0
0
SPLINE
5
104
100
AcDbEntity
8
CUTOUTS
100
AcDbSpline
70
0
71
3
72
8
73
4
74
0
42
0.000000001
43
0.0000000001
44
0.0000000001
40
-1
40
-1
40
-1
40
-1
40
0
40
0
40
0
40
0
10
-28.832507058190195
20
-31.457131541262925
30
0
10
-29.372723061159185
20
-31.342305085112642
30
0
10
-29.717569424256673
20
-30.811288252679937
30
0
10
-29.602742968106384
20
-30.27107224971126
30
0
0
LINE
5
105
100
AcDbEntity
8
CUTOUTS
100
AcDbLine
10
-29.602742968106419
20
-30.27107224971126
30
0
11
-27.107802678293353
21
-18.533301040905723
31
0
0
SPLINE
5
106
100
AcDbEntity
8
CUTOUTS
100
AcDbSpline
70
0
71
3
72
8
73
4
74
0
42
0.000000001
43
0.0000000001
44
0.0000000001
40
-1
40
-1
40
-1
40
-1
40
0
40
0
40
0
40
0
10
-27.107802678293353
20
-18.533301040905723
30
0
10
-26.992976222143028
20
-17.993085037936439
30
0
10
-26.461959389710366
20
-17.648238674839305
30
0
10
-25.921743386741731
20
-17.76306513098957
30
0
0
LINE
5
107
100
AcDbEntity
8
CUTOUTS
100
AcDbLine
10
-25.921743386741731
20
-17.76306513098957
30
0
11
-14.183972177935793
21
-20.25800542080259
31
0
0
SPLINE
5
108
100
AcDbEntity
8
CUTOUTS
100
AcDbSpline
70
0
71
3
72
8
73
4
74
0
42
0.000000001
43
0.0000000001
44
0.0000000001
40
-1
40
-1
40
-1
40
-1
40
0
40
0
40
0
40
0
10
-14.183972177935793
20
-20.25800542080259
30
0
10
-13.643756174967194
20
-20.372831876952855
30
0
10
-13.298909811869741
20
-20.903848709385588
30
0
10
-13.413736268019996
20
-21.444064712354248
30
0
0
LINE
5
109
100
AcDbEntity
8
CUTOUTS
100
AcDbLine
10
-13.413736268019996
20
-21.444064712354248
30
0
11
-15.90867655783299
21
-33.181835921159781
31
0
0
SPLINE
5
10A
100
AcDbEntity
8
CUTOUTS
100
AcDbSpline
70
0
71
3
72
8
73
4
74
0
42
0.000000001
43
0.0000000001
44
0.0000000001
40
-1
40
-1
40
-1
40
-1
40
0
40
0
40
0
40
0
10
-15.90867655783299
20
-33.181835921159781
30
0
10
-16.023503013983316
20
-33.722051924128444
30
0
10
-16.554519846415694
20
-34.066898287226209
30
0
10
-17.094735849384719
20
-33.952071831075934
30
0
0
LINE
5
10B
100
AcDbEntity
8
CUTOUTS
100
AcDbLine
10
-81.822878768678819
20
-5.8809120007549343
30
0
11
-70.085107559872952
21
-8.3758522905679555
31
0
0
SPLINE
5
10C
100
AcDbEntity
8
CUTOUTS
100
AcDbSpline
70
0
71
3
72
8
73
4
74
0
42
0.000000001
43
0.0000000001
44
0.0000000001
40
-1
40
-1
40
-1
40
-1
40
0
40
0
40
0
40
0
10
-70.085107559872952
20
-8.3758522905679555
30
0
10
-69.544891556904261
20
-8.4906787467182276
30
0
10
-69.20004519380683
20
-9.021695579150304
30
0
10
-69.314871649957126
20
-9.5619115821196132
30
0
0
LINE
5
10D
100
AcDbEntity
8
CUTOUTS
100
AcDbLine
10
-69.314871649957141
20
-9.5619115821196043
30
0
11
-71.809811939770114
21
-21.299682790925143
31
0
0
SPLINE
5
10E
100
AcDbEntity
8
CUTOUTS
100
AcDbSpline
70
0
71
3
72
8
73
4
74
0
42
0.000000001
43
0.0000000001
44
0.0000000001
40
-1
40
-1
40
-1
40
-1
40
0
40
0
40
0
40
0
10
-71.809811939770114
20
-21.299682790925143
30
0
10
-71.924638395920383
20
-21.839898793893777
30
0
10
-72.455655228352796
20
-22.18474515699155
30
0
10
-72.995871231321772
20
-22.069918700841296
30
0
0
LINE
5
10F
100
AcDbEntity
8
CUTOUTS
100
AcDbLine
10
-72.995871231321772
20
-22.069918700841296
30
0
11
-84.733642440127298
21
-19.574978411028283
31
0
0
SPLINE
5
110
100
AcDbEntity
8
CUTOUTS
100
AcDbSpline
70
0
71
3
72
8
73
4
74
0
42
0.000000001
43
0.0000000001
44
0.0000000001
40
-1
40
-1
40
-1
40
-1
40
0
40
0
40
0
40
0
10
-84.733642440127298
20
-19.574978411028283
30
0
10
-85.273858443096273
20
-19.460151954878011
30
0
10
-85.618704806193406
20
-18.929135122445295
30
0
10
-85.50387835004345
20
-18.388919119476618
30
0
0
LINE
5
111
100
AcDbEntity
8
CUTOUTS
100
AcDbLine
10
-85.503878350043436
20
-18.388919119476625
30
0
11
-83.008938060230122
21
-6.6511479106704474
31
0
0
SPLINE
5
112
100
AcDbEntity
8
CUTOUTS
100
AcDbSpline
70
0
71
3
72
8
73
4
74
0
42
0.000000001
43
0.0000000001
44
0.0000000001
40
-1
40
-1
40
-1
40
-1
40
0
40
0
40
0
40
0
10
-83.008938060230122
20
-6.6511479106704474
30
0
10
-82.894111604080166
20
-6.1109319077017954
30
0
10
-82.363094771647454
20
-5.7660855446046533
30
0
10
-81.822878768678819
20
-5.8809120007549343
30
0
0
LINE
5
113
100
AcDbEntity
8
CUTOUTS
100
AcDbLine
10
-50.716721747839003
20
-59.165875776617312
30
0
11
-51.555253658805796
21
-56.585139918838834
31
0
0
LINE
5
114
100
AcDbEntity
8
CUTOUTS
100
AcDbLine
10
-51.555253658805796
20
-56.585139918838834
30
0
11
-49.739536800995623
21
-54.568582053168427
31
0
0
LINE
5
115
100
AcDbEntity
8
CUTOUTS
100
AcDbLine
10
-49.739536800995623
20
-54.568582053168427
30
0
11
-47.0852880322186
21
-55.132760045276527
31
0
0
LINE
5
116
100
AcDbEntity
8
CUTOUTS
100
AcDbLine
10
-47.0852880322186
20
-55.132760045276534
30
0
11
-46.246756121251842
21
-57.713495903055012
31
0
0
LINE
5
117
100
AcDbEntity
8
CUTOUTS
100
AcDbLine
10
-46.246756121251842
20
-57.713495903055012
30
0
11
-48.062472979062036
21
-59.730053768725412
31
0
0
LINE
5
118
100
AcDbEntity
8
CUTOUTS
100
AcDbLine
10
-48.062472979062036
20
-59.730053768725412
30
0
11
-50.716721747839003
21
-59.165875776617312
31
0
0
LINE
5
119
100
AcDbEntity
8
CUTOUTS
100
AcDbLine
10
-50.257778022624464
20
60.274584649202183
30
0
11
-51.614551155220042
21
62.624584649202191
31
0
0
LINE
5
11A
100
AcDbEntity
8
CUTOUTS
100
AcDbLine
10
-51.614551155220042
20
62.624584649202191
30
0
11
-50.257778022624407
21
64.974584649202171
31
0
0
LINE
5
11B
100
AcDbEntity
8
CUTOUTS
100
AcDbLine
10
-50.257778022624407
20
64.974584649202171
30
0
11
-47.544231757433195
21
64.974584649202129
31
0
0
LINE
5
11C
100
AcDbEntity
8
CUTOUTS
100
AcDbLine
10
-47.544231757433195
20
64.974584649202129
30
0
11
-46.187458624837561
21
62.624584649202141
31
0
0
LINE
5
11D
100
AcDbEntity
8
CUTOUTS
100
AcDbLine
10
-46.187458624837561
20
62.624584649202141
30
0
11
-47.544231757433195
21
60.274584649202183
31
0
0
LINE
5
11E
100
AcDbEntity
8
CUTOUTS
100
AcDbLine
10
-47.544231757433195
20
60.274584649202183
30
0
11
-50.257778022624464
21
60.274584649202183
31
0
0
LINE
5
11F
100
AcDbEntity
8
CUTOUTS
100
AcDbLine
10
166.65582873480872
20
62.624584649202141
30
0
11
168.01260186740436
21
64.974584649202171
31
0
0
LINE
5
120
100
AcDbEntity
8
CUTOUTS
100
AcDbLine
10
168.01260186740436
20
64.974584649202171
30
0
11
170.72614813259563
21
64.974584649202171
31
0
0
LINE
5
121
100
AcDbEntity
8
CUTOUTS
100
AcDbLine
10
170.72614813259563
20
64.974584649202171
30
0
11
172.0829212651912
21
62.624584649202191
31
0
0
LINE
5
122
100
AcDbEntity
8
CUTOUTS
100
AcDbLine
10
172.0829212651912
20
62.624584649202191
30
0
11
170.72614813259563
21
60.274584649202126
31
0
0
LINE
5
123
100
AcDbEntity
8
CUTOUTS
100
AcDbLine
10
170.72614813259563
20
60.274584649202126
30
0
11
168.01260186740436
21
60.274584649202112
31
0
0
LINE
5
124
100
AcDbEntity
8
CUTOUTS
100
AcDbLine
10
168.01260186740436
20
60.274584649202112
30
0
11
166.65582873480872
21
62.624584649202141
31
0
0
LINE
5
125
100
AcDbEntity
8
CUTOUTS
100
AcDbLine
10
51.115801155217042
20
62.624584649202141
30
0
11
49.759028022621443
21
60.274584649202126
31
0
0
LINE
5
126
100
AcDbEntity
8
CUTOUTS
100
AcDbLine
10
49.759028022621443
20
60.274584649202126
30
0
11
47.045481757430245
21
60.274584649202183
31
0
0
LINE
5
127
100
AcDbEntity
8
CUTOUTS
100
AcDbLine
10
47.045481757430245
20
60.274584649202183
30
0
11
45.688708624834575
21
62.624584649202191
31
0
0
LINE
5
128
100
AcDbEntity
8
CUTOUTS
100
AcDbLine
10
45.688708624834575
20
62.624584649202191
30
0
11
47.045481757430245
21
64.974584649202129
31
0
0
LINE
5
129
100
AcDbEntity
8
CUTOUTS
100
AcDbLine
10
47.045481757430245
20
64.974584649202129
30
0
11
49.759028022621443
21
64.974584649202129
31
0
0
LINE
5
12A
100
AcDbEntity
8
CUTOUTS
100
AcDbLine
10
49.759028022621443
20
64.974584649202129
30
0
11
51.115801155217042
21
62.624584649202141
31
0
0
LINE
5
12B
100
AcDbEntity
8
CUTOUTS
100
AcDbLine
10
-166.65582873480878
20
62.624584649202141
30
0
11
-168.01260186740444
21
60.274584649202126
31
0
0
LINE
5
12C
100
AcDbEntity
8
CUTOUTS
100
AcDbLine
10
-168.01260186740444
20
60.274584649202126
30
0
11
-170.72614813259565
21
60.274584649202126
31
0
0
LINE
5
12D
100
AcDbEntity
8
CUTOUTS
100
AcDbLine
10
-170.72614813259565
20
60.274584649202126
30
0
11
-172.08292126519126
21
62.624584649202141
31
0
0
LINE
5
12E
100
AcDbEntity
8
CUTOUTS
100
AcDbLine
10
-172.08292126519126
20
62.624584649202141
30
0
11
-170.72614813259565
21
64.974584649202129
31
0
0
LINE
5
12F
100
AcDbEntity
8
CUTOUTS
100
AcDbLine
10
-170.72614813259565
20
64.974584649202129
30
0
11
-168.01260186740444
21
64.974584649202129
31
0
0
LINE
5
130
100
AcDbEntity
8
CUTOUTS
100
AcDbLine
10
-168.01260186740444
20
64.974584649202129
30
0
11
-166.65582873480878
21
62.624584649202141
31
0
0
LINE
5
131
100
AcDbEntity
8
CUTOUTS
100
AcDbLine
10
-170.72614813259565
20
-49.565415350797892
30
0
11
-172.08292126519126
21
-47.215415350797876
31
0
0
LINE
5
132
100
AcDbEntity
8
CUTOUTS
100
AcDbLine
10
-172.08292126519126
20
-47.215415350797876
30
0
11
-170.72614813259563
21
-44.865415350797889
31
0
0
LINE
5
133
100
AcDbEntity
8
CUTOUTS
100
AcDbLine
10
-170.72614813259563
20
-44.865415350797889
30
0
11
-168.01260186740436
21
-44.865415350797889
31
0
0
LINE
5
134
100
AcDbEntity
8
CUTOUTS
100
AcDbLine
10
-168.01260186740438
20
-44.865415350797889
30
0
11
-166.65582873480878
21
-47.215415350797905
31
0
0
LINE
5
135
100
AcDbEntity
8
CUTOUTS
100
AcDbLine
10
-166.65582873480878
20
-47.215415350797898
30
0
11
-168.01260186740444
21
-49.565415350797892
31
0
0
LINE
5
136
100
AcDbEntity
8
CUTOUTS
100
AcDbLine
10
-168.01260186740444
20
-49.565415350797892
30
0
11
-170.72614813259565
21
-49.565415350797892
31
0
0
SPLINE
5
137
100
AcDbEntity
8
CUTOUTS
100
AcDbSpline
70
0
71
3
72
8
73
4
74
0
42
0.000000001
43
0.0000000001
44
0.0000000001
40
-1
40
-1
40
-1
40
-1
40
0
40
0
40
0
40
0
10
19.8739929681064
20
-30.27107224971126
30
0
10
19.988819424255979
20
-30.811288252680576
30
0
10
19.643973061158917
20
-31.342305085112642
30
0
10
19.103757058190247
20
-31.457131541262925
30
0
0
LINE
5
138
100
AcDbEntity
8
CUTOUTS
100
AcDbLine
10
19.103757058190247
20
-31.457131541262928
30
0
11
7.3659858493840957
21
-33.952071831075934
31
0
0
SPLINE
5
139
100
AcDbEntity
8
CUTOUTS
100
AcDbSpline
70
0
71
3
72
8
73
4
74
0
42
0.000000001
43
0.0000000001
44
0.0000000001
40
-1
40
-1
40
-1
40
-1
40
0
40
0
40
0
40
0
10
7.3659858493840957
20
-33.952071831075934
30
0
10
6.8257698464154259
20
-34.066898287226209
30
0
10
6.2947530139827279
20
-33.722051924129083
30
0
10
6.1799265578330065
20
-33.181835921159781
30
0
0
LINE
5
13A
100
AcDbEntity
8
CUTOUTS
100
AcDbLine
10
6.1799265578330065
20
-33.181835921159781
30
0
11
3.6849862680194079
21
-21.444064712354248
31
0
0
SPLINE
5
13B
100
AcDbEntity
8
CUTOUTS
100
AcDbSpline
70
0
71
3
72
8
73
4
74
0
42
0.000000001
43
0.0000000001
44
0.0000000001
40
-1
40
-1
40
-1
40
-1
40
0
40
0
40
0
40
0
10
3.6849862680194079
20
-21.444064712354248
30
0
10
3.5701598118698286
20
-20.903848709385588
30
0
10
3.9150061749668907
20
-20.372831876952855
30
0
10
4.455222177935525
20
-20.25800542080259
30
0
0
LINE
5
13C
100
AcDbEntity
8
CUTOUTS
100
AcDbLine
10
4.455222177935525
20
-20.25800542080259
30
0
11
16.192993386741108
21
-17.76306513098957
31
0
0
SPLINE
5
13D
100
AcDbEntity
8
CUTOUTS
100
AcDbSpline
70
0
71
3
72
8
73
4
74
0
42
0.000000001
43
0.0000000001
44
0.0000000001
40
-1
40
-1
40
-1
40
-1
40
0
40
0
40
0
40
0
10
16.192993386741108
20
-17.76306513098957
30
0
10
16.733209389710417
20
-17.648238674839305
30
0
10
17.26422622214244
20
-17.993085037937078
30
0
10
17.379052678292766
20
-18.533301040905723
30
0
0
LINE
5
13E
100
AcDbEntity
8
CUTOUTS
100
AcDbLine
10
17.379052678292766
20
-18.533301040905723
30
0
11
19.8739929681064
21
-30.27107224971126
31
0
0
SPLINE
5
13F
100
AcDbEntity
8
CUTOUTS
100
AcDbSpline
70
0
71
3
72
8
73
4
74
0
42
0.000000001
43
0.0000000001
44
0.0000000001
40
-1
40
-1
40
-1
40
-1
40
0
40
0
40
0
40
0
10
-88.358938060230145
20
13.958852089329321
30
0
10
-88.244111604080189
20
14.499068092298311
30
0
10
-87.713094771647491
20
14.843914455395479
30
0
10
-87.172878768678842
20
14.72908799924519
30
0
0
LINE
5
140
100
AcDbEntity
8
CUTOUTS
100
AcDbLine
10
-87.172878768678842
20
14.72908799924519
30
0
11
-75.435107559872989
21
12.234147709432168
31
0
0
SPLINE
5
141
100
AcDbEntity
8
CUTOUTS
100
AcDbSpline
70
0
71
3
72
8
73
4
74
0
42
0.000000001
43
0.0000000001
44
0.0000000001
40
-1
40
-1
40
-1
40
-1
40
0
40
0
40
0
40
0
10
-75.435107559872989
20
12.234147709432168
30
0
10
-74.894891556904
20
12.119321253281869
30
0
10
-74.550045193806866
20
11.588304420849482
30
0
10
-74.664871649956808
20
11.048088417880511
30
0
0
LINE
5
142
100
AcDbEntity
8
CUTOUTS
100
AcDbLine
10
-74.664871649956822
20
11.048088417880519
30
0
11
-77.159811939770151
21
-0.68968279092501916
31
0
0
SPLINE
5
143
100
AcDbEntity
8
CUTOUTS
100
AcDbSpline
70
0
71
3
72
8
73
4
74
0
42
0.000000001
43
0.0000000001
44
0.0000000001
40
-1
40
-1
40
-1
40
-1
40
0
40
0
40
0
40
0
10
-77.159811939770151
20
-0.68968279092501916
30
0
10
-77.274638395920448
20
-1.2298987938936623
30
0
10
-77.805655228352819
20
-1.5747451569914528
30
0
10
-78.345871231321496
20
-1.459918700841154
30
0
0
LINE
5
144
100
AcDbEntity
8
CUTOUTS
100
AcDbLine
10
-78.345871231321496
20
-1.459918700841154
30
0
11
-90.083642440127321
21
1.0350215889721603
31
0
0
SPLINE
5
145
100
AcDbEntity
8
CUTOUTS
100
AcDbSpline
70
0
71
3
72
8
73
4
74
0
42
0.000000001
43
0.0000000001
44
0.0000000001
40
-1
40
-1
40
-1
40
-1
40
0
40
0
40
0
40
0
10
-90.083642440127321
20
1.0350215889721603
30
0
10
-90.62385844309631
20
1.1498480451221305
30
0
10
-90.968704806193429
20
1.6808648775548285
30
0
10
-90.853878350043473
20
2.2210808805234894
30
0
0
LINE
5
146
100
AcDbEntity
8
CUTOUTS
100
AcDbLine
10
-90.853878350043459
20
2.2210808805234805
30
0
11
-88.358938060230145
21
13.958852089329321
31
0
0
LINE
5
147
100
AcDbEntity
8
CUTOUTS
100
AcDbLine
10
80.364892440126738
20
1.0350215889721603
30
0
11
68.627121231321198
21
-1.459918700841154
31
0
0
SPLINE
5
148
100
AcDbEntity
8
CUTOUTS
100
AcDbSpline
70
0
71
3
72
8
73
4
74
0
42
0.000000001
43
0.0000000001
44
0.0000000001
40
-1
40
-1
40
-1
40
-1
40
0
40
0
40
0
40
0
10
68.627121231321198
20
-1.459918700841154
30
0
10
68.086905228352563
20
-1.5747451569914528
30
0
10
67.555888395919936
20
-1.2298987938936623
30
0
10
67.441061939769611
20
-0.68968279092501916
30
0
0
LINE
5
149
100
AcDbEntity
8
CUTOUTS
100
AcDbLine
10
67.441061939769611
20
-0.68968279092501916
30
0
11
64.946121649956609
21
11.048088417880511
31
0
0
SPLINE
5
14A
100
AcDbEntity
8
CUTOUTS
100
AcDbSpline
70
0
71
3
72
8
73
4
74
0
42
0.000000001
43
0.0000000001
44
0.0000000001
40
-1
40
-1
40
-1
40
-1
40
0
40
0
40
0
40
0
10
64.946121649956609
20
11.048088417880511
30
0
10
64.831295193806326
20
11.588304420849482
30
0
10
65.176141556904028
20
12.119321253281869
30
0
10
65.716357559872662
20
12.234147709432168
30
0
0
LINE
5
14B
100
AcDbEntity
8
CUTOUTS
100
AcDbLine
10
65.716357559872662
20
12.234147709432168
30
0
11
77.454128768678174
21
14.72908799924519
31
0
0
SPLINE
5
14C
100
AcDbEntity
8
CUTOUTS
100
AcDbSpline
70
0
71
3
72
8
73
4
74
0
42
0.000000001
43
0.0000000001
44
0.0000000001
40
-1
40
-1
40
-1
40
-1
40
0
40
0
40
0
40
0
10
77.454128768678174
20
14.72908799924519
30
0
10
77.994344771646922
20
14.843914455395479
30
0
10
78.525361604079649
20
14.499068092298009
30
0
10
78.64018806022986
20
13.958852089329321
30
0
0
LINE
5
14D
100
AcDbEntity
8
CUTOUTS
100
AcDbLine
10
78.64018806022986
20
13.958852089329303
30
0
11
81.135128350042891
21
2.2210808805234894
31
0
0
SPLINE
5
14E
100
AcDbEntity
8
CUTOUTS
100
AcDbSpline
70
0
71
3
72
8
73
4
74
0
42
0.000000001
43
0.0000000001
44
0.0000000001
40
-1
40
-1
40
-1
40
-1
40
0
40
0
40
0
40
0
10
81.135128350042891
20
2.2210808805234894
30
0
10
81.249954806193188
20
1.6808648775548285
30
0
10
80.905108443096125
20
1.1498480451221305
30
0
10
80.364892440126738
20
1.0350215889721603
30
0
0
LINE
5
14F
100
AcDbEntity
8
CUTOUTS
100
AcDbLine
10
-41.778447643363741
20
10.24864587900244
30
0
11
-53.516218852169288
21
12.743586168815471
31
0
0
SPLINE
5
150
100
AcDbEntity
8
CUTOUTS
100
AcDbSpline
70
0
71
3
72
8
73
4
74
0
42
0.000000001
43
0.0000000001
44
0.0000000001
40
-1
40
-1
40
-1
40
-1
40
0
40
0
40
0
40
0
10
-53.516218852169288
20
12.743586168815471
30
0
10
-54.056434855138278
20
12.858412624965743
30
0
10
-54.401281218235766
20
13.389429457398139
30
0
10
-54.286454762085441
20
13.929645460367128
30
0
0
LINE
5
151
100
AcDbEntity
8
CUTOUTS
100
AcDbLine
10
-54.286454762085427
20
13.929645460367128
30
0
11
-51.791514472272127
21
25.667416669172624
31
0
0
SPLINE
5
152
100
AcDbEntity
8
CUTOUTS
100
AcDbSpline
70
0
71
3
72
8
73
4
74
0
42
0.000000001
43
0.0000000001
44
0.0000000001
40
-1
40
-1
40
-1
40
-1
40
0
40
0
40
0
40
0
10
-51.791514472272127
20
25.667416669172624
30
0
10
-51.676688016122142
20
26.207632672141628
30
0
10
-51.145671183689444
20
26.552479035238726
30
0
10
-50.605455180720767
20
26.437652579088777
30
0
0
LINE
5
153
100
AcDbEntity
8
CUTOUTS
100
AcDbLine
10
-50.605455180720767
20
26.437652579088777
30
0
11
-38.867683971914921
21
23.942712289275462
31
0
0
SPLINE
5
154
100
AcDbEntity
8
CUTOUTS
100
AcDbSpline
70
0
71
3
72
8
73
4
74
0
42
0.000000001
43
0.0000000001
44
0.0000000001
40
-1
40
-1
40
-1
40
-1
40
0
40
0
40
0
40
0
10
-38.867683971914921
20
23.942712289275462
30
0
10
-38.327467968945967
20
23.827885833125471
30
0
10
-37.982621605848799
20
23.296869000692773
30
0
10
-38.097448061999053
20
22.756652997724139
30
0
0
LINE
5
155
100
AcDbEntity
8
CUTOUTS
100
AcDbLine
10
-38.097448061999017
20
22.756652997724139
30
0
11
-40.592388351812048
21
11.018881788918264
31
0
0
SPLINE
5
156
100
AcDbEntity
8
CUTOUTS
100
AcDbSpline
70
0
71
3
72
8
73
4
74
0
42
0.000000001
43
0.0000000001
44
0.0000000001
40
-1
40
-1
40
-1
40
-1
40
0
40
0
40
0
40
0
10
-40.592388351812048
20
11.018881788918264
30
0
10
-40.707214807962373
20
10.478665785949293
30
0
10
-41.238231640394716
20
10.133819422852142
30
0
10
-41.778447643363741
20
10.24864587900244
30
0
0
LINE
5
157
100
AcDbEntity
8
CUTOUTS
100
AcDbLine
10
-47.132159437342693
20
30.859363589080687
30
0
11
-58.869930646148241
21
33.354303878893703
31
0
0
SPLINE
5
158
100
AcDbEntity
8
CUTOUTS
100
AcDbSpline
70
0
71
3
72
8
73
4
74
0
42
0.000000001
43
0.0000000001
44
0.0000000001
40
-1
40
-1
40
-1
40
-1
40
0
40
0
40
0
40
0
10
-58.869930646148241
20
33.354303878893703
30
0
10
-59.410146649117209
20
33.469130335043957
30
0
10
-59.754993012214669
20
34.000147167476349
30
0
10
-59.640166556064358
20
34.54036317044536
30
0
0
LINE
5
159
100
AcDbEntity
8
CUTOUTS
100
AcDbLine
10
-59.640166556064344
20
34.54036317044536
30
0
11
-57.145226266251363
21
46.278134379250908
31
0
0
SPLINE
5
15A
100
AcDbEntity
8
CUTOUTS
100
AcDbSpline
70
0
71
3
72
8
73
4
74
0
42
0.000000001
43
0.0000000001
44
0.0000000001
40
-1
40
-1
40
-1
40
-1
40
0
40
0
40
0
40
0
10
-57.145226266251363
20
46.278134379250908
30
0
10
-57.030399810101088
20
46.818350382219911
30
0
10
-56.499382977668716
20
47.163196745317279
30
0
10
-55.959166974699741
20
47.048370289166989
30
0
0
LINE
5
15B
100
AcDbEntity
8
CUTOUTS
100
AcDbLine
10
-55.959166974699741
20
47.048370289166989
30
0
11
-44.221395765893874
21
44.553429999353995
31
0
0
SPLINE
5
15C
100
AcDbEntity
8
CUTOUTS
100
AcDbSpline
70
0
71
3
72
8
73
4
74
0
42
0.000000001
43
0.0000000001
44
0.0000000001
40
-1
40
-1
40
-1
40
-1
40
0
40
0
40
0
40
0
10
-44.221395765893874
20
44.553429999353995
30
0
10
-43.681179762925204
20
44.438603543203719
30
0
10
-43.336333399827716
20
43.907586710771007
30
0
10
-43.451159855978041
20
43.367370707802351
30
0
0
LINE
5
15D
100
AcDbEntity
8
CUTOUTS
100
AcDbLine
10
-43.451159855978005
20
43.367370707802351
30
0
11
-45.946100145791071
21
31.629599498996789
31
0
0
SPLINE
5
15E
100
AcDbEntity
8
CUTOUTS
100
AcDbSpline
70
0
71
3
72
8
73
4
74
0
42
0.000000001
43
0.0000000001
44
0.0000000001
40
-1
40
-1
40
-1
40
-1
40
0
40
0
40
0
40
0
10
-45.946100145791071
20
31.629599498996789
30
0
10
-46.06092660194129
20
31.08938349602785
30
0
10
-46.591943434373739
20
30.744537132930418
30
0
10
-47.132159437342693
20
30.859363589080672
30
0
0
LINE
5
15F
100
AcDbEntity
8
CUTOUTS
100
AcDbLine
10
36.012764472271819
20
-14.572583330827307
30
0
11
38.507704762084813
21
-26.31035453963284
31
0
0
SPLINE
5
160
100
AcDbEntity
8
CUTOUTS
100
AcDbSpline
70
0
71
3
72
8
73
4
74
0
42
0.000000001
43
0.0000000001
44
0.0000000001
40
-1
40
-1
40
-1
40
-1
40
0
40
0
40
0
40
0
10
38.507704762084813
20
-26.31035453963284
30
0
10
38.622531218235139
20
-26.850570542602149
30
0
10
38.277684855137899
20
-27.381587375034222
30
0
10
37.737468852168625
20
-27.496413831184491
30
0
0
LINE
5
161
100
AcDbEntity
8
CUTOUTS
100
AcDbLine
10
37.737468852168625
20
-27.496413831184494
30
0
11
25.999697643363113
21
-29.991354120997492
31
0
0
SPLINE
5
162
100
AcDbEntity
8
CUTOUTS
100
AcDbSpline
70
0
71
3
72
8
73
4
74
0
42
0.000000001
43
0.0000000001
44
0.0000000001
40
-1
40
-1
40
-1
40
-1
40
0
40
0
40
0
40
0
10
25.999697643363113
20
-29.991354120997492
30
0
10
25.459481640394372
20
-30.106180577147789
30
0
10
24.928464807961674
20
-29.761334214050649
30
0
10
24.81363835181142
20
-29.221118211081993
30
0
0
LINE
5
163
100
AcDbEntity
8
CUTOUTS
100
AcDbLine
10
24.81363835181142
20
-29.221118211081993
30
0
11
22.31869806199839
21
-17.483347002275835
31
0
0
SPLINE
5
164
100
AcDbEntity
8
CUTOUTS
100
AcDbSpline
70
0
71
3
72
8
73
4
74
0
42
0.000000001
43
0.0000000001
44
0.0000000001
40
-1
40
-1
40
-1
40
-1
40
0
40
0
40
0
40
0
10
22.31869806199839
20
-17.483347002275835
30
0
10
22.203871605848775
20
-16.943130999307144
30
0
10
22.548717968945908
20
-16.412114166874446
30
0
10
23.088933971914649
20
-16.297287710724166
30
0
0
LINE
5
165
100
AcDbEntity
8
CUTOUTS
100
AcDbLine
10
23.088933971914649
20
-16.297287710724166
30
0
11
34.826705180720126
21
-13.802347420911154
31
0
0
SPLINE
5
166
100
AcDbEntity
8
CUTOUTS
100
AcDbSpline
70
0
71
3
72
8
73
4
74
0
42
0.000000001
43
0.0000000001
44
0.0000000001
40
-1
40
-1
40
-1
40
-1
40
0
40
0
40
0
40
0
10
34.826705180720126
20
-13.802347420911154
30
0
10
35.366921183689399
20
-13.687520964760873
30
0
10
35.897938016121493
20
-14.032367327858646
30
0
10
36.012764472271819
20
-14.572583330827307
30
0
0
SPLINE
5
167
100
AcDbEntity
8
CUTOUTS
100
AcDbSpline
70
0
71
3
72
8
73
4
74
0
42
0.000000001
43
0.0000000001
44
0.0000000001
40
-1
40
-1
40
-1
40
-1
40
0
40
0
40
0
40
0
10
53.460416974699108
20
-9.8416297108327289
30
0
10
54.000632977668523
20
-9.7268032546830874
30
0
10
54.531649810100511
20
-10.071649617780221
30
0
10
54.646476266250765
20
-10.611865620748882
30
0
0
LINE
5
168
100
AcDbEntity
8
CUTOUTS
100
AcDbLine
10
54.646476266250765
20
-10.611865620748882
30
0
11
57.141416556063831
21
-22.349636829555052
31
0
0
SPLINE
5
169
100
AcDbEntity
8
CUTOUTS
100
AcDbSpline
70
0
71
3
72
8
73
4
74
0
42
0.000000001
43
0.0000000001
44
0.0000000001
40
-1
40
-1
40
-1
40
-1
40
0
40
0
40
0
40
0
10
57.141416556063831
20
-22.349636829555052
30
0
10
57.256243012214085
20
-22.889852832523712
30
0
10
56.911396649117059
20
-23.42086966495641
30
0
10
56.371180646147643
20
-23.53569612110606
30
0
0
LINE
5
16A
100
AcDbEntity
8
CUTOUTS
100
AcDbLine
10
56.371180646147643
20
-23.53569612110606
30
0
11
44.633409437342095
21
-26.030636410919719
31
0
0
SPLINE
5
16B
100
AcDbEntity
8
CUTOUTS
100
AcDbSpline
70
0
71
3
72
8
73
4
74
0
42
0.000000001
43
0.0000000001
44
0.0000000001
40
-1
40
-1
40
-1
40
-1
40
0
40
0
40
0
40
0
10
44.633409437342095
20
-26.030636410919719
30
0
10
44.093193434373532
20
-26.145462867069345
30
0
10
43.562176601940763
20
-25.800616503972229
30
0
10
43.447350145790544
20
-25.260400501003577
30
0
0
LINE
5
16C
100
AcDbEntity
8
CUTOUTS
100
AcDbLine
10
43.447350145790544
20
-25.260400501003577
30
0
11
40.952409855977514
21
-13.52262929219739
31
0
0
SPLINE
5
16D
100
AcDbEntity
8
CUTOUTS
100
AcDbSpline
70
0
71
3
72
8
73
4
74
0
42
0.000000001
43
0.0000000001
44
0.0000000001
40
-1
40
-1
40
-1
40
-1
40
0
40
0
40
0
40
0
10
40.952409855977514
20
-13.52262929219739
30
0
10
40.837583399827224
20
-12.982413289228729
30
0
10
41.182429762924997
20
-12.451396456796013
30
0
10
41.722645765893702
20
-12.336570000646372
30
0
0
LINE
5
16E
100
AcDbEntity
8
CUTOUTS
100
AcDbLine
10
41.722645765893702
20
-12.336570000646372
30
0
11
53.460416974699108
21
-9.8416297108327289
31
0
0
LINE
5
16F
100
AcDbEntity
8
CUTOUTS
100
AcDbLine
10
-23.144735849384723
20
6.2879281689240152
30
0
11
-34.882507058190271
21
8.7828684587370454
31
0
0
SPLINE
5
170
100
AcDbEntity
8
CUTOUTS
100
AcDbSpline
70
0
71
3
72
8
73
4
74
0
42
0.000000001
43
0.0000000001
44
0.0000000001
40
-1
40
-1
40
-1
40
-1
40
0
40
0
40
0
40
0
10
-34.882507058190271
20
8.7828684587370454
30
0
10
-35.422723061159225
20
8.8976949148873086
30
0
10
-35.767569424256642
20
9.4287117473197135
30
0
10
-35.652742968106423
20
9.9689277502886586
30
0
0
LINE
5
171
100
AcDbEntity
8
CUTOUTS
100
AcDbLine
10
-35.652742968106459
20
9.9689277502886497
30
0
11
-33.157802678293393
21
21.706698959094545
31
0
0
SPLINE
5
172
100
AcDbEntity
8
CUTOUTS
100
AcDbSpline
70
0
71
3
72
8
73
4
74
0
42
0.000000001
43
0.0000000001
44
0.0000000001
40
-1
40
-1
40
-1
40
-1
40
0
40
0
40
0
40
0
10
-33.157802678293393
20
21.706698959094545
30
0
10
-33.042976222143174
20
22.246914962063194
30
0
10
-32.511959389710405
20
22.591761325160647
30
0
10
-31.971743386741771
20
22.476934869010357
30
0
0
LINE
5
173
100
AcDbEntity
8
CUTOUTS
100
AcDbLine
10
-31.971743386741771
20
22.476934869010357
30
0
11
-20.233972177935868
21
19.981994579197348
31
0
0
SPLINE
5
174
100
AcDbEntity
8
CUTOUTS
100
AcDbSpline
70
0
71
3
72
8
73
4
74
0
42
0.000000001
43
0.0000000001
44
0.0000000001
40
-1
40
-1
40
-1
40
-1
40
0
40
0
40
0
40
0
10
-20.233972177935868
20
19.981994579197348
30
0
10
-19.693756174966879
20
19.867168123047072
30
0
10
-19.348909811869746
20
19.33615129061436
30
0
10
-19.463736268020071
20
18.795935287645669
30
0
0
LINE
5
175
100
AcDbEntity
8
CUTOUTS
100
AcDbLine
10
-19.463736268020035
20
18.795935287645669
30
0
11
-21.95867655783303
21
7.058164078839857
31
0
0
SPLINE
5
176
100
AcDbEntity
8
CUTOUTS
100
AcDbSpline
70
0
71
3
72
8
73
4
74
0
42
0.000000001
43
0.0000000001
44
0.0000000001
40
-1
40
-1
40
-1
40
-1
40
0
40
0
40
0
40
0
10
-21.95867655783303
20
7.058164078839857
30
0
10
-22.073503013983355
20
6.5179480758711783
30
0
10
-22.604519846415734
20
6.1731017127737431
30
0
10
-23.144735849384723
20
6.2879281689240152
30
0
0
LINE
5
177
100
AcDbEntity
8
CUTOUTS
100
AcDbLine
10
38.112764472272147
20
44.297416669172762
30
0
11
40.607704762085248
21
32.559645460366895
31
0
0
SPLINE
5
178
100
AcDbEntity
8
CUTOUTS
100
AcDbSpline
70
0
71
3
72
8
73
4
74
0
42
0.000000001
43
0.0000000001
44
0.0000000001
40
-1
40
-1
40
-1
40
-1
40
0
40
0
40
0
40
0
10
40.607704762085248
20
32.559645460366895
30
0
10
40.722531218235396
20
32.01942945739826
30
0
10
40.377684855137801
20
31.488412624965562
30
0
10
39.837468852169025
20
31.373586168815251
30
0
0
LINE
5
179
100
AcDbEntity
8
CUTOUTS
100
AcDbLine
10
39.837468852169025
20
31.373586168815251
30
0
11
28.099697643363513
21
28.878645879002242
31
0
0
SPLINE
5
17A
100
AcDbEntity
8
CUTOUTS
100
AcDbSpline
70
0
71
3
72
8
73
4
74
0
42
0.000000001
43
0.0000000001
44
0.0000000001
40
-1
40
-1
40
-1
40
-1
40
0
40
0
40
0
40
0
10
28.099697643363513
20
28.878645879002242
30
0
10
27.559481640394239
20
28.763819422851931
30
0
10
27.028464807962109
20
29.10866578594942
30
0
10
26.913638351811784
20
29.648881788918395
30
0
0
LINE
5
17B
100
AcDbEntity
8
CUTOUTS
100
AcDbLine
10
26.913638351811784
20
29.648881788918409
30
0
11
24.418698061998789
21
41.386652997723921
31
0
0
SPLINE
5
17C
100
AcDbEntity
8
CUTOUTS
100
AcDbSpline
70
0
71
3
72
8
73
4
74
0
42
0.000000001
43
0.0000000001
44
0.0000000001
40
-1
40
-1
40
-1
40
-1
40
0
40
0
40
0
40
0
10
24.418698061998789
20
41.386652997723921
30
0
10
24.303871605848535
20
41.926869000692875
30
0
10
24.648717968945704
20
42.457885833125275
30
0
10
25.188933971915013
20
42.572712289275565
30
0
0
LINE
5
17D
100
AcDbEntity
8
CUTOUTS
100
AcDbLine
10
25.188933971915013
20
42.572712289275565
30
0
11
36.926705180720525
21
45.067652579088573
31
0
0
SPLINE
5
17E
100
AcDbEntity
8
CUTOUTS
100
AcDbSpline
70
0
71
3
72
8
73
4
74
0
42
0.000000001
43
0.0000000001
44
0.0000000001
40
-1
40
-1
40
-1
40
-1
40
0
40
0
40
0
40
0
10
36.926705180720525
20
45.067652579088573
30
0
10
37.466921183689266
20
45.182479035238885
30
0
10
37.997938016121928
20
44.83763267214141
30
0
10
38.112764472272147
20
44.297416669172776
30
0
0
LINE
5
17F
100
AcDbEntity
8
CUTOUTS
100
AcDbLine
10
75.004892440126696
20
-19.574978411028283
30
0
11
63.267121231321184
21
-22.069918700841296
31
0
0
SPLINE
5
180
100
AcDbEntity
8
CUTOUTS
100
AcDbSpline
70
0
71
3
72
8
73
4
74
0
42
0.000000001
43
0.0000000001
44
0.0000000001
40
-1
40
-1
40
-1
40
-1
40
0
40
0
40
0
40
0
10
63.267121231321184
20
-22.069918700841296
30
0
10
62.72690522835255
20
-22.18474515699155
30
0
10
62.195888395919887
20
-21.839898793893777
30
0
10
62.081061939769455
20
-21.299682790925143
30
0
0
LINE
5
181
100
AcDbEntity
8
CUTOUTS
100
AcDbLine
10
62.081061939769455
20
-21.299682790925143
30
0
11
59.586121649956567
21
-9.5619115821196132
31
0
0
SPLINE
5
182
100
AcDbEntity
8
CUTOUTS
100
AcDbSpline
70
0
71
3
72
8
73
4
74
0
42
0.000000001
43
0.0000000001
44
0.0000000001
40
-1
40
-1
40
-1
40
-1
40
0
40
0
40
0
40
0
10
59.586121649956567
20
-9.5619115821196132
30
0
10
59.471295193806242
20
-9.021695579150304
30
0
10
59.816141556903943
20
-8.4906787467182276
30
0
10
60.35635755987272
20
-8.3758522905679555
30
0
0
LINE
5
183
100
AcDbEntity
8
CUTOUTS
100
AcDbLine
10
60.35635755987272
20
-8.3758522905679555
30
0
11
72.094128768678274
21
-5.8809120007549343
31
0
0
SPLINE
5
184
100
AcDbEntity
8
CUTOUTS
100
AcDbSpline
70
0
71
3
72
8
73
4
74
0
42
0.000000001
43
0.0000000001
44
0.0000000001
40
-1
40
-1
40
-1
40
-1
40
0
40
0
40
0
40
0
10
72.094128768678274
20
-5.8809120007549343
30
0
10
72.634344771647577
20
-5.7660855446046533
30
0
10
73.165361604079564
20
-6.1109319077017954
30
0
10
73.280188060229818
20
-6.6511479106704474
30
0
0
LINE
5
185
100
AcDbEntity
8
CUTOUTS
100
AcDbLine
10
73.280188060229818
20
-6.6511479106704474
30
0
11
75.775128350042849
21
-18.388919119476618
31
0
0
SPLINE
5
186
100
AcDbEntity
8
CUTOUTS
100
AcDbSpline
70
0
71
3
72
8
73
4
74
0
42
0.000000001
43
0.0000000001
44
0.0000000001
40
-1
40
-1
40
-1
40
-1
40
0
40
0
40
0
40
0
10
75.775128350042849
20
-18.388919119476618
30
0
10
75.88995480619306
20
-18.929135122445295
30
0
10
75.545108443096012
20
-19.460151954878011
30
0
10
75.004892440126696
20
-19.574978411028283
30
0
0
LINE
5
187
100
AcDbEntity
8
CUTOUTS
100
AcDbLine
10
-145.38937500000006
20
39.874584649202049
30
0
11
-157.38937500000017
21
39.874584649202049
31
0
0
SPLINE
5
188
100
AcDbEntity
8
CUTOUTS
100
AcDbSpline
70
0
71
3
72
8
73
4
74
0
42
0.000000001
43
0.0000000001
44
0.0000000001
40
-1
40
-1
40
-1
40
-1
40
0
40
0
40
0
40
0
10
-157.38937500000017
20
39.874584649202049
30
0
10
-157.94165974983113
20
39.874584649202049
30
0
10
-158.3893750000002
20
40.322299899371437
30
0
10
-158.3893750000002
20
40.874584649202063
30
0
0
LINE
5
189
100
AcDbEntity
8
CUTOUTS
100
AcDbLine
10
-158.3893750000002
20
40.874584649202063
30
0
11
-158.3893750000002
21
52.874584649202198
31
0
0
SPLINE
5
18A
100
AcDbEntity
8
CUTOUTS
100
AcDbSpline
70
0
71
3
72
8
73
4
74
0
42
0.000000001
43
0.0000000001
44
0.0000000001
40
-1
40
-1
40
-1
40
-1
40
0
40
0
40
0
40
0
10
-158.3893750000002
20
52.874584649202198
30
0
10
-158.3893750000002
20
53.426869399032782
30
0
10
-157.94165974983082
20
53.874584649202191
30
0
10
-157.38937500000017
20
53.874584649202191
30
0
0
LINE
5
18B
100
AcDbEntity
8
CUTOUTS
100
AcDbLine
10
-157.38937500000017
20
53.874584649202191
30
0
11
-145.38937500000006
21
53.874584649202191
31
0
0
SPLINE
5
18C
100
AcDbEntity
8
CUTOUTS
100
AcDbSpline
70
0
71
3
72
8
73
4
74
0
42
0.000000001
43
0.0000000001
44
0.0000000001
40
-1
40
-1
40
-1
40
-1
40
0
40
0
40
0
40
0
10
-145.38937500000006
20
53.874584649202191
30
0
10
-144.83709025016941
20
53.874584649202191
30
0
10
-144.38937500000006
20
53.426869399032782
30
0
10
-144.38937500000006
20
52.874584649202198
30
0
0
LINE
5
18D
100
AcDbEntity
8
CUTOUTS
100
AcDbLine
10
-144.38937500000006
20
52.874584649202198
30
0
11
-144.38937500000006
21
40.874584649202063
31
0
0
SPLINE
5
18E
100
AcDbEntity
8
CUTOUTS
100
AcDbSpline
70
0
71
3
72
8
73
4
74
0
42
0.000000001
43
0.0000000001
44
0.0000000001
40
-1
40
-1
40
-1
40
-1
40
0
40
0
40
0
40
0
10
-144.38937500000006
20
40.874584649202063
30
0
10
-144.38937500000006
20
40.322299899371437
30
0
10
-144.83709025016941
20
39.874584649202049
30
0
10
-145.38937500000006
20
39.874584649202049
30
0
0
SPLINE
5
18F
100
AcDbEntity
8
CUTOUTS
100
AcDbSpline
70
0
71
3
72
8
73
4
74
0
42
0.000000001
43
0.0000000001
44
0.0000000001
40
-1
40
-1
40
-1
40
-1
40
0
40
0
40
0
40
0
10
121.96062499999968
20
37.734584649202134
30
0
10
121.40834025016929
20
37.734584649202134
30
0
10
120.96062499999967
20
38.182299899371223
30
0
10
120.96062499999967
20
38.734584649202198
30
0
0
LINE
5
190
100
AcDbEntity
8
CUTOUTS
100
AcDbLine
10
120.9606249999996
20
38.734584649202198
30
0
11
120.96062499999967
21
50.734584649202297
31
0
0
SPLINE
5
191
100
AcDbEntity
8
CUTOUTS
100
AcDbSpline
70
0
71
3
72
8
73
4
74
0
42
0.000000001
43
0.0000000001
44
0.0000000001
40
-1
40
-1
40
-1
40
-1
40
0
40
0
40
0
40
0
10
120.96062499999967
20
50.734584649202297
30
0
10
120.96062499999967
20
51.286869399032902
30
0
10
121.40834025016929
20
51.734584649201992
30
0
10
121.96062499999968
20
51.734584649201992
30
0
0
LINE
5
192
100
AcDbEntity
8
CUTOUTS
100
AcDbLine
10
121.96062499999968
20
51.734584649201992
30
0
11
153.01062500000006
21
51.734584649201992
31
0
0
SPLINE
5
193
100
AcDbEntity
8
CUTOUTS
100
AcDbSpline
70
0
71
3
72
8
73
4
74
0
42
0.000000001
43
0.0000000001
44
0.0000000001
40
-1
40
-1
40
-1
40
-1
40
0
40
0
40
0
40
0
10
153.01062500000006
20
51.734584649201992
30
0
10
153.56290974983062
20
51.734584649201992
30
0
10
154.01062499999972
20
51.286869399032902
30
0
10
154.01062499999972
20
50.734584649202297
30
0
0
LINE
5
194
100
AcDbEntity
8
CUTOUTS
100
AcDbLine
10
154.01062499999981
20
50.734584649202297
30
0
11
154.01062499999972
21
38.734584649201864
31
0
0
SPLINE
5
195
100
AcDbEntity
8
CUTOUTS
100
AcDbSpline
70
0
71
3
72
8
73
4
74
0
42
0.000000001
43
0.0000000001
44
0.0000000001
40
-1
40
-1
40
-1
40
-1
40
0
40
0
40
0
40
0
10
154.01062499999972
20
38.734584649201864
30
0
10
154.01062499999972
20
38.182299899371223
30
0
10
153.56290974983062
20
37.734584649202134
30
0
10
153.01062499999949
20
37.734584649202134
30
0
0
LINE
5
196
100
AcDbEntity
8
CUTOUTS
100
AcDbLine
10
153.01062499999949
20
37.734584649202134
30
0
11
152.9236250000038
21
37.734584649202134
31
0
0
LINE
5
197
100
AcDbEntity
8
CUTOUTS
100
AcDbLine
10
152.9236250000038
20
37.734584649202134
30
0
11
152.9236250000038
21
36.734584350970209
31
0
0
SPLINE
5
198
100
AcDbEntity
8
CUTOUTS
100
AcDbSpline
70
0
71
3
72
8
73
4
74
0
42
0.000000001
43
0.0000000001
44
0.0000000001
40
-1
40
-1
40
-1
40
-1
40
0
40
0
40
0
40
0
10
152.9236250000038
20
36.734584350970209
30
0
10
152.92362500000229
20
36.182299601139604
30
0
10
152.47590974983331
20
35.734584350970835
30
0
10
151.92362500000235
20
35.734584350970195
30
0
0
LINE
5
199
100
AcDbEntity
8
CUTOUTS
100
AcDbLine
10
151.92362500000235
20
35.734584350970195
30
0
11
146.92362500000547
21
35.734584350970195
31
0
0
SPLINE
5
19A
100
AcDbEntity
8
CUTOUTS
100
AcDbSpline
70
0
71
3
72
8
73
4
74
0
42
0.000000001
43
0.0000000001
44
0.0000000001
40
-1
40
-1
40
-1
40
-1
40
0
40
0
40
0
40
0
10
146.92362500000547
20
35.734584350970195
30
0
10
146.37134025017502
20
35.734584350970493
30
0
10
145.9236250000061
20
36.182299601139249
30
0
10
145.9236250000061
20
36.734584350969925
30
0
0
LINE
5
19B
100
AcDbEntity
8
CUTOUTS
100
AcDbLine
10
145.92362500000604
20
36.734584350969925
30
0
11
145.9236250000061
21
37.734584649202134
31
0
0
LINE
5
19C
100
AcDbEntity
8
CUTOUTS
100
AcDbLine
10
145.9236250000061
20
37.734584649202134
30
0
11
129.04762500000274
21
37.734584649202134
31
0
0
LINE
5
19D
100
AcDbEntity
8
CUTOUTS
100
AcDbLine
10
129.04762500000274
20
37.734584649202134
30
0
11
129.04762500000274
21
36.734584350968291
31
0
0
SPLINE
5
19E
100
AcDbEntity
8
CUTOUTS
100
AcDbSpline
70
0
71
3
72
8
73
4
74
0
42
0.000000001
43
0.0000000001
44
0.0000000001
40
-1
40
-1
40
-1
40
-1
40
0
40
0
40
0
40
0
10
129.04762500000274
20
36.734584350968291
30
0
10
129.04762500000217
20
36.182299601138325
30
0
10
128.5999097498331
20
35.734584350969911
30
0
10
128.04762500000271
20
35.734584350970195
30
0
0
LINE
5
19F
100
AcDbEntity
8
CUTOUTS
100
AcDbLine
10
128.04762500000271
20
35.734584350970195
30
0
11
123.04762500000386
21
35.734584350970195
31
0
0
SPLINE
5
1A0
100
AcDbEntity
8
CUTOUTS
100
AcDbSpline
70
0
71
3
72
8
73
4
74
0
42
0.000000001
43
0.0000000001
44
0.0000000001
40
-1
40
-1
40
-1
40
-1
40
0
40
0
40
0
40
0
10
123.04762500000386
20
35.734584350970195
30
0
10
122.49534025017361
20
35.734584350970493
30
0
10
122.04762500000456
20
36.182299601139249
30
0
10
122.04762500000456
20
36.734584350969925
30
0
0
LINE
5
1A1
100
AcDbEntity
8
CUTOUTS
100
AcDbLine
10
122.04762500000449
20
36.734584350969925
30
0
11
122.04762500000456
21
37.734584649202134
31
0
0
LINE
5
1A2
100
AcDbEntity
8
CUTOUTS
100
AcDbLine
10
122.04762500000456
20
37.734584649202134
30
0
11
121.96062499999968
21
37.734584649202134
31
0
0
SPLINE
5
1A3
100
AcDbEntity
8
CUTOUTS
100
AcDbSpline
70
0
71
3
72
8
73
4
74
0
42
0.000000001
43
0.0000000001
44
0.0000000001
40
-1
40
-1
40
-1
40
-1
40
0
40
0
40
0
40
0
10
150.54062499999992
20
0.63458464920212343
30
0
10
150.54062499999992
20
0.082299899371163221
30
0
10
150.09290974983074
20
-0.36541535079792631
30
0
10
149.54062499999992
20
-0.36541535079792631
30
0
0
LINE
5
1A4
100
AcDbEntity
8
CUTOUTS
100
AcDbLine
10
149.54062499999992
20
-0.36541535079792631
30
0
11
137.54062500000009
21
-0.36541535079792631
31
0
0
SPLINE
5
1A5
100
AcDbEntity
8
CUTOUTS
100
AcDbSpline
70
0
71
3
72
8
73
4
74
0
42
0.000000001
43
0.0000000001
44
0.0000000001
40
-1
40
-1
40
-1
40
-1
40
0
40
0
40
0
40
0
10
137.54062500000009
20
-0.36541535079792631
30
0
10
136.98834025016913
20
-0.36541535079792631
30
0
10
136.54062499999995
20
0.082299899371163221
30
0
10
136.54062499999995
20
0.63458464920212343
30
0
0
LINE
5
1A6
100
AcDbEntity
8
CUTOUTS
100
AcDbLine
10
136.54062499999986
20
0.63458464920212343
30
0
11
136.54062499999995
21
12.634584649202196
31
0
0
SPLINE
5
1A7
100
AcDbEntity
8
CUTOUTS
100
AcDbSpline
70
0
71
3
72
8
73
4
74
0
42
0.000000001
43
0.0000000001
44
0.0000000001
40
-1
40
-1
40
-1
40
-1
40
0
40
0
40
0
40
0
10
136.54062499999995
20
12.634584649202196
30
0
10
136.54062499999995
20
13.186869399032863
30
0
10
136.98834025016913
20
13.634584649202237
30
0
10
137.54062500000009
20
13.634584649202237
30
0
0
LINE
5
1A8
100
AcDbEntity
8
CUTOUTS
100
AcDbLine
10
137.54062500000009
20
13.634584649202237
30
0
11
149.54062499999992
21
13.634584649202237
31
0
0
SPLINE
5
1A9
100
AcDbEntity
8
CUTOUTS
100
AcDbSpline
70
0
71
3
72
8
73
4
74
0
42
0.000000001
43
0.0000000001
44
0.0000000001
40
-1
40
-1
40
-1
40
-1
40
0
40
0
40
0
40
0
10
149.54062499999992
20
13.634584649202237
30
0
10
150.09290974983074
20
13.634584649201926
30
0
10
150.54062499999992
20
13.186869399032863
30
0
10
150.54062499999992
20
12.634584649202196
30
0
0
LINE
5
1AA
100
AcDbEntity
8
CUTOUTS
100
AcDbLine
10
150.54062500000001
20
12.634584649202196
30
0
11
150.54062499999992
21
0.63458464920212343
31
0
0
LINE
5
1AB
100
AcDbEntity
8
CUTOUTS
100
AcDbLine
10
77.104892440127088
20
39.295021588972105
30
0
11
65.367121231321619
21
36.800081299158791
31
0
0
SPLINE
5
1AC
100
AcDbEntity
8
CUTOUTS
100
AcDbSpline
70
0
71
3
72
8
73
4
74
0
42
0.000000001
43
0.0000000001
44
0.0000000001
40
-1
40
-1
40
-1
40
-1
40
0
40
0
40
0
40
0
10
65.367121231321619
20
36.800081299158791
30
0
10
64.826905228352246
20
36.685254843008821
30
0
10
64.295888395920258
20
37.030101206105968
30
0
10
64.18106193976989
20
37.570317209074886
30
0
0
LINE
5
1AD
100
AcDbEntity
8
CUTOUTS
100
AcDbLine
10
64.18106193976989
20
37.570317209074908
30
0
11
61.686121649956931
21
49.308088417880811
31
0
0
SPLINE
5
1AE
100
AcDbEntity
8
CUTOUTS
100
AcDbSpline
70
0
71
3
72
8
73
4
74
0
42
0.000000001
43
0.0000000001
44
0.0000000001
40
-1
40
-1
40
-1
40
-1
40
0
40
0
40
0
40
0
10
61.686121649956931
20
49.308088417880811
30
0
10
61.571295193806606
20
49.848304420849423
30
0
10
61.916141556903703
20
50.379321253282214
30
0
10
62.456357559872444
20
50.494147709432113
30
0
0
LINE
5
1AF
100
AcDbEntity
8
CUTOUTS
100
AcDbLine
10
62.456357559872444
20
50.494147709432113
30
0
11
74.194128768678638
21
52.989087999245427
31
0
0
SPLINE
5
1B0
100
AcDbEntity
8
CUTOUTS
100
AcDbSpline
70
0
71
3
72
8
73
4
74
0
42
0.000000001
43
0.0000000001
44
0.0000000001
40
-1
40
-1
40
-1
40
-1
40
0
40
0
40
0
40
0
10
74.194128768678638
20
52.989087999245427
30
0
10
74.734344771647187
20
53.103914455395412
30
0
10
75.265361604079928
20
52.759068092298278
30
0
10
75.380188060230182
20
52.218852089329289
30
0
0
LINE
5
1B1
100
AcDbEntity
8
CUTOUTS
100
AcDbLine
10
75.380188060230182
20
52.218852089329275
30
0
11
77.875128350043212
21
40.481080880523777
31
0
0
SPLINE
5
1B2
100
AcDbEntity
8
CUTOUTS
100
AcDbSpline
70
0
71
3
72
8
73
4
74
0
42
0.000000001
43
0.0000000001
44
0.0000000001
40
-1
40
-1
40
-1
40
-1
40
0
40
0
40
0
40
0
10
77.875128350043212
20
40.481080880523777
30
0
10
77.989954806192941
20
39.940864877554773
30
0
10
77.645108443095836
20
39.409848045122374
30
0
10
77.104892440127088
20
39.295021588972105
30
0
0
LINE
5
1B3
100
AcDbEntity
8
CUTOUTS
100
AcDbLine
10
94.18062500000002
20
-19.415415350798114
30
0
11
82.180624999999566
21
-19.415415350798114
31
0
0
SPLINE
5
1B4
100
AcDbEntity
8
CUTOUTS
100
AcDbSpline
70
0
71
3
72
8
73
4
74
0
42
0.000000001
43
0.0000000001
44
0.0000000001
40
-1
40
-1
40
-1
40
-1
40
0
40
0
40
0
40
0
10
82.180624999999566
20
-19.415415350798114
30
0
10
81.628340250169273
20
-19.415415350798114
30
0
10
81.180625000000106
20
-18.967700100629035
30
0
10
81.180625000000106
20
-18.415415350798085
30
0
0
LINE
5
1B5
100
AcDbEntity
8
CUTOUTS
100
AcDbLine
10
81.180625000000106
20
-18.415415350798085
30
0
11
81.180625000000106
21
-6.4154153507976552
31
0
0
SPLINE
5
1B6
100
AcDbEntity
8
CUTOUTS
100
AcDbSpline
70
0
71
3
72
8
73
4
74
0
42
0.000000001
43
0.0000000001
44
0.0000000001
40
-1
40
-1
40
-1
40
-1
40
0
40
0
40
0
40
0
10
81.180625000000106
20
-6.4154153507976552
30
0
10
81.180625000000106
20
-5.8631306009673345
30
0
10
81.628340250169273
20
-5.4154153507976233
30
0
10
82.180624999999566
20
-5.4154153507976233
30
0
0
LINE
5
1B7
100
AcDbEntity
8
CUTOUTS
100
AcDbLine
10
82.180624999999566
20
-5.4154153507976233
30
0
11
94.18062500000002
21
-5.4154153507976233
31
0
0
SPLINE
5
1B8
100
AcDbEntity
8
CUTOUTS
100
AcDbSpline
70
0
71
3
72
8
73
4
74
0
42
0.000000001
43
0.0000000001
44
0.0000000001
40
-1
40
-1
40
-1
40
-1
40
0
40
0
40
0
40
0
10
94.18062500000002
20
-5.4154153507976233
30
0
10
94.732909749830867
20
-5.4154153507976233
30
0
10
95.180624999999992
20
-5.8631306009673345
30
0
10
95.180624999999992
20
-6.4154153507976552
30
0
0
LINE
5
1B9
100
AcDbEntity
8
CUTOUTS
100
AcDbLine
10
95.180624999999992
20
-6.4154153507976552
30
0
11
95.180624999999992
21
-18.415415350798085
31
0
0
SPLINE
5
1BA
100
AcDbEntity
8
CUTOUTS
100
AcDbSpline
70
0
71
3
72
8
73
4
74
0
42
0.000000001
43
0.0000000001
44
0.0000000001
40
-1
40
-1
40
-1
40
-1
40
0
40
0
40
0
40
0
10
95.180624999999992
20
-18.415415350798085
30
0
10
95.180624999999992
20
-18.967700100628413
30
0
10
94.732909749830867
20
-19.415415350798114
30
0
10
94.18062500000002
20
-19.415415350798114
30
0
0
SPLINE
5
1BB
100
AcDbEntity
8
CUTOUTS
100
AcDbSpline
70
0
71
3
72
8
73
4
74
0
42
0.000000001
43
0.0000000001
44
0.0000000001
40
-1
40
-1
40
-1
40
-1
40
0
40
0
40
0
40
0
10
44.331914780024704
20
-29.220257660452333
30
0
10
44.872130782993409
20
-29.105431204302704
30
0
10
45.403147615425503
20
-29.45027756739983
30
0
10
45.517974071575829
20
-29.990493570368493
30
0
0
LINE
5
1BC
100
AcDbEntity
8
CUTOUTS
100
AcDbLine
10
45.517974071575829
20
-29.990493570368493
30
0
11
48.22082605220622
21
-42.706412379908244
31
0
0
SPLINE
5
1BD
100
AcDbEntity
8
CUTOUTS
100
AcDbSpline
70
0
71
3
72
8
73
4
74
0
42
0.000000001
43
0.0000000001
44
0.0000000001
40
-1
40
-1
40
-1
40
-1
40
0
40
0
40
0
40
0
10
48.22082605220622
20
-42.706412379908244
30
0
10
48.33565250835651
20
-43.246628382876906
30
0
10
47.990806145259342
20
-43.777645215309619
30
0
10
47.450590142290743
20
-43.892471671459248
30
0
0
LINE
5
1BE
100
AcDbEntity
8
CUTOUTS
100
AcDbLine
10
47.450590142290743
20
-43.892471671459255
30
0
11
42.55985213862278
21
-44.93203012554833
31
0
0
SPLINE
5
1BF
100
AcDbEntity
8
CUTOUTS
100
AcDbSpline
70
0
71
3
72
8
73
4
74
0
42
0.000000001
43
0.0000000001
44
0.0000000001
40
-1
40
-1
40
-1
40
-1
40
0
40
0
40
0
40
0
10
42.55985213862278
20
-44.93203012554833
30
0
10
42.01963613565411
20
-45.04685658169798
30
0
10
41.488619303222123
20
-44.702010218600847
30
0
10
41.373792847071797
20
-44.161794215632177
30
0
0
LINE
5
1C0
100
AcDbEntity
8
CUTOUTS
100
AcDbLine
10
41.373792847071797
20
-44.161794215632177
30
0
11
38.670940866440731
21
-31.445875406091133
31
0
0
SPLINE
5
1C1
100
AcDbEntity
8
CUTOUTS
100
AcDbSpline
70
0
71
3
72
8
73
4
74
0
42
0.000000001
43
0.0000000001
44
0.0000000001
40
-1
40
-1
40
-1
40
-1
40
0
40
0
40
0
40
0
10
38.670940866440731
20
-31.44587540609114
30
0
10
38.556114410291116
20
-30.905659403123124
30
0
10
38.900960773388178
20
-30.374642570691051
30
0
10
39.441176776356208
20
-30.259816114541415
30
0
0
LINE
5
1C2
100
AcDbEntity
8
CUTOUTS
100
AcDbLine
10
39.441176776356208
20
-30.259816114541408
30
0
11
44.331914780024704
21
-29.220257660452333
31
0
0
LINE
5
1C3
100
AcDbEntity
8
CUTOUTS
100
AcDbLine
10
-23.110870058425093
20
-37.836082176608173
30
0
11
-9.0451075598728892
21
-40.825852290567973
31
0
0
SPLINE
5
1C4
100
AcDbEntity
8
CUTOUTS
100
AcDbSpline
70
0
71
3
72
8
73
4
74
0
42
0.000000001
43
0.0000000001
44
0.0000000001
40
-1
40
-1
40
-1
40
-1
40
0
40
0
40
0
40
0
10
-9.0451075598728892
20
-40.825852290567973
30
0
10
-8.5048915569041483
20
-40.940678746718255
30
0
10
-8.1600451938068019
20
-41.471695579150321
30
0
10
-8.2748716499570563
20
-42.011911582119623
30
0
0
LINE
5
1C5
100
AcDbEntity
8
CUTOUTS
100
AcDbLine
10
-8.2748716499570207
20
-42.011911582119623
30
0
11
-10.769811939770051
21
-53.749682790925149
31
0
0
SPLINE
5
1C6
100
AcDbEntity
8
CUTOUTS
100
AcDbSpline
70
0
71
3
72
8
73
4
74
0
42
0.000000001
43
0.0000000001
44
0.0000000001
40
-1
40
-1
40
-1
40
-1
40
0
40
0
40
0
40
0
10
-10.769811939770051
20
-53.749682790925164
30
0
10
-10.884638395920376
20
-54.289898793893826
30
0
10
-11.415655228352755
20
-54.634745156991599
30
0
10
-11.955871231321709
20
-54.519918700841316
30
0
0
LINE
5
1C7
100
AcDbEntity
8
CUTOUTS
100
AcDbLine
10
-11.955871231321709
20
-54.519918700841316
30
0
11
-26.021633729873912
21
-51.530148586881523
31
0
0
SPLINE
5
1C8
100
AcDbEntity
8
CUTOUTS
100
AcDbSpline
70
0
71
3
72
8
73
4
74
0
42
0.000000001
43
0.0000000001
44
0.0000000001
40
-1
40
-1
40
-1
40
-1
40
0
40
0
40
0
40
0
10
-26.021633729873912
20
-51.530148586881523
30
0
10
-26.561849732843008
20
-51.415322130731241
30
0
10
-26.906696095940106
20
-50.884305298299175
30
0
10
-26.7918696397901
20
-50.344089295329866
30
0
0
LINE
5
1C9
100
AcDbEntity
8
CUTOUTS
100
AcDbLine
10
-26.791869639790136
20
-50.344089295329866
30
0
11
-24.296929349976786
21
-38.60631808652434
31
0
0
SPLINE
5
1CA
100
AcDbEntity
8
CUTOUTS
100
AcDbSpline
70
0
71
3
72
8
73
4
74
0
42
0.000000001
43
0.0000000001
44
0.0000000001
40
-1
40
-1
40
-1
40
-1
40
0
40
0
40
0
40
0
10
-24.296929349976786
20
-38.60631808652434
30
0
10
-24.18210289382646
20
-38.066102083555677
30
0
10
-23.651086061394047
20
-37.721255720457897
30
0
10
-23.110870058425093
20
-37.836082176608173
30
0
0
LINE
5
1CB
100
AcDbEntity
8
CUTOUTS
100
AcDbLine
10
43.09746885216871
20
-6.8864138311843615
30
0
11
31.359697643363091
21
-9.3813541209980311
31
0
0
SPLINE
5
1CC
100
AcDbEntity
8
CUTOUTS
100
AcDbSpline
70
0
71
3
72
8
73
4
74
0
42
0.000000001
43
0.0000000001
44
0.0000000001
40
-1
40
-1
40
-1
40
-1
40
0
40
0
40
0
40
0
10
31.359697643363091
20
-9.3813541209980311
30
0
10
30.819481640394493
20
-9.4961805771476637
30
0
10
30.28846480796183
20
-9.1513342140505483
30
0
10
30.173638351811505
20
-8.6111182110818696
30
0
0
LINE
5
1CD
100
AcDbEntity
8
CUTOUTS
100
AcDbLine
10
30.173638351811505
20
-8.6111182110818696
30
0
11
27.678698061998546
21
3.1266529977239976
31
0
0
SPLINE
5
1CE
100
AcDbEntity
8
CUTOUTS
100
AcDbSpline
70
0
71
3
72
8
73
4
74
0
42
0.000000001
43
0.0000000001
44
0.0000000001
40
-1
40
-1
40
-1
40
-1
40
0
40
0
40
0
40
0
10
27.678698061998546
20
3.1266529977239976
30
0
10
27.56387160584822
20
3.6668690006926319
30
0
10
27.908717968945957
20
4.1978858331253388
30
0
10
28.448933971914663
20
4.3127122892756375
30
0
0
LINE
5
1CF
100
AcDbEntity
8
CUTOUTS
100
AcDbLine
10
28.448933971914663
20
4.3127122892756375
30
0
11
40.186705180720246
21
6.8076525790886411
31
0
0
SPLINE
5
1D0
100
AcDbEntity
8
CUTOUTS
100
AcDbSpline
70
0
71
3
72
8
73
4
74
0
42
0.000000001
43
0.0000000001
44
0.0000000001
40
-1
40
-1
40
-1
40
-1
40
0
40
0
40
0
40
0
10
40.186705180720246
20
6.8076525790886411
30
0
10
40.72692118368952
20
6.9224790352389221
30
0
10
41.257938016121471
20
6.577632672141478
30
0
10
41.372764472271797
20
6.0374166691724884
30
0
0
LINE
5
1D1
100
AcDbEntity
8
CUTOUTS
100
AcDbLine
10
41.372764472271797
20
6.0374166691724884
30
0
11
43.867704762084792
21
-5.700354539633361
31
0
0
SPLINE
5
1D2
100
AcDbEntity
8
CUTOUTS
100
AcDbSpline
70
0
71
3
72
8
73
4
74
0
42
0.000000001
43
0.0000000001
44
0.0000000001
40
-1
40
-1
40
-1
40
-1
40
0
40
0
40
0
40
0
10
43.867704762084792
20
-5.700354539633361
30
0
10
43.982531218235117
20
-6.2405705426020219
30
0
10
43.637684855138019
20
-6.7715873750347289
30
0
10
43.09746885216871
20
-6.8864138311843615
30
0
0
LINE
5
1D3
100
AcDbEntity
8
CUTOUTS
100
AcDbLine
10
24.463757058190296
20
-10.847131541262804
30
0
11
12.725985849384074
21
-13.342071831075808
31
0
0
SPLINE
5
1D4
100
AcDbEntity
8
CUTOUTS
100
AcDbSpline
70
0
71
3
72
8
73
4
74
0
42
0.000000001
43
0.0000000001
44
0.0000000001
40
-1
40
-1
40
-1
40
-1
40
0
40
0
40
0
40
0
10
12.725985849384074
20
-13.342071831075808
30
0
10
12.185769846415511
20
-13.45689828722608
30
0
10
11.654753013982706
20
-13.112051924128965
30
0
10
11.539926557832523
20
-12.571835921160295
30
0
0
LINE
5
1D5
100
AcDbEntity
8
CUTOUTS
100
AcDbLine
10
11.539926557832523
20
-12.571835921160295
30
0
11
9.0449862680194215
21
-0.83406471235410784
31
0
0
SPLINE
5
1D6
100
AcDbEntity
8
CUTOUTS
100
AcDbSpline
70
0
71
3
72
8
73
4
74
0
42
0.000000001
43
0.0000000001
44
0.0000000001
40
-1
40
-1
40
-1
40
-1
40
0
40
0
40
0
40
0
10
9.0449862680194215
20
-0.83406471235410784
30
0
10
8.9301598118692027
20
-0.29384870938543806
30
0
10
9.2750061749669044
20
0.23716812304724222
30
0
10
9.8152221779356807
20
0.35199457919721233
30
0
0
LINE
5
1D7
100
AcDbEntity
8
CUTOUTS
100
AcDbLine
10
9.8152221779356807
20
0.35199457919721233
30
0
11
21.552993386741122
21
2.8469348690102159
31
0
0
SPLINE
5
1D8
100
AcDbEntity
8
CUTOUTS
100
AcDbSpline
70
0
71
3
72
8
73
4
74
0
42
0.000000001
43
0.0000000001
44
0.0000000001
40
-1
40
-1
40
-1
40
-1
40
0
40
0
40
0
40
0
10
21.552993386741122
20
2.8469348690102159
30
0
10
22.093209389710395
20
2.9617613251604791
30
0
10
22.624226222142596
20
2.6169149620630527
30
0
10
22.739052678292779
20
2.0766989590943918
30
0
0
LINE
5
1D9
100
AcDbEntity
8
CUTOUTS
100
AcDbLine
10
22.739052678292779
20
2.0766989590943918
30
0
11
25.233992968105809
21
-9.6610722497111468
31
0
0
SPLINE
5
1DA
100
AcDbEntity
8
CUTOUTS
100
AcDbSpline
70
0
71
3
72
8
73
4
74
0
42
0.000000001
43
0.0000000001
44
0.0000000001
40
-1
40
-1
40
-1
40
-1
40
0
40
0
40
0
40
0
10
25.233992968105809
20
-9.6610722497111468
30
0
10
25.348819424256135
20
-10.201288252680447
30
0
10
25.003973061158931
20
-10.732305085112523
30
0
10
24.463757058190296
20
-10.847131541262804
30
0
0
SPLINE
5
1DB
100
AcDbEntity
8
CUTOUTS
100
AcDbSpline
70
0
71
3
72
8
73
4
74
0
42
0.000000001
43
0.0000000001
44
0.0000000001
40
-1
40
-1
40
-1
40
-1
40
0
40
0
40
0
40
0
10
76.904128768678319
20
-25.870912000754327
30
0
10
77.444344771647138
20
-25.756085544604694
30
0
10
77.975361604079865
20
-26.10093190770181
30
0
10
78.090188060229977
20
-26.64114791067049
30
0
0
LINE
5
1DC
100
AcDbEntity
8
CUTOUTS
100
AcDbLine
10
78.090188060229977
20
-26.64114791067049
30
0
11
80.585128350043078
21
-38.378919119476016
31
0
0
SPLINE
5
1DD
100
AcDbEntity
8
CUTOUTS
100
AcDbSpline
70
0
71
3
72
8
73
4
74
0
42
0.000000001
43
0.0000000001
44
0.0000000001
40
-1
40
-1
40
-1
40
-1
40
0
40
0
40
0
40
0
10
80.585128350043078
20
-38.378919119476016
30
0
10
80.699954806193404
20
-38.919135122445319
30
0
10
80.35510844309556
20
-39.450151954877384
30
0
10
79.814892440126926
20
-39.564978411027667
30
0
0
LINE
5
1DE
100
AcDbEntity
8
CUTOUTS
100
AcDbLine
10
79.814892440126926
20
-39.564978411027674
30
0
11
68.077121231321414
21
-42.059918700841308
31
0
0
SPLINE
5
1DF
100
AcDbEntity
8
CUTOUTS
100
AcDbSpline
70
0
71
3
72
8
73
4
74
0
42
0.000000001
43
0.0000000001
44
0.0000000001
40
-1
40
-1
40
-1
40
-1
40
0
40
0
40
0
40
0
10
68.077121231321414
20
-42.059918700841308
30
0
10
67.536905228352708
20
-42.174745156991591
30
0
10
67.005888395920124
20
-41.829898793893832
30
0
10
66.891061939769827
20
-41.289682790925177
30
0
0
LINE
5
1E0
100
AcDbEntity
8
CUTOUTS
100
AcDbLine
10
66.891061939769827
20
-41.289682790925177
30
0
11
64.396121649956726
21
-29.551911582119644
31
0
0
SPLINE
5
1E1
100
AcDbEntity
8
CUTOUTS
100
AcDbSpline
70
0
71
3
72
8
73
4
74
0
42
0.000000001
43
0.0000000001
44
0.0000000001
40
-1
40
-1
40
-1
40
-1
40
0
40
0
40
0
40
0
10
64.396121649956726
20
-29.551911582119644
30
0
10
64.281295193806443
20
-29.011695579150327
30
0
10
64.626141556903491
20
-28.480678746718262
30
0
10
65.16635755987221
20
-28.365852290567979
30
0
0
LINE
5
1E2
100
AcDbEntity
8
CUTOUTS
100
AcDbLine
10
65.16635755987221
20
-28.365852290567975
30
0
11
76.904128768678319
21
-25.870912000754327
31
0
0
LINE
5
1E3
100
AcDbEntity
8
CUTOUTS
100
AcDbLine
10
129.10262499999718
20
15.634584947433874
30
0
11
134.10262499999419
21
15.634584947433874
31
0
0
SPLINE
5
1E4
100
AcDbEntity
8
CUTOUTS
100
AcDbSpline
70
0
71
3
72
8
73
4
74
0
42
0.000000001
43
0.0000000001
44
0.0000000001
40
-1
40
-1
40
-1
40
-1
40
0
40
0
40
0
40
0
10
134.10262499999419
20
15.634584947433874
30
0
10
134.65490974982464
20
15.634584947433536
30
0
10
135.10262499999357
20
15.18686969726482
30
0
10
135.10262499999419
20
14.634584947434162
30
0
0
LINE
5
1E5
100
AcDbEntity
8
CUTOUTS
100
AcDbLine
10
135.10262499999428
20
14.634584947434162
30
0
11
135.10262499999357
21
1.6345849474340213
31
0
0
SPLINE
5
1E6
100
AcDbEntity
8
CUTOUTS
100
AcDbSpline
70
0
71
3
72
8
73
4
74
0
42
0.000000001
43
0.0000000001
44
0.0000000001
40
-1
40
-1
40
-1
40
-1
40
0
40
0
40
0
40
0
10
135.10262499999357
20
1.6345849474340213
30
0
10
135.10262499999357
20
1.0823001976027502
30
0
10
134.65490974982464
20
0.63458494743335869
30
0
10
134.102624999993
20
0.63458494743335869
30
0
0
LINE
5
1E7
100
AcDbEntity
8
CUTOUTS
100
AcDbLine
10
134.102624999993
20
0.63458494743335869
30
0
11
129.10262499999612
21
0.63458494743335869
31
0
0
SPLINE
5
1E8
100
AcDbEntity
8
CUTOUTS
100
AcDbSpline
70
0
71
3
72
8
73
4
74
0
42
0.000000001
43
0.0000000001
44
0.0000000001
40
-1
40
-1
40
-1
40
-1
40
0
40
0
40
0
40
0
10
129.10262499999612
20
0.63458494743335869
30
0
10
128.55034025016508
20
0.63458494743335869
30
0
10
128.1026249999959
20
1.0823001976030788
30
0
10
128.1026249999959
20
1.6345849474340213
30
0
0
LINE
5
1E9
100
AcDbEntity
8
CUTOUTS
100
AcDbLine
10
128.10262499999581
20
1.6345849474340213
30
0
11
128.1026249999959
21
14.63458494743386
31
0
0
SPLINE
5
1EA
100
AcDbEntity
8
CUTOUTS
100
AcDbSpline
70
0
71
3
72
8
73
4
74
0
42
0.000000001
43
0.0000000001
44
0.0000000001
40
-1
40
-1
40
-1
40
-1
40
0
40
0
40
0
40
0
10
128.1026249999959
20
14.63458494743386
30
0
10
128.10262499999723
20
15.1868696972645
30
0
10
128.55034025016636
20
15.634584947433234
30
0
10
129.10262499999718
20
15.634584947433874
30
0
0
SPLINE
5
1EB
100
AcDbEntity
8
CUTOUTS
100
AcDbSpline
70
0
71
3
72
8
73
4
74
0
42
0.000000001
43
0.0000000001
44
0.0000000001
40
-1
40
-1
40
-1
40
-1
40
0
40
0
40
0
40
0
10
-137.29737499999649
20
-20.415415649029693
30
0
10
-137.29737499999649
20
-20.967700398860664
30
0
10
-137.74509025016553
20
-21.415415649029743
30
0
10
-138.29737499999618
20
-21.415415649029743
30
0
0
LINE
5
1EC
100
AcDbEntity
8
CUTOUTS
100
AcDbLine
10
-138.29737499999618
20
-21.415415649029743
30
0
11
-143.29737499999536
21
-21.415415649029743
31
0
0
SPLINE
5
1ED
100
AcDbEntity
8
CUTOUTS
100
AcDbSpline
70
0
71
3
72
8
73
4
74
0
42
0.000000001
43
0.0000000001
44
0.0000000001
40
-1
40
-1
40
-1
40
-1
40
0
40
0
40
0
40
0
10
-143.29737499999536
20
-21.415415649029743
30
0
10
-143.84965974982603
20
-21.415415649029743
30
0
10
-144.29737499999544
20
-20.967700398860664
30
0
10
-144.29737499999544
20
-20.415415649029693
30
0
0
LINE
5
1EE
100
AcDbEntity
8
CUTOUTS
100
AcDbLine
10
-144.29737499999544
20
-20.415415649029693
30
0
11
-144.29737499999544
21
-7.4154156490298817
31
0
0
SPLINE
5
1EF
100
AcDbEntity
8
CUTOUTS
100
AcDbSpline
70
0
71
3
72
8
73
4
74
0
42
0.000000001
43
0.0000000001
44
0.0000000001
40
-1
40
-1
40
-1
40
-1
40
0
40
0
40
0
40
0
10
-144.29737499999544
20
-7.4154156490298817
30
0
10
-144.29737499999544
20
-6.8631308991989215
30
0
10
-143.84965974982632
20
-6.4154156490298497
30
0
10
-143.2973749999957
20
-6.4154156490298497
30
0
0
LINE
5
1F0
100
AcDbEntity
8
CUTOUTS
100
AcDbLine
10
-143.2973749999957
20
-6.4154156490298497
30
0
11
-138.29737499999584
21
-6.4154156490298497
31
0
0
SPLINE
5
1F1
100
AcDbEntity
8
CUTOUTS
100
AcDbSpline
70
0
71
3
72
8
73
4
74
0
42
0.000000001
43
0.0000000001
44
0.0000000001
40
-1
40
-1
40
-1
40
-1
40
0
40
0
40
0
40
0
10
-138.29737499999584
20
-6.4154156490298497
30
0
10
-137.74509025016525
20
-6.4154156490298497
30
0
10
-137.29737499999649
20
-6.8631308991989215
30
0
10
-137.29737499999649
20
-7.4154156490298817
30
0
0
LINE
5
1F2
100
AcDbEntity
8
CUTOUTS
100
AcDbLine
10
-137.29737499999649
20
-7.4154156490298817
30
0
11
-137.29737499999649
21
-20.415415649029693
31
0
0
LINE
5
1F3
100
AcDbEntity
8
CUTOUTS
100
AcDbLine
10
-149.54937500000005
20
20.824584649202158
30
0
11
-161.5493750000002
21
20.824584649202158
31
0
0
SPLINE
5
1F4
100
AcDbEntity
8
CUTOUTS
100
AcDbSpline
70
0
71
3
72
8
73
4
74
0
42
0.000000001
43
0.0000000001
44
0.0000000001
40
-1
40
-1
40
-1
40
-1
40
0
40
0
40
0
40
0
10
-161.5493750000002
20
20.824584649202158
30
0
10
-162.10165974983113
20
20.824584649202158
30
0
10
-162.54937500000023
20
21.272299899371234
30
0
10
-162.54937500000023
20
21.824584649202194
30
0
0
LINE
5
1F5
100
AcDbEntity
8
CUTOUTS
100
AcDbLine
10
-162.54937500000023
20
21.824584649202194
30
0
11
-162.54937500000023
21
33.824584649201988
31
0
0
SPLINE
5
1F6
100
AcDbEntity
8
CUTOUTS
100
AcDbSpline
70
0
71
3
72
8
73
4
74
0
42
0.000000001
43
0.0000000001
44
0.0000000001
40
-1
40
-1
40
-1
40
-1
40
0
40
0
40
0
40
0
10
-162.54937500000023
20
33.824584649201988
30
0
10
-162.54937500000023
20
34.376869399032913
30
0
10
-162.10165974983082
20
34.824584649202023
30
0
10
-161.5493750000002
20
34.824584649202023
30
0
0
LINE
5
1F7
100
AcDbEntity
8
CUTOUTS
100
AcDbLine
10
-161.5493750000002
20
34.824584649202023
30
0
11
-149.54937500000005
21
34.824584649202023
31
0
0
SPLINE
5
1F8
100
AcDbEntity
8
CUTOUTS
100
AcDbSpline
70
0
71
3
72
8
73
4
74
0
42
0.000000001
43
0.0000000001
44
0.0000000001
40
-1
40
-1
40
-1
40
-1
40
0
40
0
40
0
40
0
10
-149.54937500000005
20
34.824584649202023
30
0
10
-148.99709025016944
20
34.824584649202023
30
0
10
-148.54937500000005
20
34.376869399032913
30
0
10
-148.54937500000005
20
33.824584649201988
30
0
0
LINE
5
1F9
100
AcDbEntity
8
CUTOUTS
100
AcDbLine
10
-148.54937500000005
20
33.824584649201988
30
0
11
-148.54937500000005
21
21.824584649202194
31
0
0
SPLINE
5
1FA
100
AcDbEntity
8
CUTOUTS
100
AcDbSpline
70
0
71
3
72
8
73
4
74
0
42
0.000000001
43
0.0000000001
44
0.0000000001
40
-1
40
-1
40
-1
40
-1
40
0
40
0
40
0
40
0
10
-148.54937500000005
20
21.824584649202194
30
0
10
-148.54937500000005
20
21.272299899371234
30
0
10
-148.99709025016944
20
20.824584649202158
30
0
10
-149.54937500000005
20
20.824584649202158
30
0
0
LINE
5
1FB
100
AcDbEntity
8
CUTOUTS
100
AcDbLine
10
109.55062499999983
20
18.684584649201945
30
0
11
97.550625000000011
21
18.684584649201945
31
0
0
SPLINE
5
1FC
100
AcDbEntity
8
CUTOUTS
100
AcDbSpline
70
0
71
3
72
8
73
4
74
0
42
0.000000001
43
0.0000000001
44
0.0000000001
40
-1
40
-1
40
-1
40
-1
40
0
40
0
40
0
40
0
10
97.550625000000011
20
18.684584649201945
30
0
10
96.998340250169122
20
18.684584649201945
30
0
10
96.550624999999883
20
19.132299899371354
30
0
10
96.550624999999883
20
19.684584649201994
30
0
0
LINE
5
1FD
100
AcDbEntity
8
CUTOUTS
100
AcDbLine
10
96.550624999999883
20
19.684584649201994
30
0
11
96.550624999999883
21
31.684584649202094
31
0
0
SPLINE
5
1FE
100
AcDbEntity
8
CUTOUTS
100
AcDbSpline
70
0
71
3
72
8
73
4
74
0
42
0.000000001
43
0.0000000001
44
0.0000000001
40
-1
40
-1
40
-1
40
-1
40
0
40
0
40
0
40
0
10
96.550624999999883
20
31.684584649202094
30
0
10
96.550624999999883
20
32.236869399033068
30
0
10
96.998340250169122
20
32.684584649202108
30
0
10
97.550625000000011
20
32.684584649202108
30
0
0
LINE
5
1FF
100
AcDbEntity
8
CUTOUTS
100
AcDbLine
10
97.550625000000011
20
32.684584649202108
30
0
11
109.55062499999983
21
32.684584649202108
31
0
0
SPLINE
5
200
100
AcDbEntity
8
CUTOUTS
100
AcDbSpline
70
0
71
3
72
8
73
4
74
0
42
0.000000001
43
0.0000000001
44
0.0000000001
40
-1
40
-1
40
-1
40
-1
40
0
40
0
40
0
40
0
10
109.55062499999983
20
32.684584649202108
30
0
10
110.10290974983067
20
32.684584649202108
30
0
10
110.55062499999984
20
32.236869399033068
30
0
10
110.55062499999984
20
31.684584649202094
30
0
0
LINE
5
201
100
AcDbEntity
8
CUTOUTS
100
AcDbLine
10
110.55062499999991
20
31.684584649202094
30
0
11
110.55062499999984
21
19.684584649202257
31
0
0
SPLINE
5
202
100
AcDbEntity
8
CUTOUTS
100
AcDbSpline
70
0
71
3
72
8
73
4
74
0
42
0.000000001
43
0.0000000001
44
0.0000000001
40
-1
40
-1
40
-1
40
-1
40
0
40
0
40
0
40
0
10
110.55062499999984
20
19.684584649202257
30
0
10
110.55062499999984
20
19.132299899371354
30
0
10
110.10290974983067
20
18.684584649201945
30
0
10
109.55062499999983
20
18.684584649201945
30
0
0
SPLINE
5
203
100
AcDbEntity
8
CUTOUTS
100
AcDbSpline
70
0
71
3
72
8
73
4
74
0
42
0.000000001
43
0.0000000001
44
0.0000000001
40
-1
40
-1
40
-1
40
-1
40
0
40
0
40
0
40
0
10
35.247704762085093
20
11.949645460366787
30
0
10
35.362531218235418
20
11.409429457398117
30
0
10
35.017684855137645
20
10.878412624965703
30
0
10
34.477468852169011
20
10.763586168815422
30
0
0
LINE
5
204
100
AcDbEntity
8
CUTOUTS
100
AcDbLine
10
34.477468852169011
20
10.763586168815422
30
0
11
22.739697643363428
21
8.2686458790021256
31
0
0
SPLINE
5
205
100
AcDbEntity
8
CUTOUTS
100
AcDbSpline
70
0
71
3
72
8
73
4
74
0
42
0.000000001
43
0.0000000001
44
0.0000000001
40
-1
40
-1
40
-1
40
-1
40
0
40
0
40
0
40
0
10
22.739697643363428
20
8.2686458790021256
30
0
10
22.199481640394794
20
8.1538194228521554
30
0
10
21.668464807962025
20
8.4986657859492887
30
0
10
21.553638351811806
20
9.0388817889182782
30
0
0
LINE
5
206
100
AcDbEntity
8
CUTOUTS
100
AcDbLine
10
21.553638351811806
20
9.0388817889182782
30
0
11
19.058698061998811
21
20.776652997723779
31
0
0
SPLINE
5
207
100
AcDbEntity
8
CUTOUTS
100
AcDbSpline
70
0
71
3
72
8
73
4
74
0
42
0.000000001
43
0.0000000001
44
0.0000000001
40
-1
40
-1
40
-1
40
-1
40
0
40
0
40
0
40
0
10
19.058698061998811
20
20.776652997723779
30
0
10
18.943871605848521
20
21.316869000692769
30
0
10
19.28871796894569
20
21.847885833125204
30
0
10
19.828933971914893
20
21.962712289275437
30
0
0
LINE
5
208
100
AcDbEntity
8
CUTOUTS
100
AcDbLine
10
19.828933971914893
20
21.962712289275437
30
0
11
31.566705180720369
21
24.457652579088467
31
0
0
SPLINE
5
209
100
AcDbEntity
8
CUTOUTS
100
AcDbSpline
70
0
71
3
72
8
73
4
74
0
42
0.000000001
43
0.0000000001
44
0.0000000001
40
-1
40
-1
40
-1
40
-1
40
0
40
0
40
0
40
0
10
31.566705180720369
20
24.457652579088467
30
0
10
32.10692118368911
20
24.572479035238743
30
0
10
32.637938016121844
20
24.227632672141304
30
0
10
32.752764472272098
20
23.68741666917262
30
0
0
LINE
5
20A
100
AcDbEntity
8
CUTOUTS
100
AcDbLine
10
32.752764472272098
20
23.687416669172599
30
0
11
35.247704762085093
21
11.949645460366787
31
0
0
SPLINE
5
20B
100
AcDbEntity
8
CUTOUTS
100
AcDbSpline
70
0
71
3
72
8
73
4
74
0
42
0.000000001
43
0.0000000001
44
0.0000000001
40
-1
40
-1
40
-1
40
-1
40
0
40
0
40
0
40
0
10
20.977662664903107
20
-34.184357190417899
30
0
10
21.517878667871848
20
-34.069530734268277
30
0
10
22.048895500303942
20
-34.414377097365389
30
0
10
22.163721956454197
20
-34.954593100334051
30
0
0
LINE
5
20C
100
AcDbEntity
8
CUTOUTS
100
AcDbLine
10
22.163721956454197
20
-34.954593100334051
30
0
11
24.866573937084624
21
-47.670511909873809
31
0
0
SPLINE
5
20D
100
AcDbEntity
8
CUTOUTS
100
AcDbSpline
70
0
71
3
72
8
73
4
74
0
42
0.000000001
43
0.0000000001
44
0.0000000001
40
-1
40
-1
40
-1
40
-1
40
0
40
0
40
0
40
0
10
24.866573937084624
20
-47.670511909873809
30
0
10
24.981400393234914
20
-48.210727912843112
30
0
10
24.636554030137745
20
-48.741744745275824
30
0
10
24.096338027168542
20
-48.8565712014261
30
0
0
LINE
5
20E
100
AcDbEntity
8
CUTOUTS
100
AcDbLine
10
24.096338027168542
20
-48.8565712014261
30
0
11
19.205600023502534
21
-49.896129655513903
31
0
0
SPLINE
5
20F
100
AcDbEntity
8
CUTOUTS
100
AcDbSpline
70
0
71
3
72
8
73
4
74
0
42
0.000000001
43
0.0000000001
44
0.0000000001
40
-1
40
-1
40
-1
40
-1
40
0
40
0
40
0
40
0
10
19.205600023502534
20
-49.896129655513903
30
0
10
18.665384020533189
20
-50.010956111664171
30
0
10
18.134367188100526
20
-49.666109748566413
30
0
10
18.019540731950769
20
-49.125893745597736
30
0
0
LINE
5
210
100
AcDbEntity
8
CUTOUTS
100
AcDbLine
10
18.019540731950769
20
-49.125893745597736
30
0
11
15.316688751319134
21
-36.409974936057992
31
0
0
SPLINE
5
211
100
AcDbEntity
8
CUTOUTS
100
AcDbSpline
70
0
71
3
72
8
73
4
74
0
42
0.000000001
43
0.0000000001
44
0.0000000001
40
-1
40
-1
40
-1
40
-1
40
0
40
0
40
0
40
0
10
15.316688751319134
20
-36.409974936057992
30
0
10
15.201862295170727
20
-35.86975893308869
30
0
10
15.546708658267931
20
-35.338742100657264
30
0
10
16.08692466123653
20
-35.223915644506341
30
0
0
LINE
5
212
100
AcDbEntity
8
CUTOUTS
100
AcDbLine
10
16.08692466123653
20
-35.223915644506334
30
0
11
20.977662664903107
21
-34.184357190417899
31
0
0
SPLINE
5
213
100
AcDbEntity
8
CUTOUTS
100
AcDbSpline
70
0
71
3
72
8
73
4
74
0
42
0.000000001
43
0.0000000001
44
0.0000000001
40
-1
40
-1
40
-1
40
-1
40
0
40
0
40
0
40
0
10
165.61937499999976
20
-5.4154153507976233
30
0
10
166.17165974983081
20
-5.4154153507976233
30
0
10
166.61937499999999
20
-5.8631306009673345
30
0
10
166.61937499999999
20
-6.4154153507976552
30
0
0
LINE
5
214
100
AcDbEntity
8
CUTOUTS
100
AcDbLine
10
166.61937500000008
20
-6.4154153507976552
30
0
11
166.61937499999999
21
-18.415415350798085
31
0
0
SPLINE
5
215
100
AcDbEntity
8
CUTOUTS
100
AcDbSpline
70
0
71
3
72
8
73
4
74
0
42
0.000000001
43
0.0000000001
44
0.0000000001
40
-1
40
-1
40
-1
40
-1
40
0
40
0
40
0
40
0
10
166.61937499999999
20
-18.415415350798085
30
0
10
166.61937499999999
20
-18.967700100628413
30
0
10
166.17165974983081
20
-19.415415350798114
30
0
10
165.61937499999976
20
-19.415415350798114
30
0
0
LINE
5
216
100
AcDbEntity
8
CUTOUTS
100
AcDbLine
10
165.61937499999976
20
-19.415415350798114
30
0
11
158.38862500000403
21
-19.415415350798114
31
0
0
LINE
5
217
100
AcDbEntity
8
CUTOUTS
100
AcDbLine
10
158.38862500000403
20
-19.415415350798114
30
0
11
158.38862500000403
21
-20.415415649029693
31
0
0
SPLINE
5
218
100
AcDbEntity
8
CUTOUTS
100
AcDbSpline
70
0
71
3
72
8
73
4
74
0
42
0.000000001
43
0.0000000001
44
0.0000000001
40
-1
40
-1
40
-1
40
-1
40
0
40
0
40
0
40
0
10
158.38862500000403
20
-20.415415649029693
30
0
10
158.38862500000266
20
-20.967700398860664
30
0
10
157.94090974983385
20
-21.415415649029086
30
0
10
157.38862500000272
20
-21.415415649029743
30
0
0
LINE
5
219
100
AcDbEntity
8
CUTOUTS
100
AcDbLine
10
157.38862500000272
20
-21.415415649029743
30
0
11
152.38862500000585
21
-21.415415649029743
31
0
0
SPLINE
5
21A
100
AcDbEntity
8
CUTOUTS
100
AcDbSpline
70
0
71
3
72
8
73
4
74
0
42
0.000000001
43
0.0000000001
44
0.0000000001
40
-1
40
-1
40
-1
40
-1
40
0
40
0
40
0
40
0
10
152.38862500000585
20
-21.415415649029743
30
0
10
151.83634025017477
20
-21.415415649029743
30
0
10
151.38862500000641
20
-20.967700398860664
30
0
10
151.38862500000562
20
-20.415415649030333
30
0
0
LINE
5
21B
100
AcDbEntity
8
CUTOUTS
100
AcDbLine
10
151.38862500000556
20
-20.415415649030333
30
0
11
151.38862500000562
21
-7.4154156490292422
31
0
0
SPLINE
5
21C
100
AcDbEntity
8
CUTOUTS
100
AcDbSpline
70
0
71
3
72
8
73
4
74
0
42
0.000000001
43
0.0000000001
44
0.0000000001
40
-1
40
-1
40
-1
40
-1
40
0
40
0
40
0
40
0
10
151.38862500000562
20
-7.4154156490292422
30
0
10
151.38862500000641
20
-6.8631308991982909
30
0
10
151.83634025017554
20
-6.4154156490292191
30
0
10
152.38862500000707
20
-6.4154156490292191
30
0
0
LINE
5
21D
100
AcDbEntity
8
CUTOUTS
100
AcDbLine
10
152.38862500000707
20
-6.4154156490292191
30
0
11
152.61937499999945
21
-6.4154153507982947
31
0
0
SPLINE
5
21E
100
AcDbEntity
8
CUTOUTS
100
AcDbSpline
70
0
71
3
72
8
73
4
74
0
42
0.000000001
43
0.0000000001
44
0.0000000001
40
-1
40
-1
40
-1
40
-1
40
0
40
0
40
0
40
0
10
152.61937499999945
20
-6.4154153507982947
30
0
10
152.61937499999945
20
-5.8631306009673345
30
0
10
153.0670902501692
20
-5.4154153507976233
30
0
10
153.61937500000016
20
-5.4154153507976233
30
0
0
LINE
5
21F
100
AcDbEntity
8
CUTOUTS
100
AcDbLine
10
153.61937500000016
20
-5.4154153507976233
30
0
11
165.61937499999976
21
-5.4154153507976233
31
0
0
SPLINE
5
220
100
AcDbEntity
8
CUTOUTS
100
AcDbSpline
70
0
71
3
72
8
73
4
74
0
42
0.000000001
43
0.0000000001
44
0.0000000001
40
-1
40
-1
40
-1
40
-1
40
0
40
0
40
0
40
0
10
-119.42137499999454
20
-21.415415649029743
30
0
10
-119.97365974982522
20
-21.415415649029743
30
0
10
-120.42137499999397
20
-20.967700398860664
30
0
10
-120.42137499999427
20
-20.415415649029693
30
0
0
LINE
5
221
100
AcDbEntity
8
CUTOUTS
100
AcDbLine
10
-120.42137499999427
20
-20.415415649029693
30
0
11
-120.42137499999397
21
-7.4154156490298817
31
0
0
SPLINE
5
222
100
AcDbEntity
8
CUTOUTS
100
AcDbSpline
70
0
71
3
72
8
73
4
74
0
42
0.000000001
43
0.0000000001
44
0.0000000001
40
-1
40
-1
40
-1
40
-1
40
0
40
0
40
0
40
0
10
-120.42137499999397
20
-7.4154156490298817
30
0
10
-120.42137499999397
20
-6.8631308991982909
30
0
10
-119.97365974982456
20
-6.4154156490292191
30
0
10
-119.4213749999936
20
-6.4154156490292191
30
0
0
LINE
5
223
100
AcDbEntity
8
CUTOUTS
100
AcDbLine
10
-119.4213749999936
20
-6.4154156490292191
30
0
11
-114.4213749999973
21
-6.4154156490292191
31
0
0
SPLINE
5
224
100
AcDbEntity
8
CUTOUTS
100
AcDbSpline
70
0
71
3
72
8
73
4
74
0
42
0.000000001
43
0.0000000001
44
0.0000000001
40
-1
40
-1
40
-1
40
-1
40
0
40
0
40
0
40
0
10
-114.4213749999973
20
-6.4154156490292191
30
0
10
-113.86909025016662
20
-6.4154156490292191
30
0
10
-113.42137499999723
20
-6.8631308991982909
30
0
10
-113.42137499999693
20
-7.4154156490286027
30
0
0
LINE
5
225
100
AcDbEntity
8
CUTOUTS
100
AcDbLine
10
-113.42137499999693
20
-7.4154156490286027
30
0
11
-113.42137499999693
21
-20.415415649029693
31
0
0
SPLINE
5
226
100
AcDbEntity
8
CUTOUTS
100
AcDbSpline
70
0
71
3
72
8
73
4
74
0
42
0.000000001
43
0.0000000001
44
0.0000000001
40
-1
40
-1
40
-1
40
-1
40
0
40
0
40
0
40
0
10
-113.42137499999693
20
-20.415415649029693
30
0
10
-113.42137499999693
20
-20.967700398860664
30
0
10
-113.86909025016634
20
-21.415415649029743
30
0
10
-114.4213749999973
20
-21.415415649029743
30
0
0
LINE
5
227
100
AcDbEntity
8
CUTOUTS
100
AcDbLine
10
-114.4213749999973
20
-21.415415649029743
30
0
11
-119.42137499999454
21
-21.415415649029743
31
0
0
LINE
5
228
100
AcDbEntity
8
CUTOUTS
100
AcDbLine
10
133.51262500000317
20
-21.415415649029743
30
0
11
128.51262500000431
21
-21.415415649029743
31
0
0
SPLINE
5
229
100
AcDbEntity
8
CUTOUTS
100
AcDbSpline
70
0
71
3
72
8
73
4
74
0
42
0.000000001
43
0.0000000001
44
0.0000000001
40
-1
40
-1
40
-1
40
-1
40
0
40
0
40
0
40
0
10
128.51262500000431
20
-21.415415649029743
30
0
10
127.96034025017342
20
-21.415415649029743
30
0
10
127.51262500000493
20
-20.967700398860664
30
0
10
127.51262500000422
20
-20.415415649030333
30
0
0
LINE
5
22A
100
AcDbEntity
8
CUTOUTS
100
AcDbLine
10
127.51262500000415
20
-20.415415649030333
30
0
11
127.51262500000493
21
-19.415415350798114
31
0
0
LINE
5
22B
100
AcDbEntity
8
CUTOUTS
100
AcDbLine
10
127.51262500000493
20
-19.415415350798114
30
0
11
127.42562500000005
21
-19.415415350798114
31
0
0
SPLINE
5
22C
100
AcDbEntity
8
CUTOUTS
100
AcDbSpline
70
0
71
3
72
8
73
4
74
0
42
0.000000001
43
0.0000000001
44
0.0000000001
40
-1
40
-1
40
-1
40
-1
40
0
40
0
40
0
40
0
10
127.42562500000005
20
-19.415415350798114
30
0
10
126.87334025016909
20
-19.415415350798114
30
0
10
126.42562500000004
20
-18.967700100629035
30
0
10
126.42562500000004
20
-18.415415350798085
30
0
0
LINE
5
22D
100
AcDbEntity
8
CUTOUTS
100
AcDbLine
10
126.42562499999997
20
-18.415415350798085
30
0
11
126.42562500000004
21
-6.4154153507976552
31
0
0
SPLINE
5
22E
100
AcDbEntity
8
CUTOUTS
100
AcDbSpline
70
0
71
3
72
8
73
4
74
0
42
0.000000001
43
0.0000000001
44
0.0000000001
40
-1
40
-1
40
-1
40
-1
40
0
40
0
40
0
40
0
10
126.42562500000004
20
-6.4154153507976552
30
0
10
126.42562500000004
20
-5.863130600966695
30
0
10
126.87334025016909
20
-5.4154153507976233
30
0
10
127.42562500000005
20
-5.4154153507976233
30
0
0
LINE
5
22F
100
AcDbEntity
8
CUTOUTS
100
AcDbLine
10
127.42562500000005
20
-5.4154153507976233
30
0
11
148.950625
21
-5.4154153507976233
31
0
0
SPLINE
5
230
100
AcDbEntity
8
CUTOUTS
100
AcDbSpline
70
0
71
3
72
8
73
4
74
0
42
0.000000001
43
0.0000000001
44
0.0000000001
40
-1
40
-1
40
-1
40
-1
40
0
40
0
40
0
40
0
10
148.950625
20
-5.4154153507976233
30
0
10
149.50290974983076
20
-5.4154153507976233
30
0
10
149.95062499999989
20
-5.8631306009673345
30
0
10
149.95062499999989
20
-6.4154153507976552
30
0
0
LINE
5
231
100
AcDbEntity
8
CUTOUTS
100
AcDbLine
10
149.95062499999995
20
-6.4154153507976552
30
0
11
149.95062499999989
21
-18.415415350798085
31
0
0
SPLINE
5
232
100
AcDbEntity
8
CUTOUTS
100
AcDbSpline
70
0
71
3
72
8
73
4
74
0
42
0.000000001
43
0.0000000001
44
0.0000000001
40
-1
40
-1
40
-1
40
-1
40
0
40
0
40
0
40
0
10
149.95062499999989
20
-18.415415350798085
30
0
10
149.95062499999989
20
-18.967700100629035
30
0
10
149.50290974983076
20
-19.415415350798114
30
0
10
148.950625
20
-19.415415350798114
30
0
0
LINE
5
233
100
AcDbEntity
8
CUTOUTS
100
AcDbLine
10
148.950625
20
-19.415415350798114
30
0
11
134.51262500000269
21
-19.415415350798114
31
0
0
LINE
5
234
100
AcDbEntity
8
CUTOUTS
100
AcDbLine
10
134.51262500000269
20
-19.415415350798114
30
0
11
134.51262500000269
21
-20.415415649031612
31
0
0
SPLINE
5
235
100
AcDbEntity
8
CUTOUTS
100
AcDbSpline
70
0
71
3
72
8
73
4
74
0
42
0.000000001
43
0.0000000001
44
0.0000000001
40
-1
40
-1
40
-1
40
-1
40
0
40
0
40
0
40
0
10
134.51262500000269
20
-20.415415649031612
30
0
10
134.51262500000269
20
-20.967700398861293
30
0
10
134.06490974983356
20
-21.415415649030383
30
0
10
133.51262500000317
20
-21.415415649029743
30
0
0
LINE
5
236
100
AcDbEntity
8
CUTOUTS
100
AcDbLine
10
-153.61937500000013
20
1.774584649201989
30
0
11
-165.61937500000025
21
1.774584649201989
31
0
0
SPLINE
5
237
100
AcDbEntity
8
CUTOUTS
100
AcDbSpline
70
0
71
3
72
8
73
4
74
0
42
0.000000001
43
0.0000000001
44
0.0000000001
40
-1
40
-1
40
-1
40
-1
40
0
40
0
40
0
40
0
10
-165.61937500000025
20
1.774584649201989
30
0
10
-166.17165974983089
20
1.774584649201989
30
0
10
-166.61937500000025
20
2.2222998993713805
30
0
10
-166.61937500000025
20
2.7745846492019854
30
0
0
LINE
5
238
100
AcDbEntity
8
CUTOUTS
100
AcDbLine
10
-166.61937500000025
20
2.7745846492019854
30
0
11
-166.61937500000025
21
14.774584649202103
31
0
0
SPLINE
5
239
100
AcDbEntity
8
CUTOUTS
100
AcDbSpline
70
0
71
3
72
8
73
4
74
0
42
0.000000001
43
0.0000000001
44
0.0000000001
40
-1
40
-1
40
-1
40
-1
40
0
40
0
40
0
40
0
10
-166.61937500000025
20
14.774584649202103
30
0
10
-166.61937500000025
20
15.326869399033027
30
0
10
-166.17165974983089
20
15.774584649202135
30
0
10
-165.61937500000025
20
15.774584649202135
30
0
0
LINE
5
23A
100
AcDbEntity
8
CUTOUTS
100
AcDbLine
10
-165.61937500000025
20
15.774584649202135
30
0
11
-153.61937500000013
21
15.774584649202135
31
0
0
SPLINE
5
23B
100
AcDbEntity
8
CUTOUTS
100
AcDbSpline
70
0
71
3
72
8
73
4
74
0
42
0.000000001
43
0.0000000001
44
0.0000000001
40
-1
40
-1
40
-1
40
-1
40
0
40
0
40
0
40
0
10
-153.61937500000013
20
15.774584649202135
30
0
10
-153.06709025016949
20
15.774584649202135
30
0
10
-152.6193750000001
20
15.326869399032743
30
0
10
-152.6193750000001
20
14.774584649202103
30
0
0
LINE
5
23C
100
AcDbEntity
8
CUTOUTS
100
AcDbLine
10
-152.6193750000001
20
14.774584649202103
30
0
11
-152.6193750000001
21
2.7745846492019854
31
0
0
SPLINE
5
23D
100
AcDbEntity
8
CUTOUTS
100
AcDbSpline
70
0
71
3
72
8
73
4
74
0
42
0.000000001
43
0.0000000001
44
0.0000000001
40
-1
40
-1
40
-1
40
-1
40
0
40
0
40
0
40
0
10
-152.6193750000001
20
2.7745846492019854
30
0
10
-152.6193750000001
20
2.2222998993713805
30
0
10
-153.06709025016949
20
1.7745846492022821
30
0
10
-153.61937500000013
20
1.774584649201989
30
0
0
LINE
5
23E
100
AcDbEntity
8
CUTOUTS
100
AcDbLine
10
-128.99937500000016
20
-25.465415350797844
30
0
11
-128.99937500000016
21
-37.465415350797635
31
0
0
SPLINE
5
23F
100
AcDbEntity
8
CUTOUTS
100
AcDbSpline
70
0
71
3
72
8
73
4
74
0
42
0.000000001
43
0.0000000001
44
0.0000000001
40
-1
40
-1
40
-1
40
-1
40
0
40
0
40
0
40
0
10
-128.99937500000016
20
-37.465415350797635
30
0
10
-128.99937500000016
20
-38.017700100628581
30
0
10
-129.44709025016923
20
-38.465415350797663
30
0
10
-129.99937500000019
20
-38.465415350797663
30
0
0
LINE
5
240
100
AcDbEntity
8
CUTOUTS
100
AcDbLine
10
-129.99937500000019
20
-38.465415350797663
30
0
11
-141.9993750000003
21
-38.465415350797663
31
0
0
SPLINE
5
241
100
AcDbEntity
8
CUTOUTS
100
AcDbSpline
70
0
71
3
72
8
73
4
74
0
42
0.000000001
43
0.0000000001
44
0.0000000001
40
-1
40
-1
40
-1
40
-1
40
0
40
0
40
0
40
0
10
-141.9993750000003
20
-38.465415350797663
30
0
10
-142.55165974983095
20
-38.465415350797663
30
0
10
-142.99937500000001
20
-38.017700100628581
30
0
10
-142.99937500000033
20
-37.465415350797635
30
0
0
LINE
5
242
100
AcDbEntity
8
CUTOUTS
100
AcDbLine
10
-142.99937500000033
20
-37.465415350797635
30
0
11
-142.99937500000033
21
-25.465415350797844
31
0
0
SPLINE
5
243
100
AcDbEntity
8
CUTOUTS
100
AcDbSpline
70
0
71
3
72
8
73
4
74
0
42
0.000000001
43
0.0000000001
44
0.0000000001
40
-1
40
-1
40
-1
40
-1
40
0
40
0
40
0
40
0
10
-142.99937500000033
20
-25.465415350797844
30
0
10
-142.99937500000033
20
-24.913130600966895
30
0
10
-142.55165974983095
20
-24.465415350797812
30
0
10
-141.9993750000003
20
-24.465415350797812
30
0
0
LINE
5
244
100
AcDbEntity
8
CUTOUTS
100
AcDbLine
10
-141.9993750000003
20
-24.465415350797812
30
0
11
-129.99937500000019
21
-24.465415350797812
31
0
0
SPLINE
5
245
100
AcDbEntity
8
CUTOUTS
100
AcDbSpline
70
0
71
3
72
8
73
4
74
0
42
0.000000001
43
0.0000000001
44
0.0000000001
40
-1
40
-1
40
-1
40
-1
40
0
40
0
40
0
40
0
10
-129.99937500000019
20
-24.465415350797812
30
0
10
-129.44709025016923
20
-24.465415350797812
30
0
10
-128.99937500000016
20
-24.913130600966895
30
0
10
-128.99937500000016
20
-25.465415350797844
30
0
0
SPLINE
5
246
100
AcDbEntity
8
CUTOUTS
100
AcDbSpline
70
0
71
3
72
8
73
4
74
0
42
0.000000001
43
0.0000000001
44
0.0000000001
40
-1
40
-1
40
-1
40
-1
40
0
40
0
40
0
40
0
10
-135.85937500000026
20
-6.4154153507976552
30
0
10
-135.85937500000026
20
-5.8631306009673345
30
0
10
-135.41165974983085
20
-5.4154153507976233
30
0
10
-134.8593750000002
20
-5.4154153507976233
30
0
0
LINE
5
247
100
AcDbEntity
8
CUTOUTS
100
AcDbLine
10
-134.8593750000002
20
-5.4154153507976233
30
0
11
-122.85937500000014
21
-5.4154153507976233
31
0
0
SPLINE
5
248
100
AcDbEntity
8
CUTOUTS
100
AcDbSpline
70
0
71
3
72
8
73
4
74
0
42
0.000000001
43
0.0000000001
44
0.0000000001
40
-1
40
-1
40
-1
40
-1
40
0
40
0
40
0
40
0
10
-122.85937500000016
20
-5.4154153507976233
30
0
10
-122.30709025016951
20
-5.4154153507976233
30
0
10
-121.8593750000001
20
-5.8631306009673345
30
0
10
-121.8593750000001
20
-6.4154153507976552
30
0
0
LINE
5
249
100
AcDbEntity
8
CUTOUTS
100
AcDbLine
10
-121.8593750000001
20
-6.4154153507976552
30
0
11
-121.8593750000001
21
-18.415415350798085
31
0
0
SPLINE
5
24A
100
AcDbEntity
8
CUTOUTS
100
AcDbSpline
70
0
71
3
72
8
73
4
74
0
42
0.000000001
43
0.0000000001
44
0.0000000001
40
-1
40
-1
40
-1
40
-1
40
0
40
0
40
0
40
0
10
-121.8593750000001
20
-18.415415350798085
30
0
10
-121.8593750000001
20
-18.967700100628413
30
0
10
-122.30709025016951
20
-19.415415350798114
30
0
10
-122.85937500000016
20
-19.415415350798114
30
0
0
LINE
5
24B
100
AcDbEntity
8
CUTOUTS
100
AcDbLine
10
-122.85937500000016
20
-19.415415350798114
30
0
11
-134.8593750000002
21
-19.415415350798114
31
0
0
SPLINE
5
24C
100
AcDbEntity
8
CUTOUTS
100
AcDbSpline
70
0
71
3
72
8
73
4
74
0
42
0.000000001
43
0.0000000001
44
0.0000000001
40
-1
40
-1
40
-1
40
-1
40
0
40
0
40
0
40
0
10
-134.8593750000002
20
-19.415415350798114
30
0
10
-135.41165974983085
20
-19.415415350798114
30
0
10
-135.85937500000026
20
-18.967700100629035
30
0
10
-135.85937500000026
20
-18.415415350798085
30
0
0
LINE
5
24D
100
AcDbEntity
8
CUTOUTS
100
AcDbLine
10
-135.85937500000026
20
-18.415415350798085
30
0
11
-135.85937500000026
21
-6.4154153507976552
31
0
0
SPLINE
5
24E
100
AcDbEntity
8
CUTOUTS
100
AcDbSpline
70
0
71
3
72
8
73
4
74
0
42
0.000000001
43
0.0000000001
44
0.0000000001
40
-1
40
-1
40
-1
40
-1
40
0
40
0
40
0
40
0
10
114.23062499999951
20
-18.415415350798085
30
0
10
114.23062499999951
20
-18.967700100629035
30
0
10
113.78290974983052
20
-19.415415350798114
30
0
10
113.23062500000013
20
-19.415415350798114
30
0
0
LINE
5
24F
100
AcDbEntity
8
CUTOUTS
100
AcDbLine
10
113.23062500000013
20
-19.415415350798114
30
0
11
101.23062499999975
21
-19.415415350798114
31
0
0
SPLINE
5
250
100
AcDbEntity
8
CUTOUTS
100
AcDbSpline
70
0
71
3
72
8
73
4
74
0
42
0.000000001
43
0.0000000001
44
0.0000000001
40
-1
40
-1
40
-1
40
-1
40
0
40
0
40
0
40
0
10
101.23062499999975
20
-19.415415350798114
30
0
10
100.67834025016947
20
-19.415415350798114
30
0
10
100.23062499999973
20
-18.967700100629035
30
0
10
100.23062499999973
20
-18.415415350798085
30
0
0
LINE
5
251
100
AcDbEntity
8
CUTOUTS
100
AcDbLine
10
100.23062499999973
20
-18.415415350798085
30
0
11
100.23062499999973
21
-6.4154153507976552
31
0
0
SPLINE
5
252
100
AcDbEntity
8
CUTOUTS
100
AcDbSpline
70
0
71
3
72
8
73
4
74
0
42
0.000000001
43
0.0000000001
44
0.0000000001
40
-1
40
-1
40
-1
40
-1
40
0
40
0
40
0
40
0
10
100.23062499999973
20
-6.4154153507976552
30
0
10
100.23062499999973
20
-5.8631306009673345
30
0
10
100.67834025016879
20
-5.4154153507976233
30
0
10
101.23062499999975
20
-5.4154153507976233
30
0
0
LINE
5
253
100
AcDbEntity
8
CUTOUTS
100
AcDbLine
10
101.23062499999975
20
-5.4154153507976233
30
0
11
113.23062500000013
21
-5.4154153507976233
31
0
0
SPLINE
5
254
100
AcDbEntity
8
CUTOUTS
100
AcDbSpline
70
0
71
3
72
8
73
4
74
0
42
0.000000001
43
0.0000000001
44
0.0000000001
40
-1
40
-1
40
-1
40
-1
40
0
40
0
40
0
40
0
10
113.23062500000013
20
-5.4154153507976233
30
0
10
113.78290974983052
20
-5.4154153507976233
30
0
10
114.23062499999951
20
-5.8631306009673345
30
0
10
114.23062499999951
20
-6.4154153507976552
30
0
0
LINE
5
255
100
AcDbEntity
8
CUTOUTS
100
AcDbLine
10
114.23062499999958
20
-6.4154153507976552
30
0
11
114.23062499999951
21
-18.415415350798085
31
0
0
SPLINE
5
256
100
AcDbEntity
8
CUTOUTS
100
AcDbSpline
70
0
71
3
72
8
73
4
74
0
42
0.000000001
43
0.0000000001
44
0.0000000001
40
-1
40
-1
40
-1
40
-1
40
0
40
0
40
0
40
0
10
105.59062499999993
20
12.634584649202196
30
0
10
105.59062499999993
20
13.186869399032863
30
0
10
106.0383402501688
20
13.634584649202237
30
0
10
106.5906249999999
20
13.634584649202237
30
0
0
LINE
5
257
100
AcDbEntity
8
CUTOUTS
100
AcDbLine
10
106.5906249999999
20
13.634584649202237
30
0
11
118.59062499999965
21
13.634584649202237
31
0
0
SPLINE
5
258
100
AcDbEntity
8
CUTOUTS
100
AcDbSpline
70
0
71
3
72
8
73
4
74
0
42
0.000000001
43
0.0000000001
44
0.0000000001
40
-1
40
-1
40
-1
40
-1
40
0
40
0
40
0
40
0
10
118.59062499999965
20
13.634584649202237
30
0
10
119.14290974983061
20
13.634584649202237
30
0
10
119.59062499999966
20
13.186869399032863
30
0
10
119.59062499999966
20
12.634584649202196
30
0
0
LINE
5
259
100
AcDbEntity
8
CUTOUTS
100
AcDbLine
10
119.59062499999973
20
12.634584649202196
30
0
11
119.59062499999966
21
0.63458464920212343
31
0
0
SPLINE
5
25A
100
AcDbEntity
8
CUTOUTS
100
AcDbSpline
70
0
71
3
72
8
73
4
74
0
42
0.000000001
43
0.0000000001
44
0.0000000001
40
-1
40
-1
40
-1
40
-1
40
0
40
0
40
0
40
0
10
119.59062499999966
20
0.63458464920212343
30
0
10
119.59062499999966
20
0.082299899371163221
30
0
10
119.14290974983061
20
-0.36541535079792631
30
0
10
118.59062499999965
20
-0.36541535079792631
30
0
0
LINE
5
25B
100
AcDbEntity
8
CUTOUTS
100
AcDbLine
10
118.59062499999965
20
-0.36541535079792631
30
0
11
106.5906249999999
21
-0.36541535079792631
31
0
0
SPLINE
5
25C
100
AcDbEntity
8
CUTOUTS
100
AcDbSpline
70
0
71
3
72
8
73
4
74
0
42
0.000000001
43
0.0000000001
44
0.0000000001
40
-1
40
-1
40
-1
40
-1
40
0
40
0
40
0
40
0
10
106.5906249999999
20
-0.36541535079792631
30
0
10
106.0383402501688
20
-0.36541535079792631
30
0
10
105.59062499999993
20
0.082299899371163221
30
0
10
105.59062499999993
20
0.63458464920212343
30
0
0
LINE
5
25D
100
AcDbEntity
8
CUTOUTS
100
AcDbLine
10
105.59062499999993
20
0.63458464920212343
30
0
11
105.59062499999993
21
12.634584649202196
31
0
0
SPLINE
5
25E
100
AcDbEntity
8
CUTOUTS
100
AcDbSpline
70
0
71
3
72
8
73
4
74
0
42
0.000000001
43
0.0000000001
44
0.0000000001
40
-1
40
-1
40
-1
40
-1
40
0
40
0
40
0
40
0
10
116.60062499999952
20
18.684584649201945
30
0
10
116.04834025016928
20
18.684584649201945
30
0
10
115.60062499999951
20
19.132299899371354
30
0
10
115.60062499999951
20
19.684584649201994
30
0
0
LINE
5
25F
100
AcDbEntity
8
CUTOUTS
100
AcDbLine
10
115.60062499999944
20
19.684584649201994
30
0
11
115.60062499999951
21
31.684584649202094
31
0
0
SPLINE
5
260
100
AcDbEntity
8
CUTOUTS
100
AcDbSpline
70
0
71
3
72
8
73
4
74
0
42
0.000000001
43
0.0000000001
44
0.0000000001
40
-1
40
-1
40
-1
40
-1
40
0
40
0
40
0
40
0
10
115.60062499999951
20
31.684584649202094
30
0
10
115.60062500000022
20
32.236869399033068
30
0
10
116.04834025016928
20
32.684584649202108
30
0
10
116.60062499999952
20
32.684584649202108
30
0
0
LINE
5
261
100
AcDbEntity
8
CUTOUTS
100
AcDbLine
10
116.60062499999952
20
32.684584649202108
30
0
11
128.60062499999998
21
32.684584649202108
31
0
0
SPLINE
5
262
100
AcDbEntity
8
CUTOUTS
100
AcDbSpline
70
0
71
3
72
8
73
4
74
0
42
0.000000001
43
0.0000000001
44
0.0000000001
40
-1
40
-1
40
-1
40
-1
40
0
40
0
40
0
40
0
10
128.60062499999998
20
32.684584649202108
30
0
10
129.15290974983037
20
32.684584649202108
30
0
10
129.60062500000006
20
32.236869399033068
30
0
10
129.60062500000006
20
31.684584649202094
30
0
0
LINE
5
263
100
AcDbEntity
8
CUTOUTS
100
AcDbLine
10
129.60062500000015
20
31.684584649202094
30
0
11
129.60062500000006
21
19.684584649202257
31
0
0
SPLINE
5
264
100
AcDbEntity
8
CUTOUTS
100
AcDbSpline
70
0
71
3
72
8
73
4
74
0
42
0.000000001
43
0.0000000001
44
0.0000000001
40
-1
40
-1
40
-1
40
-1
40
0
40
0
40
0
40
0
10
129.60062500000006
20
19.684584649202257
30
0
10
129.60062500000006
20
19.132299899371354
30
0
10
129.15290974983094
20
18.684584649202243
30
0
10
128.60062499999998
20
18.684584649201945
30
0
0
LINE
5
265
100
AcDbEntity
8
CUTOUTS
100
AcDbLine
10
128.60062499999998
20
18.684584649201945
30
0
11
116.60062499999952
21
18.684584649201945
31
0
0
SPLINE
5
266
100
AcDbEntity
8
CUTOUTS
100
AcDbSpline
70
0
71
3
72
8
73
4
74
0
42
0.000000001
43
0.0000000001
44
0.0000000001
40
-1
40
-1
40
-1
40
-1
40
0
40
0
40
0
40
0
10
157.17622500000004
20
-24.513415350797825
30
0
10
157.72850974983101
20
-24.513415350797825
30
0
10
158.17622499999999
20
-24.961130600966925
30
0
10
158.17622499999999
20
-25.513415350797874
30
0
0
LINE
5
267
100
AcDbEntity
8
CUTOUTS
100
AcDbLine
10
158.17622500000004
20
-25.513415350797874
30
0
11
158.17622499999999
21
-37.513415350797658
31
0
0
SPLINE
5
268
100
AcDbEntity
8
CUTOUTS
100
AcDbSpline
70
0
71
3
72
8
73
4
74
0
42
0.000000001
43
0.0000000001
44
0.0000000001
40
-1
40
-1
40
-1
40
-1
40
0
40
0
40
0
40
0
10
158.17622499999999
20
-37.513415350797658
30
0
10
158.17622499999999
20
-38.065700100628618
30
0
10
157.72850974983101
20
-38.513415350797693
30
0
10
157.17622500000004
20
-38.513415350797693
30
0
0
LINE
5
269
100
AcDbEntity
8
CUTOUTS
100
AcDbLine
10
157.17622500000004
20
-38.513415350797693
30
0
11
145.17622499999945
21
-38.513415350797693
31
0
0
SPLINE
5
26A
100
AcDbEntity
8
CUTOUTS
100
AcDbSpline
70
0
71
3
72
8
73
4
74
0
42
0.000000001
43
0.0000000001
44
0.0000000001
40
-1
40
-1
40
-1
40
-1
40
0
40
0
40
0
40
0
10
145.17622499999945
20
-38.513415350797693
30
0
10
144.62394025016934
20
-38.513415350797693
30
0
10
144.1762249999995
20
-38.065700100628618
30
0
10
144.1762249999995
20
-37.513415350797658
30
0
0
LINE
5
26B
100
AcDbEntity
8
CUTOUTS
100
AcDbLine
10
144.17622499999942
20
-37.513415350797658
30
0
11
144.1762249999995
21
-25.513415350797874
31
0
0
SPLINE
5
26C
100
AcDbEntity
8
CUTOUTS
100
AcDbSpline
70
0
71
3
72
8
73
4
74
0
42
0.000000001
43
0.0000000001
44
0.0000000001
40
-1
40
-1
40
-1
40
-1
40
0
40
0
40
0
40
0
10
144.1762249999995
20
-25.513415350797874
30
0
10
144.1762249999995
20
-24.961130600966925
30
0
10
144.62394025016934
20
-24.513415350797825
30
0
10
145.17622499999945
20
-24.513415350797825
30
0
0
LINE
5
26D
100
AcDbEntity
8
CUTOUTS
100
AcDbLine
10
145.17622499999945
20
-24.513415350797825
30
0
11
157.17622500000004
21
-24.513415350797825
31
0
0
LINE
5
26E
100
AcDbEntity
8
CUTOUTS
100
AcDbLine
10
-123.45687500000025
20
-0.36541535079791743
30
0
11
-140.2193750000003
21
-0.36541535079792631
31
0
0
SPLINE
5
26F
100
AcDbEntity
8
CUTOUTS
100
AcDbSpline
70
0
71
3
72
8
73
4
74
0
42
0.000000001
43
0.0000000001
44
0.0000000001
40
-1
40
-1
40
-1
40
-1
40
0
40
0
40
0
40
0
10
-140.2193750000003
20
-0.36541535079792631
30
0
10
-140.77165974983092
20
-0.36541535079792631
30
0
10
-141.21937500000001
20
0.082299899371163221
30
0
10
-141.21937500000033
20
0.63458464920212343
30
0
0
LINE
5
270
100
AcDbEntity
8
CUTOUTS
100
AcDbLine
10
-141.21937500000033
20
0.63458464920212343
30
0
11
-141.21937500000033
21
12.634584649202196
31
0
0
SPLINE
5
271
100
AcDbEntity
8
CUTOUTS
100
AcDbSpline
70
0
71
3
72
8
73
4
74
0
42
0.000000001
43
0.0000000001
44
0.0000000001
40
-1
40
-1
40
-1
40
-1
40
0
40
0
40
0
40
0
10
-141.21937500000033
20
12.634584649202196
30
0
10
-141.21937500000001
20
13.186869399032863
30
0
10
-140.77165974983092
20
13.634584649201926
30
0
10
-140.2193750000003
20
13.634584649202237
30
0
0
LINE
5
272
100
AcDbEntity
8
CUTOUTS
100
AcDbLine
10
-140.2193750000003
20
13.634584649202237
30
0
11
-123.45687500000025
21
13.634584649202148
31
0
0
ARC
5
273
100
AcDbEntity
8
CUTOUTS
100
AcDbCircle
10
-123.45687500000025
20
12.634584649202161
30
0
40
0.99999999999999645
210
-0
220
0
230
1
100
AcDbArc
50
0
51
90
0
LINE
5
274
100
AcDbEntity
8
CUTOUTS
100
AcDbLine
10
-122.45687500000025
20
12.634584649202152
30
0
11
-122.45687500000028
21
0.63458464920207014
31
0
0
ARC
5
275
100
AcDbEntity
8
CUTOUTS
100
AcDbCircle
10
-123.45687500000024
20
0.63458464920204349
30
0
40
0.99999999999996092
210
0
220
0
230
1
100
AcDbArc
50
-90.00000000000081
51
0
0
LINE
5
276
100
AcDbEntity
8
CUTOUTS
100
AcDbLine
10
87.540624999999608
20
13.634584649202237
30
0
11
99.540625000000034
21
13.634584649202237
31
0
0
SPLINE
5
277
100
AcDbEntity
8
CUTOUTS
100
AcDbSpline
70
0
71
3
72
8
73
4
74
0
42
0.000000001
43
0.0000000001
44
0.0000000001
40
-1
40
-1
40
-1
40
-1
40
0
40
0
40
0
40
0
10
99.540625000000034
20
13.634584649202237
30
0
10
100.09290974983102
20
13.634584649202237
30
0
10
100.54062500000015
20
13.186869399032863
30
0
10
100.54062500000015
20
12.634584649202196
30
0
0
LINE
5
278
100
AcDbEntity
8
CUTOUTS
100
AcDbLine
10
100.54062500000015
20
12.634584649202196
30
0
11
100.54062500000015
21
0.63458464920212343
31
0
0
SPLINE
5
279
100
AcDbEntity
8
CUTOUTS
100
AcDbSpline
70
0
71
3
72
8
73
4
74
0
42
0.000000001
43
0.0000000001
44
0.0000000001
40
-1
40
-1
40
-1
40
-1
40
0
40
0
40
0
40
0
10
100.54062500000015
20
0.63458464920212343
30
0
10
100.54062500000015
20
0.082299899371163221
30
0
10
100.09290974983102
20
-0.36541535079792631
30
0
10
99.540625000000034
20
-0.36541535079792631
30
0
0
LINE
5
27A
100
AcDbEntity
8
CUTOUTS
100
AcDbLine
10
99.540625000000034
20
-0.36541535079792631
30
0
11
87.540624999999608
21
-0.36541535079792631
31
0
0
SPLINE
5
27B
100
AcDbEntity
8
CUTOUTS
100
AcDbSpline
70
0
71
3
72
8
73
4
74
0
42
0.000000001
43
0.0000000001
44
0.0000000001
40
-1
40
-1
40
-1
40
-1
40
0
40
0
40
0
40
0
10
87.540624999999608
20
-0.36541535079792631
30
0
10
86.988340250169287
20
-0.36541535079792631
30
0
10
86.540624999999636
20
0.082299899371163221
30
0
10
86.540624999999636
20
0.63458464920212343
30
0
0
LINE
5
27C
100
AcDbEntity
8
CUTOUTS
100
AcDbLine
10
86.540624999999636
20
0.63458464920212343
30
0
11
86.540624999999636
21
12.634584649202196
31
0
0
SPLINE
5
27D
100
AcDbEntity
8
CUTOUTS
100
AcDbSpline
70
0
71
3
72
8
73
4
74
0
42
0.000000001
43
0.0000000001
44
0.0000000001
40
-1
40
-1
40
-1
40
-1
40
0
40
0
40
0
40
0
10
86.540624999999636
20
12.634584649202196
30
0
10
86.540624999999636
20
13.186869399032863
30
0
10
86.988340250169287
20
13.634584649202237
30
0
10
87.540624999999608
20
13.634584649202237
30
0
0
LINE
5
27E
100
AcDbEntity
8
CUTOUTS
100
AcDbLine
10
170.72614813259563
20
-44.865415350797861
30
0
11
172.0829212651912
21
-47.215415350797869
31
0
0
LINE
5
27F
100
AcDbEntity
8
CUTOUTS
100
AcDbLine
10
172.0829212651912
20
-47.215415350797869
30
0
11
170.72614813259563
21
-49.565415350797878
31
0
0
LINE
5
280
100
AcDbEntity
8
CUTOUTS
100
AcDbLine
10
170.72614813259563
20
-49.565415350797878
30
0
11
168.01260186740436
21
-49.565415350797899
31
0
0
LINE
5
281
100
AcDbEntity
8
CUTOUTS
100
AcDbLine
10
168.01260186740436
20
-49.565415350797899
30
0
11
166.65582873480872
21
-47.215415350797876
31
0
0
LINE
5
282
100
AcDbEntity
8
CUTOUTS
100
AcDbLine
10
166.65582873480872
20
-47.215415350797876
30
0
11
168.01260186740436
21
-44.865415350797861
31
0
0
LINE
5
283
100
AcDbEntity
8
CUTOUTS
100
AcDbLine
10
168.01260186740436
20
-44.865415350797861
30
0
11
170.72614813259563
21
-44.865415350797861
31
0
0
LINE
5
284
100
AcDbEntity
8
CUTOUTS
100
AcDbLine
10
47.563722979059015
20
-59.730053768725412
30
0
11
45.748006121248892
21
-57.713495903055012
31
0
0
LINE
5
285
100
AcDbEntity
8
CUTOUTS
100
AcDbLine
10
45.748006121248892
20
-57.713495903055012
30
0
11
46.586538032215614
21
-55.132760045276527
31
0
0
LINE
5
286
100
AcDbEntity
8
CUTOUTS
100
AcDbLine
10
46.586538032215614
20
-55.132760045276527
30
0
11
49.240786800992602
21
-54.568582053168427
31
0
0
LINE
5
287
100
AcDbEntity
8
CUTOUTS
100
AcDbLine
10
49.240786800992602
20
-54.568582053168441
30
0
11
51.056503658802797
21
-56.585139918838848
31
0
0
LINE
5
288
100
AcDbEntity
8
CUTOUTS
100
AcDbLine
10
51.056503658802797
20
-56.585139918838848
30
0
11
50.217971747835968
21
-59.165875776617334
31
0
0
LINE
5
289
100
AcDbEntity
8
CUTOUTS
100
AcDbLine
10
50.217971747835968
20
-59.165875776617327
30
0
11
47.563722979059015
21
-59.730053768725412
31
0
0
SPLINE
5
28A
100
AcDbEntity
8
CUTOUTS
100
AcDbSpline
70
0
71
3
72
8
73
4
74
0
42
0.000000001
43
0.0000000001
44
0.0000000001
40
-1
40
-1
40
-1
40
-1
40
0
40
0
40
0
40
0
10
-84.679375000000107
20
53.874584649202191
30
0
10
-84.127090250169502
20
53.874584649202191
30
0
10
-83.679375000000093
20
53.426869399032782
30
0
10
-83.679375000000093
20
52.874584649202198
30
0
0
LINE
5
28B
100
AcDbEntity
8
CUTOUTS
100
AcDbLine
10
-83.679375000000093
20
52.874584649202198
30
0
11
-83.679375000000093
21
40.874584649202063
31
0
0
SPLINE
5
28C
100
AcDbEntity
8
CUTOUTS
100
AcDbSpline
70
0
71
3
72
8
73
4
74
0
42
0.000000001
43
0.0000000001
44
0.0000000001
40
-1
40
-1
40
-1
40
-1
40
0
40
0
40
0
40
0
10
-83.679375000000093
20
40.874584649202063
30
0
10
-83.679375000000093
20
40.322299899371437
30
0
10
-84.127090250169502
20
39.874584649202049
30
0
10
-84.679375000000107
20
39.874584649202049
30
0
0
LINE
5
28D
100
AcDbEntity
8
CUTOUTS
100
AcDbLine
10
-84.679375000000107
20
39.874584649202049
30
0
11
-96.679375000000221
21
39.874584649202049
31
0
0
SPLINE
5
28E
100
AcDbEntity
8
CUTOUTS
100
AcDbSpline
70
0
71
3
72
8
73
4
74
0
42
0.000000001
43
0.0000000001
44
0.0000000001
40
-1
40
-1
40
-1
40
-1
40
0
40
0
40
0
40
0
10
-96.679375000000221
20
39.874584649202049
30
0
10
-97.231659749830868
20
39.874584649202049
30
0
10
-97.679375000000249
20
40.322299899371437
30
0
10
-97.679375000000249
20
40.874584649202063
30
0
0
LINE
5
28F
100
AcDbEntity
8
CUTOUTS
100
AcDbLine
10
-97.679375000000249
20
40.874584649202063
30
0
11
-97.679375000000249
21
52.874584649202198
31
0
0
SPLINE
5
290
100
AcDbEntity
8
CUTOUTS
100
AcDbSpline
70
0
71
3
72
8
73
4
74
0
42
0.000000001
43
0.0000000001
44
0.0000000001
40
-1
40
-1
40
-1
40
-1
40
0
40
0
40
0
40
0
10
-97.679375000000249
20
52.874584649202198
30
0
10
-97.679375000000249
20
53.426869399032782
30
0
10
-97.231659749830868
20
53.874584649202191
30
0
10
-96.679375000000221
20
53.874584649202191
30
0
0
LINE
5
291
100
AcDbEntity
8
CUTOUTS
100
AcDbLine
10
-96.679375000000221
20
53.874584649202191
30
0
11
-84.679375000000107
21
53.874584649202191
31
0
0
LINE
5
292
100
AcDbEntity
8
CUTOUTS
100
AcDbLine
10
-122.36937500000013
20
37.734584649202134
30
0
11
-134.36937500000025
21
37.734584649202134
31
0
0
SPLINE
5
293
100
AcDbEntity
8
CUTOUTS
100
AcDbSpline
70
0
71
3
72
8
73
4
74
0
42
0.000000001
43
0.0000000001
44
0.0000000001
40
-1
40
-1
40
-1
40
-1
40
0
40
0
40
0
40
0
10
-134.36937500000025
20
37.734584649202134
30
0
10
-134.92165974983089
20
37.734584649202134
30
0
10
-135.36937500000028
20
38.182299899371223
30
0
10
-135.36937500000028
20
38.734584649202198
30
0
0
LINE
5
294
100
AcDbEntity
8
CUTOUTS
100
AcDbLine
10
-135.36937500000028
20
38.734584649202198
30
0
11
-135.36937500000028
21
50.734584649202297
31
0
0
SPLINE
5
295
100
AcDbEntity
8
CUTOUTS
100
AcDbSpline
70
0
71
3
72
8
73
4
74
0
42
0.000000001
43
0.0000000001
44
0.0000000001
40
-1
40
-1
40
-1
40
-1
40
0
40
0
40
0
40
0
10
-135.36937500000028
20
50.734584649202297
30
0
10
-135.36937500000028
20
51.286869399032902
30
0
10
-134.92165974983089
20
51.734584649201992
30
0
10
-134.36937500000025
20
51.734584649201992
30
0
0
LINE
5
296
100
AcDbEntity
8
CUTOUTS
100
AcDbLine
10
-134.36937500000025
20
51.734584649201992
30
0
11
-122.36937500000013
21
51.734584649201992
31
0
0
SPLINE
5
297
100
AcDbEntity
8
CUTOUTS
100
AcDbSpline
70
0
71
3
72
8
73
4
74
0
42
0.000000001
43
0.0000000001
44
0.0000000001
40
-1
40
-1
40
-1
40
-1
40
0
40
0
40
0
40
0
10
-122.36937500000013
20
51.734584649201992
30
0
10
-121.81709025016951
20
51.734584649201992
30
0
10
-121.3693750000001
20
51.286869399032902
30
0
10
-121.3693750000001
20
50.734584649202297
30
0
0
LINE
5
298
100
AcDbEntity
8
CUTOUTS
100
AcDbLine
10
-121.3693750000001
20
50.734584649202297
30
0
11
-121.3693750000001
21
38.734584649202198
31
0
0
SPLINE
5
299
100
AcDbEntity
8
CUTOUTS
100
AcDbSpline
70
0
71
3
72
8
73
4
74
0
42
0.000000001
43
0.0000000001
44
0.0000000001
40
-1
40
-1
40
-1
40
-1
40
0
40
0
40
0
40
0
10
-121.3693750000001
20
38.734584649202198
30
0
10
-121.3693750000001
20
38.182299899371223
30
0
10
-121.81709025016951
20
37.734584649202134
30
0
10
-122.36937500000013
20
37.734584649202134
30
0
0
LINE
5
29A
100
AcDbEntity
8
CUTOUTS
100
AcDbLine
10
-97.259375000000176
20
-0.36541535079792631
30
0
11
-109.25937500000032
21
-0.36541535079792631
31
0
0
SPLINE
5
29B
100
AcDbEntity
8
CUTOUTS
100
AcDbSpline
70
0
71
3
72
8
73
4
74
0
42
0.000000001
43
0.0000000001
44
0.0000000001
40
-1
40
-1
40
-1
40
-1
40
0
40
0
40
0
40
0
10
-109.25937500000032
20
-0.36541535079792631
30
0
10
-109.81165974983092
20
-0.36541535079792631
30
0
10
-110.25937500000033
20
0.082299899371163221
30
0
10
-110.25937500000033
20
0.63458464920212343
30
0
0
LINE
5
29C
100
AcDbEntity
8
CUTOUTS
100
AcDbLine
10
-110.25937500000033
20
0.63458464920212343
30
0
11
-110.25937500000033
21
12.634584649202196
31
0
0
SPLINE
5
29D
100
AcDbEntity
8
CUTOUTS
100
AcDbSpline
70
0
71
3
72
8
73
4
74
0
42
0.000000001
43
0.0000000001
44
0.0000000001
40
-1
40
-1
40
-1
40
-1
40
0
40
0
40
0
40
0
10
-110.25937500000033
20
12.634584649202196
30
0
10
-110.25937500000033
20
13.186869399032863
30
0
10
-109.81165974983092
20
13.634584649202237
30
0
10
-109.25937500000032
20
13.634584649202237
30
0
0
LINE
5
29E
100
AcDbEntity
8
CUTOUTS
100
AcDbLine
10
-109.25937500000032
20
13.634584649202237
30
0
11
-97.259375000000176
21
13.634584649202237
31
0
0
SPLINE
5
29F
100
AcDbEntity
8
CUTOUTS
100
AcDbSpline
70
0
71
3
72
8
73
4
74
0
42
0.000000001
43
0.0000000001
44
0.0000000001
40
-1
40
-1
40
-1
40
-1
40
0
40
0
40
0
40
0
10
-97.259375000000176
20
13.634584649202237
30
0
10
-96.707090250169543
20
13.634584649202237
30
0
10
-96.25937500000019
20
13.186869399032863
30
0
10
-96.25937500000019
20
12.634584649202196
30
0
0
LINE
5
2A0
100
AcDbEntity
8
CUTOUTS
100
AcDbLine
10
-96.25937500000019
20
12.634584649202196
30
0
11
-96.25937500000019
21
0.63458464920212343
31
0
0
SPLINE
5
2A1
100
AcDbEntity
8
CUTOUTS
100
AcDbSpline
70
0
71
3
72
8
73
4
74
0
42
0.000000001
43
0.0000000001
44
0.0000000001
40
-1
40
-1
40
-1
40
-1
40
0
40
0
40
0
40
0
10
-96.25937500000019
20
0.63458464920212343
30
0
10
-96.25937500000019
20
0.082299899371163221
30
0
10
-96.707090250169244
20
-0.36541535079792631
30
0
10
-97.259375000000176
20
-0.36541535079792631
30
0
0
LINE
5
2A2
100
AcDbEntity
8
CUTOUTS
100
AcDbLine
10
-110.95937500000034
20
19.684584649201994
30
0
11
-110.95937500000034
21
31.684584649202094
31
0
0
SPLINE
5
2A3
100
AcDbEntity
8
CUTOUTS
100
AcDbSpline
70
0
71
3
72
8
73
4
74
0
42
0.000000001
43
0.0000000001
44
0.0000000001
40
-1
40
-1
40
-1
40
-1
40
0
40
0
40
0
40
0
10
-110.95937500000034
20
31.684584649202094
30
0
10
-110.95937500000034
20
32.236869399033068
30
0
10
-110.51165974983094
20
32.684584649202108
30
0
10
-109.95937500000032
20
32.684584649202108
30
0
0
LINE
5
2A4
100
AcDbEntity
8
CUTOUTS
100
AcDbLine
10
-109.95937500000032
20
32.684584649202108
30
0
11
-97.959375000000222
21
32.684584649202108
31
0
0
SPLINE
5
2A5
100
AcDbEntity
8
CUTOUTS
100
AcDbSpline
70
0
71
3
72
8
73
4
74
0
42
0.000000001
43
0.0000000001
44
0.0000000001
40
-1
40
-1
40
-1
40
-1
40
0
40
0
40
0
40
0
10
-97.959375000000222
20
32.684584649202108
30
0
10
-97.407090250169261
20
32.684584649202108
30
0
10
-96.959375000000136
20
32.236869399033068
30
0
10
-96.959375000000136
20
31.684584649202094
30
0
0
LINE
5
2A6
100
AcDbEntity
8
CUTOUTS
100
AcDbLine
10
-96.959375000000136
20
31.684584649202094
30
0
11
-96.959375000000136
21
19.684584649201994
31
0
0
SPLINE
5
2A7
100
AcDbEntity
8
CUTOUTS
100
AcDbSpline
70
0
71
3
72
8
73
4
74
0
42
0.000000001
43
0.0000000001
44
0.0000000001
40
-1
40
-1
40
-1
40
-1
40
0
40
0
40
0
40
0
10
-96.959375000000136
20
19.684584649201994
30
0
10
-96.959375000000136
20
19.132299899371354
30
0
10
-97.407090250169261
20
18.684584649202243
30
0
10
-97.959375000000222
20
18.684584649201945
30
0
0
LINE
5
2A8
100
AcDbEntity
8
CUTOUTS
100
AcDbLine
10
-97.959375000000222
20
18.684584649201945
30
0
11
-109.95937500000032
21
18.684584649201945
31
0
0
SPLINE
5
2A9
100
AcDbEntity
8
CUTOUTS
100
AcDbSpline
70
0
71
3
72
8
73
4
74
0
42
0.000000001
43
0.0000000001
44
0.0000000001
40
-1
40
-1
40
-1
40
-1
40
0
40
0
40
0
40
0
10
-109.95937500000032
20
18.684584649201945
30
0
10
-110.51165974983094
20
18.684584649201945
30
0
10
-110.95937500000004
20
19.132299899371354
30
0
10
-110.95937500000034
20
19.684584649201994
30
0
0
SPLINE
5
2AA
100
AcDbEntity
8
CUTOUTS
100
AcDbSpline
70
0
71
3
72
8
73
4
74
0
42
0.000000001
43
0.0000000001
44
0.0000000001
40
-1
40
-1
40
-1
40
-1
40
0
40
0
40
0
40
0
10
-77.859811939770196
20
18.940317209074806
30
0
10
-77.974638395920422
20
18.400101206106115
30
0
10
-78.505655228352836
20
18.055254843008683
30
0
10
-79.045871231321513
20
18.170081299158987
30
0
0
LINE
5
2AB
100
AcDbEntity
8
CUTOUTS
100
AcDbLine
10
-79.045871231321513
20
18.170081299159008
30
0
11
-90.783642440127338
21
20.665021588971968
31
0
0
SPLINE
5
2AC
100
AcDbEntity
8
CUTOUTS
100
AcDbSpline
70
0
71
3
72
8
73
4
74
0
42
0.000000001
43
0.0000000001
44
0.0000000001
40
-1
40
-1
40
-1
40
-1
40
0
40
0
40
0
40
0
10
-90.783642440127338
20
20.665021588971968
30
0
10
-91.323858443096356
20
20.779848045122272
30
0
10
-91.668704806193489
20
21.310864877554636
30
0
10
-91.55387835004349
20
21.851080880523639
30
0
0
LINE
5
2AD
100
AcDbEntity
8
CUTOUTS
100
AcDbLine
10
-91.553878350043476
20
21.851080880523639
30
0
11
-89.058938060230176
21
33.588852089329492
31
0
0
SPLINE
5
2AE
100
AcDbEntity
8
CUTOUTS
100
AcDbSpline
70
0
71
3
72
8
73
4
74
0
42
0.000000001
43
0.0000000001
44
0.0000000001
40
-1
40
-1
40
-1
40
-1
40
0
40
0
40
0
40
0
10
-89.058938060230176
20
33.588852089329492
30
0
10
-88.944111604079907
20
34.129068092298198
30
0
10
-88.413094771647494
20
34.473914455395615
30
0
10
-87.872878768678518
20
34.359087999245325
30
0
0
LINE
5
2AF
100
AcDbEntity
8
CUTOUTS
100
AcDbLine
10
-87.872878768678518
20
34.359087999245325
30
0
11
-76.135107559872694
21
31.864147709432295
31
0
0
SPLINE
5
2B0
100
AcDbEntity
8
CUTOUTS
100
AcDbSpline
70
0
71
3
72
8
73
4
74
0
42
0.000000001
43
0.0000000001
44
0.0000000001
40
-1
40
-1
40
-1
40
-1
40
0
40
0
40
0
40
0
10
-76.135107559872694
20
31.864147709432295
30
0
10
-75.594891556904003
20
31.749321253282076
30
0
10
-75.250045193806926
20
31.218304420849343
30
0
10
-75.364871649956825
20
30.678088417880652
30
0
0
LINE
5
2B1
100
AcDbEntity
8
CUTOUTS
100
AcDbLine
10
-75.364871649956839
20
30.678088417880652
30
0
11
-77.859811939770196
21
18.940317209074806
31
0
0
LINE
5
2B2
100
AcDbEntity
8
CUTOUTS
100
AcDbLine
10
-134.76937500000025
20
19.684584649201994
30
0
11
-134.76937500000025
21
31.684584649202094
31
0
0
SPLINE
5
2B3
100
AcDbEntity
8
CUTOUTS
100
AcDbSpline
70
0
71
3
72
8
73
4
74
0
42
0.000000001
43
0.0000000001
44
0.0000000001
40
-1
40
-1
40
-1
40
-1
40
0
40
0
40
0
40
0
10
-134.76937500000025
20
31.684584649202094
30
0
10
-134.76937500000025
20
32.236869399033068
30
0
10
-134.32165974983087
20
32.684584649202108
30
0
10
-133.76937500000022
20
32.684584649202108
30
0
0
LINE
5
2B4
100
AcDbEntity
8
CUTOUTS
100
AcDbLine
10
-133.76937500000022
20
32.684584649202108
30
0
11
-121.7693750000001
21
32.684584649202108
31
0
0
SPLINE
5
2B5
100
AcDbEntity
8
CUTOUTS
100
AcDbSpline
70
0
71
3
72
8
73
4
74
0
42
0.000000001
43
0.0000000001
44
0.0000000001
40
-1
40
-1
40
-1
40
-1
40
0
40
0
40
0
40
0
10
-121.7693750000001
20
32.684584649202108
30
0
10
-121.21709025016949
20
32.684584649202108
30
0
10
-120.76937500000008
20
32.236869399033068
30
0
10
-120.76937500000008
20
31.684584649202094
30
0
0
LINE
5
2B6
100
AcDbEntity
8
CUTOUTS
100
AcDbLine
10
-120.76937500000008
20
31.684584649202094
30
0
11
-120.76937500000008
21
19.684584649201994
31
0
0
SPLINE
5
2B7
100
AcDbEntity
8
CUTOUTS
100
AcDbSpline
70
0
71
3
72
8
73
4
74
0
42
0.000000001
43
0.0000000001
44
0.0000000001
40
-1
40
-1
40
-1
40
-1
40
0
40
0
40
0
40
0
10
-120.76937500000008
20
19.684584649201994
30
0
10
-120.76937500000008
20
19.132299899371354
30
0
10
-121.21709025016949
20
18.684584649202243
30
0
10
-121.7693750000001
20
18.684584649201945
30
0
0
LINE
5
2B8
100
AcDbEntity
8
CUTOUTS
100
AcDbLine
10
-121.7693750000001
20
18.684584649201945
30
0
11
-133.76937500000022
21
18.684584649202243
31
0
0
SPLINE
5
2B9
100
AcDbEntity
8
CUTOUTS
100
AcDbSpline
70
0
71
3
72
8
73
4
74
0
42
0.000000001
43
0.0000000001
44
0.0000000001
40
-1
40
-1
40
-1
40
-1
40
0
40
0
40
0
40
0
10
-133.76937500000022
20
18.684584649202243
30
0
10
-134.32165974983087
20
18.684584649202243
30
0
10
-134.76937500000025
20
19.132299899371354
30
0
10
-134.76937500000025
20
19.684584649201994
30
0
0
SPLINE
5
2BA
100
AcDbEntity
8
CUTOUTS
100
AcDbSpline
70
0
71
3
72
8
73
4
74
0
42
0.000000001
43
0.0000000001
44
0.0000000001
40
-1
40
-1
40
-1
40
-1
40
0
40
0
40
0
40
0
10
-64.579811939770067
20
35.590317209074939
30
0
10
-64.694638395920379
20
35.05010120610595
30
0
10
-65.225655228352764
20
34.705254843008817
30
0
10
-65.765871231321768
20
34.820081299158787
30
0
0
LINE
5
2BB
100
AcDbEntity
8
CUTOUTS
100
AcDbLine
10
-65.765871231321768
20
34.820081299158801
30
0
11
-77.503642440127265
21
37.315021588972101
31
0
0
SPLINE
5
2BC
100
AcDbEntity
8
CUTOUTS
100
AcDbSpline
70
0
71
3
72
8
73
4
74
0
42
0.000000001
43
0.0000000001
44
0.0000000001
40
-1
40
-1
40
-1
40
-1
40
0
40
0
40
0
40
0
10
-77.503642440127265
20
37.315021588972101
30
0
10
-78.043858443096269
20
37.42984804512205
30
0
10
-78.388704806193701
20
37.960864877554769
30
0
10
-78.273878350043447
20
38.501080880523759
30
0
0
LINE
5
2BD
100
AcDbEntity
8
CUTOUTS
100
AcDbLine
10
-78.273878350043432
20
38.501080880523759
30
0
11
-75.778938060230416
21
50.238852089329306
31
0
0
SPLINE
5
2BE
100
AcDbEntity
8
CUTOUTS
100
AcDbSpline
70
0
71
3
72
8
73
4
74
0
42
0.000000001
43
0.0000000001
44
0.0000000001
40
-1
40
-1
40
-1
40
-1
40
0
40
0
40
0
40
0
10
-75.778938060230416
20
50.238852089329306
30
0
10
-75.664111604080091
20
50.779068092298274
30
0
10
-75.133094771647407
20
51.123914455395408
30
0
10
-74.592878768678773
20
51.009087999245423
30
0
0
LINE
5
2BF
100
AcDbEntity
8
CUTOUTS
100
AcDbLine
10
-74.592878768678773
20
51.009087999245402
30
0
11
-62.855107559872906
21
48.514147709432109
31
0
0
SPLINE
5
2C0
100
AcDbEntity
8
CUTOUTS
100
AcDbSpline
70
0
71
3
72
8
73
4
74
0
42
0.000000001
43
0.0000000001
44
0.0000000001
40
-1
40
-1
40
-1
40
-1
40
0
40
0
40
0
40
0
10
-62.855107559872906
20
48.514147709432109
30
0
10
-62.314891556903937
20
48.39932125328221
30
0
10
-61.970045193806804
20
47.86830442084942
30
0
10
-62.084871649957037
20
47.328088417880807
30
0
0
LINE
5
2C1
100
AcDbEntity
8
CUTOUTS
100
AcDbLine
10
-62.084871649957037
20
47.328088417880807
30
0
11
-64.579811939770067
21
35.590317209074939
31
0
0
LINE
5
2C2
100
AcDbEntity
8
CUTOUTS
100
AcDbLine
10
101.91062500000001
20
38.734584649202198
30
0
11
101.91062500000001
21
50.734584649201977
31
0
0
SPLINE
5
2C3
100
AcDbEntity
8
CUTOUTS
100
AcDbSpline
70
0
71
3
72
8
73
4
74
0
42
0.000000001
43
0.0000000001
44
0.0000000001
40
-1
40
-1
40
-1
40
-1
40
0
40
0
40
0
40
0
10
101.91062500000001
20
50.734584649201977
30
0
10
101.91062500000001
20
51.286869399032902
30
0
10
102.35834025016914
20
51.734584649201992
30
0
10
102.91062500000002
20
51.734584649201992
30
0
0
LINE
5
2C4
100
AcDbEntity
8
CUTOUTS
100
AcDbLine
10
102.91062500000002
20
51.734584649201992
30
0
11
114.91062499999991
21
51.734584649201992
31
0
0
SPLINE
5
2C5
100
AcDbEntity
8
CUTOUTS
100
AcDbSpline
70
0
71
3
72
8
73
4
74
0
42
0.000000001
43
0.0000000001
44
0.0000000001
40
-1
40
-1
40
-1
40
-1
40
0
40
0
40
0
40
0
10
114.91062499999991
20
51.734584649201992
30
0
10
115.46290974983073
20
51.734584649201992
30
0
10
115.91062499999992
20
51.286869399032902
30
0
10
115.91062499999992
20
50.734584649202297
30
0
0
LINE
5
2C6
100
AcDbEntity
8
CUTOUTS
100
AcDbLine
10
115.91062499999992
20
50.734584649202297
30
0
11
115.91062499999992
21
38.734584649201864
31
0
0
SPLINE
5
2C7
100
AcDbEntity
8
CUTOUTS
100
AcDbSpline
70
0
71
3
72
8
73
4
74
0
42
0.000000001
43
0.0000000001
44
0.0000000001
40
-1
40
-1
40
-1
40
-1
40
0
40
0
40
0
40
0
10
115.91062499999992
20
38.734584649201864
30
0
10
115.91062499999992
20
38.182299899371223
30
0
10
115.46290974983073
20
37.734584649202134
30
0
10
114.91062499999991
20
37.734584649202134
30
0
0
LINE
5
2C8
100
AcDbEntity
8
CUTOUTS
100
AcDbLine
10
114.91062499999991
20
37.734584649202134
30
0
11
102.91062500000002
21
37.734584649202134
31
0
0
SPLINE
5
2C9
100
AcDbEntity
8
CUTOUTS
100
AcDbSpline
70
0
71
3
72
8
73
4
74
0
42
0.000000001
43
0.0000000001
44
0.0000000001
40
-1
40
-1
40
-1
40
-1
40
0
40
0
40
0
40
0
10
102.91062500000002
20
37.734584649202134
30
0
10
102.35834025016914
20
37.734584649202134
30
0
10
101.91062500000001
20
38.182299899371223
30
0
10
101.91062500000001
20
38.734584649202198
30
0
0
SPLINE
5
2CA
100
AcDbEntity
8
CUTOUTS
100
AcDbSpline
70
0
71
3
72
8
73
4
74
0
42
0.000000001
43
0.0000000001
44
0.0000000001
40
-1
40
-1
40
-1
40
-1
40
0
40
0
40
0
40
0
10
77.920624999999859
20
32.744584649202004
30
0
10
77.920624999999859
20
33.296869399032929
30
0
10
78.36834025016887
20
33.744584649202054
30
0
10
78.920624999999916
20
33.744584649202054
30
0
0
LINE
5
2CB
100
AcDbEntity
8
CUTOUTS
100
AcDbLine
10
78.920624999999916
20
33.744584649202054
30
0
11
90.920624999999617
21
33.744584649202054
31
0
0
SPLINE
5
2CC
100
AcDbEntity
8
CUTOUTS
100
AcDbSpline
70
0
71
3
72
8
73
4
74
0
42
0.000000001
43
0.0000000001
44
0.0000000001
40
-1
40
-1
40
-1
40
-1
40
0
40
0
40
0
40
0
10
90.920624999999617
20
33.744584649202054
30
0
10
91.472909749830649
20
33.744584649202054
30
0
10
91.920624999999745
20
33.296869399032929
30
0
10
91.920624999999745
20
32.744584649202004
30
0
0
LINE
5
2CD
100
AcDbEntity
8
CUTOUTS
100
AcDbLine
10
91.920624999999745
20
32.744584649202004
30
0
11
91.920624999999745
21
20.74458464920226
31
0
0
SPLINE
5
2CE
100
AcDbEntity
8
CUTOUTS
100
AcDbSpline
70
0
71
3
72
8
73
4
74
0
42
0.000000001
43
0.0000000001
44
0.0000000001
40
-1
40
-1
40
-1
40
-1
40
0
40
0
40
0
40
0
10
91.920624999999745
20
20.74458464920226
30
0
10
91.920624999999745
20
20.192299899371278
30
0
10
91.472909749830649
20
19.744584649202174
30
0
10
90.920624999999617
20
19.744584649202174
30
0
0
LINE
5
2CF
100
AcDbEntity
8
CUTOUTS
100
AcDbLine
10
90.920624999999617
20
19.744584649202174
30
0
11
78.920624999999916
21
19.744584649202174
31
0
0
SPLINE
5
2D0
100
AcDbEntity
8
CUTOUTS
100
AcDbSpline
70
0
71
3
72
8
73
4
74
0
42
0.000000001
43
0.0000000001
44
0.0000000001
40
-1
40
-1
40
-1
40
-1
40
0
40
0
40
0
40
0
10
78.920624999999916
20
19.744584649202174
30
0
10
78.36834025016887
20
19.744584649202174
30
0
10
77.920624999999859
20
20.192299899371278
30
0
10
77.920624999999859
20
20.74458464920226
30
0
0
LINE
5
2D1
100
AcDbEntity
8
CUTOUTS
100
AcDbLine
10
77.920624999999859
20
20.74458464920226
30
0
11
77.920624999999859
21
32.744584649202004
31
0
0
LINE
5
2D2
100
AcDbEntity
8
CUTOUTS
100
AcDbLine
10
-115.31937500000005
20
51.734584649201992
30
0
11
-103.31937500000025
21
51.734584649201992
31
0
0
SPLINE
5
2D3
100
AcDbEntity
8
CUTOUTS
100
AcDbSpline
70
0
71
3
72
8
73
4
74
0
42
0.000000001
43
0.0000000001
44
0.0000000001
40
-1
40
-1
40
-1
40
-1
40
0
40
0
40
0
40
0
10
-103.31937500000025
20
51.734584649201992
30
0
10
-102.7670902501693
20
51.734584649201992
30
0
10
-102.31937500000026
20
51.286869399032902
30
0
10
-102.31937500000026
20
50.734584649202297
30
0
0
LINE
5
2D4
100
AcDbEntity
8
CUTOUTS
100
AcDbLine
10
-102.31937500000026
20
50.734584649202297
30
0
11
-102.31937500000026
21
38.734584649202198
31
0
0
SPLINE
5
2D5
100
AcDbEntity
8
CUTOUTS
100
AcDbSpline
70
0
71
3
72
8
73
4
74
0
42
0.000000001
43
0.0000000001
44
0.0000000001
40
-1
40
-1
40
-1
40
-1
40
0
40
0
40
0
40
0
10
-102.31937500000026
20
38.734584649202198
30
0
10
-102.31937500000026
20
38.182299899371223
30
0
10
-102.7670902501693
20
37.734584649202134
30
0
10
-103.31937500000025
20
37.734584649202134
30
0
0
LINE
5
2D6
100
AcDbEntity
8
CUTOUTS
100
AcDbLine
10
-103.31937500000025
20
37.734584649202134
30
0
11
-115.31937500000005
21
37.734584649202134
31
0
0
SPLINE
5
2D7
100
AcDbEntity
8
CUTOUTS
100
AcDbSpline
70
0
71
3
72
8
73
4
74
0
42
0.000000001
43
0.0000000001
44
0.0000000001
40
-1
40
-1
40
-1
40
-1
40
0
40
0
40
0
40
0
10
-115.31937500000005
20
37.734584649202134
30
0
10
-115.87165974983103
20
37.734584649202134
30
0
10
-116.31937500000009
20
38.182299899371223
30
0
10
-116.31937500000009
20
38.734584649202198
30
0
0
LINE
5
2D8
100
AcDbEntity
8
CUTOUTS
100
AcDbLine
10
-116.31937500000009
20
38.734584649202198
30
0
11
-116.31937500000009
21
50.734584649202297
31
0
0
SPLINE
5
2D9
100
AcDbEntity
8
CUTOUTS
100
AcDbSpline
70
0
71
3
72
8
73
4
74
0
42
0.000000001
43
0.0000000001
44
0.0000000001
40
-1
40
-1
40
-1
40
-1
40
0
40
0
40
0
40
0
10
-116.31937500000009
20
50.734584649202297
30
0
10
-116.31937500000009
20
51.286869399032902
30
0
10
-115.87165974983103
20
51.734584649201992
30
0
10
-115.31937500000005
20
51.734584649201992
30
0
0
LINE
5
2DA
100
AcDbEntity
8
CUTOUTS
100
AcDbLine
10
139.42062499999963
20
19.684584649201994
30
0
11
139.42062499999969
21
31.684584649202094
31
0
0
SPLINE
5
2DB
100
AcDbEntity
8
CUTOUTS
100
AcDbSpline
70
0
71
3
72
8
73
4
74
0
42
0.000000001
43
0.0000000001
44
0.0000000001
40
-1
40
-1
40
-1
40
-1
40
0
40
0
40
0
40
0
10
139.42062499999969
20
31.684584649202094
30
0
10
139.42062499999969
20
32.236869399033068
30
0
10
139.86834025016867
20
32.684584649202108
30
0
10
140.42062499999992
20
32.684584649202108
30
0
0
LINE
5
2DC
100
AcDbEntity
8
CUTOUTS
100
AcDbLine
10
140.42062499999992
20
32.684584649202108
30
0
11
152.42062500000017
21
32.684584649202108
31
0
0
SPLINE
5
2DD
100
AcDbEntity
8
CUTOUTS
100
AcDbSpline
70
0
71
3
72
8
73
4
74
0
42
0.000000001
43
0.0000000001
44
0.0000000001
40
-1
40
-1
40
-1
40
-1
40
0
40
0
40
0
40
0
10
152.42062500000017
20
32.684584649202108
30
0
10
152.97290974983056
20
32.684584649202108
30
0
10
153.42062499999975
20
32.236869399033068
30
0
10
153.42062499999975
20
31.684584649202094
30
0
0
LINE
5
2DE
100
AcDbEntity
8
CUTOUTS
100
AcDbLine
10
153.42062499999975
20
31.684584649202094
30
0
11
153.42062499999975
21
19.684584649201994
31
0
0
SPLINE
5
2DF
100
AcDbEntity
8
CUTOUTS
100
AcDbSpline
70
0
71
3
72
8
73
4
74
0
42
0.000000001
43
0.0000000001
44
0.0000000001
40
-1
40
-1
40
-1
40
-1
40
0
40
0
40
0
40
0
10
153.42062499999975
20
19.684584649201994
30
0
10
153.42062499999975
20
19.132299899371354
30
0
10
152.97290974983056
20
18.684584649201945
30
0
10
152.4206249999996
20
18.684584649201945
30
0
0
LINE
5
2E0
100
AcDbEntity
8
CUTOUTS
100
AcDbLine
10
152.4206249999996
20
18.684584649201945
30
0
11
140.42062499999992
21
18.684584649201945
31
0
0
SPLINE
5
2E1
100
AcDbEntity
8
CUTOUTS
100
AcDbSpline
70
0
71
3
72
8
73
4
74
0
42
0.000000001
43
0.0000000001
44
0.0000000001
40
-1
40
-1
40
-1
40
-1
40
0
40
0
40
0
40
0
10
140.42062499999992
20
18.684584649201945
30
0
10
139.86834025016867
20
18.684584649201945
30
0
10
139.42062499999969
20
19.132299899371354
30
0
10
139.42062499999969
20
19.684584649201994
30
0
0
SPLINE
5
2E2
100
AcDbEntity
8
CUTOUTS
100
AcDbSpline
70
0
71
3
72
8
73
4
74
0
42
0.000000001
43
0.0000000001
44
0.0000000001
40
-1
40
-1
40
-1
40
-1
40
0
40
0
40
0
40
0
10
84.28062499999993
20
39.874584649202049
30
0
10
83.728340250169069
20
39.874584649202049
30
0
10
83.280624999999901
20
40.322299899371437
30
0
10
83.280624999999901
20
40.874584649202063
30
0
0
LINE
5
2E3
100
AcDbEntity
8
CUTOUTS
100
AcDbLine
10
83.280624999999901
20
40.874584649202063
30
0
11
83.280624999999901
21
52.874584649202198
31
0
0
SPLINE
5
2E4
100
AcDbEntity
8
CUTOUTS
100
AcDbSpline
70
0
71
3
72
8
73
4
74
0
42
0.000000001
43
0.0000000001
44
0.0000000001
40
-1
40
-1
40
-1
40
-1
40
0
40
0
40
0
40
0
10
83.280624999999901
20
52.874584649202198
30
0
10
83.280624999999901
20
53.426869399032782
30
0
10
83.728340250169069
20
53.874584649202191
30
0
10
84.28062499999993
20
53.874584649202191
30
0
0
LINE
5
2E5
100
AcDbEntity
8
CUTOUTS
100
AcDbLine
10
84.28062499999993
20
53.874584649202191
30
0
11
96.280624999999631
21
53.874584649202191
31
0
0
SPLINE
5
2E6
100
AcDbEntity
8
CUTOUTS
100
AcDbSpline
70
0
71
3
72
8
73
4
74
0
42
0.000000001
43
0.0000000001
44
0.0000000001
40
-1
40
-1
40
-1
40
-1
40
0
40
0
40
0
40
0
10
96.280624999999631
20
53.874584649202191
30
0
10
96.832909749830691
20
53.874584649202191
30
0
10
97.28062499999993
20
53.426869399032782
30
0
10
97.28062499999993
20
52.874584649202198
30
0
0
LINE
5
2E7
100
AcDbEntity
8
CUTOUTS
100
AcDbLine
10
97.28062499999993
20
52.874584649202198
30
0
11
97.28062499999993
21
40.874584649202063
31
0
0
SPLINE
5
2E8
100
AcDbEntity
8
CUTOUTS
100
AcDbSpline
70
0
71
3
72
8
73
4
74
0
42
0.000000001
43
0.0000000001
44
0.0000000001
40
-1
40
-1
40
-1
40
-1
40
0
40
0
40
0
40
0
10
97.28062499999993
20
40.874584649202063
30
0
10
97.28062499999993
20
40.322299899371437
30
0
10
96.832909749830691
20
39.874584649202049
30
0
10
96.280624999999631
20
39.874584649202049
30
0
0
LINE
5
2E9
100
AcDbEntity
8
CUTOUTS
100
AcDbLine
10
96.280624999999631
20
39.874584649202049
30
0
11
84.28062499999993
21
39.874584649202049
31
0
0
SPLINE
5
2EA
100
AcDbEntity
8
CUTOUTS
100
AcDbSpline
70
0
71
3
72
8
73
4
74
0
42
0.000000001
43
0.0000000001
44
0.0000000001
40
-1
40
-1
40
-1
40
-1
40
0
40
0
40
0
40
0
10
-91.909375000000168
20
-5.4154153507976233
30
0
10
-91.357090250169506
20
-5.4154153507976233
30
0
10
-90.909375000000125
20
-5.8631306009673345
30
0
10
-90.909375000000125
20
-6.4154153507976552
30
0
0
LINE
5
2EB
100
AcDbEntity
8
CUTOUTS
100
AcDbLine
10
-90.909375000000125
20
-6.4154153507976552
30
0
11
-90.909375000000125
21
-18.415415350798085
31
0
0
SPLINE
5
2EC
100
AcDbEntity
8
CUTOUTS
100
AcDbSpline
70
0
71
3
72
8
73
4
74
0
42
0.000000001
43
0.0000000001
44
0.0000000001
40
-1
40
-1
40
-1
40
-1
40
0
40
0
40
0
40
0
10
-90.909375000000125
20
-18.415415350798085
30
0
10
-90.909375000000125
20
-18.967700100628413
30
0
10
-91.357090250169506
20
-19.415415350798114
30
0
10
-91.909375000000168
20
-19.415415350798114
30
0
0
LINE
5
2ED
100
AcDbEntity
8
CUTOUTS
100
AcDbLine
10
-91.909375000000168
20
-19.415415350798114
30
0
11
-103.90937500000027
21
-19.415415350798114
31
0
0
SPLINE
5
2EE
100
AcDbEntity
8
CUTOUTS
100
AcDbSpline
70
0
71
3
72
8
73
4
74
0
42
0.000000001
43
0.0000000001
44
0.0000000001
40
-1
40
-1
40
-1
40
-1
40
0
40
0
40
0
40
0
10
-103.90937500000027
20
-19.415415350798114
30
0
10
-104.46165974983089
20
-19.415415350798114
30
0
10
-104.90937500000031
20
-18.967700100629035
30
0
10
-104.90937500000031
20
-18.415415350798085
30
0
0
LINE
5
2EF
100
AcDbEntity
8
CUTOUTS
100
AcDbLine
10
-104.90937500000031
20
-18.415415350798085
30
0
11
-104.90937500000031
21
-6.4154153507976552
31
0
0
SPLINE
5
2F0
100
AcDbEntity
8
CUTOUTS
100
AcDbSpline
70
0
71
3
72
8
73
4
74
0
42
0.000000001
43
0.0000000001
44
0.0000000001
40
-1
40
-1
40
-1
40
-1
40
0
40
0
40
0
40
0
10
-104.90937500000031
20
-6.4154153507976552
30
0
10
-104.90937500000031
20
-5.8631306009673345
30
0
10
-104.46165974983089
20
-5.4154153507976233
30
0
10
-103.90937500000027
20
-5.4154153507976233
30
0
0
LINE
5
2F1
100
AcDbEntity
8
CUTOUTS
100
AcDbLine
10
-103.90937500000027
20
-5.4154153507976233
30
0
11
-91.909375000000168
21
-5.4154153507976233
31
0
0
LINE
5
2F2
100
AcDbEntity
8
CUTOUTS
100
AcDbLine
10
-56.031159855978089
20
7.0873707078024051
30
0
11
-58.526100145791133
21
-4.6504005010034533
31
0
0
SPLINE
5
2F3
100
AcDbEntity
8
CUTOUTS
100
AcDbSpline
70
0
71
3
72
8
73
4
74
0
42
0.000000001
43
0.0000000001
44
0.0000000001
40
-1
40
-1
40
-1
40
-1
40
0
40
0
40
0
40
0
10
-58.526100145791133
20
-4.6504005010034533
30
0
10
-58.640926601941374
20
-5.1906165039720964
30
0
10
-59.171943434373787
20
-5.5354628670698691
30
0
10
-59.712159437342756
20
-5.4206364109195793
30
0
0
LINE
5
2F4
100
AcDbEntity
8
CUTOUTS
100
AcDbLine
10
-59.712159437342756
20
-5.4206364109195793
30
0
11
-71.449930646148303
21
-2.9256961211065846
31
0
0
SPLINE
5
2F5
100
AcDbEntity
8
CUTOUTS
100
AcDbSpline
70
0
71
3
72
8
73
4
74
0
42
0.000000001
43
0.0000000001
44
0.0000000001
40
-1
40
-1
40
-1
40
-1
40
0
40
0
40
0
40
0
10
-71.449930646148303
20
-2.9256961211065846
30
0
10
-71.990146649117264
20
-2.8108696649563036
30
0
10
-72.334993012214397
20
-2.2798528325235878
30
0
10
-72.220166556064456
20
-1.7396368295549358
30
0
0
LINE
5
2F6
100
AcDbEntity
8
CUTOUTS
100
AcDbLine
10
-72.220166556064441
20
-1.7396368295549447
30
0
11
-69.725226266251127
21
9.9981343792512423
31
0
0
SPLINE
5
2F7
100
AcDbEntity
8
CUTOUTS
100
AcDbSpline
70
0
71
3
72
8
73
4
74
0
42
0.000000001
43
0.0000000001
44
0.0000000001
40
-1
40
-1
40
-1
40
-1
40
0
40
0
40
0
40
0
10
-69.725226266251127
20
9.9981343792512423
30
0
10
-69.610399810101171
20
10.538350382219877
30
0
10
-69.079382977668402
20
10.883196745317338
30
0
10
-68.53916697469981
20
10.768370289167084
30
0
0
LINE
5
2F8
100
AcDbEntity
8
CUTOUTS
100
AcDbLine
10
-68.53916697469981
20
10.768370289167084
30
0
11
-56.801395765893936
21
8.2734299993537519
31
0
0
SPLINE
5
2F9
100
AcDbEntity
8
CUTOUTS
100
AcDbSpline
70
0
71
3
72
8
73
4
74
0
42
0.000000001
43
0.0000000001
44
0.0000000001
40
-1
40
-1
40
-1
40
-1
40
0
40
0
40
0
40
0
10
-56.801395765893936
20
8.2734299993537519
30
0
10
-56.261179762924925
20
8.1586035432037551
30
0
10
-55.916333399827835
20
7.6275867107710749
30
0
10
-56.031159855978068
20
7.0873707078023962
30
0
0
SPLINE
5
2FA
100
AcDbEntity
8
CUTOUTS
100
AcDbSpline
70
0
71
3
72
8
73
4
74
0
42
0.000000001
43
0.0000000001
44
0.0000000001
40
-1
40
-1
40
-1
40
-1
40
0
40
0
40
0
40
0
10
-59.226100145791172
20
14.979599498996672
30
0
10
-59.340926601941405
20
14.439383496027682
30
0
10
-59.871943434373769
20
14.0945371329303
30
0
10
-60.412159437342453
20
14.209363589080537
30
0
0
LINE
5
2FB
100
AcDbEntity
8
CUTOUTS
100
AcDbLine
10
-60.412159437342453
20
14.209363589080555
30
0
11
-72.14993064614832
21
16.704303878893548
31
0
0
SPLINE
5
2FC
100
AcDbEntity
8
CUTOUTS
100
AcDbSpline
70
0
71
3
72
8
73
4
74
0
42
0.000000001
43
0.0000000001
44
0.0000000001
40
-1
40
-1
40
-1
40
-1
40
0
40
0
40
0
40
0
10
-72.14993064614832
20
16.704303878893548
30
0
10
-72.690146649117295
20
16.819130335043837
30
0
10
-73.034993012214414
20
17.350147167476557
30
0
10
-72.920166556064473
20
17.890363170445227
30
0
0
LINE
5
2FD
100
AcDbEntity
8
CUTOUTS
100
AcDbLine
10
-72.920166556064459
20
17.890363170445227
30
0
11
-70.425226266251144
21
29.628134379251058
31
0
0
SPLINE
5
2FE
100
AcDbEntity
8
CUTOUTS
100
AcDbSpline
70
0
71
3
72
8
73
4
74
0
42
0.000000001
43
0.0000000001
44
0.0000000001
40
-1
40
-1
40
-1
40
-1
40
0
40
0
40
0
40
0
10
-70.425226266251144
20
29.628134379251058
30
0
10
-70.310399810101174
20
30.168350382219742
30
0
10
-69.779382977668462
20
30.513196745317195
30
0
10
-69.239166974699771
20
30.398370289166905
30
0
0
LINE
5
2FF
100
AcDbEntity
8
CUTOUTS
100
AcDbLine
10
-69.239166974699771
20
30.398370289166905
30
0
11
-57.501395765893918
21
27.903429999353911
31
0
0
SPLINE
5
300
100
AcDbEntity
8
CUTOUTS
100
AcDbSpline
70
0
71
3
72
8
73
4
74
0
42
0.000000001
43
0.0000000001
44
0.0000000001
40
-1
40
-1
40
-1
40
-1
40
0
40
0
40
0
40
0
10
-57.501395765893918
20
27.903429999353911
30
0
10
-56.961179762924985
20
27.788603543203621
30
0
10
-56.616333399827852
20
27.257586710771207
30
0
10
-56.731159855978177
20
26.717370707802218
30
0
0
LINE
5
301
100
AcDbEntity
8
CUTOUTS
100
AcDbLine
10
-56.731159855978191
20
26.717370707802218
30
0
11
-59.226100145791172
21
14.979599498996672
31
0
0
SPLINE
5
302
100
AcDbEntity
8
CUTOUTS
100
AcDbSpline
70
0
71
3
72
8
73
4
74
0
42
0.000000001
43
0.0000000001
44
0.0000000001
40
-1
40
-1
40
-1
40
-1
40
0
40
0
40
0
40
0
10
-27.312388351812018
20
27.66888178891837
30
0
10
-27.427214807962308
20
27.128665785949401
30
0
10
-27.958231640394757
20
26.783819422851927
30
0
10
-28.498447643363711
20
26.898645879002203
30
0
0
LINE
5
303
100
AcDbEntity
8
CUTOUTS
100
AcDbLine
10
-28.498447643363711
20
26.898645879002217
30
0
11
-40.236218852169223
21
29.393586168815212
31
0
0
SPLINE
5
304
100
AcDbEntity
8
CUTOUTS
100
AcDbSpline
70
0
71
3
72
8
73
4
74
0
42
0.000000001
43
0.0000000001
44
0.0000000001
40
-1
40
-1
40
-1
40
-1
40
0
40
0
40
0
40
0
10
-40.236218852169223
20
29.393586168815212
30
0
10
-40.776434855138177
20
29.508412624965523
30
0
10
-41.12128121823563
20
30.039429457398256
30
0
10
-41.006454762085305
20
30.579645460366891
30
0
0
LINE
5
305
100
AcDbEntity
8
CUTOUTS
100
AcDbLine
10
-41.00645476208534
20
30.579645460366891
30
0
11
-38.511514472272381
21
42.317416669172758
31
0
0
SPLINE
5
306
100
AcDbEntity
8
CUTOUTS
100
AcDbSpline
70
0
71
3
72
8
73
4
74
0
42
0.000000001
43
0.0000000001
44
0.0000000001
40
-1
40
-1
40
-1
40
-1
40
0
40
0
40
0
40
0
10
-38.511514472272381
20
42.317416669172758
30
0
10
-38.396688016122091
20
42.857632672141747
30
0
10
-37.865671183689358
20
43.202479035238859
30
0
10
-37.325455180720724
20
43.087652579088569
30
0
0
LINE
5
307
100
AcDbEntity
8
CUTOUTS
100
AcDbLine
10
-37.325455180720724
20
43.087652579088555
30
0
11
-25.587683971914856
21
40.592712289275575
31
0
0
SPLINE
5
308
100
AcDbEntity
8
CUTOUTS
100
AcDbSpline
70
0
71
3
72
8
73
4
74
0
42
0.000000001
43
0.0000000001
44
0.0000000001
40
-1
40
-1
40
-1
40
-1
40
0
40
0
40
0
40
0
10
-25.587683971914856
20
40.592712289275575
30
0
10
-25.047467968946187
20
40.477885833125285
30
0
10
-24.702621605848769
20
39.946869000692907
30
0
10
-24.817448061999023
20
39.406652997723903
30
0
0
LINE
5
309
100
AcDbEntity
8
CUTOUTS
100
AcDbLine
10
-24.817448061998988
20
39.406652997723903
30
0
11
-27.312388351812018
21
27.66888178891837
31
0
0
LINE
5
30A
100
AcDbEntity
8
CUTOUTS
100
AcDbLine
10
-41.078447643363774
20
-9.3813541209980311
30
0
11
-52.81621885216957
21
-6.8864138311843615
31
0
0
SPLINE
5
30B
100
AcDbEntity
8
CUTOUTS
100
AcDbSpline
70
0
71
3
72
8
73
4
74
0
42
0.000000001
43
0.0000000001
44
0.0000000001
40
-1
40
-1
40
-1
40
-1
40
0
40
0
40
0
40
0
10
-52.81621885216957
20
-6.8864138311843615
30
0
10
-53.356434855138275
20
-6.7715873750340894
30
0
10
-53.701281218235692
20
-6.2405705426020219
30
0
10
-53.586454762085367
20
-5.7003545396327215
30
0
0
LINE
5
30C
100
AcDbEntity
8
CUTOUTS
100
AcDbLine
10
-53.586454762085353
20
-5.7003545396327304
30
0
11
-51.091514472272351
21
6.0374166691728259
31
0
0
SPLINE
5
30D
100
AcDbEntity
8
CUTOUTS
100
AcDbSpline
70
0
71
3
72
8
73
4
74
0
42
0.000000001
43
0.0000000001
44
0.0000000001
40
-1
40
-1
40
-1
40
-1
40
0
40
0
40
0
40
0
10
-51.091514472272351
20
6.0374166691728259
30
0
10
-50.976688016122154
20
6.577632672141478
30
0
10
-50.44567118368974
20
6.9224790352389221
30
0
10
-49.905455180720736
20
6.8076525790886411
30
0
0
LINE
5
30E
100
AcDbEntity
8
CUTOUTS
100
AcDbLine
10
-49.905455180720736
20
6.8076525790886411
30
0
11
-38.167683971914883
21
4.3127122892756375
31
0
0
SPLINE
5
30F
100
AcDbEntity
8
CUTOUTS
100
AcDbSpline
70
0
71
3
72
8
73
4
74
0
42
0.000000001
43
0.0000000001
44
0.0000000001
40
-1
40
-1
40
-1
40
-1
40
0
40
0
40
0
40
0
10
-38.167683971914883
20
4.3127122892756375
30
0
10
-37.627467968946249
20
4.1978858331253388
30
0
10
-37.28262160584876
20
3.6668690006929605
30
0
10
-37.397448061999086
20
3.1266529977239976
30
0
0
LINE
5
310
100
AcDbEntity
8
CUTOUTS
100
AcDbLine
10
-37.39744806199905
20
3.1266529977240065
30
0
11
-39.89238835181208
21
-8.6111182110818696
31
0
0
SPLINE
5
311
100
AcDbEntity
8
CUTOUTS
100
AcDbSpline
70
0
71
3
72
8
73
4
74
0
42
0.000000001
43
0.0000000001
44
0.0000000001
40
-1
40
-1
40
-1
40
-1
40
0
40
0
40
0
40
0
10
-39.89238835181208
20
-8.6111182110818696
30
0
10
-40.007214807962335
20
-9.1513342140505483
30
0
10
-40.538231640394748
20
-9.4961805771476637
30
0
10
-41.078447643363774
20
-9.3813541209980311
30
0
0
LINE
5
312
100
AcDbEntity
8
CUTOUTS
100
AcDbLine
10
-90.313878350043325
20
-38.378919119476656
30
0
11
-87.818938060230295
21
-26.64114791067049
31
0
0
SPLINE
5
313
100
AcDbEntity
8
CUTOUTS
100
AcDbSpline
70
0
71
3
72
8
73
4
74
0
42
0.000000001
43
0.0000000001
44
0.0000000001
40
-1
40
-1
40
-1
40
-1
40
0
40
0
40
0
40
0
10
-87.818938060230295
20
-26.64114791067049
30
0
10
-87.704111604080026
20
-26.10093190770181
30
0
10
-87.173094771647328
20
-25.756085544604694
30
0
10
-86.63287876867868
20
-25.870912000754966
30
0
0
LINE
5
314
100
AcDbEntity
8
CUTOUTS
100
AcDbLine
10
-86.63287876867868
20
-25.870912000754966
30
0
11
-74.895107559872827
21
-28.365852290567979
31
0
0
SPLINE
5
315
100
AcDbEntity
8
CUTOUTS
100
AcDbSpline
70
0
71
3
72
8
73
4
74
0
42
0.000000001
43
0.0000000001
44
0.0000000001
40
-1
40
-1
40
-1
40
-1
40
0
40
0
40
0
40
0
10
-74.895107559872827
20
-28.365852290567979
30
0
10
-74.354891556904121
20
-28.480678746718262
30
0
10
-74.010045193806775
20
-29.011695579150327
30
0
10
-74.124871649956972
20
-29.551911582119644
30
0
0
LINE
5
316
100
AcDbEntity
8
CUTOUTS
100
AcDbLine
10
-74.124871649956987
20
-29.551911582119644
30
0
11
-76.619811939770003
21
-41.289682790925177
31
0
0
SPLINE
5
317
100
AcDbEntity
8
CUTOUTS
100
AcDbSpline
70
0
71
3
72
8
73
4
74
0
42
0.000000001
43
0.0000000001
44
0.0000000001
40
-1
40
-1
40
-1
40
-1
40
0
40
0
40
0
40
0
10
-76.619811939770003
20
-41.289682790925177
30
0
10
-76.734638395920314
20
-41.829898793893832
30
0
10
-77.265655228352699
20
-42.174745156991591
30
0
10
-77.80587123132166
20
-42.059918700841308
30
0
0
LINE
5
318
100
AcDbEntity
8
CUTOUTS
100
AcDbLine
10
-77.80587123132166
20
-42.059918700841301
30
0
11
-89.543642440127172
21
-39.564978411028299
31
0
0
SPLINE
5
319
100
AcDbEntity
8
CUTOUTS
100
AcDbSpline
70
0
71
3
72
8
73
4
74
0
42
0.000000001
43
0.0000000001
44
0.0000000001
40
-1
40
-1
40
-1
40
-1
40
0
40
0
40
0
40
0
10
-89.543642440127172
20
-39.564978411028306
30
0
10
-90.083858443096204
20
-39.450151954878024
30
0
10
-90.428704806193622
20
-38.919135122445319
30
0
10
-90.313878350043353
20
-38.378919119476656
30
0
0
SPLINE
5
31A
100
AcDbEntity
8
CUTOUTS
100
AcDbSpline
70
0
71
3
72
8
73
4
74
0
42
0.000000001
43
0.0000000001
44
0.0000000001
40
-1
40
-1
40
-1
40
-1
40
0
40
0
40
0
40
0
10
4.1059858493844104
20
4.3079281689240112
30
0
10
3.5657698464156695
20
4.1931017127737302
30
0
10
3.034753013983007
20
4.5379480758711743
30
0
10
2.9199265578326816
20
5.0781640788398352
30
0
0
LINE
5
31B
100
AcDbEntity
8
CUTOUTS
100
AcDbLine
10
2.9199265578326816
20
5.0781640788398352
30
0
11
0.42498626801968697
21
16.815935287645665
31
0
0
SPLINE
5
31C
100
AcDbEntity
8
CUTOUTS
100
AcDbSpline
70
0
71
3
72
8
73
4
74
0
42
0.000000001
43
0.0000000001
44
0.0000000001
40
-1
40
-1
40
-1
40
-1
40
0
40
0
40
0
40
0
10
0.42498626801968697
20
16.815935287645665
30
0
10
0.31015981186953923
20
17.356151290614676
30
0
10
0.65500617496663693
20
17.887168123047068
30
0
10
1.1952221779359107
20
18.001994579197358
30
0
0
LINE
5
31D
100
AcDbEntity
8
CUTOUTS
100
AcDbLine
10
1.1952221779359107
20
18.001994579197358
30
0
11
12.932993386741423
21
20.496934869010353
31
0
0
SPLINE
5
31E
100
AcDbEntity
8
CUTOUTS
100
AcDbSpline
70
0
71
3
72
8
73
4
74
0
42
0.000000001
43
0.0000000001
44
0.0000000001
40
-1
40
-1
40
-1
40
-1
40
0
40
0
40
0
40
0
10
12.932993386741423
20
20.496934869010353
30
0
10
13.473209389710092
20
20.611761325160273
30
0
10
14.00422622214279
20
20.26691496206319
30
0
10
14.119052678293116
20
19.7266989590942
30
0
0
LINE
5
31F
100
AcDbEntity
8
CUTOUTS
100
AcDbLine
10
14.119052678293116
20
19.726698959094186
30
0
11
16.61399296810611
21
7.9889277502886813
31
0
0
SPLINE
5
320
100
AcDbEntity
8
CUTOUTS
100
AcDbSpline
70
0
71
3
72
8
73
4
74
0
42
0.000000001
43
0.0000000001
44
0.0000000001
40
-1
40
-1
40
-1
40
-1
40
0
40
0
40
0
40
0
10
16.61399296810611
20
7.9889277502886813
30
0
10
16.728819424256365
20
7.4487117473196829
30
0
10
16.383973061158628
20
6.9176949148872957
30
0
10
15.843757058189958
20
6.8028684587370414
30
0
0
LINE
5
321
100
AcDbEntity
8
CUTOUTS
100
AcDbLine
10
15.843757058189958
20
6.8028684587370414
30
0
11
4.1059858493844104
21
4.3079281689240112
31
0
0
SPLINE
5
322
100
AcDbEntity
8
CUTOUTS
100
AcDbSpline
70
0
71
3
72
8
73
4
74
0
42
0.000000001
43
0.0000000001
44
0.0000000001
40
-1
40
-1
40
-1
40
-1
40
0
40
0
40
0
40
0
10
-32.817683971914882
20
-16.297287710724166
30
0
10
-32.277467968946247
20
-16.412114166874446
30
0
10
-31.932621605848759
20
-16.943130999307144
30
0
10
-32.047448061999049
20
-17.483347002275835
30
0
0
LINE
5
323
100
AcDbEntity
8
CUTOUTS
100
AcDbLine
10
-32.047448061999013
20
-17.483347002275824
30
0
11
-34.542388351812079
21
-29.221118211081993
31
0
0
SPLINE
5
324
100
AcDbEntity
8
CUTOUTS
100
AcDbSpline
70
0
71
3
72
8
73
4
74
0
42
0.000000001
43
0.0000000001
44
0.0000000001
40
-1
40
-1
40
-1
40
-1
40
0
40
0
40
0
40
0
10
-34.542388351812079
20
-29.221118211081993
30
0
10
-34.657214807962298
20
-29.761334214050649
30
0
10
-35.188231640394747
20
-30.106180577147789
30
0
10
-35.728447643363737
20
-29.991354120997492
30
0
0
LINE
5
325
100
AcDbEntity
8
CUTOUTS
100
AcDbLine
10
-35.728447643363737
20
-29.991354120997492
30
0
11
-47.466218852169249
21
-27.496413831184491
31
0
0
SPLINE
5
326
100
AcDbEntity
8
CUTOUTS
100
AcDbSpline
70
0
71
3
72
8
73
4
74
0
42
0.000000001
43
0.0000000001
44
0.0000000001
40
-1
40
-1
40
-1
40
-1
40
0
40
0
40
0
40
0
10
-47.466218852169249
20
-27.496413831184491
30
0
10
-48.006434855138203
20
-27.381587375034222
30
0
10
-48.35128121823562
20
-26.850570542602149
30
0
10
-48.236454762085366
20
-26.31035453963284
30
0
0
LINE
5
327
100
AcDbEntity
8
CUTOUTS
100
AcDbLine
10
-48.236454762085401
20
-26.31035453963284
30
0
11
-45.741514472272371
21
-14.572583330827307
31
0
0
SPLINE
5
328
100
AcDbEntity
8
CUTOUTS
100
AcDbSpline
70
0
71
3
72
8
73
4
74
0
42
0.000000001
43
0.0000000001
44
0.0000000001
40
-1
40
-1
40
-1
40
-1
40
0
40
0
40
0
40
0
10
-45.741514472272371
20
-14.572583330827307
30
0
10
-45.626688016122081
20
-14.032367327858646
30
0
10
-45.095671183689667
20
-13.687520964760873
30
0
10
-44.555455180720749
20
-13.802347420911154
30
0
0
LINE
5
329
100
AcDbEntity
8
CUTOUTS
100
AcDbLine
10
-44.555455180720749
20
-13.802347420911154
30
0
11
-32.817683971914882
21
-16.297287710724166
31
0
0
LINE
5
32A
100
AcDbEntity
8
CUTOUTS
100
AcDbLine
10
6.5552221779359243
20
38.61199457919713
30
0
11
18.292993386741507
21
41.106934869010175
31
0
0
SPLINE
5
32B
100
AcDbEntity
8
CUTOUTS
100
AcDbSpline
70
0
71
3
72
8
73
4
74
0
42
0.000000001
43
0.0000000001
44
0.0000000001
40
-1
40
-1
40
-1
40
-1
40
0
40
0
40
0
40
0
10
18.292993386741507
20
41.106934869010175
30
0
10
18.833209389710142
20
41.221761325160415
30
0
10
19.364226222142804
20
40.876914962062997
30
0
10
19.479052678293094
20
40.336698959094328
30
0
0
LINE
5
32C
100
AcDbEntity
8
CUTOUTS
100
AcDbLine
10
19.479052678293094
20
40.336698959094306
30
0
11
21.973992968106089
21
28.598927750288475
31
0
0
SPLINE
5
32D
100
AcDbEntity
8
CUTOUTS
100
AcDbSpline
70
0
71
3
72
8
73
4
74
0
42
0.000000001
43
0.0000000001
44
0.0000000001
40
-1
40
-1
40
-1
40
-1
40
0
40
0
40
0
40
0
10
21.973992968106089
20
28.598927750288475
30
0
10
22.088819424256378
20
28.058711747319769
30
0
10
21.743973061158641
20
27.527694914887128
30
0
10
21.203757058190007
20
27.412868458737137
30
0
0
LINE
5
32E
100
AcDbEntity
8
CUTOUTS
100
AcDbLine
10
21.203757058190007
20
27.412868458737137
30
0
11
9.4659858493845306
21
24.917928168923844
31
0
0
SPLINE
5
32F
100
AcDbEntity
8
CUTOUTS
100
AcDbSpline
70
0
71
3
72
8
73
4
74
0
42
0.000000001
43
0.0000000001
44
0.0000000001
40
-1
40
-1
40
-1
40
-1
40
0
40
0
40
0
40
0
10
9.4659858493845306
20
24.917928168923844
30
0
10
8.9257698464158253
20
24.803101712773532
30
0
10
8.3947530139830917
20
25.147948075870985
30
0
10
8.2799265578328018
20
25.688164078839939
30
0
0
LINE
5
330
100
AcDbEntity
8
CUTOUTS
100
AcDbLine
10
8.2799265578328018
20
25.688164078839961
30
0
11
5.7849862680198072
21
37.425935287645828
31
0
0
SPLINE
5
331
100
AcDbEntity
8
CUTOUTS
100
AcDbSpline
70
0
71
3
72
8
73
4
74
0
42
0.000000001
43
0.0000000001
44
0.0000000001
40
-1
40
-1
40
-1
40
-1
40
0
40
0
40
0
40
0
10
5.7849862680198072
20
37.425935287645828
30
0
10
5.6701598118695173
20
37.966151290614462
30
0
10
6.0150061749666506
20
38.497168123047175
30
0
10
6.5552221779359243
20
38.61199457919713
30
0
0
LINE
5
332
100
AcDbEntity
8
CUTOUTS
100
AcDbLine
10
-18.763736268019962
20
-0.83406471235409896
30
0
11
-21.258676557832992
21
-12.571835921159655
31
0
0
SPLINE
5
333
100
AcDbEntity
8
CUTOUTS
100
AcDbSpline
70
0
71
3
72
8
73
4
74
0
42
0.000000001
43
0.0000000001
44
0.0000000001
40
-1
40
-1
40
-1
40
-1
40
0
40
0
40
0
40
0
10
-21.258676557832992
20
-12.571835921159655
30
0
10
-21.373503013983317
20
-13.112051924128965
30
0
10
-21.904519846415695
20
-13.45689828722608
30
0
10
-22.444735849384756
20
-13.342071831075808
30
0
0
LINE
5
334
100
AcDbEntity
8
CUTOUTS
100
AcDbLine
10
-22.444735849384756
20
-13.342071831075808
30
0
11
-34.182507058190552
21
-10.847131541262804
31
0
0
SPLINE
5
335
100
AcDbEntity
8
CUTOUTS
100
AcDbSpline
70
0
71
3
72
8
73
4
74
0
42
0.000000001
43
0.0000000001
44
0.0000000001
40
-1
40
-1
40
-1
40
-1
40
0
40
0
40
0
40
0
10
-34.182507058190552
20
-10.847131541262804
30
0
10
-34.722723061159151
20
-10.732305085112523
30
0
10
-35.067569424256675
20
-10.201288252680447
30
0
10
-34.952742968106385
20
-9.6610722497111468
30
0
0
LINE
5
336
100
AcDbEntity
8
CUTOUTS
100
AcDbLine
10
-34.952742968106421
20
-9.6610722497111556
30
0
11
-32.457802678293355
21
2.0766989590943918
31
0
0
SPLINE
5
337
100
AcDbEntity
8
CUTOUTS
100
AcDbSpline
70
0
71
3
72
8
73
4
74
0
42
0.000000001
43
0.0000000001
44
0.0000000001
40
-1
40
-1
40
-1
40
-1
40
0
40
0
40
0
40
0
10
-32.457802678293355
20
2.0766989590943918
30
0
10
-32.342976222143101
20
2.6169149620633814
30
0
10
-31.811959389710367
20
2.9617613251604791
30
0
10
-31.271743386741733
20
2.8469348690105267
30
0
0
LINE
5
338
100
AcDbEntity
8
CUTOUTS
100
AcDbLine
10
-31.271743386741733
20
2.8469348690105267
30
0
11
-19.533972177935901
21
0.35199457919721233
31
0
0
SPLINE
5
339
100
AcDbEntity
8
CUTOUTS
100
AcDbSpline
70
0
71
3
72
8
73
4
74
0
42
0.000000001
43
0.0000000001
44
0.0000000001
40
-1
40
-1
40
-1
40
-1
40
0
40
0
40
0
40
0
10
-19.533972177935901
20
0.35199457919721233
30
0
10
-18.993756174967196
20
0.23716812304724222
30
0
10
-18.648909811869778
20
-0.29384870938543806
30
0
10
-18.763736268019997
20
-0.83406471235410784
30
0
0
SPLINE
5
33A
100
AcDbEntity
8
CUTOUTS
100
AcDbSpline
70
0
71
3
72
8
73
4
74
0
42
0.000000001
43
0.0000000001
44
0.0000000001
40
-1
40
-1
40
-1
40
-1
40
0
40
0
40
0
40
0
10
37.6924098559779
20
24.737370707802249
30
0
10
37.577583399827503
20
25.277586710771224
30
0
10
37.922429762924743
20
25.808603543203581
30
0
10
38.46264576589391
20
25.923429999353857
30
0
0
LINE
5
33B
100
AcDbEntity
8
CUTOUTS
100
AcDbLine
10
38.46264576589391
20
25.923429999353857
30
0
11
50.200416974699493
21
28.418370289166901
31
0
0
SPLINE
5
33C
100
AcDbEntity
8
CUTOUTS
100
AcDbSpline
70
0
71
3
72
8
73
4
74
0
42
0.000000001
43
0.0000000001
44
0.0000000001
40
-1
40
-1
40
-1
40
-1
40
0
40
0
40
0
40
0
10
50.200416974699493
20
28.418370289166901
30
0
10
50.740632977668092
20
28.533196745317142
30
0
10
51.271649810100932
20
28.18835038221976
30
0
10
51.386476266251115
20
27.648134379251069
30
0
0
LINE
5
33D
100
AcDbEntity
8
CUTOUTS
100
AcDbLine
10
51.386476266251115
20
27.648134379251054
30
0
11
53.881416556064252
21
15.910363170445221
31
0
0
SPLINE
5
33E
100
AcDbEntity
8
CUTOUTS
100
AcDbSpline
70
0
71
3
72
8
73
4
74
0
42
0.000000001
43
0.0000000001
44
0.0000000001
40
-1
40
-1
40
-1
40
-1
40
0
40
0
40
0
40
0
10
53.881416556064252
20
15.910363170445221
30
0
10
53.996243012214435
20
15.370147167476551
30
0
10
53.651396649116663
20
14.839130335043853
30
0
10
53.111180646147993
20
14.724303878893563
30
0
0
LINE
5
33F
100
AcDbEntity
8
CUTOUTS
100
AcDbLine
10
53.111180646147993
20
14.724303878893563
30
0
11
41.373409437342552
21
12.229363589080569
31
0
0
SPLINE
5
340
100
AcDbEntity
8
CUTOUTS
100
AcDbSpline
70
0
71
3
72
8
73
4
74
0
42
0.000000001
43
0.0000000001
44
0.0000000001
40
-1
40
-1
40
-1
40
-1
40
0
40
0
40
0
40
0
10
41.373409437342552
20
12.229363589080569
30
0
10
40.833193434373811
20
12.114537132930252
30
0
10
40.302176601941113
20
12.459383496027714
30
0
10
40.187350145790788
20
12.999599498996703
30
0
0
LINE
5
341
100
AcDbEntity
8
CUTOUTS
100
AcDbLine
10
40.187350145790788
20
12.999599498996703
30
0
11
37.6924098559779
21
24.737370707802249
31
0
0
SPLINE
5
342
100
AcDbEntity
8
CUTOUTS
100
AcDbSpline
70
0
71
3
72
8
73
4
74
0
42
0.000000001
43
0.0000000001
44
0.0000000001
40
-1
40
-1
40
-1
40
-1
40
0
40
0
40
0
40
0
10
157.97862499999559
20
15.634584947434176
30
0
10
158.53090974982607
20
15.634584947433874
30
0
10
158.97862499999519
20
15.18686969726482
30
0
10
158.97862499999519
20
14.634584947434481
30
0
0
LINE
5
343
100
AcDbEntity
8
CUTOUTS
100
AcDbLine
10
158.97862499999525
20
14.634584947434481
30
0
11
158.97862499999519
21
1.6345849474340213
31
0
0
SPLINE
5
344
100
AcDbEntity
8
CUTOUTS
100
AcDbSpline
70
0
71
3
72
8
73
4
74
0
42
0.000000001
43
0.0000000001
44
0.0000000001
40
-1
40
-1
40
-1
40
-1
40
0
40
0
40
0
40
0
10
158.97862499999519
20
1.6345849474340213
30
0
10
158.97862499999519
20
1.0823001976033897
30
0
10
158.53090974982607
20
0.63458494743430904
30
0
10
157.97862499999559
20
0.63458494743430904
30
0
0
LINE
5
345
100
AcDbEntity
8
CUTOUTS
100
AcDbLine
10
157.97862499999559
20
0.63458494743430904
30
0
11
152.97862499999681
21
0.63458494743430904
31
0
0
SPLINE
5
346
100
AcDbEntity
8
CUTOUTS
100
AcDbSpline
70
0
71
3
72
8
73
4
74
0
42
0.000000001
43
0.0000000001
44
0.0000000001
40
-1
40
-1
40
-1
40
-1
40
0
40
0
40
0
40
0
10
152.97862499999681
20
0.63458494743430904
30
0
10
152.42634025016585
20
0.63458494743430904
30
0
10
151.97862499999744
20
1.0823001976033897
30
0
10
151.97862499999744
20
1.6345849474340213
30
0
0
LINE
5
347
100
AcDbEntity
8
CUTOUTS
100
AcDbLine
10
151.97862499999735
20
1.6345849474340213
30
0
11
151.97862499999744
21
14.63458494743576
31
0
0
SPLINE
5
348
100
AcDbEntity
8
CUTOUTS
100
AcDbSpline
70
0
71
3
72
8
73
4
74
0
42
0.000000001
43
0.0000000001
44
0.0000000001
40
-1
40
-1
40
-1
40
-1
40
0
40
0
40
0
40
0
10
151.97862499999744
20
14.63458494743576
30
0
10
151.97862499999744
20
15.186869697265761
30
0
10
152.42634025016633
20
15.634584947434176
30
0
10
152.97862499999681
20
15.634584947434176
30
0
0
LINE
5
349
100
AcDbEntity
8
CUTOUTS
100
AcDbLine
10
152.97862499999681
20
15.634584947434176
30
0
11
157.97862499999559
21
15.634584947434176
31
0
0
SPLINE
5
34A
100
AcDbEntity
8
CUTOUTS
100
AcDbSpline
70
0
71
3
72
8
73
4
74
0
42
0.000000001
43
0.0000000001
44
0.0000000001
40
-1
40
-1
40
-1
40
-1
40
0
40
0
40
0
40
0
10
-51.451395765893878
20
-12.336570000646372
30
0
10
-50.911179762925229
20
-12.451396456796013
30
0
10
-50.566333399827812
20
-12.982413289228729
30
0
10
-50.681159855978066
20
-13.52262929219739
30
0
0
LINE
5
34B
100
AcDbEntity
8
CUTOUTS
100
AcDbLine
10
-50.68115985597808
20
-13.522629292197381
30
0
11
-53.176100145791082
21
-25.260400501003577
31
0
0
SPLINE
5
34C
100
AcDbEntity
8
CUTOUTS
100
AcDbSpline
70
0
71
3
72
8
73
4
74
0
42
0.000000001
43
0.0000000001
44
0.0000000001
40
-1
40
-1
40
-1
40
-1
40
0
40
0
40
0
40
0
10
-53.176100145791082
20
-25.260400501003577
30
0
10
-53.290926601941365
20
-25.800616503972229
30
0
10
-53.821943434373765
20
-26.145462867069345
30
0
10
-54.362159437342754
20
-26.030636410919719
30
0
0
LINE
5
34D
100
AcDbEntity
8
CUTOUTS
100
AcDbLine
10
-54.362159437342754
20
-26.030636410919719
30
0
11
-66.099930646148266
21
-23.53569612110606
31
0
0
SPLINE
5
34E
100
AcDbEntity
8
CUTOUTS
100
AcDbSpline
70
0
71
3
72
8
73
4
74
0
42
0.000000001
43
0.0000000001
44
0.0000000001
40
-1
40
-1
40
-1
40
-1
40
0
40
0
40
0
40
0
10
-66.099930646148266
20
-23.53569612110606
30
0
10
-66.640146649117256
20
-23.42086966495577
30
0
10
-66.984993012214716
20
-22.889852832523712
30
0
10
-66.870166556064433
20
-22.349636829554413
30
0
0
LINE
5
34F
100
AcDbEntity
8
CUTOUTS
100
AcDbLine
10
-66.870166556064419
20
-22.34963682955442
30
0
11
-64.375226266251445
21
-10.611865620748882
31
0
0
SPLINE
5
350
100
AcDbEntity
8
CUTOUTS
100
AcDbSpline
70
0
71
3
72
8
73
4
74
0
42
0.000000001
43
0.0000000001
44
0.0000000001
40
-1
40
-1
40
-1
40
-1
40
0
40
0
40
0
40
0
10
-64.375226266251445
20
-10.611865620748882
30
0
10
-64.260399810101077
20
-10.071649617780221
30
0
10
-63.72938297766872
20
-9.7268032546830874
30
0
10
-63.189166974699731
20
-9.8416297108327289
30
0
0
LINE
5
351
100
AcDbEntity
8
CUTOUTS
100
AcDbLine
10
-63.189166974699731
20
-9.8416297108327289
30
0
11
-51.451395765893878
21
-12.336570000646372
31
0
0
SPLINE
5
352
100
AcDbEntity
8
CUTOUTS
100
AcDbSpline
70
0
71
3
72
8
73
4
74
0
42
0.000000001
43
0.0000000001
44
0.0000000001
40
-1
40
-1
40
-1
40
-1
40
0
40
0
40
0
40
0
10
-8.678676557832965
20
23.708164078839957
30
0
10
-8.7935030139832904
20
23.167948075871266
30
0
10
-9.3245198464157042
20
22.823101712773848
30
0
10
-9.8647358493845871
20
22.937928168924124
30
0
0
LINE
5
353
100
AcDbEntity
8
CUTOUTS
100
AcDbLine
10
-9.8647358493845871
20
22.937928168924138
30
0
11
-21.60250705819017
21
25.432868458737168
31
0
0
SPLINE
5
354
100
AcDbEntity
8
CUTOUTS
100
AcDbSpline
70
0
71
3
72
8
73
4
74
0
42
0.000000001
43
0.0000000001
44
0.0000000001
40
-1
40
-1
40
-1
40
-1
40
0
40
0
40
0
40
0
10
-21.60250705819017
20
25.432868458737168
30
0
10
-22.14272306115916
20
25.547694914887408
30
0
10
-22.487569424256577
20
26.078711747319765
30
0
10
-22.372742968106323
20
26.618927750288755
30
0
0
LINE
5
355
100
AcDbEntity
8
CUTOUTS
100
AcDbLine
10
-22.372742968106358
20
26.618927750288755
30
0
11
-19.877802678293293
21
38.356698959094622
31
0
0
SPLINE
5
356
100
AcDbEntity
8
CUTOUTS
100
AcDbSpline
70
0
71
3
72
8
73
4
74
0
42
0.000000001
43
0.0000000001
44
0.0000000001
40
-1
40
-1
40
-1
40
-1
40
0
40
0
40
0
40
0
10
-19.877802678293293
20
38.356698959094622
30
0
10
-19.762976222143003
20
38.896914962063292
30
0
10
-19.231959389710553
20
39.241761325160766
30
0
10
-18.691743386741599
20
39.126934869010455
30
0
0
LINE
5
357
100
AcDbEntity
8
CUTOUTS
100
AcDbLine
10
-18.691743386741599
20
39.126934869010455
30
0
11
-6.9539721779357677
21
36.631994579197141
31
0
0
SPLINE
5
358
100
AcDbEntity
8
CUTOUTS
100
AcDbSpline
70
0
71
3
72
8
73
4
74
0
42
0.000000001
43
0.0000000001
44
0.0000000001
40
-1
40
-1
40
-1
40
-1
40
0
40
0
40
0
40
0
10
-6.9539721779357677
20
36.631994579197141
30
0
10
-6.4137561749670624
20
36.517168123047206
30
0
10
-6.068909811869716
20
35.986151290614494
30
0
10
-6.1837362680200059
20
35.445935287645824
30
0
0
LINE
5
359
100
AcDbEntity
8
CUTOUTS
100
AcDbLine
10
-6.1837362680199703
20
35.445935287645824
30
0
11
-8.678676557832965
21
23.708164078839957
31
0
0
SPLINE
5
35A
100
AcDbEntity
8
CUTOUTS
100
AcDbSpline
70
0
71
3
72
8
73
4
74
0
42
0.000000001
43
0.0000000001
44
0.0000000001
40
-1
40
-1
40
-1
40
-1
40
0
40
0
40
0
40
0
10
40.175128350042932
20
-45.43891911947582
30
0
10
40.289954806193222
20
-45.979135122445115
30
0
10
39.945108443096018
20
-46.510151954877188
30
0
10
39.404892440126673
20
-46.62497841102747
30
0
0
LINE
5
35B
100
AcDbEntity
8
CUTOUTS
100
AcDbLine
10
39.404892440126673
20
-46.62497841102747
30
0
11
27.667121231321197
21
-49.119918700841119
31
0
0
SPLINE
5
35C
100
AcDbEntity
8
CUTOUTS
100
AcDbSpline
70
0
71
3
72
8
73
4
74
0
42
0.000000001
43
0.0000000001
44
0.0000000001
40
-1
40
-1
40
-1
40
-1
40
0
40
0
40
0
40
0
10
27.667121231321197
20
-49.119918700841119
30
0
10
27.126905228352527
20
-49.234745156991401
30
0
10
26.595888395919829
20
-48.889898793893636
30
0
10
26.481061939769504
20
-48.349682790924966
30
0
0
LINE
5
35D
100
AcDbEntity
8
CUTOUTS
100
AcDbLine
10
26.481061939769504
20
-48.349682790924966
30
0
11
23.986121649956544
21
-36.611911582119447
31
0
0
SPLINE
5
35E
100
AcDbEntity
8
CUTOUTS
100
AcDbSpline
70
0
71
3
72
8
73
4
74
0
42
0.000000001
43
0.0000000001
44
0.0000000001
40
-1
40
-1
40
-1
40
-1
40
0
40
0
40
0
40
0
10
23.986121649956544
20
-36.611911582119447
30
0
10
23.871295193806219
20
-36.071695579150777
30
0
10
24.216141556903423
20
-35.540678746718065
30
0
10
24.756357559871986
20
-35.425852290567796
30
0
0
LINE
5
35F
100
AcDbEntity
8
CUTOUTS
100
AcDbLine
10
24.756357559871986
20
-35.425852290567796
30
0
11
36.494128768678209
21
-32.930912000754141
31
0
0
SPLINE
5
360
100
AcDbEntity
8
CUTOUTS
100
AcDbSpline
70
0
71
3
72
8
73
4
74
0
42
0.000000001
43
0.0000000001
44
0.0000000001
40
-1
40
-1
40
-1
40
-1
40
0
40
0
40
0
40
0
10
36.494128768678209
20
-32.930912000754141
30
0
10
37.034344771646914
20
-32.816085544604498
30
0
10
37.565361604079648
20
-33.160931907701624
30
0
10
37.680188060229227
20
-33.701147910670279
30
0
0
LINE
5
361
100
AcDbEntity
8
CUTOUTS
100
AcDbLine
10
37.680188060229227
20
-33.701147910670279
30
0
11
40.175128350042932
21
-45.43891911947582
31
0
0
SPLINE
5
362
100
AcDbEntity
8
CUTOUTS
100
AcDbSpline
70
0
71
3
72
8
73
4
74
0
42
0.000000001
43
0.0000000001
44
0.0000000001
40
-1
40
-1
40
-1
40
-1
40
0
40
0
40
0
40
0
10
58.820416974699228
20
10.768370289167084
30
0
10
59.360632977667862
20
10.88319674531701
30
0
10
59.891649810100631
20
10.538350382219877
30
0
10
60.006476266250708
20
9.9981343792509136
30
0
0
LINE
5
363
100
AcDbEntity
8
CUTOUTS
100
AcDbLine
10
60.006476266250708
20
9.9981343792509136
30
0
11
62.501416556063916
21
-1.7396368295549358
31
0
0
SPLINE
5
364
100
AcDbEntity
8
CUTOUTS
100
AcDbSpline
70
0
71
3
72
8
73
4
74
0
42
0.000000001
43
0.0000000001
44
0.0000000001
40
-1
40
-1
40
-1
40
-1
40
0
40
0
40
0
40
0
10
62.501416556063916
20
-1.7396368295549358
30
0
10
62.616243012214099
20
-2.2798528325235878
30
0
10
62.271396649117037
20
-2.8108696649563036
30
0
10
61.731180646147692
20
-2.9256961211065846
30
0
0
LINE
5
365
100
AcDbEntity
8
CUTOUTS
100
AcDbLine
10
61.731180646147692
20
-2.9256961211065846
30
0
11
49.993409437342251
21
-5.4206364109195793
31
0
0
SPLINE
5
366
100
AcDbEntity
8
CUTOUTS
100
AcDbSpline
70
0
71
3
72
8
73
4
74
0
42
0.000000001
43
0.0000000001
44
0.0000000001
40
-1
40
-1
40
-1
40
-1
40
0
40
0
40
0
40
0
10
49.993409437342251
20
-5.4206364109195793
30
0
10
49.45319343437351
20
-5.5354628670698691
30
0
10
48.922176601940848
20
-5.1906165039720964
30
0
10
48.807350145790558
20
-4.6504005010034533
30
0
0
LINE
5
367
100
AcDbEntity
8
CUTOUTS
100
AcDbLine
10
48.807350145790558
20
-4.6504005010034533
30
0
11
46.312409855977492
21
7.0873707078023962
31
0
0
SPLINE
5
368
100
AcDbEntity
8
CUTOUTS
100
AcDbSpline
70
0
71
3
72
8
73
4
74
0
42
0.000000001
43
0.0000000001
44
0.0000000001
40
-1
40
-1
40
-1
40
-1
40
0
40
0
40
0
40
0
10
46.312409855977492
20
7.0873707078023962
30
0
10
46.197583399827131
20
7.6275867107710749
30
0
10
46.542429762924975
20
8.1586035432037551
30
0
10
47.082645765893716
20
8.2734299993537519
30
0
0
LINE
5
369
100
AcDbEntity
8
CUTOUTS
100
AcDbLine
10
47.082645765893716
20
8.2734299993537519
30
0
11
58.820416974699228
21
10.768370289167084
31
0
0
LINE
5
36A
100
AcDbEntity
8
CUTOUTS
100
AcDbLine
10
-32.866733885696711
20
-33.722442760573138
30
0
11
-30.695674661244006
21
-34.1839156445049
31
0
0
SPLINE
5
36B
100
AcDbEntity
8
CUTOUTS
100
AcDbSpline
70
0
71
3
72
8
73
4
74
0
42
0.000000001
43
0.0000000001
44
0.0000000001
40
-1
40
-1
40
-1
40
-1
40
0
40
0
40
0
40
0
10
-30.695674661244006
20
-34.1839156445049
30
0
10
-30.155458658275336
20
-34.298742100655176
30
0
10
-29.810612295178167
20
-34.829758933087241
30
0
10
-29.925438751328173
20
-35.369974936055904
30
0
0
LINE
5
36C
100
AcDbEntity
8
CUTOUTS
100
AcDbLine
10
-29.925438751328137
20
-35.369974936055904
30
0
11
-32.62829073195924
21
-48.085893745595655
31
0
0
SPLINE
5
36D
100
AcDbEntity
8
CUTOUTS
100
AcDbSpline
70
0
71
3
72
8
73
4
74
0
42
0.000000001
43
0.0000000001
44
0.0000000001
40
-1
40
-1
40
-1
40
-1
40
0
40
0
40
0
40
0
10
-32.62829073195924
20
-48.085893745595655
30
0
10
-32.74311718810953
20
-48.626109748564318
30
0
10
-33.274134020541624
20
-48.970956111661437
30
0
10
-33.814350023510542
20
-48.856129655511808
30
0
0
LINE
5
36E
100
AcDbEntity
8
CUTOUTS
100
AcDbLine
10
-33.814350023510542
20
-48.856129655511808
30
0
11
-38.705088027178149
21
-47.816571201422732
31
0
0
SPLINE
5
36F
100
AcDbEntity
8
CUTOUTS
100
AcDbSpline
70
0
71
3
72
8
73
4
74
0
42
0.000000001
43
0.0000000001
44
0.0000000001
40
-1
40
-1
40
-1
40
-1
40
0
40
0
40
0
40
0
10
-38.705088027178149
20
-47.816571201422732
30
0
10
-38.7440084968053
20
-47.808298400220494
30
0
10
-38.782400512646298
20
-47.797710008107181
30
0
10
-38.820059293920046
20
-47.784862502952521
30
0
0
LINE
5
370
100
AcDbEntity
8
CUTOUTS
100
AcDbLine
10
-38.820059293920046
20
-47.784862502952521
30
0
11
-40.991118518398793
21
-47.323389619014989
31
0
0
SPLINE
5
371
100
AcDbEntity
8
CUTOUTS
100
AcDbSpline
70
0
71
3
72
8
73
4
74
0
42
0.000000001
43
0.0000000001
44
0.0000000001
40
-1
40
-1
40
-1
40
-1
40
0
40
0
40
0
40
0
10
-40.991118518398793
20
-47.323389619014989
30
0
10
-41.023583710645362
20
-47.316488929377208
30
0
10
-41.055685217531597
20
-47.307976215884942
30
0
10
-41.087303835703679
20
-47.297883089016636
30
0
0
LINE
5
372
100
AcDbEntity
8
CUTOUTS
100
AcDbLine
10
-41.087303835703715
20
-47.297883089016644
30
0
11
-41.089811939769909
21
-47.309682790924803
31
0
0
SPLINE
5
373
100
AcDbEntity
8
CUTOUTS
100
AcDbSpline
70
0
71
3
72
8
73
4
74
0
42
0.000000001
43
0.0000000001
44
0.0000000001
40
-1
40
-1
40
-1
40
-1
40
0
40
0
40
0
40
0
10
-41.089811939769909
20
-47.309682790924796
30
0
10
-41.204638395920163
20
-47.849898793894106
30
0
10
-41.735655228352613
20
-48.194745156991232
30
0
10
-42.275871231321567
20
-48.079918700840956
30
0
0
LINE
5
374
100
AcDbEntity
8
CUTOUTS
100
AcDbLine
10
-42.275871231321567
20
-48.079918700840956
30
0
11
-54.013642440127455
21
-45.584978411027947
31
0
0
SPLINE
5
375
100
AcDbEntity
8
CUTOUTS
100
AcDbSpline
70
0
71
3
72
8
73
4
74
0
42
0.000000001
43
0.0000000001
44
0.0000000001
40
-1
40
-1
40
-1
40
-1
40
0
40
0
40
0
40
0
10
-54.013642440127455
20
-45.584978411027947
30
0
10
-54.044974536620373
20
-45.578318568327667
30
0
10
-54.07596854645373
20
-45.570157124048023
30
0
10
-54.106517263244655
20
-45.560522308125044
30
0
0
LINE
5
376
100
AcDbEntity
8
CUTOUTS
100
AcDbLine
10
-54.106517263244655
20
-45.560522308125044
30
0
11
-56.305083448592285
21
-45.093202639163721
31
0
0
SPLINE
5
377
100
AcDbEntity
8
CUTOUTS
100
AcDbSpline
70
0
71
3
72
8
73
4
74
0
42
0.000000001
43
0.0000000001
44
0.0000000001
40
-1
40
-1
40
-1
40
-1
40
0
40
0
40
0
40
0
10
-56.305083448592285
20
-45.093202639163721
30
0
10
-56.845243207187188
20
-44.978388138123861
30
0
10
-57.190084926654862
20
-44.447464033106272
30
0
10
-57.075349961347698
20
-43.907287374789945
30
0
0
SPLINE
5
378
100
AcDbEntity
8
CUTOUTS
100
AcDbSpline
70
0
71
3
72
8
73
4
74
0
42
0.000000001
43
0.0000000001
44
0.0000000001
40
-1
40
-1
40
-1
40
-1
40
0
40
0
40
0
40
0
10
-57.075349961347698
20
-43.907287374789945
30
0
10
-57.10665707045063
20
-43.903673885385231
30
0
10
-57.137775861052816
20
-43.898582453118955
30
0
10
-57.168602138633133
20
-43.892030125547521
30
0
0
LINE
5
379
100
AcDbEntity
8
CUTOUTS
100
AcDbLine
10
-57.168602138633148
20
-43.892030125547521
30
0
11
-62.05934014229841
21
-42.852471671459099
31
0
0
SPLINE
5
37A
100
AcDbEntity
8
CUTOUTS
100
AcDbSpline
70
0
71
3
72
8
73
4
74
0
42
0.000000001
43
0.0000000001
44
0.0000000001
40
-1
40
-1
40
-1
40
-1
40
0
40
0
40
0
40
0
10
-62.05934014229841
20
-42.852471671459099
30
0
10
-62.098260611933981
20
-42.844198870255575
30
0
10
-62.136652627783029
20
-42.833610478139683
30
0
10
-62.174311409064472
20
-42.820762972981186
30
0
0
LINE
5
37B
100
AcDbEntity
8
CUTOUTS
100
AcDbLine
10
-62.174311409064472
20
-42.820762972981186
30
0
11
-64.345370633518172
21
-42.359290089048791
31
0
0
SPLINE
5
37C
100
AcDbEntity
8
CUTOUTS
100
AcDbSpline
70
0
71
3
72
8
73
4
74
0
42
0.000000001
43
0.0000000001
44
0.0000000001
40
-1
40
-1
40
-1
40
-1
40
0
40
0
40
0
40
0
10
-64.345370633518172
20
-42.359290089048791
30
0
10
-64.885586636486522
20
-42.244463632898515
30
0
10
-65.23043299958394
20
-41.713446800466443
30
0
10
-65.115606543434609
20
-41.17323079749778
30
0
0
LINE
5
37D
100
AcDbEntity
8
CUTOUTS
100
AcDbLine
10
-65.115606543434581
20
-41.17323079749778
30
0
11
-62.412754562803485
21
-28.457311987956743
31
0
0
SPLINE
5
37E
100
AcDbEntity
8
CUTOUTS
100
AcDbSpline
70
0
71
3
72
8
73
4
74
0
42
0.000000001
43
0.0000000001
44
0.0000000001
40
-1
40
-1
40
-1
40
-1
40
0
40
0
40
0
40
0
10
-62.412754562803485
20
-28.457311987956743
30
0
10
-62.297928106652932
20
-27.917095984988727
30
0
10
-61.766911274220533
20
-27.572249621891601
30
0
10
-61.226695271251842
20
-27.687076078042523
30
0
0
LINE
5
37F
100
AcDbEntity
8
CUTOUTS
100
AcDbLine
10
-61.226695271251842
20
-27.687076078042526
30
0
11
-56.335957267582074
21
-28.726634532131598
31
0
0
SPLINE
5
380
100
AcDbEntity
8
CUTOUTS
100
AcDbSpline
70
0
71
3
72
8
73
4
74
0
42
0.000000001
43
0.0000000001
44
0.0000000001
40
-1
40
-1
40
-1
40
-1
40
0
40
0
40
0
40
0
10
-56.335957267582074
20
-28.726634532131598
30
0
10
-56.297036797951009
20
-28.734907333334469
30
0
10
-56.258644782106458
20
-28.745495725448436
30
0
10
-56.220986000829498
20
-28.758343230605647
30
0
0
LINE
5
381
100
AcDbEntity
8
CUTOUTS
100
AcDbLine
10
-56.220986000829484
20
-28.758343230605647
30
0
11
-54.049926776365581
21
-29.219816114539981
31
0
0
SPLINE
5
382
100
AcDbEntity
8
CUTOUTS
100
AcDbSpline
70
0
71
3
72
8
73
4
74
0
42
0.000000001
43
0.0000000001
44
0.0000000001
40
-1
40
-1
40
-1
40
-1
40
0
40
0
40
0
40
0
10
-54.049926776365581
20
-29.219816114539981
30
0
10
-53.509710773397231
20
-29.334642570690249
30
0
10
-53.164864410299764
20
-29.865659403122301
30
0
10
-53.279690866449769
20
-30.405875406090985
30
0
0
LINE
5
383
100
AcDbEntity
8
CUTOUTS
100
AcDbLine
10
-53.279690866449783
20
-30.405875406090985
30
0
11
-53.487571943611755
21
-31.383878980896071
31
0
0
SPLINE
5
384
100
AcDbEntity
8
CUTOUTS
100
AcDbSpline
70
0
71
3
72
8
73
4
74
0
42
0.000000001
43
0.0000000001
44
0.0000000001
40
-1
40
-1
40
-1
40
-1
40
0
40
0
40
0
40
0
10
-53.487571943611755
20
-31.383878980896071
30
0
10
-53.456264838155931
20
-31.387492470225069
30
0
10
-53.425146051171311
20
-31.392583902073582
30
0
10
-53.39431977714375
20
-31.399136228890384
30
0
0
LINE
5
385
100
AcDbEntity
8
CUTOUTS
100
AcDbLine
10
-53.394319777143728
20
-31.399136228890384
30
0
11
-41.656548568339211
21
-33.894076518702747
31
0
0
SPLINE
5
386
100
AcDbEntity
8
CUTOUTS
100
AcDbSpline
70
0
71
3
72
8
73
4
74
0
42
0.000000001
43
0.0000000001
44
0.0000000001
40
-1
40
-1
40
-1
40
-1
40
0
40
0
40
0
40
0
10
-41.656548568339211
20
-33.894076518702747
30
0
10
-41.625216471846223
20
-33.900736361403688
30
0
10
-41.594222462012915
20
-33.90889780568331
30
0
10
-41.563673745221941
20
-33.918532621606303
30
0
0
LINE
5
387
100
AcDbEntity
8
CUTOUTS
100
AcDbLine
10
-41.563673745221941
20
-33.918532621606303
30
0
11
-39.365107559873032
21
-34.38585229056762
31
0
0
SPLINE
5
388
100
AcDbEntity
8
CUTOUTS
100
AcDbSpline
70
0
71
3
72
8
73
4
74
0
42
0.000000001
43
0.0000000001
44
0.0000000001
40
-1
40
-1
40
-1
40
-1
40
0
40
0
40
0
40
0
10
-39.365107559873032
20
-34.38585229056762
30
0
10
-39.332642367626143
20
-34.392752980205408
30
0
10
-39.300540860739659
20
-34.401265693698313
30
0
10
-39.268922242567577
20
-34.411358820566626
30
0
0
LINE
5
389
100
AcDbEntity
8
CUTOUTS
100
AcDbLine
10
-39.268922242567541
20
-34.411358820566626
30
0
11
-39.058502447682208
21
-33.421411517919744
31
0
0
SPLINE
5
38A
100
AcDbEntity
8
CUTOUTS
100
AcDbSpline
70
0
71
3
72
8
73
4
74
0
42
0.000000001
43
0.0000000001
44
0.0000000001
40
-1
40
-1
40
-1
40
-1
40
0
40
0
40
0
40
0
10
-39.058502447682208
20
-33.421411517919744
30
0
10
-38.943675991530995
20
-32.881195514951735
30
0
10
-38.412659159098332
20
-32.536349151856534
30
0
10
-37.872443156130267
20
-32.651175608007442
30
0
0
LINE
5
38B
100
AcDbEntity
8
CUTOUTS
100
AcDbLine
10
-37.872443156130267
20
-32.651175608007442
30
0
11
-32.981705152451788
21
-33.690734062098443
31
0
0
SPLINE
5
38C
100
AcDbEntity
8
CUTOUTS
100
AcDbSpline
70
0
71
3
72
8
73
4
74
0
42
0.000000001
43
0.0000000001
44
0.0000000001
40
-1
40
-1
40
-1
40
-1
40
0
40
0
40
0
40
0
10
-32.981705152451788
20
-33.690734062098443
30
0
10
-32.942784682820125
20
-33.69900686330196
30
0
10
-32.904392666975006
20
-33.709595255416559
30
0
10
-32.866733885696711
20
-33.722442760573138
30
0
0
LINE
5
38D
100
AcDbEntity
8
CUTOUTS
100
AcDbLine
10
70.020188060230282
20
31.608852089329169
30
0
11
72.515128350043199
21
19.871080880523635
31
0
0
SPLINE
5
38E
100
AcDbEntity
8
CUTOUTS
100
AcDbSpline
70
0
71
3
72
8
73
4
74
0
42
0.000000001
43
0.0000000001
44
0.0000000001
40
-1
40
-1
40
-1
40
-1
40
0
40
0
40
0
40
0
10
72.515128350043199
20
19.871080880523635
30
0
10
72.629954806193524
20
19.330864877554646
30
0
10
72.285108443095709
20
18.799848045122268
30
0
10
71.744892440127046
20
18.685021588971978
30
0
0
LINE
5
38F
100
AcDbEntity
8
CUTOUTS
100
AcDbLine
10
71.744892440127046
20
18.685021588971978
30
0
11
60.007121231321463
21
16.190081299158983
31
0
0
SPLINE
5
390
100
AcDbEntity
8
CUTOUTS
100
AcDbSpline
70
0
71
3
72
8
73
4
74
0
42
0.000000001
43
0.0000000001
44
0.0000000001
40
-1
40
-1
40
-1
40
-1
40
0
40
0
40
0
40
0
10
60.007121231321463
20
16.190081299158983
30
0
10
59.466905228352225
20
16.075254843008693
30
0
10
58.935888395920131
20
16.420101206106168
30
0
10
58.821061939769805
20
16.96031720907478
30
0
0
LINE
5
391
100
AcDbEntity
8
CUTOUTS
100
AcDbLine
10
58.821061939769805
20
16.960317209074802
30
0
11
56.326121649956775
21
28.698088417880648
31
0
0
SPLINE
5
392
100
AcDbEntity
8
CUTOUTS
100
AcDbSpline
70
0
71
3
72
8
73
4
74
0
42
0.000000001
43
0.0000000001
44
0.0000000001
40
-1
40
-1
40
-1
40
-1
40
0
40
0
40
0
40
0
10
56.326121649956775
20
28.698088417880648
30
0
10
56.211295193806663
20
29.238304420849637
30
0
10
56.55614155690369
20
29.769321253282001
30
0
10
57.096357559872999
20
29.884147709432291
30
0
0
LINE
5
393
100
AcDbEntity
8
CUTOUTS
100
AcDbLine
10
57.096357559872999
20
29.884147709432291
30
0
11
68.834128768678539
21
32.379087999245336
31
0
0
SPLINE
5
394
100
AcDbEntity
8
CUTOUTS
100
AcDbSpline
70
0
71
3
72
8
73
4
74
0
42
0.000000001
43
0.0000000001
44
0.0000000001
40
-1
40
-1
40
-1
40
-1
40
0
40
0
40
0
40
0
10
68.834128768678539
20
32.379087999245336
30
0
10
69.374344771647174
20
32.493914455395611
30
0
10
69.905361604079914
20
32.149068092298194
30
0
10
70.020188060230282
20
31.608852089329183
30
0
0
LINE
5
395
100
AcDbEntity
8
CUTOUTS
100
AcDbLine
10
58.471180646148007
20
35.334303878893706
30
0
11
46.733409437342566
21
32.839363589080676
31
0
0
SPLINE
5
396
100
AcDbEntity
8
CUTOUTS
100
AcDbSpline
70
0
71
3
72
8
73
4
74
0
42
0.000000001
43
0.0000000001
44
0.0000000001
40
-1
40
-1
40
-1
40
-1
40
0
40
0
40
0
40
0
10
46.733409437342566
20
32.839363589080676
30
0
10
46.193193434373185
20
32.724537132930422
30
0
10
45.662176601941198
20
33.069383496027839
30
0
10
45.547350145790944
20
33.609599498996509
30
0
0
LINE
5
397
100
AcDbEntity
8
CUTOUTS
100
AcDbLine
10
45.547350145790944
20
33.609599498996523
30
0
11
43.052409855977913
21
45.347370707802341
31
0
0
SPLINE
5
398
100
AcDbEntity
8
CUTOUTS
100
AcDbSpline
70
0
71
3
72
8
73
4
74
0
42
0.000000001
43
0.0000000001
44
0.0000000001
40
-1
40
-1
40
-1
40
-1
40
0
40
0
40
0
40
0
10
43.052409855977913
20
45.347370707802341
30
0
10
42.937583399827624
20
45.887586710770989
30
0
10
43.282429762924721
20
46.418603543203687
30
0
10
43.822645765893427
20
46.533429999353999
30
0
0
LINE
5
399
100
AcDbEntity
8
CUTOUTS
100
AcDbLine
10
43.822645765893427
20
46.533429999353999
30
0
11
55.560416974699507
21
49.028370289167029
31
0
0
SPLINE
5
39A
100
AcDbEntity
8
CUTOUTS
100
AcDbSpline
70
0
71
3
72
8
73
4
74
0
42
0.000000001
43
0.0000000001
44
0.0000000001
40
-1
40
-1
40
-1
40
-1
40
0
40
0
40
0
40
0
10
55.560416974699507
20
49.028370289167029
30
0
10
56.100632977668283
20
49.143196745317283
30
0
10
56.631649810100946
20
48.798350382219901
30
0
10
56.746476266251236
20
48.258134379250912
30
0
0
LINE
5
39B
100
AcDbEntity
8
CUTOUTS
100
AcDbLine
10
56.746476266251236
20
48.25813437925089
30
0
11
59.241416556064266
21
36.520363170445343
31
0
0
SPLINE
5
39C
100
AcDbEntity
8
CUTOUTS
100
AcDbSpline
70
0
71
3
72
8
73
4
74
0
42
0.000000001
43
0.0000000001
44
0.0000000001
40
-1
40
-1
40
-1
40
-1
40
0
40
0
40
0
40
0
10
59.241416556064266
20
36.520363170445343
30
0
10
59.35624301221452
20
35.980147167476375
30
0
10
59.011396649116676
20
35.449130335043975
30
0
10
58.471180646148007
20
35.334303878893706
30
0
0
ARC
5
39D
100
AcDbEntity
8
PERIMETER
100
AcDbCircle
10
96.777218049262615
20
-62.815415350798069
30
0
40
9.6000000000002039
210
0
220
-0
230
1
100
AcDbArc
50
90
51
101.99999999999987
0
LINE
5
39E
100
AcDbEntity
8
PERIMETER
100
AcDbLine
10
96.777218049262615
20
-53.215415350797869
30
0
11
176.169375
21
-53.215415350797841
31
0
0
ARC
5
39F
100
AcDbEntity
8
PERIMETER
100
AcDbCircle
10
176.16937500000006
20
-50.015415350797866
30
0
40
3.1999999999999762
210
0
220
0
230
1
100
AcDbArc
50
-90.000000000001009
51
0
0
LINE
5
3A0
100
AcDbEntity
8
PERIMETER
100
AcDbLine
10
179.36937500000005
20
-50.015415350797838
30
0
11
179.36937499999999
21
65.424584649202131
31
0
0
ARC
5
3A1
100
AcDbEntity
8
PERIMETER
100
AcDbCircle
10
176.16937500000006
20
65.424584649202131
30
0
40
3.1999999999999318
210
0
220
-0
230
1
100
AcDbArc
50
0
51
90.000000000001009
0
LINE
5
3A2
100
AcDbEntity
8
PERIMETER
100
AcDbLine
10
176.169375
20
68.624584649202063
30
0
11
-176.169375
21
68.624584649202191
31
0
0
ARC
5
3A3
100
AcDbEntity
8
PERIMETER
100
AcDbCircle
10
-176.16937500000006
20
65.424584649202203
30
0
40
3.1999999999999851
210
0
220
-0
230
1
100
AcDbArc
50
89.999999999998991
51
180
0
LINE
5
3A4
100
AcDbEntity
8
PERIMETER
100
AcDbLine
10
-179.36937500000002
20
65.424584649202188
30
0
11
-179.36937500000005
21
-50.015415350797888
31
0
0
ARC
5
3A5
100
AcDbEntity
8
PERIMETER
100
AcDbCircle
10
-176.16937500000006
20
-50.015415350797895
30
0
40
3.2000000000000028
210
0
220
0
230
1
100
AcDbArc
50
180
51
270
0
LINE
5
3A6
100
AcDbEntity
8
PERIMETER
100
AcDbLine
10
-176.16937500000006
20
-53.215415350797898
30
0
11
-97.275968049271114
21
-53.215415350797883
31
0
0
ARC
5
3A7
100
AcDbEntity
8
PERIMETER
100
AcDbCircle
10
-97.275968049271086
20
-62.815415350798247
30
0
40
9.6000000000003602
210
0
220
-0
230
1
100
AcDbArc
50
78.000000000000412
51
90.000000000000099
0
LINE
5
3A8
100
AcDbEntity
8
PERIMETER
100
AcDbLine
10
-95.28001581742059
20
-53.425198383753354
30
0
11
-24.759477120696616
21
-68.414801616246748
31
0
0
ARC
5
3A9
100
AcDbEntity
8
PERIMETER
100
AcDbCircle
10
-22.76352488884605
20
-59.024584649201337
30
0
40
9.6000000000008683
210
0
220
0
230
1
100
AcDbArc
50
258.00000000000063
51
269.9999999999996
0
LINE
5
3AA
100
AcDbEntity
8
PERIMETER
100
AcDbLine
10
-22.763524888846121
20
-68.624584649202205
30
0
11
22.264774888837451
21
-68.624584649202205
31
0
0
ARC
5
3AB
100
AcDbEntity
8
PERIMETER
100
AcDbCircle
10
22.26477488883738
20
-59.024584649201131
30
0
40
9.6000000000010743
210
-0
220
0
230
1
100
AcDbArc
50
270.0000000000004
51
281.99999999999903
0
LINE
5
3AC
100
AcDbEntity
8
PERIMETER
100
AcDbLine
10
24.260727120687946
20
-68.414801616246748
30
0
11
94.781265817412105
21
-53.425198383753326
31
0
0
ENDSEC
0
SECTION
2
OBJECTS
0
DICTIONARY
5
C
100
AcDbDictionary
3
ACAD_GROUP
350
D
3
ACAD_MLINESTYLE
350
17
0
DICTIONARY
5
D
100
AcDbDictionary
0
DICTIONARY
5
1A
330
C
100
AcDbDictionary
0
DICTIONARY
5
17
100
AcDbDictionary
0
ENDSEC
0
EOF
