0
SECTION
2
HEADER
9
$INSUNITS
70
4
9
$ACADVER
1
AC1014
9
$HANDSEED
5
FFFF
0
ENDSEC
0
SECTION
2
TABLES
0
TABLE
2
VPORT
5
8
100
AcDbSymbolTable
0
ENDTAB
0
TABLE
2
LTYPE
5
5
100
AcDbSymbolTable
0
LTYPE
5
14
100
AcDbSymbolTableRecord
100
AcDbLinetypeTableRecord
2
BYBLOCK
70
0
0
LTYPE
5
15
100
AcDbSymbolTableRecord
100
AcDbLinetypeTableRecord
2
BYLAYER
70
0
0
ENDTAB
0
TABLE
2
LAYER
5
2
100
AcDbSymbolTable
70
2
0
LAYER
5
50
100
AcDbSymbolTableRecord
100
AcDbLayerTableRecord
2
0
70
0
6
CONTINUOUS
0
ENDTAB
0
TABLE
2
STYLE
5
3
100
AcDbSymbolTable
70
1
0
STYLE
5
11
100
AcDbSymbolTableRecord
100
AcDbTextStyleTableRecord
2
STANDARD
70
0
0
ENDTAB
0
TABLE
2
VIEW
5
6
100
AcDbSymbolTable
70
0
0
ENDTAB
0
TABLE
2
UCS
5
7
100
AcDbSymbolTable
70
0
0
ENDTAB
0
TABLE
2
APPID
5
9
100
AcDbSymbolTable
70
2
0
APPID
5
12
100
AcDbSymbolTableRecord
100
AcDbRegAppTableRecord
2
ACAD
70
0
0
ENDTAB
0
TABLE
2
DIMSTYLE
5
A
100
AcDbSymbolTable
70
1
0
ENDTAB
0
TABLE
2
BLOCK_RECORD
5
1
100
AcDbSymbolTable
70
1
0
BLOCK_RECORD
5
1F
100
AcDbSymbolTableRecord
100
AcDbBlockTableRecord
2
*MODEL_SPACE
0
BLOCK_RECORD
5
1B
100
AcDbSymbolTableRecord
100
AcDbBlockTableRecord
2
*PAPER_SPACE
0
ENDTAB
0
ENDSEC
0
SECTION
2
BLOCKS
0
BLOCK
5
20
100
AcDbEntity
100
AcDbBlockBegin
2
*MODEL_SPACE
0
ENDBLK
5
21
100
AcDbEntity
100
AcDbBlockEnd
0
BLOCK
5
1C
100
AcDbEntity
100
AcDbBlockBegin
2
*PAPER_SPACE
0
ENDBLK
5
1D
100
AcDbEntity
100
AcDbBlockEnd
0
ENDSEC
0
SECTION
2
ENTITIES
0
SPLINE
5
100
100
AcDbEntity
8
0
100
AcDbSpline
70
0
71
3
72
8
73
4
74
0
42
0.000000001
43
0.0000000001
44
0.0000000001
40
0
40
0
40
0
40
0
40
1
40
1
40
1
40
1
10
377.2387500000001
20
25.760000000000058
30
0
10
377.79103474983111
20
25.760000000000058
30
0
10
378.23875000000015
20
26.207715250169137
30
0
10
378.23875000000015
20
26.760000000000097
30
0
0
LINE
5
101
100
AcDbEntity
8
0
100
AcDbLine
10
378.23875000000015
20
121.10000000000001
30
0
11
378.23875000000015
21
26.760000000000097
31
0
0
SPLINE
5
102
100
AcDbEntity
8
0
100
AcDbSpline
70
0
71
3
72
8
73
4
74
0
42
0.000000001
43
0.0000000001
44
0.0000000001
40
0
40
0
40
0
40
0
40
1
40
1
40
1
40
1
10
378.23875000000015
20
121.10000000000001
30
0
10
378.23875000000015
20
121.65228474983101
30
0
10
377.79103474983111
20
122.10000000000011
30
0
10
377.2387500000001
20
122.10000000000011
30
0
0
SPLINE
5
103
100
AcDbEntity
8
0
100
AcDbSpline
70
0
71
3
72
8
73
4
74
0
42
0.000000001
43
0.0000000001
44
0.0000000001
40
0
40
0
40
0
40
0
40
1
40
1
40
1
40
1
10
41.999999999999886
20
122.10000000000011
30
0
10
41.447715250169246
20
122.10000000000011
30
0
10
41.000000000000163
20
121.65228474983101
30
0
10
41.000000000000163
20
121.10000000000001
30
0
0
LINE
5
104
100
AcDbEntity
8
0
100
AcDbLine
10
46.600000000000172
20
25.760000000000048
30
0
11
49.363546265191403
21
25.760000000000048
31
0
0
LINE
5
105
100
AcDbEntity
8
0
100
AcDbLine
10
147.33849500511499
20
18.820876703052456
30
0
11
169.07987223499697
21
14.199604313098016
31
0
0
LINE
5
106
100
AcDbEntity
8
0
100
AcDbLine
10
249.66012776500042
20
14.199604313098014
30
0
11
271.40150499488232
21
18.820876703052448
31
0
0
LINE
5
107
100
AcDbEntity
8
0
100
AcDbLine
10
369.87520373480891
20
25.760000000000048
30
0
11
377.2387500000001
21
25.760000000000058
31
0
0
SPLINE
5
108
100
AcDbEntity
8
0
100
AcDbSpline
70
0
71
3
72
8
73
4
74
0
42
0.000000001
43
0.0000000001
44
0.0000000001
40
0
40
0
40
0
40
0
40
1
40
1
40
1
40
1
10
155.51285773675551
20
20.664893042672901
30
0
10
155.54340645354648
20
20.655258226749922
30
0
10
155.57440046337979
20
20.647096782470285
30
0
10
155.60573255987276
20
20.640436939770002
30
0
0
LINE
5
109
100
AcDbEntity
8
0
100
AcDbLine
10
337.13200000000512
20
46.809999999999832
30
0
11
337.13200000000438
21
45.809999701767609
31
0
0
LINE
5
110
100
AcDbEntity
8
0
100
AcDbLine
10
72.322000000003726
20
45.809999701768248
30
0
11
72.322000000003726
21
58.809999701768064
31
0
0
SPLINE
5
111
100
AcDbEntity
8
0
100
AcDbSpline
70
0
71
3
72
8
73
4
74
0
42
0.000000001
43
0.0000000001
44
0.0000000001
40
0
40
0
40
0
40
0
40
1
40
1
40
1
40
1
10
196.2056387319802
20
44.781350638443698
30
0
10
196.32046518813047
20
45.321566641412367
30
0
10
195.975618825033
20
45.852583473845087
30
0
10
195.43540282206439
20
45.967409929995348
30
0
0
LINE
5
112
100
AcDbEntity
8
0
100
AcDbLine
10
251.34202076589384
20
53.88884535015157
30
0
11
263.07979197469928
21
56.383785639965218
31
0
0
SPLINE
5
113
100
AcDbEntity
8
0
100
AcDbSpline
70
0
71
3
72
8
73
4
74
0
42
0.000000001
43
0.0000000001
44
0.0000000001
40
0
40
0
40
0
40
0
40
1
40
1
40
1
40
1
10
264.26585126625099
20
55.613549730049066
30
0
10
264.15102481010069
20
56.153765733017721
30
0
10
263.62000797766871
20
56.498612096114854
30
0
10
263.07979197469928
20
56.383785639965218
30
0
0
LINE
5
114
100
AcDbEntity
8
0
100
AcDbLine
10
140.30450335004306
20
56.663503768678332
30
0
11
137.80956306023006
21
44.925732559872813
31
0
0
LINE
5
115
100
AcDbEntity
8
0
100
AcDbLine
10
87.76000000000009
20
59.810000000000294
30
0
11
87.76000000000009
21
47.80999999999986
31
0
0
LINE
5
116
100
AcDbEntity
8
0
100
AcDbLine
10
265.94549664995697
20
94.923503768678614
30
0
11
268.44043693976994
21
83.185732559872747
31
0
0
SPLINE
5
117
100
AcDbEntity
8
0
100
AcDbSpline
70
0
71
3
72
8
73
4
74
0
42
0.000000001
43
0.0000000001
44
0.0000000001
40
0
40
0
40
0
40
0
40
1
40
1
40
1
40
1
10
276.51043693976993
20
24.935732559872772
30
0
10
276.62526339592023
20
24.395516556904113
30
0
10
277.1562802283529
20
24.050670193806351
30
0
10
277.69649623132159
20
24.165496649956633
30
0
0
LINE
5
118
100
AcDbEntity
8
0
100
AcDbLine
10
247.31178485597803
20
90.962786058600159
30
0
11
249.80672514579098
21
79.225014849794647
31
0
0
LINE
5
119
100
AcDbEntity
8
0
100
AcDbLine
10
96.198000000003262
20
45.809999701768248
30
0
11
96.198000000003262
21
58.809999701769343
31
0
0
SPLINE
5
120
100
AcDbEntity
8
0
100
AcDbSpline
70
0
71
3
72
8
73
4
74
0
42
0.000000001
43
0.0000000001
44
0.0000000001
40
0
40
0
40
0
40
0
40
1
40
1
40
1
40
1
10
252.71684385216889
20
59.339001519613575
30
0
10
253.25705985513821
20
59.453827975763218
30
0
10
253.60190621823531
20
59.984844808195923
30
0
10
253.48707976208499
20
60.525060811164579
30
0
0
LINE
5
121
100
AcDbEntity
8
0
100
AcDbLine
10
261.00585126625128
20
93.873549730049007
30
0
11
263.50079155606437
21
82.135778521243168
31
0
0
SPLINE
5
122
100
AcDbEntity
8
0
100
AcDbSpline
70
0
71
3
72
8
73
4
74
0
42
0.000000001
43
0.0000000001
44
0.0000000001
40
0
40
0
40
0
40
0
40
1
40
1
40
1
40
1
10
79.620000000000005
20
27.760000000000282
30
0
10
80.172284749830965
20
27.760000000000282
30
0
10
80.620000000000033
20
28.207715250169365
30
0
10
80.620000000000033
20
28.760000000000314
30
0
0
LINE
5
123
100
AcDbEntity
8
0
100
AcDbLine
10
158.93821514402211
20
52.702786058600552
30
0
11
156.44327485420911
21
40.965014849794379
31
0
0
SPLINE
5
124
100
AcDbEntity
8
0
100
AcDbSpline
70
0
71
3
72
8
73
4
74
0
42
0.000000001
43
0.0000000001
44
0.0000000001
40
0
40
0
40
0
40
0
40
1
40
1
40
1
40
1
10
234.80830897191521
20
108.79812764007353
30
0
10
234.26809296894589
20
108.68330118392323
30
0
10
233.9232466058487
20
108.15228435149082
30
0
10
234.03807306199897
20
107.61206834852186
30
0
0
SPLINE
5
125
100
AcDbEntity
8
0
100
AcDbSpline
70
0
71
3
72
8
73
4
74
0
42
0.000000001
43
0.0000000001
44
0.0000000001
40
0
40
0
40
0
40
0
40
1
40
1
40
1
40
1
10
306.17000000000007
20
85.90999999999994
30
0
10
306.17000000000007
20
85.357715250169292
30
0
10
306.61771525016923
20
84.909999999999883
30
0
10
307.17000000000019
20
84.909999999999883
30
0
0
LINE
5
126
100
AcDbEntity
8
0
100
AcDbLine
10
147.20662043719668
20
37.768103362841202
30
0
11
144.50376845656558
21
25.052184553300165
31
0
0
SPLINE
5
127
100
AcDbEntity
8
0
100
AcDbSpline
70
0
71
3
72
8
73
4
74
0
42
0.000000001
43
0.0000000001
44
0.0000000001
40
0
40
0
40
0
40
0
40
1
40
1
40
1
40
1
10
244.0968438521692
20
76.989001519613382
30
0
10
244.63705985513781
20
77.103827975763664
30
0
10
244.98190621823562
20
77.634844808196078
30
0
10
244.86707976208527
20
78.175060811164741
30
0
0
SPLINE
5
128
100
AcDbEntity
8
0
100
AcDbSpline
70
0
71
3
72
8
73
4
74
0
42
0.000000001
43
0.0000000001
44
0.0000000001
40
0
40
0
40
0
40
0
40
1
40
1
40
1
40
1
10
256.70202076589391
20
74.498845350151683
30
0
10
256.16180476292521
20
74.384018894001713
30
0
10
255.81695839982734
20
73.853002061569015
30
0
10
255.9317848559777
20
73.312786058600366
30
0
0
SPLINE
5
129
100
AcDbEntity
8
0
100
AcDbSpline
70
0
71
3
72
8
73
4
74
0
42
0.000000001
43
0.0000000001
44
0.0000000001
40
0
40
0
40
0
40
0
40
1
40
1
40
1
40
1
10
251.34202076589384
20
53.88884535015157
30
0
10
250.8018047629252
20
53.774018894001927
30
0
10
250.45695839982739
20
53.243002061569207
30
0
10
250.57178485597771
20
52.702786058600552
30
0
0
SPLINE
5
130
100
AcDbEntity
8
0
100
AcDbSpline
70
0
71
3
72
8
73
4
74
0
42
0.000000001
43
0.0000000001
44
0.0000000001
40
0
40
0
40
0
40
0
40
1
40
1
40
1
40
1
10
337.72199999999606
20
67.860000298231967
30
0
10
337.72199999999606
20
67.307715548401021
30
0
10
338.16971525016527
20
66.860000298231299
30
0
10
338.72199999999623
20
66.860000298231299
30
0
0
SPLINE
5
131
100
AcDbEntity
8
0
100
AcDbSpline
70
0
71
3
72
8
73
4
74
0
42
0.000000001
43
0.0000000001
44
0.0000000001
40
0
40
0
40
0
40
0
40
1
40
1
40
1
40
1
10
66.619999999999862
20
28.760000000000314
30
0
10
66.620000000000189
20
28.207715250169365
30
0
10
67.067715250169258
20
27.760000000000282
30
0
10
67.619999999999891
20
27.760000000000282
30
0
0
LINE
5
132
100
AcDbEntity
8
0
100
AcDbLine
10
177.57192693800113
20
48.74206834852211
30
0
11
175.0769866481881
21
37.004297139715952
31
0
0
SPLINE
5
133
100
AcDbEntity
8
0
100
AcDbSpline
70
0
71
3
72
8
73
4
74
0
42
0.000000001
43
0.0000000001
44
0.0000000001
40
0
40
0
40
0
40
0
40
1
40
1
40
1
40
1
10
229.09842767829329
20
106.56211430989229
30
0
10
228.98360122214299
20
107.10233031286094
30
0
10
228.4525843897103
20
107.44717667595837
30
0
10
227.91236838674169
20
107.33235021980811
30
0
0
SPLINE
5
134
100
AcDbEntity
8
0
100
AcDbSpline
70
0
71
3
72
8
73
4
74
0
42
0.000000001
43
0.0000000001
44
0.0000000001
40
0
40
0
40
0
40
0
40
1
40
1
40
1
40
1
10
253.06672514579071
20
40.965014849794379
30
0
10
253.18155160194098
20
40.424798846825723
30
0
10
253.71256843437374
20
40.07995248372859
30
0
10
254.25278443734229
20
40.194778939878233
30
0
0
SPLINE
5
135
100
AcDbEntity
8
0
100
AcDbSpline
70
0
71
3
72
8
73
4
74
0
42
0.000000001
43
0.0000000001
44
0.0000000001
40
0
40
0
40
0
40
0
40
1
40
1
40
1
40
1
10
297.1599999999998
20
79.860000000000198
30
0
10
296.60771525016952
20
79.860000000000198
30
0
10
296.1599999999998
20
79.412284749830789
30
0
10
296.1599999999998
20
78.860000000000156
30
0
0
LINE
5
136
100
AcDbEntity
8
0
100
AcDbLine
10
147.44506359093572
20
23.40465237781676
30
0
11
145.27400436648205
21
23.866125261749154
31
0
0
LINE
5
137
100
AcDbEntity
8
0
100
AcDbLine
10
272.88649623132136
20
44.15549664995666
30
0
11
284.62426744012691
21
46.650436939769655
31
0
0
SPLINE
5
138
100
AcDbEntity
8
0
100
AcDbSpline
70
0
71
3
72
8
73
4
74
0
42
0.000000001
43
0.0000000001
44
0.0000000001
40
0
40
0
40
0
40
0
40
1
40
1
40
1
40
1
10
346.16000000000014
20
66.860000000000056
30
0
10
346.16000000000014
20
66.307715250169096
30
0
10
346.60771525016935
20
65.860000000000028
30
0
10
347.16000000000031
20
65.860000000000028
30
0
0
LINE
5
139
100
AcDbEntity
8
0
100
AcDbLine
10
307.17000000000019
20
84.909999999999883
30
0
11
319.16999999999996
21
84.909999999999883
31
0
0
LINE
5
140
100
AcDbEntity
8
0
100
AcDbLine
10
67.619999999999891
20
27.760000000000282
30
0
11
79.620000000000005
21
27.760000000000282
31
0
0
SPLINE
5
141
100
AcDbEntity
8
0
100
AcDbSpline
70
0
71
3
72
8
73
4
74
0
42
0.000000001
43
0.0000000001
44
0.0000000001
40
0
40
0
40
0
40
0
40
1
40
1
40
1
40
1
10
144.50376845656558
20
25.052184553300165
30
0
10
144.38894200041625
20
24.511968550331503
30
0
10
144.7337883635137
20
23.980951717899433
30
0
10
145.27400436648205
20
23.866125261749154
30
0
0
LINE
5
142
100
AcDbEntity
8
0
100
AcDbLine
10
216.17459717793608
20
104.83740992999508
30
0
11
227.91236838674169
21
107.33235021980811
31
0
0
LINE
5
143
100
AcDbEntity
8
0
100
AcDbLine
10
274.0154966499569
20
36.673503768678302
30
0
11
276.51043693976993
21
24.935732559872772
31
0
0
LINE
5
144
100
AcDbEntity
8
0
100
AcDbLine
10
326.21999999999969
20
98.910000000000068
30
0
11
338.22000000000014
21
98.910000000000068
31
0
0
LINE
5
145
100
AcDbEntity
8
0
100
AcDbLine
10
89.198000000006232
20
58.809999701768064
30
0
11
89.198000000005919
21
45.809999701768248
31
0
0
SPLINE
5
146
100
AcDbEntity
8
0
100
AcDbSpline
70
0
71
3
72
8
73
4
74
0
42
0.000000001
43
0.0000000001
44
0.0000000001
40
0
40
0
40
0
40
0
40
1
40
1
40
1
40
1
10
329.20999999999981
20
78.860000000000156
30
0
10
329.20999999999981
20
79.412284749830789
30
0
10
328.76228474983071
20
79.860000000000198
30
0
10
328.20999999999981
20
79.860000000000198
30
0
0
LINE
5
147
100
AcDbEntity
8
0
100
AcDbLine
10
279.63956306023044
20
97.834267440127121
30
0
11
282.13450335004336
21
86.096496231321581
31
0
0
LINE
5
148
100
AcDbEntity
8
0
100
AcDbLine
10
326.21999999999969
20
84.909999999999883
30
0
11
338.22000000000014
21
84.909999999999883
31
0
0
SPLINE
5
149
100
AcDbEntity
8
0
100
AcDbSpline
70
0
71
3
72
8
73
4
74
0
42
0.000000001
43
0.0000000001
44
0.0000000001
40
0
40
0
40
0
40
0
40
1
40
1
40
1
40
1
10
80.620000000000033
20
40.760000000000105
30
0
10
80.620000000000033
20
41.312284749831051
30
0
10
80.172284749830965
20
41.760000000000126
30
0
10
79.620000000000005
20
41.760000000000126
30
0
0
LINE
5
150
100
AcDbEntity
8
0
100
AcDbLine
10
228.67807306199899
20
87.002068348521732
30
0
11
231.17301335181199
21
75.26429713971622
31
0
0
LINE
5
151
100
AcDbEntity
8
0
100
AcDbLine
10
145.24414873374877
20
55.613549730049066
30
0
11
142.74920844393577
21
43.875778521243532
31
0
0
LINE
5
152
100
AcDbEntity
8
0
100
AcDbLine
10
254.25278443734229
20
40.194778939878233
30
0
11
265.99055564614781
21
42.689719229691875
31
0
0
LINE
5
153
100
AcDbEntity
8
0
100
AcDbLine
10
250.99278443734272
20
78.454778939878494
30
0
11
262.73055564614816
21
80.94971922969151
31
0
0
LINE
5
154
100
AcDbEntity
8
0
100
AcDbLine
10
223.73842767829331
20
85.952114309892153
30
0
11
226.23336796810628
21
74.214343101086627
31
0
0
SPLINE
5
155
100
AcDbEntity
8
0
100
AcDbSpline
70
0
71
3
72
8
73
4
74
0
42
0.000000001
43
0.0000000001
44
0.0000000001
40
0
40
0
40
0
40
0
40
1
40
1
40
1
40
1
10
262.73055564614816
20
80.94971922969151
30
0
10
263.27077164911691
20
81.064545685841779
30
0
10
263.61561801221461
20
81.595562518274505
30
0
10
263.50079155606437
20
82.135778521243168
30
0
0
LINE
5
156
100
AcDbEntity
8
0
100
AcDbLine
10
210.04436126801988
20
83.041350638443632
30
0
11
212.53930155783286
21
71.303579429637779
31
0
0
SPLINE
5
157
100
AcDbEntity
8
0
100
AcDbSpline
70
0
71
3
72
8
73
4
74
0
42
0.000000001
43
0.0000000001
44
0.0000000001
40
0
40
0
40
0
40
0
40
1
40
1
40
1
40
1
10
325.21999999999969
20
85.90999999999994
30
0
10
325.21999999999969
20
85.357715250169292
30
0
10
325.66771525016946
20
84.909999999999883
30
0
10
326.21999999999969
20
84.909999999999883
30
0
0
LINE
5
158
100
AcDbEntity
8
0
100
AcDbLine
10
155.56944822363459
20
37.005599236257972
30
0
11
153.39838899917069
21
37.467072120192299
31
0
0
LINE
5
159
100
AcDbEntity
8
0
100
AcDbLine
10
118.71000000000006
20
59.810000000000294
30
0
11
118.71000000000006
21
47.80999999999986
31
0
0
SPLINE
5
160
100
AcDbEntity
8
0
100
AcDbSpline
70
0
71
3
72
8
73
4
74
0
42
0.000000001
43
0.0000000001
44
0.0000000001
40
0
40
0
40
0
40
0
40
1
40
1
40
1
40
1
10
255.13734907157598
20
36.234921780429453
30
0
10
255.02252261542569
20
36.775137783398115
30
0
10
254.49150578299361
20
37.119984146495241
30
0
10
253.95128978002489
20
37.005157690345605
30
0
0
LINE
5
161
100
AcDbEntity
8
0
100
AcDbLine
10
234.03807306199897
20
107.61206834852186
30
0
11
236.53301335181197
21
95.874297139716319
31
0
0
SPLINE
5
162
100
AcDbEntity
8
0
100
AcDbSpline
70
0
71
3
72
8
73
4
74
0
42
0.000000001
43
0.0000000001
44
0.0000000001
40
0
40
0
40
0
40
0
40
1
40
1
40
1
40
1
10
65.322000000004749
20
45.809999701768248
30
0
10
65.322000000004749
20
45.257714951937288
30
0
10
65.769715250174158
20
44.809999701768206
30
0
10
66.322000000004806
20
44.809999701768206
30
0
0
LINE
5
163
100
AcDbEntity
8
0
100
AcDbLine
10
360.16000000000008
20
78.860000000000156
30
0
11
360.16000000000008
21
66.860000000000056
31
0
0
LINE
5
164
100
AcDbEntity
8
0
100
AcDbLine
10
237.29807306199871
20
69.352068348521939
30
0
11
239.79301335181168
21
57.614297139716072
31
0
0
LINE
5
165
100
AcDbEntity
8
0
100
AcDbLine
10
278.24649623132137
20
64.765496649956788
30
0
11
289.98426744012698
21
67.260436939770102
31
0
0
LINE
5
166
100
AcDbEntity
8
0
100
AcDbLine
10
288.54000000000008
20
99.969999999999985
30
0
11
300.53999999999985
21
99.969999999999985
31
0
0
LINE
5
167
100
AcDbEntity
8
0
100
AcDbLine
10
287.70956306023021
20
39.584267440127462
30
0
11
290.20450335004324
21
27.846496231321932
31
0
0
LINE
5
168
100
AcDbEntity
8
0
100
AcDbLine
10
288.54000000000008
20
85.970000000000113
30
0
11
300.53999999999985
21
85.970000000000113
31
0
0
LINE
5
169
100
AcDbEntity
8
0
100
AcDbLine
10
121.26043693977003
20
80.184267440127286
30
0
11
118.7654966499567
21
68.446496231321433
31
0
0
SPLINE
5
170
100
AcDbEntity
8
0
100
AcDbSpline
70
0
71
3
72
8
73
4
74
0
42
0.000000001
43
0.0000000001
44
0.0000000001
40
0
40
0
40
0
40
0
40
1
40
1
40
1
40
1
10
203.43563873198019
20
101.67135063844376
30
0
10
203.55046518813049
20
102.21156664141242
30
0
10
203.2056188250331
20
102.74258347384514
30
0
10
202.66540282206438
20
102.85740992999507
30
0
0
LINE
5
171
100
AcDbEntity
8
0
100
AcDbLine
10
121.80043693976987
20
39.584267440127462
30
0
11
119.30549664995684
21
27.846496231321289
31
0
0
LINE
5
172
100
AcDbEntity
8
0
100
AcDbLine
10
120.07573255987299
20
26.660436939769639
30
0
11
131.81350376867852
21
24.165496649956633
31
0
0
LINE
5
173
100
AcDbEntity
8
0
100
AcDbLine
10
119.53573255987286
20
67.260436939770102
30
0
11
131.27350376867869
21
64.765496649956788
31
0
0
LINE
5
174
100
AcDbEntity
8
0
100
AcDbLine
10
259.61278443734238
20
60.804778939878361
30
0
11
271.35055564614788
21
63.299719229691362
31
0
0
LINE
5
175
100
AcDbEntity
8
0
100
AcDbLine
10
361.59799999999763
20
80.8600002982337
30
0
11
361.59799999999763
21
67.860000298231967
31
0
0
LINE
5
176
100
AcDbEntity
8
0
100
AcDbLine
10
203.43563873198019
20
101.67135063844376
30
0
11
200.94069844216719
21
89.933579429637902
31
0
0
LINE
5
177
100
AcDbEntity
8
0
100
AcDbLine
10
315.21000000000004
20
78.860000000000156
30
0
11
315.21000000000004
21
66.860000000000056
31
0
0
LINE
5
178
100
AcDbEntity
8
0
100
AcDbLine
10
232.35842767829297
20
68.302114309892332
30
0
11
234.85336796810597
21
56.564343101086799
31
0
0
LINE
5
179
100
AcDbEntity
8
0
100
AcDbLine
10
112.93999999999996
20
120.10000000000014
30
0
11
124.94000000000007
21
120.10000000000014
31
0
0
LINE
5
180
100
AcDbEntity
8
0
100
AcDbLine
10
346.16000000000014
20
78.860000000000156
30
0
11
346.16000000000014
21
66.860000000000056
31
0
0
SPLINE
5
181
100
AcDbEntity
8
0
100
AcDbSpline
70
0
71
3
72
8
73
4
74
0
42
0.000000001
43
0.0000000001
44
0.0000000001
40
0
40
0
40
0
40
0
40
1
40
1
40
1
40
1
10
121.74649623132166
20
100.58450335004326
30
0
10
121.20628022835268
20
100.69932980619356
30
0
10
120.67526339592028
20
100.35448344309611
30
0
10
120.56043693977001
20
99.814267440127452
30
0
0
LINE
5
182
100
AcDbEntity
8
0
100
AcDbLine
10
118.83573255987284
20
86.890436939769927
30
0
11
130.57350376867868
21
84.395496649956939
31
0
0
LINE
5
183
100
AcDbEntity
8
0
100
AcDbLine
10
337.72199999999606
20
80.860000298231796
30
0
11
337.72199999999606
21
67.860000298231967
31
0
0
SPLINE
5
184
100
AcDbEntity
8
0
100
AcDbSpline
70
0
71
3
72
8
73
4
74
0
42
0.000000001
43
0.0000000001
44
0.0000000001
40
0
40
0
40
0
40
0
40
1
40
1
40
1
40
1
10
179.693936248672
20
30.855440414742041
30
0
10
179.80876270482199
20
31.395656417710704
30
0
10
179.46391634172485
20
31.926673250142773
30
0
10
178.92370033875619
20
32.041499706293052
30
0
0
SPLINE
5
185
100
AcDbEntity
8
0
100
AcDbSpline
70
0
71
3
72
8
73
4
74
0
42
0.000000001
43
0.0000000001
44
0.0000000001
40
0
40
0
40
0
40
0
40
1
40
1
40
1
40
1
10
289.43426744012709
20
26.660436939770278
30
0
10
289.97448344309578
20
26.775263395920561
30
0
10
290.31932980619354
20
27.306280228352627
30
0
10
290.20450335004324
20
27.846496231321932
30
0
0
SPLINE
5
186
100
AcDbEntity
8
0
100
AcDbSpline
70
0
71
3
72
8
73
4
74
0
42
0.000000001
43
0.0000000001
44
0.0000000001
40
0
40
0
40
0
40
0
40
1
40
1
40
1
40
1
10
214.07459717793571
20
45.967409929995348
30
0
10
213.53438117496708
20
45.852583473845087
30
0
10
213.18953481186998
20
45.321566641412367
30
0
10
213.30436126801959
20
44.781350638443698
30
0
0
SPLINE
5
187
100
AcDbEntity
8
0
100
AcDbSpline
70
0
71
3
72
8
73
4
74
0
42
0.000000001
43
0.0000000001
44
0.0000000001
40
0
40
0
40
0
40
0
40
1
40
1
40
1
40
1
10
226.9984276782929
20
47.692114309892219
30
0
10
226.8836012221426
20
48.232330312860867
30
0
10
226.35258438971056
20
48.57717667595864
30
0
10
225.8123683867413
20
48.462350219808371
30
0
0
SPLINE
5
188
100
AcDbEntity
8
0
100
AcDbSpline
70
0
71
3
72
8
73
4
74
0
42
0.000000001
43
0.0000000001
44
0.0000000001
40
0
40
0
40
0
40
0
40
1
40
1
40
1
40
1
10
310.84999999999991
20
60.810000000000322
30
0
10
310.29771525016895
20
60.810000000000322
30
0
10
309.84999999999991
20
60.362284749830607
30
0
10
309.84999999999991
20
59.810000000000294
30
0
0
LINE
5
189
100
AcDbEntity
8
0
100
AcDbLine
10
231.93807306199858
20
48.74206834852211
30
0
11
234.43301335181158
21
37.004297139715952
31
0
0
SPLINE
5
190
100
AcDbEntity
8
0
100
AcDbSpline
70
0
71
3
72
8
73
4
74
0
42
0.000000001
43
0.0000000001
44
0.0000000001
40
0
40
0
40
0
40
0
40
1
40
1
40
1
40
1
10
176.75264111430349
20
32.502972590224807
30
0
10
176.7149823330252
20
32.515820095381386
30
0
10
176.67659031718006
20
32.526408487495985
30
0
10
176.63766984754835
20
32.534681288699502
30
0
0
SPLINE
5
191
100
AcDbEntity
8
0
100
AcDbSpline
70
0
71
3
72
8
73
4
74
0
42
0.000000001
43
0.0000000001
44
0.0000000001
40
0
40
0
40
0
40
0
40
1
40
1
40
1
40
1
10
309.84999999999991
20
47.80999999999986
30
0
10
309.84999999999991
20
47.257715250168914
30
0
10
310.29771525016957
20
46.809999999999832
30
0
10
310.84999999999991
20
46.809999999999832
30
0
0
SPLINE
5
192
100
AcDbEntity
8
0
100
AcDbSpline
70
0
71
3
72
8
73
4
74
0
42
0.000000001
43
0.0000000001
44
0.0000000001
40
0
40
0
40
0
40
0
40
1
40
1
40
1
40
1
10
234.43301335181158
20
37.004297139715952
30
0
10
234.54783980796185
20
36.464081136747296
30
0
10
235.07885664039458
20
36.119234773650163
30
0
10
235.6190726433633
20
36.234061229800446
30
0
0
SPLINE
5
193
100
AcDbEntity
8
0
100
AcDbSpline
70
0
71
3
72
8
73
4
74
0
42
0.000000001
43
0.0000000001
44
0.0000000001
40
0
40
0
40
0
40
0
40
1
40
1
40
1
40
1
10
167.3435037686786
20
18.145496649956989
30
0
10
167.88371977164758
20
18.030670193806714
30
0
10
168.41473660407999
20
18.375516556903836
30
0
10
168.52956306023026
20
18.915732559873142
30
0
0
SPLINE
5
194
100
AcDbEntity
8
0
100
AcDbSpline
70
0
71
3
72
8
73
4
74
0
42
0.000000001
43
0.0000000001
44
0.0000000001
40
0
40
0
40
0
40
0
40
1
40
1
40
1
40
1
10
192.52463915061549
20
32.273343519722012
30
0
10
193.06485515358446
20
32.158517063571736
30
0
10
193.59587198601687
20
32.503363426669502
30
0
10
193.7106984421672
20
33.043579429638164
30
0
0
SPLINE
5
195
100
AcDbEntity
8
0
100
AcDbSpline
70
0
71
3
72
8
73
4
74
0
42
0.000000001
43
0.0000000001
44
0.0000000001
40
0
40
0
40
0
40
0
40
1
40
1
40
1
40
1
10
309.1600000000002
20
65.860000000000028
30
0
10
309.71228474983116
20
65.860000000000028
30
0
10
310.16000000000031
20
66.307715250169096
30
0
10
310.16000000000031
20
66.860000000000056
30
0
0
SPLINE
5
196
100
AcDbEntity
8
0
100
AcDbSpline
70
0
71
3
72
8
73
4
74
0
42
0.000000001
43
0.0000000001
44
0.0000000001
40
0
40
0
40
0
40
0
40
1
40
1
40
1
40
1
10
170.79931570608011
20
18.440552847845421
30
0
10
170.83697448735387
20
18.427705342690771
30
0
10
170.87536650319487
20
18.417116950577451
30
0
10
170.91428697282203
20
18.408844149375216
30
0
0
SPLINE
5
197
100
AcDbEntity
8
0
100
AcDbSpline
70
0
71
3
72
8
73
4
74
0
42
0.000000001
43
0.0000000001
44
0.0000000001
40
0
40
0
40
0
40
0
40
1
40
1
40
1
40
1
10
170.35045275743261
20
31.814056530231323
30
0
10
170.31883413926053
20
31.824149657099632
30
0
10
170.28673263237403
20
31.832662370592537
30
0
10
170.25426744012714
20
31.839563060230319
30
0
0
LINE
5
198
100
AcDbEntity
8
0
100
AcDbLine
10
329.20999999999981
20
78.860000000000156
30
0
11
329.20999999999981
21
66.860000000000056
31
0
0
LINE
5
199
100
AcDbEntity
8
0
100
AcDbLine
10
291.79999999999973
20
46.809999999999832
30
0
11
303.80000000000018
21
46.809999999999832
31
0
0
LINE
5
200
100
AcDbEntity
8
0
100
AcDbLine
10
168.5320711642965
20
18.927532261781309
30
0
11
168.52956306023026
21
18.915732559873142
31
0
0
LINE
5
201
100
AcDbEntity
8
0
100
AcDbLine
10
176.63766984754835
20
32.534681288699502
30
0
11
171.7469318438699
21
33.574239742790503
31
0
0
LINE
5
202
100
AcDbEntity
8
0
100
AcDbLine
10
304.80000000000018
20
59.810000000000294
30
0
11
304.80000000000018
21
47.80999999999986
31
0
0
SPLINE
5
203
100
AcDbEntity
8
0
100
AcDbSpline
70
0
71
3
72
8
73
4
74
0
42
0.000000001
43
0.0000000001
44
0.0000000001
40
0
40
0
40
0
40
0
40
1
40
1
40
1
40
1
10
247.29956306022939
20
32.524267440127666
30
0
10
247.1847366040798
20
33.064483443096321
30
0
10
246.65371977164708
20
33.409329806193448
30
0
10
246.11350376867841
20
33.294503350043804
30
0
0
LINE
5
204
100
AcDbEntity
8
0
100
AcDbLine
10
297.1599999999998
20
65.860000000000028
30
0
11
309.1600000000002
21
65.860000000000028
31
0
0
LINE
5
205
100
AcDbEntity
8
0
100
AcDbLine
10
245.63213947227197
20
51.652832019970631
30
0
11
248.12707976208497
21
39.915060811165105
31
0
0
LINE
5
206
100
AcDbEntity
8
0
100
AcDbLine
10
226.9984276782929
20
47.692114309892219
30
0
11
229.49336796810658
21
35.954343101086685
31
0
0
SPLINE
5
207
100
AcDbEntity
8
0
100
AcDbSpline
70
0
71
3
72
8
73
4
74
0
42
0.000000001
43
0.0000000001
44
0.0000000001
40
0
40
0
40
0
40
0
40
1
40
1
40
1
40
1
10
180.01663203189381
20
35.954343101086685
30
0
10
179.90180557574354
20
35.414127098118009
30
0
10
180.24665193884101
20
34.883110265685303
30
0
10
180.78686794180996
20
34.768283809535021
30
0
0
LINE
5
208
100
AcDbEntity
8
0
100
AcDbLine
10
255.9317848559777
20
73.312786058600366
30
0
11
258.42672514579073
21
61.575014849794492
31
0
0
LINE
5
209
100
AcDbEntity
8
0
100
AcDbLine
10
112.93999999999996
20
106.09999999999998
30
0
11
124.94000000000007
21
106.09999999999998
31
0
0
LINE
5
210
100
AcDbEntity
8
0
100
AcDbLine
10
250.99213947227199
20
72.262832019970432
30
0
11
253.48707976208499
21
60.525060811164579
31
0
0
LINE
5
211
100
AcDbEntity
8
0
100
AcDbLine
10
277.69649623132159
20
24.165496649956633
30
0
11
289.43426744012709
21
26.660436939770278
31
0
0
LINE
5
212
100
AcDbEntity
8
0
100
AcDbLine
10
218.6643612680196
20
65.391350638443825
30
0
11
221.15930155783269
21
53.653579429637645
31
0
0
LINE
5
213
100
AcDbEntity
8
0
100
AcDbLine
10
288.25956306023005
20
80.184267440127286
30
0
11
290.75450335004302
21
68.446496231321433
31
0
0
SPLINE
5
214
100
AcDbEntity
8
0
100
AcDbSpline
70
0
71
3
72
8
73
4
74
0
42
0.000000001
43
0.0000000001
44
0.0000000001
40
0
40
0
40
0
40
0
40
1
40
1
40
1
40
1
10
228.72313205819037
20
34.768283809535021
30
0
10
229.26334806115909
20
34.883110265685303
30
0
10
229.6081944242562
20
35.414127098117369
30
0
10
229.49336796810658
20
35.954343101086685
30
0
0
LINE
5
215
100
AcDbEntity
8
0
100
AcDbLine
10
196.2056387319802
20
44.781350638443698
30
0
11
193.7106984421672
21
33.043579429638164
31
0
0
LINE
5
216
100
AcDbEntity
8
0
100
AcDbLine
10
216.98536084938428
20
32.273343519722012
30
0
11
228.72313205819037
21
34.768283809535021
31
0
0
SPLINE
5
217
100
AcDbEntity
8
0
100
AcDbSpline
70
0
71
3
72
8
73
4
74
0
42
0.000000001
43
0.0000000001
44
0.0000000001
40
0
40
0
40
0
40
0
40
1
40
1
40
1
40
1
10
304.80000000000018
20
59.810000000000294
30
0
10
304.80000000000018
20
60.362284749830607
30
0
10
304.35228474983109
20
60.810000000000322
30
0
10
303.80000000000018
20
60.810000000000322
30
0
0
LINE
5
218
100
AcDbEntity
8
0
100
AcDbLine
10
213.30436126801959
20
44.781350638443698
30
0
11
215.79930155783319
21
33.043579429638164
31
0
0
SPLINE
5
219
100
AcDbEntity
8
0
100
AcDbSpline
70
0
71
3
72
8
73
4
74
0
42
0.000000001
43
0.0000000001
44
0.0000000001
40
0
40
0
40
0
40
0
40
1
40
1
40
1
40
1
10
186.5085049415751
20
28.389333174189765
30
0
10
185.96828893860612
20
28.504159630340045
30
0
10
185.43727210617368
20
28.159313267242272
30
0
10
185.32244565002338
20
27.619097264273613
30
0
0
LINE
5
220
100
AcDbEntity
8
0
100
AcDbLine
10
309.84999999999991
20
59.810000000000294
30
0
11
309.84999999999991
21
47.80999999999986
31
0
0
LINE
5
221
100
AcDbEntity
8
0
100
AcDbLine
10
186.5085049415751
20
28.389333174189765
30
0
11
200.5742674401273
21
25.399563060229973
31
0
0
LINE
5
222
100
AcDbEntity
8
0
100
AcDbLine
10
214.07459717793571
20
45.967409929995348
30
0
11
225.8123683867413
21
48.462350219808371
31
0
0
SPLINE
5
223
100
AcDbEntity
8
0
100
AcDbSpline
70
0
71
3
72
8
73
4
74
0
42
0.000000001
43
0.0000000001
44
0.0000000001
40
0
40
0
40
0
40
0
40
1
40
1
40
1
40
1
10
290.8000000000003
20
47.80999999999986
30
0
10
290.8000000000003
20
47.257715250168914
30
0
10
291.24771525016945
20
46.809999999999832
30
0
10
291.79999999999973
20
46.809999999999832
30
0
0
SPLINE
5
224
100
AcDbEntity
8
0
100
AcDbSpline
70
0
71
3
72
8
73
4
74
0
42
0.000000001
43
0.0000000001
44
0.0000000001
40
0
40
0
40
0
40
0
40
1
40
1
40
1
40
1
10
215.79930155783319
20
33.043579429638164
30
0
10
215.91412801398289
20
32.503363426668862
30
0
10
216.44514484641559
20
32.158517063571736
30
0
10
216.98536084938428
20
32.273343519722012
30
0
0
LINE
5
225
100
AcDbEntity
8
0
100
AcDbLine
10
185.32244565002338
20
27.619097264273613
30
0
11
182.8275053602101
21
15.88132605546808
31
0
0
LINE
5
226
100
AcDbEntity
8
0
100
AcDbLine
10
50.000000000000007
20
75
30
0
11
50.000000000000007
21
0
31
0
0
LINE
5
227
100
AcDbEntity
8
0
100
AcDbLine
10
215.40436126802001
20
103.65135063844376
30
0
11
217.89930155783298
21
91.913579429637892
31
0
0
LINE
5
228
100
AcDbEntity
8
0
100
AcDbLine
10
224.9360637513193
20
29.815440414739953
30
0
11
227.63891573195099
21
17.099521605200202
31
0
0
LINE
5
229
100
AcDbEntity
8
0
100
AcDbLine
10
234.4859489370848
20
18.554903440924136
30
0
11
231.78309695645439
21
31.270822250463894
31
0
0
LINE
5
230
100
AcDbEntity
8
0
100
AcDbLine
10
73.75999999999992
20
59.810000000000294
30
0
11
73.75999999999992
21
47.80999999999986
31
0
0
LINE
5
231
100
AcDbEntity
8
0
100
AcDbLine
10
201.34450335004311
20
24.213503768678315
30
0
11
198.84956306023011
21
12.475732559872785
31
0
0
SPLINE
5
232
100
AcDbEntity
8
0
100
AcDbSpline
70
0
71
3
72
8
73
4
74
0
42
0.000000001
43
0.0000000001
44
0.0000000001
40
0
40
0
40
0
40
0
40
1
40
1
40
1
40
1
10
210.81459717793609
20
84.227409929995289
30
0
10
210.27438117496678
20
84.112583473845021
30
0
10
209.9295348118697
20
83.581566641412621
30
0
10
210.04436126801988
20
83.041350638443632
30
0
0
LINE
5
233
100
AcDbEntity
8
0
100
AcDbLine
10
233.60549664995671
20
29.613503768678502
30
0
11
236.10043693976968
21
17.875732559872976
31
0
0
SPLINE
5
234
100
AcDbEntity
8
0
100
AcDbSpline
70
0
71
3
72
8
73
4
74
0
42
0.000000001
43
0.0000000001
44
0.0000000001
40
0
40
0
40
0
40
0
40
1
40
1
40
1
40
1
10
217.89930155783298
20
91.913579429637892
30
0
10
218.01412801398331
20
91.373363426668917
30
0
10
218.54514484641598
20
91.028517063571485
30
0
10
219.0853608493847
20
91.143343519721753
30
0
0
SPLINE
5
235
100
AcDbEntity
8
0
100
AcDbSpline
70
0
71
3
72
8
73
4
74
0
42
0.000000001
43
0.0000000001
44
0.0000000001
40
0
40
0
40
0
40
0
40
1
40
1
40
1
40
1
10
366.79560000000026
20
27.712000000000252
30
0
10
367.34788474983105
20
27.712000000000252
30
0
10
367.79560000000015
20
28.159715250169334
30
0
10
367.79560000000015
20
28.712000000000295
30
0
0
SPLINE
5
236
100
AcDbEntity
8
0
100
AcDbSpline
70
0
71
3
72
8
73
4
74
0
42
0.000000001
43
0.0000000001
44
0.0000000001
40
0
40
0
40
0
40
0
40
1
40
1
40
1
40
1
10
119.30549664995684
20
27.846496231321289
30
0
10
119.19067019380657
20
27.306280228352627
30
0
10
119.53551655690401
20
26.775263395919922
30
0
10
120.07573255987299
20
26.660436939769639
30
0
0
LINE
5
237
100
AcDbEntity
8
0
100
AcDbLine
10
65.322000000004749
20
58.809999701768064
30
0
11
65.322000000004749
21
45.809999701768248
31
0
0
LINE
5
238
100
AcDbEntity
8
0
100
AcDbLine
10
180.78686794180996
20
34.768283809535021
30
0
11
192.52463915061549
21
32.273343519722012
31
0
0
SPLINE
5
239
100
AcDbEntity
8
0
100
AcDbSpline
70
0
71
3
72
8
73
4
74
0
42
0.000000001
43
0.0000000001
44
0.0000000001
40
0
40
0
40
0
40
0
40
1
40
1
40
1
40
1
10
221.15930155783269
20
53.653579429637645
30
0
10
221.27412801398287
20
53.113363426668982
30
0
10
221.80514484641571
20
52.768517063571856
30
0
10
222.34536084938429
20
52.883343519722139
30
0
0
SPLINE
5
240
100
AcDbEntity
8
0
100
AcDbSpline
70
0
71
3
72
8
73
4
74
0
42
0.000000001
43
0.0000000001
44
0.0000000001
40
0
40
0
40
0
40
0
40
1
40
1
40
1
40
1
10
296.1599999999998
20
66.860000000000056
30
0
10
296.1599999999998
20
66.307715250169096
30
0
10
296.60771525016952
20
65.860000000000028
30
0
10
297.1599999999998
20
65.860000000000028
30
0
0
SPLINE
5
241
100
AcDbEntity
8
0
100
AcDbSpline
70
0
71
3
72
8
73
4
74
0
42
0.000000001
43
0.0000000001
44
0.0000000001
40
0
40
0
40
0
40
0
40
1
40
1
40
1
40
1
10
289.98426744012698
20
67.260436939770102
30
0
10
290.5244834430963
20
67.375263395920072
30
0
10
290.86932980619338
20
67.90628022835277
30
0
10
290.75450335004302
20
68.446496231321433
30
0
0
SPLINE
5
242
100
AcDbEntity
8
0
100
AcDbSpline
70
0
71
3
72
8
73
4
74
0
42
0.000000001
43
0.0000000001
44
0.0000000001
40
0
40
0
40
0
40
0
40
1
40
1
40
1
40
1
10
223.73842767829331
20
85.952114309892153
30
0
10
223.62360122214298
20
86.492330312861142
30
0
10
223.09258438971028
20
86.837176675958233
30
0
10
222.55236838674159
20
86.722350219808305
30
0
0
LINE
5
243
100
AcDbEntity
8
0
100
AcDbLine
10
210.81459717793609
20
84.227409929995289
30
0
11
222.55236838674159
21
86.722350219808305
31
0
0
LINE
5
244
100
AcDbEntity
8
0
100
AcDbLine
10
368.59799999999541
20
67.860000298231967
30
0
11
368.59799999999541
21
80.860000298232421
31
0
0
LINE
5
245
100
AcDbEntity
8
0
100
AcDbLine
10
237.28649623132139
20
17.105496649956827
30
0
11
249.02426744012689
21
19.600436939770482
31
0
0
SPLINE
5
246
100
AcDbEntity
8
0
100
AcDbSpline
70
0
71
3
72
8
73
4
74
0
42
0.000000001
43
0.0000000001
44
0.0000000001
40
0
40
0
40
0
40
0
40
1
40
1
40
1
40
1
10
89.198000000005919
20
45.809999701768248
30
0
10
89.198000000006232
20
45.257714951937288
30
0
10
89.645715250174987
20
44.809999701768206
30
0
10
90.198000000005635
20
44.809999701768206
30
0
0
LINE
5
247
100
AcDbEntity
8
0
100
AcDbLine
10
247.29956306022939
20
32.524267440127666
30
0
11
249.7945033500431
21
20.786496231322129
31
0
0
LINE
5
248
100
AcDbEntity
8
0
100
AcDbLine
10
310.16000000000031
20
78.860000000000156
30
0
11
310.16000000000031
21
66.860000000000056
31
0
0
LINE
5
249
100
AcDbEntity
8
0
100
AcDbLine
10
104.70999999999989
20
59.810000000000294
30
0
11
104.70999999999989
21
47.80999999999986
31
0
0
LINE
5
250
100
AcDbEntity
8
0
100
AcDbLine
10
90.198000000005635
20
44.809999701768206
30
0
11
95.198000000002907
21
44.809999701768206
31
0
0
LINE
5
251
100
AcDbEntity
8
0
100
AcDbLine
10
228.8249750235027
20
16.329285695284049
30
0
11
233.7157130271687
21
17.368844149371846
31
0
0
SPLINE
5
252
100
AcDbEntity
8
0
100
AcDbSpline
70
0
71
3
72
8
73
4
74
0
42
0.000000001
43
0.0000000001
44
0.0000000001
40
0
40
0
40
0
40
0
40
1
40
1
40
1
40
1
10
95.198000000002907
20
44.809999701768206
30
0
10
95.750284749833867
20
44.809999701768206
30
0
10
96.198000000003262
20
45.257714951937288
30
0
10
96.198000000003262
20
45.809999701768248
30
0
0
SPLINE
5
253
100
AcDbEntity
8
0
100
AcDbSpline
70
0
71
3
72
8
73
4
74
0
42
0.000000001
43
0.0000000001
44
0.0000000001
40
0
40
0
40
0
40
0
40
1
40
1
40
1
40
1
10
182.8275053602101
20
15.88132605546808
30
0
10
182.71267890406011
20
15.341110052498777
30
0
10
183.05752526715722
20
14.810093220066705
30
0
10
183.59774127012625
20
14.695266763916425
30
0
0
SPLINE
5
254
100
AcDbEntity
8
0
100
AcDbSpline
70
0
71
3
72
8
73
4
74
0
42
0.000000001
43
0.0000000001
44
0.0000000001
40
0
40
0
40
0
40
0
40
1
40
1
40
1
40
1
10
236.10043693976968
20
17.875732559872976
30
0
10
236.21526339591998
20
17.335516556904313
30
0
10
236.7462802283527
20
16.990670193806547
30
0
10
237.28649623132139
20
17.105496649956827
30
0
0
LINE
5
255
100
AcDbEntity
8
0
100
AcDbLine
10
183.59774127012625
20
14.695266763916425
30
0
11
197.66350376867848
21
11.705496649956634
31
0
0
LINE
5
256
100
AcDbEntity
8
0
100
AcDbLine
10
238.0683089719148
20
70.538127640073583
30
0
11
249.80608018072041
21
73.033067929886585
31
0
0
SPLINE
5
257
100
AcDbEntity
8
0
100
AcDbSpline
70
0
71
3
72
8
73
4
74
0
42
0.000000001
43
0.0000000001
44
0.0000000001
40
0
40
0
40
0
40
0
40
1
40
1
40
1
40
1
10
73.75999999999992
20
47.80999999999986
30
0
10
73.75999999999992
20
47.257715250168914
30
0
10
74.207715250169329
20
46.809999999999832
30
0
10
74.759999999999962
20
46.809999999999832
30
0
0
LINE
5
258
100
AcDbEntity
8
0
100
AcDbLine
10
67.619999999999891
20
41.760000000000126
30
0
11
79.620000000000005
21
41.760000000000126
31
0
0
SPLINE
5
259
100
AcDbEntity
8
0
100
AcDbSpline
70
0
71
3
72
8
73
4
74
0
42
0.000000001
43
0.0000000001
44
0.0000000001
40
0
40
0
40
0
40
0
40
1
40
1
40
1
40
1
10
249.02426744012689
20
19.600436939770482
30
0
10
249.56448344309621
20
19.715263395920758
30
0
10
249.9093298061934
20
20.24628022835283
30
0
10
249.7945033500431
20
20.786496231322129
30
0
0
SPLINE
5
260
100
AcDbEntity
8
0
100
AcDbSpline
70
0
71
3
72
8
73
4
74
0
42
0.000000001
43
0.0000000001
44
0.0000000001
40
0
40
0
40
0
40
0
40
1
40
1
40
1
40
1
10
216.17459717793608
20
104.83740992999508
30
0
10
215.63438117496679
20
104.72258347384512
30
0
10
215.28953481186971
20
104.19156664141241
30
0
10
215.40436126802001
20
103.65135063844376
30
0
0
LINE
5
261
100
AcDbEntity
8
0
100
AcDbLine
10
234.80830897191521
20
108.79812764007353
30
0
11
246.54608018072071
21
111.29306792988652
31
0
0
SPLINE
5
262
100
AcDbEntity
8
0
100
AcDbSpline
70
0
71
3
72
8
73
4
74
0
42
0.000000001
43
0.0000000001
44
0.0000000001
40
0
40
0
40
0
40
0
40
1
40
1
40
1
40
1
10
230.8231320581902
20
93.638283809535082
30
0
10
231.3633480611588
20
93.753110265685038
30
0
10
231.70819442425656
20
94.284127098117736
30
0
10
231.59336796810629
20
94.824343101086427
30
0
0
LINE
5
263
100
AcDbEntity
8
0
100
AcDbLine
10
219.0853608493847
20
91.143343519721753
30
0
11
230.8231320581902
21
93.638283809535082
31
0
0
LINE
5
264
100
AcDbEntity
8
0
100
AcDbLine
10
229.44830897191508
20
88.18812764007339
30
0
11
241.18608018072058
21
90.68306792988642
31
0
0
LINE
5
265
100
AcDbEntity
8
0
100
AcDbLine
10
296.1599999999998
20
78.860000000000156
30
0
11
296.1599999999998
21
66.860000000000056
31
0
0
LINE
5
266
100
AcDbEntity
8
0
100
AcDbLine
10
264.26585126625099
20
55.613549730049066
30
0
11
266.76079155606396
21
43.875778521242893
31
0
0
SPLINE
5
267
100
AcDbEntity
8
0
100
AcDbSpline
70
0
71
3
72
8
73
4
74
0
42
0.000000001
43
0.0000000001
44
0.0000000001
40
0
40
0
40
0
40
0
40
1
40
1
40
1
40
1
10
229.44830897191508
20
88.18812764007339
30
0
10
228.90809296894582
20
88.073301183923135
30
0
10
228.56324660584869
20
87.542284351490736
30
0
10
228.67807306199899
20
87.002068348521732
30
0
0
SPLINE
5
268
100
AcDbEntity
8
0
100
AcDbSpline
70
0
71
3
72
8
73
4
74
0
42
0.000000001
43
0.0000000001
44
0.0000000001
40
0
40
0
40
0
40
0
40
1
40
1
40
1
40
1
10
67.619999999999891
20
41.760000000000126
30
0
10
67.067715250169258
20
41.760000000000126
30
0
10
66.619999999999862
20
41.312284749831051
30
0
10
66.619999999999862
20
40.760000000000105
30
0
0
LINE
5
269
100
AcDbEntity
8
0
100
AcDbLine
10
250.57178485597771
20
52.702786058600552
30
0
11
253.06672514579071
21
40.965014849794379
31
0
0
LINE
5
270
100
AcDbEntity
8
0
100
AcDbLine
10
229.09842767829329
20
106.56211430989229
30
0
11
231.59336796810629
21
94.824343101086427
31
0
0
LINE
5
271
100
AcDbEntity
8
0
100
AcDbLine
10
253.95128978002489
20
37.005157690345605
30
0
11
249.06055177635639
21
35.965599236256537
31
0
0
SPLINE
5
272
100
AcDbEntity
8
0
100
AcDbSpline
70
0
71
3
72
8
73
4
74
0
42
0.000000001
43
0.0000000001
44
0.0000000001
40
0
40
0
40
0
40
0
40
1
40
1
40
1
40
1
10
300.53999999999985
20
85.970000000000113
30
0
10
301.09228474983081
20
85.970000000000113
30
0
10
301.53999999999991
20
86.417715250169209
30
0
10
301.53999999999991
20
86.970000000000169
30
0
0
SPLINE
5
273
100
AcDbEntity
8
0
100
AcDbSpline
70
0
71
3
72
8
73
4
74
0
42
0.000000001
43
0.0000000001
44
0.0000000001
40
0
40
0
40
0
40
0
40
1
40
1
40
1
40
1
10
236.53301335181197
20
95.874297139716319
30
0
10
236.6478398079623
20
95.334081136747372
30
0
10
237.17885664039437
20
94.989234773649898
30
0
10
237.71907264336369
20
95.10406122980018
30
0
0
SPLINE
5
274
100
AcDbEntity
8
0
100
AcDbSpline
70
0
71
3
72
8
73
4
74
0
42
0.000000001
43
0.0000000001
44
0.0000000001
40
0
40
0
40
0
40
0
40
1
40
1
40
1
40
1
10
142.74920844393577
20
43.875778521243532
30
0
10
142.63438198778547
20
43.335562518274237
30
0
10
142.97922835088292
20
42.804545685842172
30
0
10
143.51944435385192
20
42.689719229691875
30
0
0
SPLINE
5
275
100
AcDbEntity
8
0
100
AcDbSpline
70
0
71
3
72
8
73
4
74
0
42
0.000000001
43
0.0000000001
44
0.0000000001
40
0
40
0
40
0
40
0
40
1
40
1
40
1
40
1
10
249.80672514579098
20
79.225014849794647
30
0
10
249.9215516019413
20
78.684798846825657
30
0
10
250.452568434374
20
78.339952483728212
30
0
10
250.99278443734272
20
78.454778939878494
30
0
0
SPLINE
5
276
100
AcDbEntity
8
0
100
AcDbSpline
70
0
71
3
72
8
73
4
74
0
42
0.000000001
43
0.0000000001
44
0.0000000001
40
0
40
0
40
0
40
0
40
1
40
1
40
1
40
1
10
250.99213947227199
20
72.262832019970432
30
0
10
250.87731301612172
20
72.803048022939421
30
0
10
250.3462961836897
20
73.147894386036867
30
0
10
249.80608018072041
20
73.033067929886585
30
0
0
LINE
5
277
100
AcDbEntity
8
0
100
AcDbLine
10
287.54000000000002
20
98.969999999999928
30
0
11
287.54000000000002
21
86.970000000000169
31
0
0
LINE
5
278
100
AcDbEntity
8
0
100
AcDbLine
10
248.29031586644089
20
34.779539944706805
30
0
11
250.99316784707199
21
22.063621135165761
31
0
0
SPLINE
5
279
100
AcDbEntity
8
0
100
AcDbSpline
70
0
71
3
72
8
73
4
74
0
42
0.000000001
43
0.0000000001
44
0.0000000001
40
0
40
0
40
0
40
0
40
1
40
1
40
1
40
1
10
71.32200000000401
20
44.809999701768206
30
0
10
71.874284749834644
20
44.809999701768206
30
0
10
72.322000000003726
20
45.257714951937288
30
0
10
72.322000000003726
20
45.809999701768248
30
0
0
LINE
5
280
100
AcDbEntity
8
0
100
AcDbLine
10
66.322000000004806
20
44.809999701768206
30
0
11
71.32200000000401
21
44.809999701768206
31
0
0
SPLINE
5
281
100
AcDbEntity
8
0
100
AcDbSpline
70
0
71
3
72
8
73
4
74
0
42
0.000000001
43
0.0000000001
44
0.0000000001
40
0
40
0
40
0
40
0
40
1
40
1
40
1
40
1
10
147.44506359093572
20
23.40465237781676
30
0
10
147.48272237221715
20
23.391804872658266
30
0
10
147.5211143880662
20
23.381216480542371
30
0
10
147.56003485770174
20
23.372943679338853
30
0
0
LINE
5
282
100
AcDbEntity
8
0
100
AcDbLine
10
354.79559999999964
20
27.712000000000252
30
0
11
366.79560000000026
21
27.712000000000252
31
0
0
SPLINE
5
283
100
AcDbEntity
8
0
100
AcDbSpline
70
0
71
3
72
8
73
4
74
0
42
0.000000001
43
0.0000000001
44
0.0000000001
40
0
40
0
40
0
40
0
40
1
40
1
40
1
40
1
10
152.54402503865248
20
22.318127976007993
30
0
10
152.42929007334533
20
21.777951317691677
30
0
10
152.77413179281299
20
21.24702721267408
30
0
10
153.31429155140793
20
21.132212711634224
30
0
0
LINE
5
284
100
AcDbEntity
8
0
100
AcDbLine
10
242.37213947227229
20
89.912832019970566
30
0
11
244.86707976208527
21
78.175060811164741
31
0
0
LINE
5
285
100
AcDbEntity
8
0
100
AcDbLine
10
257.8402010522064
20
23.519002970889701
30
0
11
255.13734907157598
21
36.234921780429453
31
0
0
LINE
5
286
100
AcDbEntity
8
0
100
AcDbLine
10
163.87786052772782
20
51.652832019970631
30
0
11
161.38292023791479
21
39.915060811165105
31
0
0
SPLINE
5
287
100
AcDbEntity
8
0
100
AcDbSpline
70
0
71
3
72
8
73
4
74
0
42
0.000000001
43
0.0000000001
44
0.0000000001
40
0
40
0
40
0
40
0
40
1
40
1
40
1
40
1
10
201.34450335004311
20
24.213503768678315
30
0
10
201.45932980619338
20
24.753719771647624
30
0
10
201.11448344309599
20
25.28473660407969
30
0
10
200.5742674401273
20
25.399563060229973
30
0
0
LINE
5
288
100
AcDbEntity
8
0
100
AcDbLine
10
230.5970376649033
20
32.041058160380047
30
0
11
225.7062996612367
21
31.001499706291604
31
0
0
SPLINE
5
289
100
AcDbEntity
8
0
100
AcDbSpline
70
0
71
3
72
8
73
4
74
0
42
0.000000001
43
0.0000000001
44
0.0000000001
40
0
40
0
40
0
40
0
40
1
40
1
40
1
40
1
10
225.7062996612367
20
31.001499706291604
30
0
10
225.16608365826809
20
30.886673250140682
30
0
10
224.82123729517093
20
30.355656417709255
30
0
10
224.9360637513193
20
29.815440414739953
30
0
0
SPLINE
5
290
100
AcDbEntity
8
0
100
AcDbSpline
70
0
71
3
72
8
73
4
74
0
42
0.000000001
43
0.0000000001
44
0.0000000001
40
0
40
0
40
0
40
0
40
1
40
1
40
1
40
1
10
303.80000000000018
20
46.809999999999832
30
0
10
304.35228474983109
20
46.809999999999832
30
0
10
304.80000000000018
20
47.257715250169539
30
0
10
304.80000000000018
20
47.80999999999986
30
0
0
LINE
5
291
100
AcDbEntity
8
0
100
AcDbLine
10
170.79931570608011
20
18.440552847845421
30
0
11
168.6282564816014
21
18.902025731782949
31
0
0
SPLINE
5
292
100
AcDbEntity
8
0
100
AcDbSpline
70
0
71
3
72
8
73
4
74
0
42
0.000000001
43
0.0000000001
44
0.0000000001
40
0
40
0
40
0
40
0
40
1
40
1
40
1
40
1
10
291.79999999999973
20
60.810000000000322
30
0
10
291.24771525016945
20
60.810000000000322
30
0
10
290.8000000000003
20
60.362284749830607
30
0
10
290.8000000000003
20
59.810000000000294
30
0
0
SPLINE
5
293
100
AcDbEntity
8
0
100
AcDbSpline
70
0
71
3
72
8
73
4
74
0
42
0.000000001
43
0.0000000001
44
0.0000000001
40
0
40
0
40
0
40
0
40
1
40
1
40
1
40
1
10
168.5320711642965
20
18.927532261781309
30
0
10
168.5636897824686
20
18.917439134913
30
0
10
168.59579128935479
20
18.908926421420741
30
0
10
168.6282564816014
20
18.902025731782949
30
0
0
LINE
5
294
100
AcDbEntity
8
0
100
AcDbLine
10
235.6190726433633
20
36.234061229800446
30
0
11
247.35684385216877
21
38.729001519613455
31
0
0
LINE
5
295
100
AcDbEntity
8
0
100
AcDbLine
10
290.8000000000003
20
59.810000000000294
30
0
11
290.8000000000003
21
47.80999999999986
31
0
0
SPLINE
5
296
100
AcDbEntity
8
0
100
AcDbSpline
70
0
71
3
72
8
73
4
74
0
42
0.000000001
43
0.0000000001
44
0.0000000001
40
0
40
0
40
0
40
0
40
1
40
1
40
1
40
1
10
232.70830897191479
20
49.928127640073768
30
0
10
232.16809296894607
20
49.8133011839235
30
0
10
231.82324660584896
20
49.282284351490787
30
0
10
231.93807306199858
20
48.74206834852211
30
0
0
LINE
5
297
100
AcDbEntity
8
0
100
AcDbLine
10
291.79999999999973
20
60.810000000000322
30
0
11
303.80000000000018
21
60.810000000000322
31
0
0
LINE
5
298
100
AcDbEntity
8
0
100
AcDbLine
10
234.3757325598722
20
30.799563060230149
30
0
11
246.11350376867841
21
33.294503350043804
31
0
0
SPLINE
5
299
100
AcDbEntity
8
0
100
AcDbSpline
70
0
71
3
72
8
73
4
74
0
42
0.000000001
43
0.0000000001
44
0.0000000001
40
0
40
0
40
0
40
0
40
1
40
1
40
1
40
1
10
168.05570125477823
20
32.306882729191642
30
0
10
168.02515253798728
20
32.316517545114635
30
0
10
167.99415852815395
20
32.324678989394258
30
0
10
167.96282643166097
20
32.331338832095199
30
0
0
LINE
5
300
100
AcDbEntity
8
0
100
AcDbLine
10
344.72199999999373
20
67.860000298231967
30
0
11
344.72199999999441
21
80.860000298232109
31
0
0
SPLINE
5
301
100
AcDbEntity
8
0
100
AcDbSpline
70
0
71
3
72
8
73
4
74
0
42
0.000000001
43
0.0000000001
44
0.0000000001
40
0
40
0
40
0
40
0
40
1
40
1
40
1
40
1
10
175.80502497648962
20
17.369285695286141
30
0
10
176.34524097945857
20
17.254459239136505
30
0
10
176.8762578118907
20
17.599305602233628
30
0
10
176.99108426804094
20
18.13952160520229
30
0
0
LINE
5
302
100
AcDbEntity
8
0
100
AcDbLine
10
168.05570125477823
20
32.306882729191642
30
0
11
170.25426744012714
21
31.839563060230319
31
0
0
SPLINE
5
303
100
AcDbEntity
8
0
100
AcDbSpline
70
0
71
3
72
8
73
4
74
0
42
0.000000001
43
0.0000000001
44
0.0000000001
40
0
40
0
40
0
40
0
40
1
40
1
40
1
40
1
10
219.43459717793581
20
66.577409929995156
30
0
10
218.89438117496709
20
66.462583473845186
30
0
10
218.54953481186939
20
65.931566641412488
30
0
10
218.6643612680196
20
65.391350638443825
30
0
0
LINE
5
304
100
AcDbEntity
8
0
100
AcDbLine
10
323.84999999999968
20
59.810000000000294
30
0
11
323.84999999999968
21
47.80999999999986
31
0
0
LINE
5
305
100
AcDbEntity
8
0
100
AcDbLine
10
232.70830897191479
20
49.928127640073768
30
0
11
244.44608018072029
21
52.423067929886791
31
0
0
SPLINE
5
306
100
AcDbEntity
8
0
100
AcDbSpline
70
0
71
3
72
8
73
4
74
0
42
0.000000001
43
0.0000000001
44
0.0000000001
40
0
40
0
40
0
40
0
40
1
40
1
40
1
40
1
10
173.89092735663644
20
36.234061229800446
30
0
10
174.43114335960544
20
36.119234773650163
30
0
10
174.96216019203786
20
36.464081136747296
30
0
10
175.0769866481881
20
37.004297139715952
30
0
0
SPLINE
5
307
100
AcDbEntity
8
0
100
AcDbSpline
70
0
71
3
72
8
73
4
74
0
42
0.000000001
43
0.0000000001
44
0.0000000001
40
0
40
0
40
0
40
0
40
1
40
1
40
1
40
1
10
239.79301335181168
20
57.614297139716072
30
0
10
239.90783980796198
20
57.074081136747395
30
0
10
240.4388566403947
20
56.729234773650283
30
0
10
240.97907264336331
20
56.844061229799905
30
0
0
SPLINE
5
308
100
AcDbEntity
8
0
100
AcDbSpline
70
0
71
3
72
8
73
4
74
0
42
0.000000001
43
0.0000000001
44
0.0000000001
40
0
40
0
40
0
40
0
40
1
40
1
40
1
40
1
10
323.84999999999968
20
59.810000000000294
30
0
10
323.84999999999968
20
60.362284749830607
30
0
10
323.4022847498307
20
60.810000000000322
30
0
10
322.85000000000031
20
60.810000000000322
30
0
0
SPLINE
5
309
100
AcDbEntity
8
0
100
AcDbSpline
70
0
71
3
72
8
73
4
74
0
42
0.000000001
43
0.0000000001
44
0.0000000001
40
0
40
0
40
0
40
0
40
1
40
1
40
1
40
1
10
234.08313205819047
20
55.378283809535141
30
0
10
234.62334806115908
20
55.493110265685424
30
0
10
234.9681944242563
20
56.024127098117489
30
0
10
234.85336796810597
20
56.564343101086799
30
0
0
SPLINE
5
310
100
AcDbEntity
8
0
100
AcDbSpline
70
0
71
3
72
8
73
4
74
0
42
0.000000001
43
0.0000000001
44
0.0000000001
40
0
40
0
40
0
40
0
40
1
40
1
40
1
40
1
10
197.66350376867848
20
11.705496649956634
30
0
10
198.2037197716474
20
11.590670193806357
30
0
10
198.73473660407981
20
11.935516556904124
30
0
10
198.84956306023011
20
12.475732559872785
30
0
0
SPLINE
5
311
100
AcDbEntity
8
0
100
AcDbSpline
70
0
71
3
72
8
73
4
74
0
42
0.000000001
43
0.0000000001
44
0.0000000001
40
0
40
0
40
0
40
0
40
1
40
1
40
1
40
1
10
227.63891573195099
20
17.099521605200202
30
0
10
227.75374218810069
20
16.559305602231539
30
0
10
228.28475902053339
20
16.214459239133774
30
0
10
228.8249750235027
20
16.329285695284049
30
0
0
SPLINE
5
312
100
AcDbEntity
8
0
100
AcDbSpline
70
0
71
3
72
8
73
4
74
0
42
0.000000001
43
0.0000000001
44
0.0000000001
40
0
40
0
40
0
40
0
40
1
40
1
40
1
40
1
10
231.17301335181199
20
75.26429713971622
30
0
10
231.2878398079622
20
74.72408113674723
30
0
10
231.81885664039498
20
74.379234773650097
30
0
10
232.35907264336356
20
74.494061229800067
30
0
0
LINE
5
313
100
AcDbEntity
8
0
100
AcDbLine
10
240.97907264336331
20
56.844061229799905
30
0
11
252.71684385216889
21
59.339001519613575
31
0
0
SPLINE
5
314
100
AcDbEntity
8
0
100
AcDbSpline
70
0
71
3
72
8
73
4
74
0
42
0.000000001
43
0.0000000001
44
0.0000000001
40
0
40
0
40
0
40
0
40
1
40
1
40
1
40
1
10
86.760000000000048
20
46.809999999999832
30
0
10
87.312284749830695
20
46.809999999999832
30
0
10
87.76000000000009
20
47.257715250169539
30
0
10
87.76000000000009
20
47.80999999999986
30
0
0
LINE
5
315
100
AcDbEntity
8
0
100
AcDbLine
10
213.7253608493846
20
70.533343519721953
30
0
11
225.46313205819013
21
73.028283809534969
31
0
0
LINE
5
316
100
AcDbEntity
8
0
100
AcDbLine
10
237.71907264336369
20
95.10406122980018
30
0
11
249.45684385216921
21
97.599001519613182
31
0
0
SPLINE
5
317
100
AcDbEntity
8
0
100
AcDbSpline
70
0
71
3
72
8
73
4
74
0
42
0.000000001
43
0.0000000001
44
0.0000000001
40
0
40
0
40
0
40
0
40
1
40
1
40
1
40
1
10
233.7157130271687
20
17.368844149371846
30
0
10
234.25592903013791
20
17.483670605522121
30
0
10
234.60077539323507
20
18.014687437954834
30
0
10
234.4859489370848
20
18.554903440924136
30
0
0
LINE
5
318
100
AcDbEntity
8
0
100
AcDbLine
10
105.70999999999992
20
46.809999999999832
30
0
11
117.71000000000002
21
46.809999999999832
31
0
0
SPLINE
5
319
100
AcDbEntity
8
0
100
AcDbSpline
70
0
71
3
72
8
73
4
74
0
42
0.000000001
43
0.0000000001
44
0.0000000001
40
0
40
0
40
0
40
0
40
1
40
1
40
1
40
1
10
353.79559999999969
20
28.712000000000295
30
0
10
353.79559999999969
20
28.159715250169334
30
0
10
354.24331525016953
20
27.712000000000252
30
0
10
354.79559999999964
20
27.712000000000252
30
0
0
LINE
5
320
100
AcDbEntity
8
0
100
AcDbLine
10
367.79560000000015
20
40.712000000000081
30
0
11
367.79560000000015
21
28.712000000000295
31
0
0
LINE
5
321
100
AcDbEntity
8
0
100
AcDbLine
10
153.31429155140793
20
21.132212711634224
30
0
11
155.51285773675551
21
20.664893042672901
31
0
0
LINE
5
322
100
AcDbEntity
8
0
100
AcDbLine
10
325.21999999999969
20
97.910000000000039
30
0
11
325.21999999999969
21
85.90999999999994
31
0
0
LINE
5
323
100
AcDbEntity
8
0
100
AcDbLine
10
120.56043693977001
20
99.814267440127452
30
0
11
118.06549664995669
21
88.076496231321585
31
0
0
SPLINE
5
324
100
AcDbEntity
8
0
100
AcDbSpline
70
0
71
3
72
8
73
4
74
0
42
0.000000001
43
0.0000000001
44
0.0000000001
40
0
40
0
40
0
40
0
40
1
40
1
40
1
40
1
10
337.04500000000024
20
60.810000000000322
30
0
10
336.49271525016928
20
60.810000000000322
30
0
10
336.04500000000019
20
60.362284749831247
30
0
10
336.04500000000019
20
59.810000000000294
30
0
0
LINE
5
325
100
AcDbEntity
8
0
100
AcDbLine
10
269.97573255987288
20
57.84956306022999
30
0
11
281.71350376867844
21
60.344503350043006
31
0
0
LINE
5
326
100
AcDbEntity
8
0
100
AcDbLine
10
256.70202076589391
20
74.498845350151683
30
0
11
268.4397919746994
21
76.993785639965012
31
0
0
SPLINE
5
327
100
AcDbEntity
8
0
100
AcDbSpline
70
0
71
3
72
8
73
4
74
0
42
0.000000001
43
0.0000000001
44
0.0000000001
40
0
40
0
40
0
40
0
40
1
40
1
40
1
40
1
10
250.99316784707199
20
22.063621135165761
30
0
10
251.10799430322228
20
21.523405132197098
30
0
10
251.6390111356543
20
21.178558769099975
30
0
10
252.17922713862299
20
21.293385225249612
30
0
0
LINE
5
328
100
AcDbEntity
8
0
100
AcDbLine
10
124.88573255987288
20
46.650436939769655
30
0
11
136.6235037686784
21
44.15549664995666
31
0
0
SPLINE
5
329
100
AcDbEntity
8
0
100
AcDbSpline
70
0
71
3
72
8
73
4
74
0
42
0.000000001
43
0.0000000001
44
0.0000000001
40
0
40
0
40
0
40
0
40
1
40
1
40
1
40
1
10
316.21000000000004
20
79.860000000000198
30
0
10
315.65771525016896
20
79.860000000000198
30
0
10
315.21000000000004
20
79.412284749830789
30
0
10
315.21000000000004
20
78.860000000000156
30
0
0
SPLINE
5
330
100
AcDbEntity
8
0
100
AcDbSpline
70
0
71
3
72
8
73
4
74
0
42
0.000000001
43
0.0000000001
44
0.0000000001
40
0
40
0
40
0
40
0
40
1
40
1
40
1
40
1
10
265.99055564614781
20
42.689719229691875
30
0
10
266.53077164911724
20
42.804545685841532
30
0
10
266.87561801221426
20
43.335562518274237
30
0
10
266.76079155606396
20
43.875778521242893
30
0
0
LINE
5
331
100
AcDbEntity
8
0
100
AcDbLine
10
353.79559999999969
20
40.712000000000081
30
0
11
353.79559999999969
21
28.712000000000295
31
0
0
SPLINE
5
332
100
AcDbEntity
8
0
100
AcDbSpline
70
0
71
3
72
8
73
4
74
0
42
0.000000001
43
0.0000000001
44
0.0000000001
40
0
40
0
40
0
40
0
40
1
40
1
40
1
40
1
10
354.79559999999964
20
41.712000000000117
30
0
10
354.24331525016953
20
41.712000000000117
30
0
10
353.79559999999969
20
41.26428474983102
30
0
10
353.79559999999969
20
40.712000000000081
30
0
0
SPLINE
5
333
100
AcDbEntity
8
0
100
AcDbSpline
70
0
71
3
72
8
73
4
74
0
42
0.000000001
43
0.0000000001
44
0.0000000001
40
0
40
0
40
0
40
0
40
1
40
1
40
1
40
1
10
319.16999999999996
20
84.909999999999883
30
0
10
319.72228474983092
20
84.909999999999883
30
0
10
320.16999999999996
20
85.357715250169292
30
0
10
320.16999999999996
20
85.910000000000238
30
0
0
SPLINE
5
334
100
AcDbEntity
8
0
100
AcDbSpline
70
0
71
3
72
8
73
4
74
0
42
0.000000001
43
0.0000000001
44
0.0000000001
40
0
40
0
40
0
40
0
40
1
40
1
40
1
40
1
10
287.70956306023021
20
39.584267440127462
30
0
10
287.59473660407997
20
40.124483443096125
30
0
10
287.0637197716473
20
40.469329806193244
30
0
10
286.52350376867855
20
40.354503350043615
30
0
0
LINE
5
335
100
AcDbEntity
8
0
100
AcDbLine
10
282.89956306022998
20
59.5742674401275
30
0
11
285.39450335004301
21
47.836496231321334
31
0
0
LINE
5
336
100
AcDbEntity
8
0
100
AcDbLine
10
95.198000000002907
20
59.809999701768731
30
0
11
90.198000000006587
21
59.809999701768731
31
0
0
LINE
5
337
100
AcDbEntity
8
0
100
AcDbLine
10
354.79559999999964
20
41.712000000000117
30
0
11
366.79560000000026
21
41.712000000000117
31
0
0
SPLINE
5
338
100
AcDbEntity
8
0
100
AcDbSpline
70
0
71
3
72
8
73
4
74
0
42
0.000000001
43
0.0000000001
44
0.0000000001
40
0
40
0
40
0
40
0
40
1
40
1
40
1
40
1
10
359.16000000000008
20
65.860000000000028
30
0
10
359.71228474983093
20
65.860000000000028
30
0
10
360.16000000000008
20
66.307715250169096
30
0
10
360.16000000000008
20
66.860000000000056
30
0
0
LINE
5
339
100
AcDbEntity
8
0
100
AcDbLine
10
66.619999999999862
20
40.760000000000105
30
0
11
66.619999999999862
21
28.760000000000314
31
0
0
LINE
5
340
100
AcDbEntity
8
0
100
AcDbLine
10
156.13180305638843
20
34.841536369901874
30
0
11
156.33968413355041
21
35.81953994470696
31
0
0
SPLINE
5
341
100
AcDbEntity
8
0
100
AcDbSpline
70
0
71
3
72
8
73
4
74
0
42
0.000000001
43
0.0000000001
44
0.0000000001
40
0
40
0
40
0
40
0
40
1
40
1
40
1
40
1
10
271.7004369397697
20
44.925732559872813
30
0
10
271.81526339592
20
44.385516556904165
30
0
10
272.34628022835273
20
44.040670193806392
30
0
10
272.88649623132136
20
44.15549664995666
30
0
0
SPLINE
5
342
100
AcDbEntity
8
0
100
AcDbSpline
70
0
71
3
72
8
73
4
74
0
42
0.000000001
43
0.0000000001
44
0.0000000001
40
0
40
0
40
0
40
0
40
1
40
1
40
1
40
1
10
257.06996514229093
20
22.33294367933869
30
0
10
257.6101811452595
20
22.447770135488334
30
0
10
257.95502750835669
20
22.978786967921039
30
0
10
257.8402010522064
20
23.519002970889701
30
0
0
SPLINE
5
343
100
AcDbEntity
8
0
100
AcDbSpline
70
0
71
3
72
8
73
4
74
0
42
0.000000001
43
0.0000000001
44
0.0000000001
40
0
40
0
40
0
40
0
40
1
40
1
40
1
40
1
10
359.57000000000005
20
59.810000000000294
30
0
10
359.57000000000005
20
60.362284749830607
30
0
10
359.12228474983095
20
60.810000000000322
30
0
10
358.57000000000016
20
60.810000000000322
30
0
0
LINE
5
344
100
AcDbEntity
8
0
100
AcDbLine
10
363.62999999999988
20
116.96000000000025
30
0
11
363.62999999999988
21
104.95999999999981
31
0
0
LINE
5
345
100
AcDbEntity
8
0
100
AcDbLine
10
98.65999999999984
20
97.910000000000039
30
0
11
98.65999999999984
21
85.90999999999994
31
0
0
SPLINE
5
346
100
AcDbEntity
8
0
100
AcDbSpline
70
0
71
3
72
8
73
4
74
0
42
0.000000001
43
0.0000000001
44
0.0000000001
40
0
40
0
40
0
40
0
40
1
40
1
40
1
40
1
10
274.78573255987237
20
37.859563060229966
30
0
10
274.24551655690368
20
37.744736604079691
30
0
10
273.9006701938066
20
37.213719771647618
30
0
10
274.0154966499569
20
36.673503768678302
30
0
0
SPLINE
5
347
100
AcDbEntity
8
0
100
AcDbSpline
70
0
71
3
72
8
73
4
74
0
42
0.000000001
43
0.0000000001
44
0.0000000001
40
0
40
0
40
0
40
0
40
1
40
1
40
1
40
1
10
310.16000000000031
20
78.860000000000156
30
0
10
310.16000000000031
20
79.412284749830789
30
0
10
309.71228474983116
20
79.860000000000198
30
0
10
309.1600000000002
20
79.860000000000198
30
0
0
LINE
5
348
100
AcDbEntity
8
0
100
AcDbLine
10
147.56003485770174
20
23.372943679338853
30
0
11
152.45077286136706
21
22.333385225250421
31
0
0
LINE
5
349
100
AcDbEntity
8
0
100
AcDbLine
10
275.33573255987289
20
78.45956306023011
30
0
11
287.07350376867839
21
80.954503350043126
31
0
0
SPLINE
5
350
100
AcDbEntity
8
0
100
AcDbSpline
70
0
71
3
72
8
73
4
74
0
42
0.000000001
43
0.0000000001
44
0.0000000001
40
0
40
0
40
0
40
0
40
1
40
1
40
1
40
1
10
284.62426744012691
20
46.650436939769655
30
0
10
285.16448344309617
20
46.765263395919945
30
0
10
285.50932980619331
20
47.296280228352657
30
0
10
285.39450335004301
20
47.836496231321334
30
0
0
LINE
5
351
100
AcDbEntity
8
0
100
AcDbLine
10
330.57999999999981
20
116.96000000000025
30
0
11
330.57999999999981
21
104.96000000000012
31
0
0
SPLINE
5
352
100
AcDbEntity
8
0
100
AcDbSpline
70
0
71
3
72
8
73
4
74
0
42
0.000000001
43
0.0000000001
44
0.0000000001
40
0
40
0
40
0
40
0
40
1
40
1
40
1
40
1
10
118.7654966499567
20
68.446496231321433
30
0
10
118.65067019380675
20
67.90628022835277
30
0
10
118.99551655690387
20
67.375263395920072
30
0
10
119.53573255987286
20
67.260436939770102
30
0
0
LINE
5
353
100
AcDbEntity
8
0
100
AcDbLine
10
87.162499999999909
20
66.860000000000028
30
0
11
87.162499999999937
21
78.860000000000113
31
0
0
LINE
5
354
100
AcDbEntity
8
0
100
AcDbLine
10
344.13200000000279
20
45.80999970176633
30
0
11
344.13200000000279
21
46.809999999999832
31
0
0
LINE
5
355
100
AcDbEntity
8
0
100
AcDbLine
10
269.20549664995667
20
56.663503768678332
30
0
11
271.7004369397697
21
44.925732559872813
31
0
0
LINE
5
356
100
AcDbEntity
8
0
100
AcDbLine
10
80.620000000000033
20
40.760000000000105
30
0
11
80.620000000000033
21
28.760000000000314
31
0
0
LINE
5
357
100
AcDbEntity
8
0
100
AcDbLine
10
74.759999999999962
20
46.809999999999832
30
0
11
86.760000000000048
21
46.809999999999832
31
0
0
LINE
5
358
100
AcDbEntity
8
0
100
AcDbLine
10
338.1320000000045
20
44.809999701768206
30
0
11
343.13200000000336
21
44.809999701768206
31
0
0
SPLINE
5
359
100
AcDbEntity
8
0
100
AcDbSpline
70
0
71
3
72
8
73
4
74
0
42
0.000000001
43
0.0000000001
44
0.0000000001
40
0
40
0
40
0
40
0
40
1
40
1
40
1
40
1
10
258.42672514579073
20
61.575014849794492
30
0
10
258.54155160194102
20
61.034798846825836
30
0
10
259.07256843437369
20
60.689952483728078
30
0
10
259.61278443734238
20
60.804778939878361
30
0
0
SPLINE
5
360
100
AcDbEntity
8
0
100
AcDbSpline
70
0
71
3
72
8
73
4
74
0
42
0.000000001
43
0.0000000001
44
0.0000000001
40
0
40
0
40
0
40
0
40
1
40
1
40
1
40
1
10
282.89956306022998
20
59.5742674401275
30
0
10
282.78473660407974
20
60.114483443096148
30
0
10
282.25371977164775
20
60.459329806193281
30
0
10
281.71350376867844
20
60.344503350043006
30
0
0
SPLINE
5
361
100
AcDbEntity
8
0
100
AcDbSpline
70
0
71
3
72
8
73
4
74
0
42
0.000000001
43
0.0000000001
44
0.0000000001
40
0
40
0
40
0
40
0
40
1
40
1
40
1
40
1
10
155.25721556265745
20
40.194778939878233
30
0
10
155.79743156562643
20
40.07995248372859
30
0
10
156.32844839805881
20
40.424798846825723
30
0
10
156.44327485420911
20
40.965014849794379
30
0
0
LINE
5
362
100
AcDbEntity
8
0
100
AcDbLine
10
182.51157232170684
20
47.692114309892219
30
0
11
180.01663203189381
21
35.954343101086685
31
0
0
LINE
5
363
100
AcDbEntity
8
0
100
AcDbLine
10
274.5654966499568
20
77.273503768678452
30
0
11
277.06043693976977
21
65.535732559872926
31
0
0
LINE
5
364
100
AcDbEntity
8
0
100
AcDbLine
10
297.1599999999998
20
79.860000000000198
30
0
11
309.1600000000002
21
79.860000000000198
31
0
0
LINE
5
365
100
AcDbEntity
8
0
100
AcDbLine
10
112.66000000000003
20
97.910000000000039
30
0
11
112.66000000000003
21
85.90999999999994
31
0
0
LINE
5
366
100
AcDbEntity
8
0
100
AcDbLine
10
269.62585126625095
20
76.223549730048873
30
0
11
272.12079155606409
21
64.485778521243006
31
0
0
LINE
5
367
100
AcDbEntity
8
0
100
AcDbLine
10
157.82786052772806
20
91.892832019970569
30
0
11
155.33292023791475
21
80.155060811165058
31
0
0
LINE
5
368
100
AcDbEntity
8
0
100
AcDbLine
10
338.72199999999623
20
66.860000298231299
30
0
11
343.7219999999931
21
66.860000298231299
31
0
0
LINE
5
369
100
AcDbEntity
8
0
100
AcDbLine
10
363.23875000000032
20
60.810000000000322
30
0
11
375.23875000000004
21
60.810000000000322
31
0
0
LINE
5
370
100
AcDbEntity
8
0
100
AcDbLine
10
336.04500000000019
20
59.810000000000294
30
0
11
336.04500000000019
21
47.80999999999986
31
0
0
SPLINE
5
371
100
AcDbEntity
8
0
100
AcDbSpline
70
0
71
3
72
8
73
4
74
0
42
0.000000001
43
0.0000000001
44
0.0000000001
40
0
40
0
40
0
40
0
40
1
40
1
40
1
40
1
10
118.71000000000006
20
59.810000000000294
30
0
10
118.71000000000006
20
60.362284749830607
30
0
10
118.26228474983067
20
60.810000000000322
30
0
10
117.71000000000002
20
60.810000000000322
30
0
0
SPLINE
5
372
100
AcDbEntity
8
0
100
AcDbSpline
70
0
71
3
72
8
73
4
74
0
42
0.000000001
43
0.0000000001
44
0.0000000001
40
0
40
0
40
0
40
0
40
1
40
1
40
1
40
1
10
287.54000000000002
20
86.970000000000169
30
0
10
287.54000000000002
20
86.417715250169209
30
0
10
287.98771525016906
20
85.970000000000113
30
0
10
288.54000000000008
20
85.970000000000113
30
0
0
SPLINE
5
373
100
AcDbEntity
8
0
100
AcDbSpline
70
0
71
3
72
8
73
4
74
0
42
0.000000001
43
0.0000000001
44
0.0000000001
40
0
40
0
40
0
40
0
40
1
40
1
40
1
40
1
10
362.00800000000726
20
59.809999701768731
30
0
10
361.45571525017573
20
59.809999701768731
30
0
10
361.00800000000663
20
59.362284451599656
30
0
10
361.00800000000589
20
58.809999701768703
30
0
0
SPLINE
5
374
100
AcDbEntity
8
0
100
AcDbSpline
70
0
71
3
72
8
73
4
74
0
42
0.000000001
43
0.0000000001
44
0.0000000001
40
0
40
0
40
0
40
0
40
1
40
1
40
1
40
1
10
358.57000000000016
20
46.809999999999832
30
0
10
359.12228474983095
20
46.809999999999832
30
0
10
359.57000000000005
20
47.257715250168914
30
0
10
359.57000000000005
20
47.80999999999986
30
0
0
LINE
5
375
100
AcDbEntity
8
0
100
AcDbLine
10
256.35278443734273
20
99.064778939878622
30
0
11
268.09055564614818
21
101.55971922969164
31
0
0
SPLINE
5
376
100
AcDbEntity
8
0
100
AcDbSpline
70
0
71
3
72
8
73
4
74
0
42
0.000000001
43
0.0000000001
44
0.0000000001
40
0
40
0
40
0
40
0
40
1
40
1
40
1
40
1
10
99.359999999999857
20
66.860000000000056
30
0
10
99.359999999999857
20
66.307715250169096
30
0
10
99.807715250169267
20
65.860000000000028
30
0
10
100.35999999999989
20
65.860000000000028
30
0
0
SPLINE
5
377
100
AcDbEntity
8
0
100
AcDbSpline
70
0
71
3
72
8
73
4
74
0
42
0.000000001
43
0.0000000001
44
0.0000000001
40
0
40
0
40
0
40
0
40
1
40
1
40
1
40
1
10
344.72199999999441
20
80.860000298232109
30
0
10
344.72199999999373
20
81.412285048062756
30
0
10
344.2742847498248
20
81.860000298231498
30
0
10
343.72199999999441
20
81.860000298231824
30
0
0
SPLINE
5
378
100
AcDbEntity
8
0
100
AcDbSpline
70
0
71
3
72
8
73
4
74
0
42
0.000000001
43
0.0000000001
44
0.0000000001
40
0
40
0
40
0
40
0
40
1
40
1
40
1
40
1
10
112.36000000000001
20
65.860000000000028
30
0
10
112.91228474983095
20
65.860000000000028
30
0
10
113.36000000000001
20
66.307715250169096
30
0
10
113.36000000000001
20
66.860000000000056
30
0
0
LINE
5
379
100
AcDbEntity
8
0
100
AcDbLine
10
50.000000000000007
20
0
30
0
11
0
21
0
31
0
0
SPLINE
5
380
100
AcDbEntity
8
0
100
AcDbSpline
70
0
71
3
72
8
73
4
74
0
42
0.000000001
43
0.0000000001
44
0.0000000001
40
0
40
0
40
0
40
0
40
1
40
1
40
1
40
1
10
66.322000000004465
20
59.809999701768092
30
0
10
65.769715250173846
20
59.809999701768092
30
0
10
65.322000000004749
20
59.362284451599017
30
0
10
65.322000000004749
20
58.809999701768064
30
0
0
LINE
5
381
100
AcDbEntity
8
0
100
AcDbLine
10
306.17000000000007
20
97.910000000000039
30
0
11
306.17000000000007
21
85.90999999999994
31
0
0
LINE
5
382
100
AcDbEntity
8
0
100
AcDbLine
10
301.53999999999991
20
98.969999999999928
30
0
11
301.53999999999991
21
86.970000000000169
31
0
0
SPLINE
5
383
100
AcDbEntity
8
0
100
AcDbSpline
70
0
71
3
72
8
73
4
74
0
42
0.000000001
43
0.0000000001
44
0.0000000001
40
0
40
0
40
0
40
0
40
1
40
1
40
1
40
1
10
269.62585126625095
20
76.223549730048873
30
0
10
269.51102481010076
20
76.763765733017834
30
0
10
268.98000797766804
20
77.108612096114967
30
0
10
268.4397919746994
20
76.993785639965012
30
0
0
LINE
5
384
100
AcDbEntity
8
0
100
AcDbLine
10
153.28341773241814
20
37.498780818666347
30
0
11
148.39267972874831
21
38.538339272755422
31
0
0
SPLINE
5
385
100
AcDbEntity
8
0
100
AcDbSpline
70
0
71
3
72
8
73
4
74
0
42
0.000000001
43
0.0000000001
44
0.0000000001
40
0
40
0
40
0
40
0
40
1
40
1
40
1
40
1
10
269.97573255987288
20
57.84956306022999
30
0
10
269.43551655690419
20
57.734736604079714
30
0
10
269.09067019380637
20
57.203719771647641
30
0
10
269.20549664995667
20
56.663503768678332
30
0
0
LINE
5
386
100
AcDbEntity
8
0
100
AcDbLine
10
266.36585126625141
20
114.48354973004884
30
0
11
268.86079155606438
21
102.74577852124327
31
0
0
SPLINE
5
387
100
AcDbEntity
8
0
100
AcDbSpline
70
0
71
3
72
8
73
4
74
0
42
0.000000001
43
0.0000000001
44
0.0000000001
40
0
40
0
40
0
40
0
40
1
40
1
40
1
40
1
10
367.79560000000015
20
40.712000000000081
30
0
10
367.79560000000015
20
41.26428474983102
30
0
10
367.34788474983105
20
41.712000000000117
30
0
10
366.79560000000026
20
41.712000000000117
30
0
0
SPLINE
5
388
100
AcDbEntity
8
0
100
AcDbSpline
70
0
71
3
72
8
73
4
74
0
42
0.000000001
43
0.0000000001
44
0.0000000001
40
0
40
0
40
0
40
0
40
1
40
1
40
1
40
1
10
268.44043693976994
20
83.185732559872747
30
0
10
268.55526339592029
20
82.645516556904099
30
0
10
269.08628022835239
20
82.300670193806639
30
0
10
269.62649623132171
20
82.415496649956935
30
0
0
LINE
5
389
100
AcDbEntity
8
0
100
AcDbLine
10
266.71573255987317
20
96.109563060230258
30
0
11
278.45350376867873
21
98.604503350043274
31
0
0
LINE
5
390
100
AcDbEntity
8
0
100
AcDbLine
10
316.21000000000004
20
79.860000000000198
30
0
11
328.20999999999981
21
79.860000000000198
31
0
0
SPLINE
5
391
100
AcDbEntity
8
0
100
AcDbSpline
70
0
71
3
72
8
73
4
74
0
42
0.000000001
43
0.0000000001
44
0.0000000001
40
0
40
0
40
0
40
0
40
1
40
1
40
1
40
1
10
281.36426744012721
20
84.910436939769923
30
0
10
281.9044834430959
20
85.025263395920234
30
0
10
282.24932980619366
20
85.556280228352591
30
0
10
282.13450335004336
20
86.096496231321581
30
0
0
LINE
5
392
100
AcDbEntity
8
0
100
AcDbLine
10
274.78573255987237
20
37.859563060229966
30
0
11
286.52350376867855
21
40.354503350043615
31
0
0
LINE
5
393
100
AcDbEntity
8
0
100
AcDbLine
10
158.5278605277278
20
72.262832019970759
30
0
11
156.03292023791479
21
60.525060811165218
31
0
0
SPLINE
5
394
100
AcDbEntity
8
0
100
AcDbSpline
70
0
71
3
72
8
73
4
74
0
42
0.000000001
43
0.0000000001
44
0.0000000001
40
0
40
0
40
0
40
0
40
1
40
1
40
1
40
1
10
288.25956306023005
20
80.184267440127286
30
0
10
288.14473660407981
20
80.724483443095949
30
0
10
287.61371977164708
20
81.069329806193409
30
0
10
287.07350376867839
20
80.954503350043126
30
0
0
SPLINE
5
395
100
AcDbEntity
8
0
100
AcDbSpline
70
0
71
3
72
8
73
4
74
0
42
0.000000001
43
0.0000000001
44
0.0000000001
40
0
40
0
40
0
40
0
40
1
40
1
40
1
40
1
10
271.35055564614788
20
63.299719229691362
30
0
10
271.8907716491172
20
63.414545685841631
30
0
10
272.23561801221427
20
63.945562518274357
30
0
10
272.12079155606409
20
64.485778521243006
30
0
0
SPLINE
5
396
100
AcDbEntity
8
0
100
AcDbSpline
70
0
71
3
72
8
73
4
74
0
42
0.000000001
43
0.0000000001
44
0.0000000001
40
0
40
0
40
0
40
0
40
1
40
1
40
1
40
1
10
156.22505522285644
20
34.826279121907561
30
0
10
156.19422894882888
20
34.832831448724363
30
0
10
156.16311016184426
20
34.837922880572876
30
0
10
156.13180305638843
20
34.841536369901874
30
0
0
SPLINE
5
397
100
AcDbEntity
8
0
100
AcDbSpline
70
0
71
3
72
8
73
4
74
0
42
0.000000001
43
0.0000000001
44
0.0000000001
40
0
40
0
40
0
40
0
40
1
40
1
40
1
40
1
10
338.22000000000014
20
84.909999999999883
30
0
10
338.7722847498311
20
84.91000000000021
30
0
10
339.22000000000025
20
85.357715250169292
30
0
10
339.22000000000025
20
85.910000000000238
30
0
0
SPLINE
5
398
100
AcDbEntity
8
0
100
AcDbSpline
70
0
71
3
72
8
73
4
74
0
42
0.000000001
43
0.0000000001
44
0.0000000001
40
0
40
0
40
0
40
0
40
1
40
1
40
1
40
1
10
253.44202076589357
20
112.75884535015194
30
0
10
252.90180476292491
20
112.64401889400165
30
0
10
252.55695839982781
20
112.11300206156893
30
0
10
252.67178485597807
20
111.5727860586003
30
0
0
SPLINE
5
399
100
AcDbEntity
8
0
100
AcDbSpline
70
0
71
3
72
8
73
4
74
0
42
0.000000001
43
0.0000000001
44
0.0000000001
40
0
40
0
40
0
40
0
40
1
40
1
40
1
40
1
10
152.45077286136706
20
22.333385225250421
30
0
10
152.48159913894736
20
22.326832897678983
30
0
10
152.51271792954955
20
22.321741465412721
30
0
10
152.54402503865248
20
22.318127976007993
30
0
0
LINE
5
400
100
AcDbEntity
8
0
100
AcDbLine
10
368.00800000000424
20
46.809999999999832
30
0
11
375.23875000000004
21
46.809999999999832
31
0
0
LINE
5
401
100
AcDbEntity
8
0
100
AcDbLine
10
269.62649623132171
20
82.415496649956935
30
0
11
281.36426744012721
21
84.910436939769923
31
0
0
SPLINE
5
402
100
AcDbEntity
8
0
100
AcDbSpline
70
0
71
3
72
8
73
4
74
0
42
0.000000001
43
0.0000000001
44
0.0000000001
40
0
40
0
40
0
40
0
40
1
40
1
40
1
40
1
10
343.13200000000336
20
44.809999701768206
30
0
10
343.68428474983375
20
44.809999701767566
30
0
10
344.13200000000279
20
45.257714951936649
30
0
10
344.13200000000279
20
45.80999970176633
30
0
0
LINE
5
403
100
AcDbEntity
8
0
100
AcDbLine
10
252.17922713862299
20
21.293385225249612
30
0
11
257.06996514229093
21
22.33294367933869
31
0
0
SPLINE
5
404
100
AcDbEntity
8
0
100
AcDbSpline
70
0
71
3
72
8
73
4
74
0
42
0.000000001
43
0.0000000001
44
0.0000000001
40
0
40
0
40
0
40
0
40
1
40
1
40
1
40
1
10
72.322000000003726
20
58.809999701768064
30
0
10
72.322000000003726
20
59.362284451599017
30
0
10
71.874284749834956
20
59.809999701768092
30
0
10
71.322000000004337
20
59.809999701768092
30
0
0
SPLINE
5
405
100
AcDbEntity
8
0
100
AcDbSpline
70
0
71
3
72
8
73
4
74
0
42
0.000000001
43
0.0000000001
44
0.0000000001
40
0
40
0
40
0
40
0
40
1
40
1
40
1
40
1
10
96.198000000003262
20
58.809999701769343
30
0
10
96.198000000002949
20
59.362284451599656
30
0
10
95.750284749833554
20
59.809999701768731
30
0
10
95.198000000002907
20
59.809999701768731
30
0
0
SPLINE
5
406
100
AcDbEntity
8
0
100
AcDbSpline
70
0
71
3
72
8
73
4
74
0
42
0.000000001
43
0.0000000001
44
0.0000000001
40
0
40
0
40
0
40
0
40
1
40
1
40
1
40
1
10
275.33573255987289
20
78.45956306023011
30
0
10
274.7955165569042
20
78.344736604079827
30
0
10
274.4506701938065
20
77.813719771647442
30
0
10
274.5654966499568
20
77.273503768678452
30
0
0
LINE
5
407
100
AcDbEntity
8
0
100
AcDbLine
10
337.04500000000024
20
46.809999999999832
30
0
11
337.13200000000512
21
46.809999999999832
31
0
0
SPLINE
5
408
100
AcDbEntity
8
0
100
AcDbSpline
70
0
71
3
72
8
73
4
74
0
42
0.000000001
43
0.0000000001
44
0.0000000001
40
0
40
0
40
0
40
0
40
1
40
1
40
1
40
1
10
153.39838899917069
20
37.467072120192299
30
0
10
153.36073021789372
20
37.47991962534951
30
0
10
153.32233820204917
20
37.490508017463476
30
0
10
153.28341773241814
20
37.498780818666347
30
0
0
SPLINE
5
409
100
AcDbEntity
8
0
100
AcDbSpline
70
0
71
3
72
8
73
4
74
0
42
0.000000001
43
0.0000000001
44
0.0000000001
40
0
40
0
40
0
40
0
40
1
40
1
40
1
40
1
10
249.45684385216921
20
97.599001519613182
30
0
10
249.99705985513793
20
97.713827975763493
30
0
10
250.34190621823558
20
98.244844808196206
30
0
10
250.2270797620854
20
98.78506081116484
30
0
0
SPLINE
5
410
100
AcDbEntity
8
0
100
AcDbSpline
70
0
71
3
72
8
73
4
74
0
42
0.000000001
43
0.0000000001
44
0.0000000001
40
0
40
0
40
0
40
0
40
1
40
1
40
1
40
1
10
98.65999999999984
20
85.90999999999994
30
0
10
98.660000000000153
20
85.357715250169292
30
0
10
99.107715250169235
20
84.909999999999883
30
0
10
99.659999999999869
20
84.909999999999883
30
0
0
LINE
5
411
100
AcDbEntity
8
0
100
AcDbLine
10
311.5300000000002
20
116.95999999999992
30
0
11
311.5300000000002
21
104.96000000000012
31
0
0
LINE
5
412
100
AcDbEntity
8
0
100
AcDbLine
10
167.96282643166097
20
32.331338832095199
30
0
11
156.22505522285644
21
34.826279121907561
31
0
0
SPLINE
5
413
100
AcDbEntity
8
0
100
AcDbSpline
70
0
71
3
72
8
73
4
74
0
42
0.000000001
43
0.0000000001
44
0.0000000001
40
0
40
0
40
0
40
0
40
1
40
1
40
1
40
1
10
112.66000000000003
20
97.910000000000039
30
0
10
112.66000000000003
20
98.462284749830999
30
0
10
112.21228474983093
20
98.910000000000068
30
0
10
111.65999999999997
20
98.910000000000068
30
0
0
LINE
5
414
100
AcDbEntity
8
0
100
AcDbLine
10
331.57999999999987
20
103.96000000000008
30
0
11
331.66700000000475
21
103.96000000000008
31
0
0
SPLINE
5
415
100
AcDbEntity
8
0
100
AcDbSpline
70
0
71
3
72
8
73
4
74
0
42
0.000000001
43
0.0000000001
44
0.0000000001
40
0
40
0
40
0
40
0
40
1
40
1
40
1
40
1
10
361.00800000000589
20
45.809999701767609
30
0
10
361.00800000000663
20
45.257714951937288
30
0
10
361.45571525017499
20
44.809999701768206
30
0
10
362.00800000000595
20
44.809999701768206
30
0
0
LINE
5
416
100
AcDbEntity
8
0
100
AcDbLine
10
71.322000000004337
20
59.809999701768092
30
0
11
66.322000000004465
21
59.809999701768092
31
0
0
SPLINE
5
417
100
AcDbEntity
8
0
100
AcDbSpline
70
0
71
3
72
8
73
4
74
0
42
0.000000001
43
0.0000000001
44
0.0000000001
40
0
40
0
40
0
40
0
40
1
40
1
40
1
40
1
10
255.16672514579108
20
99.835014849794433
30
0
10
255.28155160194137
20
99.294798846825785
30
0
10
255.81256843437336
20
98.949952483728353
30
0
10
256.35278443734273
20
99.064778939878622
30
0
0
LINE
5
418
100
AcDbEntity
8
0
100
AcDbLine
10
146.43020802530043
20
56.383785639965218
30
0
11
158.1679792341063
21
53.88884535015157
31
0
0
LINE
5
419
100
AcDbEntity
8
0
100
AcDbLine
10
320.16999999999996
20
97.910000000000039
30
0
11
320.16999999999996
21
85.910000000000238
31
0
0
SPLINE
5
420
100
AcDbEntity
8
0
100
AcDbSpline
70
0
71
3
72
8
73
4
74
0
42
0.000000001
43
0.0000000001
44
0.0000000001
40
0
40
0
40
0
40
0
40
1
40
1
40
1
40
1
10
277.06043693976977
20
65.535732559872926
30
0
10
277.17526339592007
20
64.995516556904278
30
0
10
277.70628022835274
20
64.650670193806491
30
0
10
278.24649623132137
20
64.765496649956788
30
0
0
LINE
5
421
100
AcDbEntity
8
0
100
AcDbLine
10
343.72199999999441
20
81.860000298231824
30
0
11
338.72199999999737
21
81.860000298231824
31
0
0
LINE
5
422
100
AcDbEntity
8
0
100
AcDbLine
10
347.16000000000031
20
65.860000000000028
30
0
11
359.16000000000008
21
65.860000000000028
31
0
0
LINE
5
423
100
AcDbEntity
8
0
100
AcDbLine
10
100.35999999999989
20
65.860000000000028
30
0
11
112.36000000000001
21
65.860000000000028
31
0
0
LINE
5
424
100
AcDbEntity
8
0
100
AcDbLine
10
359.57000000000005
20
59.810000000000294
30
0
11
359.57000000000005
21
47.80999999999986
31
0
0
LINE
5
425
100
AcDbEntity
8
0
100
AcDbLine
10
99.359999999999857
20
78.860000000000156
30
0
11
99.359999999999857
21
66.860000000000056
31
0
0
SPLINE
5
426
100
AcDbEntity
8
0
100
AcDbSpline
70
0
71
3
72
8
73
4
74
0
42
0.000000001
43
0.0000000001
44
0.0000000001
40
0
40
0
40
0
40
0
40
1
40
1
40
1
40
1
10
336.04500000000019
20
47.80999999999986
30
0
10
336.04500000000019
20
47.257715250168914
30
0
10
336.49271525016928
20
46.809999999999832
30
0
10
337.04500000000024
20
46.809999999999832
30
0
0
LINE
5
427
100
AcDbEntity
8
0
100
AcDbLine
10
332.66700000000412
20
101.95999970176814
30
0
11
337.66700000000299
21
101.95999970176814
31
0
0
LINE
5
428
100
AcDbEntity
8
0
100
AcDbLine
10
362.597999999997
20
66.860000298232251
30
0
11
367.59799999999581
21
66.860000298232251
31
0
0
LINE
5
429
100
AcDbEntity
8
0
100
AcDbLine
10
68.399999999999864
20
78.860000000000156
30
0
11
68.399999999999864
21
66.860000000000056
31
0
0
SPLINE
5
430
100
AcDbEntity
8
0
100
AcDbSpline
70
0
71
3
72
8
73
4
74
0
42
0.000000001
43
0.0000000001
44
0.0000000001
40
0
40
0
40
0
40
0
40
1
40
1
40
1
40
1
10
156.33968413355041
20
35.81953994470696
30
0
10
156.45451058970039
20
36.359755947675637
30
0
10
156.10966422660294
20
36.890772780107696
30
0
10
155.56944822363459
20
37.005599236257972
30
0
0
SPLINE
5
431
100
AcDbEntity
8
0
100
AcDbSpline
70
0
71
3
72
8
73
4
74
0
42
0.000000001
43
0.0000000001
44
0.0000000001
40
0
40
0
40
0
40
0
40
1
40
1
40
1
40
1
10
363.62999999999988
20
116.96000000000025
30
0
10
363.62999999999988
20
117.51228474983085
30
0
10
363.18228474983073
20
117.95999999999994
30
0
10
362.63000000000034
20
117.95999999999994
30
0
0
LINE
5
432
100
AcDbEntity
8
0
100
AcDbLine
10
338.66700000000299
20
103.96000000000008
30
0
11
355.54300000000626
21
103.96000000000008
31
0
0
LINE
5
433
100
AcDbEntity
8
0
100
AcDbLine
10
344.13200000000279
20
46.809999999999832
30
0
11
358.57000000000016
21
46.809999999999832
31
0
0
SPLINE
5
434
100
AcDbEntity
8
0
100
AcDbSpline
70
0
71
3
72
8
73
4
74
0
42
0.000000001
43
0.0000000001
44
0.0000000001
40
0
40
0
40
0
40
0
40
1
40
1
40
1
40
1
10
266.71573255987317
20
96.109563060230258
30
0
10
266.17551655690386
20
95.994736604079961
30
0
10
265.83067019380684
20
95.46371977164759
30
0
10
265.94549664995697
20
94.923503768678614
30
0
0
LINE
5
435
100
AcDbEntity
8
0
100
AcDbLine
10
156.80315614783061
20
59.339001519613575
30
0
11
168.54092735663644
21
56.844061229799905
31
0
0
LINE
5
436
100
AcDbEntity
8
0
100
AcDbLine
10
113.36000000000001
20
78.860000000000156
30
0
11
113.36000000000001
21
66.860000000000056
31
0
0
SPLINE
5
437
100
AcDbEntity
8
0
100
AcDbSpline
70
0
71
3
72
8
73
4
74
0
42
0.000000001
43
0.0000000001
44
0.0000000001
40
0
40
0
40
0
40
0
40
1
40
1
40
1
40
1
10
105.70999999999992
20
60.810000000000322
30
0
10
105.1577152501693
20
60.810000000000322
30
0
10
104.70999999999989
20
60.362284749830607
30
0
10
104.70999999999989
20
59.810000000000294
30
0
0
SPLINE
5
438
100
AcDbEntity
8
0
100
AcDbSpline
70
0
71
3
72
8
73
4
74
0
42
0.000000001
43
0.0000000001
44
0.0000000001
40
0
40
0
40
0
40
0
40
1
40
1
40
1
40
1
10
87.76000000000009
20
59.810000000000294
30
0
10
87.76000000000009
20
60.362284749830607
30
0
10
87.312284749830695
20
60.810000000000322
30
0
10
86.760000000000048
20
60.810000000000322
30
0
0
LINE
5
439
100
AcDbEntity
8
0
100
AcDbLine
10
331.57999999999987
20
117.95999999999994
30
0
11
362.63000000000034
21
117.95999999999994
31
0
0
LINE
5
440
100
AcDbEntity
8
0
100
AcDbLine
10
150.74944435385194
20
99.579719229691634
30
0
11
162.4872155626575
21
97.084778939878618
31
0
0
LINE
5
441
100
AcDbEntity
8
0
100
AcDbLine
10
94.300000000000139
20
103.96000000000008
30
0
11
106.29999999999993
21
103.96000000000008
31
0
0
LINE
5
442
100
AcDbEntity
8
0
100
AcDbLine
10
42.999999999999915
20
81.000000000000057
30
0
11
42.999999999999915
21
68.999999999999943
31
0
0
SPLINE
5
443
100
AcDbEntity
8
0
100
AcDbSpline
70
0
71
3
72
8
73
4
74
0
42
0.000000001
43
0.0000000001
44
0.0000000001
40
0
40
0
40
0
40
0
40
1
40
1
40
1
40
1
10
161.38292023791479
20
39.915060811165105
30
0
10
161.26809378176455
20
39.374844808195803
30
0
10
161.61294014486197
20
38.84382797576373
30
0
10
162.15315614783094
20
38.729001519613455
30
0
0
SPLINE
5
444
100
AcDbEntity
8
0
100
AcDbSpline
70
0
71
3
72
8
73
4
74
0
42
0.000000001
43
0.0000000001
44
0.0000000001
40
0
40
0
40
0
40
0
40
1
40
1
40
1
40
1
10
338.72199999999737
20
81.860000298231824
30
0
10
338.16971525016646
20
81.860000298231185
30
0
10
337.72199999999742
20
81.412285048062429
30
0
10
337.72199999999606
20
80.860000298231796
30
0
0
SPLINE
5
445
100
AcDbEntity
8
0
100
AcDbSpline
70
0
71
3
72
8
73
4
74
0
42
0.000000001
43
0.0000000001
44
0.0000000001
40
0
40
0
40
0
40
0
40
1
40
1
40
1
40
1
10
337.66700000000299
20
101.95999970176814
30
0
10
338.21928474983332
20
101.95999970176783
30
0
10
338.66700000000236
20
102.40771495193626
30
0
10
338.66700000000299
20
102.95999970176625
30
0
0
SPLINE
5
446
100
AcDbEntity
8
0
100
AcDbSpline
70
0
71
3
72
8
73
4
74
0
42
0.000000001
43
0.0000000001
44
0.0000000001
40
0
40
0
40
0
40
0
40
1
40
1
40
1
40
1
10
99.659999999999869
20
98.910000000000068
30
0
10
99.107715250169235
20
98.910000000000068
30
0
10
98.65999999999984
20
98.462284749830999
30
0
10
98.65999999999984
20
97.910000000000039
30
0
0
LINE
5
447
100
AcDbEntity
8
0
100
AcDbLine
10
42.999999999999915
20
82.000000000000085
30
0
11
57.000000000000099
21
67.999999999999915
31
0
0
SPLINE
5
448
100
AcDbEntity
8
0
100
AcDbSpline
70
0
71
3
72
8
73
4
74
0
42
0.000000001
43
0.0000000001
44
0.0000000001
40
0
40
0
40
0
40
0
40
1
40
1
40
1
40
1
10
331.57999999999987
20
117.95999999999994
30
0
10
331.02771525016948
20
117.95999999999994
30
0
10
330.57999999999981
20
117.51228474983085
30
0
10
330.57999999999981
20
116.96000000000025
30
0
0
LINE
5
449
100
AcDbEntity
8
0
100
AcDbLine
10
105.70999999999992
20
60.810000000000322
30
0
11
117.71000000000002
21
60.810000000000322
31
0
0
SPLINE
5
450
100
AcDbEntity
8
0
100
AcDbSpline
70
0
71
3
72
8
73
4
74
0
42
0.000000001
43
0.0000000001
44
0.0000000001
40
0
40
0
40
0
40
0
40
1
40
1
40
1
40
1
10
331.66700000000475
20
102.95999970176786
30
0
10
331.66700000000475
20
102.40771495193721
30
0
10
332.11471525017379
20
101.95999970176844
30
0
10
332.66700000000412
20
101.95999970176814
30
0
0
LINE
5
451
100
AcDbEntity
8
0
100
AcDbLine
10
362.23875000000021
20
59.809999701768731
30
0
11
362.00800000000726
21
59.809999701768731
31
0
0
LINE
5
452
100
AcDbEntity
8
0
100
AcDbLine
10
156.1031561478309
20
78.969001519613414
30
0
11
167.84092735663646
21
76.474061229800384
31
0
0
LINE
5
453
100
AcDbEntity
8
0
100
AcDbLine
10
376.2387500000001
20
59.810000000000294
30
0
11
376.2387500000001
21
47.80999999999986
31
0
0
SPLINE
5
454
100
AcDbEntity
8
0
100
AcDbSpline
70
0
71
3
72
8
73
4
74
0
42
0.000000001
43
0.0000000001
44
0.0000000001
40
0
40
0
40
0
40
0
40
1
40
1
40
1
40
1
10
90.198000000006587
20
59.809999701768731
30
0
10
89.645715250175627
20
59.809999701768731
30
0
10
89.198000000006232
20
59.362284451599656
30
0
10
89.198000000006232
20
58.809999701768064
30
0
0
SPLINE
5
455
100
AcDbEntity
8
0
100
AcDbSpline
70
0
71
3
72
8
73
4
74
0
42
0.000000001
43
0.0000000001
44
0.0000000001
40
0
40
0
40
0
40
0
40
1
40
1
40
1
40
1
10
343.7219999999931
20
66.860000298231299
30
0
10
344.2742847498248
20
66.860000298231299
30
0
10
344.72199999999373
20
67.307715548400694
30
0
10
344.72199999999373
20
67.860000298231967
30
0
0
SPLINE
5
456
100
AcDbEntity
8
0
100
AcDbSpline
70
0
71
3
72
8
73
4
74
0
42
0.000000001
43
0.0000000001
44
0.0000000001
40
0
40
0
40
0
40
0
40
1
40
1
40
1
40
1
10
148.39267972874831
20
38.538339272755422
30
0
10
147.85246372577964
20
38.653165728906345
30
0
10
147.32144689334726
20
38.308319365809218
30
0
10
147.20662043719668
20
37.768103362841202
30
0
0
SPLINE
5
457
100
AcDbEntity
8
0
100
AcDbSpline
70
0
71
3
72
8
73
4
74
0
42
0.000000001
43
0.0000000001
44
0.0000000001
40
0
40
0
40
0
40
0
40
1
40
1
40
1
40
1
10
375.23875000000004
20
46.809999999999832
30
0
10
375.791034749831
20
46.809999999999832
30
0
10
376.2387500000001
20
47.257715250169539
30
0
10
376.2387500000001
20
47.80999999999986
30
0
0
SPLINE
5
458
100
AcDbEntity
8
0
100
AcDbSpline
70
0
71
3
72
8
73
4
74
0
42
0.000000001
43
0.0000000001
44
0.0000000001
40
0
40
0
40
0
40
0
40
1
40
1
40
1
40
1
10
284.9995630602304
20
118.44426744012723
30
0
10
284.8847366040801
20
118.98448344309622
30
0
10
284.35371977164738
20
119.32932980619336
30
0
10
283.8135037686788
20
119.21450335004336
30
0
0
LINE
5
459
100
AcDbEntity
8
0
100
AcDbLine
10
57.000000000000099
20
81.000000000000057
30
0
11
57.000000000000099
21
68.999999999999943
31
0
0
LINE
5
460
100
AcDbEntity
8
0
100
AcDbLine
10
272.07573255987262
20
116.71956306023004
30
0
11
283.8135037686788
21
119.21450335004336
31
0
0
LINE
5
461
100
AcDbEntity
8
0
100
AcDbLine
10
331.66700000000475
20
103.96000000000008
30
0
11
331.66700000000475
21
102.95999970176786
31
0
0
SPLINE
5
462
100
AcDbEntity
8
0
100
AcDbSpline
70
0
71
3
72
8
73
4
74
0
42
0.000000001
43
0.0000000001
44
0.0000000001
40
0
40
0
40
0
40
0
40
1
40
1
40
1
40
1
10
361.59799999999763
20
67.860000298231967
30
0
10
361.59799999999763
20
67.307715548401333
30
0
10
362.04571525016598
20
66.860000298232251
30
0
10
362.597999999997
20
66.860000298232251
30
0
0
SPLINE
5
463
100
AcDbEntity
8
0
100
AcDbSpline
70
0
71
3
72
8
73
4
74
0
42
0.000000001
43
0.0000000001
44
0.0000000001
40
0
40
0
40
0
40
0
40
1
40
1
40
1
40
1
10
362.03999999999979
20
84.909999999999883
30
0
10
362.59228474983075
20
84.909999999999883
30
0
10
363.03999999999985
20
85.357715250169292
30
0
10
363.03999999999985
20
85.90999999999994
30
0
0
SPLINE
5
464
100
AcDbEntity
8
0
100
AcDbSpline
70
0
71
3
72
8
73
4
74
0
42
0.000000001
43
0.0000000001
44
0.0000000001
40
0
40
0
40
0
40
0
40
1
40
1
40
1
40
1
10
111.93999999999991
20
107.10000000000001
30
0
10
111.93999999999991
20
106.54771525016938
30
0
10
112.38771525016932
20
106.09999999999998
30
0
10
112.93999999999996
20
106.09999999999998
30
0
0
LINE
5
465
100
AcDbEntity
8
0
100
AcDbLine
10
367.59799999999581
20
81.860000298232137
30
0
11
362.597999999997
21
81.860000298232137
31
0
0
SPLINE
5
466
100
AcDbEntity
8
0
100
AcDbSpline
70
0
71
3
72
8
73
4
74
0
42
0.000000001
43
0.0000000001
44
0.0000000001
40
0
40
0
40
0
40
0
40
1
40
1
40
1
40
1
10
118.06549664995669
20
88.076496231321585
30
0
10
117.9506701938067
20
87.536280228352595
30
0
10
118.29551655690383
20
87.005263395920224
30
0
10
118.83573255987284
20
86.890436939769927
30
0
0
LINE
5
467
100
AcDbEntity
8
0
100
AcDbLine
10
74.759999999999962
20
60.810000000000322
30
0
11
86.760000000000048
21
60.810000000000322
31
0
0
LINE
5
468
100
AcDbEntity
8
0
100
AcDbLine
10
362.54300000000393
20
103.96000000000008
30
0
11
362.62999999999971
21
103.96000000000008
31
0
0
LINE
5
469
100
AcDbEntity
8
0
100
AcDbLine
10
293.90000000000009
20
120.10000000000014
30
0
11
305.89999999999986
21
120.10000000000014
31
0
0
LINE
5
470
100
AcDbEntity
8
0
100
AcDbLine
10
306.90000000000003
20
119.10000000000014
30
0
11
306.90000000000003
21
107.10000000000001
31
0
0
LINE
5
471
100
AcDbEntity
8
0
100
AcDbLine
10
99.659999999999869
20
84.909999999999883
30
0
11
111.65999999999997
21
84.909999999999883
31
0
0
LINE
5
472
100
AcDbEntity
8
0
100
AcDbLine
10
99.659999999999869
20
98.910000000000068
30
0
11
111.65999999999997
21
98.910000000000068
31
0
0
SPLINE
5
473
100
AcDbEntity
8
0
100
AcDbSpline
70
0
71
3
72
8
73
4
74
0
42
0.000000001
43
0.0000000001
44
0.0000000001
40
0
40
0
40
0
40
0
40
1
40
1
40
1
40
1
10
339.22000000000025
20
97.910000000000039
30
0
10
339.22000000000025
20
98.462284749830999
30
0
10
338.77228474983048
20
98.910000000000068
30
0
10
338.22000000000014
20
98.910000000000068
30
0
0
LINE
5
474
100
AcDbEntity
8
0
100
AcDbLine
10
143.51944435385192
20
42.689719229691875
30
0
11
155.25721556265745
21
40.194778939878233
31
0
0
LINE
5
475
100
AcDbEntity
8
0
100
AcDbLine
10
338.66700000000299
20
102.95999970176625
30
0
11
338.66700000000299
21
103.96000000000008
31
0
0
LINE
5
476
100
AcDbEntity
8
0
100
AcDbLine
10
361.00800000000589
20
58.809999701768703
30
0
11
361.00800000000589
21
45.809999701767609
31
0
0
SPLINE
5
477
100
AcDbEntity
8
0
100
AcDbSpline
70
0
71
3
72
8
73
4
74
0
42
0.000000001
43
0.0000000001
44
0.0000000001
40
0
40
0
40
0
40
0
40
1
40
1
40
1
40
1
10
158.93821514402211
20
52.702786058600552
30
0
10
159.05304160017238
20
53.243002061569207
30
0
10
158.70819523707496
20
53.774018894001927
30
0
10
158.1679792341063
20
53.88884535015157
30
0
0
SPLINE
5
478
100
AcDbEntity
8
0
100
AcDbSpline
70
0
71
3
72
8
73
4
74
0
42
0.000000001
43
0.0000000001
44
0.0000000001
40
0
40
0
40
0
40
0
40
1
40
1
40
1
40
1
10
279.63956306023044
20
97.834267440127121
30
0
10
279.52473660408009
20
98.374483443096125
30
0
10
278.99371977164736
20
98.719329806193556
30
0
10
278.45350376867873
20
98.604503350043274
30
0
0
LINE
5
479
100
AcDbEntity
8
0
100
AcDbLine
10
293.90000000000009
20
106.09999999999998
30
0
11
305.89999999999986
21
106.09999999999998
31
0
0
LINE
5
480
100
AcDbEntity
8
0
100
AcDbLine
10
107.29999999999993
20
116.96000000000025
30
0
11
107.29999999999993
21
104.96000000000012
31
0
0
LINE
5
481
100
AcDbEntity
8
0
100
AcDbLine
10
362.00800000000595
20
44.809999701768206
30
0
11
367.00800000000294
21
44.809999701768206
31
0
0
LINE
5
482
100
AcDbEntity
8
0
100
AcDbLine
10
307.17000000000019
20
98.910000000000068
30
0
11
319.16999999999996
21
98.910000000000068
31
0
0
SPLINE
5
483
100
AcDbEntity
8
0
100
AcDbSpline
70
0
71
3
72
8
73
4
74
0
42
0.000000001
43
0.0000000001
44
0.0000000001
40
0
40
0
40
0
40
0
40
1
40
1
40
1
40
1
10
330.57999999999981
20
104.96000000000012
30
0
10
330.57999999999981
20
104.40771525016916
30
0
10
331.02771525016948
20
103.96000000000008
30
0
10
331.57999999999987
20
103.96000000000008
30
0
0
LINE
5
484
100
AcDbEntity
8
0
100
AcDbLine
10
337.04500000000024
20
60.810000000000322
30
0
11
358.57000000000016
21
60.810000000000322
31
0
0
LINE
5
485
100
AcDbEntity
8
0
100
AcDbLine
10
339.22000000000025
20
97.910000000000039
30
0
11
339.22000000000025
21
85.910000000000238
31
0
0
SPLINE
5
486
100
AcDbEntity
8
0
100
AcDbSpline
70
0
71
3
72
8
73
4
74
0
42
0.000000001
43
0.0000000001
44
0.0000000001
40
0
40
0
40
0
40
0
40
1
40
1
40
1
40
1
10
363.23875000000032
20
60.810000000000322
30
0
10
362.68646525016936
20
60.810000000000322
30
0
10
362.23874999999958
20
60.362284749830607
30
0
10
362.23874999999958
20
59.809999999999647
30
0
0
LINE
5
487
100
AcDbEntity
8
0
100
AcDbLine
10
155.60573255987276
20
20.640436939770002
30
0
11
167.3435037686786
21
18.145496649956989
31
0
0
SPLINE
5
488
100
AcDbEntity
8
0
100
AcDbSpline
70
0
71
3
72
8
73
4
74
0
42
0.000000001
43
0.0000000001
44
0.0000000001
40
0
40
0
40
0
40
0
40
1
40
1
40
1
40
1
10
111.65999999999997
20
84.909999999999883
30
0
10
112.21228474983093
20
84.91000000000021
30
0
10
112.66000000000003
20
85.357715250169292
30
0
10
112.66000000000003
20
85.90999999999994
30
0
0
SPLINE
5
489
100
AcDbEntity
8
0
100
AcDbSpline
70
0
71
3
72
8
73
4
74
0
42
0.000000001
43
0.0000000001
44
0.0000000001
40
0
40
0
40
0
40
0
40
1
40
1
40
1
40
1
10
113.36000000000001
20
78.860000000000156
30
0
10
113.36000000000001
20
79.412284749830789
30
0
10
112.91228474983063
20
79.860000000000198
30
0
10
112.36000000000001
20
79.860000000000198
30
0
0
LINE
5
490
100
AcDbEntity
8
0
100
AcDbLine
10
248.0820207658941
20
92.148845350151817
30
0
11
259.81979197469974
21
94.643785639964833
31
0
0
LINE
5
491
100
AcDbEntity
8
0
100
AcDbLine
10
253.44202076589357
20
112.75884535015194
30
0
11
265.1797919746997
21
115.25378563996495
31
0
0
LINE
5
492
100
AcDbEntity
8
0
100
AcDbLine
10
284.9995630602304
20
118.44426744012723
30
0
11
287.49450335004337
21
106.70649623132171
31
0
0
SPLINE
5
493
100
AcDbEntity
8
0
100
AcDbSpline
70
0
71
3
72
8
73
4
74
0
42
0.000000001
43
0.0000000001
44
0.0000000001
40
0
40
0
40
0
40
0
40
1
40
1
40
1
40
1
10
347.16000000000031
20
79.860000000000198
30
0
10
346.60771525016935
20
79.860000000000198
30
0
10
346.16000000000014
20
79.412284749830789
30
0
10
346.16000000000014
20
78.860000000000156
30
0
0
LINE
5
494
100
AcDbEntity
8
0
100
AcDbLine
10
368.00800000000424
20
45.809999701768248
30
0
11
368.00800000000424
21
46.809999999999832
31
0
0
SPLINE
5
495
100
AcDbEntity
8
0
100
AcDbSpline
70
0
71
3
72
8
73
4
74
0
42
0.000000001
43
0.0000000001
44
0.0000000001
40
0
40
0
40
0
40
0
40
1
40
1
40
1
40
1
10
349.03999999999991
20
85.90999999999994
30
0
10
349.03999999999991
20
85.357715250169292
30
0
10
349.48771525016895
20
84.909999999999883
30
0
10
350.04000000000008
20
84.909999999999883
30
0
0
SPLINE
5
496
100
AcDbEntity
8
0
100
AcDbSpline
70
0
71
3
72
8
73
4
74
0
42
0.000000001
43
0.0000000001
44
0.0000000001
40
0
40
0
40
0
40
0
40
1
40
1
40
1
40
1
10
100.35999999999989
20
79.860000000000198
30
0
10
99.807715250169267
20
79.860000000000198
30
0
10
99.359999999999857
20
79.412284749830789
30
0
10
99.359999999999857
20
78.860000000000156
30
0
0
SPLINE
5
497
100
AcDbEntity
8
0
100
AcDbSpline
70
0
71
3
72
8
73
4
74
0
42
0.000000001
43
0.0000000001
44
0.0000000001
40
0
40
0
40
0
40
0
40
1
40
1
40
1
40
1
10
337.13200000000438
20
45.809999701767609
30
0
10
337.13200000000512
20
45.257714951937288
30
0
10
337.57971525017354
20
44.809999701768206
30
0
10
338.1320000000045
20
44.809999701768206
30
0
0
SPLINE
5
498
100
AcDbEntity
8
0
100
AcDbSpline
70
0
71
3
72
8
73
4
74
0
42
0.000000001
43
0.0000000001
44
0.0000000001
40
0
40
0
40
0
40
0
40
1
40
1
40
1
40
1
10
112.93999999999996
20
120.10000000000014
30
0
10
112.38771525016932
20
120.10000000000014
30
0
10
111.93999999999991
20
119.65228474983073
30
0
10
111.93999999999991
20
119.10000000000014
30
0
0
SPLINE
5
499
100
AcDbEntity
8
0
100
AcDbSpline
70
0
71
3
72
8
73
4
74
0
42
0.000000001
43
0.0000000001
44
0.0000000001
40
0
40
0
40
0
40
0
40
1
40
1
40
1
40
1
10
238.0683089719148
20
70.538127640073583
30
0
10
237.52809296894617
20
70.4233011839233
30
0
10
237.18324660584838
20
69.892284351490588
30
0
10
237.29807306199871
20
69.352068348521939
30
0
0
SPLINE
5
500
100
AcDbEntity
8
0
100
AcDbSpline
70
0
71
3
72
8
73
4
74
0
42
0.000000001
43
0.0000000001
44
0.0000000001
40
0
40
0
40
0
40
0
40
1
40
1
40
1
40
1
10
225.46313205819013
20
73.028283809534969
30
0
10
226.00334806115879
20
73.143110265685237
30
0
10
226.34819442425658
20
73.674127098117637
30
0
10
226.23336796810628
20
74.214343101086627
30
0
0
SPLINE
5
501
100
AcDbEntity
8
0
100
AcDbSpline
70
0
71
3
72
8
73
4
74
0
42
0.000000001
43
0.0000000001
44
0.0000000001
40
0
40
0
40
0
40
0
40
1
40
1
40
1
40
1
10
249.06055177635639
20
35.965599236256537
30
0
10
248.52033577338835
20
35.850772780106894
30
0
10
248.17548941029128
20
35.319755947674821
30
0
10
248.29031586644089
20
34.779539944706805
30
0
0
SPLINE
5
502
100
AcDbEntity
8
0
100
AcDbSpline
70
0
71
3
72
8
73
4
74
0
42
0.000000001
43
0.0000000001
44
0.0000000001
40
0
40
0
40
0
40
0
40
1
40
1
40
1
40
1
10
231.78309695645439
20
31.270822250463894
30
0
10
231.66827050030409
20
31.811038253432553
30
0
10
231.13725366787202
20
32.155884616529669
30
0
10
230.5970376649033
20
32.041058160380047
30
0
0
LINE
5
503
100
AcDbEntity
8
0
100
AcDbLine
10
162.15315614783094
20
38.729001519613455
30
0
11
173.89092735663644
21
36.234061229800446
31
0
0
LINE
5
504
100
AcDbEntity
8
0
100
AcDbLine
10
232.35907264336356
20
74.494061229800067
30
0
11
244.0968438521692
21
76.989001519613382
31
0
0
SPLINE
5
505
100
AcDbEntity
8
0
100
AcDbSpline
70
0
71
3
72
8
73
4
74
0
42
0.000000001
43
0.0000000001
44
0.0000000001
40
0
40
0
40
0
40
0
40
1
40
1
40
1
40
1
10
117.71000000000002
20
46.809999999999832
30
0
10
118.26228474983067
20
46.809999999999832
30
0
10
118.71000000000006
20
47.257715250169539
30
0
10
118.71000000000006
20
47.80999999999986
30
0
0
LINE
5
506
100
AcDbEntity
8
0
100
AcDbLine
10
316.21000000000004
20
65.860000000000028
30
0
11
328.20999999999981
21
65.860000000000028
31
0
0
SPLINE
5
507
100
AcDbEntity
8
0
100
AcDbSpline
70
0
71
3
72
8
73
4
74
0
42
0.000000001
43
0.0000000001
44
0.0000000001
40
0
40
0
40
0
40
0
40
1
40
1
40
1
40
1
10
104.70999999999989
20
47.80999999999986
30
0
10
104.70999999999989
20
47.257715250168914
30
0
10
105.1577152501693
20
46.809999999999832
30
0
10
105.70999999999992
20
46.809999999999832
30
0
0
LINE
5
508
100
AcDbEntity
8
0
100
AcDbLine
10
222.34536084938429
20
52.883343519722139
30
0
11
234.08313205819047
21
55.378283809535141
31
0
0
LINE
5
509
100
AcDbEntity
8
0
100
AcDbLine
10
178.92370033875619
20
32.041499706293052
30
0
11
176.75264111430349
21
32.502972590224807
31
0
0
LINE
5
510
100
AcDbEntity
8
0
100
AcDbLine
10
310.84999999999991
20
46.809999999999832
30
0
11
322.85000000000031
21
46.809999999999832
31
0
0
SPLINE
5
511
100
AcDbEntity
8
0
100
AcDbSpline
70
0
71
3
72
8
73
4
74
0
42
0.000000001
43
0.0000000001
44
0.0000000001
40
0
40
0
40
0
40
0
40
1
40
1
40
1
40
1
10
212.53930155783286
20
71.303579429637779
30
0
10
212.65412801398321
20
70.763363426669116
30
0
10
213.18514484641588
20
70.41851706357167
30
0
10
213.7253608493846
20
70.533343519721953
30
0
0
LINE
5
512
100
AcDbEntity
8
0
100
AcDbLine
10
176.99108426804094
20
18.13952160520229
30
0
11
179.693936248672
21
30.855440414742041
31
0
0
LINE
5
513
100
AcDbEntity
8
0
100
AcDbLine
10
310.84999999999991
20
60.810000000000322
30
0
11
322.85000000000031
21
60.810000000000322
31
0
0
LINE
5
514
100
AcDbEntity
8
0
100
AcDbLine
10
170.56087255231796
20
32.804003832878202
30
0
11
170.35045275743261
21
31.814056530231323
31
0
0
SPLINE
5
515
100
AcDbEntity
8
0
100
AcDbSpline
70
0
71
3
72
8
73
4
74
0
42
0.000000001
43
0.0000000001
44
0.0000000001
40
0
40
0
40
0
40
0
40
1
40
1
40
1
40
1
10
171.7469318438699
20
33.574239742790503
30
0
10
171.20671584090189
20
33.689066198941418
30
0
10
170.67569900846919
20
33.344219835846218
30
0
10
170.56087255231796
20
32.804003832878202
30
0
0
SPLINE
5
516
100
AcDbEntity
8
0
100
AcDbSpline
70
0
71
3
72
8
73
4
74
0
42
0.000000001
43
0.0000000001
44
0.0000000001
40
0
40
0
40
0
40
0
40
1
40
1
40
1
40
1
10
245.63213947227197
20
51.652832019970631
30
0
10
245.5173130161217
20
52.193048022939301
30
0
10
244.9862961836896
20
52.537894386037067
30
0
10
244.44608018072029
20
52.423067929886791
30
0
0
LINE
5
517
100
AcDbEntity
8
0
100
AcDbLine
10
219.43459717793581
20
66.577409929995156
30
0
11
231.17236838674128
21
69.072350219808158
31
0
0
SPLINE
5
518
100
AcDbEntity
8
0
100
AcDbSpline
70
0
71
3
72
8
73
4
74
0
42
0.000000001
43
0.0000000001
44
0.0000000001
40
0
40
0
40
0
40
0
40
1
40
1
40
1
40
1
10
328.20999999999981
20
65.860000000000028
30
0
10
328.76228474983071
20
65.860000000000028
30
0
10
329.20999999999981
20
66.307715250169096
30
0
10
329.20999999999981
20
66.860000000000056
30
0
0
LINE
5
519
100
AcDbEntity
8
0
100
AcDbLine
10
170.91428697282203
20
18.408844149375216
30
0
11
175.80502497648962
21
17.369285695286141
31
0
0
SPLINE
5
520
100
AcDbEntity
8
0
100
AcDbSpline
70
0
71
3
72
8
73
4
74
0
42
0.000000001
43
0.0000000001
44
0.0000000001
40
0
40
0
40
0
40
0
40
1
40
1
40
1
40
1
10
234.3757325598722
20
30.799563060230149
30
0
10
233.83551655690357
20
30.68473660407988
30
0
10
233.49067019380641
20
30.153719771647172
30
0
10
233.60549664995671
20
29.613503768678502
30
0
0
SPLINE
5
521
100
AcDbEntity
8
0
100
AcDbSpline
70
0
71
3
72
8
73
4
74
0
42
0.000000001
43
0.0000000001
44
0.0000000001
40
0
40
0
40
0
40
0
40
1
40
1
40
1
40
1
10
247.35684385216877
20
38.729001519613455
30
0
10
247.89705985513808
20
38.84382797576373
30
0
10
248.2419062182353
20
39.374844808195803
30
0
10
248.12707976208497
20
39.915060811165105
30
0
0
SPLINE
5
522
100
AcDbEntity
8
0
100
AcDbSpline
70
0
71
3
72
8
73
4
74
0
42
0.000000001
43
0.0000000001
44
0.0000000001
40
0
40
0
40
0
40
0
40
1
40
1
40
1
40
1
10
315.21000000000004
20
66.860000000000056
30
0
10
315.21000000000004
20
66.307715250169096
30
0
10
315.65771525016896
20
65.860000000000028
30
0
10
316.21000000000004
20
65.860000000000028
30
0
0
SPLINE
5
523
100
AcDbEntity
8
0
100
AcDbSpline
70
0
71
3
72
8
73
4
74
0
42
0.000000001
43
0.0000000001
44
0.0000000001
40
0
40
0
40
0
40
0
40
1
40
1
40
1
40
1
10
232.35842767829297
20
68.302114309892332
30
0
10
232.24360122214273
20
68.842330312860994
30
0
10
231.71258438971057
20
69.18717667595844
30
0
10
231.17236838674128
20
69.072350219808158
30
0
0
SPLINE
5
524
100
AcDbEntity
8
0
100
AcDbSpline
70
0
71
3
72
8
73
4
74
0
42
0.000000001
43
0.0000000001
44
0.0000000001
40
0
40
0
40
0
40
0
40
1
40
1
40
1
40
1
10
322.85000000000031
20
46.809999999999832
30
0
10
323.4022847498307
20
46.809999999999832
30
0
10
323.84999999999968
20
47.257715250168914
30
0
10
323.84999999999968
20
47.80999999999986
30
0
0
LINE
5
525
100
AcDbEntity
8
0
100
AcDbLine
10
271.30549664995709
20
115.53350376867874
30
0
11
273.80043693977007
21
103.79573255987285
31
0
0
LINE
5
526
100
AcDbEntity
8
0
100
AcDbLine
10
176.4615723217068
20
87.932114309892484
30
0
11
173.96663203189377
21
76.194343101086616
31
0
0
SPLINE
5
527
100
AcDbEntity
8
0
100
AcDbSpline
70
0
71
3
72
8
73
4
74
0
42
0.000000001
43
0.0000000001
44
0.0000000001
40
0
40
0
40
0
40
0
40
1
40
1
40
1
40
1
10
88.250000000000085
20
116.96000000000025
30
0
10
88.250000000000085
20
117.51228474983085
30
0
10
87.802284749830676
20
117.95999999999994
30
0
10
87.250000000000057
20
117.95999999999994
30
0
0
LINE
5
528
100
AcDbEntity
8
0
100
AcDbLine
10
111.93999999999991
20
119.10000000000014
30
0
11
111.93999999999991
21
107.10000000000001
31
0
0
SPLINE
5
529
100
AcDbEntity
8
0
100
AcDbSpline
70
0
71
3
72
8
73
4
74
0
42
0.000000001
43
0.0000000001
44
0.0000000001
40
0
40
0
40
0
40
0
40
1
40
1
40
1
40
1
10
268.09055564614818
20
101.55971922969164
30
0
10
268.63077164911692
20
101.67454568584191
30
0
10
268.97561801221468
20
102.20556251827431
30
0
10
268.86079155606438
20
102.74577852124327
30
0
0
ARC
5
530
100
AcDbEntity
8
0
100
AcDbCircle
10
86.162499999999937
20
66.860000000000014
30
0
40
0.99999999999998757
210
0
220
0
230
1
100
AcDbArc
50
-90
51
0
0
SPLINE
5
531
100
AcDbEntity
8
0
100
AcDbSpline
70
0
71
3
72
8
73
4
74
0
42
0.000000001
43
0.0000000001
44
0.0000000001
40
0
40
0
40
0
40
0
40
1
40
1
40
1
40
1
10
266.36585126625141
20
114.48354973004884
30
0
10
266.25102481010111
20
115.02376573301783
30
0
10
265.72000797766839
20
115.36861209611524
30
0
10
265.1797919746997
20
115.25378563996495
30
0
0
SPLINE
5
532
100
AcDbEntity
8
0
100
AcDbSpline
70
0
71
3
72
8
73
4
74
0
42
0.000000001
43
0.0000000001
44
0.0000000001
40
0
40
0
40
0
40
0
40
1
40
1
40
1
40
1
10
165.06391981927945
20
52.423067929886791
30
0
10
164.5237038163105
20
52.537894386037067
30
0
10
163.99268698387812
20
52.193048022939301
30
0
10
163.87786052772782
20
51.652832019970631
30
0
0
SPLINE
5
533
100
AcDbEntity
8
0
100
AcDbSpline
70
0
71
3
72
8
73
4
74
0
42
0.000000001
43
0.0000000001
44
0.0000000001
40
0
40
0
40
0
40
0
40
1
40
1
40
1
40
1
10
320.16999999999996
20
97.910000000000039
30
0
10
320.16999999999996
20
98.462284749830999
30
0
10
319.72228474983092
20
98.910000000000068
30
0
10
319.16999999999996
20
98.910000000000068
30
0
0
SPLINE
5
534
100
AcDbEntity
8
0
100
AcDbSpline
70
0
71
3
72
8
73
4
74
0
42
0.000000001
43
0.0000000001
44
0.0000000001
40
0
40
0
40
0
40
0
40
1
40
1
40
1
40
1
10
376.2387500000001
20
59.810000000000294
30
0
10
376.2387500000001
20
60.362284749830607
30
0
10
375.791034749831
20
60.810000000000322
30
0
10
375.23875000000004
20
60.810000000000322
30
0
0
SPLINE
5
535
100
AcDbEntity
8
0
100
AcDbSpline
70
0
71
3
72
8
73
4
74
0
42
0.000000001
43
0.0000000001
44
0.0000000001
40
0
40
0
40
0
40
0
40
1
40
1
40
1
40
1
10
134.95450335004338
20
77.273503768678452
30
0
10
135.06932980619331
20
77.813719771647442
30
0
10
134.72448344309618
20
78.344736604079827
30
0
10
134.1842674401272
20
78.45956306023011
30
0
0
SPLINE
5
536
100
AcDbEntity
8
0
100
AcDbSpline
70
0
71
3
72
8
73
4
74
0
42
0.000000001
43
0.0000000001
44
0.0000000001
40
0
40
0
40
0
40
0
40
1
40
1
40
1
40
1
10
355.54300000000626
20
102.95999970176786
30
0
10
355.54300000000626
20
102.40771495193721
30
0
10
355.99071525017519
20
101.95999970176844
30
0
10
356.54300000000558
20
101.95999970176814
30
0
0
LINE
5
537
100
AcDbEntity
8
0
100
AcDbLine
10
350.04000000000008
20
84.909999999999883
30
0
11
362.03999999999979
21
84.909999999999883
31
0
0
SPLINE
5
538
100
AcDbEntity
8
0
100
AcDbSpline
70
0
71
3
72
8
73
4
74
0
42
0.000000001
43
0.0000000001
44
0.0000000001
40
0
40
0
40
0
40
0
40
1
40
1
40
1
40
1
10
362.62999999999971
20
103.96000000000008
30
0
10
363.18228474983073
20
103.96000000000008
30
0
10
363.62999999999988
20
104.40771525016916
30
0
10
363.62999999999988
20
104.95999999999981
30
0
0
LINE
5
539
100
AcDbEntity
8
0
100
AcDbLine
10
69.399999999999892
20
79.860000000000198
30
0
11
86.162499999999937
21
79.860000000000099
31
0
0
LINE
5
540
100
AcDbEntity
8
0
100
AcDbLine
10
122.98649623132151
20
40.354503350042975
30
0
11
134.72426744012736
21
37.859563060229966
31
0
0
SPLINE
5
541
100
AcDbEntity
8
0
100
AcDbSpline
70
0
71
3
72
8
73
4
74
0
42
0.000000001
43
0.0000000001
44
0.0000000001
40
0
40
0
40
0
40
0
40
1
40
1
40
1
40
1
10
187.17463915061546
20
52.883343519722139
30
0
10
187.71485515358449
20
52.768517063571856
30
0
10
188.24587198601688
20
53.113363426668982
30
0
10
188.36069844216718
20
53.653579429638285
30
0
0
LINE
5
542
100
AcDbEntity
8
0
100
AcDbLine
10
93.300000000000097
20
116.96000000000025
30
0
11
93.300000000000097
21
104.96000000000012
31
0
0
SPLINE
5
543
100
AcDbEntity
8
0
100
AcDbSpline
70
0
71
3
72
8
73
4
74
0
42
0.000000001
43
0.0000000001
44
0.0000000001
40
0
40
0
40
0
40
0
40
1
40
1
40
1
40
1
10
69.399999999999892
20
79.860000000000198
30
0
10
68.847715250169273
20
79.859999999999872
30
0
10
68.400000000000176
20
79.412284749830789
30
0
10
68.399999999999864
20
78.860000000000156
30
0
0
LINE
5
544
100
AcDbEntity
8
0
100
AcDbLine
10
100.35999999999989
20
79.860000000000198
30
0
11
112.36000000000001
21
79.860000000000198
31
0
0
LINE
5
545
100
AcDbEntity
8
0
100
AcDbLine
10
52.230000000000025
20
106.09999999999998
30
0
11
64.230000000000132
21
106.09999999999998
31
0
0
LINE
5
546
100
AcDbEntity
8
0
100
AcDbLine
10
52.230000000000025
20
120.10000000000014
30
0
11
64.230000000000132
21
120.10000000000014
31
0
0
SPLINE
5
547
100
AcDbEntity
8
0
100
AcDbSpline
70
0
71
3
72
8
73
4
74
0
42
0.000000001
43
0.0000000001
44
0.0000000001
40
0
40
0
40
0
40
0
40
1
40
1
40
1
40
1
10
107.29999999999993
20
116.96000000000025
30
0
10
107.29999999999993
20
117.51228474983085
30
0
10
106.85228474983089
20
117.95999999999994
30
0
10
106.29999999999993
20
117.95999999999994
30
0
0
SPLINE
5
548
100
AcDbEntity
8
0
100
AcDbSpline
70
0
71
3
72
8
73
4
74
0
42
0.000000001
43
0.0000000001
44
0.0000000001
40
0
40
0
40
0
40
0
40
1
40
1
40
1
40
1
10
288.54000000000008
20
99.969999999999985
30
0
10
287.98771525016906
20
99.969999999999985
30
0
10
287.54000000000002
20
99.522284749830874
30
0
10
287.54000000000002
20
98.969999999999928
30
0
0
LINE
5
549
100
AcDbEntity
8
0
100
AcDbLine
10
135.4945033500432
20
36.673503768678302
30
0
11
132.99956306023017
21
24.935732559872772
31
0
0
LINE
5
550
100
AcDbEntity
8
0
100
AcDbLine
10
363.03999999999985
20
97.910000000000039
30
0
11
363.03999999999985
21
85.90999999999994
31
0
0
LINE
5
551
100
AcDbEntity
8
0
100
AcDbLine
10
69.399999999999892
20
65.860000000000028
30
0
11
86.162499999999937
21
65.860000000000028
31
0
0
SPLINE
5
552
100
AcDbEntity
8
0
100
AcDbSpline
70
0
71
3
72
8
73
4
74
0
42
0.000000001
43
0.0000000001
44
0.0000000001
40
0
40
0
40
0
40
0
40
1
40
1
40
1
40
1
10
168.54092735663644
20
56.844061229799905
30
0
10
169.08114335960545
20
56.729234773650283
30
0
10
169.61216019203783
20
57.074081136747395
30
0
10
169.72698664818807
20
57.614297139716072
30
0
0
SPLINE
5
553
100
AcDbEntity
8
0
100
AcDbSpline
70
0
71
3
72
8
73
4
74
0
42
0.000000001
43
0.0000000001
44
0.0000000001
40
0
40
0
40
0
40
0
40
1
40
1
40
1
40
1
10
135.4945033500432
20
36.673503768678302
30
0
10
135.60932980619344
20
37.213719771647618
30
0
10
135.26448344309603
20
37.744736604079691
30
0
10
134.72426744012736
20
37.859563060229966
30
0
0
LINE
5
554
100
AcDbEntity
8
0
100
AcDbLine
10
292.90000000000009
20
119.10000000000014
30
0
11
292.90000000000009
21
107.10000000000001
31
0
0
SPLINE
5
555
100
AcDbEntity
8
0
100
AcDbSpline
70
0
71
3
72
8
73
4
74
0
42
0.000000001
43
0.0000000001
44
0.0000000001
40
0
40
0
40
0
40
0
40
1
40
1
40
1
40
1
10
367.00800000000294
20
44.809999701768206
30
0
10
367.56028474983395
20
44.809999701768852
30
0
10
368.00800000000294
20
45.257714951937288
30
0
10
368.00800000000424
20
45.809999701768248
30
0
0
SPLINE
5
556
100
AcDbEntity
8
0
100
AcDbSpline
70
0
71
3
72
8
73
4
74
0
42
0.000000001
43
0.0000000001
44
0.0000000001
40
0
40
0
40
0
40
0
40
1
40
1
40
1
40
1
10
136.6235037686784
20
44.15549664995666
30
0
10
137.16371977164738
20
44.040670193806392
30
0
10
137.69473660407979
20
44.385516556904165
30
0
10
137.80956306023006
20
44.925732559872813
30
0
0
SPLINE
5
557
100
AcDbEntity
8
0
100
AcDbSpline
70
0
71
3
72
8
73
4
74
0
42
0.000000001
43
0.0000000001
44
0.0000000001
40
0
40
0
40
0
40
0
40
1
40
1
40
1
40
1
10
74.759999999999962
20
60.810000000000322
30
0
10
74.207715250169329
20
60.810000000000322
30
0
10
73.75999999999992
20
60.362284749830607
30
0
10
73.75999999999992
20
59.810000000000294
30
0
0
SPLINE
5
558
100
AcDbEntity
8
0
100
AcDbSpline
70
0
71
3
72
8
73
4
74
0
42
0.000000001
43
0.0000000001
44
0.0000000001
40
0
40
0
40
0
40
0
40
1
40
1
40
1
40
1
10
131.81350376867852
20
24.165496649956633
30
0
10
132.35371977164749
20
24.050670193806351
30
0
10
132.88473660407988
20
24.395516556904113
30
0
10
132.99956306023017
20
24.935732559872772
30
0
0
SPLINE
5
559
100
AcDbEntity
8
0
100
AcDbSpline
70
0
71
3
72
8
73
4
74
0
42
0.000000001
43
0.0000000001
44
0.0000000001
40
0
40
0
40
0
40
0
40
1
40
1
40
1
40
1
10
325.53000000000009
20
116.96000000000025
30
0
10
325.53000000000009
20
117.51228474983085
30
0
10
325.08228474983099
20
117.95999999999994
30
0
10
324.53000000000003
20
117.95999999999994
30
0
0
LINE
5
560
100
AcDbEntity
8
0
100
AcDbLine
10
153.66020802530045
20
113.27378563996493
30
0
11
165.39797923410632
21
110.77884535015194
31
0
0
LINE
5
561
100
AcDbEntity
8
0
100
AcDbLine
10
190.15563873198008
20
85.021350638443636
30
0
11
187.66069844216713
21
73.283579429637797
31
0
0
LINE
5
562
100
AcDbEntity
8
0
100
AcDbLine
10
274.98649623132178
20
103.02549664995672
30
0
11
286.72426744012733
21
105.52043693977005
31
0
0
SPLINE
5
563
100
AcDbEntity
8
0
100
AcDbSpline
70
0
71
3
72
8
73
4
74
0
42
0.000000001
43
0.0000000001
44
0.0000000001
40
0
40
0
40
0
40
0
40
1
40
1
40
1
40
1
10
122.98649623132151
20
40.354503350042975
30
0
10
122.44628022835285
20
40.469329806193244
30
0
10
121.91526339592014
20
40.124483443096125
30
0
10
121.80043693976987
20
39.584267440127462
30
0
0
SPLINE
5
564
100
AcDbEntity
8
0
100
AcDbSpline
70
0
71
3
72
8
73
4
74
0
42
0.000000001
43
0.0000000001
44
0.0000000001
40
0
40
0
40
0
40
0
40
1
40
1
40
1
40
1
10
272.07573255987262
20
116.71956306023004
30
0
10
271.53551655690387
20
116.60473660408014
30
0
10
271.1906701938068
20
116.07371977164735
30
0
10
271.30549664995709
20
115.53350376867874
30
0
0
SPLINE
5
565
100
AcDbEntity
8
0
100
AcDbSpline
70
0
71
3
72
8
73
4
74
0
42
0.000000001
43
0.0000000001
44
0.0000000001
40
0
40
0
40
0
40
0
40
1
40
1
40
1
40
1
10
367.59799999999581
20
66.860000298232251
30
0
10
368.15028474982626
20
66.860000298232251
30
0
10
368.59799999999541
20
67.307715548401333
30
0
10
368.59799999999541
20
67.860000298231967
30
0
0
LINE
5
566
100
AcDbEntity
8
0
100
AcDbLine
10
133.84043693976977
20
116.46426744012723
30
0
11
131.34549664995674
21
104.7264962313217
31
0
0
SPLINE
5
567
100
AcDbEntity
8
0
100
AcDbSpline
70
0
71
3
72
8
73
4
74
0
42
0.000000001
43
0.0000000001
44
0.0000000001
40
0
40
0
40
0
40
0
40
1
40
1
40
1
40
1
10
306.90000000000003
20
119.10000000000014
30
0
10
306.90000000000003
20
119.65228474983073
30
0
10
306.45228474983088
20
120.10000000000014
30
0
10
305.89999999999986
20
120.10000000000014
30
0
0
SPLINE
5
568
100
AcDbEntity
8
0
100
AcDbSpline
70
0
71
3
72
8
73
4
74
0
42
0.000000001
43
0.0000000001
44
0.0000000001
40
0
40
0
40
0
40
0
40
1
40
1
40
1
40
1
10
273.80043693977007
20
103.79573255987285
30
0
10
273.91526339592042
20
103.2555165569039
30
0
10
274.44628022835241
20
102.91067019380677
30
0
10
274.98649623132178
20
103.02549664995672
30
0
0
LINE
5
569
100
AcDbEntity
8
0
100
AcDbLine
10
350.04000000000008
20
98.910000000000068
30
0
11
362.04000000000036
21
98.910000000000068
31
0
0
LINE
5
570
100
AcDbEntity
8
0
100
AcDbLine
10
171.52192693800112
20
88.982068348522063
30
0
11
169.02698664818811
21
77.244297139716224
31
0
0
SPLINE
5
571
100
AcDbEntity
8
0
100
AcDbSpline
70
0
71
3
72
8
73
4
74
0
42
0.000000001
43
0.0000000001
44
0.0000000001
40
0
40
0
40
0
40
0
40
1
40
1
40
1
40
1
10
94.300000000000139
20
117.95999999999994
30
0
10
93.747715250169179
20
117.95999999999994
30
0
10
93.300000000000097
20
117.51228474983085
30
0
10
93.300000000000097
20
116.96000000000025
30
0
0
SPLINE
5
572
100
AcDbEntity
8
0
100
AcDbSpline
70
0
71
3
72
8
73
4
74
0
42
0.000000001
43
0.0000000001
44
0.0000000001
40
0
40
0
40
0
40
0
40
1
40
1
40
1
40
1
10
286.72426744012733
20
105.52043693977005
30
0
10
287.26448344309597
20
105.63526339592033
30
0
10
287.6093298061931
20
106.16628022835272
30
0
10
287.49450335004337
20
106.70649623132171
30
0
0
LINE
5
573
100
AcDbEntity
8
0
100
AcDbLine
10
312.5300000000002
20
103.96000000000008
30
0
11
324.53000000000003
21
103.96000000000008
31
0
0
LINE
5
574
100
AcDbEntity
8
0
100
AcDbLine
10
51.22999999999999
20
119.10000000000014
30
0
11
51.22999999999999
21
107.10000000000001
31
0
0
SPLINE
5
575
100
AcDbEntity
8
0
100
AcDbSpline
70
0
71
3
72
8
73
4
74
0
42
0.000000001
43
0.0000000001
44
0.0000000001
40
0
40
0
40
0
40
0
40
1
40
1
40
1
40
1
10
248.0820207658941
20
92.148845350151817
30
0
10
247.5418047629249
20
92.034018894001534
30
0
10
247.19695839982768
20
91.503002061569148
30
0
10
247.31178485597803
20
90.962786058600159
30
0
0
SPLINE
5
576
100
AcDbEntity
8
0
100
AcDbSpline
70
0
71
3
72
8
73
4
74
0
42
0.000000001
43
0.0000000001
44
0.0000000001
40
0
40
0
40
0
40
0
40
1
40
1
40
1
40
1
10
87.85000000000008
20
84.909999999999883
30
0
10
88.402284749830699
20
84.91000000000021
30
0
10
88.850000000000108
20
85.357715250169292
30
0
10
88.850000000000108
20
85.90999999999994
30
0
0
SPLINE
5
577
100
AcDbEntity
8
0
100
AcDbSpline
70
0
71
3
72
8
73
4
74
0
42
0.000000001
43
0.0000000001
44
0.0000000001
40
0
40
0
40
0
40
0
40
1
40
1
40
1
40
1
10
68.399999999999864
20
66.860000000000056
30
0
10
68.400000000000176
20
66.307715250169096
30
0
10
68.847715250169273
20
65.860000000000028
30
0
10
69.399999999999892
20
65.860000000000028
30
0
0
SPLINE
5
578
100
AcDbEntity
8
0
100
AcDbSpline
70
0
71
3
72
8
73
4
74
0
42
0.000000001
43
0.0000000001
44
0.0000000001
40
0
40
0
40
0
40
0
40
1
40
1
40
1
40
1
10
65.23000000000016
20
119.10000000000014
30
0
10
65.23000000000016
20
119.65228474983073
30
0
10
64.782284749830765
20
120.10000000000014
30
0
10
64.230000000000132
20
120.10000000000014
30
0
0
SPLINE
5
579
100
AcDbEntity
8
0
100
AcDbSpline
70
0
71
3
72
8
73
4
74
0
42
0.000000001
43
0.0000000001
44
0.0000000001
40
0
40
0
40
0
40
0
40
1
40
1
40
1
40
1
10
362.597999999997
20
81.860000298232137
30
0
10
362.04571525016661
20
81.860000298232137
30
0
10
361.59799999999763
20
81.412285048063708
30
0
10
361.59799999999763
20
80.8600002982337
30
0
0
LINE
5
580
100
AcDbEntity
8
0
100
AcDbLine
10
74.849999999999923
20
97.910000000000039
30
0
11
74.849999999999923
21
85.90999999999994
31
0
0
LINE
5
581
100
AcDbEntity
8
0
100
AcDbLine
10
152.47414873374882
20
112.50354973004883
30
0
11
149.97920844393579
21
100.76577852124329
31
0
0
LINE
5
582
100
AcDbEntity
8
0
100
AcDbLine
10
134.95450335004338
20
77.273503768678452
30
0
11
132.45956306023004
21
65.535732559872926
31
0
0
LINE
5
583
100
AcDbEntity
8
0
100
AcDbLine
10
139.89414873374906
20
76.223549730049186
30
0
11
137.39920844393572
21
64.485778521243006
31
0
0
SPLINE
5
584
100
AcDbEntity
8
0
100
AcDbSpline
70
0
71
3
72
8
73
4
74
0
42
0.000000001
43
0.0000000001
44
0.0000000001
40
0
40
0
40
0
40
0
40
1
40
1
40
1
40
1
10
74.249999999999901
20
104.96000000000012
30
0
10
74.249999999999901
20
104.40771525016916
30
0
10
74.697715250169296
20
103.96000000000008
30
0
10
75.249999999999943
20
103.96000000000008
30
0
0
SPLINE
5
585
100
AcDbEntity
8
0
100
AcDbSpline
70
0
71
3
72
8
73
4
74
0
42
0.000000001
43
0.0000000001
44
0.0000000001
40
0
40
0
40
0
40
0
40
1
40
1
40
1
40
1
10
190.85563873198021
20
65.391350638443825
30
0
10
190.97046518813039
20
65.931566641412488
30
0
10
190.62561882503297
20
66.462583473845186
30
0
10
190.08540282206428
20
66.577409929995156
30
0
0
SPLINE
5
586
100
AcDbEntity
8
0
100
AcDbSpline
70
0
71
3
72
8
73
4
74
0
42
0.000000001
43
0.0000000001
44
0.0000000001
40
0
40
0
40
0
40
0
40
1
40
1
40
1
40
1
10
42.999999999999915
20
68.999999999999943
30
0
10
42.999999999999915
20
68.447715250169324
30
0
10
43.447715250169317
20
67.999999999999915
30
0
10
43.99999999999995
20
67.999999999999915
30
0
0
LINE
5
587
100
AcDbEntity
8
0
100
AcDbLine
10
362.54300000000393
20
102.95999970176815
30
0
11
362.54300000000393
21
103.96000000000008
31
0
0
LINE
5
588
100
AcDbEntity
8
0
100
AcDbLine
10
159.71391981927945
20
73.033067929886585
30
0
11
171.45169102808529
21
70.538127640073583
31
0
0
LINE
5
589
100
AcDbEntity
8
0
100
AcDbLine
10
349.03999999999991
20
97.910000000000039
30
0
11
349.03999999999991
21
85.90999999999994
31
0
0
LINE
5
590
100
AcDbEntity
8
0
100
AcDbLine
10
247.73213947227231
20
110.52283201997071
30
0
11
250.2270797620854
21
98.78506081116484
31
0
0
LINE
5
591
100
AcDbEntity
8
0
100
AcDbLine
10
88.250000000000085
20
116.96000000000025
30
0
11
88.250000000000085
21
104.96000000000012
31
0
0
LINE
5
592
100
AcDbEntity
8
0
100
AcDbLine
10
172.29391981927947
20
109.31306792988651
30
0
11
184.03169102808533
21
106.8181276400735
31
0
0
SPLINE
5
593
100
AcDbEntity
8
0
100
AcDbSpline
70
0
71
3
72
8
73
4
74
0
42
0.000000001
43
0.0000000001
44
0.0000000001
40
0
40
0
40
0
40
0
40
1
40
1
40
1
40
1
10
61.070000000000135
20
100.04999999999993
30
0
10
61.070000000000135
20
100.60228474983086
30
0
10
60.62228474983074
20
101.04999999999995
30
0
10
60.070000000000114
20
101.04999999999995
30
0
0
SPLINE
5
594
100
AcDbEntity
8
0
100
AcDbSpline
70
0
71
3
72
8
73
4
74
0
42
0.000000001
43
0.0000000001
44
0.0000000001
40
0
40
0
40
0
40
0
40
1
40
1
40
1
40
1
10
242.37213947227229
20
89.912832019970566
30
0
10
242.25731301612197
20
90.453048022939242
30
0
10
241.7262961836893
20
90.797894386036688
30
0
10
241.18608018072058
20
90.68306792988642
30
0
0
LINE
5
595
100
AcDbEntity
8
0
100
AcDbLine
10
325.53000000000009
20
116.96000000000025
30
0
11
325.53000000000009
21
104.95999999999981
31
0
0
SPLINE
5
596
100
AcDbEntity
8
0
100
AcDbSpline
70
0
71
3
72
8
73
4
74
0
42
0.000000001
43
0.0000000001
44
0.0000000001
40
0
40
0
40
0
40
0
40
1
40
1
40
1
40
1
10
361.54300000000251
20
101.95999970176814
30
0
10
362.09528474983352
20
101.95999970176878
30
0
10
362.54300000000251
20
102.40771495193754
30
0
10
362.54300000000393
20
102.95999970176815
30
0
0
LINE
5
597
100
AcDbEntity
8
0
100
AcDbLine
10
165.06391981927945
20
52.423067929886791
30
0
11
176.80169102808534
21
49.928127640073768
31
0
0
SPLINE
5
598
100
AcDbEntity
8
0
100
AcDbSpline
70
0
71
3
72
8
73
4
74
0
42
0.000000001
43
0.0000000001
44
0.0000000001
40
0
40
0
40
0
40
0
40
1
40
1
40
1
40
1
10
312.5300000000002
20
117.95999999999994
30
0
10
311.9777152501693
20
117.95999999999994
30
0
10
311.5300000000002
20
117.51228474983085
30
0
10
311.5300000000002
20
116.95999999999992
30
0
0
LINE
5
599
100
AcDbEntity
8
0
100
AcDbLine
10
125.9400000000001
20
119.10000000000014
30
0
11
125.9400000000001
21
107.10000000000001
31
0
0
SPLINE
5
600
100
AcDbEntity
8
0
100
AcDbSpline
70
0
71
3
72
8
73
4
74
0
42
0.000000001
43
0.0000000001
44
0.0000000001
40
0
40
0
40
0
40
0
40
1
40
1
40
1
40
1
10
106.29999999999993
20
103.96000000000008
30
0
10
106.85228474983089
20
103.96000000000008
30
0
10
107.29999999999993
20
104.40771525016916
30
0
10
107.29999999999993
20
104.96000000000012
30
0
0
SPLINE
5
601
100
AcDbEntity
8
0
100
AcDbSpline
70
0
71
3
72
8
73
4
74
0
42
0.000000001
43
0.0000000001
44
0.0000000001
40
0
40
0
40
0
40
0
40
1
40
1
40
1
40
1
10
178.34763161325844
20
69.07235021980847
30
0
10
177.80741561028981
20
69.18717667595844
30
0
10
177.27639877785708
20
68.842330312861321
30
0
10
177.16157232170679
20
68.302114309892332
30
0
0
SPLINE
5
602
100
AcDbEntity
8
0
100
AcDbSpline
70
0
71
3
72
8
73
4
74
0
42
0.000000001
43
0.0000000001
44
0.0000000001
40
0
40
0
40
0
40
0
40
1
40
1
40
1
40
1
10
64.230000000000132
20
106.09999999999998
30
0
10
64.782284749830765
20
106.09999999999998
30
0
10
65.23000000000016
20
106.54771525016938
30
0
10
65.23000000000016
20
107.10000000000001
30
0
0
LINE
5
603
100
AcDbEntity
8
0
100
AcDbLine
10
43.99999999999995
20
67.999999999999915
30
0
11
56.000000000000071
21
67.999999999999915
31
0
0
SPLINE
5
604
100
AcDbEntity
8
0
100
AcDbSpline
70
0
71
3
72
8
73
4
74
0
42
0.000000001
43
0.0000000001
44
0.0000000001
40
0
40
0
40
0
40
0
40
1
40
1
40
1
40
1
10
131.27350376867869
20
64.765496649956788
30
0
10
131.81371977164736
20
64.650670193806491
30
0
10
132.34473660407974
20
64.995516556904278
30
0
10
132.45956306023004
20
65.535732559872926
30
0
0
SPLINE
5
605
100
AcDbEntity
8
0
100
AcDbSpline
70
0
71
3
72
8
73
4
74
0
42
0.000000001
43
0.0000000001
44
0.0000000001
40
0
40
0
40
0
40
0
40
1
40
1
40
1
40
1
10
301.53999999999991
20
98.969999999999928
30
0
10
301.53999999999991
20
99.522284749830874
30
0
10
301.09228474983081
20
99.969999999999985
30
0
10
300.53999999999985
20
99.969999999999985
30
0
0
SPLINE
5
606
100
AcDbEntity
8
0
100
AcDbSpline
70
0
71
3
72
8
73
4
74
0
42
0.000000001
43
0.0000000001
44
0.0000000001
40
0
40
0
40
0
40
0
40
1
40
1
40
1
40
1
10
350.04000000000008
20
98.910000000000068
30
0
10
349.48771525016895
20
98.910000000000068
30
0
10
349.03999999999991
20
98.462284749830999
30
0
10
349.03999999999991
20
97.910000000000039
30
0
0
LINE
5
607
100
AcDbEntity
8
0
100
AcDbLine
10
175.43686794180962
20
55.378283809535141
30
0
11
187.17463915061546
21
52.883343519722139
31
0
0
SPLINE
5
608
100
AcDbEntity
8
0
100
AcDbSpline
70
0
71
3
72
8
73
4
74
0
42
0.000000001
43
0.0000000001
44
0.0000000001
40
0
40
0
40
0
40
0
40
1
40
1
40
1
40
1
10
56.000000000000071
20
67.999999999999915
30
0
10
56.55228474983069
20
68.000000000000227
30
0
10
57.000000000000099
20
68.447715250169324
30
0
10
57.000000000000099
20
68.999999999999943
30
0
0
LINE
5
609
100
AcDbEntity
8
0
100
AcDbLine
10
75.249999999999943
20
117.95999999999994
30
0
11
87.250000000000057
21
117.95999999999994
31
0
0
SPLINE
5
610
100
AcDbEntity
8
0
100
AcDbSpline
70
0
71
3
72
8
73
4
74
0
42
0.000000001
43
0.0000000001
44
0.0000000001
40
0
40
0
40
0
40
0
40
1
40
1
40
1
40
1
10
360.16000000000008
20
78.860000000000156
30
0
10
360.16000000000008
20
79.412284749830789
30
0
10
359.71228474983093
20
79.859999999999872
30
0
10
359.16000000000008
20
79.860000000000198
30
0
0
SPLINE
5
611
100
AcDbEntity
8
0
100
AcDbSpline
70
0
71
3
72
8
73
4
74
0
42
0.000000001
43
0.0000000001
44
0.0000000001
40
0
40
0
40
0
40
0
40
1
40
1
40
1
40
1
10
159.71391981927945
20
73.033067929886585
30
0
10
159.17370381631045
20
73.147894386036867
30
0
10
158.64268698387804
20
72.803048022939421
30
0
10
158.5278605277278
20
72.262832019970759
30
0
0
LINE
5
612
100
AcDbEntity
8
0
100
AcDbLine
10
174.73686794180992
20
75.008283809534973
30
0
11
186.47463915061547
21
72.513343519721957
31
0
0
LINE
5
613
100
AcDbEntity
8
0
100
AcDbLine
10
252.67178485597807
20
111.5727860586003
30
0
11
255.16672514579108
21
99.835014849794433
31
0
0
LINE
5
614
100
AcDbEntity
8
0
100
AcDbLine
10
57.000000000000099
20
67.999999999999915
30
0
11
50.000000000000007
21
75
31
0
0
SPLINE
5
615
100
AcDbEntity
8
0
100
AcDbSpline
70
0
71
3
72
8
73
4
74
0
42
0.000000001
43
0.0000000001
44
0.0000000001
40
0
40
0
40
0
40
0
40
1
40
1
40
1
40
1
10
52.230000000000025
20
120.10000000000014
30
0
10
51.677715250169385
20
120.10000000000014
30
0
10
51.22999999999999
20
119.65228474983073
30
0
10
51.22999999999999
20
119.10000000000014
30
0
0
LINE
5
616
100
AcDbEntity
8
0
100
AcDbLine
10
183.69763161325849
20
48.462350219808371
30
0
11
195.43540282206439
21
45.967409929995348
31
0
0
LINE
5
617
100
AcDbEntity
8
0
100
AcDbLine
10
65.23000000000016
20
119.10000000000014
30
0
11
65.23000000000016
21
107.10000000000001
31
0
0
LINE
5
618
100
AcDbEntity
8
0
100
AcDbLine
10
48.069999999999993
20
101.04999999999995
30
0
11
60.070000000000114
21
101.04999999999995
31
0
0
SPLINE
5
619
100
AcDbEntity
8
0
100
AcDbSpline
70
0
71
3
72
8
73
4
74
0
42
0.000000001
43
0.0000000001
44
0.0000000001
40
0
40
0
40
0
40
0
40
1
40
1
40
1
40
1
10
292.90000000000009
20
107.10000000000001
30
0
10
292.90000000000009
20
106.54771525016938
30
0
10
293.34771525016924
20
106.09999999999998
30
0
10
293.90000000000009
20
106.09999999999998
30
0
0
SPLINE
5
620
100
AcDbEntity
8
0
100
AcDbSpline
70
0
71
3
72
8
73
4
74
0
42
0.000000001
43
0.0000000001
44
0.0000000001
40
0
40
0
40
0
40
0
40
1
40
1
40
1
40
1
10
127.79649623132138
20
60.344503350043006
30
0
10
127.25628022835274
20
60.459329806193281
30
0
10
126.72526339592002
20
60.114483443096148
30
0
10
126.61043693977007
20
59.5742674401275
30
0
0
LINE
5
621
100
AcDbEntity
8
0
100
AcDbLine
10
355.54300000000626
20
103.96000000000008
30
0
11
355.54300000000626
21
102.95999970176786
31
0
0
SPLINE
5
622
100
AcDbEntity
8
0
100
AcDbSpline
70
0
71
3
72
8
73
4
74
0
42
0.000000001
43
0.0000000001
44
0.0000000001
40
0
40
0
40
0
40
0
40
1
40
1
40
1
40
1
10
87.250000000000057
20
103.96000000000008
30
0
10
87.802284749830676
20
103.96000000000008
30
0
10
88.250000000000085
20
104.40771525016916
30
0
10
88.250000000000085
20
104.96000000000012
30
0
0
SPLINE
5
623
100
AcDbEntity
8
0
100
AcDbSpline
70
0
71
3
72
8
73
4
74
0
42
0.000000001
43
0.0000000001
44
0.0000000001
40
0
40
0
40
0
40
0
40
1
40
1
40
1
40
1
10
363.03999999999985
20
97.910000000000039
30
0
10
363.03999999999985
20
98.462284749830999
30
0
10
362.59228474983075
20
98.910000000000068
30
0
10
362.04000000000036
20
98.910000000000068
30
0
0
SPLINE
5
624
100
AcDbEntity
8
0
100
AcDbSpline
70
0
71
3
72
8
73
4
74
0
42
0.000000001
43
0.0000000001
44
0.0000000001
40
0
40
0
40
0
40
0
40
1
40
1
40
1
40
1
10
261.00585126625128
20
93.873549730049007
30
0
10
260.8910248101011
20
94.413765733017669
30
0
10
260.36000797766826
20
94.758612096115101
30
0
10
259.81979197469974
20
94.643785639964833
30
0
0
LINE
5
625
100
AcDbEntity
8
0
100
AcDbLine
10
356.54300000000558
20
101.95999970176814
30
0
11
361.54300000000251
21
101.95999970176814
31
0
0
LINE
5
626
100
AcDbEntity
8
0
100
AcDbLine
10
312.5300000000002
20
117.95999999999994
30
0
11
324.53000000000003
21
117.95999999999994
31
0
0
LINE
5
627
100
AcDbEntity
8
0
100
AcDbLine
10
171.10786052772781
20
108.5428320199707
30
0
11
168.61292023791486
21
96.805060811164836
31
0
0
LINE
5
628
100
AcDbEntity
8
0
100
AcDbLine
10
94.300000000000139
20
117.95999999999994
30
0
11
106.29999999999993
21
117.95999999999994
31
0
0
SPLINE
5
629
100
AcDbEntity
8
0
100
AcDbSpline
70
0
71
3
72
8
73
4
74
0
42
0.000000001
43
0.0000000001
44
0.0000000001
40
0
40
0
40
0
40
0
40
1
40
1
40
1
40
1
10
93.300000000000097
20
104.96000000000012
30
0
10
93.300000000000097
20
104.40771525016916
30
0
10
93.747715250169179
20
103.96000000000008
30
0
10
94.300000000000139
20
103.96000000000008
30
0
0
LINE
5
630
100
AcDbEntity
8
0
100
AcDbLine
10
166.16821514402216
20
109.5927860586003
30
0
11
163.67327485420913
21
97.855014849794742
31
0
0
LINE
5
631
100
AcDbEntity
8
0
100
AcDbLine
10
347.16000000000031
20
79.860000000000198
30
0
11
359.16000000000008
21
79.860000000000198
31
0
0
SPLINE
5
632
100
AcDbEntity
8
0
100
AcDbSpline
70
0
71
3
72
8
73
4
74
0
42
0.000000001
43
0.0000000001
44
0.0000000001
40
0
40
0
40
0
40
0
40
1
40
1
40
1
40
1
10
293.90000000000009
20
120.10000000000014
30
0
10
293.34771525016924
20
120.10000000000014
30
0
10
292.90000000000009
20
119.65228474983073
30
0
10
292.90000000000009
20
119.10000000000014
30
0
0
SPLINE
5
633
100
AcDbEntity
8
0
100
AcDbSpline
70
0
71
3
72
8
73
4
74
0
42
0.000000001
43
0.0000000001
44
0.0000000001
40
0
40
0
40
0
40
0
40
1
40
1
40
1
40
1
10
74.849999999999923
20
85.90999999999994
30
0
10
74.849999999999923
20
85.357715250169292
30
0
10
75.297715250169318
20
84.91000000000021
30
0
10
75.849999999999966
20
84.91000000000021
30
0
0
SPLINE
5
634
100
AcDbEntity
8
0
100
AcDbSpline
70
0
71
3
72
8
73
4
74
0
42
0.000000001
43
0.0000000001
44
0.0000000001
40
0
40
0
40
0
40
0
40
1
40
1
40
1
40
1
10
43.99999999999995
20
82.000000000000085
30
0
10
43.447715250169317
20
82.000000000000085
30
0
10
42.999999999999915
20
81.552284749830989
30
0
10
42.999999999999915
20
81.000000000000057
30
0
0
SPLINE
5
635
100
AcDbEntity
8
0
100
AcDbSpline
70
0
71
3
72
8
73
4
74
0
42
0.000000001
43
0.0000000001
44
0.0000000001
40
0
40
0
40
0
40
0
40
1
40
1
40
1
40
1
10
368.59799999999541
20
80.860000298232421
30
0
10
368.59799999999541
20
81.412285048062756
30
0
10
368.15028474982626
20
81.860000298231824
30
0
10
367.59799999999581
20
81.860000298232137
30
0
0
LINE
5
636
100
AcDbEntity
8
0
100
AcDbLine
10
141.08020802530038
20
76.993785639965012
30
0
11
152.81797923410625
21
74.498845350151683
31
0
0
SPLINE
5
637
100
AcDbEntity
8
0
100
AcDbSpline
70
0
71
3
72
8
73
4
74
0
42
0.000000001
43
0.0000000001
44
0.0000000001
40
0
40
0
40
0
40
0
40
1
40
1
40
1
40
1
10
247.73213947227231
20
110.52283201997071
30
0
10
247.61731301612207
20
111.06304802293936
30
0
10
247.0862961836894
20
111.40789438603682
30
0
10
246.54608018072071
20
111.29306792988652
30
0
0
SPLINE
5
638
100
AcDbEntity
8
0
100
AcDbSpline
70
0
71
3
72
8
73
4
74
0
42
0.000000001
43
0.0000000001
44
0.0000000001
40
0
40
0
40
0
40
0
40
1
40
1
40
1
40
1
10
305.89999999999986
20
106.09999999999998
30
0
10
306.45228474983088
20
106.09999999999998
30
0
10
306.90000000000003
20
106.54771525016938
30
0
10
306.90000000000003
20
107.10000000000001
30
0
0
SPLINE
5
639
100
AcDbEntity
8
0
100
AcDbSpline
70
0
71
3
72
8
73
4
74
0
42
0.000000001
43
0.0000000001
44
0.0000000001
40
0
40
0
40
0
40
0
40
1
40
1
40
1
40
1
10
187.24663203189385
20
92.844343101086722
30
0
10
187.13180557574361
20
92.304127098117732
30
0
10
187.47665193884106
20
91.773110265685347
30
0
10
188.01686794181001
20
91.658283809535106
30
0
0
SPLINE
5
640
100
AcDbEntity
8
0
100
AcDbSpline
70
0
71
3
72
8
73
4
74
0
42
0.000000001
43
0.0000000001
44
0.0000000001
40
0
40
0
40
0
40
0
40
1
40
1
40
1
40
1
10
60.070000000000114
20
87.050000000000111
30
0
10
60.62228474983074
20
87.050000000000111
30
0
10
61.070000000000135
20
87.497715250169179
30
0
10
61.070000000000135
20
88.050000000000139
30
0
0
SPLINE
5
641
100
AcDbEntity
8
0
100
AcDbSpline
70
0
71
3
72
8
73
4
74
0
42
0.000000001
43
0.0000000001
44
0.0000000001
40
0
40
0
40
0
40
0
40
1
40
1
40
1
40
1
10
199.75463915061562
20
89.163343519722076
30
0
10
200.29485515358448
20
89.048517063571779
30
0
10
200.82587198601686
20
89.393363426669225
30
0
10
200.94069844216719
20
89.933579429637902
30
0
0
SPLINE
5
642
100
AcDbEntity
8
0
100
AcDbSpline
70
0
71
3
72
8
73
4
74
0
42
0.000000001
43
0.0000000001
44
0.0000000001
40
0
40
0
40
0
40
0
40
1
40
1
40
1
40
1
10
149.97920844393579
20
100.76577852124329
30
0
10
149.86438198778552
20
100.22556251827427
30
0
10
150.20922835088297
20
99.694545685841902
30
0
10
150.74944435385194
20
99.579719229691634
30
0
0
SPLINE
5
643
100
AcDbEntity
8
0
100
AcDbSpline
70
0
71
3
72
8
73
4
74
0
42
0.000000001
43
0.0000000001
44
0.0000000001
40
0
40
0
40
0
40
0
40
1
40
1
40
1
40
1
10
135.0264962313214
20
117.23450335004335
30
0
10
134.48628022835277
20
117.34932980619335
30
0
10
133.95526339592007
20
117.00448344309622
30
0
10
133.84043693976977
20
116.46426744012723
30
0
0
SPLINE
5
644
100
AcDbEntity
8
0
100
AcDbSpline
70
0
71
3
72
8
73
4
74
0
42
0.000000001
43
0.0000000001
44
0.0000000001
40
0
40
0
40
0
40
0
40
1
40
1
40
1
40
1
10
326.21999999999969
20
98.910000000000068
30
0
10
325.66771525016946
20
98.910000000000068
30
0
10
325.22000000000037
20
98.462284749830999
30
0
10
325.21999999999969
20
97.910000000000039
30
0
0
SPLINE
5
645
100
AcDbEntity
8
0
100
AcDbSpline
70
0
71
3
72
8
73
4
74
0
42
0.000000001
43
0.0000000001
44
0.0000000001
40
0
40
0
40
0
40
0
40
1
40
1
40
1
40
1
10
130.57350376867868
20
84.395496649956939
30
0
10
131.11371977164734
20
84.280670193806628
30
0
10
131.64473660407975
20
84.625516556904074
30
0
10
131.75956306022999
20
85.165732559872751
30
0
0
LINE
5
646
100
AcDbEntity
8
0
100
AcDbLine
10
75.849999999999966
20
84.91000000000021
30
0
11
87.85000000000008
21
84.909999999999883
31
0
0
SPLINE
5
647
100
AcDbEntity
8
0
100
AcDbSpline
70
0
71
3
72
8
73
4
74
0
42
0.000000001
43
0.0000000001
44
0.0000000001
40
0
40
0
40
0
40
0
40
1
40
1
40
1
40
1
10
125.9400000000001
20
119.10000000000014
30
0
10
125.9400000000001
20
119.65228474983073
30
0
10
125.49228474983069
20
120.10000000000014
30
0
10
124.94000000000007
20
120.10000000000014
30
0
0
LINE
5
648
100
AcDbEntity
8
0
100
AcDbLine
10
43.99999999999995
20
82.000000000000085
30
0
11
56.000000000000071
21
82.000000000000085
31
0
0
LINE
5
649
100
AcDbEntity
8
0
100
AcDbLine
10
122.44649623132136
20
80.954503350043126
30
0
11
134.1842674401272
21
78.45956306023011
31
0
0
SPLINE
5
650
100
AcDbEntity
8
0
100
AcDbSpline
70
0
71
3
72
8
73
4
74
0
42
0.000000001
43
0.0000000001
44
0.0000000001
40
0
40
0
40
0
40
0
40
1
40
1
40
1
40
1
10
168.61292023791486
20
96.805060811164836
30
0
10
168.49809378176451
20
96.264844808196187
30
0
10
168.84294014486201
20
95.733827975763461
30
0
10
169.38315614783096
20
95.619001519613178
30
0
0
SPLINE
5
651
100
AcDbEntity
8
0
100
AcDbSpline
70
0
71
3
72
8
73
4
74
0
42
0.000000001
43
0.0000000001
44
0.0000000001
40
0
40
0
40
0
40
0
40
1
40
1
40
1
40
1
10
172.29391981927947
20
109.31306792988651
30
0
10
171.75370381631083
20
109.42789438603681
30
0
10
171.22268698387813
20
109.08304802293968
30
0
10
171.10786052772781
20
108.5428320199707
30
0
0
LINE
5
652
100
AcDbEntity
8
0
100
AcDbLine
10
121.74649623132166
20
100.58450335004326
30
0
11
133.48426744012752
21
98.089563060230233
31
0
0
SPLINE
5
653
100
AcDbEntity
8
0
100
AcDbSpline
70
0
71
3
72
8
73
4
74
0
42
0.000000001
43
0.0000000001
44
0.0000000001
40
0
40
0
40
0
40
0
40
1
40
1
40
1
40
1
10
173.96663203189377
20
76.194343101086616
30
0
10
173.85180557574353
20
75.654127098117655
30
0
10
174.19665193884094
20
75.123110265685241
30
0
10
174.73686794180992
20
75.008283809534973
30
0
0
SPLINE
5
654
100
AcDbEntity
8
0
100
AcDbSpline
70
0
71
3
72
8
73
4
74
0
42
0.000000001
43
0.0000000001
44
0.0000000001
40
0
40
0
40
0
40
0
40
1
40
1
40
1
40
1
10
167.84092735663646
20
76.474061229800384
30
0
10
168.38114335960543
20
76.359234773650101
30
0
10
168.91216019203782
20
76.704081136747234
30
0
10
169.02698664818811
20
77.244297139716224
30
0
0
LINE
5
655
100
AcDbEntity
8
0
100
AcDbLine
10
172.2219269380011
20
69.352068348521939
30
0
11
169.72698664818807
21
57.614297139716072
31
0
0
SPLINE
5
656
100
AcDbEntity
8
0
100
AcDbSpline
70
0
71
3
72
8
73
4
74
0
42
0.000000001
43
0.0000000001
44
0.0000000001
40
0
40
0
40
0
40
0
40
1
40
1
40
1
40
1
10
140.30450335004306
20
56.663503768678332
30
0
10
140.41932980619336
20
57.203719771647641
30
0
10
140.07448344309591
20
57.734736604079714
30
0
10
139.53426744012722
20
57.84956306022999
30
0
0
SPLINE
5
657
100
AcDbEntity
8
0
100
AcDbSpline
70
0
71
3
72
8
73
4
74
0
42
0.000000001
43
0.0000000001
44
0.0000000001
40
0
40
0
40
0
40
0
40
1
40
1
40
1
40
1
10
190.15563873198008
20
85.021350638443636
30
0
10
190.2704651881304
20
85.561566641412298
30
0
10
189.92561882503333
20
86.092583473845025
30
0
10
189.38540282206432
20
86.207409929995308
30
0
0
SPLINE
5
658
100
AcDbEntity
8
0
100
AcDbSpline
70
0
71
3
72
8
73
4
74
0
42
0.000000001
43
0.0000000001
44
0.0000000001
40
0
40
0
40
0
40
0
40
1
40
1
40
1
40
1
10
156.03292023791479
20
60.525060811165218
30
0
10
155.9180937817645
20
59.984844808195923
30
0
10
156.26294014486191
20
59.453827975763858
30
0
10
156.80315614783061
20
59.339001519613575
30
0
0
LINE
5
659
100
AcDbEntity
8
0
100
AcDbLine
10
61.070000000000135
20
100.04999999999993
30
0
11
61.070000000000135
21
88.050000000000139
31
0
0
LINE
5
660
100
AcDbEntity
8
0
100
AcDbLine
10
75.249999999999943
20
103.96000000000008
30
0
11
87.250000000000057
21
103.96000000000008
31
0
0
LINE
5
661
100
AcDbEntity
8
0
100
AcDbLine
10
48.069999999999993
20
87.050000000000111
30
0
11
60.070000000000114
21
87.050000000000111
31
0
0
SPLINE
5
662
100
AcDbEntity
8
0
100
AcDbSpline
70
0
71
3
72
8
73
4
74
0
42
0.000000001
43
0.0000000001
44
0.0000000001
40
0
40
0
40
0
40
0
40
1
40
1
40
1
40
1
10
174.66663203189381
20
56.564343101086799
30
0
10
174.55180557574351
20
56.024127098117489
30
0
10
174.89665193884099
20
55.493110265685424
30
0
10
175.43686794180962
20
55.378283809535141
30
0
0
SPLINE
5
663
100
AcDbEntity
8
0
100
AcDbSpline
70
0
71
3
72
8
73
4
74
0
42
0.000000001
43
0.0000000001
44
0.0000000001
40
0
40
0
40
0
40
0
40
1
40
1
40
1
40
1
10
153.58821514402209
20
73.312786058600366
30
0
10
153.70304160017238
20
73.853002061569015
30
0
10
153.35819523707525
20
74.384018894001713
30
0
10
152.81797923410625
20
74.498845350151683
30
0
0
SPLINE
5
664
100
AcDbEntity
8
0
100
AcDbSpline
70
0
71
3
72
8
73
4
74
0
42
0.000000001
43
0.0000000001
44
0.0000000001
40
0
40
0
40
0
40
0
40
1
40
1
40
1
40
1
10
324.53000000000003
20
103.96000000000008
30
0
10
325.08228474983099
20
103.96000000000008
30
0
10
325.53000000000009
20
104.40771525016916
30
0
10
325.53000000000009
20
104.95999999999981
30
0
0
SPLINE
5
665
100
AcDbEntity
8
0
100
AcDbSpline
70
0
71
3
72
8
73
4
74
0
42
0.000000001
43
0.0000000001
44
0.0000000001
40
0
40
0
40
0
40
0
40
1
40
1
40
1
40
1
10
75.849999999999966
20
98.910000000000068
30
0
10
75.297715250169318
20
98.910000000000068
30
0
10
74.849999999999923
20
98.462284749830999
30
0
10
74.849999999999923
20
97.910000000000039
30
0
0
SPLINE
5
666
100
AcDbEntity
8
0
100
AcDbSpline
70
0
71
3
72
8
73
4
74
0
42
0.000000001
43
0.0000000001
44
0.0000000001
40
0
40
0
40
0
40
0
40
1
40
1
40
1
40
1
10
159.01391981927941
20
92.663067929886722
30
0
10
158.47370381631077
20
92.777894386036692
30
0
10
157.94268698387805
20
92.433048022939559
30
0
10
157.82786052772806
20
91.892832019970569
30
0
0
SPLINE
5
667
100
AcDbEntity
8
0
100
AcDbSpline
70
0
71
3
72
8
73
4
74
0
42
0.000000001
43
0.0000000001
44
0.0000000001
40
0
40
0
40
0
40
0
40
1
40
1
40
1
40
1
10
141.08020802530038
20
76.993785639965012
30
0
10
140.53999202233175
20
77.10861209611528
30
0
10
140.00897518989902
20
76.763765733017834
30
0
10
139.89414873374906
20
76.223549730049186
30
0
0
SPLINE
5
668
100
AcDbEntity
8
0
100
AcDbSpline
70
0
71
3
72
8
73
4
74
0
42
0.000000001
43
0.0000000001
44
0.0000000001
40
0
40
0
40
0
40
0
40
1
40
1
40
1
40
1
10
149.90721556265743
20
60.804778939878361
30
0
10
150.4474315656264
20
60.689952483728078
30
0
10
150.97844839805879
20
61.034798846825836
30
0
10
151.09327485420906
20
61.575014849794492
30
0
0
SPLINE
5
669
100
AcDbEntity
8
0
100
AcDbSpline
70
0
71
3
72
8
73
4
74
0
42
0.000000001
43
0.0000000001
44
0.0000000001
40
0
40
0
40
0
40
0
40
1
40
1
40
1
40
1
10
162.4872155626575
20
97.084778939878618
30
0
10
163.02743156562644
20
96.969952483728349
30
0
10
163.55844839805886
20
97.314798846825781
30
0
10
163.67327485420913
20
97.855014849794742
30
0
0
SPLINE
5
670
100
AcDbEntity
8
0
100
AcDbSpline
70
0
71
3
72
8
73
4
74
0
42
0.000000001
43
0.0000000001
44
0.0000000001
40
0
40
0
40
0
40
0
40
1
40
1
40
1
40
1
10
166.16821514402216
20
109.5927860586003
30
0
10
166.28304160017245
20
110.13300206156896
30
0
10
165.93819523707498
20
110.66401889400166
30
0
10
165.39797923410632
20
110.77884535015194
30
0
0
LINE
5
671
100
AcDbEntity
8
0
100
AcDbLine
10
190.85563873198021
20
65.391350638443825
30
0
11
188.36069844216718
21
53.653579429638285
31
0
0
SPLINE
5
672
100
AcDbEntity
8
0
100
AcDbSpline
70
0
71
3
72
8
73
4
74
0
42
0.000000001
43
0.0000000001
44
0.0000000001
40
0
40
0
40
0
40
0
40
1
40
1
40
1
40
1
10
177.57192693800113
20
48.74206834852211
30
0
10
177.6867533941514
20
49.282284351490787
30
0
10
177.34190703105398
20
49.8133011839235
30
0
10
176.80169102808534
20
49.928127640073768
30
0
0
SPLINE
5
673
100
AcDbEntity
8
0
100
AcDbSpline
70
0
71
3
72
8
73
4
74
0
42
0.000000001
43
0.0000000001
44
0.0000000001
40
0
40
0
40
0
40
0
40
1
40
1
40
1
40
1
10
57.000000000000099
20
81.000000000000057
30
0
10
57.000000000000099
20
81.55228474983069
30
0
10
56.55228474983069
20
82.000000000000085
30
0
10
56.000000000000071
20
82.000000000000085
30
0
0
SPLINE
5
674
100
AcDbEntity
8
0
100
AcDbSpline
70
0
71
3
72
8
73
4
74
0
42
0.000000001
43
0.0000000001
44
0.0000000001
40
0
40
0
40
0
40
0
40
1
40
1
40
1
40
1
10
51.22999999999999
20
107.10000000000001
30
0
10
51.22999999999999
20
106.54771525016938
30
0
10
51.677715250169065
20
106.09999999999998
30
0
10
52.230000000000025
20
106.09999999999998
30
0
0
LINE
5
675
100
AcDbEntity
8
0
100
AcDbLine
10
135.0264962313214
20
117.23450335004335
30
0
11
146.76426744012727
21
114.73956306023004
31
0
0
LINE
5
676
100
AcDbEntity
8
0
100
AcDbLine
10
177.16157232170679
20
68.302114309892332
30
0
11
174.66663203189381
21
56.564343101086799
31
0
0
LINE
5
677
100
AcDbEntity
8
0
100
AcDbLine
10
138.16944435385187
20
63.299719229691362
30
0
11
149.90721556265743
21
60.804778939878361
31
0
0
SPLINE
5
678
100
AcDbEntity
8
0
100
AcDbSpline
70
0
71
3
72
8
73
4
74
0
42
0.000000001
43
0.0000000001
44
0.0000000001
40
0
40
0
40
0
40
0
40
1
40
1
40
1
40
1
10
47.069999999999979
20
88.050000000000139
30
0
10
47.069999999999979
20
87.497715250169179
30
0
10
47.517715250169054
20
87.050000000000111
30
0
10
48.069999999999993
20
87.050000000000111
30
0
0
LINE
5
679
100
AcDbEntity
8
0
100
AcDbLine
10
159.01391981927941
20
92.663067929886722
30
0
11
170.75169102808525
21
90.168127640073408
31
0
0
LINE
5
680
100
AcDbEntity
8
0
100
AcDbLine
10
47.069999999999979
20
100.04999999999993
30
0
11
47.069999999999979
21
88.050000000000139
31
0
0
SPLINE
5
681
100
AcDbEntity
8
0
100
AcDbSpline
70
0
71
3
72
8
73
4
74
0
42
0.000000001
43
0.0000000001
44
0.0000000001
40
0
40
0
40
0
40
0
40
1
40
1
40
1
40
1
10
48.069999999999993
20
101.04999999999995
30
0
10
47.517715250169374
20
101.04999999999995
30
0
10
47.069999999999979
20
100.60228474983086
30
0
10
47.069999999999979
20
100.04999999999993
30
0
0
LINE
5
682
100
AcDbEntity
8
0
100
AcDbLine
10
74.249999999999901
20
116.96000000000025
30
0
11
74.249999999999901
21
104.96000000000012
31
0
0
LINE
5
683
100
AcDbEntity
8
0
100
AcDbLine
10
190.9276316132586
20
105.35235021980841
30
0
11
202.66540282206438
21
102.85740992999507
31
0
0
SPLINE
5
684
100
AcDbEntity
8
0
100
AcDbSpline
70
0
71
3
72
8
73
4
74
0
42
0.000000001
43
0.0000000001
44
0.0000000001
40
0
40
0
40
0
40
0
40
1
40
1
40
1
40
1
10
124.94000000000007
20
106.09999999999998
30
0
10
125.49228474983069
20
106.09999999999998
30
0
10
125.9400000000001
20
106.54771525016938
30
0
10
125.9400000000001
20
107.10000000000001
30
0
0
LINE
5
685
100
AcDbEntity
8
0
100
AcDbLine
10
188.01686794181001
20
91.658283809535106
30
0
11
199.75463915061562
21
89.163343519722076
31
0
0
LINE
5
686
100
AcDbEntity
8
0
100
AcDbLine
10
178.34763161325844
20
69.07235021980847
30
0
11
190.08540282206428
21
66.577409929995156
31
0
0
LINE
5
687
100
AcDbEntity
8
0
100
AcDbLine
10
147.53450335004311
20
113.55350376867874
30
0
11
145.03956306023011
21
101.81573255987287
31
0
0
SPLINE
5
688
100
AcDbEntity
8
0
100
AcDbSpline
70
0
71
3
72
8
73
4
74
0
42
0.000000001
43
0.0000000001
44
0.0000000001
40
0
40
0
40
0
40
0
40
1
40
1
40
1
40
1
10
183.69763161325849
20
48.462350219808371
30
0
10
183.15741561028986
20
48.57717667595864
30
0
10
182.62639877785713
20
48.232330312861507
30
0
10
182.51157232170684
20
47.692114309892219
30
0
0
SPLINE
5
689
100
AcDbEntity
8
0
100
AcDbSpline
70
0
71
3
72
8
73
4
74
0
42
0.000000001
43
0.0000000001
44
0.0000000001
40
0
40
0
40
0
40
0
40
1
40
1
40
1
40
1
10
184.80192693800117
20
105.63206834852184
30
0
10
184.91675339415144
20
106.17228435149084
30
0
10
184.57190703105402
20
106.70330118392322
30
0
10
184.03169102808533
20
106.8181276400735
30
0
0
SPLINE
5
690
100
AcDbEntity
8
0
100
AcDbSpline
70
0
71
3
72
8
73
4
74
0
42
0.000000001
43
0.0000000001
44
0.0000000001
40
0
40
0
40
0
40
0
40
1
40
1
40
1
40
1
10
311.5300000000002
20
104.96000000000012
30
0
10
311.5300000000002
20
104.40771525016916
30
0
10
311.9777152501693
20
103.96000000000008
30
0
10
312.5300000000002
20
103.96000000000008
30
0
0
SPLINE
5
691
100
AcDbEntity
8
0
100
AcDbSpline
70
0
71
3
72
8
73
4
74
0
42
0.000000001
43
0.0000000001
44
0.0000000001
40
0
40
0
40
0
40
0
40
1
40
1
40
1
40
1
10
146.43020802530043
20
56.383785639965218
30
0
10
145.88999202233146
20
56.498612096114854
30
0
10
145.35897518989907
20
56.153765733017721
30
0
10
145.24414873374877
20
55.613549730049066
30
0
0
SPLINE
5
692
100
AcDbEntity
8
0
100
AcDbSpline
70
0
71
3
72
8
73
4
74
0
42
0.000000001
43
0.0000000001
44
0.0000000001
40
0
40
0
40
0
40
0
40
1
40
1
40
1
40
1
10
190.9276316132586
20
105.35235021980841
30
0
10
190.38741561028959
20
105.46717667595871
30
0
10
189.85639877785718
20
105.12233031286124
30
0
10
189.74157232170688
20
104.58211430989257
30
0
0
SPLINE
5
693
100
AcDbEntity
8
0
100
AcDbSpline
70
0
71
3
72
8
73
4
74
0
42
0.000000001
43
0.0000000001
44
0.0000000001
40
0
40
0
40
0
40
0
40
1
40
1
40
1
40
1
10
307.17000000000019
20
98.910000000000068
30
0
10
306.61771525016923
20
98.910000000000068
30
0
10
306.17000000000007
20
98.462284749830999
30
0
10
306.17000000000007
20
97.910000000000039
30
0
0
LINE
5
694
100
AcDbEntity
8
0
100
AcDbLine
10
189.74157232170688
20
104.58211430989257
30
0
11
187.24663203189385
21
92.844343101086722
31
0
0
SPLINE
5
695
100
AcDbEntity
8
0
100
AcDbSpline
70
0
71
3
72
8
73
4
74
0
42
0.000000001
43
0.0000000001
44
0.0000000001
40
0
40
0
40
0
40
0
40
1
40
1
40
1
40
1
10
153.66020802530045
20
113.27378563996493
30
0
10
153.11999202233147
20
113.38861209611524
30
0
10
152.58897518989909
20
113.04376573301784
30
0
10
152.47414873374882
20
112.50354973004883
30
0
0
LINE
5
696
100
AcDbEntity
8
0
100
AcDbLine
10
184.80192693800117
20
105.63206834852184
30
0
11
182.30698664818817
21
93.894297139716315
31
0
0
LINE
5
697
100
AcDbEntity
8
0
100
AcDbLine
10
132.11573255987292
20
103.54043693977003
30
0
11
143.85350376867845
21
101.04549664995672
31
0
0
SPLINE
5
698
100
AcDbEntity
8
0
100
AcDbSpline
70
0
71
3
72
8
73
4
74
0
42
0.000000001
43
0.0000000001
44
0.0000000001
40
0
40
0
40
0
40
0
40
1
40
1
40
1
40
1
10
181.12092735663651
20
93.124061229800162
30
0
10
181.66114335960546
20
93.009234773649894
30
0
10
182.19216019203787
20
93.35408113674734
30
0
10
182.30698664818817
20
93.894297139716315
30
0
0
SPLINE
5
699
100
AcDbEntity
8
0
100
AcDbSpline
70
0
71
3
72
8
73
4
74
0
42
0.000000001
43
0.0000000001
44
0.0000000001
40
0
40
0
40
0
40
0
40
1
40
1
40
1
40
1
10
131.34549664995674
20
104.7264962313217
30
0
10
131.23067019380647
20
104.18628022835271
30
0
10
131.57551655690392
20
103.65526339592
30
0
10
132.11573255987292
20
103.54043693977003
30
0
0
SPLINE
5
700
100
AcDbEntity
8
0
100
AcDbSpline
70
0
71
3
72
8
73
4
74
0
42
0.000000001
43
0.0000000001
44
0.0000000001
40
0
40
0
40
0
40
0
40
1
40
1
40
1
40
1
10
155.33292023791475
20
80.155060811165058
30
0
10
155.21809378176445
20
79.614844808196082
30
0
10
155.5629401448619
20
79.083827975763668
30
0
10
156.1031561478309
20
78.969001519613414
30
0
0
SPLINE
5
701
100
AcDbEntity
8
0
100
AcDbSpline
70
0
71
3
72
8
73
4
74
0
42
0.000000001
43
0.0000000001
44
0.0000000001
40
0
40
0
40
0
40
0
40
1
40
1
40
1
40
1
10
152.88821514402204
20
92.942786058600177
30
0
10
153.00304160017234
20
93.483002061569152
30
0
10
152.6581952370752
20
94.014018894001552
30
0
10
152.11797923410623
20
94.128845350151835
30
0
0
SPLINE
5
702
100
AcDbEntity
8
0
100
AcDbSpline
70
0
71
3
72
8
73
4
74
0
42
0.000000001
43
0.0000000001
44
0.0000000001
40
0
40
0
40
0
40
0
40
1
40
1
40
1
40
1
10
172.2219269380011
20
69.352068348521939
30
0
10
172.33675339415143
20
69.8922843514909
30
0
10
171.99190703105393
20
70.4233011839233
30
0
10
171.45169102808529
20
70.538127640073583
30
0
0
SPLINE
5
703
100
AcDbEntity
8
0
100
AcDbSpline
70
0
71
3
72
8
73
4
74
0
42
0.000000001
43
0.0000000001
44
0.0000000001
40
0
40
0
40
0
40
0
40
1
40
1
40
1
40
1
10
134.25450335004336
20
96.903503768678618
30
0
10
134.36932980619329
20
97.443719771647295
30
0
10
134.02448344309619
20
97.974736604079993
30
0
10
133.48426744012752
20
98.089563060230233
30
0
0
LINE
5
704
100
AcDbEntity
8
0
100
AcDbLine
10
88.850000000000108
20
97.910000000000039
30
0
11
88.850000000000108
21
85.90999999999994
31
0
0
LINE
5
705
100
AcDbEntity
8
0
100
AcDbLine
10
139.19414873374905
20
95.853549730048996
30
0
11
136.6992084439357
21
84.115778521243172
31
0
0
SPLINE
5
706
100
AcDbEntity
8
0
100
AcDbSpline
70
0
71
3
72
8
73
4
74
0
42
0.000000001
43
0.0000000001
44
0.0000000001
40
0
40
0
40
0
40
0
40
1
40
1
40
1
40
1
10
143.85350376867845
20
101.04549664995672
30
0
10
144.39371977164743
20
100.93067019380676
30
0
10
144.92473660407981
20
101.27551655690388
30
0
10
145.03956306023011
20
101.81573255987287
30
0
0
SPLINE
5
707
100
AcDbEntity
8
0
100
AcDbSpline
70
0
71
3
72
8
73
4
74
0
42
0.000000001
43
0.0000000001
44
0.0000000001
40
0
40
0
40
0
40
0
40
1
40
1
40
1
40
1
10
149.20721556265772
20
80.434778939878484
30
0
10
149.74743156562639
20
80.31995248372823
30
0
10
150.27844839805877
20
80.664798846825647
30
0
10
150.39327485420904
20
81.205014849794637
30
0
0
SPLINE
5
708
100
AcDbEntity
8
0
100
AcDbSpline
70
0
71
3
72
8
73
4
74
0
42
0.000000001
43
0.0000000001
44
0.0000000001
40
0
40
0
40
0
40
0
40
1
40
1
40
1
40
1
10
136.6992084439357
20
84.115778521243172
30
0
10
136.58438198778578
20
83.575562518274495
30
0
10
136.92922835088288
20
83.044545685841783
30
0
10
137.46944435385186
20
82.9297192296915
30
0
0
SPLINE
5
709
100
AcDbEntity
8
0
100
AcDbSpline
70
0
71
3
72
8
73
4
74
0
42
0.000000001
43
0.0000000001
44
0.0000000001
40
0
40
0
40
0
40
0
40
1
40
1
40
1
40
1
10
75.249999999999943
20
117.95999999999994
30
0
10
74.697715250169296
20
117.95999999999994
30
0
10
74.249999999999901
20
117.51228474983085
30
0
10
74.249999999999901
20
116.96000000000025
30
0
0
SPLINE
5
710
100
AcDbEntity
8
0
100
AcDbSpline
70
0
71
3
72
8
73
4
74
0
42
0.000000001
43
0.0000000001
44
0.0000000001
40
0
40
0
40
0
40
0
40
1
40
1
40
1
40
1
10
171.52192693800112
20
88.982068348522063
30
0
10
171.63675339415136
20
89.52228435149074
30
0
10
171.29190703105422
20
90.053301183923438
30
0
10
170.75169102808525
20
90.168127640073408
30
0
0
SPLINE
5
711
100
AcDbEntity
8
0
100
AcDbSpline
70
0
71
3
72
8
73
4
74
0
42
0.000000001
43
0.0000000001
44
0.0000000001
40
0
40
0
40
0
40
0
40
1
40
1
40
1
40
1
10
137.39920844393572
20
64.485778521243006
30
0
10
137.28438198778579
20
63.945562518274357
30
0
10
137.6292283508829
20
63.414545685841631
30
0
10
138.16944435385187
20
63.299719229691362
30
0
0
LINE
5
712
100
AcDbEntity
8
0
100
AcDbLine
10
169.38315614783096
20
95.619001519613178
30
0
11
181.12092735663651
21
93.124061229800162
31
0
0
LINE
5
713
100
AcDbEntity
8
0
100
AcDbLine
10
126.61043693977007
20
59.5742674401275
30
0
11
124.11549664995673
21
47.836496231321334
31
0
0
SPLINE
5
714
100
AcDbEntity
8
0
100
AcDbSpline
70
0
71
3
72
8
73
4
74
0
42
0.000000001
43
0.0000000001
44
0.0000000001
40
0
40
0
40
0
40
0
40
1
40
1
40
1
40
1
10
122.44649623132136
20
80.954503350043126
30
0
10
121.9062802283527
20
81.069329806193409
30
0
10
121.37526339591999
20
80.724483443096275
30
0
10
121.26043693977003
20
80.184267440127286
30
0
0
LINE
5
715
100
AcDbEntity
8
0
100
AcDbLine
10
137.46944435385186
20
82.9297192296915
30
0
11
149.20721556265772
21
80.434778939878484
31
0
0
LINE
5
716
100
AcDbEntity
8
0
100
AcDbLine
10
134.25450335004336
20
96.903503768678618
30
0
11
131.75956306022999
21
85.165732559872751
31
0
0
LINE
5
717
100
AcDbEntity
8
0
100
AcDbLine
10
152.88821514402204
20
92.942786058600177
30
0
11
150.39327485420904
21
81.205014849794637
31
0
0
LINE
5
718
100
AcDbEntity
8
0
100
AcDbLine
10
127.79649623132138
20
60.344503350043006
30
0
11
139.53426744012722
21
57.84956306022999
31
0
0
SPLINE
5
719
100
AcDbEntity
8
0
100
AcDbSpline
70
0
71
3
72
8
73
4
74
0
42
0.000000001
43
0.0000000001
44
0.0000000001
40
0
40
0
40
0
40
0
40
1
40
1
40
1
40
1
10
186.47463915061547
20
72.513343519721957
30
0
10
187.01485515358445
20
72.398517063571688
30
0
10
187.54587198601683
20
72.74336342666912
30
0
10
187.66069844216713
20
73.283579429637797
30
0
0
SPLINE
5
720
100
AcDbEntity
8
0
100
AcDbSpline
70
0
71
3
72
8
73
4
74
0
42
0.000000001
43
0.0000000001
44
0.0000000001
40
0
40
0
40
0
40
0
40
1
40
1
40
1
40
1
10
177.64763161325845
20
88.702350219808324
30
0
10
177.10741561028982
20
88.817176675958578
30
0
10
176.57639877785704
20
88.472330312861146
30
0
10
176.4615723217068
20
87.932114309892484
30
0
0
LINE
5
721
100
AcDbEntity
8
0
100
AcDbLine
10
177.64763161325845
20
88.702350219808324
30
0
11
189.38540282206432
21
86.207409929995308
31
0
0
SPLINE
5
722
100
AcDbEntity
8
0
100
AcDbSpline
70
0
71
3
72
8
73
4
74
0
42
0.000000001
43
0.0000000001
44
0.0000000001
40
0
40
0
40
0
40
0
40
1
40
1
40
1
40
1
10
88.850000000000108
20
97.910000000000039
30
0
10
88.850000000000108
20
98.462284749830999
30
0
10
88.402284749830699
20
98.910000000000068
30
0
10
87.85000000000008
20
98.910000000000068
30
0
0
LINE
5
723
100
AcDbEntity
8
0
100
AcDbLine
10
140.38020802530039
20
96.623785639964836
30
0
11
152.11797923410623
21
94.128845350151835
31
0
0
SPLINE
5
724
100
AcDbEntity
8
0
100
AcDbSpline
70
0
71
3
72
8
73
4
74
0
42
0.000000001
43
0.0000000001
44
0.0000000001
40
0
40
0
40
0
40
0
40
1
40
1
40
1
40
1
10
124.11549664995673
20
47.836496231321334
30
0
10
124.00067019380677
20
47.296280228352657
30
0
10
124.3455165569039
20
46.765263395919945
30
0
10
124.88573255987288
20
46.650436939769655
30
0
0
LINE
5
725
100
AcDbEntity
8
0
100
AcDbLine
10
153.58821514402209
20
73.312786058600366
30
0
11
151.09327485420906
21
61.575014849794492
31
0
0
LINE
5
726
100
AcDbEntity
8
0
100
AcDbLine
10
75.849999999999966
20
98.910000000000068
30
0
11
87.85000000000008
21
98.910000000000068
31
0
0
ARC
5
727
100
AcDbEntity
8
0
100
AcDbCircle
10
86.162499999999937
20
78.860000000000113
30
0
40
0.99999999999999645
210
0
220
0
230
1
100
AcDbArc
50
0
51
90
0
SPLINE
5
728
100
AcDbEntity
8
0
100
AcDbSpline
70
0
71
3
72
8
73
4
74
0
42
0.000000001
43
0.0000000001
44
0.0000000001
40
0
40
0
40
0
40
0
40
1
40
1
40
1
40
1
10
147.53450335004311
20
113.55350376867874
30
0
10
147.64932980619338
20
114.09371977164736
30
0
10
147.30448344309625
20
114.62473660408014
30
0
10
146.76426744012727
20
114.73956306023004
30
0
0
SPLINE
5
729
100
AcDbEntity
8
0
100
AcDbSpline
70
0
71
3
72
8
73
4
74
0
42
0.000000001
43
0.0000000001
44
0.0000000001
40
0
40
0
40
0
40
0
40
1
40
1
40
1
40
1
10
140.38020802530039
20
96.623785639964836
30
0
10
139.83999202233173
20
96.738612096115133
30
0
10
139.308975189899
20
96.393765733017673
30
0
10
139.19414873374905
20
95.853549730048996
30
0
0
LINE
5
730
100
AcDbEntity
8
0
100
AcDbLine
10
42.600000000000165
20
38.680000000000177
30
0
11
43.000000000000171
21
38.680000000000177
31
0
0
LINE
5
731
100
AcDbEntity
8
0
100
AcDbLine
10
45.000000000000171
20
36.680000000000177
30
0
11
45.000000000000171
21
27.36000000000006
31
0
0
LINE
5
732
100
AcDbEntity
8
0
100
AcDbLine
10
41.000000000000163
20
121.10000000000001
30
0
11
41.000000000000171
21
40.280000000000186
31
0
0
ARC
5
733
100
AcDbEntity
8
0
100
AcDbCircle
10
42.600000000000186
20
40.280000000000193
30
0
40
1.6000000000000103
210
0
220
0
230
1
100
AcDbArc
50
180
51
269.9999999999992
0
ARC
5
734
100
AcDbEntity
8
0
100
AcDbCircle
10
46.600000000000186
20
27.36000000000007
30
0
40
1.6000000000000192
210
0
220
0
230
1
100
AcDbArc
50
180
51
269.99999999999949
0
ARC
5
735
100
AcDbEntity
8
0
100
AcDbCircle
10
43.000000000000156
20
36.68000000000017
30
0
40
2.0000000000000107
210
0
220
-0
230
1
100
AcDbArc
50
0
51
89.999999999999588
0
LINE
5
736
100
AcDbEntity
8
0
100
AcDbLine
10
368.27520373480894
20
123.70000000000012
30
0
11
368.27520373480894
21
125.50000000000011
31
0
0
LINE
5
737
100
AcDbEntity
8
0
100
AcDbLine
10
366.67520373480897
20
127.10000000000009
30
0
11
270.33517615521725
21
127.10000000000011
31
0
0
LINE
5
738
100
AcDbEntity
8
0
100
AcDbLine
10
268.73517615521723
20
125.50000000000011
30
0
11
268.73517615521723
21
123.70000000000012
31
0
0
LINE
5
739
100
AcDbEntity
8
0
100
AcDbLine
10
150.00482384478011
20
123.70000000000012
30
0
11
150.00482384478011
21
125.50000000000011
31
0
0
LINE
5
740
100
AcDbEntity
8
0
100
AcDbLine
10
148.40482384478011
20
127.10000000000011
30
0
11
52.563546265191391
21
127.10000000000011
31
0
0
LINE
5
741
100
AcDbEntity
8
0
100
AcDbLine
10
50.963546265191383
20
125.50000000000011
30
0
11
50.963546265191383
21
123.70000000000012
31
0
0
LINE
5
742
100
AcDbEntity
8
0
100
AcDbLine
10
368.27520373480894
20
24.160000000000057
30
0
11
368.27520373480894
21
22.36000000000006
31
0
0
LINE
5
743
100
AcDbEntity
8
0
100
AcDbLine
10
366.67520373480897
20
20.760000000000069
30
0
11
304.57303456741454
21
20.760000000000058
31
0
0
LINE
5
744
100
AcDbEntity
8
0
100
AcDbLine
10
50.963546265191404
20
24.160000000000046
30
0
11
50.963546265191404
21
22.360000000000049
31
0
0
LINE
5
745
100
AcDbEntity
8
0
100
AcDbLine
10
52.563546265191405
20
20.760000000000048
30
0
11
114.16696543258239
21
20.760000000000048
31
0
0
LINE
5
746
100
AcDbEntity
8
0
100
AcDbLine
10
274.36994506907627
20
12.551039103407739
30
0
11
272.96654115605639
21
19.15353540836086
31
0
0
LINE
5
747
100
AcDbEntity
8
0
100
AcDbLine
10
273.2991998613648
20
17.588499247186768
30
0
11
273.67344090483675
21
15.827833565865925
31
0
0
LINE
5
748
100
AcDbEntity
8
0
100
AcDbLine
10
275.57113577131923
20
14.59545611000021
30
0
11
304.57303456741454
21
20.760000000000058
31
0
0
LINE
5
749
100
AcDbEntity
8
0
100
AcDbLine
10
145.44080013863248
20
17.588499247186775
30
0
11
145.06655909516053
21
15.827833565865919
31
0
0
LINE
5
750
100
AcDbEntity
8
0
100
AcDbLine
10
143.16886422867805
20
14.595456110000235
30
0
11
114.16696543258239
21
20.760000000000048
31
0
0
LINE
5
751
100
AcDbEntity
8
0
100
AcDbLine
10
169.2415044831512
20
7.2644493028363746
30
0
11
170.64490839617105
21
13.866945607789598
31
0
0
LINE
5
752
100
AcDbEntity
8
0
100
AcDbLine
10
249.49849551684619
20
7.2644493028364199
30
0
11
248.09509160382635
21
13.866945607789612
31
0
0
LINE
5
753
100
AcDbEntity
8
0
100
AcDbLine
10
170.31224969086264
20
12.301909446615507
30
0
11
169.93800864739069
21
10.541243765294659
31
0
0
LINE
5
754
100
AcDbEntity
8
0
100
AcDbLine
10
248.42775030913472
20
12.301909446615522
30
0
11
248.80199135260668
21
10.541243765294674
31
0
0
LINE
5
755
100
AcDbEntity
8
0
100
AcDbLine
10
247.30808362483475
20
123.70000000000012
30
0
11
247.30808362483475
21
125.50000000000011
31
0
0
LINE
5
756
100
AcDbEntity
8
0
100
AcDbLine
10
245.70808362483476
20
127.10000000000011
30
0
11
173.03191637516261
21
127.10000000000011
31
0
0
LINE
5
757
100
AcDbEntity
8
0
100
AcDbLine
10
171.43191637516259
20
125.50000000000011
30
0
11
171.43191637516259
21
123.70000000000012
31
0
0
LINE
5
758
100
AcDbEntity
8
0
100
AcDbLine
10
208.9495830589361
20
0.63567328612365204
30
0
11
209.79041694106147
21
0.63567328612364693
31
0
0
LINE
5
759
100
AcDbEntity
8
0
100
AcDbLine
10
247.569613896741
20
8.6435488988121776
30
0
11
209.99832863187922
21
0.65752568538983924
31
0
0
LINE
5
760
100
AcDbEntity
8
0
100
AcDbLine
10
171.17038610325636
20
8.6435488988121616
30
0
11
208.74167136811835
21
0.65752568538983935
31
0
0
LINE
5
761
100
AcDbEntity
8
0
100
AcDbLine
10
41.999999999999886
20
122.10000000000011
30
0
11
49.363546265191388
21
122.10000000000011
31
0
0
LINE
5
762
100
AcDbEntity
8
0
100
AcDbLine
10
151.60482384478013
20
122.10000000000011
30
0
11
169.83191637516262
21
122.10000000000014
31
0
0
LINE
5
763
100
AcDbEntity
8
0
100
AcDbLine
10
248.90808362483477
20
122.10000000000011
30
0
11
267.13517615521721
21
122.10000000000011
31
0
0
LINE
5
764
100
AcDbEntity
8
0
100
AcDbLine
10
369.87520373480891
20
122.10000000000014
30
0
11
377.2387500000001
21
122.10000000000011
31
0
0
ARC
5
765
100
AcDbEntity
8
0
100
AcDbCircle
10
369.87520373480891
20
24.160000000000082
30
0
40
1.5999999999999659
210
0
220
-0
230
1
100
AcDbArc
50
90
51
180
0
ARC
5
766
100
AcDbEntity
8
0
100
AcDbCircle
10
366.67520373480897
20
22.360000000000035
30
0
40
1.5999999999999659
210
-0
220
0
230
1
100
AcDbArc
50
-90
51
0
0
ARC
5
767
100
AcDbEntity
8
0
100
AcDbCircle
10
275.23847706601089
20
16.160492271174341
30
0
40
1.6000000000000307
210
0
220
0
230
1
100
AcDbArc
50
191.99999999999972
51
281.99999999999733
0
ARC
5
768
100
AcDbEntity
8
0
100
AcDbCircle
10
271.73416370019072
20
17.255840541878328
30
0
40
1.6000000000000358
210
0
220
-0
230
1
100
AcDbArc
50
12.000000000000934
51
101.9999999999994
0
ARC
5
769
100
AcDbEntity
8
0
100
AcDbCircle
10
249.9927864703088
20
12.634568151923943
30
0
40
1.5999999999999712
210
0
220
0
230
1
100
AcDbArc
50
101.99999999999875
51
192.00000000000031
0
ARC
5
770
100
AcDbEntity
8
0
100
AcDbCircle
10
247.2369551914326
20
10.208585059986264
30
0
40
1.5999999999999959
210
-0
220
0
230
1
100
AcDbArc
50
-78.000000000000341
51
11.999999999999865
0
ARC
5
771
100
AcDbEntity
8
0
100
AcDbCircle
10
171.50304480856477
20
10.208585059986238
30
0
40
1.5999999999999972
210
0
220
0
230
1
100
AcDbArc
50
167.99999999999969
51
258.00000000000028
0
ARC
5
772
100
AcDbEntity
8
0
100
AcDbCircle
10
168.74721352968857
20
12.634568151923929
30
0
40
1.5999999999999972
210
0
220
0
230
1
100
AcDbArc
50
-12.000000000000322
51
78.000000000000369
0
ARC
5
773
100
AcDbEntity
8
0
100
AcDbCircle
10
147.00583629980659
20
17.255840541878371
30
0
40
1.5999999999999936
210
0
220
-0
230
1
100
AcDbArc
50
78.000000000000355
51
168.00000000000051
0
ARC
5
774
100
AcDbEntity
8
0
100
AcDbCircle
10
143.50152293398645
20
16.16049227117432
30
0
40
1.5999999999999936
210
0
220
0
230
1
100
AcDbArc
50
258.00000000000034
51
348.0000000000004
0
ARC
5
775
100
AcDbEntity
8
0
100
AcDbCircle
10
52.563546265191412
20
22.36000000000006
30
0
40
1.6000000000000103
210
0
220
0
230
1
100
AcDbArc
50
180
51
269.99999999999972
0
ARC
5
776
100
AcDbEntity
8
0
100
AcDbCircle
10
49.363546265191395
20
24.160000000000039
30
0
40
1.6000000000000103
210
0
220
-0
230
1
100
AcDbArc
50
0
51
89.999999999999744
0
ARC
5
777
100
AcDbEntity
8
0
100
AcDbCircle
10
369.87520373480891
20
123.7000000000001
30
0
40
1.5999999999999659
210
0
220
0
230
1
100
AcDbArc
50
180
51
270
0
ARC
5
778
100
AcDbEntity
8
0
100
AcDbCircle
10
366.67520373480897
20
125.50000000000013
30
0
40
1.5999999999999659
210
0
220
0
230
1
100
AcDbArc
50
0
51
90
0
ARC
5
779
100
AcDbEntity
8
0
100
AcDbCircle
10
270.33517615521725
20
125.50000000000011
30
0
40
1.6000000000000014
210
0
220
-0
230
1
100
AcDbArc
50
90
51
180
0
ARC
5
780
100
AcDbEntity
8
0
100
AcDbCircle
10
267.13517615521721
20
123.70000000000012
30
0
40
1.6000000000000014
210
-0
220
0
230
1
100
AcDbArc
50
-90
51
0
0
ARC
5
781
100
AcDbEntity
8
0
100
AcDbCircle
10
248.90808362483477
20
123.70000000000012
30
0
40
1.6000000000000014
210
0
220
0
230
1
100
AcDbArc
50
180
51
270
0
ARC
5
782
100
AcDbEntity
8
0
100
AcDbCircle
10
245.70808362483476
20
125.50000000000011
30
0
40
1.6000000000000014
210
0
220
0
230
1
100
AcDbArc
50
0
51
90
0
ARC
5
783
100
AcDbEntity
8
0
100
AcDbCircle
10
169.83191637516262
20
123.7000000000001
30
0
40
1.5999999999999659
210
-0
220
0
230
1
100
AcDbArc
50
-90
51
0
0
ARC
5
784
100
AcDbEntity
8
0
100
AcDbCircle
10
173.03191637516255
20
125.50000000000013
30
0
40
1.5999999999999837
210
0
220
-0
230
1
100
AcDbArc
50
89.999999999997954
51
180
0
ARC
5
785
100
AcDbEntity
8
0
100
AcDbCircle
10
151.6048238447801
20
123.7000000000001
30
0
40
1.5999999999999837
210
0
220
0
230
1
100
AcDbArc
50
180
51
270.00000000000102
0
ARC
5
786
100
AcDbEntity
8
0
100
AcDbCircle
10
148.40482384478014
20
125.50000000000013
30
0
40
1.5999999999999837
210
0
220
0
230
1
100
AcDbArc
50
0
51
90.000000000001009
0
ARC
5
787
100
AcDbEntity
8
0
100
AcDbCircle
10
49.363546265191388
20
123.70000000000012
30
0
40
1.6000000000000014
210
-0
220
0
230
1
100
AcDbArc
50
-90
51
0
0
ARC
5
788
100
AcDbEntity
8
0
100
AcDbCircle
10
52.563546265191391
20
125.50000000000011
30
0
40
1.6000000000000014
210
0
220
-0
230
1
100
AcDbArc
50
90
51
180
0
ARC
5
789
100
AcDbEntity
8
0
100
AcDbCircle
10
208.94958305893601
20
1.6356732861232253
30
0
40
0.99999999999957334
210
0
220
0
230
1
100
AcDbArc
50
258.00000000000011
51
270.00000000000489
0
ARC
5
790
100
AcDbEntity
8
0
100
AcDbCircle
10
209.79041694106149
20
1.6356732861233381
30
0
40
0.99999999999969114
210
0
220
0
230
1
100
AcDbArc
50
269.99999999999835
51
282.00000000000171
0
ENDSEC
0
SECTION
2
OBJECTS
0
DICTIONARY
5
C
100
AcDbDictionary
3
ACAD_GROUP
350
D
3
ACAD_MLINESTYLE
350
17
0
DICTIONARY
5
D
100
AcDbDictionary
0
DICTIONARY
5
1A
330
C
100
AcDbDictionary
0
DICTIONARY
5
17
100
AcDbDictionary
0
ENDSEC
0
EOF
