0
SECTION
2
HEADER
9
$INSUNITS
70
4
9
$ACADVER
1
AC1014
9
$HANDSEED
5
FFFF
0
ENDSEC
0
SECTION
2
TABLES
0
TABLE
2
VPORT
5
8
100
AcDbSymbolTable
0
ENDTAB
0
TABLE
2
LTYPE
5
5
100
AcDbSymbolTable
0
LTYPE
5
14
100
AcDbSymbolTableRecord
100
AcDbLinetypeTableRecord
2
BYBLOCK
70
0
0
LTYPE
5
15
100
AcDbSymbolTableRecord
100
AcDbLinetypeTableRecord
2
BYLAYER
70
0
0
ENDTAB
0
TABLE
2
LAYER
5
2
100
AcDbSymbolTable
70
2
0
LAYER
5
50
100
AcDbSymbolTableRecord
100
AcDbLayerTableRecord
2
0
70
0
6
CONTINUOUS
0
ENDTAB
0
TABLE
2
STYLE
5
3
100
AcDbSymbolTable
70
1
0
STYLE
5
11
100
AcDbSymbolTableRecord
100
AcDbTextStyleTableRecord
2
STANDARD
70
0
0
ENDTAB
0
TABLE
2
VIEW
5
6
100
AcDbSymbolTable
70
0
0
ENDTAB
0
TABLE
2
UCS
5
7
100
AcDbSymbolTable
70
0
0
ENDTAB
0
TABLE
2
APPID
5
9
100
AcDbSymbolTable
70
2
0
APPID
5
12
100
AcDbSymbolTableRecord
100
AcDbRegAppTableRecord
2
ACAD
70
0
0
ENDTAB
0
TABLE
2
DIMSTYLE
5
A
100
AcDbSymbolTable
70
1
0
ENDTAB
0
TABLE
2
BLOCK_RECORD
5
1
100
AcDbSymbolTable
70
1
0
BLOCK_RECORD
5
1F
100
AcDbSymbolTableRecord
100
AcDbBlockTableRecord
2
*MODEL_SPACE
0
BLOCK_RECORD
5
1B
100
AcDbSymbolTableRecord
100
AcDbBlockTableRecord
2
*PAPER_SPACE
0
ENDTAB
0
ENDSEC
0
SECTION
2
BLOCKS
0
BLOCK
5
20
100
AcDbEntity
100
AcDbBlockBegin
2
*MODEL_SPACE
0
ENDBLK
5
21
100
AcDbEntity
100
AcDbBlockEnd
0
BLOCK
5
1C
100
AcDbEntity
100
AcDbBlockBegin
2
*PAPER_SPACE
0
ENDBLK
5
1D
100
AcDbEntity
100
AcDbBlockEnd
0
ENDSEC
0
SECTION
2
ENTITIES
0
ARC
5
100
100
AcDbEntity
8
0
100
AcDbCircle
10
247.2369551914326
20
10.208585059986264
30
0
40
1.7499999999999962
210
0
220
0
230
1
100
AcDbArc
50
-78.000000000000853
51
11.999999999999742
0
LINE
5
101
100
AcDbEntity
8
0
100
AcDbLine
10
247.60080065036365
20
8.496826758702106
30
0
11
210.02437501272428
21
0.50971092531645767
31
0
0
LINE
5
102
100
AcDbEntity
8
0
100
AcDbLine
10
208.94432784717281
20
0.48567328612364902
30
0
11
209.79567215282475
21
0.48567328612364896
31
0
0
LINE
5
103
100
AcDbEntity
8
0
100
AcDbLine
10
171.13919934963371
20
8.49682675870209
30
0
11
208.71562498727329
21
0.50971092531646345
31
0
0
ARC
5
104
100
AcDbEntity
8
0
100
AcDbCircle
10
171.50304480856477
20
10.208585059986238
30
0
40
1.7499999999999982
210
0
220
0
230
1
100
AcDbArc
50
167.9999999999998
51
258.00000000000074
0
LINE
5
105
100
AcDbEntity
8
0
100
AcDbLine
10
170.16552755075256
20
12.33309620023817
30
0
11
169.7912865072806
21
10.572430518917324
31
0
0
ARC
5
106
100
AcDbEntity
8
0
100
AcDbCircle
10
168.74721352968857
20
12.634568151923929
30
0
40
1.4499999999999968
210
0
220
0
230
1
100
AcDbArc
50
-12.000000000000524
51
78.000000000000924
0
LINE
5
107
100
AcDbEntity
8
0
100
AcDbLine
10
147.30730825149232
20
18.674154562942384
30
0
11
169.04868548137429
21
14.052882172987946
31
0
0
ARC
5
108
100
AcDbEntity
8
0
100
AcDbCircle
10
147.00583629980659
20
17.255840541878371
30
0
40
1.4499999999999933
210
0
220
-0
230
1
100
AcDbArc
50
78.000000000000909
51
168.0000000000004
0
LINE
5
109
100
AcDbEntity
8
0
100
AcDbLine
10
145.58752227874257
20
17.557312493564112
30
0
11
145.21328123527061
21
15.796646812243257
31
0
0
ARC
5
110
100
AcDbEntity
8
0
100
AcDbCircle
10
143.50152293398645
20
16.16049227117432
30
0
40
1.749999999999994
210
0
220
0
230
1
100
AcDbArc
50
258.0000000000008
51
348.00000000000051
0
LINE
5
111
100
AcDbEntity
8
0
100
AcDbLine
10
143.1376774750554
20
14.448733969890164
30
0
11
114.15119979729255
21
20.610000000000049
31
0
0
LINE
5
112
100
AcDbEntity
8
0
100
AcDbLine
10
52.563546265191405
20
20.610000000000049
30
0
11
114.15119979729255
21
20.610000000000049
31
0
0
ARC
5
113
100
AcDbEntity
8
0
100
AcDbCircle
10
52.563546265191412
20
22.36000000000006
30
0
40
1.7500000000000071
210
0
220
0
230
1
100
AcDbArc
50
180
51
269.99999999999972
0
LINE
5
114
100
AcDbEntity
8
0
100
AcDbLine
10
50.813546265191405
20
24.160000000000046
30
0
11
50.813546265191405
21
22.360000000000049
31
0
0
ARC
5
115
100
AcDbEntity
8
0
100
AcDbCircle
10
49.363546265191395
20
24.160000000000039
30
0
40
1.4500000000000135
210
0
220
-0
230
1
100
AcDbArc
50
0
51
89.999999999999716
0
LINE
5
116
100
AcDbEntity
8
0
100
AcDbLine
10
46.600000000000172
20
25.610000000000049
30
0
11
49.363546265191403
21
25.610000000000049
31
0
0
ARC
5
117
100
AcDbEntity
8
0
100
AcDbCircle
10
46.600000000000186
20
27.36000000000007
30
0
40
1.750000000000016
210
0
220
0
230
1
100
AcDbArc
50
180
51
269.99999999999955
0
LINE
5
118
100
AcDbEntity
8
0
100
AcDbLine
10
44.850000000000172
20
36.680000000000177
30
0
11
44.850000000000172
21
27.36000000000006
31
0
0
ARC
5
119
100
AcDbEntity
8
0
100
AcDbCircle
10
43.000000000000156
20
36.68000000000017
30
0
40
1.8500000000000139
210
0
220
-0
230
1
100
AcDbArc
50
0
51
89.999999999999574
0
LINE
5
120
100
AcDbEntity
8
0
100
AcDbLine
10
42.600000000000165
20
38.530000000000179
30
0
11
43.000000000000171
21
38.530000000000179
31
0
0
ARC
5
121
100
AcDbEntity
8
0
100
AcDbCircle
10
42.600000000000186
20
40.280000000000193
30
0
40
1.7500000000000071
210
0
220
0
230
1
100
AcDbArc
50
180
51
269.99999999999932
0
LINE
5
122
100
AcDbEntity
8
0
100
AcDbLine
10
40.850000000000165
20
121.10000000000001
30
0
11
40.850000000000179
21
40.280000000000186
31
0
0
SPLINE
5
123
100
AcDbEntity
8
0
100
AcDbSpline
70
0
71
3
72
8
73
4
74
0
42
0.000000001
43
0.0000000001
44
0.0000000001
40
0
40
0
40
0
40
0
40
1
40
1
40
1
40
1
10
41.999999999999886
20
122.25000000000011
30
0
10
41.366649232991257
20
122.25000000000011
30
0
10
40.850000000000165
20
121.73335076700894
30
0
10
40.850000000000165
20
121.10000000000001
30
0
0
LINE
5
124
100
AcDbEntity
8
0
100
AcDbLine
10
41.999999999999886
20
122.25000000000011
30
0
11
49.363546265191388
21
122.25000000000011
31
0
0
ARC
5
125
100
AcDbEntity
8
0
100
AcDbCircle
10
49.363546265191388
20
123.70000000000012
30
0
40
1.4499999999999957
210
0
220
0
230
1
100
AcDbArc
50
-90
51
0
0
LINE
5
126
100
AcDbEntity
8
0
100
AcDbLine
10
50.813546265191391
20
125.50000000000011
30
0
11
50.813546265191391
21
123.70000000000012
31
0
0
ARC
5
127
100
AcDbEntity
8
0
100
AcDbCircle
10
52.563546265191391
20
125.50000000000011
30
0
40
1.7500000000000071
210
0
220
-0
230
1
100
AcDbArc
50
90
51
180
0
LINE
5
128
100
AcDbEntity
8
0
100
AcDbLine
10
148.40482384478011
20
127.25000000000011
30
0
11
52.563546265191391
21
127.25000000000011
31
0
0
ARC
5
129
100
AcDbEntity
8
0
100
AcDbCircle
10
148.40482384478014
20
125.50000000000013
30
0
40
1.7499999999999893
210
0
220
0
230
1
100
AcDbArc
50
0
51
90.000000000000924
0
LINE
5
130
100
AcDbEntity
8
0
100
AcDbLine
10
150.15482384478014
20
123.70000000000012
30
0
11
150.15482384478014
21
125.50000000000011
31
0
0
ARC
5
131
100
AcDbEntity
8
0
100
AcDbCircle
10
151.6048238447801
20
123.7000000000001
30
0
40
1.449999999999978
210
0
220
0
230
1
100
AcDbArc
50
180
51
270.00000000000114
0
LINE
5
132
100
AcDbEntity
8
0
100
AcDbLine
10
151.60482384478013
20
122.25000000000011
30
0
11
169.83191637516262
21
122.25000000000014
31
0
0
ARC
5
133
100
AcDbEntity
8
0
100
AcDbCircle
10
169.83191637516262
20
123.7000000000001
30
0
40
1.4499999999999602
210
0
220
0
230
1
100
AcDbArc
50
-90
51
0
0
LINE
5
134
100
AcDbEntity
8
0
100
AcDbLine
10
171.28191637516261
20
125.50000000000011
30
0
11
171.28191637516261
21
123.70000000000012
31
0
0
ARC
5
135
100
AcDbEntity
8
0
100
AcDbCircle
10
173.03191637516255
20
125.50000000000013
30
0
40
1.7499999999999893
210
0
220
-0
230
1
100
AcDbArc
50
89.999999999998138
51
180
0
LINE
5
136
100
AcDbEntity
8
0
100
AcDbLine
10
245.70808362483476
20
127.25000000000011
30
0
11
173.03191637516261
21
127.25000000000011
31
0
0
ARC
5
137
100
AcDbEntity
8
0
100
AcDbCircle
10
245.70808362483476
20
125.50000000000011
30
0
40
1.7500000000000071
210
0
220
0
230
1
100
AcDbArc
50
0
51
90
0
LINE
5
138
100
AcDbEntity
8
0
100
AcDbLine
10
247.45808362483476
20
123.70000000000012
30
0
11
247.45808362483476
21
125.50000000000011
31
0
0
ARC
5
139
100
AcDbEntity
8
0
100
AcDbCircle
10
248.90808362483477
20
123.70000000000012
30
0
40
1.4499999999999957
210
0
220
0
230
1
100
AcDbArc
50
180
51
270
0
LINE
5
140
100
AcDbEntity
8
0
100
AcDbLine
10
248.90808362483477
20
122.25000000000011
30
0
11
267.13517615521721
21
122.25000000000011
31
0
0
ARC
5
141
100
AcDbEntity
8
0
100
AcDbCircle
10
267.13517615521721
20
123.70000000000012
30
0
40
1.4499999999999957
210
0
220
0
230
1
100
AcDbArc
50
-90
51
0
0
LINE
5
142
100
AcDbEntity
8
0
100
AcDbLine
10
268.58517615521725
20
125.50000000000011
30
0
11
268.58517615521725
21
123.70000000000012
31
0
0
ARC
5
143
100
AcDbEntity
8
0
100
AcDbCircle
10
270.33517615521725
20
125.50000000000011
30
0
40
1.7500000000000071
210
0
220
-0
230
1
100
AcDbArc
50
90
51
180
0
LINE
5
144
100
AcDbEntity
8
0
100
AcDbLine
10
366.67520373480897
20
127.2500000000001
30
0
11
270.33517615521725
21
127.25000000000011
31
0
0
ARC
5
145
100
AcDbEntity
8
0
100
AcDbCircle
10
366.67520373480897
20
125.50000000000013
30
0
40
1.7499999999999716
210
0
220
0
230
1
100
AcDbArc
50
0
51
90
0
LINE
5
146
100
AcDbEntity
8
0
100
AcDbLine
10
368.42520373480897
20
123.70000000000012
30
0
11
368.42520373480897
21
125.50000000000011
31
0
0
ARC
5
147
100
AcDbEntity
8
0
100
AcDbCircle
10
369.87520373480891
20
123.7000000000001
30
0
40
1.4499999999999602
210
0
220
0
230
1
100
AcDbArc
50
180
51
270
0
LINE
5
148
100
AcDbEntity
8
0
100
AcDbLine
10
369.87520373480891
20
122.25000000000014
30
0
11
377.2387500000001
21
122.25000000000011
31
0
0
SPLINE
5
149
100
AcDbEntity
8
0
100
AcDbSpline
70
0
71
3
72
8
73
4
74
0
42
0.000000001
43
0.0000000001
44
0.0000000001
40
0
40
0
40
0
40
0
40
1
40
1
40
1
40
1
10
378.38875000000019
20
121.10000000000001
30
0
10
378.38875000000019
20
121.73335076700893
30
0
10
377.87210076700899
20
122.25000000000011
30
0
10
377.2387500000001
20
122.25000000000011
30
0
0
LINE
5
150
100
AcDbEntity
8
0
100
AcDbLine
10
378.38875000000019
20
121.10000000000001
30
0
11
378.38875000000019
21
26.760000000000108
31
0
0
SPLINE
5
151
100
AcDbEntity
8
0
100
AcDbSpline
70
0
71
3
72
8
73
4
74
0
42
0.000000001
43
0.0000000001
44
0.0000000001
40
0
40
0
40
0
40
0
40
1
40
1
40
1
40
1
10
377.2387500000001
20
25.610000000000056
30
0
10
377.87210076700899
20
25.610000000000056
30
0
10
378.38875000000019
20
26.126649232991209
30
0
10
378.38875000000019
20
26.760000000000097
30
0
0
LINE
5
152
100
AcDbEntity
8
0
100
AcDbLine
10
369.87520373480891
20
25.610000000000049
30
0
11
377.2387500000001
21
25.610000000000056
31
0
0
ARC
5
153
100
AcDbEntity
8
0
100
AcDbCircle
10
369.87520373480891
20
24.160000000000082
30
0
40
1.4499999999999647
210
0
220
-0
230
1
100
AcDbArc
50
90
51
180
0
LINE
5
154
100
AcDbEntity
8
0
100
AcDbLine
10
368.42520373480897
20
24.160000000000061
30
0
11
368.42520373480897
21
22.36000000000006
31
0
0
ARC
5
155
100
AcDbEntity
8
0
100
AcDbCircle
10
366.67520373480897
20
22.360000000000035
30
0
40
1.7499999999999671
210
0
220
0
230
1
100
AcDbArc
50
-90
51
0
0
LINE
5
156
100
AcDbEntity
8
0
100
AcDbLine
10
366.67520373480897
20
20.610000000000067
30
0
11
304.58880020270436
21
20.610000000000056
31
0
0
LINE
5
157
100
AcDbEntity
8
0
100
AcDbLine
10
275.60232252494194
20
14.448733969890139
30
0
11
304.58880020270436
21
20.610000000000056
31
0
0
ARC
5
158
100
AcDbEntity
8
0
100
AcDbCircle
10
275.23847706601089
20
16.160492271174341
30
0
40
1.7500000000000313
210
0
220
0
230
1
100
AcDbArc
50
191.99999999999974
51
281.99999999999886
0
LINE
5
159
100
AcDbEntity
8
0
100
AcDbLine
10
273.15247772125474
20
17.557312493564105
30
0
11
273.5267187647267
21
15.796646812243262
31
0
0
ARC
5
160
100
AcDbEntity
8
0
100
AcDbCircle
10
271.73416370019072
20
17.255840541878328
30
0
40
1.4500000000000355
210
0
220
-0
230
1
100
AcDbArc
50
12.000000000000966
51
101.99999999999987
0
LINE
5
161
100
AcDbEntity
8
0
100
AcDbLine
10
249.6913145186231
20
14.052882172987943
30
0
11
271.43269174850496
21
18.674154562942384
31
0
0
ARC
5
162
100
AcDbEntity
8
0
100
AcDbCircle
10
249.9927864703088
20
12.634568151923943
30
0
40
1.4499999999999704
210
0
220
0
230
1
100
AcDbArc
50
101.99999999999814
51
191.99999999999989
0
LINE
5
163
100
AcDbEntity
8
0
100
AcDbLine
10
248.57447244924481
20
12.333096200238201
30
0
11
248.94871349271676
21
10.572430518917336
31
0
0
ARC
5
164
100
AcDbEntity
8
0
100
AcDbCircle
10
208.94432784717284
20
1.5856732861238843
30
0
40
1.1000000000002352
210
0
220
0
230
1
100
AcDbArc
50
258.00000000000142
51
269.99999999999852
0
ARC
5
165
100
AcDbEntity
8
0
100
AcDbCircle
10
209.79567215282475
20
1.5856732861238072
30
0
40
1.1000000000001582
210
-0
220
0
230
1
100
AcDbArc
50
270
51
281.99999999999784
0
LWPOLYLINE
5
166
100
AcDbEntity
8
0
100
AcDbPolyline
90
16
70
1
43
0.0
10
382.98875000000015
20
134.85000000000008
42
-0.41421356237309503
10
388.98875000000021
20
128.85000000000005
10
388.98875000000021
20
19.010000000000083
42
-0.41421356237309365
10
382.98875000000015
20
13.010000000000081
10
307.91009403708847
20
13.01000000000008
42
0.052407779283041411
10
302.9202134574623
20
12.48554241761142
10
229.53727378304549
20
-3.1124829248212604
42
-0.05240777928303994
10
222.05245291360612
20
-3.8991692984042636
10
196.68754708638556
20
-3.8991692984042627
42
-0.052407779283039829
10
189.20272621694625
20
-3.1124829248212604
10
115.81978654252957
20
12.485542417611395
42
0.05240777928304248
10
110.82990596290337
20
13.010000000000055
10
36.250000000000171
20
13.010000000000057
42
-0.41421356237309598
10
30.250000000000167
20
19.010000000000087
10
30.250000000000163
20
128.85000000000014
42
-0.41421356237309243
10
36.250000000000142
20
134.85000000000011
0
LWPOLYLINE
5
167
100
AcDbEntity
8
0
100
AcDbPolyline
90
6
70
1
43
0.0
10
41.606773132595769
20
131.20000000000007
10
42.96354626519139
20
128.85000000000008
10
41.606773132595769
20
126.50000000000009
10
38.893226867404536
20
126.50000000000009
10
37.536453734808923
20
128.85000000000008
10
38.893226867404536
20
131.20000000000007
0
LWPOLYLINE
5
168
100
AcDbEntity
8
0
100
AcDbPolyline
90
6
70
1
43
0.0
10
162.07514324256698
20
131.20000000000007
10
163.43191637516259
20
128.85000000000008
10
162.07514324256695
20
126.50000000000011
10
159.36159697737571
20
126.50000000000013
10
158.00482384478013
20
128.85000000000014
10
159.36159697737577
20
131.2000000000001
0
LWPOLYLINE
5
169
100
AcDbEntity
8
0
100
AcDbPolyline
90
6
70
1
43
0.0
10
259.37840302262163
20
131.20000000000007
10
260.73517615521723
20
128.85000000000008
10
259.37840302262157
20
126.50000000000009
10
256.66485675743036
20
126.50000000000011
10
255.30808362483475
20
128.85000000000011
10
256.66485675743041
20
131.20000000000007
0
LWPOLYLINE
5
170
100
AcDbEntity
8
0
100
AcDbPolyline
90
6
70
1
43
0.0
10
380.34552313259582
20
131.2000000000001
10
381.70229626519142
20
128.85000000000011
10
380.34552313259582
20
126.50000000000009
10
377.63197686740455
20
126.50000000000006
10
376.27520373480888
20
128.85000000000008
10
377.63197686740455
20
131.2000000000001
0
LWPOLYLINE
5
171
100
AcDbEntity
8
0
100
AcDbPolyline
90
6
70
1
43
0.0
10
380.34552313259582
20
21.360000000000099
10
381.70229626519142
20
19.01000000000008
10
380.34552313259582
20
16.660000000000068
10
377.63197686740455
20
16.660000000000046
10
376.27520373480888
20
19.010000000000069
10
377.63197686740455
20
21.360000000000095
0
LWPOLYLINE
5
172
100
AcDbEntity
8
0
100
AcDbPolyline
90
6
70
1
43
0.0
10
258.86016180099278
20
11.656833297629507
10
260.67587865880296
20
9.6402754319591093
10
259.83734674783619
20
7.0595395741806239
10
257.1830979790592
20
6.4953615820725403
10
255.36738112124902
20
8.5119194477429367
10
256.20591303221579
20
11.092655305521419
0
LWPOLYLINE
5
173
100
AcDbEntity
8
0
100
AcDbPolyline
90
6
70
1
43
0.0
10
162.53408696778155
20
11.092655305521417
10
163.37261887874834
20
8.5119194477429332
10
161.55690202093814
20
6.4953615820725386
10
158.90265325216117
20
7.0595395741806275
10
158.06412134119438
20
9.6402754319591129
10
159.87983819900455
20
11.656833297629511
0
LWPOLYLINE
5
174
100
AcDbEntity
8
0
100
AcDbPolyline
90
6
70
1
43
0.0
10
41.606773132595791
20
21.360000000000056
10
42.963546265191404
20
19.010000000000051
10
41.606773132595777
20
16.660000000000053
10
38.893226867404536
20
16.660000000000057
10
37.536453734808923
20
19.010000000000062
10
38.89322686740455
20
21.36000000000006
0
ENDSEC
0
SECTION
2
OBJECTS
0
DICTIONARY
5
C
100
AcDbDictionary
3
ACAD_GROUP
350
D
3
ACAD_MLINESTYLE
350
17
0
DICTIONARY
5
D
100
AcDbDictionary
0
DICTIONARY
5
1A
330
C
100
AcDbDictionary
0
DICTIONARY
5
17
100
AcDbDictionary
0
ENDSEC
0
EOF
