0
SECTION
2
HEADER
9
$INSUNITS
70
4
9
$ACADVER
1
AC1014
9
$HANDSEED
5
FFFF
0
ENDSEC
0
SECTION
2
TABLES
0
TABLE
2
VPORT
5
8
100
AcDbSymbolTable
0
ENDTAB
0
TABLE
2
LTYPE
5
5
100
AcDbSymbolTable
0
LTYPE
5
14
100
AcDbSymbolTableRecord
100
AcDbLinetypeTableRecord
2
BYBLOCK
70
0
0
LTYPE
5
15
100
AcDbSymbolTableRecord
100
AcDbLinetypeTableRecord
2
BYLAYER
70
0
0
ENDTAB
0
TABLE
2
LAYER
5
2
100
AcDbSymbolTable
70
2
0
LAYER
5
50
100
AcDbSymbolTableRecord
100
AcDbLayerTableRecord
2
0
70
0
6
CONTINUOUS
0
ENDTAB
0
TABLE
2
STYLE
5
3
100
AcDbSymbolTable
70
1
0
STYLE
5
11
100
AcDbSymbolTableRecord
100
AcDbTextStyleTableRecord
2
STANDARD
70
0
0
ENDTAB
0
TABLE
2
VIEW
5
6
100
AcDbSymbolTable
70
0
0
ENDTAB
0
TABLE
2
UCS
5
7
100
AcDbSymbolTable
70
0
0
ENDTAB
0
TABLE
2
APPID
5
9
100
AcDbSymbolTable
70
2
0
APPID
5
12
100
AcDbSymbolTableRecord
100
AcDbRegAppTableRecord
2
ACAD
70
0
0
ENDTAB
0
TABLE
2
DIMSTYLE
5
A
100
AcDbSymbolTable
70
1
0
ENDTAB
0
TABLE
2
BLOCK_RECORD
5
1
100
AcDbSymbolTable
70
1
0
BLOCK_RECORD
5
1F
100
AcDbSymbolTableRecord
100
AcDbBlockTableRecord
2
*MODEL_SPACE
0
BLOCK_RECORD
5
1B
100
AcDbSymbolTableRecord
100
AcDbBlockTableRecord
2
*PAPER_SPACE
0
ENDTAB
0
ENDSEC
0
SECTION
2
BLOCKS
0
BLOCK
5
20
100
AcDbEntity
100
AcDbBlockBegin
2
*MODEL_SPACE
0
ENDBLK
5
21
100
AcDbEntity
100
AcDbBlockEnd
0
BLOCK
5
1C
100
AcDbEntity
100
AcDbBlockBegin
2
*PAPER_SPACE
0
ENDBLK
5
1D
100
AcDbEntity
100
AcDbBlockEnd
0
ENDSEC
0
SECTION
2
ENTITIES
0
LWPOLYLINE
5
100
100
AcDbEntity
8
0
100
AcDbPolyline
90
50
70
1
43
0.0
10
192.1292988672904
20
88.535010323207246
42
-0.41421356237309503
10
193.31535815884195
20
89.305246233123299
10
200.67892224251491
20
87.740072369860812
42
0.41421356237311541
10
201.86498153406646
20
88.510308279776865
10
204.85890988184218
20
102.59563373034371
42
0.41421356237310014
10
204.08867397192611
20
103.78169302189528
10
130.84943764786664
20
119.3491732742753
42
-0.052296083046631747
10
129.85734830220537
20
119.67127830759416
10
127.16481764303155
20
120.86863297035026
42
0.10499161511467618
10
125.13316984328149
20
121.3000000000001
10
113.06537968974509
20
121.3000000000001
42
0.14496449572737391
10
110.34265443759054
20
120.4936579738077
10
109.53045984444051
20
119.96634202619235
42
-0.14496449572737835
10
106.80773459228595
20
119.15999999999994
10
93.100000000000222
20
119.15999999999994
42
0.41421356237309503
10
92.100000000000222
20
118.15999999999994
10
92.100000000000222
20
103.76000000000002
42
0.41421356237309503
10
93.100000000000222
20
102.76000000000002
10
96.459999999999837
20
102.76000000000002
42
-0.41421356237310542
10
97.459999999999823
20
101.76000000000002
10
97.459999999999823
20
80.015504247310332
42
0.096289048197567909
10
97.605632290866225
20
79.266291060478537
10
98.014367709133396
20
78.254635400199831
42
-0.096289048197517685
10
98.159999999999798
20
77.505422213368036
10
98.159999999999627
20
60.61000000000034
42
0.41421356237307944
10
99.159999999999656
20
59.61000000000034
10
102.50999999999979
20
59.610000000000326
42
-0.41421356237309764
10
103.50999999999978
20
58.610000000000333
10
103.50999999999979
20
46.746676825330624
42
0.41421356237309764
10
104.50999999999979
20
45.746676825330617
10
123.33085823611063
20
45.746676825330624
10
123.85050319716737
20
45.636222879119259
10
145.64520076165462
20
41.003616902173967
42
-0.41421356237315066
10
146.41543667157063
20
39.817557610622188
10
142.87207154804602
20
23.147335361629615
42
0.41417289413687125
10
143.64217164217663
20
21.961304948469525
10
176.52125472558589
20
14.967868365922392
42
0.4142542317789184
10
177.70744983292289
20
15.738075397446769
10
181.25178537546486
20
32.412863108984908
42
-0.4142135623730846
10
182.43784466701641
20
33.18309901890099
10
193.44740711990769
20
30.842944278423069
42
0.41421356237310919
10
194.63346641145927
20
31.613180188339115
10
197.62890988184205
20
45.70563373034296
42
0.41421356237309759
10
196.85867397192598
20
46.891693021894518
10
189.50481396730365
20
48.454804219479719
42
-0.41421356237309703
10
188.73457805738758
20
49.640863511031277
10
192.278909881842
20
66.315633730342981
42
0.41421356237310014
10
191.50867397192596
20
67.501693021894539
10
188.80310811142994
20
68.076778798573315
42
-0.4142135623731098
10
188.0328722015139
20
69.262838090124887
0
LWPOLYLINE
5
101
100
AcDbEntity
8
0
100
AcDbPolyline
90
44
70
1
43
0.0
10
255.92498509288845
20
38.301066852939456
42
-0.41421356237307511
10
256.69522100280449
20
39.487126144491036
10
285.50107769996544
20
45.6099999999998
10
324.0499999999995
20
45.6099999999998
42
0.41421356237312884
10
325.0499999999995
20
46.6099999999998
10
325.0499999999995
20
63.659999999999982
42
-0.41421356237312884
10
326.04999999999956
20
64.659999999999968
10
329.40999999999951
20
64.659999999999968
42
0.41421356237312884
10
330.40999999999951
20
65.659999999999968
10
330.40999999999951
20
82.709999999999837
42
-0.41421356237313145
10
331.40999999999957
20
83.709999999999823
10
339.42000000000002
20
83.709999999999781
42
0.41421356237311063
10
340.42000000000002
20
84.709999999999809
10
340.41999999999979
20
99.110000000000042
42
0.41421356237308982
10
339.41999999999979
20
100.11000000000004
10
327.72999999999996
20
100.11000000000001
42
-0.41421356237312101
10
326.7299999999999
20
101.11000000000004
10
326.72999999999996
20
118.15999999999987
42
0.41421356237312101
10
325.7299999999999
20
119.15999999999983
10
317.0116275261023
20
119.15999999999985
10
306.98133340968627
20
121.3000000000001
10
287.85331288758573
20
121.3000000000001
10
214.75132602807392
20
105.7616930218954
42
0.41421356237307982
10
213.98109011815785
20
104.57563373034387
10
217.52498966990046
20
87.90289719424652
42
-0.41421356237308488
10
216.7547537599844
20
86.716837902694976
10
209.39132602807408
20
85.151693021894545
42
0.4142135623730685
10
208.62109011815801
20
83.965633730342986
10
211.6150184659333
20
69.880308279776145
42
0.4142135623731083
10
212.80107775748488
20
69.110072369860063
10
215.50271260331317
20
69.684322583577213
42
-0.41421356237310214
10
216.68877189486471
20
68.914086673661217
10
220.78498966990139
20
49.642897194246871
42
-0.41421356237312723
10
220.01475375998538
20
48.456837902695291
10
212.6513260280737
20
46.891693021894241
42
0.41421356237312773
10
211.88109011815769
20
45.705633730342655
10
214.87501846593429
20
31.62030827977377
42
0.41421356237310297
10
216.06107775748586
20
30.850072369857738
10
222.19008623933291
20
32.152833339205749
42
-0.41421356237332441
10
223.37614553088463
20
31.382597429289
10
226.92254439287541
20
14.698102562889023
42
0.41421356237332707
10
228.10860368442718
20
13.927866652972297
10
258.70114804497558
20
20.43051269499033
42
0.41421356237308432
10
259.47138395489156
20
21.616571986541906
0
LINE
5
102
100
AcDbEntity
8
0
100
AcDbLine
10
201.34450335004303
20
24.213503768678283
30
-2.2204460492503131e-15
11
198.84956306023008
21
12.475732559872759
31
-2.2204460492503131e-15
0
SPLINE
5
103
100
AcDbEntity
8
0
100
AcDbSpline
70
0
71
3
72
8
73
4
74
0
42
0.000000001
43
0.0000000001
44
0.0000000001
40
-1
40
-1
40
-1
40
-1
40
0
40
0
40
0
40
0
10
185.32244565002321
20
27.619097264273588
30
-2.2204460492503131e-15
10
185.43727210617362
20
28.159313267242254
30
-2.2204460492503131e-15
10
185.96828893860604
20
28.504159630340023
30
-2.2204460492503131e-15
10
186.50850494157504
20
28.389333174189744
30
-2.2204460492503131e-15
0
SPLINE
5
104
100
AcDbEntity
8
0
100
AcDbSpline
70
0
71
3
72
8
73
4
74
0
42
0.000000001
43
0.0000000001
44
0.0000000001
40
-1
40
-1
40
-1
40
-1
40
0
40
0
40
0
40
0
10
200.57426744012724
20
25.399563060229951
30
-2.2204460492503131e-15
10
201.11448344309593
20
25.284736604079669
30
-2.2204460492503131e-15
10
201.45932980619335
20
24.753719771647592
30
-2.2204460492503131e-15
10
201.34450335004303
20
24.213503768678283
30
-2.2204460492503131e-15
0
LINE
5
105
100
AcDbEntity
8
0
100
AcDbLine
10
119.30549664995678
20
27.846496231321286
30
2.2204460492503131e-15
11
121.80043693976977
21
39.584267440127462
31
2.2204460492503131e-15
0
SPLINE
5
106
100
AcDbEntity
8
0
100
AcDbSpline
70
0
71
3
72
8
73
4
74
0
42
0.000000001
43
0.0000000001
44
0.0000000001
40
-1
40
-1
40
-1
40
-1
40
0
40
0
40
0
40
0
10
134.72426744012728
20
37.859563060229945
30
4.4408920985006262e-15
10
135.26448344309591
20
37.744736604079669
30
4.4408920985006262e-15
10
135.60932980619333
20
37.21371977164759
30
4.4408920985006262e-15
10
135.49450335004309
20
36.673503768678287
30
4.4408920985006262e-15
0
LINE
5
107
100
AcDbEntity
8
0
100
AcDbLine
10
47.069999999999901
20
88.050000000000153
30
2.2204460492503131e-15
11
47.069999999999901
21
100.0499999999999
31
2.2204460492503131e-15
0
SPLINE
5
108
100
AcDbEntity
8
0
100
AcDbSpline
70
0
71
3
72
8
73
4
74
0
42
0.000000001
43
0.0000000001
44
0.0000000001
40
-1
40
-1
40
-1
40
-1
40
0
40
0
40
0
40
0
10
80.619999999999948
20
28.760000000000318
30
2.2204460492503131e-15
10
80.619999999999948
20
28.207715250169368
30
2.2204460492503131e-15
10
80.172284749830879
20
27.760000000000286
30
2.2204460492503131e-15
10
79.619999999999919
20
27.760000000000282
30
2.2204460492503131e-15
0
LINE
5
109
100
AcDbEntity
8
0
100
AcDbLine
10
66.322000000004408
20
59.809999701768092
30
2.2204460492503131e-15
11
71.322000000004309
21
59.809999701768092
31
2.2204460492503131e-15
0
LINE
5
110
100
AcDbEntity
8
0
100
AcDbLine
10
355.54300000000626
20
103.96000000000002
30
-1.1102230246251565e-14
11
338.66700000000299
21
103.96000000000001
31
-1.1102230246251565e-14
0
ARC
5
111
100
AcDbEntity
8
0
100
AcDbCircle
10
86.162499999999866
20
78.860000000000113
30
4.4408920985006262e-15
40
0.99999999999997868
210
-0
220
4.0073545308619186e-17
230
1
100
AcDbArc
50
0
51
90
0
SPLINE
5
112
100
AcDbEntity
8
0
100
AcDbSpline
70
0
71
3
72
8
73
4
74
0
42
0.000000001
43
0.0000000001
44
0.0000000001
40
-1
40
-1
40
-1
40
-1
40
0
40
0
40
0
40
0
10
121.80043693976972
20
39.584267440127462
30
2.2204460492503131e-15
10
121.91526339592002
20
40.124483443096118
30
2.2204460492503131e-15
10
122.44628022835275
20
40.469329806193237
30
4.4408920985006262e-15
10
122.98649623132138
20
40.354503350042961
30
4.4408920985006262e-15
0
LINE
5
113
100
AcDbEntity
8
0
100
AcDbLine
10
61.070000000000064
20
100.0499999999999
30
2.2204460492503131e-15
11
61.070000000000064
21
88.050000000000139
31
2.2204460492503131e-15
0
LINE
5
114
100
AcDbEntity
8
0
100
AcDbLine
10
87.759999999999991
20
59.810000000000301
30
2.2204460492503131e-15
11
87.759999999999991
21
47.80999999999986
31
2.2204460492503131e-15
0
LINE
5
115
100
AcDbEntity
8
0
100
AcDbLine
10
67.619999999999834
20
41.760000000000126
30
2.2204460492503131e-15
11
79.619999999999919
21
41.760000000000126
31
2.2204460492503131e-15
0
SPLINE
5
116
100
AcDbEntity
8
0
100
AcDbSpline
70
0
71
3
72
8
73
4
74
0
42
0.000000001
43
0.0000000001
44
0.0000000001
40
-1
40
-1
40
-1
40
-1
40
0
40
0
40
0
40
0
10
331.57999999999987
20
103.96000000000001
30
-1.1102230246251565e-14
10
331.02771525016942
20
103.96000000000001
30
-1.1102230246251565e-14
10
330.57999999999981
20
104.4077152501691
30
-1.1102230246251565e-14
10
330.57999999999981
20
104.96000000000006
30
-1.1102230246251565e-14
0
LINE
5
117
100
AcDbEntity
8
0
100
AcDbLine
10
74.849999999999852
20
85.909999999999911
30
2.2204460492503131e-15
11
74.849999999999852
21
97.910000000000039
31
4.4408920985006262e-15
0
SPLINE
5
118
100
AcDbEntity
8
0
100
AcDbSpline
70
0
71
3
72
8
73
4
74
0
42
0.000000001
43
0.0000000001
44
0.0000000001
40
-1
40
-1
40
-1
40
-1
40
0
40
0
40
0
40
0
10
95.19800000000285
20
59.809999701768731
30
2.2204460492503131e-15
10
95.75028474983344
20
59.809999701768731
30
2.2204460492503131e-15
10
96.198000000002892
20
59.362284451599656
30
2.2204460492503131e-15
10
96.198000000003177
20
58.809999701769335
30
2.2204460492503131e-15
0
LINE
5
119
100
AcDbEntity
8
0
100
AcDbLine
10
66.619999999999777
20
28.760000000000314
30
2.2204460492503131e-15
11
66.619999999999806
21
40.760000000000112
31
2.2204460492503131e-15
0
SPLINE
5
120
100
AcDbEntity
8
0
100
AcDbSpline
70
0
71
3
72
8
73
4
74
0
42
0.000000001
43
0.0000000001
44
0.0000000001
40
-1
40
-1
40
-1
40
-1
40
0
40
0
40
0
40
0
10
121.80043693976977
20
39.584267440127462
30
2.2204460492503131e-15
10
121.91526339592005
20
40.124483443096118
30
2.2204460492503131e-15
10
122.44628022835275
20
40.469329806193244
30
4.4408920985006262e-15
10
122.98649623132142
20
40.354503350042961
30
4.4408920985006262e-15
0
LINE
5
121
100
AcDbEntity
8
0
100
AcDbLine
10
361.00800000000572
20
45.809999701767538
30
-1.1102230246251565e-14
11
361.00800000000589
21
58.80999970176866
31
-1.1102230246251565e-14
0
SPLINE
5
122
100
AcDbEntity
8
0
100
AcDbSpline
70
0
71
3
72
8
73
4
74
0
42
0.000000001
43
0.0000000001
44
0.0000000001
40
-1
40
-1
40
-1
40
-1
40
0
40
0
40
0
40
0
10
74.75999999999992
20
46.809999999999846
30
2.2204460492503131e-15
10
74.207715250169286
20
46.809999999999846
30
2.2204460492503131e-15
10
73.759999999999877
20
47.257715250168921
30
2.2204460492503131e-15
10
73.759999999999877
20
47.809999999999881
30
2.2204460492503131e-15
0
SPLINE
5
123
100
AcDbEntity
8
0
100
AcDbSpline
70
0
71
3
72
8
73
4
74
0
42
0.000000001
43
0.0000000001
44
0.0000000001
40
-1
40
-1
40
-1
40
-1
40
0
40
0
40
0
40
0
10
88.850000000000023
20
85.909999999999911
30
4.4408920985006262e-15
10
88.850000000000023
20
85.357715250169292
30
4.4408920985006262e-15
10
88.402284749830613
20
84.91000000000021
30
4.4408920985006262e-15
10
87.849999999999994
20
84.909999999999883
30
4.4408920985006262e-15
0
SPLINE
5
124
100
AcDbEntity
8
0
100
AcDbSpline
70
0
71
3
72
8
73
4
74
0
42
0.000000001
43
0.0000000001
44
0.0000000001
40
-1
40
-1
40
-1
40
-1
40
0
40
0
40
0
40
0
10
66.322000000004735
20
44.809999701768191
30
2.2204460492503131e-15
10
65.769715250174102
20
44.809999701768191
30
2.2204460492503131e-15
10
65.322000000004692
20
45.257714951937288
30
2.2204460492503131e-15
10
65.322000000004692
20
45.809999701768248
30
2.2204460492503131e-15
0
LINE
5
125
100
AcDbEntity
8
0
100
AcDbLine
10
61.070000000000064
20
100.0499999999999
30
2.2204460492503131e-15
11
61.070000000000064
21
88.050000000000139
31
2.2204460492503131e-15
0
LINE
5
126
100
AcDbEntity
8
0
100
AcDbLine
10
122.98649623132142
20
40.354503350042961
30
4.4408920985006262e-15
11
134.72426744012728
21
37.859563060229952
31
4.4408920985006262e-15
0
LINE
5
127
100
AcDbEntity
8
0
100
AcDbLine
10
361.00800000000572
20
45.809999701767538
30
-1.1102230246251565e-14
11
361.00800000000589
21
58.80999970176866
31
-1.1102230246251565e-14
0
LINE
5
128
100
AcDbEntity
8
0
100
AcDbLine
10
66.619999999999777
20
28.760000000000314
30
2.2204460492503131e-15
11
66.619999999999806
21
40.760000000000112
31
2.2204460492503131e-15
0
SPLINE
5
129
100
AcDbEntity
8
0
100
AcDbSpline
70
0
71
3
72
8
73
4
74
0
42
0.000000001
43
0.0000000001
44
0.0000000001
40
-1
40
-1
40
-1
40
-1
40
0
40
0
40
0
40
0
10
68.399999999999778
20
78.86000000000017
30
2.2204460492503131e-15
10
68.400000000000105
20
79.412284749830789
30
2.2204460492503131e-15
10
68.847715250169188
20
79.859999999999872
30
2.2204460492503131e-15
10
69.399999999999835
20
79.860000000000198
30
2.2204460492503131e-15
0
SPLINE
5
130
100
AcDbEntity
8
0
100
AcDbSpline
70
0
71
3
72
8
73
4
74
0
42
0.000000001
43
0.0000000001
44
0.0000000001
40
-1
40
-1
40
-1
40
-1
40
0
40
0
40
0
40
0
10
338.66700000000299
20
102.95999970176621
30
-1.1102230246251565e-14
10
338.6670000000023
20
102.4077149519362
30
-1.1102230246251565e-14
10
338.21928474983326
20
101.95999970176774
30
-1.1102230246251565e-14
10
337.66700000000299
20
101.95999970176803
30
-1.1102230246251565e-14
0
SPLINE
5
131
100
AcDbEntity
8
0
100
AcDbSpline
70
0
71
3
72
8
73
4
74
0
42
0.000000001
43
0.0000000001
44
0.0000000001
40
-1
40
-1
40
-1
40
-1
40
0
40
0
40
0
40
0
10
65.322000000004721
20
58.809999701768078
30
2.2204460492503131e-15
10
65.322000000004721
20
59.362284451599017
30
2.2204460492503131e-15
10
65.769715250173817
20
59.809999701768092
30
2.2204460492503131e-15
10
66.322000000004408
20
59.809999701768092
30
2.2204460492503131e-15
0
SPLINE
5
132
100
AcDbEntity
8
0
100
AcDbSpline
70
0
71
3
72
8
73
4
74
0
42
0.000000001
43
0.0000000001
44
0.0000000001
40
-1
40
-1
40
-1
40
-1
40
0
40
0
40
0
40
0
10
95.19800000000285
20
59.809999701768746
30
2.2204460492503131e-15
10
95.75028474983344
20
59.809999701768746
30
2.2204460492503131e-15
10
96.198000000002892
20
59.362284451599656
30
2.2204460492503131e-15
10
96.198000000003219
20
58.809999701769357
30
2.2204460492503131e-15
0
LINE
5
133
100
AcDbEntity
8
0
100
AcDbLine
10
355.54300000000626
20
103.96000000000002
30
-1.1102230246251565e-14
11
338.66700000000299
21
103.96000000000001
31
-1.1102230246251565e-14
0
LINE
5
134
100
AcDbEntity
8
0
100
AcDbLine
10
86.162499999999824
20
65.860000000000042
30
2.2204460492503131e-15
11
69.399999999999835
21
65.860000000000042
31
2.2204460492503131e-15
0
SPLINE
5
135
100
AcDbEntity
8
0
100
AcDbSpline
70
0
71
3
72
8
73
4
74
0
42
0.000000001
43
0.0000000001
44
0.0000000001
40
-1
40
-1
40
-1
40
-1
40
0
40
0
40
0
40
0
10
134.72426744012728
20
37.859563060229952
30
4.4408920985006262e-15
10
135.26448344309597
20
37.744736604079669
30
2.2204460492503131e-15
10
135.60932980619339
20
37.213719771647611
30
2.2204460492503131e-15
10
135.49450335004315
20
36.673503768678287
30
4.4408920985006262e-15
0
SPLINE
5
136
100
AcDbEntity
8
0
100
AcDbSpline
70
0
71
3
72
8
73
4
74
0
42
0.000000001
43
0.0000000001
44
0.0000000001
40
-1
40
-1
40
-1
40
-1
40
0
40
0
40
0
40
0
10
66.619999999999806
20
40.760000000000112
30
2.2204460492503131e-15
10
66.619999999999806
20
41.312284749831051
30
2.2204460492503131e-15
10
67.067715250169186
20
41.760000000000126
30
2.2204460492503131e-15
10
67.619999999999834
20
41.760000000000126
30
2.2204460492503131e-15
0
SPLINE
5
137
100
AcDbEntity
8
0
100
AcDbSpline
70
0
71
3
72
8
73
4
74
0
42
0.000000001
43
0.0000000001
44
0.0000000001
40
-1
40
-1
40
-1
40
-1
40
0
40
0
40
0
40
0
10
67.619999999999834
20
27.760000000000282
30
2.2204460492503131e-15
10
67.067715250169186
20
27.760000000000282
30
2.2204460492503131e-15
10
66.620000000000132
20
28.207715250169365
30
2.2204460492503131e-15
10
66.619999999999806
20
28.760000000000314
30
2.2204460492503131e-15
0
SPLINE
5
138
100
AcDbEntity
8
0
100
AcDbSpline
70
0
71
3
72
8
73
4
74
0
42
0.000000001
43
0.0000000001
44
0.0000000001
40
-1
40
-1
40
-1
40
-1
40
0
40
0
40
0
40
0
10
72.322000000003683
20
45.809999701768263
30
2.2204460492503131e-15
10
72.322000000003683
20
45.257714951937288
30
2.2204460492503131e-15
10
71.874284749834601
20
44.809999701768213
30
2.2204460492503131e-15
10
71.322000000003953
20
44.809999701768213
30
2.2204460492503131e-15
0
LINE
5
139
100
AcDbEntity
8
0
100
AcDbLine
10
71.322000000003953
20
44.809999701768213
30
2.2204460492503131e-15
11
66.322000000004735
21
44.809999701768213
31
2.2204460492503131e-15
0
LINE
5
140
100
AcDbEntity
8
0
100
AcDbLine
10
80.619999999999948
20
40.760000000000105
30
2.2204460492503131e-15
11
80.619999999999948
21
28.760000000000311
31
2.2204460492503131e-15
0
SPLINE
5
141
100
AcDbEntity
8
0
100
AcDbSpline
70
0
71
3
72
8
73
4
74
0
42
0.000000001
43
0.0000000001
44
0.0000000001
40
-1
40
-1
40
-1
40
-1
40
0
40
0
40
0
40
0
10
71.322000000004309
20
59.809999701768092
30
2.2204460492503131e-15
10
71.874284749834914
20
59.809999701768092
30
2.2204460492503131e-15
10
72.322000000003683
20
59.362284451599017
30
2.2204460492503131e-15
10
72.322000000003683
20
58.809999701768078
30
2.2204460492503131e-15
0
LINE
5
142
100
AcDbEntity
8
0
100
AcDbLine
10
79.619999999999919
20
27.760000000000282
30
2.2204460492503131e-15
11
67.619999999999834
21
27.760000000000282
31
2.2204460492503131e-15
0
LINE
5
143
100
AcDbEntity
8
0
100
AcDbLine
10
336.04500000000019
20
47.809999999999832
30
-4.4408920985006262e-15
11
336.04500000000019
21
59.810000000000265
31
-1.1102230246251565e-14
0
SPLINE
5
144
100
AcDbEntity
8
0
100
AcDbSpline
70
0
71
3
72
8
73
4
74
0
42
0.000000001
43
0.0000000001
44
0.0000000001
40
-1
40
-1
40
-1
40
-1
40
0
40
0
40
0
40
0
10
277.69649623132136
20
24.165496649956598
30
-6.6613381477509392e-15
10
277.15628022835267
20
24.050670193806308
30
-6.6613381477509392e-15
10
276.62526339592011
20
24.39551655690407
30
-6.6613381477509392e-15
10
276.51043693976976
20
24.935732559872733
30
-6.6613381477509392e-15
0
LINE
5
145
100
AcDbEntity
8
0
100
AcDbLine
10
331.57999999999987
20
117.95999999999987
30
-1.1102230246251565e-14
11
362.63000000000028
21
117.95999999999985
31
-1.1102230246251565e-14
0
SPLINE
5
146
100
AcDbEntity
8
0
100
AcDbSpline
70
0
71
3
72
8
73
4
74
0
42
0.000000001
43
0.0000000001
44
0.0000000001
40
-1
40
-1
40
-1
40
-1
40
0
40
0
40
0
40
0
10
71.322000000004266
20
59.809999701768092
30
2.2204460492503131e-15
10
71.874284749834885
20
59.809999701768092
30
2.2204460492503131e-15
10
72.322000000003641
20
59.362284451598995
30
2.2204460492503131e-15
10
72.322000000003641
20
58.809999701768056
30
2.2204460492503131e-15
0
LINE
5
147
100
AcDbEntity
8
0
100
AcDbLine
10
276.51043693976976
20
24.935732559872733
30
-6.6613381477509392e-15
11
274.01549664995662
21
36.673503768678259
31
-6.6613381477509392e-15
0
LINE
5
148
100
AcDbEntity
8
0
100
AcDbLine
10
69.399999999999835
20
79.860000000000198
30
2.2204460492503131e-15
11
86.162499999999866
21
79.860000000000127
31
2.2204460492503131e-15
0
LINE
5
149
100
AcDbEntity
8
0
100
AcDbLine
10
87.162499999999852
20
78.860000000000113
30
4.4408920985006262e-15
11
87.16249999999981
21
66.860000000000042
31
4.4408920985006262e-15
0
ARC
5
150
100
AcDbEntity
8
0
100
AcDbCircle
10
86.162499999999824
20
66.860000000000014
30
2.2204460492503131e-15
40
0.99999999999997868
210
4.1199682554449175e-17
220
0
230
1
100
AcDbArc
50
-90
51
0
0
SPLINE
5
151
100
AcDbEntity
8
0
100
AcDbSpline
70
0
71
3
72
8
73
4
74
0
42
0.000000001
43
0.0000000001
44
0.0000000001
40
-1
40
-1
40
-1
40
-1
40
0
40
0
40
0
40
0
10
286.52350376867849
20
40.354503350043565
30
-6.6613381477509392e-15
10
287.06371977164713
20
40.469329806193201
30
-6.6613381477509392e-15
10
287.5947366040798
20
40.124483443096082
30
-6.6613381477509392e-15
10
287.7095630602301
20
39.584267440127419
30
-6.6613381477509392e-15
0
SPLINE
5
152
100
AcDbEntity
8
0
100
AcDbSpline
70
0
71
3
72
8
73
4
74
0
42
0.000000001
43
0.0000000001
44
0.0000000001
40
-1
40
-1
40
-1
40
-1
40
0
40
0
40
0
40
0
10
74.759999999999877
20
46.809999999999832
30
2.2204460492503131e-15
10
74.207715250169244
20
46.809999999999832
30
2.2204460492503131e-15
10
73.759999999999877
20
47.257715250168921
30
2.2204460492503131e-15
10
73.759999999999877
20
47.809999999999881
30
2.2204460492503131e-15
0
ARC
5
153
100
AcDbEntity
8
0
100
AcDbCircle
10
86.162499999999909
20
78.860000000000113
30
4.4408920985006262e-15
40
0.99999999999994316
210
-0
220
4.0073545308619186e-17
230
1
100
AcDbArc
50
0
51
90.000000000002444
0
LINE
5
154
100
AcDbEntity
8
0
100
AcDbLine
10
43.999999999999844
20
82.000000000000099
30
2.2204460492503131e-15
11
56.00000000000005
21
82.000000000000085
31
2.2204460492503131e-15
0
LINE
5
155
100
AcDbEntity
8
0
100
AcDbLine
10
86.162499999999824
20
65.860000000000042
30
2.2204460492503131e-15
11
69.399999999999835
21
65.860000000000042
31
2.2204460492503131e-15
0
SPLINE
5
156
100
AcDbEntity
8
0
100
AcDbSpline
70
0
71
3
72
8
73
4
74
0
42
0.000000001
43
0.0000000001
44
0.0000000001
40
-1
40
-1
40
-1
40
-1
40
0
40
0
40
0
40
0
10
66.619999999999806
20
40.760000000000112
30
2.2204460492503131e-15
10
66.619999999999806
20
41.312284749831072
30
2.2204460492503131e-15
10
67.067715250169186
20
41.760000000000147
30
2.2204460492503131e-15
10
67.619999999999834
20
41.760000000000147
30
2.2204460492503131e-15
0
LINE
5
157
100
AcDbEntity
8
0
100
AcDbLine
10
331.57999999999987
20
117.95999999999987
30
-1.1102230246251565e-14
11
362.63000000000028
21
117.95999999999985
31
-1.1102230246251565e-14
0
SPLINE
5
158
100
AcDbEntity
8
0
100
AcDbSpline
70
0
71
3
72
8
73
4
74
0
42
0.000000001
43
0.0000000001
44
0.0000000001
40
-1
40
-1
40
-1
40
-1
40
0
40
0
40
0
40
0
10
330.57999999999964
20
116.96000000000018
30
-1.1102230246251565e-14
10
330.57999999999964
20
117.51228474983074
30
-1.1102230246251565e-14
10
331.02771525016942
20
117.95999999999987
30
-1.1102230246251565e-14
10
331.5799999999997
20
117.95999999999987
30
-1.1102230246251565e-14
0
LINE
5
159
100
AcDbEntity
8
0
100
AcDbLine
10
330.57999999999981
20
104.96000000000006
30
-1.1102230246251565e-14
11
330.57999999999981
21
116.96000000000018
31
-1.1102230246251565e-14
0
LINE
5
160
100
AcDbEntity
8
0
100
AcDbLine
10
276.51043693976976
20
24.935732559872733
30
-6.6613381477509392e-15
11
274.01549664995662
21
36.673503768678259
31
-6.6613381477509392e-15
0
SPLINE
5
161
100
AcDbEntity
8
0
100
AcDbSpline
70
0
71
3
72
8
73
4
74
0
42
0.000000001
43
0.0000000001
44
0.0000000001
40
-1
40
-1
40
-1
40
-1
40
0
40
0
40
0
40
0
10
330.57999999999981
20
116.96000000000018
30
-1.1102230246251565e-14
10
330.57999999999981
20
117.51228474983081
30
-1.1102230246251565e-14
10
331.02771525016942
20
117.95999999999987
30
-1.1102230246251565e-14
10
331.57999999999987
20
117.95999999999987
30
-1.1102230246251565e-14
0
SPLINE
5
162
100
AcDbEntity
8
0
100
AcDbSpline
70
0
71
3
72
8
73
4
74
0
42
0.000000001
43
0.0000000001
44
0.0000000001
40
-1
40
-1
40
-1
40
-1
40
0
40
0
40
0
40
0
10
274.01549664995684
20
36.673503768678259
30
-6.6613381477509392e-15
10
273.90067019380643
20
37.213719771647582
30
-6.6613381477509392e-15
10
274.24551655690357
20
37.744736604079648
30
-6.6613381477509392e-15
10
274.78573255987226
20
37.859563060229931
30
-6.6613381477509392e-15
0
SPLINE
5
163
100
AcDbEntity
8
0
100
AcDbSpline
70
0
71
3
72
8
73
4
74
0
42
0.000000001
43
0.0000000001
44
0.0000000001
40
-1
40
-1
40
-1
40
-1
40
0
40
0
40
0
40
0
10
362.54300000000387
20
102.9599997017681
30
-1.1102230246251565e-14
10
362.54300000000222
20
102.40771495193746
30
-1.1102230246251565e-14
10
362.09528474983347
20
101.95999970176869
30
-1.1102230246251565e-14
10
361.54300000000217
20
101.95999970176806
30
-1.1102230246251565e-14
0
LINE
5
164
100
AcDbEntity
8
0
100
AcDbLine
10
359.56999999999994
20
59.810000000000265
30
-1.1102230246251565e-14
11
359.56999999999994
21
47.809999999999818
31
-1.1102230246251565e-14
0
SPLINE
5
165
100
AcDbEntity
8
0
100
AcDbSpline
70
0
71
3
72
8
73
4
74
0
42
0.000000001
43
0.0000000001
44
0.0000000001
40
-1
40
-1
40
-1
40
-1
40
0
40
0
40
0
40
0
10
132.99956306023012
20
24.935732559872761
30
2.2204460492503131e-15
10
132.88473660407979
20
24.395516556904102
30
2.2204460492503131e-15
10
132.35371977164743
20
24.050670193806344
30
2.2204460492503131e-15
10
131.81350376867843
20
24.165496649956623
30
2.2204460492503131e-15
0
LINE
5
166
100
AcDbEntity
8
0
100
AcDbLine
10
68.399999999999778
20
66.860000000000056
30
2.2204460492503131e-15
11
68.399999999999778
21
78.860000000000184
31
2.2204460492503131e-15
0
LINE
5
167
100
AcDbEntity
8
0
100
AcDbLine
10
274.7857325598722
20
37.859563060229931
30
-6.6613381477509392e-15
11
286.52350376867849
21
40.354503350043565
31
-6.6613381477509392e-15
0
LINE
5
168
100
AcDbEntity
8
0
100
AcDbLine
10
337.66700000000299
20
101.95999970176803
30
-1.1102230246251565e-14
11
332.66700000000401
21
101.95999970176803
31
-1.1102230246251565e-14
0
LINE
5
169
100
AcDbEntity
8
0
100
AcDbLine
10
56.00000000000005
20
67.999999999999915
30
2.2204460492503131e-15
11
43.999999999999844
21
67.999999999999915
31
2.2204460492503131e-15
0
LINE
5
170
100
AcDbEntity
8
0
100
AcDbLine
10
87.162499999999852
20
78.860000000000113
30
4.4408920985006262e-15
11
87.16249999999981
21
66.860000000000042
31
4.4408920985006262e-15
0
LINE
5
171
100
AcDbEntity
8
0
100
AcDbLine
10
65.322000000004692
20
45.809999701768263
30
2.2204460492503131e-15
11
65.322000000004721
21
58.809999701768078
31
2.2204460492503131e-15
0
LINE
5
172
100
AcDbEntity
8
0
100
AcDbLine
10
331.66700000000469
20
102.9599997017678
30
-1.1102230246251565e-14
11
331.66700000000469
21
103.96000000000001
31
-1.1102230246251565e-14
0
SPLINE
5
173
100
AcDbEntity
8
0
100
AcDbSpline
70
0
71
3
72
8
73
4
74
0
42
0.000000001
43
0.0000000001
44
0.0000000001
40
-1
40
-1
40
-1
40
-1
40
0
40
0
40
0
40
0
10
200.57426744012724
20
25.399563060229941
30
-2.2204460492503131e-15
10
201.11448344309593
20
25.284736604079662
30
-2.2204460492503131e-15
10
201.4593298061933
20
24.753719771647592
30
-2.2204460492503131e-15
10
201.34450335004303
20
24.213503768678283
30
-2.2204460492503131e-15
0
SPLINE
5
174
100
AcDbEntity
8
0
100
AcDbSpline
70
0
71
3
72
8
73
4
74
0
42
0.000000001
43
0.0000000001
44
0.0000000001
40
-1
40
-1
40
-1
40
-1
40
0
40
0
40
0
40
0
10
89.198000000006175
20
58.809999701768056
30
2.2204460492503131e-15
10
89.198000000006175
20
59.362284451599656
30
2.2204460492503131e-15
10
89.645715250175542
20
59.809999701768731
30
2.2204460492503131e-15
10
90.198000000006459
20
59.809999701768731
30
2.2204460492503131e-15
0
SPLINE
5
175
100
AcDbEntity
8
0
100
AcDbSpline
70
0
71
3
72
8
73
4
74
0
42
0.000000001
43
0.0000000001
44
0.0000000001
40
-1
40
-1
40
-1
40
-1
40
0
40
0
40
0
40
0
10
90.19800000000555
20
44.809999701768191
30
2.2204460492503131e-15
10
89.645715250174874
20
44.809999701768191
30
2.2204460492503131e-15
10
89.198000000006175
20
45.257714951937288
30
2.2204460492503131e-15
10
89.198000000005891
20
45.809999701768248
30
2.2204460492503131e-15
0
LINE
5
176
100
AcDbEntity
8
0
100
AcDbLine
10
186.50850494157504
20
28.389333174189744
30
-2.2204460492503131e-15
11
200.5742674401273
21
25.399563060229941
31
-2.2204460492503131e-15
0
LINE
5
177
100
AcDbEntity
8
0
100
AcDbLine
10
119.30549664995678
20
27.846496231321286
30
2.2204460492503131e-15
11
121.80043693976977
21
39.584267440127462
31
2.2204460492503131e-15
0
SPLINE
5
178
100
AcDbEntity
8
0
100
AcDbSpline
70
0
71
3
72
8
73
4
74
0
42
0.000000001
43
0.0000000001
44
0.0000000001
40
-1
40
-1
40
-1
40
-1
40
0
40
0
40
0
40
0
10
75.849999999999909
20
84.91000000000021
30
2.2204460492503131e-15
10
75.297715250169261
20
84.91000000000021
30
2.2204460492503131e-15
10
74.849999999999852
20
85.357715250169292
30
2.2204460492503131e-15
10
74.849999999999852
20
85.909999999999911
30
2.2204460492503131e-15
0
SPLINE
5
179
100
AcDbEntity
8
0
100
AcDbSpline
70
0
71
3
72
8
73
4
74
0
42
0.000000001
43
0.0000000001
44
0.0000000001
40
-1
40
-1
40
-1
40
-1
40
0
40
0
40
0
40
0
10
87.85000000000008
20
98.910000000000053
30
-2.2204460492503131e-15
10
88.40228474983067
20
98.910000000000053
30
-2.2204460492503131e-15
10
88.85000000000008
20
98.462284749830957
30
-2.2204460492503131e-15
10
88.85000000000008
20
97.910000000000039
30
-2.2204460492503131e-15
0
SPLINE
5
180
100
AcDbEntity
8
0
100
AcDbSpline
70
0
71
3
72
8
73
4
74
0
42
0.000000001
43
0.0000000001
44
0.0000000001
40
-1
40
-1
40
-1
40
-1
40
0
40
0
40
0
40
0
10
56.00000000000005
20
82.000000000000114
30
2.2204460492503131e-15
10
56.552284749830655
20
82.000000000000114
30
2.2204460492503131e-15
10
57.000000000000064
20
81.552284749830704
30
2.2204460492503131e-15
10
57.000000000000064
20
81.000000000000071
30
2.2204460492503131e-15
0
LINE
5
181
100
AcDbEntity
8
0
100
AcDbLine
10
88.250000000000057
20
116.96000000000028
30
-2.2204460492503131e-15
11
88.250000000000057
21
104.96000000000009
31
-2.2204460492503131e-15
0
LINE
5
182
100
AcDbEntity
8
0
100
AcDbLine
10
75.849999999999909
20
98.910000000000053
30
4.4408920985006262e-15
11
87.849999999999994
21
98.910000000000053
31
0
0
SPLINE
5
183
100
AcDbEntity
8
0
100
AcDbSpline
70
0
71
3
72
8
73
4
74
0
42
0.000000001
43
0.0000000001
44
0.0000000001
40
-1
40
-1
40
-1
40
-1
40
0
40
0
40
0
40
0
10
57.000000000000064
20
68.999999999999943
30
2.2204460492503131e-15
10
57.000000000000064
20
68.447715250169352
30
2.2204460492503131e-15
10
56.552284749830655
20
68.000000000000227
30
2.2204460492503131e-15
10
56.00000000000005
20
67.999999999999915
30
2.2204460492503131e-15
0
SPLINE
5
184
100
AcDbEntity
8
0
100
AcDbSpline
70
0
71
3
72
8
73
4
74
0
42
0.000000001
43
0.0000000001
44
0.0000000001
40
-1
40
-1
40
-1
40
-1
40
0
40
0
40
0
40
0
10
51.22999999999994
20
119.10000000000014
30
4.4408920985006262e-15
10
51.22999999999994
20
119.65228474983076
30
4.4408920985006262e-15
10
51.677715250169349
20
120.10000000000016
30
4.4408920985006262e-15
10
52.22999999999999
20
120.10000000000016
30
4.4408920985006262e-15
0
SPLINE
5
185
100
AcDbEntity
8
0
100
AcDbSpline
70
0
71
3
72
8
73
4
74
0
42
0.000000001
43
0.0000000001
44
0.0000000001
40
-1
40
-1
40
-1
40
-1
40
0
40
0
40
0
40
0
10
75.849999999999909
20
84.91000000000021
30
2.2204460492503131e-15
10
75.297715250169261
20
84.91000000000021
30
2.2204460492503131e-15
10
74.849999999999881
20
85.357715250169292
30
2.2204460492503131e-15
10
74.849999999999881
20
85.909999999999968
30
2.2204460492503131e-15
0
SPLINE
5
186
100
AcDbEntity
8
0
100
AcDbSpline
70
0
71
3
72
8
73
4
74
0
42
0.000000001
43
0.0000000001
44
0.0000000001
40
-1
40
-1
40
-1
40
-1
40
0
40
0
40
0
40
0
10
52.22999999999999
20
106.10000000000001
30
2.2204460492503131e-15
10
51.67771525016903
20
106.10000000000001
30
2.2204460492503131e-15
10
51.229999999999976
20
106.54771525016935
30
2.2204460492503131e-15
10
51.229999999999976
20
107.10000000000002
30
2.2204460492503131e-15
0
LINE
5
187
100
AcDbEntity
8
0
100
AcDbLine
10
48.069999999999915
20
101.04999999999991
30
2.2204460492503131e-15
11
60.070000000000086
21
101.04999999999991
31
2.2204460492503131e-15
0
SPLINE
5
188
100
AcDbEntity
8
0
100
AcDbSpline
70
0
71
3
72
8
73
4
74
0
42
0.000000001
43
0.0000000001
44
0.0000000001
40
-1
40
-1
40
-1
40
-1
40
0
40
0
40
0
40
0
10
349.03999999999985
20
97.909999999999982
30
-1.1102230246251565e-14
10
349.03999999999985
20
98.462284749830914
30
-1.1102230246251565e-14
10
349.48771525016878
20
98.910000000000039
30
-1.1102230246251565e-14
10
350.03999999999991
20
98.910000000000039
30
-1.1102230246251565e-14
0
SPLINE
5
189
100
AcDbEntity
8
0
100
AcDbSpline
70
0
71
3
72
8
73
4
74
0
42
0.000000001
43
0.0000000001
44
0.0000000001
40
-1
40
-1
40
-1
40
-1
40
0
40
0
40
0
40
0
10
358.57000000000016
20
60.810000000000279
30
-1.1102230246251565e-14
10
359.12228474983095
20
60.810000000000279
30
-1.1102230246251565e-14
10
359.56999999999994
20
60.362284749830565
30
-1.1102230246251565e-14
10
359.56999999999994
20
59.810000000000265
30
-1.1102230246251565e-14
0
SPLINE
5
190
100
AcDbEntity
8
0
100
AcDbSpline
70
0
71
3
72
8
73
4
74
0
42
0.000000001
43
0.0000000001
44
0.0000000001
40
-1
40
-1
40
-1
40
-1
40
0
40
0
40
0
40
0
10
47.069999999999901
20
100.0499999999999
30
2.2204460492503131e-15
10
47.069999999999901
20
100.60228474983086
30
2.2204460492503131e-15
10
47.517715250169275
20
101.04999999999991
30
2.2204460492503131e-15
10
48.069999999999915
20
101.04999999999991
30
2.2204460492503131e-15
0
SPLINE
5
191
100
AcDbEntity
8
0
100
AcDbSpline
70
0
71
3
72
8
73
4
74
0
42
0.000000001
43
0.0000000001
44
0.0000000001
40
-1
40
-1
40
-1
40
-1
40
0
40
0
40
0
40
0
10
363.62999999999988
20
104.95999999999974
30
-1.1102230246251565e-14
10
363.62999999999988
20
104.4077152501691
30
-1.1102230246251565e-14
10
363.18228474983073
20
103.96000000000001
30
-1.1102230246251565e-14
10
362.62999999999965
20
103.96000000000001
30
-1.1102230246251565e-14
0
SPLINE
5
192
100
AcDbEntity
8
0
100
AcDbSpline
70
0
71
3
72
8
73
4
74
0
42
0.000000001
43
0.0000000001
44
0.0000000001
40
-1
40
-1
40
-1
40
-1
40
0
40
0
40
0
40
0
10
75.249999999999886
20
103.96000000000004
30
-4.4408920985006262e-15
10
74.697715250169267
20
103.96000000000004
30
-2.2204460492503131e-15
10
74.249999999999858
20
104.40771525016913
30
-2.2204460492503131e-15
10
74.249999999999858
20
104.96000000000012
30
-4.4408920985006262e-15
0
LINE
5
193
100
AcDbEntity
8
0
100
AcDbLine
10
331.66700000000469
20
102.9599997017678
30
-1.1102230246251565e-14
11
331.66700000000469
21
103.96000000000001
31
-1.1102230246251565e-14
0
SPLINE
5
194
100
AcDbEntity
8
0
100
AcDbSpline
70
0
71
3
72
8
73
4
74
0
42
0.000000001
43
0.0000000001
44
0.0000000001
40
-1
40
-1
40
-1
40
-1
40
0
40
0
40
0
40
0
10
68.399999999999821
20
78.860000000000184
30
2.2204460492503131e-15
10
68.400000000000148
20
79.412284749830803
30
2.2204460492503131e-15
10
68.84771525016923
20
79.859999999999886
30
2.2204460492503131e-15
10
69.399999999999835
20
79.860000000000198
30
2.2204460492503131e-15
0
SPLINE
5
195
100
AcDbEntity
8
0
100
AcDbSpline
70
0
71
3
72
8
73
4
74
0
42
0.000000001
43
0.0000000001
44
0.0000000001
40
-1
40
-1
40
-1
40
-1
40
0
40
0
40
0
40
0
10
87.85000000000008
20
98.910000000000053
30
-2.2204460492503131e-15
10
88.40228474983067
20
98.910000000000053
30
-2.2204460492503131e-15
10
88.85000000000008
20
98.462284749830999
30
-2.2204460492503131e-15
10
88.85000000000008
20
97.910000000000039
30
-2.2204460492503131e-15
0
SPLINE
5
196
100
AcDbEntity
8
0
100
AcDbSpline
70
0
71
3
72
8
73
4
74
0
42
0.000000001
43
0.0000000001
44
0.0000000001
40
-1
40
-1
40
-1
40
-1
40
0
40
0
40
0
40
0
10
358.56999999999999
20
60.810000000000279
30
-1.1102230246251565e-14
10
359.12228474983078
20
60.810000000000279
30
-1.1102230246251565e-14
10
359.56999999999994
20
60.362284749830565
30
-1.1102230246251565e-14
10
359.56999999999994
20
59.81000000000023
30
-1.1102230246251565e-14
0
SPLINE
5
197
100
AcDbEntity
8
0
100
AcDbSpline
70
0
71
3
72
8
73
4
74
0
42
0.000000001
43
0.0000000001
44
0.0000000001
40
-1
40
-1
40
-1
40
-1
40
0
40
0
40
0
40
0
10
332.66700000000401
20
101.95999970176803
30
-1.1102230246251565e-14
10
332.11471525017373
20
101.9599997017684
30
-1.1102230246251565e-14
10
331.66700000000469
20
102.40771495193715
30
-1.1102230246251565e-14
10
331.66700000000469
20
102.9599997017678
30
-1.1102230246251565e-14
0
LINE
5
198
100
AcDbEntity
8
0
100
AcDbLine
10
347.16000000000014
20
79.860000000000156
30
-1.1102230246251565e-14
11
359.15999999999997
21
79.86000000000017
31
-1.1102230246251565e-14
0
SPLINE
5
199
100
AcDbEntity
8
0
100
AcDbSpline
70
0
71
3
72
8
73
4
74
0
42
0.000000001
43
0.0000000001
44
0.0000000001
40
-1
40
-1
40
-1
40
-1
40
0
40
0
40
0
40
0
10
42.999999999999829
20
81.000000000000071
30
2.2204460492503131e-15
10
42.999999999999829
20
81.552284749831017
30
2.2204460492503131e-15
10
43.447715250169239
20
82.000000000000099
30
2.2204460492503131e-15
10
43.999999999999844
20
82.000000000000099
30
2.2204460492503131e-15
0
SPLINE
5
200
100
AcDbEntity
8
0
100
AcDbSpline
70
0
71
3
72
8
73
4
74
0
42
0.000000001
43
0.0000000001
44
0.0000000001
40
-1
40
-1
40
-1
40
-1
40
0
40
0
40
0
40
0
10
344.72199999999361
20
67.860000298231924
30
-1.1102230246251565e-14
10
344.72199999999361
20
67.307715548400665
30
-1.1102230246251565e-14
10
344.27428474982469
20
66.860000298231256
30
-1.1102230246251565e-14
10
343.72199999999305
20
66.860000298231256
30
-1.1102230246251565e-14
0
SPLINE
5
201
100
AcDbEntity
8
0
100
AcDbSpline
70
0
71
3
72
8
73
4
74
0
42
0.000000001
43
0.0000000001
44
0.0000000001
40
-1
40
-1
40
-1
40
-1
40
0
40
0
40
0
40
0
10
363.03999999999985
20
85.909999999999883
30
-1.1102230246251565e-14
10
363.03999999999985
20
85.35771525016925
30
-1.1102230246251565e-14
10
362.59228474983075
20
84.90999999999984
30
-1.1102230246251565e-14
10
362.03999999999979
20
84.909999999999854
30
-1.1102230246251565e-14
0
SPLINE
5
202
100
AcDbEntity
8
0
100
AcDbSpline
70
0
71
3
72
8
73
4
74
0
42
0.000000001
43
0.0000000001
44
0.0000000001
40
-1
40
-1
40
-1
40
-1
40
0
40
0
40
0
40
0
10
48.069999999999951
20
87.050000000000139
30
2.2204460492503131e-15
10
47.51771525016899
20
87.050000000000139
30
2.2204460492503131e-15
10
47.069999999999936
20
87.497715250169222
30
2.2204460492503131e-15
10
47.069999999999936
20
88.050000000000182
30
2.2204460492503131e-15
0
SPLINE
5
203
100
AcDbEntity
8
0
100
AcDbSpline
70
0
71
3
72
8
73
4
74
0
42
0.000000001
43
0.0000000001
44
0.0000000001
40
-1
40
-1
40
-1
40
-1
40
0
40
0
40
0
40
0
10
360.15999999999991
20
66.860000000000014
30
-1.1102230246251565e-14
10
360.15999999999991
20
66.307715250169053
30
-1.1102230246251565e-14
10
359.71228474983081
20
65.859999999999985
30
-1.1102230246251565e-14
10
359.15999999999997
20
65.859999999999985
30
-1.1102230246251565e-14
0
SPLINE
5
204
100
AcDbEntity
8
0
100
AcDbSpline
70
0
71
3
72
8
73
4
74
0
42
0.000000001
43
0.0000000001
44
0.0000000001
40
-1
40
-1
40
-1
40
-1
40
0
40
0
40
0
40
0
10
64.230000000000047
20
120.10000000000016
30
-2.2204460492503131e-15
10
64.782284749830723
20
120.10000000000016
30
-2.2204460492503131e-15
10
65.230000000000103
20
119.65228474983076
30
-2.2204460492503131e-15
10
65.230000000000103
20
119.10000000000014
30
-2.2204460492503131e-15
0
SPLINE
5
205
100
AcDbEntity
8
0
100
AcDbSpline
70
0
71
3
72
8
73
4
74
0
42
0.000000001
43
0.0000000001
44
0.0000000001
40
-1
40
-1
40
-1
40
-1
40
0
40
0
40
0
40
0
10
338.66700000000276
20
102.95999970176612
30
-1.1102230246251565e-14
10
338.6670000000023
20
102.40771495193616
30
-1.1102230246251565e-14
10
338.21928474983326
20
101.95999970176771
30
-1.1102230246251565e-14
10
337.66700000000287
20
101.95999970176803
30
-1.1102230246251565e-14
0
LINE
5
206
100
AcDbEntity
8
0
100
AcDbLine
10
363.62999999999988
20
116.96000000000015
30
-1.1102230246251565e-14
11
363.62999999999988
21
104.95999999999974
31
-1.1102230246251565e-14
0
LINE
5
207
100
AcDbEntity
8
0
100
AcDbLine
10
42.999999999999829
20
68.999999999999972
30
2.2204460492503131e-15
11
42.999999999999829
21
81.000000000000071
31
2.2204460492503131e-15
0
LINE
5
208
100
AcDbEntity
8
0
100
AcDbLine
10
42.999999999999829
20
68.999999999999972
30
2.2204460492503131e-15
11
42.999999999999829
21
81.000000000000071
31
2.2204460492503131e-15
0
LINE
5
209
100
AcDbEntity
8
0
100
AcDbLine
10
51.22999999999994
20
107.09999999999999
30
2.2204460492503131e-15
11
51.22999999999994
21
119.10000000000014
31
4.4408920985006262e-15
0
SPLINE
5
210
100
AcDbEntity
8
0
100
AcDbSpline
70
0
71
3
72
8
73
4
74
0
42
0.000000001
43
0.0000000001
44
0.0000000001
40
-1
40
-1
40
-1
40
-1
40
0
40
0
40
0
40
0
10
337.72199999999594
20
80.860000298231753
30
-1.1102230246251565e-14
10
337.72199999999742
20
81.412285048062387
30
-1.1102230246251565e-14
10
338.1697152501664
20
81.860000298231128
30
-1.1102230246251565e-14
10
338.72199999999731
20
81.860000298231768
30
-1.1102230246251565e-14
0
SPLINE
5
211
100
AcDbEntity
8
0
100
AcDbSpline
70
0
71
3
72
8
73
4
74
0
42
0.000000001
43
0.0000000001
44
0.0000000001
40
-1
40
-1
40
-1
40
-1
40
0
40
0
40
0
40
0
10
60.070000000000086
20
101.04999999999991
30
2.2204460492503131e-15
10
60.62228474983069
20
101.04999999999991
30
2.2204460492503131e-15
10
61.0700000000001
20
100.60228474983086
30
2.2204460492503131e-15
10
61.0700000000001
20
100.04999999999994
30
2.2204460492503131e-15
0
LINE
5
212
100
AcDbEntity
8
0
100
AcDbLine
10
330.57999999999981
20
104.96000000000006
30
-1.1102230246251565e-14
11
330.57999999999981
21
116.96000000000018
31
-1.1102230246251565e-14
0
SPLINE
5
213
100
AcDbEntity
8
0
100
AcDbSpline
70
0
71
3
72
8
73
4
74
0
42
0.000000001
43
0.0000000001
44
0.0000000001
40
-1
40
-1
40
-1
40
-1
40
0
40
0
40
0
40
0
10
360.16000000000008
20
66.860000000000014
30
-1.1102230246251565e-14
10
360.16000000000008
20
66.307715250169053
30
-1.1102230246251565e-14
10
359.71228474983081
20
65.859999999999985
30
-1.1102230246251565e-14
10
359.16000000000008
20
65.859999999999985
30
-1.1102230246251565e-14
0
LINE
5
214
100
AcDbEntity
8
0
100
AcDbLine
10
363.03999999999979
20
97.909999999999968
30
-1.1102230246251565e-14
11
363.03999999999985
21
85.909999999999883
31
-1.1102230246251565e-14
0
LINE
5
215
100
AcDbEntity
8
0
100
AcDbLine
10
87.250000000000057
20
103.96000000000004
30
-2.2204460492503131e-15
11
75.249999999999886
21
103.96000000000004
31
-4.4408920985006262e-15
0
LINE
5
216
100
AcDbEntity
8
0
100
AcDbLine
10
362.03999999999979
20
84.909999999999854
30
-1.1102230246251565e-14
11
350.04000000000008
21
84.909999999999854
31
-1.1102230246251565e-14
0
LINE
5
217
100
AcDbEntity
8
0
100
AcDbLine
10
366.79560000000009
20
27.712000000000188
30
-1.1102230246251565e-14
11
354.79559999999947
21
27.712000000000188
31
-6.6613381477509392e-15
0
LINE
5
218
100
AcDbEntity
8
0
100
AcDbLine
10
359.15999999999997
20
65.859999999999985
30
-1.1102230246251565e-14
11
347.16000000000014
21
65.859999999999999
31
-1.1102230246251565e-14
0
LINE
5
219
100
AcDbEntity
8
0
100
AcDbLine
10
57.000000000000064
20
81.000000000000071
30
2.2204460492503131e-15
11
57.000000000000064
21
68.999999999999943
31
2.2204460492503131e-15
0
SPLINE
5
220
100
AcDbEntity
8
0
100
AcDbSpline
70
0
71
3
72
8
73
4
74
0
42
0.000000001
43
0.0000000001
44
0.0000000001
40
-1
40
-1
40
-1
40
-1
40
0
40
0
40
0
40
0
10
359.15999999999997
20
79.860000000000156
30
-1.1102230246251565e-14
10
359.71228474983081
20
79.859999999999815
30
-1.1102230246251565e-14
10
360.15999999999991
20
79.412284749830761
30
-1.1102230246251565e-14
10
360.15999999999991
20
78.860000000000113
30
-1.1102230246251565e-14
0
LINE
5
221
100
AcDbEntity
8
0
100
AcDbLine
10
362.54300000000393
20
103.96000000000002
30
-1.1102230246251565e-14
11
362.54300000000393
21
102.9599997017681
31
-1.1102230246251565e-14
0
SPLINE
5
222
100
AcDbEntity
8
0
100
AcDbSpline
70
0
71
3
72
8
73
4
74
0
42
0.000000001
43
0.0000000001
44
0.0000000001
40
-1
40
-1
40
-1
40
-1
40
0
40
0
40
0
40
0
10
69.399999999999835
20
65.860000000000042
30
2.2204460492503131e-15
10
68.847715250169188
20
65.860000000000042
30
2.2204460492503131e-15
10
68.400000000000105
20
66.307715250169096
30
2.2204460492503131e-15
10
68.399999999999778
20
66.860000000000056
30
2.2204460492503131e-15
0
LINE
5
223
100
AcDbEntity
8
0
100
AcDbLine
10
75.849999999999909
20
98.910000000000053
30
4.4408920985006262e-15
11
87.849999999999994
21
98.910000000000053
31
0
0
SPLINE
5
224
100
AcDbEntity
8
0
100
AcDbSpline
70
0
71
3
72
8
73
4
74
0
42
0.000000001
43
0.0000000001
44
0.0000000001
40
-1
40
-1
40
-1
40
-1
40
0
40
0
40
0
40
0
10
331.5799999999997
20
103.96000000000001
30
-1.1102230246251565e-14
10
331.02771525016942
20
103.96000000000001
30
-1.1102230246251565e-14
10
330.57999999999964
20
104.40771525016906
30
-1.1102230246251565e-14
10
330.57999999999964
20
104.96000000000002
30
-1.1102230246251565e-14
0
SPLINE
5
225
100
AcDbEntity
8
0
100
AcDbSpline
70
0
71
3
72
8
73
4
74
0
42
0.000000001
43
0.0000000001
44
0.0000000001
40
-1
40
-1
40
-1
40
-1
40
0
40
0
40
0
40
0
10
65.230000000000103
20
107.09999999999999
30
4.4408920985006262e-15
10
65.230000000000103
20
106.54771525016935
30
4.4408920985006262e-15
10
64.782284749830694
20
106.09999999999998
30
4.4408920985006262e-15
10
64.230000000000047
20
106.09999999999998
30
4.4408920985006262e-15
0
SPLINE
5
226
100
AcDbEntity
8
0
100
AcDbSpline
70
0
71
3
72
8
73
4
74
0
42
0.000000001
43
0.0000000001
44
0.0000000001
40
-1
40
-1
40
-1
40
-1
40
0
40
0
40
0
40
0
10
87.250000000000057
20
117.95999999999994
30
-2.2204460492503131e-15
10
87.802284749830648
20
117.95999999999994
30
-2.2204460492503131e-15
10
88.250000000000057
20
117.51228474983085
30
-2.2204460492503131e-15
10
88.250000000000057
20
116.96000000000025
30
-2.2204460492503131e-15
0
SPLINE
5
227
100
AcDbEntity
8
0
100
AcDbSpline
70
0
71
3
72
8
73
4
74
0
42
0.000000001
43
0.0000000001
44
0.0000000001
40
-1
40
-1
40
-1
40
-1
40
0
40
0
40
0
40
0
10
43.999999999999879
20
67.999999999999943
30
2.2204460492503131e-15
10
43.447715250169239
20
67.999999999999943
30
2.2204460492503131e-15
10
42.999999999999865
20
68.447715250169352
30
2.2204460492503131e-15
10
42.999999999999865
20
68.999999999999972
30
2.2204460492503131e-15
0
LINE
5
228
100
AcDbEntity
8
0
100
AcDbLine
10
354.79559999999947
20
41.712000000000046
30
-1.1102230246251565e-14
11
366.79560000000009
21
41.712000000000053
31
-1.1102230246251565e-14
0
LINE
5
229
100
AcDbEntity
8
0
100
AcDbLine
10
331.66700000000469
20
103.96000000000001
30
-1.1102230246251565e-14
11
331.57999999999987
21
103.96000000000001
31
-1.1102230246251565e-14
0
SPLINE
5
230
100
AcDbEntity
8
0
100
AcDbSpline
70
0
71
3
72
8
73
4
74
0
42
0.000000001
43
0.0000000001
44
0.0000000001
40
-1
40
-1
40
-1
40
-1
40
0
40
0
40
0
40
0
10
350.04000000000008
20
84.909999999999854
30
-1.1102230246251565e-14
10
349.48771525016889
20
84.909999999999854
30
-1.1102230246251565e-14
10
349.03999999999985
20
85.357715250169264
30
-1.1102230246251565e-14
10
349.03999999999985
20
85.909999999999911
30
-1.1102230246251565e-14
0
LINE
5
231
100
AcDbEntity
8
0
100
AcDbLine
10
48.069999999999915
20
101.04999999999991
30
2.2204460492503131e-15
11
60.070000000000086
21
101.04999999999991
31
2.2204460492503131e-15
0
LINE
5
232
100
AcDbEntity
8
0
100
AcDbLine
10
73.759999999999877
20
47.809999999999881
30
2.2204460492503131e-15
11
73.759999999999877
21
59.810000000000301
31
2.2204460492503131e-15
0
LINE
5
233
100
AcDbEntity
8
0
100
AcDbLine
10
56.00000000000005
20
67.999999999999915
30
2.2204460492503131e-15
11
43.999999999999844
21
67.999999999999915
31
2.2204460492503131e-15
0
LINE
5
234
100
AcDbEntity
8
0
100
AcDbLine
10
376.23874999999998
20
59.810000000000223
30
-1.1102230246251565e-14
11
376.23874999999998
21
47.809999999999789
31
-1.1102230246251565e-14
0
LINE
5
235
100
AcDbEntity
8
0
100
AcDbLine
10
362.54300000000393
20
103.96000000000002
30
-1.1102230246251565e-14
11
362.54300000000393
21
102.9599997017681
31
-1.1102230246251565e-14
0
SPLINE
5
236
100
AcDbEntity
8
0
100
AcDbSpline
70
0
71
3
72
8
73
4
74
0
42
0.000000001
43
0.0000000001
44
0.0000000001
40
-1
40
-1
40
-1
40
-1
40
0
40
0
40
0
40
0
10
274.01549664995662
20
36.673503768678259
30
-6.6613381477509392e-15
10
273.90067019380643
20
37.213719771647568
30
-6.6613381477509392e-15
10
274.24551655690357
20
37.744736604079648
30
-6.6613381477509392e-15
10
274.7857325598722
20
37.859563060229917
30
-6.6613381477509392e-15
0
SPLINE
5
237
100
AcDbEntity
8
0
100
AcDbSpline
70
0
71
3
72
8
73
4
74
0
42
0.000000001
43
0.0000000001
44
0.0000000001
40
-1
40
-1
40
-1
40
-1
40
0
40
0
40
0
40
0
10
73.759999999999877
20
59.810000000000301
30
2.2204460492503131e-15
10
73.759999999999877
20
60.362284749830607
30
2.2204460492503131e-15
10
74.207715250169286
20
60.810000000000329
30
2.2204460492503131e-15
10
74.75999999999992
20
60.810000000000329
30
2.2204460492503131e-15
0
LINE
5
238
100
AcDbEntity
8
0
100
AcDbLine
10
72.322000000003683
20
58.809999701768078
30
2.2204460492503131e-15
11
72.322000000003683
21
45.809999701768248
31
2.2204460492503131e-15
0
LINE
5
239
100
AcDbEntity
8
0
100
AcDbLine
10
69.399999999999835
20
79.860000000000198
30
2.2204460492503131e-15
11
86.162499999999866
21
79.860000000000127
31
2.2204460492503131e-15
0
LINE
5
240
100
AcDbEntity
8
0
100
AcDbLine
10
359.56999999999994
20
59.810000000000265
30
-1.1102230246251565e-14
11
359.56999999999994
21
47.809999999999818
31
-1.1102230246251565e-14
0
LINE
5
241
100
AcDbEntity
8
0
100
AcDbLine
10
64.230000000000047
20
106.09999999999998
30
4.4408920985006262e-15
11
52.22999999999999
21
106.09999999999998
31
2.2204460492503131e-15
0
LINE
5
242
100
AcDbEntity
8
0
100
AcDbLine
10
338.66700000000299
20
103.96000000000001
30
-1.1102230246251565e-14
11
338.66700000000299
21
102.95999970176621
31
-1.1102230246251565e-14
0
LINE
5
243
100
AcDbEntity
8
0
100
AcDbLine
10
68.399999999999778
20
66.860000000000056
30
2.2204460492503131e-15
11
68.399999999999778
21
78.860000000000184
31
2.2204460492503131e-15
0
LINE
5
244
100
AcDbEntity
8
0
100
AcDbLine
10
349.03999999999985
20
85.909999999999869
30
-1.1102230246251565e-14
11
349.03999999999985
21
97.909999999999982
31
-1.1102230246251565e-14
0
SPLINE
5
245
100
AcDbEntity
8
0
100
AcDbSpline
70
0
71
3
72
8
73
4
74
0
42
0.000000001
43
0.0000000001
44
0.0000000001
40
-1
40
-1
40
-1
40
-1
40
0
40
0
40
0
40
0
10
286.52350376867849
20
40.354503350043586
30
-6.6613381477509392e-15
10
287.06371977164724
20
40.469329806193215
30
-6.6613381477509392e-15
10
287.59473660407991
20
40.124483443096103
30
-6.6613381477509392e-15
10
287.70956306023015
20
39.584267440127434
30
-6.6613381477509392e-15
0
LINE
5
246
100
AcDbEntity
8
0
100
AcDbLine
10
336.04500000000019
20
47.809999999999832
30
-4.4408920985006262e-15
11
336.04500000000019
21
59.810000000000265
31
-1.1102230246251565e-14
0
LINE
5
247
100
AcDbEntity
8
0
100
AcDbLine
10
274.7857325598722
20
37.859563060229931
30
-6.6613381477509392e-15
11
286.52350376867849
21
40.354503350043565
31
-6.6613381477509392e-15
0
SPLINE
5
248
100
AcDbEntity
8
0
100
AcDbSpline
70
0
71
3
72
8
73
4
74
0
42
0.000000001
43
0.0000000001
44
0.0000000001
40
-1
40
-1
40
-1
40
-1
40
0
40
0
40
0
40
0
10
277.69649623132148
20
24.165496649956598
30
-6.6613381477509392e-15
10
277.15628022835278
20
24.050670193806315
30
-6.6613381477509392e-15
10
276.62526339592023
20
24.39551655690407
30
-6.6613381477509392e-15
10
276.51043693976987
20
24.935732559872733
30
-6.6613381477509392e-15
0
SPLINE
5
249
100
AcDbEntity
8
0
100
AcDbSpline
70
0
71
3
72
8
73
4
74
0
42
0.000000001
43
0.0000000001
44
0.0000000001
40
-1
40
-1
40
-1
40
-1
40
0
40
0
40
0
40
0
10
65.230000000000103
20
107.10000000000002
30
4.4408920985006262e-15
10
65.230000000000103
20
106.54771525016935
30
4.4408920985006262e-15
10
64.782284749830723
20
106.10000000000001
30
4.4408920985006262e-15
10
64.230000000000089
20
106.10000000000001
30
4.4408920985006262e-15
0
LINE
5
250
100
AcDbEntity
8
0
100
AcDbLine
10
52.22999999999999
20
120.10000000000016
30
4.4408920985006262e-15
11
64.230000000000047
21
120.10000000000016
31
-2.2204460492503131e-15
0
SPLINE
5
251
100
AcDbEntity
8
0
100
AcDbSpline
70
0
71
3
72
8
73
4
74
0
42
0.000000001
43
0.0000000001
44
0.0000000001
40
-1
40
-1
40
-1
40
-1
40
0
40
0
40
0
40
0
10
356.54300000000546
20
101.95999970176806
30
-1.1102230246251565e-14
10
355.99071525017507
20
101.95999970176841
30
-1.1102230246251565e-14
10
355.54300000000626
20
102.40771495193718
30
-1.1102230246251565e-14
10
355.54300000000626
20
102.95999970176781
30
-1.1102230246251565e-14
0
LINE
5
252
100
AcDbEntity
8
0
100
AcDbLine
10
65.230000000000103
20
119.10000000000014
30
-2.2204460492503131e-15
11
65.230000000000103
21
107.09999999999999
31
2.2204460492503131e-15
0
SPLINE
5
253
100
AcDbEntity
8
0
100
AcDbSpline
70
0
71
3
72
8
73
4
74
0
42
0.000000001
43
0.0000000001
44
0.0000000001
40
-1
40
-1
40
-1
40
-1
40
0
40
0
40
0
40
0
10
64.230000000000089
20
120.10000000000019
30
-4.4408920985006262e-15
10
64.782284749830723
20
120.10000000000019
30
-4.4408920985006262e-15
10
65.230000000000132
20
119.65228474983076
30
-4.4408920985006262e-15
10
65.230000000000132
20
119.10000000000018
30
-4.4408920985006262e-15
0
SPLINE
5
254
100
AcDbEntity
8
0
100
AcDbSpline
70
0
71
3
72
8
73
4
74
0
42
0.000000001
43
0.0000000001
44
0.0000000001
40
-1
40
-1
40
-1
40
-1
40
0
40
0
40
0
40
0
10
56.00000000000005
20
82.000000000000085
30
2.2204460492503131e-15
10
56.552284749830655
20
82.000000000000085
30
2.2204460492503131e-15
10
57.000000000000064
20
81.552284749830704
30
2.2204460492503131e-15
10
57.000000000000064
20
81.000000000000071
30
2.2204460492503131e-15
0
SPLINE
5
255
100
AcDbEntity
8
0
100
AcDbSpline
70
0
71
3
72
8
73
4
74
0
42
0.000000001
43
0.0000000001
44
0.0000000001
40
-1
40
-1
40
-1
40
-1
40
0
40
0
40
0
40
0
10
88.850000000000023
20
85.909999999999968
30
4.4408920985006262e-15
10
88.850000000000023
20
85.357715250169292
30
4.4408920985006262e-15
10
88.402284749830613
20
84.91000000000021
30
4.4408920985006262e-15
10
87.849999999999994
20
84.909999999999883
30
4.4408920985006262e-15
0
LINE
5
256
100
AcDbEntity
8
0
100
AcDbLine
10
87.849999999999994
20
84.909999999999883
30
4.4408920985006262e-15
11
75.849999999999909
21
84.91000000000021
31
2.2204460492503131e-15
0
LINE
5
257
100
AcDbEntity
8
0
100
AcDbLine
10
337.66700000000299
20
101.95999970176803
30
-1.1102230246251565e-14
11
332.66700000000401
21
101.95999970176803
31
-1.1102230246251565e-14
0
SPLINE
5
258
100
AcDbEntity
8
0
100
AcDbSpline
70
0
71
3
72
8
73
4
74
0
42
0.000000001
43
0.0000000001
44
0.0000000001
40
-1
40
-1
40
-1
40
-1
40
0
40
0
40
0
40
0
10
73.759999999999877
20
59.810000000000301
30
2.2204460492503131e-15
10
73.759999999999877
20
60.362284749830607
30
2.2204460492503131e-15
10
74.207715250169286
20
60.810000000000329
30
2.2204460492503131e-15
10
74.759999999999877
20
60.810000000000329
30
2.2204460492503131e-15
0
LINE
5
259
100
AcDbEntity
8
0
100
AcDbLine
10
64.230000000000047
20
106.09999999999998
30
4.4408920985006262e-15
11
52.22999999999999
21
106.09999999999998
31
2.2204460492503131e-15
0
LINE
5
260
100
AcDbEntity
8
0
100
AcDbLine
10
338.66700000000299
20
103.96000000000001
30
-1.1102230246251565e-14
11
338.66700000000299
21
102.95999970176621
31
-1.1102230246251565e-14
0
LINE
5
261
100
AcDbEntity
8
0
100
AcDbLine
10
66.322000000004408
20
59.809999701768092
30
2.2204460492503131e-15
11
71.322000000004309
21
59.809999701768092
31
2.2204460492503131e-15
0
SPLINE
5
262
100
AcDbEntity
8
0
100
AcDbSpline
70
0
71
3
72
8
73
4
74
0
42
0.000000001
43
0.0000000001
44
0.0000000001
40
-1
40
-1
40
-1
40
-1
40
0
40
0
40
0
40
0
10
332.66700000000401
20
101.95999970176803
30
-1.1102230246251565e-14
10
332.11471525017362
20
101.95999970176835
30
-1.1102230246251565e-14
10
331.66700000000458
20
102.40771495193709
30
-1.1102230246251565e-14
10
331.66700000000458
20
102.95999970176777
30
-1.1102230246251565e-14
0
SPLINE
5
263
100
AcDbEntity
8
0
100
AcDbSpline
70
0
71
3
72
8
73
4
74
0
42
0.000000001
43
0.0000000001
44
0.0000000001
40
-1
40
-1
40
-1
40
-1
40
0
40
0
40
0
40
0
10
132.99956306023009
20
24.935732559872758
30
2.2204460492503131e-15
10
132.88473660407979
20
24.395516556904099
30
2.2204460492503131e-15
10
132.35371977164738
20
24.050670193806333
30
2.2204460492503131e-15
10
131.81350376867843
20
24.165496649956616
30
2.2204460492503131e-15
0
LINE
5
264
100
AcDbEntity
8
0
100
AcDbLine
10
337.72199999999594
20
67.860000298231924
30
-1.1102230246251565e-14
11
337.72199999999594
21
80.860000298231753
31
-1.1102230246251565e-14
0
LINE
5
265
100
AcDbEntity
8
0
100
AcDbLine
10
43.999999999999844
20
82.000000000000099
30
2.2204460492503131e-15
11
56.00000000000005
21
82.000000000000085
31
2.2204460492503131e-15
0
SPLINE
5
266
100
AcDbEntity
8
0
100
AcDbSpline
70
0
71
3
72
8
73
4
74
0
42
0.000000001
43
0.0000000001
44
0.0000000001
40
-1
40
-1
40
-1
40
-1
40
0
40
0
40
0
40
0
10
72.322000000003641
20
45.809999701768248
30
2.2204460492503131e-15
10
72.322000000003641
20
45.257714951937288
30
2.2204460492503131e-15
10
71.874284749834601
20
44.809999701768191
30
2.2204460492503131e-15
10
71.322000000003953
20
44.809999701768191
30
2.2204460492503131e-15
0
LINE
5
267
100
AcDbEntity
8
0
100
AcDbLine
10
52.22999999999999
20
120.10000000000016
30
4.4408920985006262e-15
11
64.230000000000047
21
120.10000000000016
31
-2.2204460492503131e-15
0
SPLINE
5
268
100
AcDbEntity
8
0
100
AcDbSpline
70
0
71
3
72
8
73
4
74
0
42
0.000000001
43
0.0000000001
44
0.0000000001
40
-1
40
-1
40
-1
40
-1
40
0
40
0
40
0
40
0
10
66.322000000004735
20
44.809999701768213
30
2.2204460492503131e-15
10
65.769715250174102
20
44.809999701768213
30
2.2204460492503131e-15
10
65.322000000004692
20
45.257714951937288
30
2.2204460492503131e-15
10
65.322000000004692
20
45.809999701768263
30
2.2204460492503131e-15
0
LINE
5
269
100
AcDbEntity
8
0
100
AcDbLine
10
376.23874999999998
20
59.810000000000223
30
-1.1102230246251565e-14
11
376.23874999999998
21
47.809999999999789
31
-1.1102230246251565e-14
0
LINE
5
270
100
AcDbEntity
8
0
100
AcDbLine
10
42.999999999999829
20
82.000000000000099
30
2.2204460492503131e-15
11
57.000000000000064
21
67.999999999999915
31
2.2204460492503131e-15
0
LINE
5
271
100
AcDbEntity
8
0
100
AcDbLine
10
331.66700000000469
20
103.96000000000001
30
-1.1102230246251565e-14
11
331.57999999999987
21
103.96000000000001
31
-1.1102230246251565e-14
0
LINE
5
272
100
AcDbEntity
8
0
100
AcDbLine
10
65.230000000000103
20
119.10000000000014
30
-2.2204460492503131e-15
11
65.230000000000103
21
107.09999999999999
31
2.2204460492503131e-15
0
LINE
5
273
100
AcDbEntity
8
0
100
AcDbLine
10
362.03999999999979
20
84.909999999999854
30
-1.1102230246251565e-14
11
350.04000000000008
21
84.909999999999854
31
-1.1102230246251565e-14
0
LINE
5
274
100
AcDbEntity
8
0
100
AcDbLine
10
75.249999999999886
20
117.95999999999998
30
-2.2204460492503131e-15
11
87.250000000000057
21
117.95999999999998
31
-2.2204460492503131e-15
0
LINE
5
275
100
AcDbEntity
8
0
100
AcDbLine
10
287.7095630602301
20
39.584267440127419
30
-6.6613381477509392e-15
11
290.20450335004307
21
27.846496231321886
31
-6.6613381477509392e-15
0
LINE
5
276
100
AcDbEntity
8
0
100
AcDbLine
10
131.81350376867843
20
24.165496649956616
30
2.2204460492503131e-15
11
120.07573255987293
21
26.660436939769635
31
2.2204460492503131e-15
0
LINE
5
277
100
AcDbEntity
8
0
100
AcDbLine
10
131.81350376867843
20
24.165496649956616
30
2.2204460492503131e-15
11
120.07573255987293
21
26.660436939769635
31
2.2204460492503131e-15
0
LINE
5
278
100
AcDbEntity
8
0
100
AcDbLine
10
289.43426744012709
20
26.660436939770236
30
-6.6613381477509392e-15
11
277.69649623132136
21
24.165496649956598
31
-6.6613381477509392e-15
0
SPLINE
5
279
100
AcDbEntity
8
0
100
AcDbSpline
70
0
71
3
72
8
73
4
74
0
42
0.000000001
43
0.0000000001
44
0.0000000001
40
-1
40
-1
40
-1
40
-1
40
0
40
0
40
0
40
0
10
183.59774127012622
20
14.695266763916406
30
-2.2204460492503131e-15
10
183.05752526715713
20
14.810093220066683
30
-2.2204460492503131e-15
10
182.71267890406008
20
15.341110052498754
30
-2.2204460492503131e-15
10
182.82750536021007
20
15.881326055468058
30
-2.2204460492503131e-15
0
SPLINE
5
280
100
AcDbEntity
8
0
100
AcDbSpline
70
0
71
3
72
8
73
4
74
0
42
0.000000001
43
0.0000000001
44
0.0000000001
40
-1
40
-1
40
-1
40
-1
40
0
40
0
40
0
40
0
10
363.62999999999971
20
104.9599999999997
30
-1.1102230246251565e-14
10
363.62999999999971
20
104.40771525016906
30
-1.1102230246251565e-14
10
363.18228474983061
20
103.96000000000001
30
-1.1102230246251565e-14
10
362.62999999999965
20
103.96000000000001
30
-1.1102230246251565e-14
0
SPLINE
5
281
100
AcDbEntity
8
0
100
AcDbSpline
70
0
71
3
72
8
73
4
74
0
42
0.000000001
43
0.0000000001
44
0.0000000001
40
-1
40
-1
40
-1
40
-1
40
0
40
0
40
0
40
0
10
362.59799999999689
20
66.860000298232208
30
-1.1102230246251565e-14
10
362.04571525016593
20
66.860000298232208
30
-1.1102230246251565e-14
10
361.59799999999746
20
67.307715548401305
30
-1.1102230246251565e-14
10
361.59799999999746
20
67.86000029823191
30
-1.1102230246251565e-14
0
LINE
5
282
100
AcDbEntity
8
0
100
AcDbLine
10
346.15999999999997
20
66.860000000000014
30
-1.1102230246251565e-14
11
346.15999999999997
21
78.860000000000113
31
-1.1102230246251565e-14
0
SPLINE
5
283
100
AcDbEntity
8
0
100
AcDbSpline
70
0
71
3
72
8
73
4
74
0
42
0.000000001
43
0.0000000001
44
0.0000000001
40
-1
40
-1
40
-1
40
-1
40
0
40
0
40
0
40
0
10
359.56999999999994
20
47.809999999999818
30
-1.1102230246251565e-14
10
359.56999999999994
20
47.257715250168857
30
-1.1102230246251565e-14
10
359.12228474983078
20
46.809999999999768
30
-1.1102230246251565e-14
10
358.56999999999999
20
46.809999999999768
30
-1.1102230246251565e-14
0
LINE
5
284
100
AcDbEntity
8
0
100
AcDbLine
10
362.597999999997
20
81.860000298232109
30
-1.1102230246251565e-14
11
367.59799999999586
21
81.860000298232109
31
-1.1102230246251565e-14
0
SPLINE
5
285
100
AcDbEntity
8
0
100
AcDbSpline
70
0
71
3
72
8
73
4
74
0
42
0.000000001
43
0.0000000001
44
0.0000000001
40
-1
40
-1
40
-1
40
-1
40
0
40
0
40
0
40
0
10
361.59799999999746
20
80.860000298233672
30
-1.1102230246251565e-14
10
361.59799999999746
20
81.412285048063637
30
-1.1102230246251565e-14
10
362.0457152501665
20
81.86000029823208
30
-1.1102230246251565e-14
10
362.59799999999689
20
81.860000298232066
30
-1.1102230246251565e-14
0
LINE
5
286
100
AcDbEntity
8
0
100
AcDbLine
10
355.54300000000626
20
102.95999970176781
30
-1.1102230246251565e-14
11
355.54300000000626
21
103.96000000000002
31
-1.1102230246251565e-14
0
SPLINE
5
287
100
AcDbEntity
8
0
100
AcDbSpline
70
0
71
3
72
8
73
4
74
0
42
0.000000001
43
0.0000000001
44
0.0000000001
40
-1
40
-1
40
-1
40
-1
40
0
40
0
40
0
40
0
10
338.72199999999611
20
66.860000298231256
30
-1.1102230246251565e-14
10
338.16971525016515
20
66.860000298231256
30
-1.1102230246251565e-14
10
337.72199999999594
20
67.307715548400964
30
-1.1102230246251565e-14
10
337.72199999999594
20
67.86000029823191
30
-1.1102230246251565e-14
0
SPLINE
5
288
100
AcDbEntity
8
0
100
AcDbSpline
70
0
71
3
72
8
73
4
74
0
42
0.000000001
43
0.0000000001
44
0.0000000001
40
-1
40
-1
40
-1
40
-1
40
0
40
0
40
0
40
0
10
346.15999999999997
20
78.860000000000113
30
-1.1102230246251565e-14
10
346.15999999999997
20
79.412284749830761
30
-1.1102230246251565e-14
10
346.60771525016918
20
79.860000000000156
30
-1.1102230246251565e-14
10
347.16000000000014
20
79.860000000000156
30
-1.1102230246251565e-14
0
SPLINE
5
289
100
AcDbEntity
8
0
100
AcDbSpline
70
0
71
3
72
8
73
4
74
0
42
0.000000001
43
0.0000000001
44
0.0000000001
40
-1
40
-1
40
-1
40
-1
40
0
40
0
40
0
40
0
10
367.59799999999575
20
81.860000298232066
30
-1.1102230246251565e-14
10
368.15028474982614
20
81.860000298231753
30
-1.1102230246251565e-14
10
368.59799999999524
20
81.412285048062699
30
-1.1102230246251565e-14
10
368.59799999999524
20
80.860000298232379
30
-1.1102230246251565e-14
0
LINE
5
290
100
AcDbEntity
8
0
100
AcDbLine
10
362.00800000000709
20
59.80999970176866
30
-1.1102230246251565e-14
11
362.23874999999953
21
59.80999999999959
31
-1.1102230246251565e-14
0
LINE
5
291
100
AcDbEntity
8
0
100
AcDbLine
10
375.23874999999987
20
46.809999999999768
30
-1.1102230246251565e-14
11
368.00800000000407
21
46.809999999999768
31
-1.1102230246251565e-14
0
SPLINE
5
292
100
AcDbEntity
8
0
100
AcDbSpline
70
0
71
3
72
8
73
4
74
0
42
0.000000001
43
0.0000000001
44
0.0000000001
40
-1
40
-1
40
-1
40
-1
40
0
40
0
40
0
40
0
10
362.04000000000019
20
98.910000000000039
30
-1.1102230246251565e-14
10
362.59228474983075
20
98.910000000000025
30
-1.1102230246251565e-14
10
363.03999999999979
20
98.4622847498309
30
-1.1102230246251565e-14
10
363.03999999999979
20
97.909999999999968
30
-1.1102230246251565e-14
0
LINE
5
293
100
AcDbEntity
8
0
100
AcDbLine
10
367.59799999999586
20
66.860000298232208
30
-1.1102230246251565e-14
11
362.597999999997
21
66.860000298232208
31
-1.1102230246251565e-14
0
SPLINE
5
294
100
AcDbEntity
8
0
100
AcDbSpline
70
0
71
3
72
8
73
4
74
0
42
0.000000001
43
0.0000000001
44
0.0000000001
40
-1
40
-1
40
-1
40
-1
40
0
40
0
40
0
40
0
10
361.00800000000589
20
58.80999970176866
30
-1.1102230246251565e-14
10
361.00800000000663
20
59.362284451599621
30
-1.1102230246251565e-14
10
361.45571525017573
20
59.809999701768675
30
-1.1102230246251565e-14
10
362.00800000000709
20
59.809999701768675
30
-1.1102230246251565e-14
0
LINE
5
295
100
AcDbEntity
8
0
100
AcDbLine
10
347.16000000000014
20
79.860000000000156
30
-1.1102230246251565e-14
11
359.15999999999997
21
79.86000000000017
31
-1.1102230246251565e-14
0
LINE
5
296
100
AcDbEntity
8
0
100
AcDbLine
10
368.59799999999541
20
80.860000298232379
30
-1.1102230246251565e-14
11
368.59799999999541
21
67.860000298231938
31
-1.1102230246251565e-14
0
SPLINE
5
297
100
AcDbEntity
8
0
100
AcDbSpline
70
0
71
3
72
8
73
4
74
0
42
0.000000001
43
0.0000000001
44
0.0000000001
40
-1
40
-1
40
-1
40
-1
40
0
40
0
40
0
40
0
10
337.72199999999594
20
80.860000298231753
30
-1.1102230246251565e-14
10
337.72199999999725
20
81.412285048062387
30
-1.1102230246251565e-14
10
338.16971525016635
20
81.860000298231128
30
-1.1102230246251565e-14
10
338.72199999999725
20
81.860000298231768
30
-1.1102230246251565e-14
0
LINE
5
298
100
AcDbEntity
8
0
100
AcDbLine
10
338.72199999999731
20
81.860000298231768
30
-1.1102230246251565e-14
11
343.7219999999943
21
81.860000298231768
31
-1.1102230246251565e-14
0
LINE
5
299
100
AcDbEntity
8
0
100
AcDbLine
10
360.15999999999991
20
78.860000000000113
30
-1.1102230246251565e-14
11
360.15999999999991
21
66.860000000000014
31
-1.1102230246251565e-14
0
SPLINE
5
300
100
AcDbEntity
8
0
100
AcDbSpline
70
0
71
3
72
8
73
4
74
0
42
0.000000001
43
0.0000000001
44
0.0000000001
40
-1
40
-1
40
-1
40
-1
40
0
40
0
40
0
40
0
10
337.04500000000019
20
46.809999999999775
30
-4.4408920985006262e-15
10
336.49271525016928
20
46.809999999999775
30
-4.4408920985006262e-15
10
336.04500000000019
20
47.257715250168872
30
-4.4408920985006262e-15
10
336.04500000000019
20
47.809999999999832
30
-4.4408920985006262e-15
0
SPLINE
5
301
100
AcDbEntity
8
0
100
AcDbSpline
70
0
71
3
72
8
73
4
74
0
42
0.000000001
43
0.0000000001
44
0.0000000001
40
-1
40
-1
40
-1
40
-1
40
0
40
0
40
0
40
0
10
346.16000000000014
20
78.860000000000113
30
-1.1102230246251565e-14
10
346.16000000000014
20
79.412284749830761
30
-1.1102230246251565e-14
10
346.60771525016924
20
79.86000000000017
30
-1.1102230246251565e-14
10
347.1600000000002
20
79.86000000000017
30
-1.1102230246251565e-14
0
LINE
5
302
100
AcDbEntity
8
0
100
AcDbLine
10
368.00800000000407
20
46.809999999999768
30
-1.1102230246251565e-14
11
368.00800000000407
21
45.809999701768184
31
-1.1102230246251565e-14
0
LINE
5
303
100
AcDbEntity
8
0
100
AcDbLine
10
360.15999999999991
20
78.860000000000113
30
-1.1102230246251565e-14
11
360.15999999999991
21
66.860000000000014
31
-1.1102230246251565e-14
0
LINE
5
304
100
AcDbEntity
8
0
100
AcDbLine
10
362.62999999999965
20
103.96000000000001
30
-1.1102230246251565e-14
11
362.54300000000393
21
103.96000000000002
31
-1.1102230246251565e-14
0
SPLINE
5
305
100
AcDbEntity
8
0
100
AcDbSpline
70
0
71
3
72
8
73
4
74
0
42
0.000000001
43
0.0000000001
44
0.0000000001
40
-1
40
-1
40
-1
40
-1
40
0
40
0
40
0
40
0
10
336.04500000000019
20
59.810000000000265
30
-1.1102230246251565e-14
10
336.04500000000019
20
60.362284749831204
30
-1.1102230246251565e-14
10
336.49271525016928
20
60.810000000000279
30
-1.1102230246251565e-14
10
337.04500000000019
20
60.810000000000279
30
-1.1102230246251565e-14
0
LINE
5
306
100
AcDbEntity
8
0
100
AcDbLine
10
343.72199999999305
20
66.860000298231256
30
-1.1102230246251565e-14
11
338.72199999999623
21
66.860000298231256
31
-1.1102230246251565e-14
0
SPLINE
5
307
100
AcDbEntity
8
0
100
AcDbSpline
70
0
71
3
72
8
73
4
74
0
42
0.000000001
43
0.0000000001
44
0.0000000001
40
-1
40
-1
40
-1
40
-1
40
0
40
0
40
0
40
0
10
338.13200000000444
20
44.809999701768163
30
-4.4408920985006262e-15
10
337.57971525017348
20
44.809999701768163
30
-4.4408920985006262e-15
10
337.13200000000506
20
45.257714951937245
30
-4.4408920985006262e-15
10
337.13200000000427
20
45.809999701767566
30
-4.4408920985006262e-15
0
LINE
5
308
100
AcDbEntity
8
0
100
AcDbLine
10
367.79560000000004
20
40.712000000000018
30
-1.1102230246251565e-14
11
367.79560000000004
21
28.712000000000231
31
-1.1102230246251565e-14
0
SPLINE
5
309
100
AcDbEntity
8
0
100
AcDbSpline
70
0
71
3
72
8
73
4
74
0
42
0.000000001
43
0.0000000001
44
0.0000000001
40
-1
40
-1
40
-1
40
-1
40
0
40
0
40
0
40
0
10
363.03999999999974
20
85.909999999999854
30
-1.1102230246251565e-14
10
363.03999999999974
20
85.35771525016925
30
-1.1102230246251565e-14
10
362.59228474983058
20
84.909999999999798
30
-1.1102230246251565e-14
10
362.03999999999979
20
84.909999999999826
30
-1.1102230246251565e-14
0
LINE
5
310
100
AcDbEntity
8
0
100
AcDbLine
10
343.72199999999305
20
66.860000298231256
30
-1.1102230246251565e-14
11
338.72199999999623
21
66.860000298231256
31
-1.1102230246251565e-14
0
SPLINE
5
311
100
AcDbEntity
8
0
100
AcDbSpline
70
0
71
3
72
8
73
4
74
0
42
0.000000001
43
0.0000000001
44
0.0000000001
40
-1
40
-1
40
-1
40
-1
40
0
40
0
40
0
40
0
10
362.597999999997
20
66.860000298232208
30
-1.1102230246251565e-14
10
362.04571525016593
20
66.860000298232208
30
-1.1102230246251565e-14
10
361.59799999999763
20
67.307715548401305
30
-1.1102230246251565e-14
10
361.59799999999763
20
67.860000298231924
30
-1.1102230246251565e-14
0
SPLINE
5
312
100
AcDbEntity
8
0
100
AcDbSpline
70
0
71
3
72
8
73
4
74
0
42
0.000000001
43
0.0000000001
44
0.0000000001
40
-1
40
-1
40
-1
40
-1
40
0
40
0
40
0
40
0
10
362.00800000000584
20
44.809999701768149
30
-1.1102230246251565e-14
10
361.45571525017499
20
44.809999701768149
30
-1.1102230246251565e-14
10
361.00800000000646
20
45.257714951937231
30
-1.1102230246251565e-14
10
361.00800000000589
20
45.809999701767538
30
-1.1102230246251565e-14
0
SPLINE
5
313
100
AcDbEntity
8
0
100
AcDbSpline
70
0
71
3
72
8
73
4
74
0
42
0.000000001
43
0.0000000001
44
0.0000000001
40
-1
40
-1
40
-1
40
-1
40
0
40
0
40
0
40
0
10
367.79560000000004
20
28.712000000000231
30
-1.1102230246251565e-14
10
367.79560000000004
20
28.15971525016927
30
-1.1102230246251565e-14
10
367.34788474983105
20
27.712000000000188
30
-1.1102230246251565e-14
10
366.79560000000009
20
27.712000000000188
30
-1.1102230246251565e-14
0
LINE
5
314
100
AcDbEntity
8
0
100
AcDbLine
10
368.59799999999541
20
80.860000298232379
30
-1.1102230246251565e-14
11
368.59799999999541
21
67.860000298231938
31
-1.1102230246251565e-14
0
LINE
5
315
100
AcDbEntity
8
0
100
AcDbLine
10
367.79560000000004
20
40.712000000000018
30
-1.1102230246251565e-14
11
367.79560000000004
21
28.712000000000231
31
-1.1102230246251565e-14
0
LINE
5
316
100
AcDbEntity
8
0
100
AcDbLine
10
368.00800000000407
20
46.809999999999768
30
-1.1102230246251565e-14
11
368.00800000000407
21
45.809999701768184
31
-1.1102230246251565e-14
0
SPLINE
5
317
100
AcDbEntity
8
0
100
AcDbSpline
70
0
71
3
72
8
73
4
74
0
42
0.000000001
43
0.0000000001
44
0.0000000001
40
-1
40
-1
40
-1
40
-1
40
0
40
0
40
0
40
0
10
367.59799999999586
20
81.860000298232109
30
-1.1102230246251565e-14
10
368.15028474982626
20
81.860000298231753
30
-1.1102230246251565e-14
10
368.59799999999541
20
81.412285048062699
30
-1.1102230246251565e-14
10
368.59799999999541
20
80.860000298232379
30
-1.1102230246251565e-14
0
LINE
5
318
100
AcDbEntity
8
0
100
AcDbLine
10
350.04000000000008
20
98.910000000000039
30
-1.1102230246251565e-14
11
362.04000000000019
21
98.910000000000039
31
-1.1102230246251565e-14
0
LINE
5
319
100
AcDbEntity
8
0
100
AcDbLine
10
363.62999999999988
20
116.96000000000015
30
-1.1102230246251565e-14
11
363.62999999999988
21
104.95999999999974
31
-1.1102230246251565e-14
0
SPLINE
5
320
100
AcDbEntity
8
0
100
AcDbSpline
70
0
71
3
72
8
73
4
74
0
42
0.000000001
43
0.0000000001
44
0.0000000001
40
-1
40
-1
40
-1
40
-1
40
0
40
0
40
0
40
0
10
336.04500000000002
20
59.81000000000023
30
-1.1102230246251565e-14
10
336.04500000000002
20
60.362284749831204
30
-1.1102230246251565e-14
10
336.49271525016911
20
60.810000000000279
30
-1.1102230246251565e-14
10
337.04500000000007
20
60.810000000000279
30
-1.1102230246251565e-14
0
SPLINE
5
321
100
AcDbEntity
8
0
100
AcDbSpline
70
0
71
3
72
8
73
4
74
0
42
0.000000001
43
0.0000000001
44
0.0000000001
40
-1
40
-1
40
-1
40
-1
40
0
40
0
40
0
40
0
10
361.59799999999763
20
80.860000298233672
30
-1.1102230246251565e-14
10
361.59799999999763
20
81.412285048063666
30
-1.1102230246251565e-14
10
362.0457152501665
20
81.860000298232123
30
-1.1102230246251565e-14
10
362.597999999997
20
81.860000298232109
30
-1.1102230246251565e-14
0
SPLINE
5
322
100
AcDbEntity
8
0
100
AcDbSpline
70
0
71
3
72
8
73
4
74
0
42
0.000000001
43
0.0000000001
44
0.0000000001
40
-1
40
-1
40
-1
40
-1
40
0
40
0
40
0
40
0
10
368.00800000000407
20
45.809999701768199
30
-1.1102230246251565e-14
10
368.00800000000294
20
45.257714951937238
30
-1.1102230246251565e-14
10
367.56028474983395
20
44.809999701768788
30
-1.1102230246251565e-14
10
367.00800000000288
20
44.809999701768149
30
-1.1102230246251565e-14
0
SPLINE
5
323
100
AcDbEntity
8
0
100
AcDbSpline
70
0
71
3
72
8
73
4
74
0
42
0.000000001
43
0.0000000001
44
0.0000000001
40
-1
40
-1
40
-1
40
-1
40
0
40
0
40
0
40
0
10
362.54300000000393
20
102.9599997017681
30
-1.1102230246251565e-14
10
362.54300000000239
20
102.40771495193746
30
-1.1102230246251565e-14
10
362.09528474983347
20
101.95999970176869
30
-1.1102230246251565e-14
10
361.54300000000239
20
101.95999970176806
30
-1.1102230246251565e-14
0
LINE
5
324
100
AcDbEntity
8
0
100
AcDbLine
10
363.23875000000015
20
60.810000000000279
30
-1.1102230246251565e-14
11
375.23874999999987
21
60.810000000000251
31
-1.1102230246251565e-14
0
LINE
5
325
100
AcDbEntity
8
0
100
AcDbLine
10
51.22999999999994
20
107.09999999999999
30
2.2204460492503131e-15
11
51.22999999999994
21
119.10000000000014
31
4.4408920985006262e-15
0
LINE
5
326
100
AcDbEntity
8
0
100
AcDbLine
10
88.250000000000057
20
116.96000000000028
30
-2.2204460492503131e-15
11
88.250000000000057
21
104.96000000000009
31
-2.2204460492503131e-15
0
LINE
5
327
100
AcDbEntity
8
0
100
AcDbLine
10
74.249999999999858
20
104.96000000000012
30
-4.4408920985006262e-15
11
74.249999999999858
21
116.96000000000028
31
-2.2204460492503131e-15
0
SPLINE
5
328
100
AcDbEntity
8
0
100
AcDbSpline
70
0
71
3
72
8
73
4
74
0
42
0.000000001
43
0.0000000001
44
0.0000000001
40
-1
40
-1
40
-1
40
-1
40
0
40
0
40
0
40
0
10
343.72199999999424
20
81.860000298231768
30
-1.1102230246251565e-14
10
344.27428474982457
20
81.860000298231455
30
-1.1102230246251565e-14
10
344.72199999999356
20
81.412285048062714
30
-1.1102230246251565e-14
10
344.72199999999424
20
80.860000298232038
30
-1.1102230246251565e-14
0
LINE
5
329
100
AcDbEntity
8
0
100
AcDbLine
10
344.7219999999943
20
80.86000029823208
30
-1.1102230246251565e-14
11
344.72199999999361
21
67.860000298231924
31
-1.1102230246251565e-14
0
LINE
5
330
100
AcDbEntity
8
0
100
AcDbLine
10
366.79560000000009
20
27.712000000000188
30
-1.1102230246251565e-14
11
354.79559999999947
21
27.712000000000188
31
-6.6613381477509392e-15
0
SPLINE
5
331
100
AcDbEntity
8
0
100
AcDbSpline
70
0
71
3
72
8
73
4
74
0
42
0.000000001
43
0.0000000001
44
0.0000000001
40
-1
40
-1
40
-1
40
-1
40
0
40
0
40
0
40
0
10
52.22999999999999
20
106.09999999999998
30
2.2204460492503131e-15
10
51.67771525016903
20
106.09999999999998
30
2.2204460492503131e-15
10
51.22999999999994
20
106.54771525016935
30
2.2204460492503131e-15
10
51.22999999999994
20
107.09999999999999
30
2.2204460492503131e-15
0
SPLINE
5
332
100
AcDbEntity
8
0
100
AcDbSpline
70
0
71
3
72
8
73
4
74
0
42
0.000000001
43
0.0000000001
44
0.0000000001
40
-1
40
-1
40
-1
40
-1
40
0
40
0
40
0
40
0
10
87.250000000000057
20
117.95999999999998
30
-2.2204460492503131e-15
10
87.802284749830648
20
117.95999999999998
30
-2.2204460492503131e-15
10
88.250000000000057
20
117.51228474983085
30
-2.2204460492503131e-15
10
88.250000000000057
20
116.96000000000028
30
-2.2204460492503131e-15
0
SPLINE
5
333
100
AcDbEntity
8
0
100
AcDbSpline
70
0
71
3
72
8
73
4
74
0
42
0.000000001
43
0.0000000001
44
0.0000000001
40
-1
40
-1
40
-1
40
-1
40
0
40
0
40
0
40
0
10
347.1600000000002
20
65.859999999999985
30
-1.1102230246251565e-14
10
346.60771525016924
20
65.859999999999985
30
-1.1102230246251565e-14
10
346.16000000000014
20
66.307715250169053
30
-1.1102230246251565e-14
10
346.16000000000014
20
66.860000000000014
30
-1.1102230246251565e-14
0
LINE
5
334
100
AcDbEntity
8
0
100
AcDbLine
10
355.54300000000626
20
102.95999970176781
30
-1.1102230246251565e-14
11
355.54300000000626
21
103.96000000000002
31
-1.1102230246251565e-14
0
SPLINE
5
335
100
AcDbEntity
8
0
100
AcDbSpline
70
0
71
3
72
8
73
4
74
0
42
0.000000001
43
0.0000000001
44
0.0000000001
40
-1
40
-1
40
-1
40
-1
40
0
40
0
40
0
40
0
10
47.069999999999936
20
100.04999999999994
30
2.2204460492503131e-15
10
47.069999999999936
20
100.60228474983086
30
2.2204460492503131e-15
10
47.51771525016931
20
101.04999999999991
30
2.2204460492503131e-15
10
48.069999999999951
20
101.04999999999991
30
2.2204460492503131e-15
0
SPLINE
5
336
100
AcDbEntity
8
0
100
AcDbSpline
70
0
71
3
72
8
73
4
74
0
42
0.000000001
43
0.0000000001
44
0.0000000001
40
-1
40
-1
40
-1
40
-1
40
0
40
0
40
0
40
0
10
61.070000000000064
20
88.050000000000153
30
2.2204460492503131e-15
10
61.070000000000064
20
87.497715250169165
30
2.2204460492503131e-15
10
60.62228474983069
20
87.050000000000139
30
2.2204460492503131e-15
10
60.070000000000086
20
87.050000000000139
30
2.2204460492503131e-15
0
LINE
5
337
100
AcDbEntity
8
0
100
AcDbLine
10
350.04000000000008
20
98.910000000000039
30
-1.1102230246251565e-14
11
362.04000000000019
21
98.910000000000039
31
-1.1102230246251565e-14
0
SPLINE
5
338
100
AcDbEntity
8
0
100
AcDbSpline
70
0
71
3
72
8
73
4
74
0
42
0.000000001
43
0.0000000001
44
0.0000000001
40
-1
40
-1
40
-1
40
-1
40
0
40
0
40
0
40
0
10
359.16000000000008
20
79.86000000000017
30
-1.1102230246251565e-14
10
359.71228474983081
20
79.859999999999829
30
-1.1102230246251565e-14
10
360.16000000000008
20
79.412284749830761
30
-1.1102230246251565e-14
10
360.16000000000008
20
78.860000000000113
30
-1.1102230246251565e-14
0
LINE
5
339
100
AcDbEntity
8
0
100
AcDbLine
10
338.72199999999731
20
81.860000298231768
30
-1.1102230246251565e-14
11
343.7219999999943
21
81.860000298231768
31
-1.1102230246251565e-14
0
LINE
5
340
100
AcDbEntity
8
0
100
AcDbLine
10
354.79559999999947
20
41.712000000000046
30
-1.1102230246251565e-14
11
366.79560000000009
21
41.712000000000053
31
-1.1102230246251565e-14
0
LINE
5
341
100
AcDbEntity
8
0
100
AcDbLine
10
57.000000000000064
20
81.000000000000071
30
2.2204460492503131e-15
11
57.000000000000064
21
68.999999999999943
31
2.2204460492503131e-15
0
SPLINE
5
342
100
AcDbEntity
8
0
100
AcDbSpline
70
0
71
3
72
8
73
4
74
0
42
0.000000001
43
0.0000000001
44
0.0000000001
40
-1
40
-1
40
-1
40
-1
40
0
40
0
40
0
40
0
10
74.249999999999858
20
116.96000000000025
30
-2.2204460492503131e-15
10
74.249999999999858
20
117.51228474983085
30
-2.2204460492503131e-15
10
74.697715250169267
20
117.95999999999994
30
-2.2204460492503131e-15
10
75.249999999999886
20
117.95999999999994
30
-2.2204460492503131e-15
0
SPLINE
5
343
100
AcDbEntity
8
0
100
AcDbSpline
70
0
71
3
72
8
73
4
74
0
42
0.000000001
43
0.0000000001
44
0.0000000001
40
-1
40
-1
40
-1
40
-1
40
0
40
0
40
0
40
0
10
60.070000000000086
20
101.04999999999991
30
2.2204460492503131e-15
10
60.62228474983069
20
101.04999999999991
30
2.2204460492503131e-15
10
61.070000000000064
20
100.60228474983086
30
2.2204460492503131e-15
10
61.070000000000064
20
100.0499999999999
30
2.2204460492503131e-15
0
LINE
5
344
100
AcDbEntity
8
0
100
AcDbLine
10
363.23875000000015
20
60.810000000000279
30
-1.1102230246251565e-14
11
375.23874999999987
21
60.810000000000251
31
-1.1102230246251565e-14
0
LINE
5
345
100
AcDbEntity
8
0
100
AcDbLine
10
367.00800000000288
20
44.809999701768149
30
-1.1102230246251565e-14
11
362.00800000000584
21
44.809999701768149
31
-1.1102230246251565e-14
0
SPLINE
5
346
100
AcDbEntity
8
0
100
AcDbSpline
70
0
71
3
72
8
73
4
74
0
42
0.000000001
43
0.0000000001
44
0.0000000001
40
-1
40
-1
40
-1
40
-1
40
0
40
0
40
0
40
0
10
362.04000000000019
20
98.910000000000039
30
-1.1102230246251565e-14
10
362.59228474983058
20
98.910000000000025
30
-1.1102230246251565e-14
10
363.03999999999974
20
98.4622847498309
30
-1.1102230246251565e-14
10
363.03999999999974
20
97.909999999999968
30
-1.1102230246251565e-14
0
SPLINE
5
347
100
AcDbEntity
8
0
100
AcDbSpline
70
0
71
3
72
8
73
4
74
0
42
0.000000001
43
0.0000000001
44
0.0000000001
40
-1
40
-1
40
-1
40
-1
40
0
40
0
40
0
40
0
10
74.849999999999852
20
97.910000000000039
30
4.4408920985006262e-15
10
74.849999999999852
20
98.462284749830957
30
4.4408920985006262e-15
10
75.297715250169261
20
98.910000000000053
30
4.4408920985006262e-15
10
75.849999999999909
20
98.910000000000053
30
4.4408920985006262e-15
0
SPLINE
5
348
100
AcDbEntity
8
0
100
AcDbSpline
70
0
71
3
72
8
73
4
74
0
42
0.000000001
43
0.0000000001
44
0.0000000001
40
-1
40
-1
40
-1
40
-1
40
0
40
0
40
0
40
0
10
375.23874999999987
20
60.810000000000251
30
-1.1102230246251565e-14
10
375.791034749831
20
60.810000000000251
30
-1.1102230246251565e-14
10
376.23874999999998
20
60.362284749830543
30
-1.1102230246251565e-14
10
376.23874999999998
20
59.810000000000223
30
-1.1102230246251565e-14
0
SPLINE
5
349
100
AcDbEntity
8
0
100
AcDbSpline
70
0
71
3
72
8
73
4
74
0
42
0.000000001
43
0.0000000001
44
0.0000000001
40
-1
40
-1
40
-1
40
-1
40
0
40
0
40
0
40
0
10
74.849999999999881
20
97.910000000000039
30
4.4408920985006262e-15
10
74.849999999999881
20
98.462284749830999
30
4.4408920985006262e-15
10
75.297715250169261
20
98.910000000000053
30
4.4408920985006262e-15
10
75.849999999999909
20
98.910000000000053
30
4.4408920985006262e-15
0
LINE
5
350
100
AcDbEntity
8
0
100
AcDbLine
10
344.7219999999943
20
80.86000029823208
30
-1.1102230246251565e-14
11
344.72199999999361
21
67.860000298231924
31
-1.1102230246251565e-14
0
SPLINE
5
351
100
AcDbEntity
8
0
100
AcDbSpline
70
0
71
3
72
8
73
4
74
0
42
0.000000001
43
0.0000000001
44
0.0000000001
40
-1
40
-1
40
-1
40
-1
40
0
40
0
40
0
40
0
10
61.0700000000001
20
88.050000000000153
30
2.2204460492503131e-15
10
61.0700000000001
20
87.497715250169193
30
2.2204460492503131e-15
10
60.62228474983069
20
87.050000000000139
30
2.2204460492503131e-15
10
60.070000000000086
20
87.050000000000139
30
2.2204460492503131e-15
0
SPLINE
5
352
100
AcDbEntity
8
0
100
AcDbSpline
70
0
71
3
72
8
73
4
74
0
42
0.000000001
43
0.0000000001
44
0.0000000001
40
-1
40
-1
40
-1
40
-1
40
0
40
0
40
0
40
0
10
88.250000000000057
20
104.96000000000012
30
-2.2204460492503131e-15
10
88.250000000000057
20
104.40771525016913
30
-2.2204460492503131e-15
10
87.802284749830648
20
103.96000000000004
30
-2.2204460492503131e-15
10
87.250000000000057
20
103.96000000000004
30
-2.2204460492503131e-15
0
LINE
5
353
100
AcDbEntity
8
0
100
AcDbLine
10
337.13200000000427
20
45.809999701767566
30
-4.4408920985006262e-15
11
337.13200000000506
21
46.809999999999775
31
-4.4408920985006262e-15
0
SPLINE
5
354
100
AcDbEntity
8
0
100
AcDbSpline
70
0
71
3
72
8
73
4
74
0
42
0.000000001
43
0.0000000001
44
0.0000000001
40
-1
40
-1
40
-1
40
-1
40
0
40
0
40
0
40
0
10
362.23874999999953
20
59.80999999999959
30
-1.1102230246251565e-14
10
362.23874999999953
20
60.362284749830565
30
-1.1102230246251565e-14
10
362.68646525016919
20
60.810000000000279
30
-1.1102230246251565e-14
10
363.23875000000015
20
60.810000000000279
30
-1.1102230246251565e-14
0
SPLINE
5
355
100
AcDbEntity
8
0
100
AcDbSpline
70
0
71
3
72
8
73
4
74
0
42
0.000000001
43
0.0000000001
44
0.0000000001
40
-1
40
-1
40
-1
40
-1
40
0
40
0
40
0
40
0
10
42.999999999999865
20
81.000000000000099
30
2.2204460492503131e-15
10
42.999999999999865
20
81.552284749831031
30
2.2204460492503131e-15
10
43.447715250169239
20
82.000000000000142
30
2.2204460492503131e-15
10
43.999999999999879
20
82.000000000000142
30
2.2204460492503131e-15
0
LINE
5
356
100
AcDbEntity
8
0
100
AcDbLine
10
362.62999999999965
20
103.96000000000001
30
-1.1102230246251565e-14
11
362.54300000000393
21
103.96000000000002
31
-1.1102230246251565e-14
0
SPLINE
5
357
100
AcDbEntity
8
0
100
AcDbSpline
70
0
71
3
72
8
73
4
74
0
42
0.000000001
43
0.0000000001
44
0.0000000001
40
-1
40
-1
40
-1
40
-1
40
0
40
0
40
0
40
0
10
362.23874999999953
20
59.80999999999959
30
-1.1102230246251565e-14
10
362.23874999999953
20
60.362284749830565
30
-1.1102230246251565e-14
10
362.68646525016936
20
60.810000000000279
30
-1.1102230246251565e-14
10
363.23875000000032
20
60.810000000000279
30
-1.1102230246251565e-14
0
LINE
5
358
100
AcDbEntity
8
0
100
AcDbLine
10
367.00800000000288
20
44.809999701768149
30
-1.1102230246251565e-14
11
362.00800000000584
21
44.809999701768149
31
-1.1102230246251565e-14
0
LINE
5
359
100
AcDbEntity
8
0
100
AcDbLine
10
362.597999999997
20
81.860000298232109
30
-1.1102230246251565e-14
11
367.59799999999586
21
81.860000298232109
31
-1.1102230246251565e-14
0
SPLINE
5
360
100
AcDbEntity
8
0
100
AcDbSpline
70
0
71
3
72
8
73
4
74
0
42
0.000000001
43
0.0000000001
44
0.0000000001
40
-1
40
-1
40
-1
40
-1
40
0
40
0
40
0
40
0
10
344.72199999999356
20
67.86000029823191
30
-1.1102230246251565e-14
10
344.72199999999356
20
67.307715548400637
30
-1.1102230246251565e-14
10
344.27428474982457
20
66.860000298231256
30
-1.1102230246251565e-14
10
343.72199999999305
20
66.860000298231256
30
-1.1102230246251565e-14
0
LINE
5
361
100
AcDbEntity
8
0
100
AcDbLine
10
349.03999999999985
20
85.909999999999869
30
-1.1102230246251565e-14
11
349.03999999999985
21
97.909999999999982
31
-1.1102230246251565e-14
0
LINE
5
362
100
AcDbEntity
8
0
100
AcDbLine
10
361.54300000000239
20
101.95999970176806
30
-1.1102230246251565e-14
11
356.54300000000546
21
101.95999970176806
31
-1.1102230246251565e-14
0
SPLINE
5
363
100
AcDbEntity
8
0
100
AcDbSpline
70
0
71
3
72
8
73
4
74
0
42
0.000000001
43
0.0000000001
44
0.0000000001
40
-1
40
-1
40
-1
40
-1
40
0
40
0
40
0
40
0
10
51.229999999999976
20
119.10000000000018
30
4.4408920985006262e-15
10
51.229999999999976
20
119.65228474983076
30
4.4408920985006262e-15
10
51.677715250169349
20
120.10000000000019
30
4.4408920985006262e-15
10
52.22999999999999
20
120.10000000000019
30
4.4408920985006262e-15
0
LINE
5
364
100
AcDbEntity
8
0
100
AcDbLine
10
362.00800000000709
20
59.80999970176866
30
-1.1102230246251565e-14
11
362.23874999999953
21
59.80999999999959
31
-1.1102230246251565e-14
0
SPLINE
5
365
100
AcDbEntity
8
0
100
AcDbSpline
70
0
71
3
72
8
73
4
74
0
42
0.000000001
43
0.0000000001
44
0.0000000001
40
-1
40
-1
40
-1
40
-1
40
0
40
0
40
0
40
0
10
57.000000000000064
20
68.999999999999972
30
2.2204460492503131e-15
10
57.000000000000064
20
68.447715250169352
30
2.2204460492503131e-15
10
56.552284749830655
20
68.000000000000242
30
2.2204460492503131e-15
10
56.00000000000005
20
67.999999999999915
30
2.2204460492503131e-15
0
LINE
5
366
100
AcDbEntity
8
0
100
AcDbLine
10
60.070000000000086
20
87.050000000000139
30
2.2204460492503131e-15
11
48.069999999999915
21
87.050000000000139
31
2.2204460492503131e-15
0
SPLINE
5
367
100
AcDbEntity
8
0
100
AcDbSpline
70
0
71
3
72
8
73
4
74
0
42
0.000000001
43
0.0000000001
44
0.0000000001
40
-1
40
-1
40
-1
40
-1
40
0
40
0
40
0
40
0
10
88.250000000000057
20
104.96000000000009
30
-2.2204460492503131e-15
10
88.250000000000057
20
104.40771525016913
30
-2.2204460492503131e-15
10
87.802284749830648
20
103.96000000000004
30
-2.2204460492503131e-15
10
87.250000000000057
20
103.96000000000004
30
-2.2204460492503131e-15
0
LINE
5
368
100
AcDbEntity
8
0
100
AcDbLine
10
367.59799999999586
20
66.860000298232208
30
-1.1102230246251565e-14
11
362.597999999997
21
66.860000298232208
31
-1.1102230246251565e-14
0
SPLINE
5
369
100
AcDbEntity
8
0
100
AcDbSpline
70
0
71
3
72
8
73
4
74
0
42
0.000000001
43
0.0000000001
44
0.0000000001
40
-1
40
-1
40
-1
40
-1
40
0
40
0
40
0
40
0
10
361.00800000000589
20
58.80999970176866
30
-1.1102230246251565e-14
10
361.00800000000646
20
59.362284451599585
30
-1.1102230246251565e-14
10
361.45571525017556
20
59.80999970176866
30
-1.1102230246251565e-14
10
362.00800000000709
20
59.80999970176866
30
-1.1102230246251565e-14
0
SPLINE
5
370
100
AcDbEntity
8
0
100
AcDbSpline
70
0
71
3
72
8
73
4
74
0
42
0.000000001
43
0.0000000001
44
0.0000000001
40
-1
40
-1
40
-1
40
-1
40
0
40
0
40
0
40
0
10
366.79560000000026
20
41.712000000000067
30
-1.1102230246251565e-14
10
367.34788474983105
20
41.712000000000067
30
-1.1102230246251565e-14
10
367.79560000000004
20
41.264284749830978
30
-1.1102230246251565e-14
10
367.79560000000004
20
40.712000000000039
30
-1.1102230246251565e-14
0
LINE
5
371
100
AcDbEntity
8
0
100
AcDbLine
10
344.13200000000273
20
46.809999999999775
30
-1.1102230246251565e-14
11
344.13200000000273
21
45.809999701766287
31
-6.6613381477509392e-15
0
LINE
5
372
100
AcDbEntity
8
0
100
AcDbLine
10
346.15999999999997
20
66.860000000000014
30
-1.1102230246251565e-14
11
346.15999999999997
21
78.860000000000113
31
-1.1102230246251565e-14
0
SPLINE
5
373
100
AcDbEntity
8
0
100
AcDbSpline
70
0
71
3
72
8
73
4
74
0
42
0.000000001
43
0.0000000001
44
0.0000000001
40
-1
40
-1
40
-1
40
-1
40
0
40
0
40
0
40
0
10
368.59799999999524
20
67.86000029823191
30
-1.1102230246251565e-14
10
368.59799999999524
20
67.307715548401305
30
-1.1102230246251565e-14
10
368.15028474982614
20
66.860000298232208
30
-1.1102230246251565e-14
10
367.59799999999575
20
66.860000298232208
30
-1.1102230246251565e-14
0
SPLINE
5
374
100
AcDbEntity
8
0
100
AcDbSpline
70
0
71
3
72
8
73
4
74
0
42
0.000000001
43
0.0000000001
44
0.0000000001
40
-1
40
-1
40
-1
40
-1
40
0
40
0
40
0
40
0
10
43.999999999999844
20
67.999999999999915
30
2.2204460492503131e-15
10
43.447715250169239
20
67.999999999999915
30
2.2204460492503131e-15
10
42.999999999999829
20
68.447715250169352
30
2.2204460492503131e-15
10
42.999999999999829
20
68.999999999999972
30
2.2204460492503131e-15
0
LINE
5
375
100
AcDbEntity
8
0
100
AcDbLine
10
358.57000000000016
20
46.809999999999789
30
-1.1102230246251565e-14
11
344.13200000000273
21
46.809999999999775
31
-1.1102230246251565e-14
0
LINE
5
376
100
AcDbEntity
8
0
100
AcDbLine
10
361.54300000000239
20
101.95999970176806
30
-1.1102230246251565e-14
11
356.54300000000546
21
101.95999970176806
31
-1.1102230246251565e-14
0
SPLINE
5
377
100
AcDbEntity
8
0
100
AcDbSpline
70
0
71
3
72
8
73
4
74
0
42
0.000000001
43
0.0000000001
44
0.0000000001
40
-1
40
-1
40
-1
40
-1
40
0
40
0
40
0
40
0
10
74.249999999999858
20
116.96000000000028
30
-2.2204460492503131e-15
10
74.249999999999858
20
117.51228474983085
30
-2.2204460492503131e-15
10
74.697715250169267
20
117.95999999999998
30
-2.2204460492503131e-15
10
75.249999999999886
20
117.95999999999998
30
-2.2204460492503131e-15
0
SPLINE
5
378
100
AcDbEntity
8
0
100
AcDbSpline
70
0
71
3
72
8
73
4
74
0
42
0.000000001
43
0.0000000001
44
0.0000000001
40
-1
40
-1
40
-1
40
-1
40
0
40
0
40
0
40
0
10
343.7219999999943
20
81.860000298231768
30
-1.1102230246251565e-14
10
344.27428474982469
20
81.860000298231483
30
-1.1102230246251565e-14
10
344.72199999999361
20
81.412285048062714
30
-1.1102230246251565e-14
10
344.7219999999943
20
80.86000029823208
30
-1.1102230246251565e-14
0
SPLINE
5
379
100
AcDbEntity
8
0
100
AcDbSpline
70
0
71
3
72
8
73
4
74
0
42
0.000000001
43
0.0000000001
44
0.0000000001
40
-1
40
-1
40
-1
40
-1
40
0
40
0
40
0
40
0
10
48.069999999999915
20
87.050000000000139
30
2.2204460492503131e-15
10
47.51771525016899
20
87.050000000000139
30
2.2204460492503131e-15
10
47.069999999999901
20
87.497715250169193
30
2.2204460492503131e-15
10
47.069999999999901
20
88.050000000000153
30
2.2204460492503131e-15
0
SPLINE
5
380
100
AcDbEntity
8
0
100
AcDbSpline
70
0
71
3
72
8
73
4
74
0
42
0.000000001
43
0.0000000001
44
0.0000000001
40
-1
40
-1
40
-1
40
-1
40
0
40
0
40
0
40
0
10
366.79560000000009
20
41.712000000000053
30
-1.1102230246251565e-14
10
367.34788474983105
20
41.712000000000053
30
-1.1102230246251565e-14
10
367.79560000000004
20
41.264284749830964
30
-1.1102230246251565e-14
10
367.79560000000004
20
40.712000000000018
30
-1.1102230246251565e-14
0
LINE
5
381
100
AcDbEntity
8
0
100
AcDbLine
10
353.79559999999941
20
28.712000000000234
30
-4.4408920985006262e-15
11
353.79559999999958
21
40.712000000000032
31
-8.8817841970012523e-15
0
SPLINE
5
382
100
AcDbEntity
8
0
100
AcDbSpline
70
0
71
3
72
8
73
4
74
0
42
0.000000001
43
0.0000000001
44
0.0000000001
40
-1
40
-1
40
-1
40
-1
40
0
40
0
40
0
40
0
10
350.03999999999991
20
84.909999999999826
30
-1.1102230246251565e-14
10
349.48771525016878
20
84.909999999999826
30
-1.1102230246251565e-14
10
349.03999999999985
20
85.357715250169264
30
-1.1102230246251565e-14
10
349.03999999999985
20
85.909999999999869
30
-1.1102230246251565e-14
0
LINE
5
383
100
AcDbEntity
8
0
100
AcDbLine
10
344.13200000000273
20
46.809999999999775
30
-1.1102230246251565e-14
11
344.13200000000273
21
45.809999701766287
31
-6.6613381477509392e-15
0
LINE
5
384
100
AcDbEntity
8
0
100
AcDbLine
10
74.249999999999858
20
104.96000000000012
30
-4.4408920985006262e-15
11
74.249999999999858
21
116.96000000000028
31
-2.2204460492503131e-15
0
SPLINE
5
385
100
AcDbEntity
8
0
100
AcDbSpline
70
0
71
3
72
8
73
4
74
0
42
0.000000001
43
0.0000000001
44
0.0000000001
40
-1
40
-1
40
-1
40
-1
40
0
40
0
40
0
40
0
10
375.23875000000004
20
60.810000000000272
30
-1.1102230246251565e-14
10
375.791034749831
20
60.810000000000272
30
-1.1102230246251565e-14
10
376.23874999999998
20
60.362284749830557
30
-1.1102230246251565e-14
10
376.23874999999998
20
59.810000000000223
30
-1.1102230246251565e-14
0
LINE
5
386
100
AcDbEntity
8
0
100
AcDbLine
10
363.03999999999979
20
97.909999999999968
30
-1.1102230246251565e-14
11
363.03999999999985
21
85.909999999999883
31
-1.1102230246251565e-14
0
LINE
5
387
100
AcDbEntity
8
0
100
AcDbLine
10
87.250000000000057
20
103.96000000000004
30
-2.2204460492503131e-15
11
75.249999999999886
21
103.96000000000004
31
-4.4408920985006262e-15
0
LINE
5
388
100
AcDbEntity
8
0
100
AcDbLine
10
337.04500000000019
20
60.810000000000279
30
-1.1102230246251565e-14
11
358.57000000000016
21
60.810000000000279
31
-1.1102230246251565e-14
0
SPLINE
5
389
100
AcDbEntity
8
0
100
AcDbSpline
70
0
71
3
72
8
73
4
74
0
42
0.000000001
43
0.0000000001
44
0.0000000001
40
-1
40
-1
40
-1
40
-1
40
0
40
0
40
0
40
0
10
376.23874999999998
20
47.809999999999803
30
-1.1102230246251565e-14
10
376.23874999999998
20
47.257715250169497
30
-1.1102230246251565e-14
10
375.791034749831
20
46.809999999999768
30
-1.1102230246251565e-14
10
375.23874999999987
20
46.809999999999768
30
-1.1102230246251565e-14
0
LINE
5
390
100
AcDbEntity
8
0
100
AcDbLine
10
337.13200000000506
20
46.809999999999775
30
-4.4408920985006262e-15
11
337.04500000000019
21
46.809999999999775
31
-4.4408920985006262e-15
0
SPLINE
5
391
100
AcDbEntity
8
0
100
AcDbSpline
70
0
71
3
72
8
73
4
74
0
42
0.000000001
43
0.0000000001
44
0.0000000001
40
-1
40
-1
40
-1
40
-1
40
0
40
0
40
0
40
0
10
344.13200000000273
20
45.809999701766273
30
-4.4408920985006262e-15
10
344.13200000000273
20
45.257714951936592
30
-4.4408920985006262e-15
10
343.68428474983364
20
44.809999701767524
30
-4.4408920985006262e-15
10
343.1320000000033
20
44.809999701768163
30
-4.4408920985006262e-15
0
SPLINE
5
392
100
AcDbEntity
8
0
100
AcDbSpline
70
0
71
3
72
8
73
4
74
0
42
0.000000001
43
0.0000000001
44
0.0000000001
40
-1
40
-1
40
-1
40
-1
40
0
40
0
40
0
40
0
10
376.23874999999998
20
47.809999999999818
30
-1.1102230246251565e-14
10
376.23874999999998
20
47.257715250169497
30
-1.1102230246251565e-14
10
375.791034749831
20
46.809999999999789
30
-1.1102230246251565e-14
10
375.23875000000004
20
46.809999999999789
30
-1.1102230246251565e-14
0
LINE
5
393
100
AcDbEntity
8
0
100
AcDbLine
10
343.1320000000033
20
44.809999701768163
30
-6.6613381477509392e-15
11
338.13200000000444
21
44.809999701768163
31
-4.4408920985006262e-15
0
LINE
5
394
100
AcDbEntity
8
0
100
AcDbLine
10
337.13200000000427
20
45.809999701767566
30
-4.4408920985006262e-15
11
337.13200000000506
21
46.809999999999775
31
-4.4408920985006262e-15
0
LINE
5
395
100
AcDbEntity
8
0
100
AcDbLine
10
361.59799999999763
20
67.86000029823191
30
-1.1102230246251565e-14
11
361.59799999999763
21
80.860000298233672
31
-1.1102230246251565e-14
0
LINE
5
396
100
AcDbEntity
8
0
100
AcDbLine
10
60.070000000000086
20
87.050000000000139
30
2.2204460492503131e-15
11
48.069999999999915
21
87.050000000000139
31
2.2204460492503131e-15
0
LINE
5
397
100
AcDbEntity
8
0
100
AcDbLine
10
337.04500000000019
20
60.810000000000279
30
-1.1102230246251565e-14
11
358.57000000000016
21
60.810000000000279
31
-1.1102230246251565e-14
0
SPLINE
5
398
100
AcDbEntity
8
0
100
AcDbSpline
70
0
71
3
72
8
73
4
74
0
42
0.000000001
43
0.0000000001
44
0.0000000001
40
-1
40
-1
40
-1
40
-1
40
0
40
0
40
0
40
0
10
338.72199999999623
20
66.860000298231256
30
-1.1102230246251565e-14
10
338.16971525016521
20
66.860000298231256
30
-1.1102230246251565e-14
10
337.72199999999594
20
67.307715548400978
30
-1.1102230246251565e-14
10
337.72199999999594
20
67.860000298231924
30
-1.1102230246251565e-14
0
LINE
5
399
100
AcDbEntity
8
0
100
AcDbLine
10
358.57000000000016
20
46.809999999999789
30
-1.1102230246251565e-14
11
344.13200000000273
21
46.809999999999775
31
-1.1102230246251565e-14
0
LINE
5
400
100
AcDbEntity
8
0
100
AcDbLine
10
337.13200000000506
20
46.809999999999775
30
-4.4408920985006262e-15
11
337.04500000000019
21
46.809999999999775
31
-4.4408920985006262e-15
0
SPLINE
5
401
100
AcDbEntity
8
0
100
AcDbSpline
70
0
71
3
72
8
73
4
74
0
42
0.000000001
43
0.0000000001
44
0.0000000001
40
-1
40
-1
40
-1
40
-1
40
0
40
0
40
0
40
0
10
362.00800000000595
20
44.809999701768149
30
-1.1102230246251565e-14
10
361.45571525017499
20
44.809999701768149
30
-1.1102230246251565e-14
10
361.00800000000663
20
45.257714951937231
30
-1.1102230246251565e-14
10
361.00800000000589
20
45.809999701767552
30
-1.1102230246251565e-14
0
SPLINE
5
402
100
AcDbEntity
8
0
100
AcDbSpline
70
0
71
3
72
8
73
4
74
0
42
0.000000001
43
0.0000000001
44
0.0000000001
40
-1
40
-1
40
-1
40
-1
40
0
40
0
40
0
40
0
10
362.63000000000028
20
117.95999999999985
30
-1.1102230246251565e-14
10
363.18228474983073
20
117.95999999999985
30
-1.1102230246251565e-14
10
363.62999999999988
20
117.5122847498308
30
-1.1102230246251565e-14
10
363.62999999999988
20
116.96000000000015
30
-1.1102230246251565e-14
0
SPLINE
5
403
100
AcDbEntity
8
0
100
AcDbSpline
70
0
71
3
72
8
73
4
74
0
42
0.000000001
43
0.0000000001
44
0.0000000001
40
-1
40
-1
40
-1
40
-1
40
0
40
0
40
0
40
0
10
368.59799999999541
20
67.860000298231924
30
-1.1102230246251565e-14
10
368.59799999999541
20
67.307715548401305
30
-1.1102230246251565e-14
10
368.15028474982626
20
66.860000298232208
30
-1.1102230246251565e-14
10
367.59799999999586
20
66.860000298232208
30
-1.1102230246251565e-14
0
LINE
5
404
100
AcDbEntity
8
0
100
AcDbLine
10
361.59799999999763
20
67.86000029823191
30
-1.1102230246251565e-14
11
361.59799999999763
21
80.860000298233672
31
-1.1102230246251565e-14
0
SPLINE
5
405
100
AcDbEntity
8
0
100
AcDbSpline
70
0
71
3
72
8
73
4
74
0
42
0.000000001
43
0.0000000001
44
0.0000000001
40
-1
40
-1
40
-1
40
-1
40
0
40
0
40
0
40
0
10
367.79560000000004
20
28.712000000000231
30
-1.1102230246251565e-14
10
367.79560000000004
20
28.15971525016927
30
-1.1102230246251565e-14
10
367.34788474983105
20
27.712000000000188
30
-1.1102230246251565e-14
10
366.79560000000026
20
27.712000000000188
30
-1.1102230246251565e-14
0
SPLINE
5
406
100
AcDbEntity
8
0
100
AcDbSpline
70
0
71
3
72
8
73
4
74
0
42
0.000000001
43
0.0000000001
44
0.0000000001
40
-1
40
-1
40
-1
40
-1
40
0
40
0
40
0
40
0
10
353.79559999999958
20
40.71200000000001
30
-1.1102230246251565e-14
10
353.79559999999958
20
41.264284749830949
30
-1.1102230246251565e-14
10
354.24331525016942
20
41.712000000000046
30
-1.1102230246251565e-14
10
354.79559999999947
20
41.712000000000046
30
-1.1102230246251565e-14
0
LINE
5
407
100
AcDbEntity
8
0
100
AcDbLine
10
359.15999999999997
20
65.859999999999985
30
-1.1102230246251565e-14
11
347.16000000000014
21
65.859999999999999
31
-1.1102230246251565e-14
0
SPLINE
5
408
100
AcDbEntity
8
0
100
AcDbSpline
70
0
71
3
72
8
73
4
74
0
42
0.000000001
43
0.0000000001
44
0.0000000001
40
-1
40
-1
40
-1
40
-1
40
0
40
0
40
0
40
0
10
347.16000000000014
20
65.859999999999985
30
-1.1102230246251565e-14
10
346.60771525016918
20
65.859999999999985
30
-1.1102230246251565e-14
10
346.15999999999997
20
66.307715250169053
30
-1.1102230246251565e-14
10
346.15999999999997
20
66.860000000000014
30
-1.1102230246251565e-14
0
SPLINE
5
409
100
AcDbEntity
8
0
100
AcDbSpline
70
0
71
3
72
8
73
4
74
0
42
0.000000001
43
0.0000000001
44
0.0000000001
40
-1
40
-1
40
-1
40
-1
40
0
40
0
40
0
40
0
10
75.249999999999886
20
103.96000000000004
30
-2.2204460492503131e-15
10
74.697715250169267
20
103.96000000000004
30
-2.2204460492503131e-15
10
74.249999999999858
20
104.40771525016913
30
-2.2204460492503131e-15
10
74.249999999999858
20
104.96000000000009
30
-2.2204460492503131e-15
0
SPLINE
5
410
100
AcDbEntity
8
0
100
AcDbSpline
70
0
71
3
72
8
73
4
74
0
42
0.000000001
43
0.0000000001
44
0.0000000001
40
-1
40
-1
40
-1
40
-1
40
0
40
0
40
0
40
0
10
356.54300000000546
20
101.95999970176806
30
-1.1102230246251565e-14
10
355.99071525017507
20
101.95999970176837
30
-1.1102230246251565e-14
10
355.54300000000609
20
102.40771495193711
30
-1.1102230246251565e-14
10
355.54300000000609
20
102.95999970176779
30
-1.1102230246251565e-14
0
SPLINE
5
411
100
AcDbEntity
8
0
100
AcDbSpline
70
0
71
3
72
8
73
4
74
0
42
0.000000001
43
0.0000000001
44
0.0000000001
40
-1
40
-1
40
-1
40
-1
40
0
40
0
40
0
40
0
10
338.13200000000438
20
44.809999701768149
30
-4.4408920985006262e-15
10
337.57971525017342
20
44.809999701768149
30
-4.4408920985006262e-15
10
337.13200000000506
20
45.257714951937231
30
-4.4408920985006262e-15
10
337.13200000000427
20
45.809999701767552
30
-4.4408920985006262e-15
0
SPLINE
5
412
100
AcDbEntity
8
0
100
AcDbSpline
70
0
71
3
72
8
73
4
74
0
42
0.000000001
43
0.0000000001
44
0.0000000001
40
-1
40
-1
40
-1
40
-1
40
0
40
0
40
0
40
0
10
353.79559999999969
20
40.712000000000032
30
-1.1102230246251565e-14
10
353.79559999999969
20
41.264284749830971
30
-1.1102230246251565e-14
10
354.24331525016953
20
41.71200000000006
30
-1.1102230246251565e-14
10
354.79559999999964
20
41.71200000000006
30
-1.1102230246251565e-14
0
SPLINE
5
413
100
AcDbEntity
8
0
100
AcDbSpline
70
0
71
3
72
8
73
4
74
0
42
0.000000001
43
0.0000000001
44
0.0000000001
40
-1
40
-1
40
-1
40
-1
40
0
40
0
40
0
40
0
10
337.04500000000007
20
46.809999999999775
30
-4.4408920985006262e-15
10
336.49271525016911
20
46.809999999999775
30
-4.4408920985006262e-15
10
336.04500000000002
20
47.257715250168872
30
-4.4408920985006262e-15
10
336.04500000000002
20
47.80999999999981
30
-4.4408920985006262e-15
0
LINE
5
414
100
AcDbEntity
8
0
100
AcDbLine
10
353.79559999999941
20
28.712000000000234
30
-4.4408920985006262e-15
11
353.79559999999958
21
40.712000000000032
31
-8.8817841970012523e-15
0
SPLINE
5
415
100
AcDbEntity
8
0
100
AcDbSpline
70
0
71
3
72
8
73
4
74
0
42
0.000000001
43
0.0000000001
44
0.0000000001
40
-1
40
-1
40
-1
40
-1
40
0
40
0
40
0
40
0
10
362.63000000000022
20
117.95999999999985
30
-1.1102230246251565e-14
10
363.18228474983061
20
117.95999999999985
30
-1.1102230246251565e-14
10
363.62999999999971
20
117.51228474983073
30
-1.1102230246251565e-14
10
363.62999999999971
20
116.96000000000015
30
-1.1102230246251565e-14
0
SPLINE
5
416
100
AcDbEntity
8
0
100
AcDbSpline
70
0
71
3
72
8
73
4
74
0
42
0.000000001
43
0.0000000001
44
0.0000000001
40
-1
40
-1
40
-1
40
-1
40
0
40
0
40
0
40
0
10
354.79559999999964
20
27.712000000000195
30
-6.6613381477509392e-15
10
354.24331525016953
20
27.712000000000195
30
-4.4408920985006262e-15
10
353.79559999999969
20
28.159715250169278
30
-4.4408920985006262e-15
10
353.79559999999969
20
28.712000000000238
30
-6.6613381477509392e-15
0
LINE
5
417
100
AcDbEntity
8
0
100
AcDbLine
10
337.72199999999594
20
67.860000298231924
30
-1.1102230246251565e-14
11
337.72199999999594
21
80.860000298231753
31
-1.1102230246251565e-14
0
SPLINE
5
418
100
AcDbEntity
8
0
100
AcDbSpline
70
0
71
3
72
8
73
4
74
0
42
0.000000001
43
0.0000000001
44
0.0000000001
40
-1
40
-1
40
-1
40
-1
40
0
40
0
40
0
40
0
10
349.03999999999985
20
97.909999999999982
30
-1.1102230246251565e-14
10
349.03999999999985
20
98.462284749830914
30
-1.1102230246251565e-14
10
349.48771525016889
20
98.910000000000039
30
-1.1102230246251565e-14
10
350.04000000000008
20
98.910000000000039
30
-1.1102230246251565e-14
0
SPLINE
5
419
100
AcDbEntity
8
0
100
AcDbSpline
70
0
71
3
72
8
73
4
74
0
42
0.000000001
43
0.0000000001
44
0.0000000001
40
-1
40
-1
40
-1
40
-1
40
0
40
0
40
0
40
0
10
359.56999999999994
20
47.809999999999818
30
-1.1102230246251565e-14
10
359.56999999999994
20
47.257715250168879
30
-1.1102230246251565e-14
10
359.12228474983095
20
46.809999999999789
30
-1.1102230246251565e-14
10
358.57000000000016
20
46.809999999999789
30
-1.1102230246251565e-14
0
SPLINE
5
420
100
AcDbEntity
8
0
100
AcDbSpline
70
0
71
3
72
8
73
4
74
0
42
0.000000001
43
0.0000000001
44
0.0000000001
40
-1
40
-1
40
-1
40
-1
40
0
40
0
40
0
40
0
10
354.79559999999947
20
27.712000000000195
30
-4.4408920985006262e-15
10
354.24331525016942
20
27.712000000000195
30
-4.4408920985006262e-15
10
353.79559999999958
20
28.15971525016927
30
-4.4408920985006262e-15
10
353.79559999999958
20
28.712000000000234
30
-4.4408920985006262e-15
0
SPLINE
5
421
100
AcDbEntity
8
0
100
AcDbSpline
70
0
71
3
72
8
73
4
74
0
42
0.000000001
43
0.0000000001
44
0.0000000001
40
-1
40
-1
40
-1
40
-1
40
0
40
0
40
0
40
0
10
368.00800000000424
20
45.809999701768199
30
-1.1102230246251565e-14
10
368.00800000000294
20
45.257714951937238
30
-1.1102230246251565e-14
10
367.56028474983395
20
44.809999701768788
30
-1.1102230246251565e-14
10
367.00800000000299
20
44.809999701768149
30
-1.1102230246251565e-14
0
LINE
5
422
100
AcDbEntity
8
0
100
AcDbLine
10
375.23874999999987
20
46.809999999999768
30
-1.1102230246251565e-14
11
368.00800000000407
21
46.809999999999768
31
-1.1102230246251565e-14
0
LINE
5
423
100
AcDbEntity
8
0
100
AcDbLine
10
75.249999999999886
20
117.95999999999998
30
-2.2204460492503131e-15
11
87.250000000000057
21
117.95999999999998
31
-2.2204460492503131e-15
0
LINE
5
424
100
AcDbEntity
8
0
100
AcDbLine
10
343.1320000000033
20
44.809999701768163
30
-6.6613381477509392e-15
11
338.13200000000444
21
44.809999701768163
31
-4.4408920985006262e-15
0
SPLINE
5
425
100
AcDbEntity
8
0
100
AcDbSpline
70
0
71
3
72
8
73
4
74
0
42
0.000000001
43
0.0000000001
44
0.0000000001
40
-1
40
-1
40
-1
40
-1
40
0
40
0
40
0
40
0
10
344.13200000000273
20
45.809999701766287
30
-6.6613381477509392e-15
10
344.13200000000273
20
45.257714951936606
30
-6.6613381477509392e-15
10
343.68428474983369
20
44.809999701767524
30
-6.6613381477509392e-15
10
343.1320000000033
20
44.809999701768163
30
-6.6613381477509392e-15
0
SPLINE
5
426
100
AcDbEntity
8
0
100
AcDbSpline
70
0
71
3
72
8
73
4
74
0
42
0.000000001
43
0.0000000001
44
0.0000000001
40
-1
40
-1
40
-1
40
-1
40
0
40
0
40
0
40
0
10
120.07573255987293
20
26.660436939769635
30
2.2204460492503131e-15
10
119.53551655690397
20
26.775263395919925
30
2.2204460492503131e-15
10
119.19067019380651
20
27.306280228352623
30
2.2204460492503131e-15
10
119.30549664995678
20
27.846496231321286
30
2.2204460492503131e-15
0
LINE
5
427
100
AcDbEntity
8
0
100
AcDbLine
10
79.619999999999919
20
27.760000000000282
30
2.2204460492503131e-15
11
67.619999999999834
21
27.760000000000282
31
2.2204460492503131e-15
0
SPLINE
5
428
100
AcDbEntity
8
0
100
AcDbSpline
70
0
71
3
72
8
73
4
74
0
42
0.000000001
43
0.0000000001
44
0.0000000001
40
-1
40
-1
40
-1
40
-1
40
0
40
0
40
0
40
0
10
86.759999999999991
20
60.810000000000329
30
2.2204460492503131e-15
10
87.312284749830582
20
60.810000000000329
30
2.2204460492503131e-15
10
87.759999999999991
20
60.362284749830607
30
2.2204460492503131e-15
10
87.759999999999991
20
59.810000000000301
30
2.2204460492503131e-15
0
LINE
5
429
100
AcDbEntity
8
0
100
AcDbLine
10
87.849999999999994
20
84.909999999999883
30
4.4408920985006262e-15
11
75.849999999999909
21
84.91000000000021
31
2.2204460492503131e-15
0
SPLINE
5
430
100
AcDbEntity
8
0
100
AcDbSpline
70
0
71
3
72
8
73
4
74
0
42
0.000000001
43
0.0000000001
44
0.0000000001
40
-1
40
-1
40
-1
40
-1
40
0
40
0
40
0
40
0
10
80.619999999999948
20
28.760000000000311
30
2.2204460492503131e-15
10
80.619999999999948
20
28.207715250169358
30
2.2204460492503131e-15
10
80.172284749830879
20
27.760000000000279
30
2.2204460492503131e-15
10
79.619999999999919
20
27.760000000000282
30
2.2204460492503131e-15
0
LINE
5
431
100
AcDbEntity
8
0
100
AcDbLine
10
87.759999999999991
20
59.810000000000301
30
2.2204460492503131e-15
11
87.759999999999991
21
47.80999999999986
31
2.2204460492503131e-15
0
LINE
5
432
100
AcDbEntity
8
0
100
AcDbLine
10
96.198000000003177
20
58.809999701769335
30
2.2204460492503131e-15
11
96.198000000003177
21
45.809999701768227
31
2.2204460492503131e-15
0
LINE
5
433
100
AcDbEntity
8
0
100
AcDbLine
10
65.322000000004692
20
45.809999701768263
30
2.2204460492503131e-15
11
65.322000000004721
21
58.809999701768078
31
2.2204460492503131e-15
0
SPLINE
5
434
100
AcDbEntity
8
0
100
AcDbSpline
70
0
71
3
72
8
73
4
74
0
42
0.000000001
43
0.0000000001
44
0.0000000001
40
-1
40
-1
40
-1
40
-1
40
0
40
0
40
0
40
0
10
65.322000000004692
20
58.809999701768056
30
2.2204460492503131e-15
10
65.322000000004692
20
59.362284451598995
30
2.2204460492503131e-15
10
65.769715250173775
20
59.809999701768092
30
2.2204460492503131e-15
10
66.322000000004408
20
59.809999701768092
30
2.2204460492503131e-15
0
LINE
5
435
100
AcDbEntity
8
0
100
AcDbLine
10
197.66350376867842
20
11.705496649956611
30
-2.2204460492503131e-15
11
183.59774127012622
21
14.695266763916406
31
-2.2204460492503131e-15
0
SPLINE
5
436
100
AcDbEntity
8
0
100
AcDbSpline
70
0
71
3
72
8
73
4
74
0
42
0.000000001
43
0.0000000001
44
0.0000000001
40
-1
40
-1
40
-1
40
-1
40
0
40
0
40
0
40
0
10
79.619999999999919
20
41.760000000000147
30
2.2204460492503131e-15
10
80.172284749830879
20
41.760000000000133
30
2.2204460492503131e-15
10
80.619999999999948
20
41.312284749831065
30
2.2204460492503131e-15
10
80.619999999999948
20
40.760000000000112
30
2.2204460492503131e-15
0
LINE
5
437
100
AcDbEntity
8
0
100
AcDbLine
10
71.322000000003953
20
44.809999701768213
30
2.2204460492503131e-15
11
66.322000000004735
21
44.809999701768213
31
2.2204460492503131e-15
0
ARC
5
438
100
AcDbEntity
8
0
100
AcDbCircle
10
86.162499999999866
20
66.860000000000014
30
2.2204460492503131e-15
40
0.99999999999997868
210
4.1199682554447745e-17
220
-1.4637067577342798e-30
230
1
100
AcDbArc
50
-90.000000000002444
51
0
0
SPLINE
5
439
100
AcDbEntity
8
0
100
AcDbSpline
70
0
71
3
72
8
73
4
74
0
42
0.000000001
43
0.0000000001
44
0.0000000001
40
-1
40
-1
40
-1
40
-1
40
0
40
0
40
0
40
0
10
89.198000000006175
20
58.809999701768078
30
2.2204460492503131e-15
10
89.198000000006175
20
59.362284451599656
30
2.2204460492503131e-15
10
89.645715250175584
20
59.809999701768746
30
2.2204460492503131e-15
10
90.198000000006544
20
59.809999701768746
30
2.2204460492503131e-15
0
LINE
5
440
100
AcDbEntity
8
0
100
AcDbLine
10
135.49450335004315
20
36.673503768678287
30
4.4408920985006262e-15
11
132.99956306023012
21
24.935732559872768
31
4.4408920985006262e-15
0
LINE
5
441
100
AcDbEntity
8
0
100
AcDbLine
10
80.619999999999948
20
40.760000000000105
30
2.2204460492503131e-15
11
80.619999999999948
21
28.760000000000311
31
2.2204460492503131e-15
0
LINE
5
442
100
AcDbEntity
8
0
100
AcDbLine
10
122.98649623132142
20
40.354503350042961
30
4.4408920985006262e-15
11
134.72426744012728
21
37.859563060229952
31
4.4408920985006262e-15
0
SPLINE
5
443
100
AcDbEntity
8
0
100
AcDbSpline
70
0
71
3
72
8
73
4
74
0
42
0.000000001
43
0.0000000001
44
0.0000000001
40
-1
40
-1
40
-1
40
-1
40
0
40
0
40
0
40
0
10
69.399999999999835
20
65.860000000000042
30
2.2204460492503131e-15
10
68.84771525016923
20
65.860000000000042
30
2.2204460492503131e-15
10
68.400000000000148
20
66.307715250169124
30
2.2204460492503131e-15
10
68.399999999999821
20
66.860000000000056
30
2.2204460492503131e-15
0
LINE
5
444
100
AcDbEntity
8
0
100
AcDbLine
10
73.759999999999877
20
47.809999999999881
30
2.2204460492503131e-15
11
73.759999999999877
21
59.810000000000301
31
2.2204460492503131e-15
0
LINE
5
445
100
AcDbEntity
8
0
100
AcDbLine
10
90.198000000006459
20
59.809999701768731
30
2.2204460492503131e-15
11
95.19800000000285
21
59.809999701768731
31
2.2204460492503131e-15
0
SPLINE
5
446
100
AcDbEntity
8
0
100
AcDbSpline
70
0
71
3
72
8
73
4
74
0
42
0.000000001
43
0.0000000001
44
0.0000000001
40
-1
40
-1
40
-1
40
-1
40
0
40
0
40
0
40
0
10
67.619999999999834
20
27.760000000000282
30
2.2204460492503131e-15
10
67.067715250169186
20
27.760000000000282
30
2.2204460492503131e-15
10
66.62000000000009
20
28.207715250169365
30
2.2204460492503131e-15
10
66.619999999999777
20
28.760000000000314
30
2.2204460492503131e-15
0
LINE
5
447
100
AcDbEntity
8
0
100
AcDbLine
10
67.619999999999834
20
41.760000000000126
30
2.2204460492503131e-15
11
79.619999999999919
21
41.760000000000126
31
2.2204460492503131e-15
0
SPLINE
5
448
100
AcDbEntity
8
0
100
AcDbSpline
70
0
71
3
72
8
73
4
74
0
42
0.000000001
43
0.0000000001
44
0.0000000001
40
-1
40
-1
40
-1
40
-1
40
0
40
0
40
0
40
0
10
79.619999999999919
20
41.760000000000126
30
2.2204460492503131e-15
10
80.172284749830879
20
41.760000000000126
30
2.2204460492503131e-15
10
80.619999999999948
20
41.312284749831051
30
2.2204460492503131e-15
10
80.619999999999948
20
40.760000000000105
30
2.2204460492503131e-15
0
LINE
5
449
100
AcDbEntity
8
0
100
AcDbLine
10
96.198000000003177
20
58.809999701769335
30
2.2204460492503131e-15
11
96.198000000003177
21
45.809999701768227
31
2.2204460492503131e-15
0
SPLINE
5
450
100
AcDbEntity
8
0
100
AcDbSpline
70
0
71
3
72
8
73
4
74
0
42
0.000000001
43
0.0000000001
44
0.0000000001
40
-1
40
-1
40
-1
40
-1
40
0
40
0
40
0
40
0
10
120.07573255987285
20
26.660436939769628
30
2.2204460492503131e-15
10
119.53551655690393
20
26.775263395919918
30
2.2204460492503131e-15
10
119.19067019380648
20
27.306280228352623
30
2.2204460492503131e-15
10
119.30549664995678
20
27.846496231321286
30
2.2204460492503131e-15
0
SPLINE
5
451
100
AcDbEntity
8
0
100
AcDbSpline
70
0
71
3
72
8
73
4
74
0
42
0.000000001
43
0.0000000001
44
0.0000000001
40
-1
40
-1
40
-1
40
-1
40
0
40
0
40
0
40
0
10
290.20450335004307
20
27.846496231321886
30
-6.6613381477509392e-15
10
290.31932980619342
20
27.306280228352584
30
-6.6613381477509392e-15
10
289.97448344309572
20
26.775263395920518
30
-6.6613381477509392e-15
10
289.43426744012709
20
26.660436939770236
30
-6.6613381477509392e-15
0
SPLINE
5
452
100
AcDbEntity
8
0
100
AcDbSpline
70
0
71
3
72
8
73
4
74
0
42
0.000000001
43
0.0000000001
44
0.0000000001
40
-1
40
-1
40
-1
40
-1
40
0
40
0
40
0
40
0
10
90.19800000000555
20
44.809999701768213
30
2.2204460492503131e-15
10
89.645715250174902
20
44.809999701768213
30
2.2204460492503131e-15
10
89.198000000006175
20
45.257714951937288
30
2.2204460492503131e-15
10
89.198000000005891
20
45.809999701768248
30
2.2204460492503131e-15
0
LINE
5
453
100
AcDbEntity
8
0
100
AcDbLine
10
86.759999999999991
20
46.809999999999832
30
2.2204460492503131e-15
11
74.759999999999849
21
46.809999999999832
31
2.2204460492503131e-15
0
LINE
5
454
100
AcDbEntity
8
0
100
AcDbLine
10
74.849999999999852
20
85.909999999999911
30
2.2204460492503131e-15
11
74.849999999999852
21
97.910000000000039
31
4.4408920985006262e-15
0
LINE
5
455
100
AcDbEntity
8
0
100
AcDbLine
10
49.999999999999964
20
4.4408920985006262e-15
30
2.2204460492503131e-15
11
-3.5527136788005009e-14
21
4.4408920985006262e-15
31
2.2204460492503131e-15
0
LINE
5
456
100
AcDbEntity
8
0
100
AcDbLine
10
74.759999999999877
20
60.810000000000329
30
2.2204460492503131e-15
11
86.759999999999991
21
60.810000000000329
31
2.2204460492503131e-15
0
LINE
5
457
100
AcDbEntity
8
0
100
AcDbLine
10
72.322000000003683
20
58.809999701768078
30
2.2204460492503131e-15
11
72.322000000003683
21
45.809999701768248
31
2.2204460492503131e-15
0
LINE
5
458
100
AcDbEntity
8
0
100
AcDbLine
10
95.19800000000285
20
44.809999701768213
30
2.2204460492503131e-15
11
90.19800000000555
21
44.809999701768191
31
2.2204460492503131e-15
0
LINE
5
459
100
AcDbEntity
8
0
100
AcDbLine
10
89.198000000005891
20
45.809999701768248
30
2.2204460492503131e-15
11
89.198000000006175
21
58.809999701768056
31
2.2204460492503131e-15
0
LINE
5
460
100
AcDbEntity
8
0
100
AcDbLine
10
182.8275053602099
20
15.881326055468055
30
-2.2204460492503131e-15
11
185.32244565002321
21
27.619097264273588
31
-2.2204460492503131e-15
0
SPLINE
5
461
100
AcDbEntity
8
0
100
AcDbSpline
70
0
71
3
72
8
73
4
74
0
42
0.000000001
43
0.0000000001
44
0.0000000001
40
-1
40
-1
40
-1
40
-1
40
0
40
0
40
0
40
0
10
290.20450335004318
20
27.846496231321893
30
-6.6613381477509392e-15
10
290.31932980619342
20
27.306280228352584
30
-6.6613381477509392e-15
10
289.97448344309572
20
26.775263395920518
30
-6.6613381477509392e-15
10
289.43426744012709
20
26.660436939770236
30
-6.6613381477509392e-15
0
SPLINE
5
462
100
AcDbEntity
8
0
100
AcDbSpline
70
0
71
3
72
8
73
4
74
0
42
0.000000001
43
0.0000000001
44
0.0000000001
40
-1
40
-1
40
-1
40
-1
40
0
40
0
40
0
40
0
10
183.59774127012614
20
14.695266763916401
30
-2.2204460492503131e-15
10
183.05752526715713
20
14.810093220066678
30
-2.2204460492503131e-15
10
182.71267890405994
20
15.341110052498754
30
-2.2204460492503131e-15
10
182.8275053602099
20
15.881326055468055
30
-2.2204460492503131e-15
0
LINE
5
463
100
AcDbEntity
8
0
100
AcDbLine
10
95.19800000000285
20
44.809999701768213
30
2.2204460492503131e-15
11
90.19800000000555
21
44.809999701768191
31
2.2204460492503131e-15
0
LINE
5
464
100
AcDbEntity
8
0
100
AcDbLine
10
74.759999999999877
20
60.810000000000329
30
2.2204460492503131e-15
11
86.759999999999991
21
60.810000000000329
31
2.2204460492503131e-15
0
LINE
5
465
100
AcDbEntity
8
0
100
AcDbLine
10
135.49450335004315
20
36.673503768678287
30
4.4408920985006262e-15
11
132.99956306023012
21
24.935732559872768
31
4.4408920985006262e-15
0
LINE
5
466
100
AcDbEntity
8
0
100
AcDbLine
10
201.34450335004303
20
24.213503768678283
30
-2.2204460492503131e-15
11
198.84956306023008
21
12.475732559872759
31
-2.2204460492503131e-15
0
LINE
5
467
100
AcDbEntity
8
0
100
AcDbLine
10
186.50850494157504
20
28.389333174189744
30
-2.2204460492503131e-15
11
200.5742674401273
21
25.399563060229941
31
-2.2204460492503131e-15
0
SPLINE
5
468
100
AcDbEntity
8
0
100
AcDbSpline
70
0
71
3
72
8
73
4
74
0
42
0.000000001
43
0.0000000001
44
0.0000000001
40
-1
40
-1
40
-1
40
-1
40
0
40
0
40
0
40
0
10
198.84956306022991
20
12.475732559872759
30
-2.2204460492503131e-15
10
198.73473660407973
20
11.935516556904098
30
-2.2204460492503131e-15
10
198.20371977164734
20
11.590670193806329
30
-2.2204460492503131e-15
10
197.66350376867842
20
11.705496649956606
30
-2.2204460492503131e-15
0
SPLINE
5
469
100
AcDbEntity
8
0
100
AcDbSpline
70
0
71
3
72
8
73
4
74
0
42
0.000000001
43
0.0000000001
44
0.0000000001
40
-1
40
-1
40
-1
40
-1
40
0
40
0
40
0
40
0
10
185.32244565002321
20
27.619097264273588
30
-2.2204460492503131e-15
10
185.43727210617362
20
28.159313267242251
30
-2.2204460492503131e-15
10
185.96828893860604
20
28.504159630340023
30
-2.2204460492503131e-15
10
186.50850494157504
20
28.389333174189741
30
-2.2204460492503131e-15
0
LINE
5
470
100
AcDbEntity
8
0
100
AcDbLine
10
47.069999999999901
20
88.050000000000153
30
2.2204460492503131e-15
11
47.069999999999901
21
100.0499999999999
31
2.2204460492503131e-15
0
SPLINE
5
471
100
AcDbEntity
8
0
100
AcDbSpline
70
0
71
3
72
8
73
4
74
0
42
0.000000001
43
0.0000000001
44
0.0000000001
40
-1
40
-1
40
-1
40
-1
40
0
40
0
40
0
40
0
10
86.759999999999991
20
60.810000000000329
30
2.2204460492503131e-15
10
87.312284749830582
20
60.810000000000329
30
2.2204460492503131e-15
10
87.759999999999991
20
60.362284749830607
30
2.2204460492503131e-15
10
87.759999999999991
20
59.810000000000301
30
2.2204460492503131e-15
0
LINE
5
472
100
AcDbEntity
8
0
100
AcDbLine
10
89.198000000005891
20
45.809999701768248
30
2.2204460492503131e-15
11
89.198000000006175
21
58.809999701768056
31
2.2204460492503131e-15
0
LINE
5
473
100
AcDbEntity
8
0
100
AcDbLine
10
88.85000000000008
20
97.910000000000039
30
-2.2204460492503131e-15
11
88.850000000000051
21
85.909999999999926
31
2.2204460492503131e-15
0
LINE
5
474
100
AcDbEntity
8
0
100
AcDbLine
10
86.759999999999991
20
46.809999999999832
30
2.2204460492503131e-15
11
74.759999999999849
21
46.809999999999832
31
2.2204460492503131e-15
0
LINE
5
475
100
AcDbEntity
8
0
100
AcDbLine
10
90.198000000006459
20
59.809999701768731
30
2.2204460492503131e-15
11
95.19800000000285
21
59.809999701768731
31
2.2204460492503131e-15
0
LINE
5
476
100
AcDbEntity
8
0
100
AcDbLine
10
88.85000000000008
20
97.910000000000039
30
-2.2204460492503131e-15
11
88.850000000000051
21
85.909999999999926
31
2.2204460492503131e-15
0
SPLINE
5
477
100
AcDbEntity
8
0
100
AcDbSpline
70
0
71
3
72
8
73
4
74
0
42
0.000000001
43
0.0000000001
44
0.0000000001
40
-1
40
-1
40
-1
40
-1
40
0
40
0
40
0
40
0
10
87.759999999999991
20
47.80999999999986
30
2.2204460492503131e-15
10
87.759999999999991
20
47.257715250169539
30
2.2204460492503131e-15
10
87.312284749830582
20
46.809999999999839
30
2.2204460492503131e-15
10
86.759999999999991
20
46.809999999999839
30
2.2204460492503131e-15
0
SPLINE
5
478
100
AcDbEntity
8
0
100
AcDbSpline
70
0
71
3
72
8
73
4
74
0
42
0.000000001
43
0.0000000001
44
0.0000000001
40
-1
40
-1
40
-1
40
-1
40
0
40
0
40
0
40
0
10
198.84956306023008
20
12.475732559872759
30
-2.2204460492503131e-15
10
198.73473660407973
20
11.935516556904098
30
-2.2204460492503131e-15
10
198.20371977164734
20
11.590670193806329
30
-2.2204460492503131e-15
10
197.66350376867842
20
11.705496649956611
30
-2.2204460492503131e-15
0
LINE
5
479
100
AcDbEntity
8
0
100
AcDbLine
10
197.66350376867842
20
11.705496649956611
30
-2.2204460492503131e-15
11
183.59774127012622
21
14.695266763916406
31
-2.2204460492503131e-15
0
LINE
5
480
100
AcDbEntity
8
0
100
AcDbLine
10
289.43426744012709
20
26.660436939770236
30
-6.6613381477509392e-15
11
277.69649623132136
21
24.165496649956598
31
-6.6613381477509392e-15
0
SPLINE
5
481
100
AcDbEntity
8
0
100
AcDbSpline
70
0
71
3
72
8
73
4
74
0
42
0.000000001
43
0.0000000001
44
0.0000000001
40
-1
40
-1
40
-1
40
-1
40
0
40
0
40
0
40
0
10
96.198000000003177
20
45.809999701768248
30
2.2204460492503131e-15
10
96.198000000003177
20
45.257714951937288
30
2.2204460492503131e-15
10
95.75028474983381
20
44.809999701768191
30
2.2204460492503131e-15
10
95.19800000000285
20
44.809999701768191
30
2.2204460492503131e-15
0
LINE
5
482
100
AcDbEntity
8
0
100
AcDbLine
10
287.7095630602301
20
39.584267440127419
30
-6.6613381477509392e-15
11
290.20450335004307
21
27.846496231321886
31
-6.6613381477509392e-15
0
SPLINE
5
483
100
AcDbEntity
8
0
100
AcDbSpline
70
0
71
3
72
8
73
4
74
0
42
0.000000001
43
0.0000000001
44
0.0000000001
40
-1
40
-1
40
-1
40
-1
40
0
40
0
40
0
40
0
10
87.759999999999991
20
47.80999999999986
30
2.2204460492503131e-15
10
87.759999999999991
20
47.257715250169539
30
2.2204460492503131e-15
10
87.312284749830582
20
46.809999999999832
30
2.2204460492503131e-15
10
86.759999999999991
20
46.809999999999832
30
2.2204460492503131e-15
0
LINE
5
484
100
AcDbEntity
8
0
100
AcDbLine
10
182.8275053602099
20
15.881326055468055
30
-2.2204460492503131e-15
11
185.32244565002321
21
27.619097264273588
31
-2.2204460492503131e-15
0
SPLINE
5
485
100
AcDbEntity
8
0
100
AcDbSpline
70
0
71
3
72
8
73
4
74
0
42
0.000000001
43
0.0000000001
44
0.0000000001
40
-1
40
-1
40
-1
40
-1
40
0
40
0
40
0
40
0
10
96.198000000003219
20
45.809999701768248
30
2.2204460492503131e-15
10
96.198000000003219
20
45.257714951937288
30
2.2204460492503131e-15
10
95.75028474983381
20
44.809999701768213
30
2.2204460492503131e-15
10
95.19800000000285
20
44.809999701768213
30
2.2204460492503131e-15
0
LINE
5
486
100
AcDbEntity
8
0
100
AcDbLine
10
143.16886422867805
20
14.595456110000235
30
0
11
114.16696543258239
21
20.760000000000048
31
0
0
ARC
5
487
100
AcDbEntity
8
0
100
AcDbCircle
10
143.50152293398645
20
16.16049227117432
30
0
40
1.5999999999999936
210
0
220
0
230
1
100
AcDbArc
50
258.00000000000034
51
348.0000000000004
0
LINE
5
488
100
AcDbEntity
8
0
100
AcDbLine
10
145.44080013863248
20
17.588499247186775
30
0
11
145.06655909516053
21
15.827833565865919
31
0
0
ARC
5
489
100
AcDbEntity
8
0
100
AcDbCircle
10
147.00583629980659
20
17.255840541878371
30
0
40
1.5999999999999936
210
0
220
-0
230
1
100
AcDbArc
50
78.000000000000355
51
168.00000000000051
0
LINE
5
490
100
AcDbEntity
8
0
100
AcDbLine
10
147.33849500511499
20
18.820876703052456
30
0
11
169.07987223499697
21
14.199604313098016
31
0
0
ARC
5
491
100
AcDbEntity
8
0
100
AcDbCircle
10
168.74721352968857
20
12.634568151923929
30
0
40
1.5999999999999972
210
0
220
0
230
1
100
AcDbArc
50
-12.000000000000322
51
78.000000000000369
0
LINE
5
492
100
AcDbEntity
8
0
100
AcDbLine
10
170.31224969086264
20
12.301909446615507
30
0
11
169.93800864739069
21
10.541243765294659
31
0
0
ARC
5
493
100
AcDbEntity
8
0
100
AcDbCircle
10
171.50304480856477
20
10.208585059986238
30
0
40
1.5999999999999972
210
0
220
0
230
1
100
AcDbArc
50
167.99999999999969
51
258.00000000000028
0
LINE
5
494
100
AcDbEntity
8
0
100
AcDbLine
10
171.17038610325636
20
8.6435488988121616
30
0
11
208.74167136811835
21
0.65752568538983935
31
0
0
ARC
5
495
100
AcDbEntity
8
0
100
AcDbCircle
10
208.94958305893601
20
1.6356732861232253
30
0
40
0.99999999999957334
210
0
220
0
230
1
100
AcDbArc
50
258.00000000000011
51
270.00000000000489
0
LINE
5
496
100
AcDbEntity
8
0
100
AcDbLine
10
208.9495830589361
20
0.63567328612365204
30
0
11
209.79041694106147
21
0.63567328612364693
31
0
0
ARC
5
497
100
AcDbEntity
8
0
100
AcDbCircle
10
209.79041694106149
20
1.6356732861233381
30
0
40
0.99999999999969114
210
0
220
0
230
1
100
AcDbArc
50
269.99999999999835
51
282.00000000000171
0
LINE
5
498
100
AcDbEntity
8
0
100
AcDbLine
10
247.569613896741
20
8.6435488988121776
30
0
11
209.99832863187922
21
0.65752568538983924
31
0
0
ARC
5
499
100
AcDbEntity
8
0
100
AcDbCircle
10
247.2369551914326
20
10.208585059986264
30
0
40
1.5999999999999959
210
-0
220
0
230
1
100
AcDbArc
50
-78.000000000000341
51
11.999999999999865
0
LINE
5
500
100
AcDbEntity
8
0
100
AcDbLine
10
248.42775030913472
20
12.301909446615522
30
0
11
248.80199135260668
21
10.541243765294674
31
0
0
ARC
5
501
100
AcDbEntity
8
0
100
AcDbCircle
10
249.9927864703088
20
12.634568151923943
30
0
40
1.5999999999999712
210
0
220
0
230
1
100
AcDbArc
50
101.99999999999875
51
192.00000000000031
0
LINE
5
502
100
AcDbEntity
8
0
100
AcDbLine
10
249.66012776500042
20
14.199604313098014
30
0
11
271.40150499488232
21
18.820876703052448
31
0
0
ARC
5
503
100
AcDbEntity
8
0
100
AcDbCircle
10
271.73416370019072
20
17.255840541878328
30
0
40
1.6000000000000358
210
0
220
-0
230
1
100
AcDbArc
50
12.000000000000934
51
101.9999999999994
0
LINE
5
504
100
AcDbEntity
8
0
100
AcDbLine
10
273.2991998613648
20
17.588499247186768
30
0
11
273.67344090483675
21
15.827833565865925
31
0
0
ARC
5
505
100
AcDbEntity
8
0
100
AcDbCircle
10
275.23847706601089
20
16.160492271174341
30
0
40
1.6000000000000307
210
0
220
0
230
1
100
AcDbArc
50
191.99999999999972
51
281.99999999999733
0
LINE
5
506
100
AcDbEntity
8
0
100
AcDbLine
10
275.57113577131923
20
14.59545611000021
30
0
11
304.57303456741454
21
20.760000000000058
31
0
0
LINE
5
507
100
AcDbEntity
8
0
100
AcDbLine
10
366.67520373480897
20
20.760000000000069
30
0
11
304.57303456741454
21
20.760000000000058
31
0
0
ARC
5
508
100
AcDbEntity
8
0
100
AcDbCircle
10
366.67520373480897
20
22.360000000000035
30
0
40
1.5999999999999659
210
-0
220
0
230
1
100
AcDbArc
50
-90
51
0
0
LINE
5
509
100
AcDbEntity
8
0
100
AcDbLine
10
368.27520373480894
20
24.160000000000057
30
0
11
368.27520373480894
21
22.36000000000006
31
0
0
ARC
5
510
100
AcDbEntity
8
0
100
AcDbCircle
10
369.87520373480891
20
24.160000000000082
30
0
40
1.5999999999999659
210
0
220
-0
230
1
100
AcDbArc
50
90
51
180
0
LINE
5
511
100
AcDbEntity
8
0
100
AcDbLine
10
369.87520373480891
20
25.760000000000048
30
0
11
377.2387500000001
21
25.760000000000058
31
0
0
SPLINE
5
512
100
AcDbEntity
8
0
100
AcDbSpline
70
0
71
3
72
8
73
4
74
0
42
0.000000001
43
0.0000000001
44
0.0000000001
40
0
40
0
40
0
40
0
40
1
40
1
40
1
40
1
10
377.2387500000001
20
25.760000000000058
30
0
10
377.79103474983111
20
25.760000000000058
30
0
10
378.23875000000015
20
26.207715250169137
30
0
10
378.23875000000015
20
26.760000000000097
30
0
0
LINE
5
513
100
AcDbEntity
8
0
100
AcDbLine
10
378.23875000000015
20
121.10000000000001
30
0
11
378.23875000000015
21
26.760000000000097
31
0
0
SPLINE
5
514
100
AcDbEntity
8
0
100
AcDbSpline
70
0
71
3
72
8
73
4
74
0
42
0.000000001
43
0.0000000001
44
0.0000000001
40
0
40
0
40
0
40
0
40
1
40
1
40
1
40
1
10
378.23875000000015
20
121.10000000000001
30
0
10
378.23875000000015
20
121.65228474983101
30
0
10
377.79103474983111
20
122.10000000000011
30
0
10
377.2387500000001
20
122.10000000000011
30
0
0
LINE
5
515
100
AcDbEntity
8
0
100
AcDbLine
10
369.87520373480891
20
122.10000000000014
30
0
11
377.2387500000001
21
122.10000000000011
31
0
0
ARC
5
516
100
AcDbEntity
8
0
100
AcDbCircle
10
369.87520373480891
20
123.7000000000001
30
0
40
1.5999999999999659
210
0
220
0
230
1
100
AcDbArc
50
180
51
270
0
LINE
5
517
100
AcDbEntity
8
0
100
AcDbLine
10
368.27520373480894
20
123.70000000000012
30
0
11
368.27520373480894
21
125.50000000000011
31
0
0
ARC
5
518
100
AcDbEntity
8
0
100
AcDbCircle
10
366.67520373480897
20
125.50000000000013
30
0
40
1.5999999999999659
210
0
220
0
230
1
100
AcDbArc
50
0
51
90
0
LINE
5
519
100
AcDbEntity
8
0
100
AcDbLine
10
366.67520373480897
20
127.10000000000009
30
0
11
270.33517615521725
21
127.10000000000011
31
0
0
ARC
5
520
100
AcDbEntity
8
0
100
AcDbCircle
10
270.33517615521725
20
125.50000000000011
30
0
40
1.6000000000000014
210
0
220
-0
230
1
100
AcDbArc
50
90
51
180
0
LINE
5
521
100
AcDbEntity
8
0
100
AcDbLine
10
268.73517615521723
20
125.50000000000011
30
0
11
268.73517615521723
21
123.70000000000012
31
0
0
ARC
5
522
100
AcDbEntity
8
0
100
AcDbCircle
10
267.13517615521721
20
123.70000000000012
30
0
40
1.6000000000000014
210
-0
220
0
230
1
100
AcDbArc
50
-90
51
0
0
LINE
5
523
100
AcDbEntity
8
0
100
AcDbLine
10
248.90808362483477
20
122.10000000000011
30
0
11
267.13517615521721
21
122.10000000000011
31
0
0
ARC
5
524
100
AcDbEntity
8
0
100
AcDbCircle
10
248.90808362483477
20
123.70000000000012
30
0
40
1.6000000000000014
210
0
220
0
230
1
100
AcDbArc
50
180
51
270
0
LINE
5
525
100
AcDbEntity
8
0
100
AcDbLine
10
247.30808362483475
20
123.70000000000012
30
0
11
247.30808362483475
21
125.50000000000011
31
0
0
ARC
5
526
100
AcDbEntity
8
0
100
AcDbCircle
10
245.70808362483476
20
125.50000000000011
30
0
40
1.6000000000000014
210
0
220
0
230
1
100
AcDbArc
50
0
51
90
0
LINE
5
527
100
AcDbEntity
8
0
100
AcDbLine
10
245.70808362483476
20
127.10000000000011
30
0
11
173.03191637516261
21
127.10000000000011
31
0
0
ARC
5
528
100
AcDbEntity
8
0
100
AcDbCircle
10
173.03191637516255
20
125.50000000000013
30
0
40
1.5999999999999837
210
0
220
-0
230
1
100
AcDbArc
50
89.999999999997954
51
180
0
LINE
5
529
100
AcDbEntity
8
0
100
AcDbLine
10
171.43191637516259
20
125.50000000000011
30
0
11
171.43191637516259
21
123.70000000000012
31
0
0
ARC
5
530
100
AcDbEntity
8
0
100
AcDbCircle
10
169.83191637516262
20
123.7000000000001
30
0
40
1.5999999999999659
210
-0
220
0
230
1
100
AcDbArc
50
-90
51
0
0
LINE
5
531
100
AcDbEntity
8
0
100
AcDbLine
10
151.60482384478013
20
122.10000000000011
30
0
11
169.83191637516262
21
122.10000000000014
31
0
0
ARC
5
532
100
AcDbEntity
8
0
100
AcDbCircle
10
151.6048238447801
20
123.7000000000001
30
0
40
1.5999999999999837
210
0
220
0
230
1
100
AcDbArc
50
180
51
270.00000000000102
0
LINE
5
533
100
AcDbEntity
8
0
100
AcDbLine
10
150.00482384478011
20
123.70000000000012
30
0
11
150.00482384478011
21
125.50000000000011
31
0
0
ARC
5
534
100
AcDbEntity
8
0
100
AcDbCircle
10
148.40482384478014
20
125.50000000000013
30
0
40
1.5999999999999837
210
0
220
0
230
1
100
AcDbArc
50
0
51
90.000000000001009
0
LINE
5
535
100
AcDbEntity
8
0
100
AcDbLine
10
148.40482384478011
20
127.10000000000011
30
0
11
52.563546265191391
21
127.10000000000011
31
0
0
ARC
5
536
100
AcDbEntity
8
0
100
AcDbCircle
10
52.563546265191391
20
125.50000000000011
30
0
40
1.6000000000000014
210
0
220
-0
230
1
100
AcDbArc
50
90
51
180
0
LINE
5
537
100
AcDbEntity
8
0
100
AcDbLine
10
50.963546265191383
20
125.50000000000011
30
0
11
50.963546265191383
21
123.70000000000012
31
0
0
ARC
5
538
100
AcDbEntity
8
0
100
AcDbCircle
10
49.363546265191388
20
123.70000000000012
30
0
40
1.6000000000000014
210
-0
220
0
230
1
100
AcDbArc
50
-90
51
0
0
LINE
5
539
100
AcDbEntity
8
0
100
AcDbLine
10
41.999999999999886
20
122.10000000000011
30
0
11
49.363546265191388
21
122.10000000000011
31
0
0
SPLINE
5
540
100
AcDbEntity
8
0
100
AcDbSpline
70
0
71
3
72
8
73
4
74
0
42
0.000000001
43
0.0000000001
44
0.0000000001
40
0
40
0
40
0
40
0
40
1
40
1
40
1
40
1
10
41.999999999999886
20
122.10000000000011
30
0
10
41.447715250169246
20
122.10000000000011
30
0
10
41.000000000000163
20
121.65228474983101
30
0
10
41.000000000000163
20
121.10000000000001
30
0
0
LINE
5
541
100
AcDbEntity
8
0
100
AcDbLine
10
41.000000000000163
20
121.10000000000001
30
0
11
41.000000000000171
21
40.280000000000186
31
0
0
ARC
5
542
100
AcDbEntity
8
0
100
AcDbCircle
10
42.600000000000186
20
40.280000000000193
30
0
40
1.6000000000000103
210
0
220
0
230
1
100
AcDbArc
50
180
51
269.9999999999992
0
LINE
5
543
100
AcDbEntity
8
0
100
AcDbLine
10
42.600000000000165
20
38.680000000000177
30
0
11
43.000000000000171
21
38.680000000000177
31
0
0
ARC
5
544
100
AcDbEntity
8
0
100
AcDbCircle
10
43.000000000000156
20
36.68000000000017
30
0
40
2.0000000000000107
210
0
220
-0
230
1
100
AcDbArc
50
0
51
89.999999999999588
0
LINE
5
545
100
AcDbEntity
8
0
100
AcDbLine
10
45.000000000000171
20
36.680000000000177
30
0
11
45.000000000000171
21
27.36000000000006
31
0
0
ARC
5
546
100
AcDbEntity
8
0
100
AcDbCircle
10
46.600000000000186
20
27.36000000000007
30
0
40
1.6000000000000192
210
0
220
0
230
1
100
AcDbArc
50
180
51
269.99999999999949
0
LINE
5
547
100
AcDbEntity
8
0
100
AcDbLine
10
46.600000000000172
20
25.760000000000048
30
0
11
49.363546265191403
21
25.760000000000048
31
0
0
ARC
5
548
100
AcDbEntity
8
0
100
AcDbCircle
10
49.363546265191395
20
24.160000000000039
30
0
40
1.6000000000000103
210
0
220
-0
230
1
100
AcDbArc
50
0
51
89.999999999999744
0
LINE
5
549
100
AcDbEntity
8
0
100
AcDbLine
10
50.963546265191404
20
24.160000000000046
30
0
11
50.963546265191404
21
22.360000000000049
31
0
0
ARC
5
550
100
AcDbEntity
8
0
100
AcDbCircle
10
52.563546265191412
20
22.36000000000006
30
0
40
1.6000000000000103
210
0
220
0
230
1
100
AcDbArc
50
180
51
269.99999999999972
0
LINE
5
551
100
AcDbEntity
8
0
100
AcDbLine
10
52.563546265191405
20
20.760000000000048
30
0
11
114.16696543258239
21
20.760000000000048
31
0
0
ENDSEC
0
SECTION
2
OBJECTS
0
DICTIONARY
5
C
100
AcDbDictionary
3
ACAD_GROUP
350
D
3
ACAD_MLINESTYLE
350
17
0
DICTIONARY
5
D
100
AcDbDictionary
0
DICTIONARY
5
1A
330
C
100
AcDbDictionary
0
DICTIONARY
5
17
100
AcDbDictionary
0
ENDSEC
0
EOF
