0
SECTION
2
HEADER
9
$INSUNITS
70
4
9
$ACADVER
1
AC1014
9
$HANDSEED
5
FFFF
0
ENDSEC
0
SECTION
2
TABLES
0
TABLE
2
VPORT
5
8
100
AcDbSymbolTable
0
ENDTAB
0
TABLE
2
LTYPE
5
5
100
AcDbSymbolTable
70
2
0
LTYPE
5
14
100
AcDbSymbolTableRecord
100
AcDbLinetypeTableRecord
2
BYBLOCK
70
0
0
LTYPE
5
15
100
AcDbSymbolTableRecord
100
AcDbLinetypeTableRecord
2
BYLAYER
70
0
0
ENDTAB
0
TABLE
2
LAYER
5
2
100
AcDbSymbolTable
70
3
0
LAYER
5
50
100
AcDbSymbolTableRecord
100
AcDbLayerTableRecord
2
0
70
0
6
CONTINUOUS
0
LAYER
5
51
100
AcDbSymbolTableRecord
100
AcDbLayerTableRecord
2
CUTOUTS
70
0
62
1
6
CONTINUOUS
0
LAYER
5
52
100
AcDbSymbolTableRecord
100
AcDbLayerTableRecord
2
PERIMETER
70
0
62
5
6
CONTINUOUS
0
ENDTAB
0
TABLE
2
STYLE
5
3
100
AcDbSymbolTable
70
1
0
STYLE
5
11
100
AcDbSymbolTableRecord
100
AcDbTextStyleTableRecord
2
STANDARD
70
0
0
ENDTAB
0
TABLE
2
VIEW
5
6
100
AcDbSymbolTable
0
ENDTAB
0
TABLE
2
UCS
5
7
100
AcDbSymbolTable
0
ENDTAB
0
TABLE
2
APPID
5
9
100
AcDbSymbolTable
70
1
0
APPID
5
12
100
AcDbSymbolTableRecord
100
AcDbRegAppTableRecord
2
ACAD
70
0
0
ENDTAB
0
TABLE
2
DIMSTYLE
5
A
100
AcDbSymbolTable
0
ENDTAB
0
TABLE
2
BLOCK_RECORD
5
1
100
AcDbSymbolTable
70
2
0
BLOCK_RECORD
5
1F
100
AcDbSymbolTableRecord
100
AcDbBlockTableRecord
2
*MODEL_SPACE
0
BLOCK_RECORD
5
1B
100
AcDbSymbolTableRecord
100
AcDbBlockTableRecord
2
*PAPER_SPACE
0
ENDTAB
0
ENDSEC
0
SECTION
2
BLOCKS
0
BLOCK
5
20
100
AcDbEntity
100
AcDbBlockBegin
2
*MODEL_SPACE
0
ENDBLK
5
21
100
AcDbEntity
100
AcDbBlockEnd
0
BLOCK
5
1C
100
AcDbEntity
100
AcDbBlockBegin
2
*PAPER_SPACE
0
ENDBLK
5
1D
100
AcDbEntity
100
AcDbBlockEnd
0
ENDSEC
0
SECTION
2
ENTITIES
0
CIRCLE
5
100
100
AcDbEntity
8
CUTOUTS
100
AcDbCircle
10
-166.89931793422488
20
-29.745415350797757
30
4.4408920985006262e-15
40
1.9999999999999929
210
0
220
0
230
1
0
CIRCLE
5
101
100
AcDbEntity
8
CUTOUTS
100
AcDbCircle
10
-166.89931793422491
20
-38.745415350798069
30
4.4408920985006262e-15
40
1.9999999999999929
210
0
220
0
230
1
0
CIRCLE
5
102
100
AcDbEntity
8
CUTOUTS
100
AcDbCircle
10
-166.89931793422491
20
-34.245415350797586
30
4.4408920985006262e-15
40
1.9999999999999929
210
0
220
0
230
1
0
SPLINE
5
103
100
AcDbEntity
8
CUTOUTS
100
AcDbSpline
70
0
71
3
72
8
73
4
74
0
42
0.000000001
43
0.0000000001
44
0.0000000001
40
-1
40
-1
40
-1
40
-1
40
0
40
0
40
0
40
0
10
-143.29737499999544
20
-21.415415649029754
30
0
10
-143.84965974982609
20
-21.415415649029754
30
0
10
-144.2973749999955
20
-20.967700398860664
30
0
10
-144.2973749999955
20
-20.415415649029693
30
0
0
LINE
5
104
100
AcDbEntity
8
CUTOUTS
100
AcDbLine
10
-144.2973749999955
20
-20.415415649029693
30
0
11
-144.29737499999547
21
-7.4154156490298728
31
0
0
SPLINE
5
105
100
AcDbEntity
8
CUTOUTS
100
AcDbSpline
70
0
71
3
72
8
73
4
74
0
42
0.000000001
43
0.0000000001
44
0.0000000001
40
-1
40
-1
40
-1
40
-1
40
0
40
0
40
0
40
0
10
-144.2973749999955
20
-7.4154156490298817
30
0
10
-144.2973749999955
20
-6.8631308991989481
30
0
10
-143.8496597498264
20
-6.4154156490298497
30
0
10
-143.29737499999578
20
-6.4154156490298497
30
0
0
LINE
5
106
100
AcDbEntity
8
CUTOUTS
100
AcDbLine
10
-143.29737499999578
20
-6.4154156490298497
30
0
11
-138.29737499999592
21
-6.4154156490298497
31
0
0
SPLINE
5
107
100
AcDbEntity
8
CUTOUTS
100
AcDbSpline
70
0
71
3
72
8
73
4
74
0
42
0.000000001
43
0.0000000001
44
0.0000000001
40
-1
40
-1
40
-1
40
-1
40
0
40
0
40
0
40
0
10
-138.29737499999592
20
-6.4154156490298497
30
0
10
-137.7450902501653
20
-6.4154156490298497
30
0
10
-137.29737499999655
20
-6.8631308991989481
30
0
10
-137.29737499999655
20
-7.4154156490298817
30
0
0
LINE
5
108
100
AcDbEntity
8
CUTOUTS
100
AcDbLine
10
-137.29737499999655
20
-7.4154156490298817
30
0
11
-137.29737499999652
21
-20.415415649029693
31
0
0
SPLINE
5
109
100
AcDbEntity
8
CUTOUTS
100
AcDbSpline
70
0
71
3
72
8
73
4
74
0
42
0.000000001
43
0.0000000001
44
0.0000000001
40
-1
40
-1
40
-1
40
-1
40
0
40
0
40
0
40
0
10
-137.29737499999655
20
-20.415415649029693
30
0
10
-137.29737499999655
20
-20.967700398860664
30
0
10
-137.74509025016559
20
-21.415415649029754
30
0
10
-138.29737499999624
20
-21.415415649029754
30
0
0
LINE
5
10A
100
AcDbEntity
8
CUTOUTS
100
AcDbLine
10
-138.29737499999624
20
-21.415415649029754
30
0
11
-143.29737499999544
21
-21.415415649029743
31
0
0
LINE
5
10B
100
AcDbEntity
8
CUTOUTS
100
AcDbLine
10
136.54062499999981
20
0.63458464920207014
30
0
11
136.54062499999986
21
12.634584649202152
31
0
0
SPLINE
5
10C
100
AcDbEntity
8
CUTOUTS
100
AcDbSpline
70
0
71
3
72
8
73
4
74
0
42
0.000000001
43
0.0000000001
44
0.0000000001
40
-1
40
-1
40
-1
40
-1
40
0
40
0
40
0
40
0
10
136.54062499999986
20
12.634584649202152
30
0
10
136.54062499999986
20
13.186869399032801
30
0
10
136.98834025016907
20
13.634584649202202
30
0
10
137.54062499999998
20
13.634584649202202
30
0
0
LINE
5
10D
100
AcDbEntity
8
CUTOUTS
100
AcDbLine
10
137.54062499999998
20
13.634584649202202
30
0
11
149.54062499999986
21
13.634584649202202
31
0
0
SPLINE
5
10E
100
AcDbEntity
8
CUTOUTS
100
AcDbSpline
70
0
71
3
72
8
73
4
74
0
42
0.000000001
43
0.0000000001
44
0.0000000001
40
-1
40
-1
40
-1
40
-1
40
0
40
0
40
0
40
0
10
149.54062499999986
20
13.634584649202202
30
0
10
150.0929097498306
20
13.634584649201873
30
0
10
150.54062499999972
20
13.186869399032801
30
0
10
150.54062499999972
20
12.634584649202152
30
0
0
LINE
5
10F
100
AcDbEntity
8
CUTOUTS
100
AcDbLine
10
150.54062499999972
20
12.634584649202152
30
0
11
150.54062499999992
21
0.63458464920207014
31
0
0
SPLINE
5
110
100
AcDbEntity
8
CUTOUTS
100
AcDbSpline
70
0
71
3
72
8
73
4
74
0
42
0.000000001
43
0.0000000001
44
0.0000000001
40
-1
40
-1
40
-1
40
-1
40
0
40
0
40
0
40
0
10
150.54062499999972
20
0.63458464920207014
30
0
10
150.54062499999972
20
0.08229989937110993
30
0
10
150.0929097498306
20
-0.36541535079796184
30
0
10
149.54062499999986
20
-0.36541535079796184
30
0
0
LINE
5
111
100
AcDbEntity
8
CUTOUTS
100
AcDbLine
10
149.54062499999986
20
-0.36541535079796184
30
0
11
137.54062499999998
21
-0.36541535079794407
31
0
0
SPLINE
5
112
100
AcDbEntity
8
CUTOUTS
100
AcDbSpline
70
0
71
3
72
8
73
4
74
0
42
0.000000001
43
0.0000000001
44
0.0000000001
40
-1
40
-1
40
-1
40
-1
40
0
40
0
40
0
40
0
10
137.54062499999998
20
-0.36541535079796184
30
0
10
136.98834025016907
20
-0.36541535079796184
30
0
10
136.54062499999986
20
0.08229989937110993
30
0
10
136.54062499999986
20
0.63458464920207014
30
0
0
LINE
5
113
100
AcDbEntity
8
CUTOUTS
100
AcDbLine
10
144.17622499999936
20
-37.513415350797715
30
0
11
144.17622499999942
21
-25.513415350797935
31
0
0
SPLINE
5
114
100
AcDbEntity
8
CUTOUTS
100
AcDbSpline
70
0
71
3
72
8
73
4
74
0
42
0.000000001
43
0.0000000001
44
0.0000000001
40
-1
40
-1
40
-1
40
-1
40
0
40
0
40
0
40
0
10
144.17622499999942
20
-25.513415350797935
30
0
10
144.17622499999942
20
-24.961130600966996
30
0
10
144.62394025016926
20
-24.513415350797896
30
0
10
145.17622499999931
20
-24.513415350797896
30
0
0
LINE
5
115
100
AcDbEntity
8
CUTOUTS
100
AcDbLine
10
145.17622499999931
20
-24.513415350797896
30
0
11
157.1762249999999
21
-24.513415350797896
31
0
0
SPLINE
5
116
100
AcDbEntity
8
CUTOUTS
100
AcDbSpline
70
0
71
3
72
8
73
4
74
0
42
0.000000001
43
0.0000000001
44
0.0000000001
40
-1
40
-1
40
-1
40
-1
40
0
40
0
40
0
40
0
10
157.1762249999999
20
-24.513415350797896
30
0
10
157.72850974983101
20
-24.513415350797896
30
0
10
158.17622499999976
20
-24.961130600966985
30
0
10
158.17622499999976
20
-25.513415350797928
30
0
0
LINE
5
117
100
AcDbEntity
8
CUTOUTS
100
AcDbLine
10
158.17622499999985
20
-25.513415350797928
30
0
11
158.17622499999976
21
-37.513415350797715
31
0
0
SPLINE
5
118
100
AcDbEntity
8
CUTOUTS
100
AcDbSpline
70
0
71
3
72
8
73
4
74
0
42
0.000000001
43
0.0000000001
44
0.0000000001
40
-1
40
-1
40
-1
40
-1
40
0
40
0
40
0
40
0
10
158.17622499999976
20
-37.513415350797715
30
0
10
158.17622499999976
20
-38.065700100628675
30
0
10
157.72850974983101
20
-38.51341535079775
30
0
10
157.1762249999999
20
-38.51341535079775
30
0
0
LINE
5
119
100
AcDbEntity
8
CUTOUTS
100
AcDbLine
10
157.1762249999999
20
-38.51341535079775
30
0
11
145.17622499999931
21
-38.51341535079775
31
0
0
SPLINE
5
11A
100
AcDbEntity
8
CUTOUTS
100
AcDbSpline
70
0
71
3
72
8
73
4
74
0
42
0.000000001
43
0.0000000001
44
0.0000000001
40
-1
40
-1
40
-1
40
-1
40
0
40
0
40
0
40
0
10
145.17622499999931
20
-38.51341535079775
30
0
10
144.62394025016926
20
-38.51341535079775
30
0
10
144.17622499999942
20
-38.065700100628675
30
0
10
144.17622499999942
20
-37.513415350797715
30
0
0
LINE
5
11B
100
AcDbEntity
8
CUTOUTS
100
AcDbLine
10
-111.60500729086678
20
12.02922004940187
30
0
11
-112.01374270913396
21
13.040875709680595
31
0
0
ARC
5
11C
100
AcDbEntity
8
CUTOUTS
100
AcDbCircle
10
-110.15937500000152
20
13.790088896512183
30
0
40
1.999999999998856
210
0
220
0
230
1
100
AcDbArc
50
180
51
202.0000000000058
0
LINE
5
11D
100
AcDbEntity
8
CUTOUTS
100
AcDbLine
10
-112.15937500000038
20
13.790088896512396
30
0
11
-112.15937500000038
21
35.534584649202074
31
0
0
ARC
5
11E
100
AcDbEntity
8
CUTOUTS
100
AcDbCircle
10
-113.15937500000035
20
35.534584649202124
30
0
40
0.99999999999997868
210
-0
220
0
230
1
100
AcDbArc
50
0
51
89.99999999999838
0
LINE
5
11F
100
AcDbEntity
8
CUTOUTS
100
AcDbLine
10
-113.15937500000032
20
36.534584649202102
30
0
11
-116.51937499999997
21
36.534584649202088
31
0
0
ARC
5
120
100
AcDbEntity
8
CUTOUTS
100
AcDbCircle
10
-116.51937499999997
20
37.534584649202081
30
0
40
0.99999999999999645
210
0
220
0
230
1
100
AcDbArc
50
180
51
270
0
LINE
5
121
100
AcDbEntity
8
CUTOUTS
100
AcDbLine
10
-117.51937499999997
20
37.534584649202081
30
0
11
-117.51937499999998
21
51.934584649202009
31
0
0
ARC
5
122
100
AcDbEntity
8
CUTOUTS
100
AcDbCircle
10
-116.519375
20
51.934584649202009
30
0
40
0.99999999999999645
210
0
220
-0
230
1
100
AcDbArc
50
89.99999999999838
51
180
0
LINE
5
123
100
AcDbEntity
8
CUTOUTS
100
AcDbLine
10
-116.51937499999997
20
52.934584649202002
30
0
11
-102.81164040771422
21
52.934584649202002
31
0
0
ARC
5
124
100
AcDbEntity
8
CUTOUTS
100
AcDbCircle
10
-102.81164040771418
20
57.934584649201931
30
0
40
4.9999999999999289
210
0
220
0
230
1
100
AcDbArc
50
269.99999999999949
51
302.99357945265228
0
LINE
5
125
100
AcDbEntity
8
CUTOUTS
100
AcDbLine
10
-100.08891515555966
20
53.740926675394427
30
0
11
-99.27672056240965
21
54.268242623009762
31
0
0
ARC
5
126
100
AcDbEntity
8
CUTOUTS
100
AcDbCircle
10
-96.553995310255175
20
50.074584649202258
30
0
40
4.9999999999998934
210
0
220
-0
230
1
100
AcDbArc
50
89.999999999999019
51
122.99357945265189
0
LINE
5
127
100
AcDbEntity
8
CUTOUTS
100
AcDbLine
10
-96.55399531025509
20
55.074584649202151
30
0
11
-84.486205156718697
21
55.074584649202151
31
0
0
ARC
5
128
100
AcDbEntity
8
CUTOUTS
100
AcDbCircle
10
-84.486205156718626
20
50.074584649202613
30
0
40
4.9999999999995417
210
0
220
-0
230
1
100
AcDbArc
50
66.025528923960266
51
90.00000000000081
0
LINE
5
129
100
AcDbEntity
8
CUTOUTS
100
AcDbLine
10
-82.454557356968635
20
54.643217619552324
30
0
11
-79.762026697794823
21
53.445862956796219
31
0
0
ARC
5
12A
100
AcDbEntity
8
CUTOUTS
100
AcDbCircle
10
-77.730378898045686
20
58.014495927143422
30
0
40
4.9999999999969056
210
0
220
0
230
1
100
AcDbArc
50
246.02552892395747
51
258.00000000000352
0
LINE
5
12B
100
AcDbEntity
8
CUTOUTS
100
AcDbLine
10
-78.769937352133539
20
53.123757923477363
30
0
11
-5.5307010280740698
21
37.556277671097334
31
0
0
ARC
5
12C
100
AcDbEntity
8
CUTOUTS
100
AcDbCircle
10
-5.7386127188918934
20
36.5781300703635
30
0
40
1.0000000000000537
210
-0
220
0
230
1
100
AcDbArc
50
-11.999999999996811
51
77.999999999996817
0
LINE
5
12D
100
AcDbEntity
8
CUTOUTS
100
AcDbLine
10
-4.7604651181580238
20
36.370218379545783
30
0
11
-7.754393465933731
21
22.284892928978913
31
0
0
ARC
5
12E
100
AcDbEntity
8
CUTOUTS
100
AcDbCircle
10
-8.7325410666674941
20
22.492804619796651
30
0
40
0.99999999999995692
210
0
220
0
230
1
100
AcDbArc
50
257.99999999999989
51
348.0000000000008
0
LINE
5
12F
100
AcDbEntity
8
CUTOUTS
100
AcDbLine
10
-8.9404527574852466
20
21.514657019062888
30
0
11
-16.304016841158209
21
23.079830882325389
31
0
0
ARC
5
130
100
AcDbEntity
8
CUTOUTS
100
AcDbCircle
10
-16.511928531975997
20
22.101683281591662
30
0
40
0.99999999999992961
210
0
220
-0
230
1
100
AcDbArc
50
77.99999999999747
51
168.00000000000708
0
LINE
5
131
100
AcDbEntity
8
CUTOUTS
100
AcDbLine
10
-17.49007613270976
20
22.309594972409286
30
0
11
-21.586502798486293
21
3.0374227393269404
31
0
0
ARC
5
132
100
AcDbEntity
8
CUTOUTS
100
AcDbCircle
10
-20.608355197752495
20
2.8295110485092057
30
0
40
0.99999999999998801
210
0
220
0
230
1
100
AcDbArc
50
168.00000000000131
51
258.00000000000648
0
LINE
5
133
100
AcDbEntity
8
CUTOUTS
100
AcDbLine
10
-20.816266888570141
20
1.8513634477753893
30
0
11
-18.110701028074168
21
1.2762776710965884
31
0
0
ARC
5
134
100
AcDbEntity
8
CUTOUTS
100
AcDbCircle
10
-18.318612718891956
20
0.29813007036282535
30
0
40
0.99999999999996436
210
-0
220
0
230
1
100
AcDbArc
50
-12.000000000002103
51
77.999999999997883
0
LINE
5
135
100
AcDbEntity
8
CUTOUTS
100
AcDbLine
10
-17.340465118158193
20
0.090218379545037308
30
0
11
-20.884796942612596
21
-16.584551839766661
31
0
0
ARC
5
136
100
AcDbEntity
8
CUTOUTS
100
AcDbCircle
10
-19.906649341878797
20
-16.792463530584421
30
0
40
0.99999999999999356
210
0
220
0
230
1
100
AcDbArc
50
167.99999999999994
51
258.00000000000034
0
LINE
5
137
100
AcDbEntity
8
CUTOUTS
100
AcDbLine
10
-20.11456103269655
20
-17.770611131318219
30
0
11
-12.760701028074166
21
-19.333722328903427
31
0
0
ARC
5
138
100
AcDbEntity
8
CUTOUTS
100
AcDbCircle
10
-12.968612718891883
20
-20.311869929637254
30
0
40
0.99999999999998801
210
-0
220
0
230
1
100
AcDbArc
50
-11.999999999998693
51
78.00000000000253
0
LINE
5
139
100
AcDbEntity
8
CUTOUTS
100
AcDbLine
10
-11.990465118158085
20
-20.519781620454989
30
0
11
-14.985908588540902
21
-34.612235162458838
31
0
0
ARC
5
13A
100
AcDbEntity
8
CUTOUTS
100
AcDbCircle
10
-15.9640561892747
20
-34.404323471641085
30
0
40
0.99999999999999478
210
0
220
0
230
1
100
AcDbArc
50
257.99999999999818
51
348.00000000000034
0
LINE
5
13B
100
AcDbEntity
8
CUTOUTS
100
AcDbLine
10
-16.171967880092488
20
-35.382471072374877
30
0
11
-27.181530332983783
21
-33.042316331896956
31
0
0
ARC
5
13C
100
AcDbEntity
8
CUTOUTS
100
AcDbCircle
10
-27.3894420238015
20
-34.020463932630804
30
0
40
1.0000000000000322
210
0
220
-0
230
1
100
AcDbArc
50
78.000000000002885
51
167.99999999999997
0
LINE
5
13D
100
AcDbEntity
8
CUTOUTS
100
AcDbLine
10
-28.367589624535334
20
-33.812552241813037
30
0
11
-31.911925167077335
21
-50.487339953351167
31
0
0
ARC
5
13E
100
AcDbEntity
8
CUTOUTS
100
AcDbCircle
10
-32.890072767811134
20
-50.279428262533457
30
0
40
0.99999999999999134
210
0
220
0
230
1
100
AcDbArc
50
257.99204436411173
51
348.00000000000273
0
LINE
5
13F
100
AcDbEntity
8
CUTOUTS
100
AcDbLine
10
-33.098120274414313
20
-51.257546984875582
30
0
11
-65.977203357823555
21
-44.264110402328427
31
0
0
ARC
5
140
100
AcDbEntity
8
CUTOUTS
100
AcDbCircle
10
-65.76915585122039
20
-43.285991679986289
30
0
40
0.99999999999999756
210
0
220
0
230
1
100
AcDbArc
50
167.99999999998914
51
257.99204436411264
0
LINE
5
141
100
AcDbEntity
8
CUTOUTS
100
AcDbLine
10
-66.747303451954153
20
-43.078079989168344
30
0
11
-63.203938328429544
21
-26.407857740175761
31
0
0
ARC
5
142
100
AcDbEntity
8
CUTOUTS
100
AcDbCircle
10
-64.182085929163321
20
-26.199946049357816
30
0
40
1.0000000000000131
210
-0
220
0
230
1
100
AcDbArc
50
-12.000000000010498
51
77.999999999998877
0
LINE
5
143
100
AcDbEntity
8
CUTOUTS
100
AcDbLine
10
-63.97417423834554
20
-25.221798448624
30
0
11
-86.288516763889547
21
-20.478738525467328
31
0
0
LINE
5
144
100
AcDbEntity
8
CUTOUTS
100
AcDbLine
10
-86.288516763889547
20
-20.478738525467328
30
0
11
-105.1093750000004
21
-20.478738525467328
31
0
0
ARC
5
145
100
AcDbEntity
8
CUTOUTS
100
AcDbCircle
10
-105.10937500000047
20
-19.478738525467378
30
0
40
0.99999999999994316
210
0
220
0
230
1
100
AcDbArc
50
180
51
270.00000000000409
0
LINE
5
146
100
AcDbEntity
8
CUTOUTS
100
AcDbLine
10
-106.10937500000041
20
-19.478738525467332
30
0
11
-106.1093750000004
21
-7.6154153507976208
31
0
0
ARC
5
147
100
AcDbEntity
8
CUTOUTS
100
AcDbCircle
10
-107.10937500000041
20
-7.6154153507976208
30
0
40
1.0000000000000142
210
0
220
-0
230
1
100
AcDbArc
50
0
51
89.99999999999919
0
LINE
5
148
100
AcDbEntity
8
CUTOUTS
100
AcDbLine
10
-107.1093750000004
20
-6.6154153507976066
30
0
11
-110.45937500000053
21
-6.6154153507976066
31
0
0
ARC
5
149
100
AcDbEntity
8
CUTOUTS
100
AcDbCircle
10
-110.45937500000056
20
-5.6154153507975924
30
0
40
1.0000000000000142
210
0
220
0
230
1
100
AcDbArc
50
180
51
270.00000000000244
0
LINE
5
14A
100
AcDbEntity
8
CUTOUTS
100
AcDbLine
10
-111.45937500000058
20
-5.6154153507976012
30
0
11
-111.45937500000039
21
11.280006862570096
31
0
0
ARC
5
14B
100
AcDbEntity
8
CUTOUTS
100
AcDbCircle
10
-113.45937500000106
20
11.280006862570016
30
0
40
2.0000000000006679
210
0
220
-0
230
1
100
AcDbArc
50
0
51
21.999999999993172
0
LINE
5
14C
100
AcDbEntity
8
CUTOUTS
100
AcDbLine
10
-170.72614813259577
20
-49.565415350797878
30
0
11
-172.08292126519137
21
-47.215415350797869
31
0
0
LINE
5
14D
100
AcDbEntity
8
CUTOUTS
100
AcDbLine
10
-172.08292126519137
20
-47.215415350797869
30
0
11
-170.72614813259574
21
-44.865415350797875
31
0
0
LINE
5
14E
100
AcDbEntity
8
CUTOUTS
100
AcDbLine
10
-170.72614813259574
20
-44.865415350797875
30
0
11
-168.0126018674045
21
-44.865415350797875
31
0
0
LINE
5
14F
100
AcDbEntity
8
CUTOUTS
100
AcDbLine
10
-168.0126018674045
20
-44.865415350797875
30
0
11
-166.65582873480886
21
-47.215415350797869
31
0
0
LINE
5
150
100
AcDbEntity
8
CUTOUTS
100
AcDbLine
10
-166.65582873480886
20
-47.215415350797876
30
0
11
-168.0126018674045
21
-49.565415350797878
31
0
0
LINE
5
151
100
AcDbEntity
8
CUTOUTS
100
AcDbLine
10
-168.0126018674045
20
-49.565415350797878
30
0
11
-170.72614813259577
21
-49.565415350797878
31
0
0
LINE
5
152
100
AcDbEntity
8
CUTOUTS
100
AcDbLine
10
-8.2748716499571273
20
-42.011911582119659
30
0
11
-10.769811939770264
21
-53.749682790925192
31
0
0
SPLINE
5
153
100
AcDbEntity
8
CUTOUTS
100
AcDbSpline
70
0
71
3
72
8
73
4
74
0
42
0.000000001
43
0.0000000001
44
0.0000000001
40
-1
40
-1
40
-1
40
-1
40
0
40
0
40
0
40
0
10
-10.769811939770264
20
-53.749682790925192
30
0
10
-10.884638395920483
20
-54.289898793893848
30
0
10
-11.415655228352861
20
-54.634745156991613
30
0
10
-11.95587123132178
20
-54.519918700841345
30
0
0
LINE
5
154
100
AcDbEntity
8
CUTOUTS
100
AcDbLine
10
-11.95587123132178
20
-54.519918700841345
30
0
11
-26.02163372987409
21
-51.530148586881552
31
0
0
SPLINE
5
155
100
AcDbEntity
8
CUTOUTS
100
AcDbSpline
70
0
71
3
72
8
73
4
74
0
42
0.000000001
43
0.0000000001
44
0.0000000001
40
-1
40
-1
40
-1
40
-1
40
0
40
0
40
0
40
0
10
-26.02163372987409
20
-51.530148586881552
30
0
10
-26.561849732843008
20
-51.415322130731269
30
0
10
-26.906696095940212
20
-50.884305298299196
30
0
10
-26.791869639790242
20
-50.344089295329894
30
0
0
LINE
5
156
100
AcDbEntity
8
CUTOUTS
100
AcDbLine
10
-26.791869639790242
20
-50.344089295329894
30
0
11
-24.296929349976999
21
-38.606318086524354
31
0
0
SPLINE
5
157
100
AcDbEntity
8
CUTOUTS
100
AcDbSpline
70
0
71
3
72
8
73
4
74
0
42
0.000000001
43
0.0000000001
44
0.0000000001
40
-1
40
-1
40
-1
40
-1
40
0
40
0
40
0
40
0
10
-24.296929349976999
20
-38.606318086524354
30
0
10
-24.182102893826602
20
-38.066102083555691
30
0
10
-23.651086061394153
20
-37.721255720457918
30
0
10
-23.110870058425164
20
-37.836082176608208
30
0
0
LINE
5
158
100
AcDbEntity
8
CUTOUTS
100
AcDbLine
10
-23.110870058425164
20
-37.836082176608208
30
0
11
-9.0451075598728892
21
-40.825852290568001
31
0
0
SPLINE
5
159
100
AcDbEntity
8
CUTOUTS
100
AcDbSpline
70
0
71
3
72
8
73
4
74
0
42
0.000000001
43
0.0000000001
44
0.0000000001
40
-1
40
-1
40
-1
40
-1
40
0
40
0
40
0
40
0
10
-9.0451075598728892
20
-40.825852290568001
30
0
10
-8.5048915569042194
20
-40.940678746718284
30
0
10
-8.1600451938068375
20
-41.471695579150349
30
0
10
-8.2748716499571628
20
-42.011911582119659
30
0
0
LINE
5
15A
100
AcDbEntity
8
CUTOUTS
100
AcDbLine
10
-168.0126018674045
20
64.974584649202129
30
0
11
-166.65582873480886
21
62.624584649202141
31
0
0
LINE
5
15B
100
AcDbEntity
8
CUTOUTS
100
AcDbLine
10
-166.65582873480886
20
62.624584649202141
30
0
11
-168.0126018674045
21
60.274584649202126
31
0
0
LINE
5
15C
100
AcDbEntity
8
CUTOUTS
100
AcDbLine
10
-168.0126018674045
20
60.274584649202126
30
0
11
-170.72614813259571
21
60.274584649202126
31
0
0
LINE
5
15D
100
AcDbEntity
8
CUTOUTS
100
AcDbLine
10
-170.72614813259571
20
60.274584649202126
30
0
11
-172.08292126519132
21
62.624584649202141
31
0
0
LINE
5
15E
100
AcDbEntity
8
CUTOUTS
100
AcDbLine
10
-172.08292126519132
20
62.624584649202141
30
0
11
-170.72614813259571
21
64.974584649202129
31
0
0
LINE
5
15F
100
AcDbEntity
8
CUTOUTS
100
AcDbLine
10
-170.72614813259571
20
64.974584649202129
30
0
11
-168.0126018674045
21
64.974584649202129
31
0
0
SPLINE
5
160
100
AcDbEntity
8
CUTOUTS
100
AcDbSpline
70
0
71
3
72
8
73
4
74
0
42
0.000000001
43
0.0000000001
44
0.0000000001
40
-1
40
-1
40
-1
40
-1
40
0
40
0
40
0
40
0
10
-148.54937500000008
20
21.824584649202194
30
0
10
-148.54937500000008
20
21.272299899371234
30
0
10
-148.99709025016949
20
20.824584649202194
30
0
10
-149.54937500000011
20
20.824584649202194
30
0
0
LINE
5
161
100
AcDbEntity
8
CUTOUTS
100
AcDbLine
10
-149.54937500000011
20
20.824584649202194
30
0
11
-161.54937500000023
21
20.824584649202194
31
0
0
SPLINE
5
162
100
AcDbEntity
8
CUTOUTS
100
AcDbSpline
70
0
71
3
72
8
73
4
74
0
42
0.000000001
43
0.0000000001
44
0.0000000001
40
-1
40
-1
40
-1
40
-1
40
0
40
0
40
0
40
0
10
-161.54937500000028
20
20.824584649202194
30
0
10
-162.10165974983119
20
20.824584649202194
30
0
10
-162.54937500000028
20
21.272299899371234
30
0
10
-162.54937500000028
20
21.824584649202194
30
0
0
LINE
5
163
100
AcDbEntity
8
CUTOUTS
100
AcDbLine
10
-162.54937500000028
20
21.824584649202194
30
0
11
-162.54937500000025
21
33.824584649202009
31
0
0
SPLINE
5
164
100
AcDbEntity
8
CUTOUTS
100
AcDbSpline
70
0
71
3
72
8
73
4
74
0
42
0.000000001
43
0.0000000001
44
0.0000000001
40
-1
40
-1
40
-1
40
-1
40
0
40
0
40
0
40
0
10
-162.54937500000025
20
33.824584649202009
30
0
10
-162.54937500000025
20
34.376869399032913
30
0
10
-162.10165974983087
20
34.824584649201988
30
0
10
-161.54937500000023
20
34.824584649201988
30
0
0
LINE
5
165
100
AcDbEntity
8
CUTOUTS
100
AcDbLine
10
-161.54937500000023
20
34.824584649201988
30
0
11
-149.54937500000011
21
34.824584649201988
31
0
0
SPLINE
5
166
100
AcDbEntity
8
CUTOUTS
100
AcDbSpline
70
0
71
3
72
8
73
4
74
0
42
0.000000001
43
0.0000000001
44
0.0000000001
40
-1
40
-1
40
-1
40
-1
40
0
40
0
40
0
40
0
10
-149.54937500000011
20
34.824584649201988
30
0
10
-148.99709025016949
20
34.824584649201988
30
0
10
-148.54937500000008
20
34.376869399032913
30
0
10
-148.54937500000008
20
33.824584649202009
30
0
0
LINE
5
167
100
AcDbEntity
8
CUTOUTS
100
AcDbLine
10
-148.54937500000008
20
33.824584649202009
30
0
11
-148.54937500000011
21
21.824584649202194
31
0
0
LINE
5
168
100
AcDbEntity
8
CUTOUTS
100
AcDbLine
10
78.090188060229977
20
-26.641147910670504
30
0
11
80.585128350042908
21
-38.378919119476052
31
0
0
SPLINE
5
169
100
AcDbEntity
8
CUTOUTS
100
AcDbSpline
70
0
71
3
72
8
73
4
74
0
42
0.000000001
43
0.0000000001
44
0.0000000001
40
-1
40
-1
40
-1
40
-1
40
0
40
0
40
0
40
0
10
80.585128350042908
20
-38.378919119476052
30
0
10
80.699954806193261
20
-38.919135122445361
30
0
10
80.35510844309556
20
-39.450151954877427
30
0
10
79.814892440126926
20
-39.56497841102771
30
0
0
LINE
5
16A
100
AcDbEntity
8
CUTOUTS
100
AcDbLine
10
79.814892440126926
20
-39.56497841102771
30
0
11
68.077121231321314
21
-42.059918700841344
31
0
0
SPLINE
5
16B
100
AcDbEntity
8
CUTOUTS
100
AcDbSpline
70
0
71
3
72
8
73
4
74
0
42
0.000000001
43
0.0000000001
44
0.0000000001
40
-1
40
-1
40
-1
40
-1
40
0
40
0
40
0
40
0
10
68.0771212313212
20
-42.059918700841344
30
0
10
67.536905228352566
20
-42.174745156991634
30
0
10
67.005888395919939
20
-41.829898793893882
30
0
10
66.891061939769571
20
-41.289682790925212
30
0
0
LINE
5
16C
100
AcDbEntity
8
CUTOUTS
100
AcDbLine
10
66.891061939769571
20
-41.289682790925212
30
0
11
64.396121649956442
21
-29.551911582119686
31
0
0
SPLINE
5
16D
100
AcDbEntity
8
CUTOUTS
100
AcDbSpline
70
0
71
3
72
8
73
4
74
0
42
0.000000001
43
0.0000000001
44
0.0000000001
40
-1
40
-1
40
-1
40
-1
40
0
40
0
40
0
40
0
10
64.396121649956655
20
-29.551911582119686
30
0
10
64.281295193806258
20
-29.011695579150356
30
0
10
64.626141556903463
20
-28.480678746718297
30
0
10
65.166357559872097
20
-28.365852290568014
30
0
0
LINE
5
16E
100
AcDbEntity
8
CUTOUTS
100
AcDbLine
10
65.166357559872097
20
-28.365852290568011
30
0
11
76.904128768678319
21
-25.870912000754352
31
0
0
SPLINE
5
16F
100
AcDbEntity
8
CUTOUTS
100
AcDbSpline
70
0
71
3
72
8
73
4
74
0
42
0.000000001
43
0.0000000001
44
0.0000000001
40
-1
40
-1
40
-1
40
-1
40
0
40
0
40
0
40
0
10
76.904128768678319
20
-25.870912000754352
30
0
10
77.444344771647053
20
-25.75608554460473
30
0
10
77.975361604079723
20
-26.100931907701845
30
0
10
78.090188060229977
20
-26.641147910670504
30
0
0
SPLINE
5
170
100
AcDbEntity
8
CUTOUTS
100
AcDbSpline
70
0
71
3
72
8
73
4
74
0
42
0.000000001
43
0.0000000001
44
0.0000000001
40
-1
40
-1
40
-1
40
-1
40
0
40
0
40
0
40
0
10
153.42062499999975
20
19.684584649201923
30
0
10
153.42062499999975
20
19.132299899371297
30
0
10
152.97290974983056
20
18.684584649201909
30
0
10
152.4206249999996
20
18.684584649201909
30
0
0
LINE
5
171
100
AcDbEntity
8
CUTOUTS
100
AcDbLine
10
152.4206249999996
20
18.684584649201909
30
0
11
140.42062499999992
21
18.684584649201909
31
0
0
SPLINE
5
172
100
AcDbEntity
8
CUTOUTS
100
AcDbSpline
70
0
71
3
72
8
73
4
74
0
42
0.000000001
43
0.0000000001
44
0.0000000001
40
-1
40
-1
40
-1
40
-1
40
0
40
0
40
0
40
0
10
140.42062499999992
20
18.684584649201909
30
0
10
139.86834025016867
20
18.684584649201909
30
0
10
139.42062499999969
20
19.132299899371318
30
0
10
139.42062499999969
20
19.684584649201973
30
0
0
LINE
5
173
100
AcDbEntity
8
CUTOUTS
100
AcDbLine
10
139.42062499999963
20
19.684584649201973
30
0
11
139.42062499999969
21
31.684584649202037
31
0
0
SPLINE
5
174
100
AcDbEntity
8
CUTOUTS
100
AcDbSpline
70
0
71
3
72
8
73
4
74
0
42
0.000000001
43
0.0000000001
44
0.0000000001
40
-1
40
-1
40
-1
40
-1
40
0
40
0
40
0
40
0
10
139.42062499999969
20
31.684584649202037
30
0
10
139.42062499999969
20
32.236869399032983
30
0
10
139.86834025016867
20
32.684584649202108
30
0
10
140.42062499999992
20
32.684584649202108
30
0
0
LINE
5
175
100
AcDbEntity
8
CUTOUTS
100
AcDbLine
10
140.42062499999992
20
32.684584649202108
30
0
11
152.42062499999997
21
32.684584649202108
31
0
0
SPLINE
5
176
100
AcDbEntity
8
CUTOUTS
100
AcDbSpline
70
0
71
3
72
8
73
4
74
0
42
0.000000001
43
0.0000000001
44
0.0000000001
40
-1
40
-1
40
-1
40
-1
40
0
40
0
40
0
40
0
10
152.42062499999997
20
32.684584649202108
30
0
10
152.97290974983056
20
32.684584649202087
30
0
10
153.42062499999963
20
32.236869399032983
30
0
10
153.42062499999963
20
31.684584649202023
30
0
0
LINE
5
177
100
AcDbEntity
8
CUTOUTS
100
AcDbLine
10
153.42062499999969
20
31.684584649202023
30
0
11
153.42062499999975
21
19.684584649201923
31
0
0
SPLINE
5
178
100
AcDbEntity
8
CUTOUTS
100
AcDbSpline
70
0
71
3
72
8
73
4
74
0
42
0.000000001
43
0.0000000001
44
0.0000000001
40
-1
40
-1
40
-1
40
-1
40
0
40
0
40
0
40
0
10
152.9236250000038
20
36.734584350970152
30
0
10
152.92362500000218
20
36.182299601139512
30
0
10
152.47590974983331
20
35.734584350970742
30
0
10
151.92362500000215
20
35.734584350970124
30
0
0
LINE
5
179
100
AcDbEntity
8
CUTOUTS
100
AcDbLine
10
151.92362500000215
20
35.734584350970124
30
0
11
146.92362500000519
21
35.734584350970124
31
0
0
SPLINE
5
17A
100
AcDbEntity
8
CUTOUTS
100
AcDbSpline
70
0
71
3
72
8
73
4
74
0
42
0.000000001
43
0.0000000001
44
0.0000000001
40
-1
40
-1
40
-1
40
-1
40
0
40
0
40
0
40
0
10
146.92362500000519
20
35.734584350970124
30
0
10
146.37134025017488
20
35.734584350970458
30
0
10
145.9236250000061
20
36.182299601139249
30
0
10
145.9236250000061
20
36.734584350969854
30
0
0
LINE
5
17B
100
AcDbEntity
8
CUTOUTS
100
AcDbLine
10
145.92362500000604
20
36.734584350969854
30
0
11
145.9236250000061
21
37.734584649202077
31
0
0
LINE
5
17C
100
AcDbEntity
8
CUTOUTS
100
AcDbLine
10
145.9236250000061
20
37.734584649202077
30
0
11
129.04762500000274
21
37.734584649202063
31
0
0
LINE
5
17D
100
AcDbEntity
8
CUTOUTS
100
AcDbLine
10
129.04762500000274
20
37.734584649202063
30
0
11
129.04762500000274
21
36.734584350968269
31
0
0
SPLINE
5
17E
100
AcDbEntity
8
CUTOUTS
100
AcDbSpline
70
0
71
3
72
8
73
4
74
0
42
0.000000001
43
0.0000000001
44
0.0000000001
40
-1
40
-1
40
-1
40
-1
40
0
40
0
40
0
40
0
10
129.04762500000274
20
36.734584350968269
30
0
10
129.04762500000209
20
36.182299601138268
30
0
10
128.5999097498331
20
35.734584350969783
30
0
10
128.04762500000271
20
35.734584350970124
30
0
0
LINE
5
17F
100
AcDbEntity
8
CUTOUTS
100
AcDbLine
10
128.04762500000271
20
35.734584350970124
30
0
11
123.04762500000386
21
35.734584350970124
31
0
0
SPLINE
5
180
100
AcDbEntity
8
CUTOUTS
100
AcDbSpline
70
0
71
3
72
8
73
4
74
0
42
0.000000001
43
0.0000000001
44
0.0000000001
40
-1
40
-1
40
-1
40
-1
40
0
40
0
40
0
40
0
10
123.04762500000386
20
35.734584350970124
30
0
10
122.49534025017361
20
35.734584350970458
30
0
10
122.04762500000449
20
36.182299601139228
30
0
10
122.04762500000449
20
36.734584350969854
30
0
0
LINE
5
181
100
AcDbEntity
8
CUTOUTS
100
AcDbLine
10
122.04762500000442
20
36.734584350969854
30
0
11
122.04762500000449
21
37.734584649202063
31
0
0
LINE
5
182
100
AcDbEntity
8
CUTOUTS
100
AcDbLine
10
122.04762500000449
20
37.734584649202063
30
0
11
121.96062499999954
21
37.734584649202063
31
0
0
SPLINE
5
183
100
AcDbEntity
8
CUTOUTS
100
AcDbSpline
70
0
71
3
72
8
73
4
74
0
42
0.000000001
43
0.0000000001
44
0.0000000001
40
-1
40
-1
40
-1
40
-1
40
0
40
0
40
0
40
0
10
121.96062499999968
20
37.734584649202063
30
0
10
121.40834025016922
20
37.734584649202063
30
0
10
120.96062499999967
20
38.182299899371152
30
0
10
120.96062499999967
20
38.734584649202112
30
0
0
LINE
5
184
100
AcDbEntity
8
CUTOUTS
100
AcDbLine
10
120.9606249999996
20
38.734584649202112
30
0
11
120.96062499999945
21
50.734584649202247
31
0
0
SPLINE
5
185
100
AcDbEntity
8
CUTOUTS
100
AcDbSpline
70
0
71
3
72
8
73
4
74
0
42
0.000000001
43
0.0000000001
44
0.0000000001
40
-1
40
-1
40
-1
40
-1
40
0
40
0
40
0
40
0
10
120.96062499999967
20
50.734584649202247
30
0
10
120.96062499999967
20
51.286869399032852
30
0
10
121.40834025016922
20
51.734584649201921
30
0
10
121.96062499999968
20
51.734584649201921
30
0
0
LINE
5
186
100
AcDbEntity
8
CUTOUTS
100
AcDbLine
10
121.96062499999968
20
51.734584649201921
30
0
11
153.01062500000006
21
51.734584649201906
31
0
0
SPLINE
5
187
100
AcDbEntity
8
CUTOUTS
100
AcDbSpline
70
0
71
3
72
8
73
4
74
0
42
0.000000001
43
0.0000000001
44
0.0000000001
40
-1
40
-1
40
-1
40
-1
40
0
40
0
40
0
40
0
10
153.01062500000006
20
51.734584649201906
30
0
10
153.56290974983062
20
51.734584649201906
30
0
10
154.01062499999972
20
51.286869399032852
30
0
10
154.01062499999972
20
50.734584649202212
30
0
0
LINE
5
188
100
AcDbEntity
8
CUTOUTS
100
AcDbLine
10
154.01062499999981
20
50.734584649202212
30
0
11
154.01062499999972
21
38.734584649201793
31
0
0
SPLINE
5
189
100
AcDbEntity
8
CUTOUTS
100
AcDbSpline
70
0
71
3
72
8
73
4
74
0
42
0.000000001
43
0.0000000001
44
0.0000000001
40
-1
40
-1
40
-1
40
-1
40
0
40
0
40
0
40
0
10
154.01062499999972
20
38.734584649201793
30
0
10
154.01062499999972
20
38.182299899371152
30
0
10
153.56290974983062
20
37.734584649202063
30
0
10
153.01062499999949
20
37.734584649202063
30
0
0
LINE
5
18A
100
AcDbEntity
8
CUTOUTS
100
AcDbLine
10
153.01062499999949
20
37.734584649202063
30
0
11
152.9236250000038
21
37.734584649202077
31
0
0
LINE
5
18B
100
AcDbEntity
8
CUTOUTS
100
AcDbLine
10
152.9236250000038
20
37.734584649202077
30
0
11
152.9236250000038
21
36.734584350970152
31
0
0
SPLINE
5
18C
100
AcDbEntity
8
CUTOUTS
100
AcDbSpline
70
0
71
3
72
8
73
4
74
0
42
0.000000001
43
0.0000000001
44
0.0000000001
40
-1
40
-1
40
-1
40
-1
40
0
40
0
40
0
40
0
10
-142.99937500000038
20
-25.465415350797834
30
0
10
-142.99937500000038
20
-24.913130600966895
30
0
10
-142.551659749831
20
-24.465415350797812
30
0
10
-141.99937500000033
20
-24.465415350797812
30
0
0
LINE
5
18D
100
AcDbEntity
8
CUTOUTS
100
AcDbLine
10
-141.99937500000033
20
-24.465415350797812
30
0
11
-129.99937500000027
21
-24.465415350797795
31
0
0
SPLINE
5
18E
100
AcDbEntity
8
CUTOUTS
100
AcDbSpline
70
0
71
3
72
8
73
4
74
0
42
0.000000001
43
0.0000000001
44
0.0000000001
40
-1
40
-1
40
-1
40
-1
40
0
40
0
40
0
40
0
10
-129.99937500000027
20
-24.465415350797795
30
0
10
-129.44709025016931
20
-24.465415350797812
30
0
10
-128.99937500000024
20
-24.913130600966884
30
0
10
-128.99937500000024
20
-25.465415350797834
30
0
0
LINE
5
18F
100
AcDbEntity
8
CUTOUTS
100
AcDbLine
10
-128.99937500000024
20
-25.465415350797834
30
0
11
-128.99937500000024
21
-37.465415350797628
31
0
0
SPLINE
5
190
100
AcDbEntity
8
CUTOUTS
100
AcDbSpline
70
0
71
3
72
8
73
4
74
0
42
0.000000001
43
0.0000000001
44
0.0000000001
40
-1
40
-1
40
-1
40
-1
40
0
40
0
40
0
40
0
10
-128.99937500000024
20
-37.465415350797635
30
0
10
-128.99937500000024
20
-38.017700100628588
30
0
10
-129.44709025016931
20
-38.465415350797663
30
0
10
-129.99937500000027
20
-38.465415350797663
30
0
0
LINE
5
191
100
AcDbEntity
8
CUTOUTS
100
AcDbLine
10
-129.99937500000027
20
-38.465415350797663
30
0
11
-141.99937500000036
21
-38.465415350797663
31
0
0
SPLINE
5
192
100
AcDbEntity
8
CUTOUTS
100
AcDbSpline
70
0
71
3
72
8
73
4
74
0
42
0.000000001
43
0.0000000001
44
0.0000000001
40
-1
40
-1
40
-1
40
-1
40
0
40
0
40
0
40
0
10
-141.99937500000033
20
-38.465415350797663
30
0
10
-142.551659749831
20
-38.465415350797663
30
0
10
-142.9993750000001
20
-38.017700100628581
30
0
10
-142.99937500000041
20
-37.465415350797635
30
0
0
LINE
5
193
100
AcDbEntity
8
CUTOUTS
100
AcDbLine
10
-142.99937500000041
20
-37.465415350797635
30
0
11
-142.99937500000038
21
-25.465415350797834
31
0
0
SPLINE
5
194
100
AcDbEntity
8
CUTOUTS
100
AcDbSpline
70
0
71
3
72
8
73
4
74
0
42
0.000000001
43
0.0000000001
44
0.0000000001
40
-1
40
-1
40
-1
40
-1
40
0
40
0
40
0
40
0
10
-152.61937500000013
20
2.7745846492019854
30
0
10
-152.61937500000013
20
2.2222998993714072
30
0
10
-153.06709025016954
20
1.7745846492022821
30
0
10
-153.61937500000013
20
1.774584649201989
30
0
0
LINE
5
195
100
AcDbEntity
8
CUTOUTS
100
AcDbLine
10
-153.61937500000013
20
1.774584649201989
30
0
11
-165.61937500000033
21
1.774584649201989
31
0
0
SPLINE
5
196
100
AcDbEntity
8
CUTOUTS
100
AcDbSpline
70
0
71
3
72
8
73
4
74
0
42
0.000000001
43
0.0000000001
44
0.0000000001
40
-1
40
-1
40
-1
40
-1
40
0
40
0
40
0
40
0
10
-165.61937500000033
20
1.774584649201989
30
0
10
-166.17165974983095
20
1.774584649201989
30
0
10
-166.61937500000036
20
2.2222998993714072
30
0
10
-166.61937500000036
20
2.7745846492020299
30
0
0
LINE
5
197
100
AcDbEntity
8
CUTOUTS
100
AcDbLine
10
-166.61937500000036
20
2.7745846492020299
30
0
11
-166.61937500000036
21
14.77458464920212
31
0
0
SPLINE
5
198
100
AcDbEntity
8
CUTOUTS
100
AcDbSpline
70
0
71
3
72
8
73
4
74
0
42
0.000000001
43
0.0000000001
44
0.0000000001
40
-1
40
-1
40
-1
40
-1
40
0
40
0
40
0
40
0
10
-166.61937500000036
20
14.77458464920212
30
0
10
-166.61937500000036
20
15.326869399033081
30
0
10
-166.17165974983095
20
15.774584649202152
30
0
10
-165.61937500000033
20
15.774584649202152
30
0
0
LINE
5
199
100
AcDbEntity
8
CUTOUTS
100
AcDbLine
10
-165.61937500000033
20
15.774584649202152
30
0
11
-153.61937500000013
21
15.774584649202135
31
0
0
SPLINE
5
19A
100
AcDbEntity
8
CUTOUTS
100
AcDbSpline
70
0
71
3
72
8
73
4
74
0
42
0.000000001
43
0.0000000001
44
0.0000000001
40
-1
40
-1
40
-1
40
-1
40
0
40
0
40
0
40
0
10
-153.61937500000013
20
15.774584649202135
30
0
10
-153.06709025016954
20
15.774584649202135
30
0
10
-152.61937500000013
20
15.326869399032761
30
0
10
-152.61937500000013
20
14.77458464920212
30
0
0
LINE
5
19B
100
AcDbEntity
8
CUTOUTS
100
AcDbLine
10
-152.61937500000013
20
14.77458464920212
30
0
11
-152.61937500000013
21
2.7745846492019854
31
0
0
SPLINE
5
19C
100
AcDbEntity
8
CUTOUTS
100
AcDbSpline
70
0
71
3
72
8
73
4
74
0
42
0.000000001
43
0.0000000001
44
0.0000000001
40
-1
40
-1
40
-1
40
-1
40
0
40
0
40
0
40
0
10
128.10262499999573
20
14.634584947433789
30
0
10
128.10262499999723
20
15.186869697264429
30
0
10
128.55034025016613
20
15.634584947433199
30
0
10
129.10262499999709
20
15.634584947433838
30
0
0
LINE
5
19D
100
AcDbEntity
8
CUTOUTS
100
AcDbLine
10
129.10262499999709
20
15.634584947433838
30
0
11
134.10262499999413
21
15.634584947433838
31
0
0
SPLINE
5
19E
100
AcDbEntity
8
CUTOUTS
100
AcDbSpline
70
0
71
3
72
8
73
4
74
0
42
0.000000001
43
0.0000000001
44
0.0000000001
40
-1
40
-1
40
-1
40
-1
40
0
40
0
40
0
40
0
10
134.10262499999413
20
15.634584947433838
30
0
10
134.65490974982453
20
15.634584947433536
30
0
10
135.10262499999342
20
15.186869697264749
30
0
10
135.10262499999413
20
14.634584947434144
30
0
0
LINE
5
19F
100
AcDbEntity
8
CUTOUTS
100
AcDbLine
10
135.10262499999419
20
14.634584947434144
30
0
11
135.10262499999342
21
1.6345849474339769
31
0
0
SPLINE
5
1A0
100
AcDbEntity
8
CUTOUTS
100
AcDbSpline
70
0
71
3
72
8
73
4
74
0
42
0.000000001
43
0.0000000001
44
0.0000000001
40
-1
40
-1
40
-1
40
-1
40
0
40
0
40
0
40
0
10
135.10262499999342
20
1.6345849474339769
30
0
10
135.10262499999342
20
1.0823001976027236
30
0
10
134.65490974982453
20
0.63458494743331428
30
0
10
134.10262499999283
20
0.63458494743331428
30
0
0
LINE
5
1A1
100
AcDbEntity
8
CUTOUTS
100
AcDbLine
10
134.10262499999283
20
0.63458494743331428
30
0
11
129.10262499999612
21
0.63458494743331428
31
0
0
SPLINE
5
1A2
100
AcDbEntity
8
CUTOUTS
100
AcDbSpline
70
0
71
3
72
8
73
4
74
0
42
0.000000001
43
0.0000000001
44
0.0000000001
40
-1
40
-1
40
-1
40
-1
40
0
40
0
40
0
40
0
10
129.10262499999612
20
0.63458494743331428
30
0
10
128.55034025016499
20
0.63458494743331428
30
0
10
128.10262499999573
20
1.0823001976030344
30
0
10
128.10262499999573
20
1.6345849474339769
30
0
0
LINE
5
1A3
100
AcDbEntity
8
CUTOUTS
100
AcDbLine
10
128.10262499999567
20
1.6345849474339769
30
0
11
128.10262499999573
21
14.634584947433789
31
0
0
LINE
5
1A4
100
AcDbEntity
8
CUTOUTS
100
AcDbLine
10
127.42562499999998
20
-5.4154153507976677
30
0
11
148.950625
21
-5.4154153507976677
31
0
0
SPLINE
5
1A5
100
AcDbEntity
8
CUTOUTS
100
AcDbSpline
70
0
71
3
72
8
73
4
74
0
42
0.000000001
43
0.0000000001
44
0.0000000001
40
-1
40
-1
40
-1
40
-1
40
0
40
0
40
0
40
0
10
148.950625
20
-5.4154153507976677
30
0
10
149.50290974983076
20
-5.4154153507976677
30
0
10
149.95062499999975
20
-5.86313060096737
30
0
10
149.95062499999975
20
-6.4154153507976819
30
0
0
LINE
5
1A6
100
AcDbEntity
8
CUTOUTS
100
AcDbLine
10
149.95062499999983
20
-6.4154153507976819
30
0
11
149.95062499999975
21
-18.415415350798128
31
0
0
SPLINE
5
1A7
100
AcDbEntity
8
CUTOUTS
100
AcDbSpline
70
0
71
3
72
8
73
4
74
0
42
0.000000001
43
0.0000000001
44
0.0000000001
40
-1
40
-1
40
-1
40
-1
40
0
40
0
40
0
40
0
10
149.95062499999975
20
-18.415415350798128
30
0
10
149.95062499999975
20
-18.96770010062906
30
0
10
149.50290974983076
20
-19.41541535079816
30
0
10
148.950625
20
-19.41541535079816
30
0
0
LINE
5
1A8
100
AcDbEntity
8
CUTOUTS
100
AcDbLine
10
148.950625
20
-19.41541535079816
30
0
11
134.51262500000254
21
-19.41541535079816
31
0
0
LINE
5
1A9
100
AcDbEntity
8
CUTOUTS
100
AcDbLine
10
134.51262500000254
20
-19.41541535079816
30
0
11
134.51262500000254
21
-20.415415649031672
31
0
0
SPLINE
5
1AA
100
AcDbEntity
8
CUTOUTS
100
AcDbSpline
70
0
71
3
72
8
73
4
74
0
42
0.000000001
43
0.0000000001
44
0.0000000001
40
-1
40
-1
40
-1
40
-1
40
0
40
0
40
0
40
0
10
134.51262500000254
20
-20.415415649031658
30
0
10
134.51262500000254
20
-20.967700398861339
30
0
10
134.06490974983348
20
-21.415415649030418
30
0
10
133.51262500000308
20
-21.415415649029779
30
0
0
LINE
5
1AB
100
AcDbEntity
8
CUTOUTS
100
AcDbLine
10
133.51262500000308
20
-21.415415649029779
30
0
11
128.51262500000422
21
-21.415415649029796
31
0
0
SPLINE
5
1AC
100
AcDbEntity
8
CUTOUTS
100
AcDbSpline
70
0
71
3
72
8
73
4
74
0
42
0.000000001
43
0.0000000001
44
0.0000000001
40
-1
40
-1
40
-1
40
-1
40
0
40
0
40
0
40
0
10
128.51262500000422
20
-21.415415649029779
30
0
10
127.96034025017327
20
-21.415415649029779
30
0
10
127.51262500000486
20
-20.9677003988607
30
0
10
127.51262500000401
20
-20.415415649030379
30
0
0
LINE
5
1AD
100
AcDbEntity
8
CUTOUTS
100
AcDbLine
10
127.51262500000394
20
-20.415415649030379
30
0
11
127.51262500000486
21
-19.41541535079816
31
0
0
LINE
5
1AE
100
AcDbEntity
8
CUTOUTS
100
AcDbLine
10
127.51262500000486
20
-19.41541535079816
30
0
11
127.42562499999991
21
-19.41541535079816
31
0
0
SPLINE
5
1AF
100
AcDbEntity
8
CUTOUTS
100
AcDbSpline
70
0
71
3
72
8
73
4
74
0
42
0.000000001
43
0.0000000001
44
0.0000000001
40
-1
40
-1
40
-1
40
-1
40
0
40
0
40
0
40
0
10
127.42562499999998
20
-19.41541535079816
30
0
10
126.87334025016909
20
-19.41541535079816
30
0
10
126.42562500000004
20
-18.967700100629081
30
0
10
126.42562500000004
20
-18.41541535079811
30
0
0
LINE
5
1B0
100
AcDbEntity
8
CUTOUTS
100
AcDbLine
10
126.42562499999997
20
-18.41541535079811
30
0
11
126.42562500000004
21
-6.4154153507976819
31
0
0
SPLINE
5
1B1
100
AcDbEntity
8
CUTOUTS
100
AcDbSpline
70
0
71
3
72
8
73
4
74
0
42
0.000000001
43
0.0000000001
44
0.0000000001
40
-1
40
-1
40
-1
40
-1
40
0
40
0
40
0
40
0
10
126.42562500000004
20
-6.4154153507976819
30
0
10
126.42562500000004
20
-5.8631306009667483
30
0
10
126.87334025016909
20
-5.4154153507976677
30
0
10
127.42562499999998
20
-5.4154153507976677
30
0
0
LINE
5
1B2
100
AcDbEntity
8
CUTOUTS
100
AcDbLine
10
152.97862499999681
20
15.634584947434158
30
0
11
157.97862499999582
21
15.634584947434158
31
0
0
SPLINE
5
1B3
100
AcDbEntity
8
CUTOUTS
100
AcDbSpline
70
0
71
3
72
8
73
4
74
0
42
0.000000001
43
0.0000000001
44
0.0000000001
40
-1
40
-1
40
-1
40
-1
40
0
40
0
40
0
40
0
10
157.97862499999582
20
15.634584947434158
30
0
10
158.53090974982607
20
15.634584947433803
30
0
10
158.97862499999519
20
15.186869697264749
30
0
10
158.97862499999519
20
14.634584947434428
30
0
0
LINE
5
1B4
100
AcDbEntity
8
CUTOUTS
100
AcDbLine
10
158.97862499999525
20
14.634584947434428
30
0
11
158.97862499999519
21
1.6345849474339769
31
0
0
SPLINE
5
1B5
100
AcDbEntity
8
CUTOUTS
100
AcDbSpline
70
0
71
3
72
8
73
4
74
0
42
0.000000001
43
0.0000000001
44
0.0000000001
40
-1
40
-1
40
-1
40
-1
40
0
40
0
40
0
40
0
10
158.97862499999519
20
1.6345849474339769
30
0
10
158.97862499999519
20
1.082300197603363
30
0
10
158.53090974982607
20
0.63458494743426463
30
0
10
157.97862499999582
20
0.63458494743426463
30
0
0
LINE
5
1B6
100
AcDbEntity
8
CUTOUTS
100
AcDbLine
10
157.97862499999582
20
0.63458494743426463
30
0
11
152.97862499999681
21
0.63458494743426463
31
0
0
SPLINE
5
1B7
100
AcDbEntity
8
CUTOUTS
100
AcDbSpline
70
0
71
3
72
8
73
4
74
0
42
0.000000001
43
0.0000000001
44
0.0000000001
40
-1
40
-1
40
-1
40
-1
40
0
40
0
40
0
40
0
10
152.97862499999681
20
0.63458494743426463
30
0
10
152.42634025016577
20
0.63458494743426463
30
0
10
151.97862499999744
20
1.082300197603363
30
0
10
151.97862499999744
20
1.6345849474339769
30
0
0
LINE
5
1B8
100
AcDbEntity
8
CUTOUTS
100
AcDbLine
10
151.97862499999735
20
1.6345849474339769
30
0
11
151.97862499999744
21
14.634584947435707
31
0
0
SPLINE
5
1B9
100
AcDbEntity
8
CUTOUTS
100
AcDbSpline
70
0
71
3
72
8
73
4
74
0
42
0.000000001
43
0.0000000001
44
0.0000000001
40
-1
40
-1
40
-1
40
-1
40
0
40
0
40
0
40
0
10
151.97862499999744
20
14.634584947435707
30
0
10
151.97862499999744
20
15.186869697265726
30
0
10
152.42634025016633
20
15.634584947434176
30
0
10
152.97862499999681
20
15.634584947434158
30
0
0
LINE
5
1BA
100
AcDbEntity
8
CUTOUTS
100
AcDbLine
10
-121.76937500000021
20
18.684584649201945
30
0
11
-133.76937500000025
21
18.684584649202243
31
0
0
SPLINE
5
1BB
100
AcDbEntity
8
CUTOUTS
100
AcDbSpline
70
0
71
3
72
8
73
4
74
0
42
0.000000001
43
0.0000000001
44
0.0000000001
40
-1
40
-1
40
-1
40
-1
40
0
40
0
40
0
40
0
10
-133.76937500000025
20
18.684584649202243
30
0
10
-134.32165974983093
20
18.684584649202243
30
0
10
-134.76937500000034
20
19.132299899371354
30
0
10
-134.76937500000034
20
19.684584649201973
30
0
0
LINE
5
1BC
100
AcDbEntity
8
CUTOUTS
100
AcDbLine
10
-134.76937500000034
20
19.684584649201973
30
0
11
-134.76937500000034
21
31.684584649202094
31
0
0
SPLINE
5
1BD
100
AcDbEntity
8
CUTOUTS
100
AcDbSpline
70
0
71
3
72
8
73
4
74
0
42
0.000000001
43
0.0000000001
44
0.0000000001
40
-1
40
-1
40
-1
40
-1
40
0
40
0
40
0
40
0
10
-134.76937500000034
20
31.684584649202094
30
0
10
-134.76937500000034
20
32.236869399033019
30
0
10
-134.32165974983093
20
32.684584649202108
30
0
10
-133.76937500000025
20
32.684584649202108
30
0
0
LINE
5
1BE
100
AcDbEntity
8
CUTOUTS
100
AcDbLine
10
-133.76937500000025
20
32.684584649202108
30
0
11
-121.76937500000008
21
32.684584649202108
31
0
0
SPLINE
5
1BF
100
AcDbEntity
8
CUTOUTS
100
AcDbSpline
70
0
71
3
72
8
73
4
74
0
42
0.000000001
43
0.0000000001
44
0.0000000001
40
-1
40
-1
40
-1
40
-1
40
0
40
0
40
0
40
0
10
-121.7693750000001
20
32.684584649202108
30
0
10
-121.21709025016952
20
32.684584649202108
30
0
10
-120.76937500000011
20
32.236869399033019
30
0
10
-120.76937500000011
20
31.684584649202094
30
0
0
LINE
5
1C0
100
AcDbEntity
8
CUTOUTS
100
AcDbLine
10
-120.76937500000011
20
31.684584649202094
30
0
11
-120.76937500000015
21
19.68458464920203
31
0
0
SPLINE
5
1C1
100
AcDbEntity
8
CUTOUTS
100
AcDbSpline
70
0
71
3
72
8
73
4
74
0
42
0.000000001
43
0.0000000001
44
0.0000000001
40
-1
40
-1
40
-1
40
-1
40
0
40
0
40
0
40
0
10
-120.76937500000015
20
19.684584649201973
30
0
10
-120.76937500000015
20
19.132299899371354
30
0
10
-121.21709025016956
20
18.684584649202243
30
0
10
-121.76937500000021
20
18.684584649201945
30
0
0
LINE
5
1C2
100
AcDbEntity
8
CUTOUTS
100
AcDbLine
10
-121.85937500000021
20
-6.4154153507976464
30
0
11
-121.85937500000021
21
-18.415415350798085
31
0
0
SPLINE
5
1C3
100
AcDbEntity
8
CUTOUTS
100
AcDbSpline
70
0
71
3
72
8
73
4
74
0
42
0.000000001
43
0.0000000001
44
0.0000000001
40
-1
40
-1
40
-1
40
-1
40
0
40
0
40
0
40
0
10
-121.85937500000021
20
-18.415415350798085
30
0
10
-121.85937500000021
20
-18.967700100628413
30
0
10
-122.30709025016962
20
-19.415415350798114
30
0
10
-122.8593750000002
20
-19.415415350798114
30
0
0
LINE
5
1C4
100
AcDbEntity
8
CUTOUTS
100
AcDbLine
10
-122.8593750000002
20
-19.415415350798114
30
0
11
-134.85937500000031
21
-19.415415350798114
31
0
0
SPLINE
5
1C5
100
AcDbEntity
8
CUTOUTS
100
AcDbSpline
70
0
71
3
72
8
73
4
74
0
42
0.000000001
43
0.0000000001
44
0.0000000001
40
-1
40
-1
40
-1
40
-1
40
0
40
0
40
0
40
0
10
-134.85937500000031
20
-19.415415350798114
30
0
10
-135.41165974983096
20
-19.415415350798114
30
0
10
-135.85937500000031
20
-18.967700100629024
30
0
10
-135.85937500000031
20
-18.415415350798057
30
0
0
LINE
5
1C6
100
AcDbEntity
8
CUTOUTS
100
AcDbLine
10
-135.85937500000031
20
-18.415415350798057
30
0
11
-135.85937500000031
21
-6.4154153507976464
31
0
0
SPLINE
5
1C7
100
AcDbEntity
8
CUTOUTS
100
AcDbSpline
70
0
71
3
72
8
73
4
74
0
42
0.000000001
43
0.0000000001
44
0.0000000001
40
-1
40
-1
40
-1
40
-1
40
0
40
0
40
0
40
0
10
-135.85937500000031
20
-6.4154153507976464
30
0
10
-135.85937500000031
20
-5.8631306009673345
30
0
10
-135.4116597498309
20
-5.4154153507976233
30
0
10
-134.85937500000031
20
-5.4154153507976233
30
0
0
LINE
5
1C8
100
AcDbEntity
8
CUTOUTS
100
AcDbLine
10
-134.85937500000031
20
-5.4154153507976233
30
0
11
-122.8593750000002
21
-5.4154153507976233
31
0
0
SPLINE
5
1C9
100
AcDbEntity
8
CUTOUTS
100
AcDbSpline
70
0
71
3
72
8
73
4
74
0
42
0.000000001
43
0.0000000001
44
0.0000000001
40
-1
40
-1
40
-1
40
-1
40
0
40
0
40
0
40
0
10
-122.8593750000002
20
-5.4154153507976233
30
0
10
-122.30709025016962
20
-5.4154153507976233
30
0
10
-121.85937500000021
20
-5.8631306009673345
30
0
10
-121.85937500000021
20
-6.4154153507976464
30
0
0
SPLINE
5
1CA
100
AcDbEntity
8
CUTOUTS
100
AcDbSpline
70
0
71
3
72
8
73
4
74
0
42
0.000000001
43
0.0000000001
44
0.0000000001
40
-1
40
-1
40
-1
40
-1
40
0
40
0
40
0
40
0
10
158.3886250000038
20
-20.41541564902974
30
0
10
158.38862500000266
20
-20.9677003988607
30
0
10
157.94090974983385
20
-21.415415649029157
30
0
10
157.38862500000272
20
-21.415415649029796
30
0
0
LINE
5
1CB
100
AcDbEntity
8
CUTOUTS
100
AcDbLine
10
157.38862500000272
20
-21.415415649029796
30
0
11
152.38862500000585
21
-21.415415649029796
31
0
0
SPLINE
5
1CC
100
AcDbEntity
8
CUTOUTS
100
AcDbSpline
70
0
71
3
72
8
73
4
74
0
42
0.000000001
43
0.0000000001
44
0.0000000001
40
-1
40
-1
40
-1
40
-1
40
0
40
0
40
0
40
0
10
152.38862500000585
20
-21.415415649029796
30
0
10
151.83634025017477
20
-21.415415649029796
30
0
10
151.38862500000641
20
-20.967700398860725
30
0
10
151.38862500000562
20
-20.415415649030393
30
0
0
LINE
5
1CD
100
AcDbEntity
8
CUTOUTS
100
AcDbLine
10
151.38862500000562
20
-20.415415649030393
30
0
11
151.38862500000562
21
-7.4154156490292866
31
0
0
SPLINE
5
1CE
100
AcDbEntity
8
CUTOUTS
100
AcDbSpline
70
0
71
3
72
8
73
4
74
0
42
0.000000001
43
0.0000000001
44
0.0000000001
40
-1
40
-1
40
-1
40
-1
40
0
40
0
40
0
40
0
10
151.38862500000562
20
-7.4154156490292866
30
0
10
151.38862500000641
20
-6.8631308991983264
30
0
10
151.83634025017554
20
-6.4154156490292635
30
0
10
152.38862500000693
20
-6.4154156490292635
30
0
0
LINE
5
1CF
100
AcDbEntity
8
CUTOUTS
100
AcDbLine
10
152.38862500000693
20
-6.4154156490292635
30
0
11
152.61937499999931
21
-6.4154153507983569
31
0
0
SPLINE
5
1D0
100
AcDbEntity
8
CUTOUTS
100
AcDbSpline
70
0
71
3
72
8
73
4
74
0
42
0.000000001
43
0.0000000001
44
0.0000000001
40
-1
40
-1
40
-1
40
-1
40
0
40
0
40
0
40
0
10
152.61937499999931
20
-6.4154153507983569
30
0
10
152.61937499999931
20
-5.86313060096737
30
0
10
153.0670902501692
20
-5.4154153507976677
30
0
10
153.61937500000016
20
-5.4154153507976677
30
0
0
LINE
5
1D1
100
AcDbEntity
8
CUTOUTS
100
AcDbLine
10
153.61937500000016
20
-5.4154153507976677
30
0
11
165.61937499999976
21
-5.4154153507976677
31
0
0
SPLINE
5
1D2
100
AcDbEntity
8
CUTOUTS
100
AcDbSpline
70
0
71
3
72
8
73
4
74
0
42
0.000000001
43
0.0000000001
44
0.0000000001
40
-1
40
-1
40
-1
40
-1
40
0
40
0
40
0
40
0
10
165.61937499999976
20
-5.4154153507976677
30
0
10
166.17165974983081
20
-5.4154153507976677
30
0
10
166.61937499999979
20
-5.8631306009673878
30
0
10
166.61937499999979
20
-6.4154153507977174
30
0
0
LINE
5
1D3
100
AcDbEntity
8
CUTOUTS
100
AcDbLine
10
166.61937499999988
20
-6.4154153507977174
30
0
11
166.61937499999979
21
-18.415415350798163
31
0
0
SPLINE
5
1D4
100
AcDbEntity
8
CUTOUTS
100
AcDbSpline
70
0
71
3
72
8
73
4
74
0
42
0.000000001
43
0.0000000001
44
0.0000000001
40
-1
40
-1
40
-1
40
-1
40
0
40
0
40
0
40
0
10
166.61937499999979
20
-18.415415350798128
30
0
10
166.61937499999979
20
-18.967700100628448
30
0
10
166.17165974983081
20
-19.41541535079816
30
0
10
165.61937499999976
20
-19.41541535079816
30
0
0
LINE
5
1D5
100
AcDbEntity
8
CUTOUTS
100
AcDbLine
10
165.61937499999976
20
-19.41541535079816
30
0
11
158.3886250000038
21
-19.415415350798177
31
0
0
LINE
5
1D6
100
AcDbEntity
8
CUTOUTS
100
AcDbLine
10
158.3886250000038
20
-19.415415350798177
30
0
11
158.38862500000403
21
-20.41541564902974
31
0
0
LINE
5
1D7
100
AcDbEntity
8
CUTOUTS
100
AcDbLine
10
-140.21937500000033
20
13.634584649202237
30
0
11
-123.45687500000032
21
13.634584649202184
31
0
0
ARC
5
1D8
100
AcDbEntity
8
CUTOUTS
100
AcDbCircle
10
-123.45687500000034
20
12.634584649202125
30
0
40
0.99999999999999645
210
0
220
-0
230
1
100
AcDbArc
50
0
51
89.99999999999919
0
LINE
5
1D9
100
AcDbEntity
8
CUTOUTS
100
AcDbLine
10
-122.45687500000034
20
12.634584649202152
30
0
11
-122.45687500000039
21
0.63458464920209678
31
0
0
ARC
5
1DA
100
AcDbEntity
8
CUTOUTS
100
AcDbCircle
10
-123.45687500000038
20
0.63458464920207014
30
0
40
0.99999999999997868
210
-0
220
0
230
1
100
AcDbArc
50
-90
51
0
0
LINE
5
1DB
100
AcDbEntity
8
CUTOUTS
100
AcDbLine
10
-123.45687500000038
20
-0.36541535079790854
30
0
11
-140.21937500000033
21
-0.36541535079789966
31
0
0
SPLINE
5
1DC
100
AcDbEntity
8
CUTOUTS
100
AcDbSpline
70
0
71
3
72
8
73
4
74
0
42
0.000000001
43
0.0000000001
44
0.0000000001
40
-1
40
-1
40
-1
40
-1
40
0
40
0
40
0
40
0
10
-140.21937500000033
20
-0.36541535079789966
30
0
10
-140.771659749831
20
-0.36541535079789966
30
0
10
-141.21937500000007
20
0.082299899371163221
30
0
10
-141.21937500000041
20
0.63458464920212343
30
0
0
LINE
5
1DD
100
AcDbEntity
8
CUTOUTS
100
AcDbLine
10
-141.21937500000041
20
0.63458464920212343
30
0
11
-141.21937500000041
21
12.634584649202223
31
0
0
SPLINE
5
1DE
100
AcDbEntity
8
CUTOUTS
100
AcDbSpline
70
0
71
3
72
8
73
4
74
0
42
0.000000001
43
0.0000000001
44
0.0000000001
40
-1
40
-1
40
-1
40
-1
40
0
40
0
40
0
40
0
10
-141.21937500000041
20
12.634584649202223
30
0
10
-141.21937500000007
20
13.186869399032863
30
0
10
-140.771659749831
20
13.634584649201926
30
0
10
-140.21937500000033
20
13.634584649202237
30
0
0
LINE
5
1DF
100
AcDbEntity
8
CUTOUTS
100
AcDbLine
10
-114.42137499999734
20
-21.415415649029754
30
0
11
-119.42137499999463
21
-21.415415649029754
31
0
0
SPLINE
5
1E0
100
AcDbEntity
8
CUTOUTS
100
AcDbSpline
70
0
71
3
72
8
73
4
74
0
42
0.000000001
43
0.0000000001
44
0.0000000001
40
-1
40
-1
40
-1
40
-1
40
0
40
0
40
0
40
0
10
-119.42137499999463
20
-21.415415649029754
30
0
10
-119.97365974982532
20
-21.415415649029754
30
0
10
-120.421374999994
20
-20.967700398860664
30
0
10
-120.42137499999428
20
-20.415415649029693
30
0
0
LINE
5
1E1
100
AcDbEntity
8
CUTOUTS
100
AcDbLine
10
-120.42137499999428
20
-20.415415649029693
30
0
11
-120.421374999994
21
-7.4154156490298817
31
0
0
SPLINE
5
1E2
100
AcDbEntity
8
CUTOUTS
100
AcDbSpline
70
0
71
3
72
8
73
4
74
0
42
0.000000001
43
0.0000000001
44
0.0000000001
40
-1
40
-1
40
-1
40
-1
40
0
40
0
40
0
40
0
10
-120.421374999994
20
-7.4154156490298817
30
0
10
-120.421374999994
20
-6.8631308991982909
30
0
10
-119.97365974982463
20
-6.4154156490292191
30
0
10
-119.42137499999374
20
-6.4154156490292191
30
0
0
LINE
5
1E3
100
AcDbEntity
8
CUTOUTS
100
AcDbLine
10
-119.42137499999374
20
-6.4154156490292191
30
0
11
-114.42137499999734
21
-6.4154156490292014
31
0
0
SPLINE
5
1E4
100
AcDbEntity
8
CUTOUTS
100
AcDbSpline
70
0
71
3
72
8
73
4
74
0
42
0.000000001
43
0.0000000001
44
0.0000000001
40
-1
40
-1
40
-1
40
-1
40
0
40
0
40
0
40
0
10
-114.42137499999734
20
-6.4154156490292191
30
0
10
-113.86909025016676
20
-6.4154156490292191
30
0
10
-113.4213749999973
20
-6.8631308991982909
30
0
10
-113.42137499999703
20
-7.4154156490286027
30
0
0
LINE
5
1E5
100
AcDbEntity
8
CUTOUTS
100
AcDbLine
10
-113.42137499999703
20
-7.4154156490286027
30
0
11
-113.42137499999696
21
-20.415415649029693
31
0
0
SPLINE
5
1E6
100
AcDbEntity
8
CUTOUTS
100
AcDbSpline
70
0
71
3
72
8
73
4
74
0
42
0.000000001
43
0.0000000001
44
0.0000000001
40
-1
40
-1
40
-1
40
-1
40
0
40
0
40
0
40
0
10
-113.42137499999703
20
-20.415415649029693
30
0
10
-113.42137499999703
20
-20.967700398860664
30
0
10
-113.86909025016638
20
-21.415415649029754
30
0
10
-114.42137499999734
20
-21.415415649029754
30
0
0
LINE
5
1E7
100
AcDbEntity
8
CUTOUTS
100
AcDbLine
10
45.748006121248892
20
-57.713495903055012
30
0
11
46.586538032215401
21
-55.132760045276569
31
0
0
LINE
5
1E8
100
AcDbEntity
8
CUTOUTS
100
AcDbLine
10
46.586538032215401
20
-55.132760045276569
30
0
11
49.240786800992495
21
-54.568582053168484
31
0
0
LINE
5
1E9
100
AcDbEntity
8
CUTOUTS
100
AcDbLine
10
49.240786800992495
20
-54.568582053168484
30
0
11
51.056503658802797
21
-56.585139918838834
31
0
0
LINE
5
1EA
100
AcDbEntity
8
CUTOUTS
100
AcDbLine
10
51.056503658802797
20
-56.585139918838834
30
0
11
50.217971747835861
21
-59.165875776617362
31
0
0
LINE
5
1EB
100
AcDbEntity
8
CUTOUTS
100
AcDbLine
10
50.217971747835861
20
-59.165875776617362
30
0
11
47.563722979058909
21
-59.730053768725433
31
0
0
LINE
5
1EC
100
AcDbEntity
8
CUTOUTS
100
AcDbLine
10
47.563722979058909
20
-59.730053768725433
30
0
11
45.748006121248892
21
-57.713495903055012
31
0
0
LINE
5
1ED
100
AcDbEntity
8
CUTOUTS
100
AcDbLine
10
51.115801155217042
20
62.624584649202141
30
0
11
49.75902802262123
21
60.274584649202126
31
0
0
LINE
5
1EE
100
AcDbEntity
8
CUTOUTS
100
AcDbLine
10
49.75902802262123
20
60.274584649202126
30
0
11
47.045481757430068
21
60.274584649202126
31
0
0
LINE
5
1EF
100
AcDbEntity
8
CUTOUTS
100
AcDbLine
10
47.045481757430068
20
60.274584649202126
30
0
11
45.688708624834575
21
62.624584649202191
31
0
0
LINE
5
1F0
100
AcDbEntity
8
CUTOUTS
100
AcDbLine
10
45.688708624834575
20
62.624584649202191
30
0
11
47.045481757430068
21
64.974584649202129
31
0
0
LINE
5
1F1
100
AcDbEntity
8
CUTOUTS
100
AcDbLine
10
47.045481757430068
20
64.974584649202129
30
0
11
49.759028022621337
21
64.974584649202129
31
0
0
LINE
5
1F2
100
AcDbEntity
8
CUTOUTS
100
AcDbLine
10
49.759028022621337
20
64.974584649202129
30
0
11
51.115801155217042
21
62.624584649202141
31
0
0
LINE
5
1F3
100
AcDbEntity
8
CUTOUTS
100
AcDbLine
10
-47.085288032218742
20
-55.132760045276548
30
0
11
-46.246756121251842
21
-57.713495903055012
31
0
0
LINE
5
1F4
100
AcDbEntity
8
CUTOUTS
100
AcDbLine
10
-46.246756121251842
20
-57.713495903055012
30
0
11
-48.062472979062107
21
-59.730053768725426
31
0
0
LINE
5
1F5
100
AcDbEntity
8
CUTOUTS
100
AcDbLine
10
-48.062472979062107
20
-59.730053768725426
30
0
11
-50.71672174783906
21
-59.165875776617334
31
0
0
LINE
5
1F6
100
AcDbEntity
8
CUTOUTS
100
AcDbLine
10
-50.71672174783906
20
-59.165875776617334
30
0
11
-51.555253658805796
21
-56.585139918838834
31
0
0
LINE
5
1F7
100
AcDbEntity
8
CUTOUTS
100
AcDbLine
10
-51.555253658805796
20
-56.585139918838834
30
0
11
-49.739536800995708
21
-54.568582053168456
31
0
0
LINE
5
1F8
100
AcDbEntity
8
CUTOUTS
100
AcDbLine
10
-49.739536800995708
20
-54.568582053168456
30
0
11
-47.085288032218742
21
-55.132760045276548
31
0
0
LINE
5
1F9
100
AcDbEntity
8
CUTOUTS
100
AcDbLine
10
-50.257778022624549
20
60.274584649202126
30
0
11
-51.614551155220042
21
62.624584649202191
31
0
0
LINE
5
1FA
100
AcDbEntity
8
CUTOUTS
100
AcDbLine
10
-51.614551155220042
20
62.624584649202191
30
0
11
-50.257778022624464
21
64.974584649202129
31
0
0
LINE
5
1FB
100
AcDbEntity
8
CUTOUTS
100
AcDbLine
10
-50.257778022624464
20
64.974584649202129
30
0
11
-47.544231757433266
21
64.974584649202129
31
0
0
LINE
5
1FC
100
AcDbEntity
8
CUTOUTS
100
AcDbLine
10
-47.544231757433266
20
64.974584649202129
30
0
11
-46.187458624837561
21
62.624584649202141
31
0
0
LINE
5
1FD
100
AcDbEntity
8
CUTOUTS
100
AcDbLine
10
-46.187458624837561
20
62.624584649202141
30
0
11
-47.544231757433302
21
60.274584649202126
31
0
0
LINE
5
1FE
100
AcDbEntity
8
CUTOUTS
100
AcDbLine
10
-47.544231757433302
20
60.274584649202126
30
0
11
-50.257778022624549
21
60.274584649202126
31
0
0
LINE
5
1FF
100
AcDbEntity
8
CUTOUTS
100
AcDbLine
10
3.0319510280735074
20
-19.333722328903711
30
0
11
10.395378759985192
21
-17.768577448102654
31
0
0
ARC
5
200
100
AcDbEntity
8
CUTOUTS
100
AcDbCircle
10
3.2398627188912243
20
-20.311869929637467
30
0
40
0.99999999999994083
210
0
220
0
230
1
100
AcDbArc
50
101.99999999999822
51
192.00000000000446
0
LINE
5
201
100
AcDbEntity
8
CUTOUTS
100
AcDbLine
10
5.2556434659340923
20
-34.605107071024186
30
0
11
2.2617151181574968
21
-20.519781620455291
31
0
0
ARC
5
202
100
AcDbEntity
8
CUTOUTS
100
AcDbCircle
10
6.2337910666678553
20
-34.39719538020649
30
0
40
0.99999999999994493
210
0
220
0
230
1
100
AcDbArc
50
191.9999999999969
51
282.00000000000443
0
LINE
5
203
100
AcDbEntity
8
CUTOUTS
100
AcDbLine
10
12.570711239332724
20
-34.072582011592189
30
0
11
6.4417027574856789
21
-35.375342980940225
31
0
0
ARC
5
204
100
AcDbEntity
8
CUTOUTS
100
AcDbCircle
10
12.778622930150512
20
-35.050729612325966
30
0
40
0.99999999999997846
210
0
220
-0
230
1
100
AcDbArc
50
11.999999999956971
51
102.00000000000195
0
LINE
5
205
100
AcDbEntity
8
CUTOUTS
100
AcDbLine
10
17.303169392875191
20
-51.527312787908919
30
0
11
13.756770530884452
21
-34.842817921508953
31
0
0
ARC
5
206
100
AcDbEntity
8
CUTOUTS
100
AcDbCircle
10
18.281316993609202
20
-51.319401097091806
30
0
40
1.0000000000000673
210
0
220
0
230
1
100
AcDbArc
50
191.99999999996129
51
282.0000000000008
0
LINE
5
207
100
AcDbEntity
8
CUTOUTS
100
AcDbLine
10
49.081773044975421
20
-45.794902655807618
30
0
11
18.48922868442699
21
-52.297548697825675
31
0
0
ARC
5
208
100
AcDbEntity
8
CUTOUTS
100
AcDbCircle
10
48.873861354157633
20
-44.816755055073841
30
0
40
0.99999999999996425
210
-0
220
0
230
1
100
AcDbArc
50
-77.999999999997897
51
12.000000000002986
0
LINE
5
209
100
AcDbEntity
8
CUTOUTS
100
AcDbLine
10
46.305610092888259
20
-27.924348497858489
30
0
11
49.852008954891396
21
-44.608843364256039
31
0
0
ARC
5
20A
100
AcDbEntity
8
CUTOUTS
100
AcDbCircle
10
47.283757693622093
20
-27.716436807040736
30
0
40
1.0000000000000324
210
0
220
0
230
1
100
AcDbArc
50
102.00000000000334
51
191.99999999999918
0
LINE
5
20B
100
AcDbEntity
8
CUTOUTS
100
AcDbLine
10
75.881702699965246
20
-20.615415350798145
30
0
11
47.075846002804269
21
-26.738289206306909
31
0
0
LINE
5
20C
100
AcDbEntity
8
CUTOUTS
100
AcDbLine
10
114.43062499999932
20
-20.61541535079817
30
0
11
75.881702699965246
21
-20.615415350798145
31
0
0
ARC
5
20D
100
AcDbEntity
8
CUTOUTS
100
AcDbCircle
10
114.4306249999994
20
-19.615415350798244
30
0
40
0.99999999999992539
210
0
220
0
230
1
100
AcDbArc
50
-90.000000000004079
51
0
0
LINE
5
20E
100
AcDbEntity
8
CUTOUTS
100
AcDbLine
10
115.43062499999934
20
-2.5654153507979593
30
0
11
115.43062499999934
21
-19.615415350798145
31
0
0
ARC
5
20F
100
AcDbEntity
8
CUTOUTS
100
AcDbCircle
10
116.43062499999935
20
-2.5654153507980126
30
0
40
1.0000000000000409
210
0
220
-0
230
1
100
AcDbArc
50
89.999999999995936
51
180
0
LINE
5
210
100
AcDbEntity
8
CUTOUTS
100
AcDbLine
10
119.79062499999934
20
-1.5654153507979984
30
0
11
116.43062499999942
21
-1.5654153507979718
31
0
0
ARC
5
211
100
AcDbEntity
8
CUTOUTS
100
AcDbCircle
10
119.79062499999941
20
-0.56541535079807304
30
0
40
0.99999999999992539
210
0
220
0
230
1
100
AcDbArc
50
-90.000000000004079
51
0
0
LINE
5
212
100
AcDbEntity
8
CUTOUTS
100
AcDbLine
10
120.79062499999935
20
16.484584649201864
30
0
11
120.79062499999935
21
-0.56541535079797534
31
0
0
ARC
5
213
100
AcDbEntity
8
CUTOUTS
100
AcDbCircle
10
121.79062499999944
20
16.484584649201793
30
0
40
1.0000000000000675
210
0
220
-0
230
1
100
AcDbArc
50
90
51
180
0
LINE
5
214
100
AcDbEntity
8
CUTOUTS
100
AcDbLine
10
129.80062499999997
20
17.484584649201807
30
0
11
121.79062499999944
21
17.484584649201864
31
0
0
ARC
5
215
100
AcDbEntity
8
CUTOUTS
100
AcDbCircle
10
129.80062499999988
20
18.484584649201736
30
0
40
0.99999999999992539
210
-0
220
0
230
1
100
AcDbArc
50
-89.999999999995111
51
0
0
LINE
5
216
100
AcDbEntity
8
CUTOUTS
100
AcDbLine
10
130.80062499999954
20
32.884584649202104
30
0
11
130.80062499999983
21
18.484584649201857
31
0
0
ARC
5
217
100
AcDbEntity
8
CUTOUTS
100
AcDbCircle
10
129.8006249999996
20
32.884584649202189
30
0
40
0.99999999999994316
210
-0
220
0
230
1
100
AcDbArc
50
0
51
90.000000000004889
0
LINE
5
218
100
AcDbEntity
8
CUTOUTS
100
AcDbLine
10
118.11062499999977
20
33.884584649202118
30
0
11
129.80062499999951
21
33.884584649202132
31
0
0
ARC
5
219
100
AcDbEntity
8
CUTOUTS
100
AcDbCircle
10
118.11062499999977
20
34.884584649202132
30
0
40
1.0000000000000142
210
0
220
0
230
1
100
AcDbArc
50
180
51
270
0
LINE
5
21A
100
AcDbEntity
8
CUTOUTS
100
AcDbLine
10
117.11062499999983
20
51.934584649201938
30
0
11
117.11062499999976
21
34.884584649202097
31
0
0
ARC
5
21B
100
AcDbEntity
8
CUTOUTS
100
AcDbCircle
10
116.11062499999981
20
51.934584649201902
30
0
40
1.0000000000000142
210
0
220
-0
230
1
100
AcDbArc
50
0
51
90.000000000004079
0
LINE
5
21C
100
AcDbEntity
8
CUTOUTS
100
AcDbLine
10
107.39225252610211
20
52.934584649201916
30
0
11
116.11062499999974
21
52.934584649201916
31
0
0
LINE
5
21D
100
AcDbEntity
8
CUTOUTS
100
AcDbLine
10
97.361958409686054
20
55.074584649202151
30
0
11
107.39225252610211
21
52.934584649201916
31
0
0
LINE
5
21E
100
AcDbEntity
8
CUTOUTS
100
AcDbLine
10
78.23393788758554
20
55.074584649202151
30
0
11
97.361958409686054
21
55.074584649202151
31
0
0
LINE
5
21F
100
AcDbEntity
8
CUTOUTS
100
AcDbLine
10
5.131951028073729
20
39.536277671097466
30
0
11
78.23393788758554
21
55.074584649202151
31
0
0
ARC
5
220
100
AcDbEntity
8
CUTOUTS
100
AcDbCircle
10
5.3398627188915526
20
38.558130070363632
30
0
40
1.0000000000000413
210
0
220
0
230
1
100
AcDbArc
50
102.00000000000325
51
191.99999999999488
0
LINE
5
221
100
AcDbEntity
8
CUTOUTS
100
AcDbLine
10
7.9056146699002738
20
21.677481843448582
30
0
11
4.361715118157683
21
38.35021837954595
31
0
0
ARC
5
222
100
AcDbEntity
8
CUTOUTS
100
AcDbCircle
10
6.9274670691664753
20
21.469570152630844
30
0
40
0.99999999999999178
210
-0
220
0
230
1
100
AcDbArc
50
-78.000000000000284
51
11.999999999998856
0
LINE
5
223
100
AcDbEntity
8
CUTOUTS
100
AcDbLine
10
-0.22804897192607143
20
18.926277671096592
30
0
11
7.1353787599842278
21
20.491422551897045
31
0
0
ARC
5
224
100
AcDbEntity
8
CUTOUTS
100
AcDbCircle
10
-0.020137281108318916
20
17.948130070362708
30
0
40
1.0000000000000786
210
0
220
0
230
1
100
AcDbArc
50
101.99999999999868
51
191.99999999999361
0
LINE
5
225
100
AcDbEntity
8
CUTOUTS
100
AcDbLine
10
1.9956434659331279
20
3.6548929289781995
30
0
11
-0.99828488184222408
21
17.740218379545041
31
0
0
ARC
5
226
100
AcDbEntity
8
CUTOUTS
100
AcDbCircle
10
2.9737910666670331
20
3.8628046197960586
30
0
40
1.0000000000001183
210
0
220
0
230
1
100
AcDbArc
50
192.00000000000438
51
281.99999999999403
0
LINE
5
227
100
AcDbEntity
8
CUTOUTS
100
AcDbLine
10
5.8833376033129881
20
3.4589072327792714
30
0
11
3.1817027574847145
21
2.8846570190621179
31
0
0
ARC
5
228
100
AcDbEntity
8
CUTOUTS
100
AcDbCircle
10
6.0912492941308116
20
2.4807596320455261
30
0
40
0.99999999999995515
210
0
220
-0
230
1
100
AcDbArc
50
11.999999999999588
51
102.00000000000432
0
LINE
5
229
100
AcDbEntity
8
CUTOUTS
100
AcDbLine
10
11.165614669901238
20
-16.582518156551078
30
0
11
7.0693968948645747
21
2.6886713228632697
31
0
0
ARC
5
22A
100
AcDbEntity
8
CUTOUTS
100
AcDbCircle
10
10.187467069167511
20
-16.790429847368912
30
0
40
0.99999999999992484
210
-0
220
0
230
1
100
AcDbArc
50
-78.000000000003595
51
12.000000000005096
0
SPLINE
5
22B
100
AcDbEntity
8
CUTOUTS
100
AcDbSpline
70
0
71
3
72
8
73
4
74
0
42
0.000000001
43
0.0000000001
44
0.0000000001
40
-1
40
-1
40
-1
40
-1
40
0
40
0
40
0
40
0
10
-89.543642440127357
20
-39.564978411028314
30
0
10
-90.083858443096275
20
-39.450151954878024
30
0
10
-90.428704806193707
20
-38.919135122445326
30
0
10
-90.313878350043396
20
-38.378919119476656
30
0
0
LINE
5
22C
100
AcDbEntity
8
CUTOUTS
100
AcDbLine
10
-90.313878350043382
20
-38.378919119476656
30
0
11
-87.818938060230423
21
-26.64114791067049
31
0
0
SPLINE
5
22D
100
AcDbEntity
8
CUTOUTS
100
AcDbSpline
70
0
71
3
72
8
73
4
74
0
42
0.000000001
43
0.0000000001
44
0.0000000001
40
-1
40
-1
40
-1
40
-1
40
0
40
0
40
0
40
0
10
-87.818938060230465
20
-26.64114791067049
30
0
10
-87.704111604080168
20
-26.100931907701828
30
0
10
-87.173094771647413
20
-25.756085544604701
30
0
10
-86.632878768678822
20
-25.870912000754984
30
0
0
LINE
5
22E
100
AcDbEntity
8
CUTOUTS
100
AcDbLine
10
-86.632878768678822
20
-25.870912000754984
30
0
11
-74.895107559872898
21
-28.365852290567993
31
0
0
SPLINE
5
22F
100
AcDbEntity
8
CUTOUTS
100
AcDbSpline
70
0
71
3
72
8
73
4
74
0
42
0.000000001
43
0.0000000001
44
0.0000000001
40
-1
40
-1
40
-1
40
-1
40
0
40
0
40
0
40
0
10
-74.895107559872898
20
-28.365852290568
30
0
10
-74.354891556904263
20
-28.480678746718276
30
0
10
-74.010045193806889
20
-29.011695579150356
30
0
10
-74.1248716499571
20
-29.551911582119658
30
0
0
LINE
5
230
100
AcDbEntity
8
CUTOUTS
100
AcDbLine
10
-74.124871649957115
20
-29.551911582119658
30
0
11
-76.619811939770102
21
-41.289682790925184
31
0
0
SPLINE
5
231
100
AcDbEntity
8
CUTOUTS
100
AcDbSpline
70
0
71
3
72
8
73
4
74
0
42
0.000000001
43
0.0000000001
44
0.0000000001
40
-1
40
-1
40
-1
40
-1
40
0
40
0
40
0
40
0
10
-76.619811939770102
20
-41.289682790925184
30
0
10
-76.734638395920385
20
-41.829898793893854
30
0
10
-77.265655228352799
20
-42.174745156991619
30
0
10
-77.80587123132176
20
-42.059918700841337
30
0
0
LINE
5
232
100
AcDbEntity
8
CUTOUTS
100
AcDbLine
10
-77.80587123132176
20
-42.059918700841337
30
0
11
-89.543642440127257
21
-39.564978411028314
31
0
0
LINE
5
233
100
AcDbEntity
8
CUTOUTS
100
AcDbLine
10
-135.36937500000033
20
38.734584649202198
30
0
11
-135.36937500000033
21
50.734584649202354
31
0
0
SPLINE
5
234
100
AcDbEntity
8
CUTOUTS
100
AcDbSpline
70
0
71
3
72
8
73
4
74
0
42
0.000000001
43
0.0000000001
44
0.0000000001
40
-1
40
-1
40
-1
40
-1
40
0
40
0
40
0
40
0
10
-135.36937500000033
20
50.734584649202297
30
0
10
-135.36937500000033
20
51.286869399032902
30
0
10
-134.92165974983092
20
51.734584649201992
30
0
10
-134.3693750000003
20
51.734584649201992
30
0
0
LINE
5
235
100
AcDbEntity
8
CUTOUTS
100
AcDbLine
10
-134.3693750000003
20
51.734584649201992
30
0
11
-122.36937500000013
21
51.734584649201992
31
0
0
SPLINE
5
236
100
AcDbEntity
8
CUTOUTS
100
AcDbSpline
70
0
71
3
72
8
73
4
74
0
42
0.000000001
43
0.0000000001
44
0.0000000001
40
-1
40
-1
40
-1
40
-1
40
0
40
0
40
0
40
0
10
-122.36937500000013
20
51.734584649201992
30
0
10
-121.81709025016951
20
51.734584649201992
30
0
10
-121.36937500000015
20
51.286869399032902
30
0
10
-121.36937500000015
20
50.734584649202297
30
0
0
LINE
5
237
100
AcDbEntity
8
CUTOUTS
100
AcDbLine
10
-121.36937500000015
20
50.734584649202297
30
0
11
-121.36937500000015
21
38.734584649202198
31
0
0
SPLINE
5
238
100
AcDbEntity
8
CUTOUTS
100
AcDbSpline
70
0
71
3
72
8
73
4
74
0
42
0.000000001
43
0.0000000001
44
0.0000000001
40
-1
40
-1
40
-1
40
-1
40
0
40
0
40
0
40
0
10
-121.36937500000015
20
38.734584649202148
30
0
10
-121.36937500000015
20
38.182299899371188
30
0
10
-121.81709025016951
20
37.734584649202098
30
0
10
-122.36937500000013
20
37.734584649202098
30
0
0
LINE
5
239
100
AcDbEntity
8
CUTOUTS
100
AcDbLine
10
-122.36937500000013
20
37.734584649202098
30
0
11
-134.3693750000003
21
37.734584649202098
31
0
0
SPLINE
5
23A
100
AcDbEntity
8
CUTOUTS
100
AcDbSpline
70
0
71
3
72
8
73
4
74
0
42
0.000000001
43
0.0000000001
44
0.0000000001
40
-1
40
-1
40
-1
40
-1
40
0
40
0
40
0
40
0
10
-134.3693750000003
20
37.734584649202098
30
0
10
-134.92165974983092
20
37.734584649202098
30
0
10
-135.36937500000033
20
38.182299899371188
30
0
10
-135.36937500000033
20
38.734584649202198
30
0
0
LINE
5
23B
100
AcDbEntity
8
CUTOUTS
100
AcDbLine
10
172.08292126519103
20
-47.215415350797933
30
0
11
170.72614813259548
21
-49.565415350797942
31
0
0
LINE
5
23C
100
AcDbEntity
8
CUTOUTS
100
AcDbLine
10
170.72614813259548
20
-49.565415350797942
30
0
11
168.01260186740421
21
-49.565415350797963
31
0
0
LINE
5
23D
100
AcDbEntity
8
CUTOUTS
100
AcDbLine
10
168.01260186740421
20
-49.565415350797963
30
0
11
166.65582873480867
21
-47.21541535079794
31
0
0
LINE
5
23E
100
AcDbEntity
8
CUTOUTS
100
AcDbLine
10
166.65582873480867
20
-47.21541535079794
30
0
11
168.01260186740421
21
-44.86541535079791
31
0
0
LINE
5
23F
100
AcDbEntity
8
CUTOUTS
100
AcDbLine
10
168.01260186740421
20
-44.86541535079791
30
0
11
170.72614813259548
21
-44.86541535079791
31
0
0
LINE
5
240
100
AcDbEntity
8
CUTOUTS
100
AcDbLine
10
170.72614813259548
20
-44.86541535079791
30
0
11
172.08292126519103
21
-47.215415350797933
31
0
0
LINE
5
241
100
AcDbEntity
8
CUTOUTS
100
AcDbLine
10
-144.38937500000009
20
52.874584649202198
30
0
11
-144.38937500000009
21
40.874584649202063
31
0
0
SPLINE
5
242
100
AcDbEntity
8
CUTOUTS
100
AcDbSpline
70
0
71
3
72
8
73
4
74
0
42
0.000000001
43
0.0000000001
44
0.0000000001
40
-1
40
-1
40
-1
40
-1
40
0
40
0
40
0
40
0
10
-144.38937500000009
20
40.874584649202063
30
0
10
-144.38937500000009
20
40.322299899371401
30
0
10
-144.8370902501695
20
39.874584649202049
30
0
10
-145.38937500000014
20
39.874584649202049
30
0
0
LINE
5
243
100
AcDbEntity
8
CUTOUTS
100
AcDbLine
10
-145.38937500000014
20
39.874584649202049
30
0
11
-157.3893750000002
21
39.874584649202049
31
0
0
SPLINE
5
244
100
AcDbEntity
8
CUTOUTS
100
AcDbSpline
70
0
71
3
72
8
73
4
74
0
42
0.000000001
43
0.0000000001
44
0.0000000001
40
-1
40
-1
40
-1
40
-1
40
0
40
0
40
0
40
0
10
-157.3893750000002
20
39.874584649202049
30
0
10
-157.94165974983116
20
39.874584649202049
30
0
10
-158.38937500000026
20
40.322299899371401
30
0
10
-158.38937500000026
20
40.874584649202063
30
0
0
LINE
5
245
100
AcDbEntity
8
CUTOUTS
100
AcDbLine
10
-158.38937500000026
20
40.874584649202063
30
0
11
-158.38937500000026
21
52.874584649202198
31
0
0
SPLINE
5
246
100
AcDbEntity
8
CUTOUTS
100
AcDbSpline
70
0
71
3
72
8
73
4
74
0
42
0.000000001
43
0.0000000001
44
0.0000000001
40
-1
40
-1
40
-1
40
-1
40
0
40
0
40
0
40
0
10
-158.38937500000026
20
52.874584649202198
30
0
10
-158.38937500000026
20
53.426869399032817
30
0
10
-157.94165974983085
20
53.874584649202212
30
0
10
-157.3893750000002
20
53.874584649202212
30
0
0
LINE
5
247
100
AcDbEntity
8
CUTOUTS
100
AcDbLine
10
-157.3893750000002
20
53.874584649202212
30
0
11
-145.38937500000014
21
53.874584649202212
31
0
0
SPLINE
5
248
100
AcDbEntity
8
CUTOUTS
100
AcDbSpline
70
0
71
3
72
8
73
4
74
0
42
0.000000001
43
0.0000000001
44
0.0000000001
40
-1
40
-1
40
-1
40
-1
40
0
40
0
40
0
40
0
10
-145.38937500000014
20
53.874584649202212
30
0
10
-144.83709025016947
20
53.874584649202212
30
0
10
-144.38937500000009
20
53.426869399032817
30
0
10
-144.38937500000009
20
52.874584649202198
30
0
0
LINE
5
249
100
AcDbEntity
8
CUTOUTS
100
AcDbLine
10
172.08292126519103
20
62.624584649202085
30
0
11
170.72614813259548
21
60.274584649202112
31
0
0
LINE
5
24A
100
AcDbEntity
8
CUTOUTS
100
AcDbLine
10
170.72614813259548
20
60.274584649202112
30
0
11
168.01260186740421
21
60.274584649202055
31
0
0
LINE
5
24B
100
AcDbEntity
8
CUTOUTS
100
AcDbLine
10
168.01260186740421
20
60.274584649202055
30
0
11
166.65582873480867
21
62.624584649202085
31
0
0
LINE
5
24C
100
AcDbEntity
8
CUTOUTS
100
AcDbLine
10
166.65582873480867
20
62.624584649202085
30
0
11
168.01260186740421
21
64.974584649202086
31
0
0
LINE
5
24D
100
AcDbEntity
8
CUTOUTS
100
AcDbLine
10
168.01260186740421
20
64.974584649202086
30
0
11
170.72614813259548
21
64.974584649202086
31
0
0
LINE
5
24E
100
AcDbEntity
8
CUTOUTS
100
AcDbLine
10
170.72614813259548
20
64.974584649202086
30
0
11
172.08292126519103
21
62.624584649202085
31
0
0
LINE
5
24F
100
AcDbEntity
8
PERIMETER
100
AcDbLine
10
96.777218049262615
20
-53.215415350797869
30
0
11
176.169375
21
-53.215415350797841
31
0
0
ARC
5
250
100
AcDbEntity
8
PERIMETER
100
AcDbCircle
10
176.16937500000006
20
-50.015415350797866
30
0
40
3.1999999999999762
210
0
220
0
230
1
100
AcDbArc
50
-90.000000000001009
51
0
0
LINE
5
251
100
AcDbEntity
8
PERIMETER
100
AcDbLine
10
179.36937500000005
20
-50.015415350797838
30
0
11
179.36937499999999
21
65.424584649202131
31
0
0
ARC
5
252
100
AcDbEntity
8
PERIMETER
100
AcDbCircle
10
176.16937500000006
20
65.424584649202131
30
0
40
3.1999999999999318
210
0
220
-0
230
1
100
AcDbArc
50
0
51
90.000000000001009
0
LINE
5
253
100
AcDbEntity
8
PERIMETER
100
AcDbLine
10
176.169375
20
68.624584649202063
30
0
11
-176.16937500000006
21
68.624584649202191
31
0
0
ARC
5
254
100
AcDbEntity
8
PERIMETER
100
AcDbCircle
10
-176.16937500000006
20
65.424584649202203
30
0
40
3.1999999999999851
210
0
220
-0
230
1
100
AcDbArc
50
90
51
180
0
LINE
5
255
100
AcDbEntity
8
PERIMETER
100
AcDbLine
10
-179.36937500000002
20
65.424584649202188
30
0
11
-179.36937500000005
21
-50.015415350797888
31
0
0
ARC
5
256
100
AcDbEntity
8
PERIMETER
100
AcDbCircle
10
-176.16937500000006
20
-50.015415350797895
30
0
40
3.2000000000000028
210
0
220
0
230
1
100
AcDbArc
50
180
51
270
0
LINE
5
257
100
AcDbEntity
8
PERIMETER
100
AcDbLine
10
-176.16937500000006
20
-53.21541535079789
30
0
11
-97.2759680492711
21
-53.21541535079789
31
0
0
ARC
5
258
100
AcDbEntity
8
PERIMETER
100
AcDbCircle
10
-97.275968049271086
20
-62.815415350798034
30
0
40
9.6000000000001418
210
0
220
-0
230
1
100
AcDbArc
50
78.000000000000156
51
90
0
LINE
5
259
100
AcDbEntity
8
PERIMETER
100
AcDbLine
10
-95.28001581742059
20
-53.425198383753354
30
0
11
-24.759477120696616
21
-68.414801616246748
31
0
0
ARC
5
25A
100
AcDbEntity
8
PERIMETER
100
AcDbCircle
10
-22.76352488884605
20
-59.024584649201337
30
0
40
9.6000000000008683
210
0
220
0
230
1
100
AcDbArc
50
258.00000000000063
51
269.9999999999996
0
LINE
5
25B
100
AcDbEntity
8
PERIMETER
100
AcDbLine
10
-22.763524888846121
20
-68.624584649202205
30
0
11
22.264774888837451
21
-68.624584649202205
31
0
0
ARC
5
25C
100
AcDbEntity
8
PERIMETER
100
AcDbCircle
10
22.26477488883738
20
-59.024584649201131
30
0
40
9.6000000000010655
210
-0
220
0
230
1
100
AcDbArc
50
270.0000000000004
51
281.99999999999903
0
LINE
5
25D
100
AcDbEntity
8
PERIMETER
100
AcDbLine
10
24.260727120687946
20
-68.414801616246748
30
0
11
94.781265817412105
21
-53.425198383753326
31
0
0
ARC
5
25E
100
AcDbEntity
8
PERIMETER
100
AcDbCircle
10
96.777218049262615
20
-62.815415350798069
30
0
40
9.6000000000002039
210
0
220
-0
230
1
100
AcDbArc
50
90
51
101.99999999999987
0
ENDSEC
0
SECTION
2
OBJECTS
0
DICTIONARY
5
C
100
AcDbDictionary
3
ACAD_GROUP
350
D
3
ACAD_MLINESTYLE
350
17
0
DICTIONARY
5
D
100
AcDbDictionary
0
DICTIONARY
5
1A
330
C
100
AcDbDictionary
0
DICTIONARY
5
17
100
AcDbDictionary
0
ENDSEC
0
EOF
