0
SECTION
2
HEADER
9
$INSUNITS
70
4
9
$ACADVER
1
AC1014
9
$HANDSEED
5
FFFF
0
ENDSEC
0
SECTION
2
TABLES
0
TABLE
2
VPORT
5
8
100
AcDbSymbolTable
0
ENDTAB
0
TABLE
2
LTYPE
5
5
100
AcDbSymbolTable
70
2
0
LTYPE
5
14
100
AcDbSymbolTableRecord
100
AcDbLinetypeTableRecord
2
BYBLOCK
70
0
0
LTYPE
5
15
100
AcDbSymbolTableRecord
100
AcDbLinetypeTableRecord
2
BYLAYER
70
0
0
ENDTAB
0
TABLE
2
LAYER
5
2
100
AcDbSymbolTable
70
3
0
LAYER
5
50
100
AcDbSymbolTableRecord
100
AcDbLayerTableRecord
2
0
70
0
6
CONTINUOUS
0
LAYER
5
51
100
AcDbSymbolTableRecord
100
AcDbLayerTableRecord
2
CUTOUTS
70
0
62
1
6
CONTINUOUS
0
LAYER
5
52
100
AcDbSymbolTableRecord
100
AcDbLayerTableRecord
2
PERIMETER
70
0
62
5
6
CONTINUOUS
0
ENDTAB
0
TABLE
2
STYLE
5
3
100
AcDbSymbolTable
70
1
0
STYLE
5
11
100
AcDbSymbolTableRecord
100
AcDbTextStyleTableRecord
2
STANDARD
70
0
0
ENDTAB
0
TABLE
2
VIEW
5
6
100
AcDbSymbolTable
0
ENDTAB
0
TABLE
2
UCS
5
7
100
AcDbSymbolTable
0
ENDTAB
0
TABLE
2
APPID
5
9
100
AcDbSymbolTable
70
1
0
APPID
5
12
100
AcDbSymbolTableRecord
100
AcDbRegAppTableRecord
2
ACAD
70
0
0
ENDTAB
0
TABLE
2
DIMSTYLE
5
A
100
AcDbSymbolTable
0
ENDTAB
0
TABLE
2
BLOCK_RECORD
5
1
100
AcDbSymbolTable
70
2
0
BLOCK_RECORD
5
1F
100
AcDbSymbolTableRecord
100
AcDbBlockTableRecord
2
*MODEL_SPACE
0
BLOCK_RECORD
5
1B
100
AcDbSymbolTableRecord
100
AcDbBlockTableRecord
2
*PAPER_SPACE
0
ENDTAB
0
ENDSEC
0
SECTION
2
BLOCKS
0
BLOCK
5
20
100
AcDbEntity
100
AcDbBlockBegin
2
*MODEL_SPACE
0
ENDBLK
5
21
100
AcDbEntity
100
AcDbBlockEnd
0
BLOCK
5
1C
100
AcDbEntity
100
AcDbBlockBegin
2
*PAPER_SPACE
0
ENDBLK
5
1D
100
AcDbEntity
100
AcDbBlockEnd
0
ENDSEC
0
SECTION
2
ENTITIES
0
LINE
5
100
100
AcDbEntity
8
CUTOUTS
100
AcDbLine
10
47.045481757430174
20
60.274584649202161
30
0
11
45.688708624834575
21
62.624584649202156
31
0
0
LINE
5
101
100
AcDbEntity
8
CUTOUTS
100
AcDbLine
10
45.688708624834575
20
62.624584649202156
30
0
11
47.04548175743021
21
64.974584649202129
31
0
0
LINE
5
102
100
AcDbEntity
8
CUTOUTS
100
AcDbLine
10
47.04548175743021
20
64.974584649202129
30
0
11
49.759028022621443
21
64.974584649202114
31
0
0
LINE
5
103
100
AcDbEntity
8
CUTOUTS
100
AcDbLine
10
49.759028022621443
20
64.974584649202114
30
0
11
51.115801155217042
21
62.62458464920212
31
0
0
LINE
5
104
100
AcDbEntity
8
CUTOUTS
100
AcDbLine
10
51.115801155217042
20
62.62458464920212
30
0
11
49.759028022621408
21
60.274584649202147
31
0
0
LINE
5
105
100
AcDbEntity
8
CUTOUTS
100
AcDbLine
10
49.759028022621408
20
60.274584649202147
30
0
11
47.045481757430174
21
60.274584649202161
31
0
0
LINE
5
106
100
AcDbEntity
8
CUTOUTS
100
AcDbLine
10
166.65582873480872
20
62.624584649202141
30
0
11
168.01260186740436
21
64.974584649202171
31
0
0
LINE
5
107
100
AcDbEntity
8
CUTOUTS
100
AcDbLine
10
168.01260186740436
20
64.974584649202171
30
0
11
170.72614813259563
21
64.974584649202171
31
0
0
LINE
5
108
100
AcDbEntity
8
CUTOUTS
100
AcDbLine
10
170.72614813259563
20
64.974584649202171
30
0
11
172.08292126519126
21
62.624584649202156
31
0
0
LINE
5
109
100
AcDbEntity
8
CUTOUTS
100
AcDbLine
10
172.08292126519126
20
62.624584649202156
30
0
11
170.72614813259563
21
60.274584649202147
31
0
0
LINE
5
10A
100
AcDbEntity
8
CUTOUTS
100
AcDbLine
10
170.72614813259563
20
60.274584649202147
30
0
11
168.01260186740436
21
60.274584649202112
31
0
0
LINE
5
10B
100
AcDbEntity
8
CUTOUTS
100
AcDbLine
10
168.01260186740436
20
60.274584649202112
30
0
11
166.65582873480872
21
62.624584649202141
31
0
0
LINE
5
10C
100
AcDbEntity
8
CUTOUTS
100
AcDbLine
10
-46.246756121251842
20
-57.713495903055019
30
0
11
-48.062472979062036
21
-59.730053768725398
31
0
0
LINE
5
10D
100
AcDbEntity
8
CUTOUTS
100
AcDbLine
10
-48.062472979062036
20
-59.730053768725398
30
0
11
-50.716721747839024
21
-59.165875776617327
31
0
0
LINE
5
10E
100
AcDbEntity
8
CUTOUTS
100
AcDbLine
10
-50.716721747839024
20
-59.165875776617327
30
0
11
-51.555253658805817
21
-56.585139918838834
31
0
0
LINE
5
10F
100
AcDbEntity
8
CUTOUTS
100
AcDbLine
10
-51.555253658805817
20
-56.585139918838834
30
0
11
-49.739536800995623
21
-54.568582053168441
31
0
0
LINE
5
110
100
AcDbEntity
8
CUTOUTS
100
AcDbLine
10
-49.739536800995623
20
-54.568582053168441
30
0
11
-47.085288032218635
21
-55.132760045276534
31
0
0
LINE
5
111
100
AcDbEntity
8
CUTOUTS
100
AcDbLine
10
-47.085288032218635
20
-55.132760045276534
30
0
11
-46.246756121251842
21
-57.713495903055019
31
0
0
LINE
5
112
100
AcDbEntity
8
CUTOUTS
100
AcDbLine
10
46.586538032215614
20
-55.132760045276534
30
0
11
49.240786800992602
21
-54.568582053168441
31
0
0
LINE
5
113
100
AcDbEntity
8
CUTOUTS
100
AcDbLine
10
49.240786800992602
20
-54.568582053168441
30
0
11
51.056503658802797
21
-56.585139918838834
31
0
0
LINE
5
114
100
AcDbEntity
8
CUTOUTS
100
AcDbLine
10
51.056503658802797
20
-56.585139918838834
30
0
11
50.217971747836003
21
-59.165875776617327
31
0
0
LINE
5
115
100
AcDbEntity
8
CUTOUTS
100
AcDbLine
10
50.217971747836003
20
-59.165875776617327
30
0
11
47.563722979059015
21
-59.730053768725398
31
0
0
LINE
5
116
100
AcDbEntity
8
CUTOUTS
100
AcDbLine
10
47.563722979059015
20
-59.730053768725398
30
0
11
45.748006121248821
21
-57.713495903055005
31
0
0
LINE
5
117
100
AcDbEntity
8
CUTOUTS
100
AcDbLine
10
45.748006121248821
20
-57.713495903055005
30
0
11
46.586538032215614
21
-55.132760045276534
31
0
0
LINE
5
118
100
AcDbEntity
8
CUTOUTS
100
AcDbLine
10
-168.01260186740444
20
64.974584649202129
30
0
11
-166.65582873480878
21
62.624584649202141
31
0
0
LINE
5
119
100
AcDbEntity
8
CUTOUTS
100
AcDbLine
10
-166.65582873480878
20
62.624584649202141
30
0
11
-168.01260186740444
21
60.274584649202147
31
0
0
LINE
5
11A
100
AcDbEntity
8
CUTOUTS
100
AcDbLine
10
-168.01260186740444
20
60.274584649202147
30
0
11
-170.72614813259565
21
60.274584649202147
31
0
0
LINE
5
11B
100
AcDbEntity
8
CUTOUTS
100
AcDbLine
10
-170.72614813259565
20
60.274584649202147
30
0
11
-172.08292126519126
21
62.624584649202141
31
0
0
LINE
5
11C
100
AcDbEntity
8
CUTOUTS
100
AcDbLine
10
-172.08292126519126
20
62.624584649202141
30
0
11
-170.72614813259565
21
64.974584649202129
31
0
0
LINE
5
11D
100
AcDbEntity
8
CUTOUTS
100
AcDbLine
10
-170.72614813259565
20
64.974584649202129
30
0
11
-168.01260186740444
21
64.974584649202129
31
0
0
LINE
5
11E
100
AcDbEntity
8
CUTOUTS
100
AcDbLine
10
-172.08292126519126
20
-47.215415350797876
30
0
11
-170.72614813259563
21
-44.865415350797882
31
0
0
LINE
5
11F
100
AcDbEntity
8
CUTOUTS
100
AcDbLine
10
-170.72614813259563
20
-44.865415350797882
30
0
11
-168.01260186740438
21
-44.865415350797882
31
0
0
LINE
5
120
100
AcDbEntity
8
CUTOUTS
100
AcDbLine
10
-168.01260186740438
20
-44.865415350797882
30
0
11
-166.65582873480878
21
-47.215415350797898
31
0
0
LINE
5
121
100
AcDbEntity
8
CUTOUTS
100
AcDbLine
10
-166.65582873480878
20
-47.215415350797898
30
0
11
-168.01260186740444
21
-49.565415350797892
31
0
0
LINE
5
122
100
AcDbEntity
8
CUTOUTS
100
AcDbLine
10
-168.01260186740444
20
-49.565415350797892
30
0
11
-170.72614813259565
21
-49.565415350797892
31
0
0
LINE
5
123
100
AcDbEntity
8
CUTOUTS
100
AcDbLine
10
-170.72614813259565
20
-49.565415350797892
30
0
11
-172.08292126519126
21
-47.215415350797876
31
0
0
LINE
5
124
100
AcDbEntity
8
CUTOUTS
100
AcDbLine
10
166.65582873480872
20
-47.215415350797876
30
0
11
168.01260186740436
21
-44.865415350797846
31
0
0
LINE
5
125
100
AcDbEntity
8
CUTOUTS
100
AcDbLine
10
168.01260186740436
20
-44.865415350797846
30
0
11
170.72614813259563
21
-44.865415350797846
31
0
0
LINE
5
126
100
AcDbEntity
8
CUTOUTS
100
AcDbLine
10
170.72614813259563
20
-44.865415350797846
30
0
11
172.08292126519126
21
-47.215415350797862
31
0
0
LINE
5
127
100
AcDbEntity
8
CUTOUTS
100
AcDbLine
10
172.08292126519126
20
-47.215415350797862
30
0
11
170.72614813259563
21
-49.565415350797871
31
0
0
LINE
5
128
100
AcDbEntity
8
CUTOUTS
100
AcDbLine
10
170.72614813259563
20
-49.565415350797871
30
0
11
168.01260186740436
21
-49.565415350797906
31
0
0
LINE
5
129
100
AcDbEntity
8
CUTOUTS
100
AcDbLine
10
168.01260186740436
20
-49.565415350797906
30
0
11
166.65582873480872
21
-47.215415350797876
31
0
0
LINE
5
12A
100
AcDbEntity
8
CUTOUTS
100
AcDbLine
10
-47.544231757433231
20
60.274584649202161
30
0
11
-50.257778022624464
21
60.274584649202183
31
0
0
LINE
5
12B
100
AcDbEntity
8
CUTOUTS
100
AcDbLine
10
-50.257778022624464
20
60.274584649202183
30
0
11
-51.614551155220063
21
62.624584649202177
31
0
0
LINE
5
12C
100
AcDbEntity
8
CUTOUTS
100
AcDbLine
10
-51.614551155220063
20
62.624584649202177
30
0
11
-50.257778022624429
21
64.974584649202157
31
0
0
LINE
5
12D
100
AcDbEntity
8
CUTOUTS
100
AcDbLine
10
-50.257778022624429
20
64.974584649202157
30
0
11
-47.544231757433195
21
64.974584649202129
31
0
0
LINE
5
12E
100
AcDbEntity
8
CUTOUTS
100
AcDbLine
10
-47.544231757433195
20
64.974584649202129
30
0
11
-46.187458624837596
21
62.624584649202141
31
0
0
LINE
5
12F
100
AcDbEntity
8
CUTOUTS
100
AcDbLine
10
-46.187458624837596
20
62.624584649202141
30
0
11
-47.544231757433231
21
60.274584649202161
31
0
0
LINE
5
130
100
AcDbEntity
8
PERIMETER
100
AcDbLine
10
-7.7493750000006045
20
57.624584649202156
30
0
11
-7.7493750000009243
21
67.024584649202168
31
0
0
ARC
5
131
100
AcDbEntity
8
PERIMETER
100
AcDbCircle
10
-9.3493750000009257
20
67.024584649202097
30
0
40
1.6000000000000014
210
0
220
-0
230
1
100
AcDbArc
50
0
51
90
0
LINE
5
132
100
AcDbEntity
8
PERIMETER
100
AcDbLine
10
-9.3493750000009257
20
68.624584649202106
30
0
11
-176.16937500000003
21
68.624584649202191
31
0
0
ARC
5
133
100
AcDbEntity
8
PERIMETER
100
AcDbCircle
10
-176.16937500000006
20
65.424584649202203
30
0
40
3.1999999999999851
210
0
220
-0
230
1
100
AcDbArc
50
90
51
180
0
LINE
5
134
100
AcDbEntity
8
PERIMETER
100
AcDbLine
10
-179.36937500000002
20
65.424584649202188
30
0
11
-179.36937500000005
21
-50.015415350797888
31
0
0
ARC
5
135
100
AcDbEntity
8
PERIMETER
100
AcDbCircle
10
-176.16937500000006
20
-50.015415350797895
30
0
40
3.2000000000000028
210
0
220
0
230
1
100
AcDbArc
50
180
51
270
0
LINE
5
136
100
AcDbEntity
8
PERIMETER
100
AcDbLine
10
-176.16937500000006
20
-53.215415350797898
30
0
11
-97.2759680492711
21
-53.215415350797883
31
0
0
ARC
5
137
100
AcDbEntity
8
PERIMETER
100
AcDbCircle
10
-97.275968049271086
20
-62.815415350798034
30
0
40
9.6000000000001418
210
0
220
-0
230
1
100
AcDbArc
50
78.000000000000156
51
90
0
LINE
5
138
100
AcDbEntity
8
PERIMETER
100
AcDbLine
10
-95.28001581742059
20
-53.425198383753354
30
0
11
-24.759477120696616
21
-68.414801616246748
31
0
0
ARC
5
139
100
AcDbEntity
8
PERIMETER
100
AcDbCircle
10
-22.76352488884605
20
-59.024584649201337
30
0
40
9.6000000000008683
210
0
220
0
230
1
100
AcDbArc
50
258.00000000000063
51
269.9999999999996
0
LINE
5
13A
100
AcDbEntity
8
PERIMETER
100
AcDbLine
10
-22.763524888846121
20
-68.624584649202205
30
0
11
22.264774888837451
21
-68.624584649202205
31
0
0
ARC
5
13B
100
AcDbEntity
8
PERIMETER
100
AcDbCircle
10
22.26477488883738
20
-59.024584649201131
30
0
40
9.6000000000010743
210
-0
220
0
230
1
100
AcDbArc
50
270.0000000000004
51
281.99999999999903
0
LINE
5
13C
100
AcDbEntity
8
PERIMETER
100
AcDbLine
10
24.260727120687946
20
-68.414801616246748
30
0
11
94.781265817412105
21
-53.425198383753319
31
0
0
ARC
5
13D
100
AcDbEntity
8
PERIMETER
100
AcDbCircle
10
96.777218049262615
20
-62.815415350798069
30
0
40
9.6000000000002039
210
0
220
-0
230
1
100
AcDbArc
50
90
51
101.99999999999987
0
LINE
5
13E
100
AcDbEntity
8
PERIMETER
100
AcDbLine
10
96.777218049262615
20
-53.215415350797869
30
0
11
176.169375
21
-53.215415350797841
31
0
0
ARC
5
13F
100
AcDbEntity
8
PERIMETER
100
AcDbCircle
10
176.16937500000006
20
-50.015415350797866
30
0
40
3.1999999999999762
210
0
220
0
230
1
100
AcDbArc
50
-90.000000000001009
51
0
0
LINE
5
140
100
AcDbEntity
8
PERIMETER
100
AcDbLine
10
179.36937500000005
20
-50.015415350797838
30
0
11
179.36937499999999
21
65.424584649202131
31
0
0
ARC
5
141
100
AcDbEntity
8
PERIMETER
100
AcDbCircle
10
176.16937500000006
20
65.424584649202131
30
0
40
3.1999999999999318
210
0
220
-0
230
1
100
AcDbArc
50
0
51
90.000000000001009
0
LINE
5
142
100
AcDbEntity
8
PERIMETER
100
AcDbLine
10
176.169375
20
68.624584649202063
30
0
11
8.8506249999993969
21
68.624584649202106
31
0
0
ARC
5
143
100
AcDbEntity
8
PERIMETER
100
AcDbCircle
10
8.8506249999993969
20
67.02458464920214
30
0
40
1.5999999999999659
210
0
220
-0
230
1
100
AcDbArc
50
90
51
180
0
LINE
5
144
100
AcDbEntity
8
PERIMETER
100
AcDbLine
10
7.250624999999431
20
67.024584649202112
30
0
11
7.2506249999993955
21
57.624584649202156
31
0
0
ARC
5
145
100
AcDbEntity
8
PERIMETER
100
AcDbCircle
10
8.2506249999994452
20
57.624584649202212
30
0
40
1.0000000000000497
210
0
220
0
230
1
100
AcDbArc
50
180
51
269.99999999999591
0
LINE
5
146
100
AcDbEntity
8
PERIMETER
100
AcDbLine
10
8.2506249999993742
20
56.624584649202163
30
0
11
169.11937499999999
21
56.624584649202163
31
0
0
ARC
5
147
100
AcDbEntity
8
PERIMETER
100
AcDbCircle
10
169.11937499999999
20
56.374584649202177
30
0
40
0.24999999999998579
210
-0
220
0
230
1
100
AcDbArc
50
0
51
90
0
LINE
5
148
100
AcDbEntity
8
PERIMETER
100
AcDbLine
10
169.36937499999999
20
56.374584649202156
30
0
11
169.36937499999999
21
-40.965415350797898
31
0
0
ARC
5
149
100
AcDbEntity
8
PERIMETER
100
AcDbCircle
10
169.11937499999999
20
-40.965415350797883
30
0
40
0.24999999999999467
210
-0
220
0
230
1
100
AcDbArc
50
270
51
360
0
LINE
5
14A
100
AcDbEntity
8
PERIMETER
100
AcDbLine
10
169.11937499999999
20
-41.215415350797883
30
0
11
94.506966567535642
21
-41.215415350797898
31
0
0
LINE
5
14B
100
AcDbEntity
8
PERIMETER
100
AcDbLine
10
94.506966567535642
20
-41.215415350797898
30
0
11
-0.19739707729705458
21
-61.345449262290266
31
0
0
ARC
5
14C
100
AcDbEntity
8
PERIMETER
100
AcDbCircle
10
-0.24937500000149271
20
-61.100912362106861
30
0
40
0.24999999999995448
210
0
220
0
230
1
100
AcDbArc
50
257.99999999999812
51
282.00000000000182
0
LINE
5
14D
100
AcDbEntity
8
PERIMETER
100
AcDbLine
10
-0.30135292270593084
20
-61.345449262290266
30
0
11
-95.005716567538713
21
-41.215415350797898
31
0
0
LINE
5
14E
100
AcDbEntity
8
PERIMETER
100
AcDbLine
10
-95.005716567538713
20
-41.215415350797898
30
0
11
-169.11937499999999
21
-41.215415350797898
31
0
0
ARC
5
14F
100
AcDbEntity
8
PERIMETER
100
AcDbCircle
10
-169.11937499999999
20
-40.965415350797883
30
0
40
0.24999999999998579
210
0
220
0
230
1
100
AcDbArc
50
180
51
270
0
LINE
5
150
100
AcDbEntity
8
PERIMETER
100
AcDbLine
10
-169.36937500000002
20
-40.965415350797883
30
0
11
-169.36937500000002
21
56.374584649202149
31
0
0
ARC
5
151
100
AcDbEntity
8
PERIMETER
100
AcDbCircle
10
-169.11937500000008
20
56.374584649202191
30
0
40
0.24999999999996803
210
0
220
-0
230
1
100
AcDbArc
50
89.999999999993491
51
180
0
LINE
5
152
100
AcDbEntity
8
PERIMETER
100
AcDbLine
10
-169.11937499999999
20
56.624584649202163
30
0
11
-8.7493750000005832
21
56.624584649202177
31
0
0
ARC
5
153
100
AcDbEntity
8
PERIMETER
100
AcDbCircle
10
-8.7493750000005477
20
57.62458464920212
30
0
40
0.99999999999994316
210
0
220
0
230
1
100
AcDbArc
50
-90.000000000002032
51
0
0
ENDSEC
0
SECTION
2
OBJECTS
0
DICTIONARY
5
C
100
AcDbDictionary
3
ACAD_GROUP
350
D
3
ACAD_MLINESTYLE
350
17
0
DICTIONARY
5
D
100
AcDbDictionary
0
DICTIONARY
5
1A
330
C
100
AcDbDictionary
0
DICTIONARY
5
17
100
AcDbDictionary
0
ENDSEC
0
EOF
